<svg height="512" viewBox="0 0 512 512" width="512" xmlns="http://www.w3.org/2000/svg"><g id="flat"><path d="m159.425 431.6-30.665 5.634a23.285 23.285 0 0 1 -23.583-9.985 23.285 23.285 0 0 1 -1.453-23.331l4.267-8.533a57.2 57.2 0 0 0 -1.5-53.958l-5.763-10.087a19.66 19.66 0 0 0 -28.865-5.973 19.66 19.66 0 0 0 -5.063 25.833l8.9 14.834a19.363 19.363 0 0 1 0 19.924 57.2 57.2 0 0 0 .543 59.744 57.2 57.2 0 0 0 60.912 25.521l62.845-15.223z" fill="#7a4922"/><path d="m249.115 202.8-54.265 101.622a70.1 70.1 0 0 0 -1.169 47.578l-19.442 23.33a68.7 68.7 0 0 0 -14.814 56.27 68.694 68.694 0 0 0 67.586 56.4h158.67a32 32 0 0 0 -32-32h-16l14.959-20.943a78.789 78.789 0 0 0 9.041-75.057 134.715 134.715 0 0 0 14.019-67.722l-4.444-48a80.074 80.074 0 0 0 -20.575-49.278l-4-4z" fill="#dcdbd6"/><path d="m249.115 202.8-54.265 101.622a70.1 70.1 0 0 0 -1.169 47.578l-19.442 23.33a68.7 68.7 0 0 0 -14.814 56.27 68.534 68.534 0 0 0 9.906 25.033c12.351 19.067 24.785 31.367 48.68 31.367h167.67a32 32 0 0 0 -32-32h-16l14.959-20.943a78.789 78.789 0 0 0 9.041-75.057 134.715 134.715 0 0 0 14.019-67.722l-4.444-48a80.074 80.074 0 0 0 -20.575-49.278l-4-4z" fill="#dcdbd6"/><path d="m353.16 197.89a58.158 58.158 0 0 1 -7.37 7.35 98.089 98.089 0 0 1 -73.65 22.14l-5.21-.57a51.434 51.434 0 0 1 -22.04-7.81c-1.1-.71-2.18-1.46-3.22-2.26l7.44-13.94 97.57-11.8 4 4c.85.95 1.68 1.91 2.48 2.89z" fill="#dcdbd6"/><path d="m353.16 197.89a58.158 58.158 0 0 1 -7.37 7.35 98.089 98.089 0 0 1 -73.65 22.14l-5.21-.57a51.434 51.434 0 0 1 -22.04-7.81c-1.1-.71-2.18-1.46-3.22-2.26l7.44-13.94 97.57-11.8 4 4c.85.95 1.68 1.91 2.48 2.89z" fill="#cdccc8"/><path d="m249.681 96-56-40a136.84 136.84 0 0 0 29.985 85.482l2.015 2.518-2.847 11.389a51.288 51.288 0 0 0 5.777 38.828 51.287 51.287 0 0 0 38.317 24.588l5.212.579a98.119 98.119 0 0 0 73.65-22.141 58.61 58.61 0 0 0 19.948-33.527 58.606 58.606 0 0 0 -5.049-37.7l-7.008-14.016v-10.1a136.834 136.834 0 0 0 -19.5-70.4l-4.5-7.5-32 64a51.727 51.727 0 0 0 -45.05 6.033z" fill="#dcdbd6"/><path d="m232 120-6.32 24-2.01-2.52a136.918 136.918 0 0 1 -29.99-85.48z" fill="#dcdbd6"/><path d="m353.68 101.9v9.51l-25.68-15.41 1.68-72 4.5 7.5a136.84 136.84 0 0 1 19.5 70.4z" fill="#dcdbd6"/><path d="m241.681 488a31.456 31.456 0 0 1 -4.067-29.036l1.067-2.964-5-32-40-72 32.413 76.973 3.906 59.027z" fill="#cdccc8"/><path d="m321.681 488 2.867-7.258a31.467 31.467 0 0 0 1.543-17.945l-1.41-6.8 5-32 32-64-22.881 65.459-9.119 62.544z" fill="#cdccc8"/><path d="m202.079 448h-5.841a21.921 21.921 0 0 0 -15.5 6.42 21.92 21.92 0 0 0 -5.295 22.432l3.716 11.148h40l3.716-11.148a21.922 21.922 0 0 0 -5.3-22.432 21.919 21.919 0 0 0 -15.496-6.42z" fill="#cdccc8"/><g fill="#7a4922"><circle cx="259.681" cy="150" r="12"/><circle cx="317.681" cy="132" r="12"/><path d="m311 173.109-6.451-1.075-.993-5.465a8 8 0 0 0 -15.742 2.862l1.059 5.828-4.626 3.085a8 8 0 1 0 8.875 13.312l6.368-4.245 8.879 1.48a8.085 8.085 0 0 0 1.325.11 8 8 0 0 0 1.306-15.892z"/></g><path d="m232 120-6.32 24-2.01-2.52a136.918 136.918 0 0 1 -29.99-85.48z" fill="#faa6b2"/><path d="m353.68 101.9v9.51l-2.125-1.964a60.211 60.211 0 0 0 -23.555-13.446l1.68-72 4.5 7.5a136.84 136.84 0 0 1 19.5 70.4z" fill="#faa6b2"/><path d="m192.6 448h-5.84a21.921 21.921 0 0 0 -15.5 6.42 21.92 21.92 0 0 0 -5.295 22.432l3.716 11.148h40l3.716-11.148a21.922 21.922 0 0 0 -5.3-22.432 21.919 21.919 0 0 0 -15.497-6.42z" fill="#dcdbd6"/><path d="m319 329-37.319 52.261-33.681-45.261 31.321 59.515v92.485h5.679v-92.237z" fill="#cdccc8"/></g></svg>