<svg height="512" viewBox="0 0 512 512" width="512" xmlns="http://www.w3.org/2000/svg"><g id="flat"><g fill="#005dbb"><path d="m208 344h-56l24-48z"/><path d="m344 360-7.536 12.56a56.517 56.517 0 0 1 -48.464 27.44l8-24z"/><path d="m435.156 240h-67.156v110.545l32-14.545a140.666 140.666 0 0 0 35.228-17.545l-11.228-22.455h36.655a140.644 140.644 0 0 0 14.161-18.906l13.184-21.094a95.263 95.263 0 0 0 -52.844-16z"/><path d="m104 240a109.256 109.256 0 0 0 -77.255-32h-2.745l40 48-40 48h2.745a109.256 109.256 0 0 0 77.255-32z"/></g><circle cx="404" cy="268" fill="#007af6" r="12"/><path d="m368 240h-264v32h264z" fill="#007af6"/><path d="m104 272a81.235 81.235 0 0 1 64.389 31.7l18.348 23.854a124.118 124.118 0 0 0 98.378 48.446 124.112 124.112 0 0 0 51.36-11.125l31.525-14.33v-78.545z" fill="#eaeae8"/><path d="m304 304a35.778 35.778 0 0 0 0 32 135.561 135.561 0 0 1 -60.622-14.311l-3.378-1.689 3.378-1.689a135.561 135.561 0 0 1 60.622-14.311z" fill="#005dbb"/><path d="m312 240-88-56-16 56z" fill="#005dbb"/><path d="m278.43 240h-28.86l-34.92-23.28 4.58-16.04a7.5 7.5 0 0 1 1.21.66z" fill="#005dbb"/><path d="m278.43 240h-28.86l-34.92-23.28 4.58-16.04a7.5 7.5 0 0 1 1.21.66z" fill="#007af6"/><path d="m168 240-32-32-8 32z" fill="#005dbb"/><circle cx="424" cy="192" fill="#a6deff" r="16"/><circle cx="470" cy="142" fill="#a6deff" r="18"/></g></svg>