<svg height="512" viewBox="0 0 512 512" width="512" xmlns="http://www.w3.org/2000/svg"><g id="flat"><path d="m464 328-48-128h-40l-16-48h-50.346l53.091 176z" fill="#92d1f7"/><path d="m24 328h464v160h-464z" fill="#5ebef7"/><path d="m80 328 48-104h40l64-136h32l8 24h32l40 136h48l32 80z" fill="#a6deff"/><path d="m136 304 32-80h-16z" fill="#92d1f7"/><path d="m360 296-16-48h16z" fill="#5ebef7"/><path d="m288 168-16-56h16z" fill="#92d1f7"/><path d="m88 328 16 64h24l24 64h32l16 32h144l24-64h40l16-32h24l24-64z" fill="#92d1f7"/><path d="m248.95 488h-17.89l-28-56h-19.06a8.006 8.006 0 0 1 -7.43-5.03l-12.8-32a8 8 0 0 1 14.86-5.94l10.79 26.97h18.58a8.011 8.011 0 0 1 7.16 4.42z" fill="#92d1f7"/><path d="m375.16 363.58-16 32a8.011 8.011 0 0 1 -7.16 4.42h-18.67l-36.66 88h-17.34l41.29-99.08a7.99 7.99 0 0 1 7.38-4.92h19.06l13.78-27.58a8.005 8.005 0 0 1 14.32 7.16z" fill="#92d1f7"/><path d="m248.95 488h-17.89l-28-56h-19.06a8.006 8.006 0 0 1 -7.43-5.03l-12.8-32a8 8 0 0 1 14.86-5.94l10.79 26.97h18.58a8.011 8.011 0 0 1 7.16 4.42z" fill="#5ebef7"/><path d="m375.16 363.58-16 32a8.011 8.011 0 0 1 -7.16 4.42h-18.67l-36.66 88h-17.34l41.29-99.08a7.99 7.99 0 0 1 7.38-4.92h19.06l13.78-27.58a8.005 8.005 0 0 1 14.32 7.16z" fill="#5ebef7"/><g fill="#b8e5ff"><path d="m120 368h-72a8 8 0 0 1 0-16h72a8 8 0 0 1 0 16z"/><path d="m168 368h-16a8 8 0 0 1 0-16h16a8 8 0 0 1 0 16z"/><path d="m304 368h-96a8 8 0 0 1 0-16h96a8 8 0 0 1 0 16z"/><path d="m440 368h-96a8 8 0 0 1 0-16h96a8 8 0 0 1 0 16z"/><path d="m152 432h-96a8 8 0 0 1 0-16h96a8 8 0 0 1 0 16z"/><path d="m272 432h-72a8 8 0 0 1 0-16h72a8 8 0 0 1 0 16z"/><path d="m440 432h-96a8 8 0 0 1 0-16h96a8 8 0 0 1 0 16z"/><path d="m296 400h-32a8 8 0 0 1 0-16h32a8 8 0 0 1 0 16z"/><path d="m224 400h-64a8 8 0 0 1 0-16h64a8 8 0 0 1 0 16z"/><path d="m464 400h-56a8 8 0 0 1 0-16h56a8 8 0 0 1 0 16z"/><path d="m384 464h-48a8 8 0 0 1 0-16h48a8 8 0 0 1 0 16z"/><path d="m248 464h-112a8 8 0 0 1 0-16h112a8 8 0 0 1 0 16z"/><path d="m304 464h-24a8 8 0 0 1 0-16h24a8 8 0 0 1 0 16z"/><path d="m128 400h-56a8 8 0 0 1 0-16h56a8 8 0 0 1 0 16z"/><path d="m304 264h-39.273l-8.727-24h-40l-40 88h152z"/></g><path d="m101.9 64.1a15.982 15.982 0 0 0 -13.9-8.1c-.455 0-.9.031-1.348.068a24 24 0 0 0 -46.652 7.932c0 .134.008.266.01.4a20.006 20.006 0 0 0 -16.01 19.6 20 20 0 0 0 20 20h56a20 20 0 0 0 20-20 20 20 0 0 0 -18.1-19.9z" fill="#dcdbd6"/><path d="m453.9 88.1a15.982 15.982 0 0 0 -13.9-8.1c-.455 0-.9.031-1.348.068a24 24 0 0 0 -46.652 7.932c0 .134.008.266.01.4a20.006 20.006 0 0 0 -16.01 19.6 20 20 0 0 0 20 20h56a20 20 0 0 0 20-20 20 20 0 0 0 -18.1-19.9z" fill="#eae9e4"/><path d="m157.9 98.774a15.984 15.984 0 0 0 -13.9-8.1c-.455 0-.9.031-1.348.068a24 24 0 0 0 -46.652 7.936c0 .135.008.267.01.4a20.006 20.006 0 0 0 -16.01 19.6 20 20 0 0 0 20 20h56a20 20 0 0 0 20-20 20 20 0 0 0 -18.1-19.904z" fill="#eae9e4"/><path d="m376 200 8 28.746 2.827-28.746z" fill="#5ebef7"/><path d="m272.81 287.249-8.083-23.249h7.395z" fill="#a8d1e8"/></g></svg>