<svg height="512" viewBox="0 0 512 512" width="512" xmlns="http://www.w3.org/2000/svg"><g id="flat"><path d="m315.21 360.049-11.21-56.049h-96l-11.21 56.049a123.472 123.472 0 0 1 -18.339 44.274 53.823 53.823 0 0 0 -1.948 56.558 53.82 53.82 0 0 0 46.731 27.119h65.532a53.82 53.82 0 0 0 46.73-27.119 53.823 53.823 0 0 0 -1.948-56.558 123.472 123.472 0 0 1 -18.338-44.274z" fill="#dcdbd6"/><path d="m215.994 408a8 8 0 0 1 -7.149-11.58l1.689-3.379a128.191 128.191 0 0 0 13.466-57.041 8 8 0 0 1 16 0 144.279 144.279 0 0 1 -15.155 64.2l-1.69 3.379a8 8 0 0 1 -7.161 4.421z" fill="#cdccc8"/><path d="m296.006 408a8 8 0 0 1 -7.161-4.424l-1.69-3.378a144.286 144.286 0 0 1 -15.155-64.198 8 8 0 0 1 16 0 128.2 128.2 0 0 0 13.466 57.044l1.689 3.378a8 8 0 0 1 -7.149 11.578z" fill="#cdccc8"/><path d="m295.238 34.241-3.649-1.622a100 100 0 0 0 -72.24-3.487 100 100 0 0 0 -60.294 55.479l-19.909 46.453a202.123 202.123 0 0 1 -42.862 63.308 75.9 75.9 0 0 0 -10.364 94.417 98.634 98.634 0 0 0 83.214 45.68h190.082a75.9 75.9 0 0 0 67.884-41.956 75.9 75.9 0 0 0 -11.469-84.713l-16.6-18.45a202.145 202.145 0 0 1 -41.518-71.3l-8.013-24.05a100.005 100.005 0 0 0 -54.262-59.759z" fill="#d5515e"/><g fill="#eae9e4"><path d="m168 304a32.022 32.022 0 0 1 -17.72 28.65 98.448 98.448 0 0 1 -45.62-22.18 32 32 0 1 1 63.34-6.47z"/><path d="m168 152a32 32 0 0 1 -54.49 22.76 201.529 201.529 0 0 0 25.64-43.7l4.36-10.17a32.006 32.006 0 0 1 24.49 31.11z"/><path d="m400 312a31.957 31.957 0 0 1 -2.33 12.01 75.885 75.885 0 0 1 -38.45 10.46h-14.01a32 32 0 1 1 54.79-22.47z"/><circle cx="240" cy="248" r="32"/><circle cx="312" cy="176" r="32"/><circle cx="240" cy="88" r="32"/></g><path d="m223.994 464a7.973 7.973 0 0 1 -3.572-.847l-1.69-.844a33.705 33.705 0 0 1 -18.732-30.309 8 8 0 0 1 16 0 17.791 17.791 0 0 0 9.889 16l1.689.845a8 8 0 0 1 -3.584 15.155z" fill="#cdccc8"/><path d="m272 464h-16a8 8 0 0 1 0-16h16a8 8 0 0 1 0 16z" fill="#cdccc8"/></g></svg>