<svg height="512" viewBox="0 0 512 512" width="512" xmlns="http://www.w3.org/2000/svg"><g id="flat"><path d="m195.119 299.763a108.83 108.83 0 0 1 17.135 103.473l-9.135 25.933-9.524-40.24a167.749 167.749 0 0 0 -25.937-57.739 167.757 167.757 0 0 0 -83.6-62.55l-20.058-6.779 36.016-3.187a108.826 108.826 0 0 1 95.103 41.089z" fill="#91a666"/><path d="m322.946 368.282a108.83 108.83 0 0 0 -98.161 36.944l-17.885 20.885 39.6-11.89a167.746 167.746 0 0 1 62.969-6.437 167.753 167.753 0 0 1 95.99 41.08l15.906 13.974-15.263-32.777a108.832 108.832 0 0 0 -83.156-61.779z" fill="#91a666"/><path d="m186.321 246.937a11.314 11.314 0 0 1 9.357-12.979 11.313 11.313 0 0 1 9.356-12.979 11.314 11.314 0 0 1 9.357-12.979l14.79 20.524a35.776 35.776 0 0 1 -18.713 25.958z" fill="#faa6b2"/><path d="m391.292 273.172a11.513 11.513 0 0 0 -5.576-15.3 11.514 11.514 0 0 0 -5.576-15.3 11.515 11.515 0 0 0 -5.576-15.3l-19.383 15.17-.777.844a36.414 36.414 0 0 0 11.152 30.6l1.445.987z" fill="#ddab4c"/><path d="m408.139 92.392a11.314 11.314 0 0 0 -11.387-11.24 11.315 11.315 0 0 0 -11.387-11.24 11.315 11.315 0 0 0 -11.388-11.24l-11.166 22.7a35.779 35.779 0 0 0 22.775 22.48z" fill="#faa6b2"/><path d="m338.354 271.88a7.969 7.969 0 0 0 -8.227-6.46 68.714 68.714 0 0 0 -31.28 9.143q4.224-13.335 7.627-26.918 5.45-21.8 8.725-44.051l.577-.913a17.787 17.787 0 0 1 16.911-8.237 8 8 0 0 0 8.79-7.527 8.254 8.254 0 0 0 -7.767-8.446 33.851 33.851 0 0 0 -15.73 2.423q1.182-12.163 1.719-24.379a151.338 151.338 0 0 0 38.881-39.756 8.235 8.235 0 0 0 -1.833-11.3c-3.7-2.6-6-5.9-11.265 2.1a132.432 132.432 0 0 1 -25.343 28.384v-59.355a8.182 8.182 0 0 0 -7.467-8.257 8 8 0 0 0 -8.533 7.982v59.632a132.01 132.01 0 0 1 -25.212-28.185c-7.181-10.9-7.066-4.815-10.743-2.714a8 8 0 0 0 -2.7 11.392 151.371 151.371 0 0 0 38.229 39.454q-.551 12.617-1.828 25.184a33.735 33.735 0 0 0 -18.21-5.629 8.228 8.228 0 0 0 -8.469 6.959 8 8 0 0 0 8 9.036 17.751 17.751 0 0 1 15.936 9.89l.171.343q-3.158 21.226-8.358 42.089-4.447 17.79-10.386 35.15a68.518 68.518 0 0 0 -35.9-27.642 8 8 0 1 0 -4.9 15.233 52.724 52.724 0 0 1 30.531 26.561l2.914 5.829a443.581 443.581 0 0 1 -79.563 129.969l-47.511 53.843a8 8 0 0 0 12 10.586l47.508-53.843a459.636 459.636 0 0 0 82.09-133.771l6.374-7a52.805 52.805 0 0 1 40.5-17.326l10.613-.081z" fill="#768753"/><g fill="#91a666"><path d="m182.764 148.029 24.983-8a63.606 63.606 0 0 1 29.133-2.283 63.6 63.6 0 0 1 45.85 31.944l10.436 18.771-15.5 4.967a74.9 74.9 0 0 1 -47.367-.556 74.9 74.9 0 0 1 -39.139-31.306z"/><path d="m434.809 161.839-23.171-10.08a61.264 61.264 0 0 0 -27.7-5 61.253 61.253 0 0 0 -47.022 26.19l-11.812 16.982 14.379 6.256a72.147 72.147 0 0 0 45.448 4.037 72.145 72.145 0 0 0 40.531-26.224z"/><path d="m223.447 263.839-12.979-9.357a35.776 35.776 0 0 0 18.713-25.958l12.979 9.357a16 16 0 0 1 3.623 22.335 16 16 0 0 1 -22.336 3.623z"/><path d="m350.786 280.785 16.214-5.911a38.588 38.588 0 0 1 -11.82-32.429l-16.215 5.91a17.258 17.258 0 0 0 -10.305 22.125 17.259 17.259 0 0 0 22.126 10.305z"/></g><path d="m216.139 92.392a11.314 11.314 0 0 1 11.387-11.24 11.315 11.315 0 0 1 11.387-11.24 11.315 11.315 0 0 1 11.387-11.24l11.166 22.7a35.777 35.777 0 0 1 -22.774 22.48z" fill="#ddab4c"/><path d="m249.932 115.24-11.24-11.387a35.777 35.777 0 0 0 22.774-22.48l11.24 11.387a16 16 0 0 1 -.147 22.627 16 16 0 0 1 -22.627-.147z" fill="#91a666"/><path d="m374.346 115.24 11.24-11.387a35.779 35.779 0 0 1 -22.775-22.48l-11.239 11.387a16 16 0 0 0 .147 22.627 16 16 0 0 0 22.627-.147z" fill="#91a666"/><path d="m288.139 27.314a11.312 11.312 0 0 1 16 0 11.312 11.312 0 0 1 16 0 11.312 11.312 0 0 1 16 0l-8 24a35.778 35.778 0 0 1 -32 0z" fill="#d5515e"/><path d="m296.139 67.314v-16a35.778 35.778 0 0 0 32 0v16a16 16 0 0 1 -16 16 16 16 0 0 1 -16-16z" fill="#91a666"/></g></svg>