<svg height="512" viewBox="0 0 512 512" width="512" xmlns="http://www.w3.org/2000/svg"><g id="flat"><path d="m397.363 120.309a48.005 48.005 0 0 0 -44.335-32.283 112.03 112.03 0 0 0 -204.4 24.045 88 88 0 0 0 -84.628 87.929 88 88 0 0 0 88 88h208a88 88 0 0 0 88-88 88.007 88.007 0 0 0 -50.637-79.691z" fill="#eae9e4"/><path d="m448 200q0 4.02-.36 7.95a87.4 87.4 0 0 0 -13.74-39.74 88.43 88.43 0 0 0 -36.54-31.9 47.991 47.991 0 0 0 -44.33-32.28 112.027 112.027 0 0 0 -204.4 24.04 88.007 88.007 0 0 0 -84.27 79.91q-.36-3.945-.36-7.98a88 88 0 0 1 84.63-87.93 112.027 112.027 0 0 1 204.4-24.04 47.991 47.991 0 0 1 44.33 32.28 88.008 88.008 0 0 1 50.64 79.69z" fill="#dcdbd6"/><path d="m216 264h-16a8 8 0 0 1 0-16h16a8 8 0 0 1 0 16z" fill="#dcdbd6"/><path d="m352 264h-104a8 8 0 0 1 0-16h104a8 8 0 0 1 0 16z" fill="#dcdbd6"/><g fill="#a6deff"><path d="m265.805 376-15.266 25.444a17.8 17.8 0 0 0 5.391 23.972 17.8 17.8 0 0 0 19.751 0 17.8 17.8 0 0 0 5.39-23.972z"/><path d="m185.805 320-15.266 25.444a17.8 17.8 0 0 0 5.391 23.972 17.8 17.8 0 0 0 19.751 0 17.8 17.8 0 0 0 5.39-23.972z"/><path d="m206.2 427.594-15.266 25.443a17.8 17.8 0 0 0 5.39 23.973 17.8 17.8 0 0 0 19.751 0 17.8 17.8 0 0 0 5.391-23.973z"/><path d="m318.2 320-15.266 25.444a17.8 17.8 0 0 0 5.39 23.972 17.8 17.8 0 0 0 19.751 0 17.8 17.8 0 0 0 5.391-23.972z"/></g></g></svg>