<svg height="512" viewBox="0 0 512 512" width="512" xmlns="http://www.w3.org/2000/svg"><g id="flat"><rect fill="#d5515e" height="144" rx="48" width="96" x="56" y="96"/><path d="m308.364 118.611v-42.247a52.364 52.364 0 0 0 -52.364-52.364 52.364 52.364 0 0 0 -52.364 52.364v42.247a72 72 0 1 0 104.728 0z" fill="#91a666"/><circle cx="416" cy="192" fill="#ee9d0d" r="56"/><g fill="#7a4922"><path d="m104 184a8 8 0 0 0 -8 8v88a8 8 0 0 0 16 0v-88a8 8 0 0 0 -8-8z"/><path d="m282.343 146.343-25.477 25.477-18.466-24.62a8 8 0 0 0 -12.8 9.6l22.4 29.867v99.333a8 8 0 0 0 16 0v-98.686l29.657-29.657a8 8 0 0 0 -11.314-11.314z"/><path d="m446.656 187.562a8 8 0 0 0 -11.094-2.218l-19.562 13.041-19.562-13.041a8 8 0 1 0 -8.876 13.312l20.438 13.625v74.719a8 8 0 0 0 16 0v-74.719l20.438-13.625a8 8 0 0 0 2.218-11.094z"/></g><path d="m24 280h464v208h-464z" fill="#5b3719"/><path d="m426.545 312h-341.09a29.454 29.454 0 0 0 -29.455 29.455 29.454 29.454 0 0 0 29.455 29.454h13.31a39.168 39.168 0 0 0 -13.31 29.455 39.272 39.272 0 0 0 39.272 39.272h3.637c0 27.112 21.978 48.364 49.091 48.364h157.09c27.113 0 49.091-21.252 49.091-48.364h3.637a39.272 39.272 0 0 0 39.272-39.272 39.168 39.168 0 0 0 -13.31-29.455h13.31a29.454 29.454 0 0 0 29.455-29.454 29.454 29.454 0 0 0 -29.455-29.455z" fill="#a6deff"/><path d="m196.652 312a64.035 64.035 0 0 0 12.8 67.9v29.553a46.546 46.546 0 0 0 46.548 46.547 46.546 46.546 0 0 0 46.546-46.546v-29.554a64.035 64.035 0 0 0 12.8-67.9z" fill="#768753"/><path d="m336 352h-48a8 8 0 0 1 0-16h48a8 8 0 0 1 0 16z" fill="#92d1f7"/><path d="m376 352h-16a8 8 0 0 1 0-16h16a8 8 0 0 1 0 16z" fill="#5ebef7"/><path d="m384 384h-56a8 8 0 0 1 0-16h56a8 8 0 0 1 0 16z" fill="#92d1f7"/><path d="m208 352h-32a8 8 0 0 1 0-16h32a8 8 0 0 1 0 16z" fill="#92d1f7"/><path d="m144 352h-16a8 8 0 0 1 0-16h16a8 8 0 0 1 0 16z" fill="#5ebef7"/><path d="m184 384h-48a8 8 0 0 1 0-16h48a8 8 0 0 1 0 16z" fill="#92d1f7"/><path d="m256 416h-16a8 8 0 0 1 0-16h16a8 8 0 0 1 0 16z" fill="#92d1f7"/><path d="m344 416h-56a8 8 0 0 1 0-16h56a8 8 0 0 1 0 16z" fill="#92d1f7"/><path d="m208 416h-40a8 8 0 0 1 0-16h40a8 8 0 0 1 0 16z" fill="#5ebef7"/><path d="m240 448h-40a8 8 0 0 1 0-16h40a8 8 0 0 1 0 16z" fill="#92d1f7"/><path d="m304 448h-24a8 8 0 0 1 0-16h24a8 8 0 0 1 0 16z" fill="#5ebef7"/><path d="m272 384h-24a8 8 0 0 1 0-16h24a8 8 0 0 1 0 16z" fill="#5ebef7"/></g></svg>