<svg height="512" viewBox="0 0 512 512" width="512" xmlns="http://www.w3.org/2000/svg"><g id="flat"><path d="m266.764 232-26.28-15.768a28.259 28.259 0 0 1 -13.72-24.232l8-24h-48l8 24a28.259 28.259 0 0 1 -13.72 24.232l-26.28 15.768-18.764 16 96 48 32-48 .064-14.061" fill="#a86e09"/><path d="m176 256-2.569-8-1.027-1.54a24.659 24.659 0 0 0 -26.5-10.245 24.66 24.66 0 0 0 -18.204 19.085 112 112 0 0 0 1.169 49.131l14.088 56.353a20.084 20.084 0 0 0 19.488 15.216 20.087 20.087 0 0 0 14.2-5.882l10.119-10.118z" fill="#ee9d0d"/><path d="m157.68 375.42a20.07 20.07 0 0 1 -14.72-14.63l-14.09-56.36a112.189 112.189 0 0 1 -1.17-49.13 24.762 24.762 0 0 1 3.11-7.97q3.81 13.68 6.62 27.62z" fill="#c7830b"/><path d="m248 256 1.124-9.54a24.66 24.66 0 0 1 26.5-10.245 24.66 24.66 0 0 1 18.2 19.088 112.011 112.011 0 0 1 -1.169 49.131l-14.088 56.353a20.085 20.085 0 0 1 -19.484 15.213 20.085 20.085 0 0 1 -14.2-5.882l-10.119-10.118z" fill="#ee9d0d"/><path d="m256 264v80a31.987 31.987 0 0 1 -12.14 25.1l-9.1-9.1 8-104 6.36-9.54c.27-.4.55-.8.84-1.18a31.863 31.863 0 0 1 6.04 18.72z" fill="#a86e09"/><path d="m186.76 360-7.96 7.97a31.933 31.933 0 0 1 -10.8-23.97v-80a31.937 31.937 0 0 1 4.82-16.91l5.94 8.91z" fill="#a86e09"/><path d="m256 40a184 184 0 0 0 -184 184v104h32v-104a152 152 0 0 1 152-152 152 152 0 0 1 152 152v104h32v-104a184 184 0 0 0 -184-184z" fill="#7a4922"/><path d="m73.667 194.703-14.163-87.862-35.504 11.356 34.428 81.38z" fill="#768753"/><path d="m73.667 194.703-22.461-110.405 28.492-9.113 9.209 114.644z" fill="#91a666"/><path d="m471.966 177.359c.012-.453.034-.9.034-1.359a48.019 48.019 0 0 0 -59.738-46.548c-13.662-5.952-30.294-9.452-48.262-9.452-46.392 0-84 23.281-84 52a32.936 32.936 0 0 0 .936 7.765 32 32 0 1 0 45.31 38.683 131.163 131.163 0 0 0 75.408.032 47.974 47.974 0 0 0 46.128-.792 24 24 0 1 0 24.184-40.329z" fill="#768753"/><rect fill="#ee9d0d" height="144" rx="32" width="64" x="178.764" y="232"/><path d="m309.7 268.555-13.7-20.555 24-24 32 48v-72h40v72l32-48 24 24-13.7 20.555a190.415 190.415 0 0 0 -26.3 59.445h-72a190.415 190.415 0 0 0 -26.3-59.445z" fill="#b5cf7f"/><path d="m447.79 204.813a32 32 0 1 0 34.062 43.338 15.979 15.979 0 0 0 -4.1-30.672 31.991 31.991 0 0 0 -29.962-12.666z" fill="#91a666"/><path d="m154.708 395.562-30.479 9.749-50.195-112.337a394.356 394.356 0 0 1 -15.567-40.752l-7.967-24.911a32 32 0 0 1 20.73-40.228 32 32 0 0 1 40.227 20.731l7.968 24.912a394.347 394.347 0 0 1 10.975 42.221z" fill="#fd9226"/><path d="m98.35 245.6-38.06 12.17q-.93-2.775-1.82-5.55l-3.09-9.67 38.09-12.19a8 8 0 0 1 4.88 15.24z" fill="#fd9226"/><path d="m100.48 278.52-28.75 9.2q-3.165-7.365-6.03-14.87l29.9-9.57a8 8 0 1 1 4.88 15.24z" fill="#fd9226"/><path d="m102.6 311.44-17.78 5.68-6.56-14.69 19.47-6.23a8 8 0 1 1 4.87 15.24z" fill="#fd9226"/><path d="m98.35 245.6-38.06 12.17q-.93-2.775-1.82-5.55l-3.09-9.67 38.09-12.19a8 8 0 0 1 4.88 15.24z" fill="#da7e21"/><path d="m100.48 278.52-28.75 9.2q-3.165-7.365-6.03-14.87l29.9-9.57a8 8 0 1 1 4.88 15.24z" fill="#da7e21"/><path d="m102.6 311.44-17.78 5.68-6.56-14.69 19.47-6.23a8 8 0 1 1 4.87 15.24z" fill="#da7e21"/><path d="m40 360h432a0 0 0 0 1 0 0 128 128 0 0 1 -128 128h-176a128 128 0 0 1 -128-128 0 0 0 0 1 0 0z" fill="#915628"/><path d="m472 360q0 4.59-.32 9.1h-431.36q-.32-4.515-.32-9.1z" fill="#915628"/><g fill="#7a4922"><path d="m96 400h-16a8 8 0 0 1 0-16h16a8 8 0 0 1 0 16z"/><path d="m144 400h-16a8 8 0 0 1 0-16h16a8 8 0 0 1 0 16z"/><path d="m192 400h-16a8 8 0 0 1 0-16h16a8 8 0 0 1 0 16z"/><path d="m240 400h-16a8 8 0 0 1 0-16h16a8 8 0 0 1 0 16z"/><path d="m288 400h-16a8 8 0 0 1 0-16h16a8 8 0 0 1 0 16z"/><path d="m336 400h-16a8 8 0 0 1 0-16h16a8 8 0 0 1 0 16z"/><path d="m144 432h-16a8 8 0 0 1 0-16h16a8 8 0 0 1 0 16z"/><path d="m192 432h-16a8 8 0 0 1 0-16h16a8 8 0 0 1 0 16z"/><path d="m240 432h-16a8 8 0 0 1 0-16h16a8 8 0 0 1 0 16z"/><path d="m288 432h-16a8 8 0 0 1 0-16h16a8 8 0 0 1 0 16z"/><path d="m336 432h-16a8 8 0 0 1 0-16h16a8 8 0 0 1 0 16z"/><path d="m192 464h-16a8 8 0 0 1 0-16h16a8 8 0 0 1 0 16z"/><path d="m240 464h-16a8 8 0 0 1 0-16h16a8 8 0 0 1 0 16z"/><path d="m288 464h-16a8 8 0 0 1 0-16h16a8 8 0 0 1 0 16z"/><path d="m336 464h-16a8 8 0 0 1 0-16h16a8 8 0 0 1 0 16z"/><path d="m384 400h-16a8 8 0 0 1 0-16h16a8 8 0 0 1 0 16z"/><path d="m384 432h-16a8 8 0 0 1 0-16h16a8 8 0 0 1 0 16z"/><path d="m432 400h-16a8 8 0 0 1 0-16h16a8 8 0 0 1 0 16z"/></g><path d="m380 168h-.027a19.98 19.98 0 0 0 -35.573 8.011c-.134 0-.266-.012-.4-.012a24 24 0 1 0 5.635 47.328 36 36 0 1 0 30.365-55.327z" fill="#91a666"/><path d="m297.939 200.064a24 24 0 1 0 -33.875 33.875 32 32 0 1 0 33.875-33.875z" fill="#91a666"/><path d="m368 336a8 8 0 0 1 -8-8 60.1 60.1 0 0 0 -6.311-26.734l-.844-1.687a8 8 0 0 1 14.31-7.158l.845 1.689a76.189 76.189 0 0 1 8 33.89 8 8 0 0 1 -8 8z" fill="#91a666"/><rect fill="#a3612d" height="32" rx="16" width="464" x="24" y="328"/><path d="m472 360q0 4.59-.32 9.1h-431.36q-.32-4.515-.32-9.1z" fill="#7a4922"/></g></svg>