<svg height="512" viewBox="0 0 512 512" width="512" xmlns="http://www.w3.org/2000/svg"><g id="flat"><path d="m495.155 420.422a36.716 36.716 0 0 0 -24.417-19.422 12.293 12.293 0 0 1 13.684-1.849 8 8 0 0 0 7.156-14.31 28.31 28.31 0 0 0 -35.3 8.385 33.34 33.34 0 0 0 -34.811-8.82 8 8 0 1 0 5.058 15.18 17.319 17.319 0 0 1 18.479 5 77.555 77.555 0 0 0 -18.665 13.753 8 8 0 0 0 11.314 11.314 61.622 61.622 0 0 1 14.76-10.9 41.612 41.612 0 0 1 .563 34.1 8 8 0 1 0 14.708 6.3 57.56 57.56 0 0 0 1.336-41.984 20.831 20.831 0 0 1 11.821 10.412 8 8 0 1 0 14.31-7.156z" fill="#768753"/><path d="m416 456h-320l16.879-23.017a413.421 413.421 0 0 0 79.121-216.983h128a413.421 413.421 0 0 0 79.121 216.983z" fill="#915628"/><path d="m307.7 216-2.343-11.716a69.634 69.634 0 0 1 10.343-52.284l8.3-13.229-138.959 1.229 11.259 12a69.634 69.634 0 0 1 10.343 52.284l-2.343 11.716" fill="#bbbab6"/><path d="m264 216 32 48-32 56 56 64-64 72h-56l72-72-48-64 40-56-32-48z" fill="#cb2527"/><path d="m258 216 32 48-32 56 56 64-64 72h-44l72-72-48-64 40-56-32-48z" fill="#ea2b2d"/><path d="m144 464a8 8 0 0 1 -5.657-13.657 185.275 185.275 0 0 0 40.757-61.364 8 8 0 0 1 14.815 6.042 201.19 201.19 0 0 1 -44.262 66.636 7.974 7.974 0 0 1 -5.653 2.343z" fill="#7a4922"/><path d="m368 464a7.974 7.974 0 0 1 -5.657-2.343 202.315 202.315 0 0 1 -32-41.647 8 8 0 0 1 13.846-8.02 186.3 186.3 0 0 0 29.471 38.353 8 8 0 0 1 -5.66 13.657z" fill="#7a4922"/><path d="m194.526 376a8.007 8.007 0 0 1 -7.743-10.033c.6-2.3 1.169-4.63 1.679-6.926l3.728-16.778a8 8 0 0 1 15.62 3.47l-3.729 16.779c-.554 2.493-1.167 5.022-1.821 7.517a8 8 0 0 1 -7.734 5.971z" fill="#7a4922"/><path d="m98.529 376.41a33.342 33.342 0 0 0 -34.811 8.821 28.307 28.307 0 0 0 -35.3-8.386 8 8 0 1 0 7.156 14.31 12.292 12.292 0 0 1 13.688 1.845 36.716 36.716 0 0 0 -24.417 19.418 8 8 0 1 0 14.31 7.156 20.836 20.836 0 0 1 11.816-10.411 57.851 57.851 0 0 0 6.373 51.271 8 8 0 1 0 13.312-8.876 41.8 41.8 0 0 1 -3.073-40.807 61.591 61.591 0 0 1 14.76 10.9 8 8 0 1 0 11.314-11.314 77.555 77.555 0 0 0 -18.665-13.747 17.319 17.319 0 0 1 18.479-5 8 8 0 1 0 5.058-15.18z" fill="#768753"/><path d="m272 216v-6.7a155.883 155.883 0 0 1 8-49.3l2-6h-52l2 6a155.883 155.883 0 0 1 8 49.3v6.7z" fill="#cdccc8"/><path d="m352 96a24.338 24.338 0 0 0 -3.237.223 40.011 40.011 0 0 0 -51.057-21.583 55.97 55.97 0 0 0 -85.7 2.73 40 40 0 0 0 -56.772 18.853 24.338 24.338 0 0 0 -3.234-.223 24 24 0 1 0 12.148 44.7 39.964 39.964 0 0 0 47.861 5.934 55.97 55.97 0 0 0 85.7 2.73 39.981 39.981 0 0 0 42.146-8.664 24 24 0 1 0 12.145-44.7z" fill="#dcdbd6"/><circle cx="128" cy="200" fill="#915628" r="9"/><g fill="#dcdbd6"><circle cx="352" cy="192" r="8"/><circle cx="104" cy="160" r="10"/><circle cx="398" cy="210" r="10"/><circle cx="160" cy="176" r="8"/></g><circle cx="384" cy="168" fill="#915628" r="9"/><path d="m392 288h-16a8 8 0 0 1 0-16h16a8 8 0 0 1 0 16z" fill="#92d1f7"/><path d="m464 256h-64a8 8 0 0 1 0-16h64a8 8 0 0 1 0 16z" fill="#92d1f7"/><path d="m480 288h-56a8 8 0 0 1 0-16h56a8 8 0 0 1 0 16z" fill="#5ebef7"/><path d="m448 320h-56a8 8 0 0 1 0-16h56a8 8 0 0 1 0 16z" fill="#5ebef7"/><path d="m88 272h-48a8 8 0 0 1 0-16h48a8 8 0 0 1 0 16z" fill="#5ebef7"/><path d="m120 304h-48a8 8 0 0 1 0-16h48a8 8 0 0 1 0 16z" fill="#92d1f7"/><path d="m128 240h-56a8 8 0 0 1 0-16h56a8 8 0 0 1 0 16z" fill="#5ebef7"/><path d="m136 272h-16a8 8 0 0 1 0-16h16a8 8 0 0 1 0 16z" fill="#92d1f7"/><path d="m488 464h-464a8 8 0 0 1 0-16h464a8 8 0 0 1 0 16z" fill="#667447"/></g></svg>