<svg height="512" viewBox="0 0 512 512" width="512" xmlns="http://www.w3.org/2000/svg"><g id="flat"><path d="m24 424a56.724 56.724 0 0 0 48.549-27.389l16.069-26.069 18.8-34.368 28.582-.174 88 152-200 .276v-.276" fill="#529fff"/><path d="m135.33 356.16-6.56 26.19a108.283 108.283 0 0 1 -42 61.5 107.578 107.578 0 0 1 -62.73 20.15h-.04v-16a92.179 92.179 0 0 0 89.25-69.55l6.55-26.17a8 8 0 0 1 15.53 3.88z" fill="#0a71cd"/><path d="m164.99 386.08-3.44 10.09c-.03.1-.07.19-.1.29l-5.94 15.43c-.05.11-.09.23-.14.34a140.431 140.431 0 0 1 -42.89 54.74 139.922 139.922 0 0 1 -39.49 21.24l-48.99.07v-8.28h3.09a124.1 124.1 0 0 0 113.55-74.04l5.82-15.1 4.87-14.31a8 8 0 0 1 5.22-5.06z" fill="#0a71cd"/><path d="m224 488-14.311-14.311a269.457 269.457 0 0 1 -73.689-137.689l-1-3.078h122.186l97.636 127.078 44.919 28z" fill="#0a71cd"/><path d="m224 488-14.311-14.311a269.457 269.457 0 0 1 -73.689-137.689l-1-3.078h45.153l75.847-28.922 98.822 156 44.919 28z" fill="#007af6"/><path d="m272 488h-19.32l-8.65-8.65a276.563 276.563 0 0 1 -75.87-141.78 34.874 34.874 0 0 0 -1.72-4.65h16.9a5.952 5.952 0 0 1 .5 1.51 260.677 260.677 0 0 0 71.51 133.6l14.31 14.31a7.98 7.98 0 0 1 2.34 5.66z" fill="#0a71cd"/><path d="m312 488h-19.32l-8.65-8.65a276.563 276.563 0 0 1 -75.87-141.78 7.877 7.877 0 0 1 .47-4.65h14.75a7.555 7.555 0 0 1 .46 1.51 260.677 260.677 0 0 0 71.51 133.6l14.31 14.31a7.98 7.98 0 0 1 2.34 5.66z" fill="#0a71cd"/><path d="m388.444 488-34.7-16.438a177.825 177.825 0 0 1 -77.474-71.1 177.817 177.817 0 0 1 -23.608-104.364l3.338-97.098 144 1-11.476 22.952a106.694 106.694 0 0 0 -4.84 84.178 106.693 106.693 0 0 0 60.646 62.6l43.67 17.47v100.8z" fill="#529fff"/><path d="m488 419.06v16.33a7.76 7.76 0 0 1 -2.16-.3 131.775 131.775 0 0 1 -16.5-5.81l-45.19-19.37a144.11 144.11 0 0 1 -83.03-167.39l10.72-42.85 16.15.11a7.608 7.608 0 0 1 -.23 2.16l-11.11 44.46a128.081 128.081 0 0 0 73.81 148.81l45.18 19.36a116.823 116.823 0 0 0 12.36 4.49z" fill="#529fff"/><path d="m478.38 488h-35.76q-2.745-1.395-5.57-2.85c-7.53-3.87-16.05-8.25-25.94-12.93l-28.93-13.7a192.658 192.658 0 0 1 -110.18-174.11v-52.41a8 8 0 0 1 16 0v52.41a176.664 176.664 0 0 0 101.03 159.65l28.93 13.7c10.12 4.79 18.77 9.24 26.4 13.15 7.23 3.72 13.49 6.88 19.74 9.83 1.26.6 7.93 3.73 14.28 7.26z" fill="#529fff"/><path d="m488 452.62v16.23a7.878 7.878 0 0 1 -1.79-.21 132.557 132.557 0 0 1 -26.82-9.26l-61.99-29.17a163.616 163.616 0 0 1 -90.77-180.14l5.53-27.64a2.744 2.744 0 0 1 .09-.39l5.72-22.61 15.72.11a7.931 7.931 0 0 1 -.11 3.42l-5.78 22.81-5.48 27.44a147.6 147.6 0 0 0 81.89 162.52l61.99 29.17a116.275 116.275 0 0 0 21.8 7.72z" fill="#529fff"/><path d="m488 452.62v16.23a7.878 7.878 0 0 1 -1.79-.21 132.557 132.557 0 0 1 -26.82-9.26l-61.99-29.17a163.616 163.616 0 0 1 -90.77-180.14l5.53-27.64a2.744 2.744 0 0 1 .09-.39l5.72-22.61 15.72.11a7.931 7.931 0 0 1 -.11 3.42l-5.78 22.81-5.48 27.44a147.6 147.6 0 0 0 81.89 162.52l61.99 29.17a116.275 116.275 0 0 0 21.8 7.72z" fill="#529fff"/><path d="m312 488h-19.32l-8.65-8.65a276.563 276.563 0 0 1 -75.87-141.78 8.016 8.016 0 0 1 6.27-9.41 8 8 0 0 1 8.95 4.76 7.555 7.555 0 0 1 .46 1.51 260.677 260.677 0 0 0 71.51 133.6l14.31 14.31a7.98 7.98 0 0 1 2.34 5.66z" fill="#005dbb"/><path d="m272 488h-19.32l-8.65-8.65a276.563 276.563 0 0 1 -75.87-141.78 34.874 34.874 0 0 0 -1.72-4.65h16.9a5.952 5.952 0 0 1 .5 1.51 260.677 260.677 0 0 0 71.51 133.6l14.31 14.31a7.98 7.98 0 0 1 2.34 5.66z" fill="#005dbb"/><path d="m488 419.06v16.33a7.76 7.76 0 0 1 -2.16-.3 131.775 131.775 0 0 1 -16.5-5.81l-45.19-19.37a144.11 144.11 0 0 1 -83.03-167.39l10.72-42.85 16.15.11a7.608 7.608 0 0 1 -.23 2.16l-11.11 44.46a128.081 128.081 0 0 0 73.81 148.81l45.18 19.36a116.823 116.823 0 0 0 12.36 4.49z" fill="#0a71cd"/><path d="m488 452.62v16.23a7.878 7.878 0 0 1 -1.79-.21 132.557 132.557 0 0 1 -26.82-9.26l-61.99-29.17a163.616 163.616 0 0 1 -90.77-180.14l5.53-27.64a2.744 2.744 0 0 1 .09-.39l5.72-22.61 15.72.11a7.931 7.931 0 0 1 -.11 3.42l-5.78 22.81-5.48 27.44a147.6 147.6 0 0 0 81.89 162.52l61.99 29.17a116.275 116.275 0 0 0 21.8 7.72z" fill="#0a71cd"/><path d="m478.38 488h-35.76q-2.745-1.395-5.57-2.85c-7.53-3.87-16.05-8.25-25.94-12.93l-28.93-13.7a192.658 192.658 0 0 1 -110.18-174.11v-52.41a8 8 0 0 1 16 0v52.41a176.664 176.664 0 0 0 101.03 159.65l28.93 13.7c10.12 4.79 18.77 9.24 26.4 13.15 7.23 3.72 13.49 6.88 19.74 9.83 1.26.6 7.93 3.73 14.28 7.26z" fill="#0a71cd"/><path d="m433.782 189.673-3.782-5.673a24 24 0 0 0 -29.551-23.348 23.992 23.992 0 0 0 -36.776-.141 32 32 0 1 0 25.115 40.206 41.362 41.362 0 0 1 23.122 25.013 9.17 9.17 0 0 0 8.7 6.27h2.573a12.741 12.741 0 0 0 10.6-5.673 33.038 33.038 0 0 0 -.001-36.654z" fill="#eae9e4"/><path d="m323.824 198-5.271-4.325a24 24 0 0 0 -35.072-13.724 23.991 23.991 0 0 0 -35.221 10.579 32 32 0 1 0 34.956 38.836 15.964 15.964 0 0 0 19.118-1.162 41.333 41.333 0 0 1 11.127 10.734 9.158 9.158 0 0 0 10.154 3.37l2.4-.732a12.615 12.615 0 0 0 8.414-8.279 33.039 33.039 0 0 0 -10.605-35.297z" fill="#eae9e4"/><path d="m153.777 318.925-5.183-1.576a19.065 19.065 0 0 0 -29.918.57 19.063 19.063 0 0 0 -22.649 18.462 25.424 25.424 0 1 0 37.457 17.9 12.687 12.687 0 0 0 13.685-6.657 32.838 32.838 0 0 1 11.366 4.465 7.286 7.286 0 0 0 8.5-.539l1.58-1.3a10.125 10.125 0 0 0 3.646-8.829 26.251 26.251 0 0 0 -18.484-22.496z" fill="#eae9e4"/><path d="m266.985 286.316-3.639-3.249a36.614 36.614 0 0 0 -14.787-8.022 22.665 22.665 0 0 0 -5.251-.769 24 24 0 0 0 -46.138-1.683 40 40 0 1 0 46.83 39.407v-.022a2.73 2.73 0 0 1 2.243-2.7 17.03 17.03 0 0 1 11.739 2.116 9.89 9.89 0 0 0 13.8 3.486 10.162 10.162 0 0 0 4.63-9.382 28.432 28.432 0 0 0 -9.427-19.182z" fill="#eae9e4"/><path d="m216.956 432 7.786-13.515a64.676 64.676 0 0 1 45.4-31.509 64.677 64.677 0 0 1 34.658 3.745l.367.147a64.67 64.67 0 0 1 29.1 23.155 18.233 18.233 0 0 1 2.434 15.629 18.377 18.377 0 0 1 -2 4.429l-.95 1.526c-4.878 7.838-15.155 10.754-23.13 6.1-.321-.188-.639-.386-.951-.594l-3.268-2.177a15.284 15.284 0 0 0 -19.267 1.9l-.413.412a15.214 15.214 0 0 0 -3.768 15.621l.118.352a37.606 37.606 0 0 0 18.878 21.76c8.623 4.305 18.05 9.019 18.05 9.019h-160z" fill="#dcdbd6"/><path d="m160 488v-15.029a40.971 40.971 0 0 1 12-28.971 40.971 40.971 0 0 1 28.971-12h7.985a28.11 28.11 0 0 1 23.389 12.517 13.8 13.8 0 0 1 -3.828 19.138l-3.1 2.069a13.8 13.8 0 0 1 -17.417-1.724 16 16 0 0 0 -16 16v8z" fill="#eae9e4"/><circle cx="116.132" cy="112" fill="#ea2b2d" r="48"/><path d="m116.133 140.133a28.285 28.285 0 0 1 -5.4-.52 8 8 0 1 1 3.063-15.7 12.142 12.142 0 0 0 14.469-11.913 8 8 0 0 1 16 0 28.164 28.164 0 0 1 -28.132 28.133z" fill="#cb2527"/><g fill="#f3be5f"><path d="m92.721 44.573a8 8 0 0 1 -7.638-5.631l-3.9-12.571a8 8 0 1 1 15.281-4.742l3.9 12.571a8 8 0 0 1 -7.643 10.373z"/><path d="m52.853 72.736a7.965 7.965 0 0 1 -4.782-1.59l-10.546-7.877a8 8 0 1 1 9.575-12.819l10.546 7.877a8 8 0 0 1 -4.793 14.409z"/><path d="m37.164 118.954h-.107l-13.157-.175a8 8 0 0 1 .1-16h.107l13.163.174a8 8 0 0 1 -.1 16z"/><path d="m40.886 173.168a8 8 0 0 1 -4.623-14.535l10.75-7.595a8 8 0 1 1 9.232 13.068l-10.745 7.594a7.969 7.969 0 0 1 -4.614 1.468z"/><path d="m86.5 207.248a8.006 8.006 0 0 1 -7.576-10.574l4.232-12.464a8 8 0 0 1 15.151 5.144l-4.233 12.464a8 8 0 0 1 -7.574 5.43z"/><path d="m143.439 208a8 8 0 0 1 -7.637-5.631l-3.902-12.569a8 8 0 1 1 15.282-4.742l3.9 12.571a8.005 8.005 0 0 1 -7.643 10.371z"/><path d="m189.946 175.141a7.963 7.963 0 0 1 -4.781-1.591l-10.546-7.877a8 8 0 0 1 9.574-12.819l10.546 7.877a8 8 0 0 1 -4.793 14.41z"/><path d="m208.267 121.22h-.108l-13.159-.175a8 8 0 0 1 .1-16h.107l13.162.174a8 8 0 0 1 -.1 16z"/><path d="m180.643 74.429a8 8 0 0 1 -4.623-14.535l10.75-7.594a8 8 0 1 1 9.23 13.067l-10.75 7.595a7.969 7.969 0 0 1 -4.607 1.467z"/><path d="m141.531 45.22a8.006 8.006 0 0 1 -7.576-10.574l4.233-12.464a8 8 0 0 1 15.15 5.144l-4.238 12.464a8 8 0 0 1 -7.569 5.43z"/></g></g></svg>