<svg height="512" viewBox="0 0 512 512" width="512" xmlns="http://www.w3.org/2000/svg"><g id="flat"><path d="m469.333 338v-46.667l-37.572 12.525a14 14 0 0 1 -18.428-13.282v-73.909h-317.333v166.033a125.757 125.757 0 0 1 -56 104.633h429.333a125.759 125.759 0 0 1 -56-104.637v-.627a26 26 0 0 1 14.373-23.255z" fill="#7a4922"/><path d="m126.89 459.08c-4.01 9.59-8.5 19.07-13.42 28.25h-17.44a7.918 7.918 0 0 1 .98-3.21 313.417 313.417 0 0 0 15.11-31.2 8 8 0 0 1 14.77 6.16z" fill="#7a4922"/><path d="m193.77 409.51a347.814 347.814 0 0 1 -23.7 75.53l-1.02 2.29h-17.02a7.985 7.985 0 0 1 .66-2.58l2.76-6.21a331.276 331.276 0 0 0 22.6-72.05 8 8 0 1 1 15.72 3.02z" fill="#7a4922"/><path d="m239.76 442.54a273.584 273.584 0 0 1 -9.12 29.21l-5.84 15.58h-16.77a7.861 7.861 0 0 1 .48-2.14l7.15-19.06a255.969 255.969 0 0 0 8.58-27.5 8 8 0 0 1 15.52 3.91z" fill="#7a4922"/><path d="m359.97 487.33h-17.02l-1.02-2.29a347.873 347.873 0 0 1 -25.17-83.72 8 8 0 0 1 15.78-2.64 331.524 331.524 0 0 0 24.01 79.86l2.76 6.21a7.985 7.985 0 0 1 .66 2.58z" fill="#7a4922"/><path d="m415.97 487.33h-17.44a325.919 325.919 0 0 1 -19.74-44.65 8 8 0 1 1 15.07-5.36 311.232 311.232 0 0 0 21.13 46.8 7.918 7.918 0 0 1 .98 3.21z" fill="#7a4922"/><circle cx="464.667" cy="314.667" fill="#f6bb92" r="23.333"/><ellipse cx="254.667" cy="216.667" fill="#f6bb92" rx="158.667" ry="56"/><path d="m376 216.667c0-22.451-44.485-31.4-71-34.731a8 8 0 1 0 -2 15.875c43.348 5.45 57 16.278 57 18.856 0 .024-.646 2.785-8.675 6.769-7.655 3.8-18.989 7.151-32.778 9.7a8 8 0 1 0 2.906 15.734c24.506-4.525 53.626-13.636 54.505-31.379a7.959 7.959 0 0 0 .042-.824z" fill="#e6af89"/><path d="m215.99 196.967a7.988 7.988 0 0 0 .815-.042c7.554-.764 15.46-1.306 23.5-1.611a8 8 0 0 0 -.606-15.988c-8.372.317-16.615.882-24.5 1.681a8 8 0 0 0 .8 15.96z" fill="#e6af89"/><path d="m191.809 192.221a8 8 0 0 0 -9.545-6.074c-30.7 6.827-46.264 17.094-46.264 30.52a8 8 0 1 0 16 0c0-1.217 5.865-8.7 33.736-14.9a8 8 0 0 0 6.073-9.546z" fill="#e6af89"/><path d="m263.849 238.24c-2.563.049-5.2.073-7.849.073-33.694 0-64.841-3.968-85.454-10.889a8 8 0 1 0 -5.092 15.168c22.188 7.449 55.191 11.721 90.546 11.721 2.746 0 5.488-.025 8.151-.075a8 8 0 0 0 -.3-16z" fill="#e6af89"/><path d="m239.841 206.454a8 8 0 0 0 -9.428-6.254c-14.872 3.011-22.413 8.551-22.413 16.467 0 9.4 10.452 15.4 31.064 17.829a8.19 8.19 0 0 0 .946.056 8 8 0 0 0 .926-15.947 79.19 79.19 0 0 1 -10.752-1.939c1.01-.265 2.142-.528 3.4-.784a8 8 0 0 0 6.257-9.428z" fill="#e6af89"/><path d="m272.935 198.838a8 8 0 0 0 -1.87 15.891 78.312 78.312 0 0 1 10.941 1.989 8 8 0 0 0 5.544 14.965c10.915-3.168 16.45-8.221 16.45-15.016 0-9.404-10.452-15.402-31.065-17.829z" fill="#e6af89"/><g fill="#5b3719"><path d="m126.89 459.08c-4.01 9.59-8.5 19.07-13.42 28.25h-17.44a7.918 7.918 0 0 1 .98-3.21 313.417 313.417 0 0 0 15.11-31.2 8 8 0 0 1 14.77 6.16z"/><path d="m130.888 432a8.006 8.006 0 0 1 -7.674-10.276 309.7 309.7 0 0 0 12.786-88.089v-21.635a8 8 0 0 1 16 0v21.635a325.68 325.68 0 0 1 -13.446 92.639 8 8 0 0 1 -7.666 5.726z"/><path d="m193.77 409.51a347.814 347.814 0 0 1 -23.7 75.53l-1.02 2.29h-17.02a7.985 7.985 0 0 1 .66-2.58l2.76-6.21a331.276 331.276 0 0 0 22.6-72.05 8 8 0 1 1 15.72 3.02z"/><path d="m189.644 392a8.109 8.109 0 0 1 -.954-.057 8 8 0 0 1 -7-8.887 332.327 332.327 0 0 0 2.31-39.056 8 8 0 0 1 16 0 348.6 348.6 0 0 1 -2.422 40.943 8 8 0 0 1 -7.934 7.057z"/><path d="m239.76 442.54a273.584 273.584 0 0 1 -9.12 29.21l-5.84 15.58h-16.77a7.861 7.861 0 0 1 .48-2.14l7.15-19.06a255.969 255.969 0 0 0 8.58-27.5 8 8 0 0 1 15.52 3.91z"/><path d="m238.069 416a8.1 8.1 0 0 1 -.978-.06 8 8 0 0 1 -6.974-8.909 257.452 257.452 0 0 0 1.883-31.031 8 8 0 0 1 16 0 273.727 273.727 0 0 1 -2 32.968 8 8 0 0 1 -7.931 7.032z"/><path d="m284.376 464a8 8 0 0 1 -7.624-5.584 273.456 273.456 0 0 1 -10.752-49.449 8 8 0 0 1 15.883-1.934 257.374 257.374 0 0 0 10.117 46.549 8.005 8.005 0 0 1 -7.624 10.418z"/><path d="m359.97 487.33h-17.02l-1.02-2.29a347.873 347.873 0 0 1 -25.17-83.72 8 8 0 0 1 15.78-2.64 331.524 331.524 0 0 0 24.01 79.86l2.76 6.21a7.985 7.985 0 0 1 .66 2.58z"/><path d="m321.5 384a8 8 0 0 1 -7.955-7.247c-1.024-10.844-1.545-21.864-1.545-32.753a8 8 0 0 1 16 0c0 10.387.5 20.9 1.477 31.246a8 8 0 0 1 -7.21 8.719c-.257.023-.512.035-.767.035z"/><path d="m415.97 487.33h-17.44a325.919 325.919 0 0 1 -19.74-44.65 8 8 0 1 1 15.07-5.36 311.232 311.232 0 0 0 21.13 46.8 7.918 7.918 0 0 1 .98 3.21z"/><path d="m376.815 416a8 8 0 0 1 -7.771-6.13 326.242 326.242 0 0 1 -9.044-76.235v-21.635a8 8 0 0 1 16 0v21.635a310.236 310.236 0 0 0 8.6 72.493 8.008 8.008 0 0 1 -7.785 9.872z"/></g><path d="m344.006 216a8 8 0 0 1 -4.806-14.4l24.621-18.465-17.478-17.478a8 8 0 0 1 11.314-11.314l24 24a8 8 0 0 1 -.857 12.057l-32 24a7.967 7.967 0 0 1 -4.794 1.6z" fill="#dc9851"/><path d="m344 224h-16a8 8 0 0 1 0-16h8v-46a8 8 0 0 1 16 0v54a8 8 0 0 1 -8 8z" fill="#f7a014"/><path d="m304 34.667-32 21.333 32 8z" fill="#ffc864"/><path d="m304 64v56a48 48 0 0 0 9.6 28.8 48 48 0 0 0 38.4 19.2h8a54.374 54.374 0 0 0 53.954-47.629l2.046-16.371-56-16v-33.3a30.7 30.7 0 0 0 -47.735-25.547l-8.265 5.514z" fill="#eae9e4"/><path d="m429.322 70.695 2.678-6.695 32 24-19.514 23.417a68.322 68.322 0 0 1 -52.486 24.583l2.478-3.3a271.215 271.215 0 0 0 34.844-62.005z" fill="#f7a014"/><path d="m360 88v20.686a27.315 27.315 0 0 0 8 19.314 27.315 27.315 0 0 0 19.314 8 33.471 33.471 0 0 0 29.937-18.5l6.749-13.5z" fill="#a3612d"/><circle cx="328" cy="48" fill="#bbbab6" r="8"/></g></svg>