<svg height="512" viewBox="0 0 512 512" width="512" xmlns="http://www.w3.org/2000/svg"><g id="flat"><path d="m256 24c-122.751 0-223.219 95.335-231.441 216h462.882c-8.222-120.665-108.69-216-231.441-216z" fill="#eae9e4"/><path d="m416 240-72-96h-32l-8.674 26.022 56.674 69.978z" fill="#bbbab6"/><path d="m487.441 240h-462.882c-.359 5.288-.559 10.62-.559 16a231.8 231.8 0 0 0 11.181 71.3l4.819-.3c32.006 23.276 30.857 18 61.713 18s31.589 15 62.445 15 30.123-15 60.978-15 25.007 15 55.864 15 36.707-15 67.564-15 25.675 4.316 56.534 4.316c30.279 0 36.053-5 65.216-4.347a231.27 231.27 0 0 0 17.686-88.969c0-5.38-.2-10.712-.559-16z" fill="#a3612d"/><g fill="#7a4922"><path d="m96 280h-24a8 8 0 0 1 0-16h24a8 8 0 0 1 0 16z"/><path d="m176 280h-48a8 8 0 0 1 0-16h48a8 8 0 0 1 0 16z"/><path d="m144 312h-56a8 8 0 0 1 0-16h56a8 8 0 0 1 0 16z"/><path d="m208 312h-16a8 8 0 0 1 0-16h16a8 8 0 0 1 0 16z"/><path d="m280 280h-64a8 8 0 0 1 0-16h64a8 8 0 0 1 0 16z"/><path d="m352 280h-32a8 8 0 0 1 0-16h32a8 8 0 0 1 0 16z"/><path d="m336 312h-80a8 8 0 0 1 0-16h80a8 8 0 0 1 0 16z"/><path d="m440 280h-56a8 8 0 0 1 0-16h56a8 8 0 0 1 0 16z"/><path d="m416 312h-48a8 8 0 0 1 0-16h48a8 8 0 0 1 0 16z"/></g><path d="m272 128h-32l-24 48h-24l-40 64h208z" fill="#cdccc8"/><path d="m238.8 206.4a8 8 0 0 1 -11.2-1.6l-21-28a7.79 7.79 0 0 1 -.52-.8h9.92l4-8 20.4 27.2a8.005 8.005 0 0 1 -1.6 11.2z" fill="#cdccc8"/><path d="m174.634 240a24 24 0 0 0 -38.71-25.818 24 24 0 0 0 -47.08-4.492 24 24 0 0 0 -32.844 22.31c0 2.805-.884 5.5 0 8z" fill="#91a666"/><path d="m400 192-24 48h48z" fill="#91a666"/><path d="m440 184-24 56h48z" fill="#768753"/><circle cx="160" cy="120" fill="#ffc864" r="24"/><path d="m126.059 94.059a7.976 7.976 0 0 1 -5.657-2.343l-5.657-5.657a8 8 0 0 1 11.314-11.314l5.657 5.657a8 8 0 0 1 -5.657 13.657z" fill="#ffc864"/><path d="m112 128h-8a8 8 0 0 1 0-16h8a8 8 0 0 1 0 16z" fill="#ffc864"/><path d="m120.4 167.6a8 8 0 0 1 -5.657-13.657l5.657-5.657a8 8 0 0 1 11.316 11.314l-5.657 5.657a7.976 7.976 0 0 1 -5.659 2.343z" fill="#ffc864"/><path d="m160 184a8 8 0 0 1 -8-8v-8a8 8 0 0 1 16 0v8a8 8 0 0 1 -8 8z" fill="#ffc864"/><path d="m199.6 167.6a7.976 7.976 0 0 1 -5.657-2.343l-5.657-5.657a8 8 0 0 1 11.314-11.316l5.657 5.657a8 8 0 0 1 -5.657 13.659z" fill="#ffc864"/><path d="m216 128h-8a8 8 0 0 1 0-16h8a8 8 0 0 1 0 16z" fill="#ffc864"/><path d="m193.941 94.059a8 8 0 0 1 -5.657-13.659l5.657-5.657a8 8 0 1 1 11.314 11.314l-5.655 5.659a7.976 7.976 0 0 1 -5.659 2.343z" fill="#ffc864"/><path d="m248 72h-16a8 8 0 0 1 0-16h16a8 8 0 0 1 0 16z" fill="#a6deff"/><path d="m312 72h-24a8 8 0 0 1 0-16h24a8 8 0 0 1 0 16z" fill="#a6deff"/><path d="m280 104h-32a8 8 0 0 1 0-16h32a8 8 0 0 1 0 16z" fill="#a6deff"/><path d="m375.994 104a7.976 7.976 0 0 1 -3.572-.847l-5.88-2.94a7.69 7.69 0 0 0 -8.885 1.442 8 8 0 0 1 -11.314 0 7.687 7.687 0 0 0 -8.885-1.442l-5.88 2.94a8 8 0 0 1 -7.156-14.31l5.878-2.943a23.666 23.666 0 0 1 21.7.253 23.669 23.669 0 0 1 21.7-.253l5.881 2.941a8 8 0 0 1 -3.587 15.159z" fill="#bbbab6"/><path d="m415.994 136a7.976 7.976 0 0 1 -3.572-.847l-5.88-2.94a7.69 7.69 0 0 0 -8.885 1.442 8 8 0 0 1 -11.314 0 7.688 7.688 0 0 0 -8.885-1.442l-5.88 2.94a8 8 0 0 1 -7.156-14.31l5.878-2.943a23.666 23.666 0 0 1 21.7.253 23.669 23.669 0 0 1 21.7-.253l5.881 2.941a8 8 0 0 1 -3.587 15.159z" fill="#bbbab6"/><path d="m254 240-14.4-19.2a8 8 0 0 1 12.8-9.6l21.6 28.8z" fill="#bbbab6"/><path d="m238.8 206.4a8 8 0 0 1 -11.2-1.6l-21-28a7.79 7.79 0 0 1 -.52-.8h9.92l4-8 20.4 27.2a8.005 8.005 0 0 1 -1.6 11.2z" fill="#bbbab6"/><path d="m290.006 208a7.987 7.987 0 0 1 -6.406-3.2l-18-24a8 8 0 0 1 12.8-9.6l18 24a8 8 0 0 1 -6.394 12.8z" fill="#bbbab6"/><path d="m160 80a8 8 0 0 1 -8-8v-8a8 8 0 0 1 16 0v8a8 8 0 0 1 -8 8z" fill="#ffc864"/><path d="m348.564 345c-30.857 0-30.857-18-61.715-18s-30.856 18-61.713 18-30.855-18-61.71-18-30.856 18-61.713 18-30.856-18-61.713-18l-4.819.3c30.085 93.243 117.567 160.7 220.819 160.7 96.608 0 179.413-59.056 214.314-143.031-29.163-.651-29.753-17.969-60.032-17.969-30.859 0-30.859 18-61.718 18z" fill="#007af6"/><path d="m264 430-15.731-9.439a46.214 46.214 0 0 0 -48.269.439l-24-9 5 18-5 18 24-9a46.214 46.214 0 0 0 48.269.439z" fill="#005dbb"/><path d="m368 386-15.731-9.439a46.214 46.214 0 0 0 -48.269.439l-24-9 5 18-5 18 24-9a46.214 46.214 0 0 0 48.269.439z" fill="#005dbb"/><circle cx="242" cy="430" fill="#009cf7" r="6"/><circle cx="342" cy="386" fill="#009cf7" r="6"/></g></svg>