<svg id="Layer_1" enable-background="new 0 0 512.005 512.005" height="512" viewBox="0 0 512.005 512.005" width="512" xmlns="http://www.w3.org/2000/svg"><g><path d="m360.003 464.002c-.101.057-.885 0-208 0-69.478-39.701-120.851-108.255-137.299-190.491l-6.702-33.509h496l-6.702 33.509c-16.071 80.362-66.142 149.831-137.297 190.491z" fill="#e2e0e0"/><path d="m504.003 240.002-6.7 33.51c-16.07 80.36-66.15 149.83-137.3 190.49-.079.053-48.026.025-48 0 71.15-40.66 121.23-110.13 137.3-190.49l6.7-33.51z" fill="#cecccc"/><path d="m340.003 504.002h-168c-11.046 0-20-8.954-20-20v-20h208v20c0 11.046-8.955 20-20 20z" fill="#e2e0e0"/><path d="m360.003 464.002v20c0 11.05-8.95 20-20 20h-44c11.05 0 20-8.95 20-20v-20z" fill="#cecccc"/><path d="m475.218 95.187c1.292 9.318-4.065 18.288-12.891 21.563l-14.878 5.521c-9.619 3.569-16.747 11.808-18.897 21.84l-20.548 95.891h-56l29.663-106.786c6.434-23.164 24.305-41.405 47.332-48.313l20.586-6.176c11.782-3.534 23.943 4.274 25.633 16.46z" fill="#b59f89"/><path d="m462.323 116.752-14.87 5.52c-9.62 3.57-16.75 11.81-18.9 21.84l-20.55 95.89h-23.26l23.81-101.89c2.15-10.03 9.28-18.27 18.9-21.84l14.87-5.52c13.522-5.023 17.229-21.97 7.96-32.21 11.56-3.04 23.28 4.7 24.94 16.64 1.29 9.33-4.07 18.29-12.9 21.57z" fill="#a18b76"/><path d="m204.003 96.002c0 4.418 3.582 8 8 8s8-3.582 8-8c0-11.452 8-12.695 8-29.335 0-16.59-8-17.908-8-29.334 0-11.449 8-12.695 8-29.331 0-4.418-3.582-8-8-8s-8 3.582-8 8c0 11.45-8 12.693-8 29.331 0 16.59 8 17.908 8 29.334 0 11.451-8 12.697-8 29.335z"/><path d="m280.003 128.002c0 4.418 3.582 8 8 8s8-3.582 8-8c0-11.452 8-12.695 8-29.335 0-9.373-2.76-14.433-4.977-18.498-1.82-3.337-3.023-5.542-3.023-10.836 0-11.449 8-12.695 8-29.331 0-4.418-3.582-8-8-8s-8 3.582-8 8c0 11.45-8 12.693-8 29.331 0 9.373 2.76 14.433 4.977 18.498 1.82 3.337 3.023 5.542 3.023 10.836 0 11.451-8 12.697-8 29.335z"/><path d="m128.003 128.002c0 4.418 3.582 8 8 8s8-3.582 8-8c0-11.452 8-12.695 8-29.335 0-16.59-8-17.908-8-29.334 0-11.449 8-12.695 8-29.331 0-4.418-3.582-8-8-8s-8 3.582-8 8c0 11.45-8 12.693-8 29.331 0 16.59 8 17.908 8 29.334 0 11.451-8 12.697-8 29.335z"/><path d="m504.003 232.002h-86.104l18.474-86.215c1.586-7.397 6.767-13.385 13.858-16.017l14.879-5.521c21.956-8.148 24.64-37.566 5.397-49.921-6.901-4.431-15.365-5.62-23.223-3.265l-20.587 6.177c-25.813 7.744-45.528 27.869-52.74 53.834l-28.036 100.927h-337.918c-5.039 0-8.835 4.613-7.845 9.569l6.702 33.509c16.225 81.124 66.108 151.376 137.143 193.492v15.43c0 15.439 12.561 28 28 28h168c15.439 0 28-12.561 28-28v-15.43c71.035-42.116 120.918-112.367 137.143-193.492l6.702-33.509c.987-4.939-2.791-9.568-7.845-9.568zm-114.629-96.644c5.732-20.639 21.404-36.636 41.922-42.791l20.587-6.177c7.087-2.123 14.397 2.575 15.412 9.896.782 5.648-2.405 10.979-7.751 12.964l-14.879 5.521c-12.25 4.545-21.198 14.887-23.937 27.664l-19.193 89.567h-39.007zm-37.371 348.644c0 6.617-5.383 12-12 12h-168c-6.617 0-12-5.383-12-12v-12h192zm137.453-212.06c-15.485 77.427-63.399 144.396-131.594 184.061h-203.719c-68.195-39.665-116.109-106.634-131.594-184.061l-4.788-23.939h476.483z"/></g></svg>