<svg id="Layer_1" enable-background="new 0 0 512 512" height="512" viewBox="0 0 512 512" width="512" xmlns="http://www.w3.org/2000/svg"><g><path d="m459.497 273.63-54.83 214.78c-2.32 9.11-11.48 15.59-22.05 15.59h-253.24c-10.57 0-19.73-6.48-22.05-15.59l-54.83-214.78c-15.686-61.484 10.393-123.628 63.28-161.59h2.4c8.53 3.49 14.88 7.96 31.15 7.96 26.672 0 26.666-12 53.33-12 26.668 0 26.653 12 53.33 12 26.672 0 26.666-12 53.33-12 26.678 0 26.66 12 53.35 12 16.27 0 22.62-4.47 31.15-7.96h2.4c53.232 38.207 78.838 100.404 63.28 161.59z" fill="#f79caf"/><path d="m459.497 273.63-54.83 214.78c-2.32 9.11-11.48 15.59-22.05 15.59h-48c10.57 0 19.73-6.48 22.05-15.59l54.83-214.78c14.54-57.17-6.86-115.2-53.14-153.74 19.246.995 26.736-4.281 35.46-7.85h2.4c53.23 38.21 78.841 100.4 63.28 161.59z" fill="#e3889b"/><path d="m337.997 416h-164c-16.569 0-30-13.431-30-30v-164c0-16.569 13.431-30 30-30h164c16.569 0 30 13.431 30 30v164c0 16.569-13.431 30-30 30z" fill="#e2e0e0"/><path d="m367.997 222v164c0 16.57-13.43 30-30 30h-48c16.57 0 30-13.43 30-30v-164c0-16.57-13.43-30-30-30h48c16.571 0 30 13.43 30 30z" fill="#cecccc"/><path d="m415.997 105.04c0 1.73-1.491 2.953-3.2 3.02-23.504.908-24.57 11.94-50.13 11.94-26.687 0-26.676-12-53.35-12-26.668 0-26.653 12-53.33 12-26.672 0-26.666-12-53.33-12-26.668 0-26.653 12-53.33 12-25.578 0-26.603-11.031-50.13-11.94-1.707-.067-3.2-1.288-3.2-3.02 0-1.485-1.723.898 28.39-32.98 4.5-5.06 5.99-11.76 4.01-17.99l-6.53-20.58c-4.05-12.77 6.6-25.49 21.37-25.49h225.52c14.77 0 25.42 12.72 21.37 25.49l-6.53 20.58c-1.98 6.23-.49 12.93 4.01 17.99 30.116 33.881 28.39 31.494 28.39 32.98z" fill="#e2e0e0"/><path d="m415.997 105.04c0 1.73-1.49 2.95-3.2 3.02-23.5.91-24.57 11.94-50.13 11.94-11.58 0-18.12-2.26-24.01-4.81 7.12-3.09 13.26-6.63 26.14-7.13 1.71-.07 3.2-1.29 3.2-3.02 0-1.49 1.73.9-28.39-32.98-4.5-5.06-5.99-11.76-4.01-17.99l6.53-20.58c4.05-12.771-6.6-25.49-21.37-25.49h48c14.77 0 25.42 12.72 21.37 25.49l-6.53 20.58c-1.98 6.23-.49 12.93 4.01 17.99 30.12 33.88 28.39 31.49 28.39 32.98z" fill="#cecccc"/><path d="m255.998 264c-30.928 0-56 13.49-56 40 0 56 56 80 56 80s56-24 56-80c0-26.509-25.072-40-56-40z" fill="#f79caf"/><path d="m311.997 304c0 56-56 80-56 80s-9.12-3.91-20-12.25c16.08-12.33 36-34.35 36-67.75 0-20.47-14.94-33.17-36-37.9 32.493-7.325 76 2.942 76 37.9z" fill="#e3889b"/><path d="m255.997 264h-16c-17.673 0-32-14.327-32-32v-8h16c17.673 0 32 14.327 32 32z" fill="#acebe2"/><path d="m255.997 264h16c17.673 0 32-14.327 32-32v-8h-16c-17.673 0-32 14.327-32 32z" fill="#acebe2"/><path d="m414.105 115.969c9.155-1.126 12.912-11.614 7.147-18.098l-22.998-25.873c4.402-.019 7.965-3.592 7.965-7.998 0-4.418-3.582-8-8-8h-6.845l6.376-20.085c5.725-18.032-8.895-35.915-28.991-35.915h-225.523c-20.125 0-34.707 17.912-28.992 35.915l6.376 20.085h-6.845c-4.418 0-8 3.582-8 8 0 4.406 3.563 7.979 7.965 7.998l-22.997 25.873c-5.809 6.533-1.924 17.01 7.184 18.101-48.316 41.883-67.783 102.31-53.181 159.636l54.826 214.783c3.253 12.723 15.51 21.608 29.806 21.608h253.24c14.296 0 26.553-8.886 29.806-21.611l54.828-214.785c14.358-56.403-3.976-117.206-53.147-159.634zm-284.611-84.896c-2.522-7.946 4.902-15.073 13.742-15.073h225.523c8.91 0 16.238 7.209 13.742 15.073-7.051 22.211-7.078 21.856-7.505 24.927h-237.997c-.428-3.074-.326-2.312-7.505-24.927zm4.617 40.927h243.773c2.102 3.93 1.68 3.053 24.837 29.106-17.432 3.185-19.86 10.894-40.057 10.894-24.038 0-24.889-12-53.345-12-28.324 0-29.368 12-53.333 12-23.8 0-25.094-12-53.334-12-28.405 0-29.269 12-53.322 12-20.28 0-22.512-7.688-40.057-10.894 23.147-26.04 22.754-25.211 24.838-29.106zm320.817 182.896c-1.471 11.769 1.473-1.476-58.007 231.533-1.418 5.546-7.434 9.571-14.304 9.571h-253.24c-6.87 0-12.886-4.025-14.304-9.568l-54.824-214.777c-14.098-55.359 7.425-113.637 57.468-151.104 8.798 3.894 16.05 7.448 31.613 7.448 28.312 0 29.38-12 53.322-12 23.8 0 25.094 12 53.334 12 28.322 0 29.369-12 53.333-12 23.809 0 25.093 12 53.345 12 13.857 0 20.718-2.615 31.612-7.448 45.15 33.751 66.956 84.041 60.652 134.345z"/><path d="m295.196 264.555c10.16-7.261 16.802-19.143 16.802-32.555v-8c0-4.418-3.582-8-8-8h-16c-13.071 0-24.696 6.303-32 16.028-7.304-9.725-18.929-16.028-32-16.028h-16c-4.418 0-8 3.582-8 8v8c0 13.412 6.642 25.294 16.802 32.555-15.777 8.306-24.802 21.933-24.802 39.445 0 25.18 10.566 48.3 30.557 66.862 14.846 13.786 29.668 20.224 30.292 20.491 1.97.843 4.247.88 6.303 0 .624-.268 15.446-6.705 30.292-20.491 19.99-18.563 30.557-41.683 30.557-66.862-.002-17.532-9.042-31.147-24.803-39.445zm-7.199-32.555h8c0 13.233-10.767 24-24 24h-8c0-13.233 10.767-24 24-24zm-64 0c13.233 0 24 10.767 24 24h-8c-13.233 0-24-10.767-24-24zm54.924 126.795c-9.054 8.493-18.253 13.862-22.928 16.307-11.148-5.826-47.996-28.327-47.996-71.102 0-23.594 24.795-32 48-32s48 8.406 48 32c0 20.749-8.436 39.185-25.076 54.795z"/><path d="m255.997 328c-4.418 0-8 3.582-8 8v8c0 4.418 3.582 8 8 8s8-3.582 8-8v-8c0-4.418-3.582-8-8-8z"/><path d="m271.997 296c-4.418 0-8 3.582-8 8v8c0 4.418 3.582 8 8 8s8-3.582 8-8v-8c0-4.418-3.582-8-8-8z"/><path d="m247.997 304c0-4.418-3.582-8-8-8s-8 3.582-8 8v8c0 4.418 3.582 8 8 8s8-3.582 8-8z"/><path d="m337.997 184h-164c-20.953 0-38 17.047-38 38v164c0 20.953 17.047 38 38 38h164c20.953 0 38-17.047 38-38v-164c0-20.953-17.046-38-38-38zm22 202c0 12.131-9.869 22-22 22h-164c-12.131 0-22-9.869-22-22v-164c0-12.131 9.869-22 22-22h164c12.131 0 22 9.869 22 22z"/></g></svg>