<svg id="Layer_1" enable-background="new 0 0 512.002 512.002" height="512" viewBox="0 0 512.002 512.002" width="512" xmlns="http://www.w3.org/2000/svg"><g><path d="m211.791 440.182 10.53-110.527c.224-2.353-.487-4.7-1.979-6.534-.255-.313 1.628 2.005-73.621-90.618-3.96-4.874-3.525-11.885.84-16.25 4.61-4.61 12.04-4.76 16.83-.33l63.2 58.34 10.843-113.842c.859-9.015 8.222-16.27 17.277-16.416 9.269-.149 16.946 6.869 17.81 15.928l8.35 87.72 29.73-37.16c7.134-8.902 21.43-3.71 21.43 7.52 0 2.05-.52 4.1-1.59 5.97l-41.272 72.222c-2.048 3.584-2.937 7.714-2.545 11.823 2.469 25.875.137 1.393 12.587 132.155 2.41 25.36 15.41 48.53 35.79 63.82h-160c20.38-15.291 33.38-38.461 35.79-63.821z" fill="#b59f89"/><path d="m336.001 504.002h-32c-20.38-15.29-33.38-38.46-35.79-63.82-12.45-130.76-10.12-106.28-12.59-132.15-.39-4.11.5-8.24 2.55-11.83l37.85-66.24 15.58-19.47c7.13-8.9 21.43-3.71 21.43 7.52 0 2.05-.52 4.1-1.59 5.97l-41.27 72.22c-2.05 3.59-2.94 7.72-2.55 11.83 2.47 25.87.14 1.39 12.59 132.15 2.41 25.36 15.41 48.53 35.79 63.82z" fill="#a18b76"/><path d="m457.384 207.753c-4.002-1.868-8.764-.139-10.632 3.866-7.065 15.136-8.02 30.546-19.077 37.653-9.711 6.244-24.135 4.368-34.672 1.394 25.709-29.526 18.621-46.941 45.15-58.311 4.061-1.741 5.942-6.443 4.202-10.505-1.741-4.06-6.441-5.943-10.505-4.202-9.281 3.978-15.591 8.671-20.315 13.821-2.623-9.048-6.917-19.165-13.876-26.125-10.309-10.308-9.396-26.289-5-30.686 3.124-3.125 3.124-8.189 0-11.314-3.125-3.123-8.189-3.123-11.314 0-11.116 11.117-11.19 37.124 5 53.314 8.152 8.151 11.855 25.938 12.917 34.402-8.478 17.29-15.351 28.538-33.428 43.833-15.003 12.696-36.276 12.046-48.692 10.235 23.048-40.334 21.762-37.852 22.603-40.095 9.557-1.833 27.816-6.852 36.766-19.382 2.568-3.596 1.735-8.592-1.859-11.16-3.598-2.569-8.593-1.736-11.16 1.859-4.851 6.792-16.435 10.69-24.671 12.525-3.926-7.635-12.161-11.865-20.596-10.685-2.943-4.994-5.816-15.879 7.201-33.424 10.412-14.034 19.896-30.558 24.559-47.543 5.884-7.103 21.094-22.223 34.017-22.223 25.829 0 47.396-19.714 44.985-59.484-.267-4.41-4.047-7.771-8.47-7.501-4.41.268-7.769 4.06-7.501 8.47 1.365 22.513-6.599 42.516-29.015 42.516-11.639 0-22.674 6.312-31.2 13.12-.394-5.362-1.503-10.419-3.372-15.091-6.422-16.055 5.372-36.807 5.482-36.998 2.227-3.816.938-8.715-2.879-10.941s-8.716-.937-10.941 2.879c-.652 1.118-15.861 27.644-6.518 51.002 4.136 10.341 2.877 24.126-3.206 39.491-6.228-4.75-14.428-13.02-15.396-24.155-.383-4.401-4.228-7.665-8.663-7.276-4.401.383-7.659 4.261-7.276 8.663 1.641 18.879 15.56 31.377 24.311 37.451-3.306 5.925-7.238 11.986-11.766 18.089-16.898 22.776-14.18 40.898-8.043 51.284l-16.57 20.712-6.479-68.059c-.853-8.949-6.293-16.68-14.216-20.554 5.117-12.751 11.812-36.346 1.887-56.195-.363-.727-.755-1.394-1.161-2.03 2.861-7.623 10.354-24.434 22.89-31.399 26.542-14.745 25.568-35.502 21.345-44.418-1.891-3.993-6.658-5.697-10.654-3.805-3.993 1.891-5.696 6.661-3.805 10.654.058.122 5.556 12.354-14.655 23.582-14.879 8.266-23.939 25.004-28.41 35.525-9.339-3.957-15.031-7.609-21.501-21.009-1.921-3.979-6.706-5.648-10.682-3.727-3.979 1.921-5.647 6.703-3.727 10.682 14.429 29.891 32.796 26.595 36.049 33.101 8.188 16.374-.216 38.433-4.104 46.973-10.795 2.293-19.168 11.516-20.271 23.108l-1.94 20.367c-13.098-15.455-28.9-31.537-45.594-43.03 2.911-12.509 8.055-41.616-2.012-59.004-11.279-19.482-25.574-29.034-29.079-46.562-.867-4.333-5.08-7.141-9.414-6.275-4.332.866-7.142 5.081-6.275 9.414 4.454 22.271 20.378 33.226 30.921 51.438 5.615 9.699 3.963 28.056 1.569 41.057-19.913-14.262-33.601-27.422-48.275-62.176-1.719-4.069-6.41-5.976-10.481-4.259-4.07 1.719-5.978 6.411-4.259 10.481 18.779 44.475 36.835 57.462 63.803 76.017h.001c10.543 7.257 17.227 12.185 28.794 23.651-4.514 3.138-12.258 6.683-23.909 6.228-4.323-.195-8.134 3.192-8.313 7.674-.177 4.414 3.259 8.137 7.674 8.313 12.782.518 25.423-2.625 35.639-10.577 8.032 8.89 14.167 16.664 17.038 20.411l-5.202 54.606-51.335-47.388c-5.041-4.662-11.792-6.271-18.02-4.892-3.576-5.687-10.066-13.809-20.762-20.483 6.714-5.81 13.636-15.029 12.949-28.091-.232-4.411-3.978-7.776-8.41-7.568-4.412.232-7.8 3.997-7.568 8.41.566 10.754-9.933 17.444-13.794 19.533-19.801-6.99-21.206-16.838-22.222-43.261-.17-4.416-3.919-7.864-8.302-7.687-4.415.17-7.856 3.887-7.687 8.302.979 25.435 1.823 47.401 34.464 58.282 16.935 5.645 25.149 16.481 28.37 21.971-4.413 7.403-3.551 16.554 1.671 22.984l37.877 46.622c-13.507 3.713-33.604 6.422-45.588-2.567-.857-.643-1.714-1.249-2.571-1.85 2.439-12.279.587-31.298-18.989-43.534-23.464-14.663-40.353-14.786-46.294-25.185-2.191-3.837-7.077-5.17-10.915-2.978-3.837 2.192-5.169 7.079-2.978 10.915 9.84 17.221 28.077 16.045 51.706 30.815 10.11 6.318 12.385 14.81 12.354 21.26-27.879-12.804-51.846-7.107-53.054-6.805-4.286 1.071-6.893 5.415-5.82 9.701 1.071 4.285 5.413 6.896 9.701 5.82.282-.069 28.637-6.827 57.26 14.64 17.814 13.361 44.872 10.285 66.055 3.143 26.561 32.693 25.16 30.718 25.102 31.351-10.581 111.061-10.53 110.429-10.53 110.529-2.109 22.195-13.208 42.667-30.57 56.577h-29.256c-4.418 0-8 3.582-8 8s3.582 8 8 8h224c4.418 0 8-3.582 8-8s-3.582-8-8-8h-29.256c-17.362-13.91-28.461-34.382-30.57-56.579l-12.587-132.156c-.237-2.479.291-4.931 1.527-7.093l11.575-20.255c23.021 4.759 49.144 2.704 67.479-12.809 1.5-1.269 2.931-2.522 4.306-3.762 17.722 6.704 39.852 9.67 55.853-.616 16.749-10.767 18.221-29.982 24.923-44.347 1.869-4.002.138-8.762-3.866-10.63zm-177.724 101.034 12.587 132.151c1.945 20.468 10.29 39.712 23.538 55.063h-119.568c13.248-15.352 21.593-34.596 23.538-55.062l10.53-110.529c.425-4.474-.902-8.855-3.749-12.355-79.533-97.892-74.535-90.981-74.535-93.204 0-3.589 4.289-5.528 6.964-3.052l63.199 58.34c4.851 4.48 12.764 1.461 13.391-5.119l10.844-113.842c.49-5.146 4.746-9.177 9.567-9.177 5.098 0 9.131 3.864 9.591 8.688l8.351 87.721c.679 7.137 9.727 9.845 14.211 4.24l29.725-37.154c2.137-2.666 7.001-1.864 7.171 2.79-.095 1.403 2.967-4.374-41.79 73.948-2.885 5.044-4.118 10.769-3.565 16.553z"/></g></svg>