<svg id="Layer_1" enable-background="new 0 0 512 512" height="512" viewBox="0 0 512 512" width="512" xmlns="http://www.w3.org/2000/svg"><g><path d="m459.33 368.132c-361.215 92.21-291.4 76.658-388.75 94.24 19.38-7.2 33.42-28.37 33.42-53.37 0-30.93-21.49-56-48-56 19.292-3.484 340.848-61.545 360-65 35.445 0 58.423 43.231 43.33 80.13z" fill="#b59f89"/><path d="m459.33 368.132-32.98 8.45c.722-9.589.489-8.324.98-8.45 12.3-30.071-.557-66.314-27.84-77.15 2.683-.487-.175.03 16.51-2.98 35.445 0 58.423 43.231 43.33 80.13z" fill="#a18b76"/><path d="m104 409.002c0 25-14.04 46.17-33.42 53.37l-14.58 2.63c-26.51 0-48-25.07-48-56s21.49-56 48-56 48 25.07 48 56z" fill="#f3d4b7"/><path d="m104 409.002c0 25-14.04 46.17-33.42 53.37l-14.58 2.63c-4.44 0-8.74-.7-12.82-2.02l3.4-.61c19.38-7.2 33.42-28.37 33.42-53.37 0-26.1-15.3-48.02-36-54.24 30.131-9.023 60 17.336 60 54.24z" fill="#e1c3a7"/><path d="m456 352.002v16.98c-360.504 92.354-308.138 79.436-330.77 83.52-18.182-47.298 12.801-100.5 58.77-100.5z" fill="#a18b76"/><path d="m456 480.002h-272c-26.51 0-48-25.07-48-56s21.49-56 48-56h272c-26.51 0-48 25.07-48 56s21.49 56 48 56z" fill="#b59f89"/><path d="m392 254.002c0 76.211-59.789 114-59.789 114h-152.422s-59.789-18.737-59.789-114c0-171.474 160-222 160-222 .215 3.31-32 64 8 120 0 0 28.947 7.158 48-50 0 0 56 75.79 56 152z" fill="#f79caf"/><path d="m281.56 141.892c-13.6 13.07-25.56 10.11-25.56 10.11-27.75-38.85-20.75-79.95-13.93-102.59 21.91-12.35 37.93-17.41 37.93-17.41.2 3.11-28.26 56.93 1.56 109.89z" fill="#e3889b"/><path d="m392 254.002c0 76.21-59.79 114-59.79 114h-32s59.79-37.79 59.79-114c0-46.99-21.29-93.83-37.62-122.83 4.75-7.11 9.43-16.58 13.62-29.17 0 0 56 75.79 56 152z" fill="#e3889b"/><path d="m198.859 368.002s-48-98 24-154c0 0 0 24 16 32 0 0 24-8 24-64 0 0 104.647 66 48 186" fill="#f3d4b7"/><path d="m288.143 335.859c0 17.752-14.391 32.143-32.143 32.143s-32.143-14.391-32.143-32.143 32.143-57.857 32.143-57.857 32.143 40.105 32.143 57.857z" fill="#e1c3a7"/><ellipse cx="456" cy="424.002" fill="#f3d4b7" rx="48" ry="56"/><path d="m504 424.002c0 37.141-30.023 63.217-60 54.24 20.7-6.22 36-28.14 36-54.24s-15.3-48.02-36-54.24c30.131-9.023 60 17.336 60 54.24z" fill="#e1c3a7"/><path d="m469.76 361.963c10.49-41.086-16.637-81.96-53.76-81.96-.995 0 .045-.138-18.943 3.292 1.855-9.051 2.943-18.82 2.943-29.292 0-77.949-55.216-153.573-57.565-156.754-3.851-5.209-11.98-3.908-14.024 2.224-8.673 26.019-19.067 36.808-26.26 41.276-4.104 2.55-7.56 3.313-9.777 3.497-19.38-29.288-21.5-64.648-6.289-105.166 1.442-3.844 2.039-5.435 1.899-7.595-.337-5.191-5.46-8.671-10.393-7.111-1.696.536-42.014 13.519-82.777 48.235-24.015 20.452-43.162 44.23-56.911 70.675-28.169 54.178-37.127 135.729-8.362 188.308l-74.396 13.436c-30.485.526-55.145 29.012-55.145 63.974 0 35.29 25.121 64 56 64 1.193 0 7.755-1.268 80.885-14.474 9.971 17.71 27.358 29.474 47.115 29.474h272c30.879 0 56-28.71 56-64 0-29.865-17.993-55.012-42.24-62.039zm-53.082-65.954c27.69.555 46.017 33.69 37.04 63.993h-99.269c18.014-17.509 30.693-38.112 37.974-59.612zm-211.946-210.831c23.438-20.059 47.115-32.572 62.063-39.295-12.056 39.041-8.874 77.773 14.695 110.769 1.109 1.554 2.737 2.658 4.589 3.116 1.35.335 30.664 6.924 51.838-40.53 15.26 24.153 46.083 79.756 46.083 134.764 0 22.242-5.207 36.28-5.51 37.738-8.546 28.089-27.957 53.352-48.76 68.262h-6.654c23.944-59.626 9.202-105.529-8.132-134.145-19.831-32.738-46.684-49.907-47.817-50.622-5.321-3.354-12.268.476-12.268 6.767 0 36.308-10.532 49.924-15.819 54.471-7.836-7.293-8.18-22.324-8.181-22.471 0-6.646-7.666-10.396-12.911-6.314-47.487 36.934-51.673 96.763-31.067 152.314-1.985 0-3.678 0-5.666 0-3.395-1.361-14.798-6.604-26.035-19.369-17.781-20.2-27.18-50.156-27.18-86.631 0-68.447 25.816-125.247 76.732-168.824zm83.315 274.824c5.078-6.724 8.095-15.086 8.095-24.143 0-19.571-28.239-55.797-33.9-62.86-3.198-3.992-9.284-3.995-12.484 0-5.661 7.063-33.9 43.289-33.9 62.86 0 9.056 3.017 17.419 8.095 24.143h-19.873c-3.412-8.253-10.257-27.046-12.3-49.214-3.073-33.366 5.51-60.597 25.538-81.15 2.521 8.522 7.627 18.352 17.963 23.52 1.899.949 4.095 1.105 6.108.435 2.731-.911 24.692-9.656 28.807-55.906 8.767 7.545 20.97 19.798 31.063 36.461 23.071 38.087 24.562 80.408 4.459 125.855h-17.671zm-56.19-24.142c0-8.672 12.621-29.081 24.143-44.713 11.521 15.632 24.143 36.041 24.143 44.713 0 13.313-10.83 24.143-24.143 24.143s-24.143-10.831-24.143-24.143zm-176.535 121.135c-21.745-.435-39.322-21.796-39.322-47.993 0-26.468 17.944-48 40-48 29.048 0 45.9 34.318 37.988 63.129-3.687 13.465-12.569 25.372-25.609 30.509zm44.487-8.03c20.365-29.305 14.607-72.242-12.702-93.151-.461-.353-6.032.79 51.903-9.673 6.16 7.986 13.189 14.713 20.845 20.125-25.122 13.777-37.733 46.608-29.219 77.133zm319.188 23.037h-234.997c-22.056 0-40-21.532-40-48s17.944-48 40-48h234.997c-16.515 16.635-22.25 41.694-17.225 64h-25.772c-4.418 0-8 3.582-8 8s3.582 8 8 8h31.531c3.014 5.95 6.853 11.353 11.466 16zm37.003 0c-15.085 0-28.243-10.076-35.055-24.911-.17-1.497-.755-2.865-1.635-3.995-11.438-31.528 7.91-67.095 36.69-67.095 22.056 0 40 21.532 40 48s-17.944 48.001-40 48.001z"/><path d="m352 392.002h-40c-4.418 0-8 3.582-8 8s3.582 8 8 8h40c4.418 0 8-3.582 8-8s-3.582-8-8-8z"/><path d="m312 440.002h-40c-4.418 0-8 3.582-8 8s3.582 8 8 8h40c4.418 0 8-3.582 8-8s-3.582-8-8-8z"/><path d="m232 417.002h-40c-4.418 0-8 3.582-8 8s3.582 8 8 8h40c4.418 0 8-3.582 8-8s-3.582-8-8-8z"/></g></svg>