<svg id="Layer_1" enable-background="new 0 0 512.009 512.009" height="512" viewBox="0 0 512.009 512.009" width="512" xmlns="http://www.w3.org/2000/svg"><g><path d="m272.004 360.009v144h-32v-143.82z" fill="#f8e9d2"/><path d="m272.004 360.009v48h-32v-47.82z" fill="#e4d5c1"/><path d="m336.004 112.008h-160v-12c0-11.046 8.954-20 20-20h120c11.046 0 20 8.954 20 20z" fill="#f3d4b7"/><path d="m336.004 100.009v12h-40v-12c0-11.05-8.95-20-20-20h40c11.05 0 20 8.95 20 20z" fill="#e1c3a7"/><path d="m201.694 80.008 11-60.49c1.66-9.14 11.59-14.15 19.92-10.08l10.21 4.99c8.32 4.07 18.04 4.07 26.36 0l10.21-4.99c8.33-4.07 18.26.94 19.92 10.08l11 60.49z" fill="#f3d4b7"/><path d="m310.314 80.009h-34l-11-60.49c-.939-5.095-2.755-1.861 3.87-5.09l10.21-4.99c8.33-4.07 18.26.94 19.92 10.08z" fill="#e1c3a7"/><path d="m256.004 200.008c-26.436 0-48-21.417-48-48v-40h96v40c0 26.51-21.49 48-48 48z" fill="#f8e9d2"/><path d="m304.004 112.009v40c0 35.283-36.594 58.074-67.99 43.64 16.52-7.58 27.99-24.27 27.99-43.64v-40z" fill="#e4d5c1"/><path d="m256.004 368.008 41 16 39-16-16-119h72v-49c-15.095 0-256.875 0-272 0v49h72l-16 119 40 16z" fill="#f79caf"/><path d="m312.004 377.859v-8.925c0-.616-.041-1.232-.123-1.842l-15.877-118.083h24l16 119z" fill="#e3889b"/><path d="m352.004 200.009h40v49h-40z" fill="#e3889b"/><path d="m216.004 304.008h32v32h-32z" fill="#f8e9d2"/><path d="m440.004 216.009h-40v-9.561l25.71-5.624c4.315-.944 7.05-5.209 6.105-9.525s-5.207-7.048-9.525-6.105l-31.156 6.815h-95.995c10.394-10.172 16.861-24.342 16.861-40v-32h24c4.418 0 8-3.582 8-8v-12c0-15.107-12.028-27.45-27.009-27.975l-9.81-53.944c-2.605-14.355-18.186-22.247-31.304-15.839l-10.213 4.992c-6.144 3.004-13.187 3.004-19.331-.002l-10.211-4.991c-13.11-6.401-28.694 1.476-31.303 15.837l-9.81 53.947c-14.981.524-27.009 12.868-27.009 27.975v12c0 4.418 3.582 8 8 8h24v32c0 15.658 6.467 29.828 16.862 40h-95.996l-31.156-6.815c-4.319-.942-8.581 1.79-9.525 6.105-.944 4.316 1.79 8.581 6.106 9.525l25.709 5.624v9.561h-40c-4.418 0-8 3.582-8 8s3.582 8 8 8h40v10.561l-25.709 5.624c-4.316.944-7.05 5.209-6.106 9.525.818 3.74 4.13 6.292 7.808 6.292 1.235 0-1.114.433 32.874-7.002h61.987l-14.781 109.934c-.488 3.633 1.554 7.133 4.958 8.494l40 16c1.907.764 4.035.764 5.942 0l13.029-5.211v109.784h-59.056l10.211-20.422c1.976-3.952.375-8.758-3.578-10.733s-8.758-.373-10.733 3.577l-8.845 17.689v-30.111c0-4.418-3.582-8-8-8s-8 3.582-8 8v30.111l-8.845-17.689c-1.975-3.95-6.779-5.551-10.733-3.577-3.952 1.976-5.554 6.781-3.578 10.733l10.211 20.422h-45.056c-4.418 0-8 3.582-8 8s3.582 8 8 8h340c4.418 0 8-3.582 8-8s-3.582-8-8-8h-45.056l10.211-20.422c1.976-3.952.374-8.758-3.577-10.733-3.953-1.974-8.758-.375-10.733 3.577l-8.845 17.689v-30.111c0-4.418-3.582-8-8-8s-8 3.582-8 8v30.111l-8.845-17.689c-1.976-3.95-6.781-5.552-10.733-3.577-3.951 1.976-5.553 6.781-3.577 10.733l10.211 20.422h-59.056v-110.048l14.092 5.499c1.935.755 4.061.721 5.944-.051l39-16c3.367-1.381 5.378-4.86 4.893-8.468l-14.781-109.934h61.986c33.93 7.422 31.636 7.002 32.874 7.002 3.678 0 6.989-2.553 7.808-6.292.944-4.316-1.79-8.581-6.105-9.525l-25.71-5.624v-10.561h40c4.418 0 8-3.582 8-8s-3.583-7.999-8.001-7.999zm-219.439-195.061c.714-3.931 4.979-6.062 8.536-4.322l10.207 4.989c10.611 5.19 22.782 5.191 33.388.001l10.209-4.989c3.571-1.746 7.825.4 8.537 4.323l9.285 51.059h-89.447zm-36.561 79.061c0-6.617 5.383-12 12-12h120c6.617 0 12 5.383 12 12v4c-12.165 0-127.923 0-144 0zm32 52v-32h80v32c0 22.056-17.944 40-40 40s-40-17.945-40-40zm48 344h-16v-116.185l8.036-3.214 7.964 3.108zm48.072-245.934 15.177 112.877-30.322 12.44c-5.055-1.973-32.594-12.719-38.018-14.836-4.598-1.795-6.82.781-22.026 6.483l-20.883 8.353-31.241-12.496 15.169-112.821c.646-4.8-3.092-9.066-7.929-9.066h-64v-33h256v33h-64c-4.851 0-8.571 4.282-7.927 9.066z"/><path d="m248.004 296.009h-8v-8c0-4.418-3.582-8-8-8s-8 3.582-8 8v8h-8c-4.418 0-8 3.582-8 8v32c0 4.418 3.582 8 8 8h32c4.418 0 8-3.582 8-8v-32c0-4.418-3.581-8-8-8zm-8 32h-16v-16h16z"/><path d="m285.495 272.01c7.872 0 11.03-10.269 4.445-14.657l-24-16c-3.679-2.452-8.644-1.457-11.094 2.219-2.451 3.676-1.458 8.644 2.219 11.094 25.634 17.088 25.165 17.344 28.43 17.344z"/><path d="m299.582 320.853c-3.953-1.974-8.758-.375-10.733 3.577l-8 16c-2.679 5.359 1.272 11.58 7.149 11.58 2.935 0 5.76-1.621 7.161-4.424l8-16c1.976-3.951.375-8.757-3.577-10.733z"/></g></svg>