<svg id="Layer_1" enable-background="new 0 0 512.077 512.077" height="512" viewBox="0 0 512.077 512.077" width="512" xmlns="http://www.w3.org/2000/svg"><g><path d="m8.062 48.039h496v56h-496z" fill="#b59f89" transform="matrix(-1 0 0 -1 512.124 152.077)"/><path d="m456.062 48.039h48v56h-48z" fill="#a18b76"/><path d="m32.062 424.039h448l24 40h-496z" fill="#f3d4b7"/><path d="m504.062 464.039h-48l-24-40h48z" fill="#e1c3a7"/><path d="m8.062 464.039h496v40h-496z" fill="#b59f89" transform="matrix(-1 0 0 -1 512.124 968.077)"/><path d="m456.062 464.039h48v40h-48z" fill="#a18b76"/><path d="m32.062 104.039h448v320h-448z" fill="#f8e9d2" transform="matrix(-1 0 0 -1 512.124 528.077)"/><path d="m432.062 104.039h48v320h-48z" fill="#e4d5c1"/><path d="m392.062 424.039h-272v-128c0-75.111 60.889-136 136-136 74.902 0 136 60.682 136 136z" fill="#e2e0e0"/><path d="m392.062 296.039v128h-48v-128c0-67.1-48.49-122.58-112.03-133.89 83.959-14.853 160.03 49.608 160.03 133.89z" fill="#cecccc"/><path d="m330.71 424.039h-149.296c-3.344 0-6.466-1.671-8.32-4.453-7.819-11.728-7.963-27.149 0-39.094 1.841-2.761 4.952-4.453 8.321-4.453h149.295c3.344 0 6.466 1.671 8.32 4.453 7.819 11.728 7.963 27.149 0 39.094-1.84 2.76-4.951 4.453-8.32 4.453z" fill="#b59f89"/><path d="m339.032 419.588c-.93 1.39-2.17 2.5-3.61 3.27-2.959 1.584-1.344 1.18-36.71 1.18 3.325 0 6.453-1.659 8.32-4.45 7.888-11.822 7.9-27.259 0-39.1-1.86-2.78-4.98-4.45-8.32-4.45h32c3.34 0 6.46 1.67 8.32 4.45 7.888 11.823 7.9 27.26 0 39.1z" fill="#a18b76"/><path d="m80.062 8.039h352v40h-352z" fill="#f3d4b7"/><path d="m376.062 8.039h56v40h-56z" fill="#e1c3a7"/><path d="m312.062 328.039c0 32-24 48-24 48h-64s-24-8-24-48c0-72 64-104 64-104 .09 1.39-8 48 0 64 0 0 16 0 24-24 0 0 24 32 24 64z" fill="#f79caf"/><g fill="#e3889b"><path d="m260.722 271.969c-8.42 16.07-20.66 16.07-20.66 16.07-4.71-9.43-3.84-29.49-2.35-44.66 13.91-13.12 26.35-19.34 26.35-19.34.07 1.049-4.54 27.95-3.34 47.93z"/><path d="m312.062 328.039c0 32-24 48-24 48h-24s24-16 24-48c0-16.36-6.27-32.71-12.4-44.79 4.36-3.4 9.07-9.23 12.4-19.21 0 0 24 32 24 64z"/><path d="m276.062 356.039c0 11.046-8.954 20-20 20s-20-8.954-20-20 20-36 20-36 20 24.954 20 36z"/></g><path d="m504.062 112.039c4.418 0 8-3.582 8-8v-56c0-4.418-3.582-8-8-8h-64v-32c0-4.418-3.582-8-8-8h-352c-4.418 0-8 3.582-8 8v32h-64c-4.418 0-8 3.582-8 8v56c0 4.418 3.582 8 8 8h16v309.783l-22.86 38.101c-1.603 2.64-1.14 1.544-1.14 44.116 0 4.418 3.582 8 8 8h496c4.418 0 8-3.582 8-8 0-52.783.036-37.041-.003-40.056-.021-3.008.401-1.497-23.997-42.161v-309.783zm-416-96h336v24h-336zm-72 40h480v40c-49.595 0-419.9 0-480 0zm480 440h-480v-24h480zm-473.87-40 14.399-24h438.941l14.399 24zm361.87-40h-34.18c5.214-13.038 3.821-27.96-4.194-39.984-3.346-5.019-8.945-8.016-14.978-8.016h-23.649c6.623-9.079 13.001-22.383 13.001-40 0-34.272-24.555-67.406-25.6-68.8-3.874-5.164-11.954-3.834-13.99 2.27-3.172 9.518-7.611 14.15-11.107 16.404-3.006-18.631 2.883-51.249 2.681-54.391-.369-5.718-6.461-9.194-11.562-6.639-.705.353-17.465 8.841-34.247 26.672-40.267 42.784-40.695 99.386-23.464 124.483h-21.359c-6.032 0-11.632 2.997-14.977 8.016-8.016 12.024-9.409 26.947-4.196 39.984h-34.179v-120c0-70.579 57.421-128 128-128s128 57.421 128 128zm-204.312-.891c-6.118-9.179-6.118-21.04.001-30.219.922-1.385-8.39-.891 150.96-.891.67 0 1.292.333 1.664.891 6.118 9.179 6.118 21.04-.001 30.219-.371.558-.993.891-1.663.891-159.33 0-150.037.495-150.961-.891zm28.312-87.109c0-35.926 17.284-66.313 45.974-87.981-2.719 25.723-1.772 42.271 2.871 51.56 1.355 2.71 4.125 4.422 7.155 4.422.718 0 14.557-.219 24.968-15.667 6.528 11.406 15.032 29.71 15.032 47.667 0 22.63-13.697 35.917-18.679 40h-4.028c1.733-3.639 2.707-7.708 2.707-12 0-12.857-16.653-34.635-21.758-41.003-3.198-3.992-9.284-3.995-12.484 0-5.104 6.368-21.758 28.146-21.758 41.003 0 4.292.974 8.361 2.707 12h-5.061c-3.915-1.974-17.646-10.964-17.646-40.001zm36 28c0-3.747 5.486-13.408 12-22.665 6.514 9.257 12 18.918 12 22.665 0 6.617-5.383 12-12 12s-12-5.383-12-12zm228 60h-72v-120c0-79.402-64.598-144-144-144s-144 64.598-144 144v120h-72v-304h432z"/></g></svg>