<svg id="Layer_1" enable-background="new 0 0 512.003 512.003" height="512" viewBox="0 0 512.003 512.003" width="512" xmlns="http://www.w3.org/2000/svg"><g><path d="m487.283 372.851-18.67 73.09c-2.71 10.63-12.28 18.06-23.25 18.06h-378.721c-10.97 0-20.54-7.43-23.25-18.06l-18.67-73.09c5.08 2.18 11.03 3.6 17.45 4.02 1.31.09 2.64.13 3.98.13 6.96 0 13.47-1.18 19.08-3.22 5.61 2.04 12.13 3.22 19.08 3.22s13.46-1.18 19.07-3.22c5.62 2.04 12.13 3.22 19.08 3.22s13.47-1.18 19.08-3.22c5.61 2.04 12.12 3.22 19.08 3.22 6.95 0 13.46-1.18 19.07-3.22 5.62 2.04 12.13 3.22 19.08 3.22s13.46-1.18 19.08-3.22c5.61 2.04 12.12 3.22 19.07 3.22 6.96 0 13.47-1.18 19.08-3.22 5.61 2.04 12.12 3.22 19.08 3.22 6.95 0 13.46-1.18 19.07-3.22 5.62 2.04 12.13 3.22 19.08 3.22s13.46-1.18 19.08-3.22c5.61 2.04 12.12 3.22 19.07 3.22 6.96 0 13.47-1.18 19.08-3.22 5.61 2.04 12.13 3.22 19.08 3.22s13.46-1.18 19.08-3.22c5.61 2.04 12.12 3.22 19.07 3.22s13.47-1.18 19.08-3.22c5.61 2.04 12.12 3.22 19.08 3.22 1.34 0 2.67-.04 3.98-.13 6.421-.42 12.37-1.84 17.451-4.02z" fill="#e2e0e0"/><path d="m487.132 333.081c-6.08-2.57-13.4-4.08-21.28-4.08-6.96 0-13.47 1.18-19.08 3.22-5.61-2.04-12.13-3.22-19.08-3.22s-13.46 1.18-19.07 3.22c-5.62-2.04-12.13-3.22-19.08-3.22s-13.47 1.18-19.08 3.22c-5.61-2.04-12.12-3.22-19.08-3.22-6.95 0-13.46 1.18-19.07 3.22-5.62-2.04-12.13-3.22-19.08-3.22s-13.46 1.18-19.08 3.22c-5.61-2.04-12.12-3.22-19.07-3.22-6.96 0-13.47 1.18-19.08 3.22-5.61-2.04-12.12-3.22-19.08-3.22-6.95 0-13.46 1.18-19.07 3.22-5.62-2.04-12.13-3.22-19.08-3.22s-13.46 1.18-19.08 3.22c-5.61-2.04-12.12-3.22-19.07-3.22-6.96 0-13.47 1.18-19.08 3.22-5.61-2.04-12.13-3.22-19.08-3.22s-13.46 1.18-19.08 3.22c-5.61-2.04-12.12-3.22-19.07-3.22s-13.47 1.18-19.08 3.22c-5.61-2.04-12.12-3.22-19.08-3.22-7.88 0-15.2 1.51-21.28 4.08 10.21-50.31 109.79-133.08 231.13-133.08s220.92 82.77 231.13 133.08z" fill="#f3d4b7"/><path d="m504.003 353.001c0 18.114-31.364 30.186-57.23 20.78-11.623 4.227-26.154 4.362-38.15 0-11.914 4.325-26.429 4.266-38.16 0-11.624 4.227-26.155 4.362-38.15 0-11.669 4.236-26.167 4.354-38.16 0-11.649 4.236-26.179 4.353-38.15 0-11.624 4.227-26.154 4.362-38.15 0-11.669 4.236-26.167 4.353-38.16 0-11.649 4.236-26.178 4.353-38.15 0-11.723 4.263-26.239 4.327-38.16 0-11.695 4.253-26.229 4.335-38.15 0-25.98 9.448-57.23-2.714-57.23-20.78 0-19.139 32.786-29.669 57.23-20.78 11.623-4.227 26.154-4.362 38.15 0 11.913-4.324 26.429-4.266 38.16 0 11.624-4.227 26.155-4.362 38.15 0 11.669-4.236 26.167-4.353 38.16 0 11.649-4.236 26.178-4.353 38.15 0 11.624-4.227 26.155-4.362 38.15 0 11.669-4.236 26.167-4.353 38.16 0 11.649-4.236 26.178-4.353 38.15 0 11.723-4.263 26.239-4.327 38.16 0 11.696-4.253 26.228-4.335 38.15 0 24.831-9.03 57.23 1.924 57.23 20.78z" fill="#b59f89"/><path d="m504.003 353.001c0 18.11-31.36 30.19-57.23 20.78-9.68 3.52-21.38 4.2-31.96 1.8 33.5-7.747 33.689-37.533-.09-45.15 10.4-2.37 22.13-1.82 32.05 1.79 24.829-9.03 57.23 1.92 57.23 20.78z" fill="#a18b76"/><path d="m487.133 333.081h-63c-9.31-45.88-92.95-118.76-199.63-131.23 135.671-15.937 251.559 76.681 262.63 131.23z" fill="#e1c3a7"/><path d="m487.283 372.851-18.67 73.09c-2.71 10.63-12.28 18.06-23.25 18.06h-54c10.97 0 20.54-7.43 23.25-18.06l18.67-73.09z" fill="#cecccc"/><path d="m494.005 327.508c-7.586-27.664-36.385-60.421-76.391-86.532-99.688-65.066-223.341-65.192-323.223 0-40.006 26.111-68.805 58.868-76.391 86.532-23.827 12.516-24.133 38.044-.119 50.885l17.757 69.527c3.621 14.179 16.371 24.082 31.004 24.082h378.719c14.634 0 27.384-9.903 31.004-24.082l17.758-69.531c23.972-12.817 23.745-38.345-.118-50.881zm-390.869-73.134c94.387-61.606 211.159-61.727 305.732 0 31.346 20.459 55.661 45.553 65.899 67.223-9.736-1.29-19.451-.431-27.995 2.19-11.869-3.641-25.813-3.786-38.152 0-12.182-3.734-26.121-3.694-38.158 0-11.869-3.641-25.813-3.786-38.152 0-11.906-3.649-25.827-3.779-38.156 0-12.322-3.781-26.269-3.647-38.152 0-11.891-3.649-25.837-3.779-38.152 0-11.906-3.649-25.827-3.779-38.156 0-12.349-3.79-26.293-3.638-38.152 0-12.015-3.686-25.951-3.741-38.158 0-12.348-3.789-26.293-3.639-38.152 0-8.508-2.61-18.22-3.485-27.995-2.19 10.239-21.669 34.553-46.763 65.899-67.223zm357.728 189.587c-1.811 7.089-8.186 12.041-15.502 12.041h-378.719c-7.317 0-13.692-4.951-15.502-12.041l-15.258-59.741c10.166 1.563 20.464.722 29.35-2.005 11.915 3.657 25.861 3.772 38.152 0 12.135 3.72 26.072 3.71 38.158 0 11.915 3.657 25.861 3.772 38.152 0 11.928 3.656 26.229 3.656 38.156 0 12.267 3.765 26.211 3.665 38.152 0 11.939 3.664 25.883 3.765 38.152 0 11.928 3.656 26.229 3.656 38.156 0 12.299 3.775 26.244 3.655 38.152 0 12.063 3.701 25.997 3.727 38.158 0 12.299 3.775 26.244 3.655 38.152 0 8.827 2.709 19.12 3.578 29.35 2.003zm-11.358-77.698c-1.766-.643-3.702-.643-5.468 0-10.034 3.649-22.636 3.653-32.682 0-5.402-1.965-7.408 2.738-21.814 2.738-14.127 0-16.486-4.677-21.814-2.738-10.034 3.649-22.636 3.653-32.682 0-5.402-1.965-7.408 2.738-21.814 2.738-14.171 0-16.469-4.682-21.814-2.738-10.034 3.649-22.636 3.653-32.682 0-5.382-1.959-7.464 2.738-21.814 2.738-14.14 0-16.464-4.674-21.799-2.74-10.055 3.651-22.632 3.656-32.701 0-5.397-1.956-7.422 2.74-21.799 2.74-14.143 0-16.485-4.678-21.814-2.738-9.993 3.634-22.588 3.668-32.697-.002-5.397-1.956-7.422 2.74-21.799 2.74-14.143 0-16.485-4.678-21.814-2.738-22.027 8.01-46.496-2.602-46.496-13.262 0-11.817 26.106-20.676 46.496-13.262 5.383 1.959 7.459-2.738 21.814-2.738 14.113 0 16.475 4.673 21.799 2.74 10.115-3.672 22.711-3.633 32.697-.002 5.383 1.959 7.459-2.738 21.814-2.738 14.128 0 16.469 4.676 21.799 2.74 10.055-3.65 22.632-3.655 32.701 0 5.384 1.955 7.45-2.74 21.799-2.74 14.145 0 16.484 4.677 21.814 2.738 10.034-3.648 22.638-3.652 32.682 0 5.391 1.963 7.434-2.738 21.814-2.738 14.152 0 16.483 4.68 21.814 2.738 10.034-3.648 22.638-3.652 32.682 0 5.389 1.96 7.448-2.738 21.814-2.738 14.158 0 16.48 4.68 21.814 2.738 10.034-3.648 22.638-3.652 32.682 0 5.383 1.959 7.459-2.738 21.814-2.738 6.547 0 12.828 1.192 18.161 3.447 7.395 3.131 11.989 7.941 11.989 12.553.001 10.684-24.536 21.247-46.496 13.262z"/><path d="m256.003 272.001c4.418 0 8-3.582 8-8v-32c0-4.418-3.582-8-8-8s-8 3.582-8 8v32c-.001 4.419 3.581 8 8 8z"/><path d="m313.346 260.439c2.457 3.686 7.426 4.664 11.094 2.219 3.676-2.451 4.67-7.417 2.219-11.094l-16-24c-2.45-3.676-7.417-4.669-11.094-2.219-3.676 2.451-4.67 7.417-2.219 11.094z"/><path d="m187.565 262.658c3.659 2.441 8.632 1.474 11.094-2.219l16-24c2.451-3.676 1.458-8.643-2.219-11.094-3.675-2.452-8.643-1.458-11.094 2.219l-16 24c-2.451 3.676-1.457 8.643 2.219 11.094z"/><path d="m244.002 136.001c0 4.418 3.582 8 8 8s8-3.582 8-8c0-11.451 8-12.695 8-29.334 0-9.374-2.759-14.433-4.977-18.498-1.821-3.338-3.023-5.543-3.023-10.837 0-11.45 8-12.692 8-29.331 0-4.418-3.582-8-8-8s-8 3.582-8 8c0 11.45-8 12.693-8 29.331 0 9.374 2.759 14.433 4.977 18.498 1.821 3.338 3.023 5.543 3.023 10.837 0 11.451-8 12.695-8 29.334z"/><path d="m320.003 168.001c0 4.418 3.582 8 8 8s8-3.582 8-8c0-11.451 8-12.695 8-29.334 0-9.374-2.759-14.433-4.977-18.498-1.821-3.338-3.023-5.543-3.023-10.837 0-11.45 8-12.692 8-29.331 0-4.418-3.582-8-8-8s-8 3.582-8 8c0 11.45-8 12.693-8 29.331 0 9.374 2.759 14.433 4.977 18.498 1.821 3.338 3.023 5.543 3.023 10.837 0 11.451-8 12.695-8 29.334z"/><path d="m168.002 168.001c0 4.418 3.582 8 8 8s8-3.582 8-8c0-11.451 8-12.695 8-29.334 0-9.374-2.759-14.433-4.977-18.498-1.821-3.338-3.023-5.543-3.023-10.837 0-11.45 8-12.692 8-29.331 0-4.418-3.582-8-8-8s-8 3.582-8 8c0 11.45-8 12.693-8 29.331 0 9.374 2.759 14.433 4.977 18.498 1.821 3.338 3.023 5.543 3.023 10.837 0 11.451-8 12.695-8 29.334z"/></g></svg>