<svg id="Layer_1" enable-background="new 0 0 512.004 512.004" height="512" viewBox="0 0 512.004 512.004" width="512" xmlns="http://www.w3.org/2000/svg"><g><path d="m464.002 264.004c0 80-64 240-152 240-13.04 0-25.61-3.2-35.54-6.74-13.25-4.73-27.67-4.73-40.92 0-9.93 3.54-22.5 6.74-35.54 6.74-88 0-152-160-152-240 0-48 16-144 104-144 39.586 0 70.091 11.554 82.25 14.96 15.492 4.416 32.015 4.003 47.23-1.15 19.31-6.54 47.7-13.81 78.52-13.81 88 0 104 96 104 144z" fill="#f79caf"/><path d="m464.002 264.004c0 80-64 240-152 240-7.28 0-14.41-1-21.03-2.5 78.08-20.55 133.03-163.37 133.03-237.5 0-44.73-13.9-131.15-87.01-142.71 7.44-.82 15.15-1.29 23.01-1.29 88 0 104 96 104 144z" fill="#e3889b"/><path d="m287.102 36.684-3.1 4.14c-7.79 10.38-12 23.01-12 36 0 23.707-1.34 38.138 5.75 58.14-14.21 4.05-29.29 4.05-43.5 0 7.049-19.885 5.75-33.546 5.75-59.07 0-22.7 7.73-44.73 21.91-62.47 5.343-6.683 15.391-7.309 21.51-1.19l2.09 2.1c6.02 6.02 6.7 15.54 1.59 22.35z" fill="#b59f89"/><path d="m287.102 36.684-3.1 4.14c-7.79 10.38-12 23.01-12 36 0 23.707-1.34 38.138 5.75 58.14-9.37 2.67-19.12 3.58-28.75 2.73 1.126-.1 2.25-.223 3.372-.371 5.877-.775 9.841-6.455 8.444-12.216-3.577-14.746-2.816-23.934-2.816-48.282 0-12.99 4.21-25.62 12-36l3.1-4.14c5.11-6.81 4.43-16.33-1.59-22.35-1.982-1.992-3.094-3.297-5.31-4.53 5.393-2.982 12.474-2.317 17.22 2.43l2.09 2.1c6.02 6.019 6.7 15.539 1.59 22.349z" fill="#a18b76"/><path d="m240.002 85.249s0-85.488-112-66.491c0 0 0 85.489 112 66.491z" fill="#acebe2"/><path d="m240.002 85.254c-16.2 2.75-30.05 3.31-41.9 2.25 2.633-.206 5.341-.478 8.125-.819 5.734-.702 9.667-6.126 8.586-11.801-3.438-18.051-16.821-53.773-68.911-58.38 94.1-7.37 94.1 68.75 94.1 68.75z" fill="#98d7ce"/><path d="m452.157 170.426c-19.11-38.22-50.977-58.422-92.155-58.422-30.073 0-57.834 6.712-76.99 12.878-3.729-14.199-3.01-22.361-3.01-48.058 0-11.183 3.693-22.263 10.403-31.205l3.095-4.133c7.449-9.927 6.446-24.031-2.317-32.795l-2.104-2.114c-9.48-9.479-25.073-8.583-33.416 1.852-8.892 11.125-15.435 23.908-19.365 37.467-22.407-37.12-66.544-42.335-109.634-35.025-3.847.652-6.662 3.985-6.662 7.887 0 1.412.309 34.834 27.128 57.488 23.151 19.554 54.967 22.05 84.872 18.269 0 10.352.196 18.161-3.01 30.366-19.156-6.166-46.917-12.878-76.99-12.878-41.179 0-73.045 20.202-92.155 58.422-17.911 35.822-19.845 77.375-19.845 93.578 0 85.484 67.117 248 160 248 11.959 0 24.819-2.424 38.224-7.205 11.463-4.089 24.09-4.089 35.553 0 13.404 4.781 26.265 7.205 38.224 7.205 93.365 0 160-163.511 160-248-.001-16.202-1.935-57.755-19.846-93.577zm-204.155-94.532c0-20.799 7.159-41.211 20.158-57.475 1.228-1.535 3.069-2.416 5.052-2.416 3.148 0 4.517 1.851 6.644 3.987 3.182 3.182 3.547 8.294.842 11.898l-3.094 4.133c-8.771 11.688-13.602 26.178-13.602 40.802 0 24.878-.819 35.612 3.565 52.228-7.648 1.244-15.481 1.244-23.129 0 4.401-16.684 3.564-27.032 3.564-53.157zm-111.3-50.367c61.166-8.168 88.937 17.825 94.598 52.954-60.941 8.14-88.904-17.634-94.598-52.954zm175.3 470.477c-10.122 0-21.174-2.111-32.849-6.275-14.928-5.324-31.371-5.326-46.303 0-11.675 4.164-22.727 6.275-32.849 6.275-80.135 0-144-151.916-144-232 0-22.71 4.628-136 96-136 38.02 0 67.646 11.14 80.163 14.675 17.988 4.875 35.61 4.22 51.883-1.292 18.03-6.105 45.844-13.383 75.954-13.383 35.205 0 61.396 16.68 77.845 49.578 16.386 32.773 18.155 71.355 18.155 86.422.001 79.969-63.767 232-143.999 232z"/></g></svg>