<svg id="Layer_1" enable-background="new 0 0 512 512" height="512" viewBox="0 0 512 512" width="512" xmlns="http://www.w3.org/2000/svg"><g><ellipse cx="60" cy="391.991" fill="#f3d4b7" rx="52" ry="64"/><path d="m112 391.991c0 42.775-32.54 71.513-64 62.28 22.94-6.66 40-32.02 40-62.28s-17.06-55.62-40-62.28c31.963-9.382 64 20.212 64 62.28z" fill="#e1c3a7"/><ellipse cx="60" cy="391.991" fill="#f8e9d2" rx="20" ry="32"/><path d="m400 391.991c0 33.74-21.21 61.38-48.12 63.82-33.475 0 112.41.18-291.88.18 28.72 0 52-28.65 52-64s-23.28-64-52-64h288c28.72 0 52 28.65 52 64z" fill="#b59f89"/><path d="m400 391.991c0 33.74-21.21 61.38-48.12 63.82-2.495 0 8.186.18-27.88.18 30.436 0 52-30.806 52-64 0-35.35-23.28-64-52-64h24c28.72 0 52 28.65 52 64z" fill="#a18b76"/><ellipse cx="360" cy="95.991" fill="#f3d4b7" rx="88" ry="40"/><path d="m448 95.991c0 26.441-53.146 43.641-104 39.33 40.96-3.41 72-19.72 72-39.33s-31.04-35.92-72-39.33c52.086-4.415 104 13.508 104 39.33z" fill="#e1c3a7"/><path d="m448 95.991v320c0 22.09-39.4 40-88 40-2.74 0-5.44-.06-8.12-.18 26.91-2.44 48.12-30.08 48.12-63.82 0-35.35-23.28-64-52-64h-76v-232c0 22.09 39.4 40 88 40s88-17.91 88-40z" fill="#b59f89"/><path d="m448 95.991v320c0 22.09-39.4 40-88 40-2.74 0-5.44-.06-8.12-.18 4.89-.44 9.6-1.72 14.02-3.72 29.63-6.43 50.1-20.18 50.1-36.1v-289.15c19.55-7.33 32-18.43 32-30.85z" fill="#a18b76"/><path d="m504 223.991-56 64v-96l48-16z" fill="#b59f89"/><path d="m504 223.991-56 64v-32l51.52-58.879z" fill="#a18b76"/><path d="m88 391.991c0-21.682-12.822-40-28-40s-28 18.318-28 40 12.822 40 28 40 28-18.317 28-40zm-40 0c0-14.933 8.335-24 12-24s12 9.067 12 24-8.335 24-12 24-12-9.067-12-24z"/><path d="m280 383.991h-56c-4.418 0-8 3.582-8 8s3.582 8 8 8h56c4.418 0 8-3.582 8-8s-3.582-8-8-8z"/><path d="m208 415.991h-56c-4.418 0-8 3.582-8 8s3.582 8 8 8h56c4.418 0 8-3.582 8-8s-3.582-8-8-8z"/><path d="m344 359.991c0-4.418-3.582-8-8-8h-32c-4.418 0-8 3.582-8 8s3.582 8 8 8h32c4.418 0 8-3.581 8-8z"/><path d="m511.892 222.676-8-48c-.808-4.845-5.756-7.826-10.422-6.274l-37.47 12.49v-84.901c0-14.006-10.819-26.638-30.465-35.567-58.119-26.418-161.535-8.953-161.535 35.567v224h-204c-33.084 0-60 32.299-60 72s26.916 72 60 72c308.404 0 288.519.096 291.944-.173 23.854 1.002 51.707-2.313 73.591-12.261 19.646-8.93 30.465-21.561 30.465-35.566v-124.994l54.021-61.738c1.578-1.803 2.264-4.219 1.871-6.583zm-151.892-158.685c45.787 0 80 16.895 80 32s-34.213 32-80 32-80-16.895-80-32 34.213-32 80-32zm-344 328c0-30.878 19.738-56 44-56 23.667 0 44 24.439 44 56 0 30.878-19.738 56-44 56s-44-25.121-44-56zm81.888 55.78c20.215-19.807 26.894-52.003 18.681-79.779h43.431c4.418 0 8-3.582 8-8s-3.582-8-8-8h-50.139c-3.169-5.675-7.272-11.173-11.973-15.779-.35-.344-13.495-.221 250.112-.221 32.425 0 53.517 43.209 39.746 80h-59.746c-4.418 0-8 3.582-8 8s3.582 8 8 8h50.751c-7.939 9.888-18.792 16-30.751 16-264.245-.001-250.46.121-250.112-.221zm289.904-1.955c12.384-13.199 20.208-32.432 20.208-53.825 0-39.701-26.916-72-60-72h-68v-196.815c37.119 27.708 122.872 27.714 160 0v292.815c0 11.846-21.045 24.789-52.208 29.825zm68.208-179.116v-68.942l33.648-11.216 5.838 35.031z"/><path d="m312 167.991c-4.418 0-8 3.582-8 8v48c0 4.418 3.582 8 8 8s8-3.582 8-8v-48c0-4.418-3.582-8-8-8z"/><path d="m352 231.991c-4.418 0-8 3.582-8 8v48c0 4.418 3.582 8 8 8s8-3.582 8-8v-48c0-4.418-3.582-8-8-8z"/><path d="m400 191.991c-4.418 0-8 3.582-8 8v48c0 4.418 3.582 8 8 8s8-3.582 8-8v-48c0-4.418-3.582-8-8-8z"/></g></svg>