<svg id="Layer_1" enable-background="new 0 0 512 512" height="512" viewBox="0 0 512 512" width="512" xmlns="http://www.w3.org/2000/svg"><g><path d="m414 285.35c0 16.78-14.17 27.88-18.82 38.96-6.03 14.35-6.85 32.36-17.94 39.18-11.48 7.06-28.51-1.03-42.04.479-13.88 1.56-28 13.43-40.37 11.89 3.161.379 6.064.14-78.83.14l1.17-.14c-12.37 1.54-26.49-10.33-40.37-11.89-13.53-1.51-30.56 6.58-42.04-.479-11.09-6.82-11.91-24.83-17.94-39.18-4.65-11.08-18.82-22.18-18.82-38.96 0-18.72 13.67-36.77 16.67-55.7 2.97-18.84-4.51-40.31.4-58.34 5.16-18.94 22.98-32.98 28.61-50.05 8.32-25.26 27.61-33.73 32.32-57.26 8-40 64-56 79.21-56 21.735 0 73.301 18.556 80.79 56 4.71 23.53 24 32 32.32 57.26 5.63 17.07 23.45 31.11 28.61 50.05 4.91 18.03-2.57 39.5.4 58.34 3 18.93 16.67 36.98 16.67 55.7z" fill="#acebe2"/><path d="m414 285.35c0 16.78-14.17 27.88-18.82 38.96-6.03 14.35-6.85 32.36-17.94 39.18-11.699 7.194-29.065-1.378-43.1.62 12.114-6.219 12.838-25.041 19.04-39.8 4.65-11.08 18.82-22.18 18.82-38.96 0-18.72-13.67-36.77-16.67-55.7-2.97-18.84 4.51-40.31-.4-58.34-5.16-18.94-22.98-32.98-28.61-50.05-8.32-25.26-27.61-33.73-32.32-57.26-5.53-27.62-35.05-44.97-58.87-52.17 8.56-2.61 15.87-3.83 20.08-3.83 21.73 0 73.3 18.56 80.79 56 4.71 23.53 24 32 32.32 57.26 5.63 17.07 23.45 31.11 28.61 50.05 4.91 18.03-2.57 39.5.4 58.34 3 18.93 16.67 36.98 16.67 55.7z" fill="#98d7ce"/><path d="m296 504c-82.556 0-79.967-.1-80 0 10.066-30.197 9.476-43.186 16-128h48c6.54 85.022 5.925 97.776 16 128z" fill="#b59f89"/><path d="m296 504h-24c-10.323-30.989-9.796-47.354-16-128h24c6.53 84.889 5.923 97.75 16 128z" fill="#a18b76"/><path d="m279.993 120.001c7.87 0 11.031-10.268 4.445-14.657-17.275-11.518-39.6-11.518-56.875 0-3.676 2.45-4.67 7.417-2.219 11.094s7.418 4.67 11.094 2.219c11.884-7.922 27.241-7.922 39.125 0 1.364.908 2.905 1.344 4.43 1.344z"/><path d="m236.438 169.344c-17.275-11.518-39.6-11.518-56.875 0-3.676 2.45-4.67 7.417-2.219 11.094 2.451 3.676 7.418 4.669 11.094 2.219 11.884-7.922 27.241-7.922 39.125 0 3.67 2.446 8.639 1.465 11.094-2.219 2.45-3.677 1.457-8.644-2.219-11.094z"/><path d="m220.438 273.344c-17.275-11.518-39.6-11.518-56.875 0-3.676 2.45-4.67 7.417-2.219 11.094 2.451 3.676 7.417 4.669 11.094 2.219 11.884-7.922 27.241-7.922 39.125 0 3.67 2.446 8.639 1.465 11.094-2.219 2.45-3.677 1.457-8.644-2.219-11.094z"/><path d="m348.438 296.344c-17.275-11.518-39.6-11.518-56.875 0-3.676 2.45-4.67 7.417-2.219 11.094 2.45 3.677 7.417 4.67 11.094 2.219 11.884-7.922 27.241-7.922 39.125 0 3.67 2.446 8.639 1.465 11.094-2.219 2.45-3.677 1.457-8.644-2.219-11.094z"/><path d="m323.563 230.656c3.67 2.446 8.639 1.465 11.094-2.219 2.451-3.677 1.458-8.644-2.219-11.094-17.275-11.518-39.6-11.518-56.875 0-3.676 2.45-4.67 7.417-2.219 11.094 2.451 3.676 7.418 4.669 11.094 2.219 11.883-7.922 27.241-7.922 39.125 0z"/><path d="m412.84 251.28c-3.308-7.951-6.433-15.462-7.607-22.876-1.206-7.651-.442-16.077.367-24.998 1.027-11.326 2.089-23.039-.95-34.198-3.119-11.449-9.878-20.757-16.414-29.758-5.174-7.126-10.062-13.856-12.316-20.693-4.416-13.405-11.612-22.554-17.962-30.625-6.454-8.203-12.028-15.288-14.112-25.701-3.905-19.524-18.078-36.293-40.986-48.492-17.186-9.151-36.184-13.939-46.07-13.939h-1.58c-9.886 0-28.884 4.788-46.069 13.938-22.908 12.199-37.081 28.968-40.985 48.491-2.084 10.414-7.658 17.499-14.112 25.702-6.35 8.071-13.546 17.22-17.96 30.622-2.256 6.84-7.144 13.57-12.318 20.696-6.536 9.001-13.295 18.309-16.414 29.759-3.039 11.158-1.977 22.871-.95 34.197.809 8.921 1.573 17.347.368 24.992-1.176 7.42-4.3 14.931-7.608 22.882-4.505 10.827-9.162 22.022-9.162 34.071 0 13.59 7.277 23.786 13.125 31.979 2.607 3.653 5.07 7.104 6.32 10.082 1.723 4.101 3.052 8.812 4.338 13.367 3.223 11.424 6.556 23.235 16.787 29.527 9.51 5.849 20.719 4.181 30.609 2.71 5.411-.806 10.522-1.566 14.728-1.095 5.491.617 11.477 3.185 17.265 5.668 7.349 3.152 14.948 6.412 22.828 6.412h7.361l-5.397 70.163c-1.091 14.179-3.721 28.225-7.823 41.837h-42.141c-4.418 0-8 3.582-8 8s3.582 8 8 8h176c4.418 0 8-3.582 8-8s-3.582-8-8-8h-42.141c-4.101-13.612-6.732-27.658-7.823-41.837l-5.397-70.163h7.361c7.88 0 15.479-3.26 22.828-6.412 5.789-2.483 11.774-5.051 17.259-5.668 4.214-.468 9.324.291 14.734 1.095 9.891 1.472 21.1 3.138 30.61-2.71 10.23-6.292 13.563-18.104 16.786-29.527 1.286-4.556 2.615-9.267 4.34-13.371 1.248-2.974 3.711-6.425 6.318-10.078 5.848-8.193 13.125-18.39 13.125-31.979 0-12.049-4.657-23.244-9.16-34.07zm-134.757 204.11c1.056 13.729 3.444 27.345 7.117 40.61h-58.4c3.673-13.266 6.061-26.881 7.117-40.61l5.491-71.39h33.184zm117.769-147.357c-3.142 4.401-6.109 8.56-8.047 13.178-2.105 5.008-3.57 10.2-4.987 15.222-2.499 8.857-4.859 17.224-9.769 20.243-4.542 2.794-11.989 1.686-19.875.513-6.185-.919-12.58-1.871-18.868-1.169-7.841.881-15.25 4.06-21.787 6.864-6.132 2.631-11.925 5.116-16.519 5.116h-80c-4.594 0-10.387-2.485-16.52-5.116-6.537-2.805-13.946-5.983-21.793-6.864-1.521-.17-3.047-.243-4.577-.243-4.789 0-9.598.716-14.285 1.412-7.884 1.173-15.332 2.282-19.874-.513-4.91-3.02-7.27-11.386-9.769-20.243-1.417-5.021-2.882-10.214-4.985-15.218-1.94-4.622-4.907-8.78-8.049-13.182-5.219-7.311-10.148-14.218-10.148-22.683 0-8.854 3.854-18.116 7.933-27.924 3.522-8.466 7.164-17.221 8.639-26.529 1.515-9.611.625-19.436-.237-28.936-.94-10.372-1.829-20.169.453-28.548 2.349-8.623 7.971-16.365 13.923-24.562 5.667-7.805 11.528-15.876 14.567-25.089 3.534-10.731 9.269-18.021 15.34-25.738 7.075-8.993 14.391-18.292 17.226-32.455 6.824-34.118 57.054-49.569 71.366-49.569h1.58c14.312 0 64.542 15.451 71.366 49.57 2.834 14.162 10.15 23.461 17.226 32.454 6.071 7.718 11.806 15.007 15.341 25.741 3.038 9.21 8.898 17.281 14.566 25.086 5.952 8.196 11.574 15.938 13.923 24.561 2.282 8.38 1.394 18.177.453 28.549-.861 9.5-1.752 19.324-.236 28.941 1.474 9.303 5.116 18.058 8.638 26.523 4.08 9.808 7.933 19.07 7.933 27.924 0 8.466-4.929 15.373-10.148 22.684z"/></g></svg>