<svg id="Layer_1" enable-background="new 0 0 512 512" height="512" viewBox="0 0 512 512" width="512" xmlns="http://www.w3.org/2000/svg"><g><path d="m454.4 114.285c-21.523 21.523-63.771 7.086-63.771 7.086s-14.438-42.248 7.086-63.771c35.429-35.429 85.029-28.343 85.029-28.343s7.085 49.6-28.344 85.028z" fill="#f3d4b7"/><path d="m454.4 114.29c-21.52 21.52-63.77 7.08-63.77 7.08s-4.51-13.19-4.73-28.6c7.19 2.19 43.19 11.83 62.5-7.48 17.97-17.97 25.01-39.6 27.57-56.54 4.28.15 6.77.51 6.77.51s7.09 49.6-28.34 85.03z" fill="#e1c3a7"/><path d="m355.838 123.141c7.878 29.401-25.749 58.771-25.749 58.771s-43.807-8.621-51.685-38.022c-12.968-48.396 17.969-87.808 17.969-87.808s46.497 18.662 59.465 67.059z" fill="#f3d4b7"/><path d="m330.09 181.91s-43.81-8.62-51.69-38.02c-.03-.11-.06-.23-.09-.34 18.065 11.412 41.214 4.853 50.839-12.965 5.34-9.884 8.849-21.662 5.691-33.445-2.14-7.99-5.19-15.17-8.8-21.58 11.88 10.73 24.09 26.27 29.8 47.58 7.88 29.4-25.75 58.77-25.75 58.77z" fill="#e1c3a7"/><path d="m388.859 156.162c-29.401-7.878-58.771 25.749-58.771 25.749s8.621 43.807 38.022 51.685c48.396 12.968 87.808-17.969 87.808-17.969s-18.663-46.497-67.059-59.465z" fill="#f3d4b7"/><path d="m455.92 215.63s-39.41 30.93-87.81 17.97c-14.93-4-24.51-17.28-30.3-29.37 1.99.98 4.08 1.78 6.3 2.37 48.4 12.96 87.81-17.97 87.81-17.97s-2.41-6.02-7.76-14.33c22.47 18.19 31.76 41.33 31.76 41.33z" fill="#e1c3a7"/><path d="m274.664 204.315c7.878 29.401-25.749 58.771-25.749 58.771s-43.807-8.621-51.685-38.022c-12.968-48.396 17.969-87.808 17.969-87.808s46.497 18.663 59.465 67.059z" fill="#f3d4b7"/><path d="m248.91 263.09s-44.123-8.683-51.766-38.356c.004-.003.001-.001.006-.004 18.046 11.4 41.185 4.863 50.813-12.954 5.343-9.887 8.856-21.669 5.697-33.456-2.14-7.99-5.19-15.17-8.8-21.58 11.89 10.72 24.09 26.27 29.8 47.58 7.88 29.4-25.75 58.77-25.75 58.77z" fill="#e1c3a7"/><path d="m307.685 237.336c-29.401-7.878-58.771 25.749-58.771 25.749s8.621 43.807 38.022 51.685c48.396 12.968 87.808-17.969 87.808-17.969s-18.663-46.497-67.059-59.465z" fill="#f3d4b7"/><path d="m374.74 296.799s-39.41 30.94-87.8 17.97c-14.95-4-24.52-17.29-30.32-29.38 1.99.98 4.1 1.78 6.32 2.38 48.39 12.97 87.8-17.97 87.8-17.97s-2.42-6.02-7.76-14.34c22.47 18.201 31.76 41.34 31.76 41.34z" fill="#e1c3a7"/><path d="m192.866 286.112c7.878 29.401-25.749 58.771-25.749 58.771s-43.807-8.621-51.685-38.022c-12.968-48.396 17.969-87.808 17.969-87.808s46.498 18.663 59.465 67.059z" fill="#f3d4b7"/><path d="m167.12 344.88s-43.81-8.62-51.69-38.02c-.03-.11-.06-.23-.09-.34 18.064 11.412 41.211 4.852 50.835-12.965 5.339-9.885 8.849-21.663 5.695-33.445-2.14-7.98-5.2-15.16-8.8-21.57 11.88 10.73 24.09 26.27 29.8 47.57 7.87 29.399-25.75 58.77-25.75 58.77z" fill="#e1c3a7"/><path d="m225.888 319.133c-29.401-7.878-58.771 25.749-58.771 25.749s8.621 43.807 38.022 51.685c48.396 12.968 87.808-17.969 87.808-17.969s-18.663-46.497-67.059-59.465z" fill="#f3d4b7"/><path d="m292.95 378.6s-39.41 30.94-87.81 17.97c-14.93-4-24.51-17.28-30.31-29.37 1.99.98 4.09 1.78 6.31 2.37 48.4 12.97 87.81-17.97 87.81-17.97s-2.42-6.03-7.78-14.35c22.48 18.19 31.78 41.35 31.78 41.35z" fill="#e1c3a7"/><path d="m111.692 367.286c7.878 29.401-25.749 58.771-25.749 58.771s-43.807-8.621-51.685-38.022c-12.968-48.396 17.969-87.808 17.969-87.808s46.498 18.663 59.465 67.059z" fill="#f3d4b7"/><path d="m85.94 426.06s-43.8-8.62-51.68-38.02c-.03-.11-.06-.23-.09-.34 18.06 11.416 41.199 4.854 50.823-12.953 5.343-9.887 8.857-21.67 5.697-33.457-2.14-8-5.2-15.18-8.82-21.6 11.88 10.72 24.1 26.27 29.82 47.6 7.88 29.4-25.75 58.77-25.75 58.77z" fill="#e1c3a7"/><path d="m144.714 400.308c-29.401-7.878-58.771 25.749-58.771 25.749s8.621 43.807 38.022 51.685c48.396 12.968 87.808-17.969 87.808-17.969s-18.663-46.498-67.059-59.465z" fill="#f3d4b7"/><path d="m211.77 459.77s-39.41 30.94-87.81 17.97c-14.93-4-24.51-17.271-30.31-29.37 1.99.98 4.09 1.78 6.31 2.37 48.4 12.97 87.81-17.97 87.81-17.97s-2.42-6.02-7.77-14.33c22.48 18.18 31.77 41.33 31.77 41.33z" fill="#e1c3a7"/><path d="m509.657 2.342c-3.123-3.122-8.188-3.123-11.313 0l-18.584 18.583c-13.283-.965-55.544-1.14-87.702 31.016-20.307 20.307-13.803 54.439-10.442 67.128l-16.715 16.715c1.804-24.283-20.03-65.208-61.78-85.427l-6.802-25.385c-1.144-4.268-5.53-6.8-9.798-5.657-4.268 1.144-6.801 5.53-5.657 9.798l6.802 25.385c-7.477 11.02-28.76 47.532-16.99 91.461 6.069 22.651 29.061 34.429 44.191 39.858l-31.141 31.141c1.804-24.283-20.03-65.208-61.779-85.427l-6.802-25.384c-1.144-4.268-5.527-6.8-9.798-5.657-4.268 1.144-6.8 5.53-5.657 9.798l6.802 25.385c-7.478 11.02-28.761 47.532-16.99 91.461 6.069 22.651 29.061 34.43 44.191 39.859l-31.764 31.764c1.804-24.284-20.031-65.209-61.779-85.427l-6.802-25.385c-1.144-4.268-5.527-6.8-9.798-5.657-4.268 1.144-6.8 5.53-5.657 9.798l6.802 25.386c-7.478 11.02-28.761 47.532-16.99 91.461 6.069 22.651 29.061 34.429 44.191 39.858l-31.141 31.141c1.804-24.285-20.031-65.207-61.78-85.427l-6.802-25.385c-1.144-4.268-5.528-6.799-9.798-5.657-4.268 1.144-6.801 5.53-5.657 9.798l6.802 25.386c-7.478 11.02-28.761 47.532-16.99 91.461 6.07 22.651 29.062 34.43 44.191 39.859l-68.378 68.375c-3.125 3.125-3.125 8.189 0 11.314 3.125 3.124 8.189 3.123 11.313 0l68.379-68.379c5.429 15.129 17.208 38.122 39.859 44.191 32.271 8.645 66.136.194 91.46-16.99 27.444 7.353 25.96 7.076 27.461 7.076 3.532 0 6.765-2.357 7.723-5.932 1.144-4.268-1.389-8.654-5.657-9.798l-25.384-6.801c-20.256-41.824-61.216-63.577-85.428-61.781l31.141-31.141c5.429 15.13 17.208 38.122 39.859 44.191 31.998 8.572 65.863.379 91.46-16.989l25.386 6.802c4.304 1.152 8.664-1.425 9.798-5.657 1.144-4.268-1.389-8.654-5.657-9.798l-25.385-6.801c-20.232-41.776-61.167-63.581-85.427-61.782l31.763-31.763c5.429 15.129 17.208 38.122 39.859 44.191 32.272 8.645 66.135.194 91.46-16.99l25.386 6.803c4.266 1.141 8.653-1.385 9.798-5.657 1.144-4.268-1.389-8.654-5.657-9.798l-25.385-6.802c-20.231-41.774-61.166-63.582-85.426-61.781l31.14-31.139c5.429 15.13 17.208 38.123 39.859 44.192 32.271 8.645 66.136.193 91.46-16.99l25.386 6.802c4.304 1.152 8.664-1.425 9.798-5.657 1.144-4.268-1.389-8.654-5.657-9.798l-25.384-6.801c-20.232-41.776-61.168-63.582-85.428-61.781l16.715-16.715c22.756 6.027 50.47 6.215 67.127-10.441 32.158-32.158 31.983-74.42 31.017-87.703l18.583-18.583c3.123-3.123 3.123-8.189-.001-11.314zm-223.526 139.477c-9.124-34.049 5.778-63.794 12.983-75.502 12.104 6.543 39.875 24.851 48.996 58.894 4.639 17.315-9.15 35.676-17.465 44.807-1.193 1.1-2.242 2.111-3.133 2.998-10.204-2.869-36.228-11.967-41.381-31.197zm-81.174 81.174c-9.124-34.049 5.779-63.794 12.983-75.502 12.104 6.543 39.874 24.852 48.996 58.895 4.639 17.315-9.148 35.675-17.463 44.805-1.201 1.107-2.256 2.125-3.15 3.016-10.218-2.821-36.162-11.793-41.366-31.214zm-81.797 81.798c-9.128-34.068 5.795-63.828 12.996-75.521 12.087 6.486 39.813 24.687 48.983 58.913 4.64 17.314-9.148 35.675-17.463 44.805-1.201 1.107-2.256 2.125-3.15 3.016-10.217-2.82-36.162-11.79-41.366-31.213zm-81.175 81.174c-9.124-34.049 5.779-63.794 12.983-75.502 12.104 6.543 39.875 24.851 48.996 58.894 4.639 17.314-9.147 35.674-17.462 44.805-1.202 1.107-2.257 2.126-3.152 3.018-10.215-2.822-36.16-11.793-41.365-31.215zm100.658 22.07c34.049 9.123 52.358 36.902 58.894 48.995-11.72 7.211-41.46 22.107-75.502 12.984-19.425-5.205-28.396-31.157-31.214-41.365 12.237-12.282 31.094-25.1 47.822-20.614zm81.174-81.174c34.049 9.123 52.358 36.902 58.894 48.995-11.719 7.211-41.46 22.107-75.501 12.983-19.426-5.205-28.396-31.159-31.214-41.365.889-.893 1.905-1.945 3.009-3.143 27.193-24.769 44.913-17.47 44.812-17.47zm81.797-81.798c34.049 9.123 52.358 36.902 58.894 48.995-11.719 7.211-41.459 22.107-75.501 12.984-19.426-5.205-28.397-31.159-31.214-41.365.889-.892 1.904-1.944 3.008-3.142 27.19-24.767 44.914-17.472 44.813-17.472zm81.175-81.174c34.049 9.123 52.358 36.902 58.894 48.995-11.72 7.211-41.461 22.108-75.502 12.984-19.426-5.205-28.396-31.159-31.214-41.366.889-.892 1.905-1.945 3.009-3.143 9.132-8.317 27.496-22.111 44.813-17.47zm61.954-55.26c-14.314 14.314-41.545 8.942-51.64 6.296-2.6-10.099-7.912-37.488 6.268-51.668 24.943-24.941 58.189-26.897 71.901-26.506.426 13.711-1.473 46.822-26.529 71.878z"/></g></svg>