<svg id="Layer_1" enable-background="new 0 0 512 512" height="512" viewBox="0 0 512 512" width="512" xmlns="http://www.w3.org/2000/svg"><g><path d="m474 488h-436c-16.569 0-30-13.431-30-30v-314h496v314c0 16.569-13.431 30-30 30z" fill="#e2e0e0"/><path d="m504 144v314c0 16.57-13.43 30-30 30h-48c16.57 0 30-13.43 30-30v-314z" fill="#cecccc"/><path d="m256 376-32 16-56-8 32-32-64-24 16-16-32-32h40v-24l56 24-8-64 24 8 24-40 24 40 24-8-8 64 56-24v24h40l-32 32 16 16-64 24 32 32-56 8z" fill="#acebe2"/><path d="m474 64c16.57 0 30 13.43 30 30v50h-496v-50c0-16.57 13.43-30 30-30z" fill="#f79caf"/><path d="m504 94v50h-48v-50c0-16.57-13.43-30-30-30h48c16.57 0 30 13.43 30 30z" fill="#e3889b"/><path d="m126 104h-20c-5.523 0-10-4.477-10-10v-60c0-5.523 4.477-10 10-10h20c5.523 0 10 4.477 10 10v60c0 5.523-4.477 10-10 10z" fill="#b59f89"/><path d="m386 104h20c5.523 0 10-4.477 10-10v-60c0-5.523-4.477-10-10-10h-20c-5.523 0-10 4.477-10 10v60c0 5.523 4.477 10 10 10z" fill="#b59f89"/><path d="m416 34v60c0 5.52-4.48 10-10 10h-17c5.52 0 10-4.48 10-10v-60c0-5.52-4.48-10-10-10h17c5.52 0 10 4.48 10 10z" fill="#a18b76"/><path d="m136 34v60c0 5.52-4.48 10-10 10h-17c5.52 0 10-4.48 10-10v-60c0-5.52-4.48-10-10-10h17c5.52 0 10 4.48 10 10z" fill="#a18b76"/><path d="m376 328-64 24 32 32-56 8-20.96-10.48c8.33-18.81 12.96-39.62 12.96-61.52 0-40.89-16.14-78.01-42.41-105.32l18.41-30.68 24 40 24-8-8 64 56-24v24h40l-32 32z" fill="#98d7ce"/><path d="m474 56h-50v-22c0-9.925-8.075-18-18-18h-20c-9.925 0-18 8.075-18 18v22h-224v-22c0-9.925-8.075-18-18-18h-20c-9.925 0-18 8.075-18 18v22h-50c-20.953 0-38 17.047-38 38v364c0 20.953 17.047 38 38 38h436c20.953 0 38-17.047 38-38 0-25.236 0-349.486 0-364 0-20.953-17.047-38-38-38zm-90-22c0-1.103.897-2 2-2h20c1.103 0 2 .897 2 2v60c0 1.103-.897 2-2 2h-20c-1.103 0-2-.897-2-2zm-280 0c0-1.103.897-2 2-2h20c1.103 0 2 .897 2 2v60c0 1.103-.897 2-2 2h-20c-1.103 0-2-.897-2-2zm-88 60c0-12.131 9.869-22 22-22h50v22c0 9.925 8.075 18 18 18h20c9.925 0 18-8.075 18-18v-22h224v22c0 9.925 8.075 18 18 18h20c9.925 0 18-8.075 18-18v-22h50c12.131 0 22 9.869 22 22v42h-480zm480 364c0 12.131-9.869 22-22 22h-436c-12.131 0-22-9.869-22-22v-306h480z"/><path d="m140.687 312-10.344 10.343c-4.097 4.099-2.613 11.099 2.849 13.147l52.366 19.638-23.215 23.215c-4.651 4.651-1.994 12.645 4.525 13.577l56 8c3.292.468 2.881.15 25.132-10.976v59.056c0 4.418 3.582 8 8 8s8-3.582 8-8v-59.056c21.904 10.952 21.44 11.056 24 11.056.87 0-2.646.46 57.132-8.08 6.511-.931 9.182-8.921 4.525-13.577l-23.215-23.215 52.366-19.638c5.427-2.035 6.972-9.022 2.849-13.147l-10.344-10.343 26.344-26.343c5.021-5.021 1.465-13.657-5.657-13.657h-32v-16c0-5.733-5.871-9.614-11.151-7.354l-43.181 18.506 6.271-50.16c.729-5.833-4.891-10.442-10.469-8.582l-17.911 5.971-20.698-34.497c-3.097-5.158-10.606-5.189-13.721 0l-20.698 34.497-17.911-5.971c-5.587-1.859-11.197 2.754-10.469 8.582l6.271 50.16-43.181-18.506c-5.273-2.255-11.152 1.61-11.152 7.354v16h-32c-7.124 0-10.677 8.637-5.657 13.657zm19.313-24c4.418 0 8-3.582 8-8v-11.868l44.849 19.222c5.67 2.427 11.856-2.219 11.09-8.346l-6.426-51.404 11.957 3.986c3.56 1.185 7.461-.259 9.391-3.474l17.139-28.567 17.14 28.567c1.93 3.214 5.832 4.656 9.391 3.474l11.957-3.986-6.426 51.404c-.765 6.119 5.415 10.776 11.09 8.346l44.848-19.222v11.868c0 4.418 3.582 8 8 8h20.687l-18.344 18.343c-3.124 3.125-3.124 8.189 0 11.314l7.215 7.215-52.366 19.638c-5.427 2.035-6.972 9.022-2.849 13.147l20.687 20.686-37.687 5.384-25.343-12.671v-29.64l34.971-13.988c4.103-1.641 6.098-6.297 4.457-10.398-1.64-4.103-6.295-6.099-10.398-4.457l-29.03 11.611v-52.184c0-4.418-3.582-8-8-8s-8 3.582-8 8v52.184l-29.029-11.611c-4.101-1.642-8.758.355-10.398 4.457s.354 8.758 4.457 10.398l34.97 13.988v29.64l-25.343 12.671-37.687-5.384 20.687-20.686c4.097-4.099 2.613-11.099-2.849-13.147l-52.366-19.638 7.215-7.215c3.124-3.125 3.124-8.189 0-11.314l-18.344-18.343z"/></g></svg>