<svg id="Layer_1" enable-background="new 0 0 512 512" height="512" viewBox="0 0 512 512" width="512" xmlns="http://www.w3.org/2000/svg"><g><path d="m504 200.002c0 39.76-32.24 72-72 72h-344c-44.18 0-80-35.82-80-80 0-35.84 23.58-66.19 56.07-76.36-2.16-52.32 35.92-97.98 87.13-106.28 5.46-.9 11.07-1.36 16.8-1.36 43.31 0 80.44 26.48 96.08 64.13 19.2 1.13 36.25 10.22 47.9 24.03 11.91-10.12 25.92-15.26 39.93-16.05 29.95-1.69 59.9 16.53 69.34 48.69 43.53-6.59 82.75 27.19 82.75 71.2z" fill="#e2e0e0"/><path d="m504 200.002c0 27.6-15.54 51.58-38.34 63.66 5.33-10.05 8.34-21.5 8.34-33.66 0-44.01-39.22-77.79-82.75-71.2-9.44-32.16-39.39-50.38-69.34-48.69-14.01.79-28.02 5.93-39.93 16.05-11.65-13.81-28.7-22.9-47.9-24.03-15.64-37.65-52.77-64.13-96.08-64.13-5.73 0-11.34.46-16.8 1.36-14.72 2.39-28.36 7.86-40.26 15.69 15.6-23.72 40.75-40.9 70.26-45.69 5.46-.9 11.07-1.36 16.8-1.36 43.31 0 80.44 26.48 96.08 64.13 19.2 1.13 36.25 10.22 47.9 24.03 11.91-10.12 25.92-15.26 39.93-16.05 29.95-1.69 59.9 16.53 69.34 48.69 43.53-6.59 82.75 27.19 82.75 71.2z" fill="#cecccc"/><path d="m229.857 312.002h66.143l-24 56h40l-72 136 8-96h-48z" fill="#f3d4b7"/><path d="m440 440.002c0 17.673-14.327 32-32 32s-32-14.327-32-32 32-56 32-56 32 38.327 32 56z" fill="#e2e0e0"/><path d="m440 440.002c0 22.738-23.075 38.14-44 29.68 11.72-4.75 20-16.25 20-29.68 0-10.32-10.92-27.69-20-40.36 6.47-9.01 12-15.64 12-15.64s32 38.33 32 56z" fill="#cecccc"/><path d="m136 392.002c0 17.673-14.327 32-32 32s-32-14.327-32-32 32-56 32-56 32 38.327 32 56z" fill="#e2e0e0"/><path d="m136 392.002c0 22.738-23.075 38.14-44 29.68 11.72-4.75 20-16.25 20-29.68 0-10.32-10.92-27.69-20-40.36 6.47-9.01 12-15.64 12-15.64s32 38.33 32 56z" fill="#cecccc"/><path d="m272 368.002h-24l24-56h24z" fill="#e1c3a7"/><path d="m312 368.002-72 136 4.48-53.8 43.52-82.2z" fill="#e1c3a7"/><path d="m312 360.002h-27.868l19.221-44.849c2.259-5.269-1.61-11.151-7.353-11.151h-66.143c-3.503 0-6.599 2.279-7.639 5.624l-29.857 96c-1.601 5.146 2.251 10.376 7.639 10.376h39.306l-7.278 87.336c-.72 8.627 10.982 12.076 15.042 4.407l72-136c2.819-5.322-1.051-11.743-7.07-11.743zm-60.782 105.712 4.754-57.048c.389-4.66-3.293-8.664-7.972-8.664h-37.134l24.881-80h48.121l-19.221 44.849c-2.259 5.269 1.61 11.151 7.353 11.151h26.713z"/><path d="m426.738 120.173c-17.657-44.761-73.109-62.822-113.866-34.757-11.795-11.401-27.094-18.761-43.37-20.813-18.383-39.405-57.706-64.601-101.502-64.601-61.09 0-110.913 49.159-111.982 109.999-32.818 12.861-56.018 44.653-56.018 82.001 0 48.523 39.477 88 88 88h344c44.112 0 80-35.888 80-80 0-46.116-39.091-82.85-85.262-79.829zm5.262 143.829h-344c-39.701 0-72-32.299-72-72 0-52.744 53.985-86.456 100.798-66.009 4.044 1.765 8.762-.073 10.533-4.129 1.769-4.049-.08-8.765-4.129-10.533-16.165-7.061-33.859-9.005-50.973-5.903 3.391-49.88 45.047-89.426 95.771-89.426 38.939 0 73.753 23.237 88.692 59.199 1.175 2.828 3.861 4.737 6.917 4.917 13.798.812 26.942 6.491 37.059 15.805-10.075 10.717-16.909 24.177-19.486 38.68-.868 4.884 2.883 9.4 7.886 9.4 3.805 0 7.179-2.725 7.867-6.602 4.891-27.527 28.97-49.399 59.063-49.399 26.458 0 50.134 17.704 57.574 43.053 1.127 3.841 4.921 6.25 8.875 5.657 38.633-5.863 73.552 24.227 73.552 63.29.001 35.29-28.709 64-63.999 64z"/><path d="m401.859 378.875c-5.654 6.772-33.859 41.545-33.859 61.127 0 22.056 17.944 40 40 40s40-17.944 40-40c0-19.582-28.205-54.355-33.859-61.127-3.195-3.826-9.084-3.83-12.282 0zm6.141 85.127c-13.234 0-24-10.767-24-24 0-8.585 12.557-28.234 24-43.175 11.443 14.94 24 34.59 24 43.175 0 13.233-10.766 24-24 24z"/><path d="m97.859 330.875c-5.654 6.772-33.859 41.545-33.859 61.127 0 22.056 17.944 40 40 40s40-17.944 40-40c0-19.582-28.205-54.355-33.859-61.127-3.195-3.826-9.084-3.83-12.282 0zm6.141 85.127c-13.234 0-24-10.767-24-24 0-8.585 12.557-28.234 24-43.175 11.443 14.94 24 34.59 24 43.175 0 13.233-10.766 24-24 24z"/></g></svg>