<svg id="Layer_1" enable-background="new 0 0 512 512" height="512" viewBox="0 0 512 512" width="512" xmlns="http://www.w3.org/2000/svg"><g><g fill="#e2e0e0"><path d="m368 504h-320c-22.091 0-40-17.909-40-40 0-.101-6.24 0 400 0 0 22.03-17.848 40-40 40z"/><path d="m408 168c-8.882 124.223-8.368 132.261-15.05 159.99-12.534 52.301-40.744 99.833-80.95 136.01h-208c-51.33-46.19-82.75-110.48-87.67-179.36l-8.33-116.64z"/><path d="m504 248c0 61.857-50.138 112-112 112h-8.9c3.95-10.43 7.24-21.12 9.85-32.01 43.68-.51 79.05-36.2 79.05-79.99 0-4.41-3.59-8-8-8h-61.14l2.28-32h58.86c22.09 0 40 17.91 40 40z"/></g><ellipse cx="208" cy="316" fill="#b59f89" rx="56.384" ry="40.275" transform="matrix(.707 -.707 .707 .707 -162.524 239.633)"/><path d="m236.48 344.48c-16.94 16.94-38.96 23.87-55.38 18.99 11.11-2.76 22.59-9.2 32.38-18.99 28.695-28.695 26.469-67.684-1.58-75.95 13.9-3.45 27.23-1.14 35.97 7.6 15.73 15.73 10.63 46.33-11.39 68.35z" fill="#a18b76"/><path d="m408 464c0 22.079-17.919 40-40 40h-48c22.079 0 40-17.919 40-40z" fill="#cecccc"/><path d="m408 168c-8.88 124.22-8.37 132.26-15.05 159.99-12.53 52.3-40.74 99.83-80.95 136.01h-48c40.21-36.18 68.42-83.71 80.95-136.01 6.68-27.73 6.17-35.77 15.05-159.99z" fill="#cecccc"/><path d="m214.74 259.779c-30.072 5.012-57.945 32.871-62.961 62.96-4.975 29.85 14.065 50.273 40.177 50.273 32.965 0 66.683-30.267 72.265-63.753 5.326-31.958-17.166-54.863-49.481-49.48zm-29.561 33.399c12.948-12.948 33.386-22.355 49.153-16.407-7.462 4.52-15.358 5.549-26.294 16.485-9.294 9.295-8.519 17.824-8.005 23.468.419 4.607.61 6.71-3.386 10.706-10.001 10.001-16.058 8.573-27.098 16.667-6.35-13.598-.256-35.033 15.63-50.919zm45.643 45.644c-13.056 13.056-33.516 22.305-49.154 16.407 7.389-4.476 15.368-5.558 26.295-16.485 9.294-9.295 8.519-17.824 8.005-23.468-.419-4.607-.61-6.71 3.386-10.706 10.004-10.005 16.049-8.567 27.098-16.667 6.35 13.598.256 35.033-15.63 50.919z"/><path d="m388.58 368c74.382 0 123.42-57.1 123.42-120 0-26.467-21.532-48-48-48h-50.266l2.245-31.43c.33-4.625-3.335-8.57-7.979-8.57h-400c-4.637 0-8.31 3.937-7.979 8.57l8.332 116.645c4.697 65.77 32.648 125.81 75.884 170.785h-76.237c-4.418 0-8 3.582-8 8 0 26.467 21.532 48 48 48h320c26.468 0 48-21.533 48-48 0-4.418-3.582-8-8-8h-76.237c25.191-26.204 44.043-56.229 56.817-88zm21.726-120h53.694c0 35.759-26.511 65.74-60.903 71.124 4.251-21.486 4.573-34.216 7.209-71.124zm53.694-32c17.645 0 32 14.355 32 32 0 56.747-45.286 102.685-101.564 103.97 1.782-5.379 3.4-10.805 4.842-16.279 45.049-3.733 80.722-41.83 80.722-87.691 0-8.822-7.178-16-16-16h-52.551l1.143-16zm-96 280h-320c-14.884 0-27.427-10.213-30.987-24h381.975c-3.561 13.787-16.104 24-30.988 24zm-260.876-40c-48.702-44.855-78.088-105.78-82.812-171.925l-7.72-108.075h382.816l-7.72 108.075c-4.718 66.063-34.066 127.029-82.812 171.925z"/><path d="m196 96c0 4.418 3.582 8 8 8s8-3.582 8-8c0-11.451 8-12.695 8-29.334 0-9.374-2.76-14.433-4.977-18.498-1.82-3.338-3.023-5.543-3.023-10.837 0-11.45 8-12.692 8-29.331 0-4.418-3.582-8-8-8s-8 3.582-8 8c0 11.45-8 12.693-8 29.331 0 9.374 2.76 14.433 4.977 18.498 1.82 3.338 3.023 5.543 3.023 10.837 0 11.451-8 12.695-8 29.334z"/><path d="m272 128c0 4.418 3.582 8 8 8s8-3.582 8-8c0-11.451 8-12.695 8-29.334 0-9.374-2.76-14.433-4.977-18.498-1.82-3.338-3.023-5.543-3.023-10.837 0-11.45 8-12.692 8-29.331 0-4.418-3.582-8-8-8s-8 3.582-8 8c0 11.45-8 12.693-8 29.331 0 9.374 2.76 14.433 4.977 18.498 1.82 3.338 3.023 5.543 3.023 10.837 0 11.451-8 12.695-8 29.334z"/><path d="m120 128c0 4.418 3.582 8 8 8s8-3.582 8-8c0-11.451 8-12.695 8-29.334 0-9.374-2.76-14.433-4.977-18.498-1.82-3.338-3.023-5.543-3.023-10.837 0-11.45 8-12.692 8-29.331 0-4.418-3.582-8-8-8s-8 3.582-8 8c0 11.45-8 12.693-8 29.331 0 9.374 2.76 14.433 4.977 18.498 1.82 3.338 3.023 5.543 3.023 10.837 0 11.451-8 12.695-8 29.334z"/></g></svg>