<svg id="Layer_1" enable-background="new 0 0 512.043 512.043" height="512" viewBox="0 0 512.043 512.043" width="512" xmlns="http://www.w3.org/2000/svg"><g><path d="m138.162 483.052c-67.966 26.339-130.14-52.143-130.14-151.03 0-98.716 61.81-176.286 128.95-151.48-36.88 23.91-56.95 79.79-56.95 147.48-.001 68.41 20.499 129.33 58.14 155.03z" fill="#f3d4b7"/><path d="m213.832 488.942c-24.871 10.713-52.828 9.727-75.67-5.89-37.64-25.7-58.14-86.62-58.14-155.03 0-67.69 20.07-123.57 56.95-147.48 23.122-14.998 51.949-16.17 76.86-5.44-53.8 48.12-75.41 186.07-26.38 278.54 7.759 14.66 16.739 26.68 26.38 35.3z" fill="#f3d4b7"/><path d="m138.162 483.052c-10.76 4.17-21.4 5.71-31.68 4.94-50.036-25.458-66.46-102.111-66.46-159.97 0-55.883 15.271-127.362 64.41-151.74 10.54-1.13 21.47.17 32.54 4.26-36.88 23.91-56.95 79.79-56.95 147.48-.001 68.41 20.499 129.33 58.14 155.03z" fill="#e1c3a7"/><path d="m212.821 176.032c18.446-46.517 19.2-41.778 19.2-86.59 0-26.52 10.54-51.96 29.29-70.71l10.71-10.71 32 24-16.87 28.12c-4.67 7.78-7.13 16.67-7.13 25.73v22.89c0 24.292 7.629 38.09 19.2 67.27z" fill="#b59f89"/><path d="m280.021 108.762c0 24.29 7.63 38.09 19.2 67.27h-86.4c6.472-16.34 6.53-16.01 6.43-16.01 25.135 0 43.782-23.114 38.692-47.728-2.301-11.126-1.922-16.636-1.922-42.432 0-9.06 2.46-17.95 7.13-25.73l16.87-28.12-9.14-6.85 1.14-1.14 32 24-16.87 28.12c-4.67 7.78-7.13 16.67-7.13 25.73z" fill="#a18b76"/><path d="m352.021 332.022c0 94.99-43.82 172-88 172h-16c-26.559 0-48.08-26.784-60.57-50.38-34.869-65.761-36.733-165.361-4.06-235.08 12.392-26.454 35.466-58.54 64.63-58.54h16c44.18 0 88 77.01 88 172z" fill="#f3d4b7"/><path d="m213.832 488.942c-9.82 4.23-20.3 6.7-30.87 7.05-55.295-35.783-87.913-174.264-39.57-277.43 8.57-18.29 22.25-39.29 39.53-50.49 10.58.39 21.09 2.8 30.91 7.03-53.8 48.12-75.41 186.07-26.38 278.54 7.759 14.66 16.739 26.68 26.38 35.3z" fill="#e1c3a7"/><path d="m352.021 332.022c0 94.99-43.82 172-88 172-16.469 0-20.459.495-28.06-1.85 39.81-12.22 76.06-83.75 76.06-170.15 0-86.41-36.26-157.94-76.07-170.16 7.672-2.347 11.742-1.84 28.07-1.84 44.18 0 88 77.01 88 172z" fill="#e1c3a7"/><path d="m298.211 488.942c24.065 10.378 52.184 10.159 75.67-5.89 37.64-25.7 58.14-86.62 58.14-155.03 0-67.69-20.07-123.57-56.95-147.48-23.432-15.202-52.322-16.022-76.86-5.44 53.803 48.124 75.413 186.067 26.38 278.54-7.759 14.66-16.739 26.68-26.38 35.3z" fill="#f3d4b7"/><path d="m432.021 328.022c0 68.41-20.5 129.33-58.14 155.03-19.63 13.41-42.48 15.77-63.51 10.13 7.42-2.12 14.66-5.45 21.51-10.13 37.64-25.7 58.14-86.62 58.14-155.03 0-62.286-19.125-141.263-79.01-157.29 21.37-5.52 44.6-2.82 64.06 9.81 36.88 23.91 56.95 79.79 56.95 147.48z" fill="#e1c3a7"/><path d="m373.881 483.052c67.478 26.183 130.14-51.392 130.14-151.03 0-99.131-62.013-176.194-128.95-151.48 36.88 23.91 56.95 79.79 56.95 147.48 0 68.41-20.5 129.33-58.14 155.03z" fill="#f3d4b7"/><path d="m504.021 332.022c0 95.95-58.11 171.44-122.67 153.51 47.72-13.49 84.67-76.99 84.67-153.51 0-76.6-37.02-140.02-84.74-153.48 64.52-17.91 122.74 57.42 122.74 153.48z" fill="#e1c3a7"/><path d="m480.218 217.274c-29.757-44.635-70.149-56.261-104.166-45.514-22.125-12.976-48.739-14.987-72.769-7.118-16.638-41.604-15.261-37.14-15.261-78.77 0-7.612 2.071-15.085 5.99-21.614l16.87-28.12c2.108-3.516 1.219-8.056-2.061-10.516l-32-24c-3.184-2.389-7.641-2.073-10.457.743l-10.71 10.71c-20.398 20.399-31.633 47.52-31.633 76.367 0 40.658-.165 37.457-15.264 75.199-23.986-7.853-50.608-5.878-72.766 7.119-33.994-10.742-74.401.866-104.167 45.514-42.427 63.64-42.44 165.835 0 229.495 29.885 44.827 70.75 56.62 105.317 45.141 23.28 14.334 50.763 15.337 75.221 6.237 11.446 9.085 23.686 13.875 35.658 13.875h16c12.115 0 24.241-4.838 35.626-13.886 24.331 9.063 51.796 8.219 75.254-6.225 34.559 11.475 75.427-.307 105.317-45.141 42.428-63.641 42.441-165.836.001-229.496zm-240.197-127.832c0-24.573 9.57-47.676 26.947-65.053l5.804-5.804 20.677 15.508-13.157 21.932c-5.41 9.014-8.271 19.335-8.271 29.847 0 33.684-1.256 40.557 10.46 69.845-6.09-2.435-12.277-3.695-18.46-3.695-15.515 0-22.877-.907-34.466 3.711 11.561-28.907 10.466-35.679 10.466-66.291zm-194.883 348.452c-38.858-58.289-38.853-153.463 0-211.745 17.455-26.182 43.416-45.281 74.084-41.709-65.133 61.821-61.795 232.983 1.891 294.915-31.436 4.623-58.156-14.732-75.975-41.461zm97.535 38.551c-33.71-23.017-54.651-79.889-54.651-148.423 0-49.316 12.268-114.164 53.305-140.769 17.688-11.475 38.906-13.741 57.986-8.729-63.241 73.01-62.472 235.365-.02 307.001-19.176 5.032-39.219 2.811-56.62-9.08zm105.348 19.577c-23.088 0-42.671-25.664-53.502-46.126-37.158-70.131-34.619-178.448 4.201-243.194 10.694-17.832 28.632-38.68 49.301-38.68h16c16.223 0 33.864 13.694 48.331 37.102 38.613 62.652 42.627 167.975 7.819 239.527-10.947 22.396-31.703 51.372-56.15 51.372h-16zm64.729-10.497c62.579-72.019 63.038-234.224-.019-307.001 19.034-5 40.243-2.781 57.988 8.731 47.939 31.079 57.445 113.673 51.843 171.46-6.787 70.038-41.533 144.72-109.812 126.81zm154.155-47.631c-17.788 26.682-44.548 46.083-75.975 41.46 56.033-54.504 61.626-184.597 29.535-254.847-6.797-14.88-15.882-28.887-27.644-40.067 30.733-3.58 56.676 15.598 74.084 41.709 38.858 58.289 38.853 153.464 0 211.745z"/></g></svg>