<svg id="Layer_1" enable-background="new 0 0 512 512" height="512" viewBox="0 0 512 512" width="512" xmlns="http://www.w3.org/2000/svg"><g><path d="m488 240c-42.27-21.66-93.82-22.94-137.37-3.42l-7.63 3.42c0-164.67-87-208-87-208 128.13 0 232 93.12 232 208z" fill="#f79caf"/><path d="m488 240c-15.27-7.83-31.76-12.99-48.64-15.48-7.38-90.01-78.65-164.1-173.32-185.96-6.14-4.62-10.04-6.56-10.04-6.56 128.13 0 232 93.12 232 208z" fill="#e3889b"/><path d="m343 240-27.86-11.1c-37.65-15-80.63-15-118.28 0l-27.86 11.1c0-164.67 87-208 87-208s87 43.33 87 208z" fill="#acebe2"/><path d="m343 240c-27.77-11.064-31.456-12.715-39.25-15.13-3.5-104.07-42.76-155.99-67.25-178.43 11.33-10.37 19.5-14.44 19.5-14.44s87 43.33 87 208z" fill="#98d7ce"/><path d="m256 32s-87 43.33-87 208l-7.63-3.42c-43.793-19.625-95.355-18.114-137.37 3.42 0-114.88 103.87-208 232-208z" fill="#f79caf"/><path d="m256 32s-87 43.33-87 208c-11.313-5.071-21.89-10.093-39.79-13.82 3.86-126.15 60.14-176.18 79.95-189.93.101-.101 21.46-4.25 46.84-4.25z" fill="#e3889b"/><path d="m272 376v76c0 28.72-23.28 52-52 52-28.719 0-52-23.279-52-52v-28c0-8.84 7.16-16 16-16 8.853 0 16 7.16 16 16v28c0 11.05 8.95 20 20 20 11.04 0 20-8.96 20-20v-76z" fill="#b59f89"/><path d="m264 24.132v-16.132c0-4.418-3.582-8-8-8s-8 3.582-8 8v16.132c-125.039 3.663-232 95.553-232 215.868 0 5.97 6.328 9.847 11.647 7.12 40.233-20.611 89-21.821 130.454-3.238 6.883 3.086 9.668 5.221 13.997 3.495 2.798-1.158-10.238 4.079 27.72-11.045 15.367-6.123 31.707-9.604 48.182-10.456v142.124h-8c-4.418 0-8 3.582-8 8v76c0 3.203-1.249 6.215-3.516 8.483-7.495 7.494-20.484 2.243-20.484-8.483v-28c0-6.403-2.491-12.429-7.033-16.986-15.099-15.048-40.967-4.269-40.967 16.986v28c0 33.161 26.834 60 60 60 33.084 0 60-26.916 60-60v-76c0-4.418-3.582-8-8-8h-8v-142.124c29.937 1.549 46.628 9.836 75.879 21.492 1.406.625 3.272.834 5.074.382 1.137-.286 1.552-.554 8.946-3.868 41.457-18.584 90.225-17.372 130.454 3.238 5.315 2.723 11.647-1.144 11.647-7.12 0-120.61-107.278-212.215-232-215.868zm-44 471.868c-24.319 0-44-19.678-44-44v-28c0-4.411 3.589-8 8-8 4.435 0 8 3.567 8 8v28c0 15.439 12.561 28 28 28 15.47 0 28-12.53 28-28v-68h16v68c0 24.262-19.738 44-44 44zm-187.554-268.697c6.824-96.731 91.018-175.016 197.813-185.978-49.121 45.693-67.273 119.595-69.078 186.457-40.964-17.234-87.937-17.296-128.735-.479zm224.156-17.623c-.551-.04-.653-.04-1.205 0-35.311.124-56.81 9.918-78.223 18.451 2.043-75.286 23.274-122.048 41.24-148.363 15.323-22.444 30.795-34.056 37.584-38.464 6.806 4.419 22.271 16.031 37.586 38.464 17.966 26.315 39.197 73.078 41.24 148.363-21.398-8.527-42.653-18.326-78.222-18.451zm94.217 18.102c-1.805-66.844-19.947-140.754-69.078-186.457 106.795 10.961 190.988 89.247 197.813 185.978-40.798-16.816-87.772-16.754-128.735.479z"/></g></svg>