<svg height="512pt" viewBox="-10 0 512 512.001" width="512pt" xmlns="http://www.w3.org/2000/svg"><path d="m371.207031 98.003906c-32.921875-5.894531-66.03125 4.105469-94.976562 25.738282-18.132813 13.554687-42.867188 13.554687-61 0-28.945313-21.632813-62.058594-31.632813-94.980469-25.738282-79.78125 14.285156-128.230469 116.484375-108.214844 228.269532 20.015625 111.789062 100.917969 190.828124 180.699219 176.542968 13.351563-2.390625 25.828125-7.246094 37.25-14.199218 9.703125-5.902344 21.789063-5.902344 31.492187 0 11.421876 6.953124 23.894532 11.808593 37.25 14.199218 79.78125 14.285156 160.683594-64.753906 180.699219-176.542968 20.011719-111.785157-28.4375-213.984376-108.21875-228.269532zm0 0" fill="#fd5c6f"/><path d="m224.460938 215.707031c117.394531-12.144531 137.78125-69.777343 137.78125-69.777343v-49.140626c-29.933594-2.769531-59.695313 7.285157-86.011719 26.957032-18.132813 13.554687-42.867188 13.554687-61.003907 0-28.945312-21.636719-62.054687-31.636719-94.976562-25.742188-79.78125 14.285156-128.230469 116.484375-108.214844 228.269532 20.015625 111.789062 100.917969 190.828124 180.699219 176.542968 12.519531-2.242187 24.265625-6.652344 35.101563-12.921875-46.984376-62.25-67.703126-127.171875-76.515626-178.074219-8.175781-47.195312 25.496094-91.183593 73.140626-96.113281zm0 0" fill="#f6334c"/><path d="m296.804688 153.460938s-65.917969-30.132813-32.394532-81.582032c31.902344-48.957031 80.882813-28.039062 143.730469-52.097656 15.867187-6.074219 31.316406 9.917969 24.828125 25.625-22.578125 54.667969-68.074219 133.496094-136.164062 108.054688zm0 0" fill="#73da8c"/><path d="m245.730469 162.261719c-17.6875 0-32.027344-14.339844-32.027344-32.027344v-90.707031c0-17.6875 14.339844-32.027344 32.027344-32.027344s32.023437 14.339844 32.023437 32.027344v90.707031c0 17.6875-14.335937 32.027344-32.023437 32.027344zm0 0" fill="#f2ad9a"/><path d="m181.710938 292.019531c0-13.183593-13.421876-23.867187-29.972657-23.867187-16.554687 0-29.972656 10.683594-29.972656 23.867187 0 13.183594 13.417969 23.867188 29.972656 23.867188 16.550781 0 29.972657-10.683594 29.972657-23.867188zm0 0" fill="#ffb3dd"/><path d="m369.695312 292.019531c0-13.183593-13.417968-23.867187-29.972656-23.867187-16.554687 0-29.972656 10.683594-29.972656 23.867187 0 13.183594 13.417969 23.867188 29.972656 23.867188 16.554688 0 29.972656-10.683594 29.972656-23.867188zm0 0" fill="#ffb3dd"/><path d="m264.050781 266.867188c-10.789062 8.367187-25.851562 8.367187-36.640625 0-3.273437-2.539063-7.984375-1.945313-10.523437 1.328124-2.535157 3.273438-1.941407 7.984376 1.332031 10.523438 8.097656 6.285156 17.804688 9.425781 27.511719 9.425781s19.414062-3.140625 27.511719-9.425781c3.273437-2.539062 3.871093-7.25 1.332031-10.523438-2.539063-3.273437-7.253907-3.867187-10.523438-1.328124zm0 0"/><path d="m165.078125 255.992188c-7.140625 0-13.742187 3.5625-17.660156 9.527343-2.273438 3.464844-1.3125 8.113281 2.148437 10.386719 3.460938 2.273438 8.113282 1.3125 10.386719-2.148438 1.640625-2.496093 4.128906-2.765624 5.125-2.765624.992187 0 3.441406.296874 5.121094 2.765624 3.503906 5.140626 9.117187 2.980469 10.382812 2.148438 3.464844-2.273438 4.425781-6.921875 2.152344-10.386719-3.917969-5.964843-10.519531-9.527343-17.65625-9.527343zm0 0"/><path d="m326.382812 255.992188c-7.136718 0-13.738281 3.5625-17.660156 9.527343-2.273437 3.464844-1.308594 8.113281 2.152344 10.386719s8.109375 1.3125 10.386719-2.148438c1.636719-2.496093 4.128906-2.765624 5.121093-2.765624.992188 0 3.441407.296874 5.121094 2.765624 3.507813 5.140626 9.117188 2.980469 10.386719 2.148438 3.460937-2.273438 4.425781-6.921875 2.152344-10.386719-3.917969-5.964843-10.519531-9.527343-17.660157-9.527343zm0 0"/><path d="m490.0625 248.582031c-.417969-4.125-4.101562-7.128906-8.214844-6.710937-4.121094.417968-7.125 4.097656-6.707031 8.21875 2.464844 24.410156 1.425781 49.597656-3.097656 74.863281-19.257813 107.535156-96.40625 184.015625-171.996094 170.480469-12.171875-2.179688-23.835937-6.628906-34.675781-13.226563-12.113282-7.371093-27.167969-7.371093-39.285156 0-10.839844 6.597657-22.503907 11.046875-34.675782 13.222657-75.589844 13.539062-152.738281-62.941407-171.992187-170.476563-9.410157-52.542969-3.699219-104.453125 16.078125-146.167969 19.371094-40.863281 49.941406-66.933594 86.074218-73.402344 28.277344-5.058593 57.429688 2.238282 84.632813 21.109376 0 0 1.417969 43.269531 39.523437 43.269531 13.941407 0 26.210938-7.261719 33.25-18.195313 7.9375 5.589844 19.75 14.28125 43.621094 14.28125 28.503906 0 55.496094-16.578125 79.570313-48.640625 32.359375 18.570313 56.957031 55.554688 67.957031 102.617188.808594 3.457031 3.863281 6.40625 9.011719 5.59375 4.089843-.640625 6.539062-4.976563 5.59375-9.007813-11.820313-50.574218-38.542969-90.695312-73.9375-111.546875 10.351562-15.878906 20.09375-34.773437 29.109375-56.59375 4.171875-10.109375 2.015625-21.269531-5.640625-29.125-7.613281-7.8125-18.648438-10.253906-28.804688-6.367187-22.734375 8.703125-44.109375 11.363281-62.96875 13.710937-21.355469 2.660157-40.421875 5.042969-57.234375 14.832031 0 0-2.074218-41.320312-39.523437-41.320312-21.796875 0-39.527344 17.730469-39.527344 39.527344v8.453125c0 4.144531 3.359375 7.5 7.5 7.5s7.5-3.355469 7.5-7.5v-8.453125c0-13.523438 11.003906-24.527344 24.527344-24.527344 13.523437 0 24.523437 11 24.523437 24.527344v90.707031c0 13.523437-11 24.527344-24.523437 24.527344-13.523438 0-24.527344-11.003907-24.527344-24.527344v-51.773437c0-4.140626-3.359375-7.5-7.5-7.5s-7.5 3.359374-7.5 7.5v30.15625c-28.089844-17.019532-57.980469-23.242188-87.273437-17.996094-41.039063 7.347656-75.480469 36.375-96.988282 81.742187-21.105468 44.515625-27.242187 99.644531-17.289062 155.234375 9.953125 55.585938 34.839844 105.160156 70.078125 139.589844 35.910156 35.082031 78.285156 50.355469 119.324219 43.011719 14-2.507813 27.402343-7.613281 39.828124-15.175781 7.304688-4.445313 16.382813-4.445313 23.691407 0 12.425781 7.5625 25.828125 12.667968 39.828125 15.175781 6.734375 1.207031 13.5 1.800781 20.273437 1.800781 34.492188 0 69.035157-15.488281 99.050781-44.8125 35.238282-34.425781 60.125-84 70.078126-139.589844 4.769531-26.632812 5.867187-53.21875 3.257812-79.015625zm-145.71875-207.207031c19.707031-2.453125 42.042969-5.234375 66.476562-14.589844 4.535157-1.734375 9.285157-.679687 12.703126 2.828125 3.453124 3.546875 4.394531 8.378907 2.515624 12.929688-10.097656 24.449219-26.875 58.46875-49.460937 81.703125-24.394531 25.09375-49.535156 32.390625-76.855469 22.296875-1.257812-.605469-7.8125-3.871094-15.078125-9.421875.394531-2.238282.613281-77.628906.613281-77.628906 15.746094-12.714844 35.042969-15.121094 59.085938-18.117188zm0 0"/></svg>