<svg height="512pt" viewBox="-19 0 512 512" width="512pt" xmlns="http://www.w3.org/2000/svg"><path d="m303.519531 369.292969-1.015625-19.578125 20.160156-10.484375c6.542969-3.402344 10.496094-10.3125 10.113282-17.675781l-1.175782-22.6875 20.15625-10.484376c6.542969-3.402343 10.496094-10.3125 10.113282-17.675781l-1.179688-22.6875 20.15625-10.480469c6.542969-3.402343 10.5-10.316406 10.113282-17.679687l-1.179688-22.683594 20.15625-10.476562c6.542969-3.402344 10.496094-10.3125 10.113281-17.679688l-1.179687-22.6875 21.851562-11.359375c5.90625-3.074218 10.804688-7.777344 14.113282-13.558594l9.699218-16.949218c4.675782-8.171875 3.296875-18.464844-3.359375-25.121094l-65.746093-65.746094c-8.148438-8.148437-21.359376-8.148437-29.511719 0l-260.019531 260.019532 129.410156 129.410156 54.296875-14.582032c8.574219-2.300781 14.375-10.285156 13.914062-19.152343zm76.613281-269.992188c-7.179687-7.179687-7.179687-18.820312 0-26 7.183594-7.179687 18.824219-7.179687 26.003907 0 7.179687 7.179688 7.179687 18.820313 0 26-7.179688 7.179688-18.820313 7.179688-26.003907 0zm0 0" fill="#a7b6c5"/><path d="m197.972656 248.503906c-15.03125-24.867187 5.707032-72.664062 5.707032-72.664062l-97.78125 97.777344 129.410156 129.410156 38.425781-10.316406c-13.617187-136.769532-61.484375-120.59375-75.761719-144.207032zm0 0" fill="#889cb0"/><path d="m237.675781 382.089844-19.117187-65.851563c-3.191406-11.003906-11.792969-19.605469-22.796875-22.796875l-65.851563-19.117187c-20.253906-5.882813-42.105468-.269531-57.019531 14.644531l-53.960937 53.964844c-15.265626 15.265625-15.265626 40.015625 0 55.28125l94.859374 94.859375c15.265626 15.261719 40.011719 15.261719 55.277344 0l53.964844-53.964844c14.914062-14.914063 20.527344-36.765625 14.644531-57.019531zm-96.25 67.515625-79.03125-79.03125 42.125-42.125c4.367188-4.371094 10.769531-6.015625 16.707031-4.292969l42.460938 12.328125c5.710938 1.65625 10.171875 6.117187 11.828125 11.824219l12.328125 42.464844c1.722656 5.933593.078125 12.335937-4.292969 16.707031zm0 0" fill="#73da8c"/><path d="m18.925781 398.214844 94.859375 94.859375c15.265625 15.261719 40.015625 15.261719 55.28125 0l29.382813-29.386719c8.320312-33.277344-10.578125-72.851562-10.605469-72.914062 1.722656 5.9375.078125 12.339843-4.292969 16.707031l-42.125 42.125-79.03125-79.03125 42.125-42.125c4.367188-4.371094 10.769531-6.015625 16.707031-4.292969 0 0-39.613281-18.933594-72.914062-10.609375l-29.386719 29.386719c-15.261719 15.265625-15.261719 40.015625 0 55.28125zm0 0" fill="#29ce69"/><path d="m26.839844 406.125 79.035156 79.035156 47.476562-47.480468s-27.546874-9.910157-48.332031-30.695313c-20.789062-20.789063-30.699219-48.335937-30.699219-48.335937zm0 0" fill="#6a829a"/><path d="m226.695312 256.769531c-8.0625 8.0625-9.394531 19.800781-2.972656 26.21875 6.417969 6.421875 18.15625 5.089844 26.21875-2.972656 8.0625-8.058594 9.390625-19.796875 2.972656-26.21875-6.417968-6.417969-18.160156-5.089844-26.21875 2.972656zm0 0" fill="#ffb3dd"/><path d="m334.832031 148.636719c-8.0625 8.058593-9.394531 19.800781-2.972656 26.21875 6.417969 6.417969 18.15625 5.089843 26.21875-2.972657s9.390625-19.800781 2.972656-26.21875c-6.417969-6.421874-18.160156-5.089843-26.21875 2.972657zm0 0" fill="#ffb3dd"/><path d="m310.574219 155.703125 8.804687 8.804687c2.929688 2.929688 7.675782 2.929688 10.609375 0 2.925781-2.929687 2.925781-7.675781 0-10.605468l-8.804687-8.804688c-2.929688-2.929687-7.679688-2.929687-10.609375 0-2.929688 2.929688-2.929688 7.679688 0 10.605469zm0 0"/><path d="m223.160156 243.117188 8.804688 8.804687c2.929687 2.929687 7.675781 2.929687 10.609375 0 2.925781-2.929687 2.925781-7.675781 0-10.605469l-8.804688-8.804687c-2.929687-2.929688-7.679687-2.929688-10.609375 0-2.929687 2.929687-2.929687 7.675781 0 10.605469zm0 0"/><path d="m293.988281 190.949219c-.839843-4.054688-4.808593-6.664063-8.863281-5.824219-1.488281.308594-6.984375 2.75-5.824219 8.867188.554688 2.933593-.964843 4.875-1.667969 5.578124-.703124.703126-2.65625 2.273438-5.578124 1.667969-4.058594-.839843-8.027344 1.765625-8.867188 5.824219-.839844 4.054688 1.769531 8.023438 5.824219 8.863281 6.992187 1.449219 14.179687-.699219 19.226562-5.75 5.046875-5.046875 7.199219-12.234375 5.75-19.226562zm0 0"/><path d="m411.4375 104.605469c10.09375-10.09375 10.09375-26.515625 0-36.609375-10.089844-10.09375-26.515625-10.09375-36.605469 0-10.09375 10.09375-10.09375 26.515625 0 36.609375 10.089844 10.09375 26.515625 10.09375 36.605469 0zm-26-10.605469c-4.246094-4.246094-4.246094-11.152344 0-15.394531 4.242188-4.246094 11.148438-4.246094 15.394531 0 4.242188 4.242187 4.242188 11.148437 0 15.394531-4.246093 4.242188-11.152343 4.242188-15.394531 0zm0 0"/><path d="m311.011719 368.90625-.765625-14.761719 15.878906-8.261719c9.125-4.742187 14.675781-14.445312 14.144531-24.71875l-.929687-17.871093 15.878906-8.253907c9.125-4.746093 14.675781-14.449218 14.140625-24.722656l-.925781-17.871094 15.875-8.253906c9.125-4.746094 14.679687-14.449218 14.144531-24.722656l-.929687-17.863281 15.871093-8.253907c9.128907-4.742187 14.679688-14.445312 14.148438-24.71875l-.929688-17.871093 17.570313-9.132813c7.199218-3.746094 13.132812-9.445312 17.160156-16.488281l9.703125-16.953125c6.335937-11.078125 4.460937-25.121094-4.566406-34.144531l-65.746094-65.746094c-11.0625-11.0625-29.058594-11.0625-40.117187 0l-34.761719 34.757813c-2.929688 2.929687-2.929688 7.679687 0 10.609374 2.929687 2.929688 7.679687 2.929688 10.609375 0l34.757812-34.761718c5.214844-5.210938 13.695313-5.210938 18.90625 0l65.746094 65.746094c4.25 4.253906 5.136719 10.871093 2.148438 16.089843l-9.699219 16.953125c-2.597657 4.539063-6.421875 8.214844-11.0625 10.628906l-21.847657 11.359376c-2.609374 1.355468-4.183593 4.109374-4.03125 7.042968l1.175782 22.6875c.230468 4.417969-2.15625 8.59375-6.082032 10.632813l-20.152343 10.480469c-2.609375 1.355468-4.183594 4.109374-4.03125 7.042968l1.179687 22.683594c.230469 4.417969-2.160156 8.59375-6.082031 10.632812l-20.160156 10.480469c-2.605469 1.355469-4.179688 4.109375-4.027344 7.042969l1.179687 22.691406c.226563 4.417969-2.160156 8.589844-6.085937 10.632813l-20.15625 10.484375c-2.605469 1.351562-4.183594 4.105468-4.03125 7.042968l1.179687 22.6875c.230469 4.417969-2.160156 8.59375-6.082031 10.632813l-20.160156 10.484375c-2.609375 1.355469-4.183594 4.109375-4.03125 7.042969l1.015625 19.578125c.273438 5.300781-3.246094 10.144531-8.371094 11.523437l-40.484375 10.871094c-.382812-4.046875-21.414062-77.929687-21.414062-77.929687-3.929688-13.542969-14.363281-23.976563-27.90625-27.90625 0 0-70.726563-20.371094-73.179688-20.789063l189.003907-189.007813c2.929687-2.929687 2.929687-7.679687 0-10.609374-2.929688-2.925782-7.679688-2.925782-10.605469 0l-199.5 199.5c-13.402344 2.121093-26.054688 8.398437-35.988281 18.328124l-53.960938 53.964844c-18.167969 18.164063-18.167969 47.722656 0 65.886719l94.859375 94.859375c18.164063 18.167969 47.722656 18.167969 65.886719 0 2.929687-2.929688 2.929687-7.675781 0-10.605469-2.929688-2.929687-7.679688-2.929687-10.609375 0-23.28125 23.28125-47.28125-2.609375-47.28125-2.609375l71.652343-71.652344c3.722657 12.996094 6.867188 30.523438 3.472657 46.417969l-6.328125 6.332031c-2.929688 2.925782-2.929688 7.675782 0 10.605469 2.925781 2.929688 7.675781 2.929688 10.605468 0l32.449219-32.449219c10.105469-10.105468 16.425781-23.03125 18.4375-36.695312l44.78125-12.027344c11.914063-3.199218 20.097657-14.464844 19.460938-26.785156zm-286.78125-20.667969 27.847656-27.847656c15.886719-3.390625 33.417969-.242187 46.414063 3.476563l-71.648438 71.652343s-27.503906-22.390625-2.613281-47.28125zm156.410156 44.625c.960937 3.308594.042969 6.878907-2.394531 9.3125l-26.683594 26.6875c-8.222656-3.558593-26.597656-12.542969-41.242188-27.183593-14.582031-14.585938-23.601562-33.011719-27.175781-41.246094l26.675781-26.679688c2.4375-2.4375 6.007813-3.351562 9.316407-2.390625l42.460937 12.324219c3.257813.945312 5.769532 3.457031 6.714844 6.714844zm-143.191406 13.261719 34.355469-34.355469c4.992187 10.445313 14.164062 26.773438 27.910156 40.515625 13.742187 13.746094 30.070312 22.917969 40.515625 27.910156l-34.355469 34.355469zm157.4375-17.996094-12.167969-41.910156c-2.386719-8.21875-8.71875-14.550781-16.9375-16.9375l-41.90625-12.164062c-4.21875-1.941407-28.734375-12.691407-55.355469-13.167969l9.675781-9.675781c12.980469-12.980469 31.996094-17.863282 49.625-12.746094l65.851563 19.117187c8.582031 2.492188 15.191406 9.101563 17.683594 17.683594l19.117187 65.851563c5.117188 17.628906.234375 36.644531-12.746094 49.625l-9.6875 9.6875c-.488281-26.605469-11.226562-51.160157-13.152343-55.363282zm0 0"/></svg>