<svg height="512pt" viewBox="0 -40 512.00005 512" width="512pt" xmlns="http://www.w3.org/2000/svg"><path d="m365.988281 353.335938-33.496093-14.328126 137.042968-320.457031c3.957032-9.25 14.664063-13.539062 23.914063-9.585937 9.25 3.957031 13.539062 14.664062 9.585937 23.914062zm0 0" fill="#3e4f61"/><path d="m227.753906 145.300781h-30.015625c-15.535156 0-29.03125 10.683594-32.597656 25.804688l-17.503906 74.21875h130.214843l-17.503906-74.21875c-3.566406-15.121094-17.058594-25.804688-32.59375-25.804688zm0 0" fill="#6a829a"/><path d="m260.347656 171.105469c-3.566406-15.121094-17.058594-25.804688-32.59375-25.804688h-19.226562l-.027344.160157s24.671875 10.855468 18.835938 40.050781c-3.625 18.15625-41.441407 14.976562-73.128907 31.945312l-6.570312 27.867188h130.214843zm0 0" fill="#516980"/><path d="m52.683594 385.289062c0-2.007812 9.144531-70.019531 14.460937-109.378906 2.210938-16.390625 14.671875-29.511718 30.925781-32.582031l194.554688-36.734375c26.945312-5.085938 53.144531 11.847656 59.578125 38.503906l33.8125 140.191406zm0 0" fill="#ff8a98"/><path d="m386.015625 385.289062-33.8125-140.191406c-5.695313-23.605468-26.894531-39.585937-50.378906-39.402344 1.144531 37.585938-3.257813 89.0625-32.085938 113.4375-39.554687 33.445313-76.457031 31.574219-104.652343 66.15625zm0 0" fill="#fd5c6f"/><path d="m269.738281 210.914062-171.667969 32.414063c-16.253906 3.070313-28.714843 16.1875-30.925781 32.578125-3.339843 24.730469-8.191406 60.761719-11.335937 84.636719l162.269531-60.6875c16.671875-6.234375 29.5625-19.765625 34.976563-36.71875zm0 0" fill="#f9ee80"/><path d="m121.824219 368.332031c0 31.570313-25.59375 57.160157-57.164063 57.160157-31.566406 0-57.160156-25.589844-57.160156-57.160157 0-31.570312 25.59375-57.160156 57.160156-57.160156 31.570313 0 57.164063 25.589844 57.164063 57.160156zm0 0" fill="#6a829a"/><path d="m427.046875 368.332031c0 31.570313-25.59375 57.160157-57.164063 57.160157-31.566406 0-57.160156-25.589844-57.160156-57.160157 0-31.570312 25.59375-57.160156 57.160156-57.160156 31.570313 0 57.164063 25.589844 57.164063 57.160156zm0 0" fill="#6a829a"/><path d="m87.191406 368.332031c0 12.441407-10.085937 22.527344-22.53125 22.527344-12.441406 0-22.527344-10.085937-22.527344-22.527344 0-12.441406 10.085938-22.53125 22.527344-22.53125 12.445313 0 22.53125 10.089844 22.53125 22.53125zm0 0" fill="#516980"/><path d="m392.414062 368.332031c0 12.441407-10.085937 22.527344-22.53125 22.527344-12.441406 0-22.527343-10.085937-22.527343-22.527344 0-12.441406 10.085937-22.53125 22.527343-22.53125 12.445313 0 22.53125 10.089844 22.53125 22.53125zm0 0" fill="#516980"/><path d="m64.660156 338.300781c-16.558594 0-30.027344 13.472657-30.027344 30.03125 0 16.558594 13.46875 30.027344 30.027344 30.027344s30.03125-13.46875 30.03125-30.027344c0-16.558593-13.472656-30.03125-30.03125-30.03125zm0 45.0625c-8.285156 0-15.027344-6.742187-15.027344-15.03125 0-8.285156 6.742188-15.027343 15.027344-15.027343 8.289063 0 15.03125 6.742187 15.03125 15.027343 0 8.289063-6.742187 15.03125-15.03125 15.03125zm0 0"/><path d="m339.855469 368.332031c0 16.558594 13.472656 30.027344 30.027343 30.027344 16.558594 0 30.03125-13.46875 30.03125-30.027344 0-16.558593-13.472656-30.03125-30.03125-30.03125-16.554687 0-30.027343 13.472657-30.027343 30.03125zm45.058593 0c0 8.285157-6.742187 15.027344-15.03125 15.027344-8.285156 0-15.027343-6.742187-15.027343-15.027344 0-8.289062 6.742187-15.03125 15.027343-15.03125 8.289063 0 15.03125 6.742188 15.03125 15.03125zm0 0"/><path d="m496.398438 2.070312c-13.039063-5.574218-28.183594.496094-33.757813 13.53125l-21.511719 50.300782c-1.628906 3.808594.136719 8.214844 3.945313 9.84375 3.8125 1.628906 8.21875-.136719 9.847656-3.945313l21.511719-50.300781c2.320312-5.433594 8.632812-7.960938 14.0625-5.640625 5.433594 2.324219 7.964844 8.636719 5.640625 14.066406l-117.335938 274.375c-1.558593-.214843-3.128906-.375-4.71875-.480469l-6.632812-27.488281 75.789062-177.21875c1.628907-3.808593-.136719-8.214843-3.945312-9.84375-3.8125-1.628906-8.214844.136719-9.84375 3.945313l-67.882813 158.726562-2.074218-8.601562c-7.375-30.574219-37.351563-49.953125-68.257813-44.113282l-15.84375 2.988282-7.742187-32.832032c-4.386719-18.59375-20.792969-31.582031-39.894532-31.582031h-30.015625c-19.105469 0-35.511719 12.988281-39.898437 31.582031l-7.4375 31.550782c-.953125 4.03125 1.546875 8.070312 5.578125 9.019531 4.03125.953125 8.066406-1.546875 9.019531-5.578125l7.441406-31.546875c2.78125-11.792969 13.179688-20.027344 25.292969-20.027344h30.015625c12.113281 0 22.515625 8.234375 25.296875 20.027344l7.589844 32.171875-163.960938 30.957031c-19.460937 3.675781-34.316406 19.328125-36.964843 38.949219-1.179688 8.730469-2.546876 18.875-3.960938 29.394531-31.449219 4.355469-55.75 31.402344-55.75 64.03125 0 35.652344 29.007812 64.660157 64.660156 64.660157 4.144532 0 7.5-3.355469 7.5-7.5 0-4.140626-3.355468-7.5-7.5-7.5-27.382812 0-49.660156-22.277344-49.660156-49.660157 0-27.382812 22.277344-49.660156 49.660156-49.660156 27.382813 0 49.660156 22.277344 49.660156 49.660156 0 17.179688-8.691406 32.902344-23.25 42.066407-3.507812 2.203124-4.558593 6.835937-2.351562 10.339843 2.203125 3.503907 6.832031 4.5625 10.339844 2.355469 11.703125-7.367188 20.488281-17.992188 25.5-30.308594h185.480468c9.667969 23.5625 32.84375 40.207032 59.84375 40.207032 35.65625 0 64.664063-29.007813 64.664063-64.660157 0-27.332031-17.058594-50.742187-41.078125-60.1875l116.460938-272.320312c5.574218-13.035157-.496094-28.179688-13.53125-33.753907zm-425.472657 301.910157c1.304688-9.683594 2.558594-18.980469 3.648438-27.066407 1.785156-13.207031 11.785156-23.742187 24.886719-26.214843l159.304687-30.078125-12.855469 40.234375c-4.746094 14.859375-15.847656 26.515625-30.457031 31.976562l-98.890625 36.980469c-10.621094-14.273438-26.980469-24.03125-45.636719-25.832031zm57.707031 73.808593c2.175782-14.484374-1.160156-27.011718-4.488281-34.796874l96.5625-36.109376c18.941407-7.085937 33.335938-22.199218 39.492188-41.464843l15.324219-47.960938 18.492187-3.492187c23.039063-4.351563 45.398437 10.09375 50.894531 32.890625l13.9375 57.777343c-30.414062 5.253907-57.808594 32.097657-52.925781 73.15625zm290.914063-9.457031c0 27.382813-22.277344 49.660157-49.664063 49.660157-27.382812 0-49.660156-22.277344-49.660156-49.660157 0-27.382812 22.277344-49.660156 49.660156-49.660156 27.386719 0 49.664063 22.277344 49.664063 49.660156zm0 0"/></svg>