<svg height="512pt" viewBox="-17 0 512 512" width="512pt" xmlns="http://www.w3.org/2000/svg"><path d="m341.515625 147.871094c0-26.652344-46.476563-48.261719-103.804687-48.261719-57.328126 0-103.804688 21.609375-103.804688 48.261719 0 26.65625 46.476562 48.261718 103.804688 48.261718 57.328124 0 103.804687-21.605468 103.804687-48.261718zm0 0" fill="#6a829a"/><path d="m449.117188 234.851562h-420.457032c-11.6875 0-21.160156-9.476562-21.160156-21.164062s9.476562-21.160156 21.160156-21.160156h420.457032c11.6875 0 21.160156 9.472656 21.160156 21.160156.003906 11.6875-9.472656 21.164062-21.160156 21.164062zm0 0" fill="#e7896e"/><path d="m63.234375 198.503906-11.46875 9.296875c-3.933594 3.1875-3.933594 9.1875 0 12.378907l11.46875 9.296874-2.789063 12.707032c-1.480468 6.746094 5.734376 12.050781 11.730469 8.625l24.4375-13.960938v-45.714844l-24.4375-13.960937c-5.996093-3.425781-13.210937 1.878906-11.730469 8.625zm0 0" fill="#fad989"/><path d="m414.542969 198.503906 11.472656 9.296875c3.933594 3.1875 3.933594 9.1875 0 12.378907l-11.472656 9.296874 2.792969 12.707032c1.480468 6.746094-5.734376 12.050781-11.730469 8.625l-24.441407-13.960938v-45.714844l24.441407-13.960937c5.996093-3.425781 13.210937 1.878906 11.730469 8.625zm0 0" fill="#fad989"/><path d="m238.890625 504.5c-13.289063 0-24.0625-10.773438-24.0625-24.058594v-144.363281h48.121094v144.363281c0 13.285156-10.769531 24.058594-24.058594 24.058594zm0 0" fill="#e7896e"/><path d="m373.113281 177.042969h-268.445312c-11.519531 0-20.859375 9.339843-20.859375 20.859375v35.628906c0 9.695312 6.679687 18.113281 16.125 20.316406l30.867187 7.191406c14.035157 3.273438 23.289063 16.667969 21.382813 30.953126l-12.78125 95.703124c-2.964844 22.230469 14.324218 41.984376 36.75 41.984376h125.46875c22.429687 0 39.71875-19.753907 36.75-41.984376l-12.777344-95.703124c-1.90625-14.285157 7.347656-27.679688 21.382812-30.953126l30.867188-7.191406c9.441406-2.203125 16.125-10.621094 16.125-20.316406v-35.628906c0-11.519532-9.335938-20.859375-20.855469-20.859375zm0 0" fill="#ff8a98"/><path d="m104.667969 177.042969c-11.519531 0-20.859375 9.339843-20.859375 20.859375v35.628906c0 9.695312 6.679687 18.113281 16.125 20.316406l30.867187 7.191406c14.035157 3.273438 23.289063 16.667969 21.382813 30.953126l-12.78125 95.703124c-2.964844 22.230469 14.324218 41.984376 36.75 41.984376h26.105468c-14.691406-18.3125-11.953124-46.855469-11.953124-46.855469s.214843-22.554688.324218-45.5c.117188-24.257813 17.882813-45.011719 41.902344-48.386719 91.371094-12.828125 118.089844-101.808594 120.835938-111.894531zm0 0" fill="#fd5c6f"/><path d="m152.183594 291.992188-12.777344 95.703124c-2.96875 22.230469 14.324219 41.984376 36.75 41.984376h125.46875c22.425781 0 39.71875-19.753907 36.75-41.984376l-12.78125-95.703124-14.910156-114.945313h-42.339844l4.789062 55.964844c.785157 9.1875-6.460937 17.078125-15.679687 17.078125h-37.128906c-9.21875 0-16.464844-7.890625-15.679688-17.078125l4.789063-55.964844h-42.339844l-14.910156 114.941406zm0 0" fill="#76e7e7"/><path d="m268.34375 177.042969 4.789062 55.96875c.785157 9.183593-6.460937 17.078125-15.679687 17.078125h-37.128906c-9.21875 0-16.464844-7.894532-15.675781-17.078125l4.785156-55.96875h-42.339844l-14.910156 114.945312v.003907l-12.777344 95.703124c-2.96875 22.230469 14.324219 41.984376 36.75 41.984376h26.101562c-14.691406-18.3125-11.953124-46.851563-11.953124-46.851563s.214843-22.558594.324218-45.5c.117188-24.257813 17.882813-45.015625 41.902344-48.386719 40.160156-5.636718 67.824219-25.976562 86.457031-47.875l-8.304687-64.019531h-42.339844zm0 0" fill="#2eddda"/><path d="m320.691406 133.992188c0-48.230469-37.152344-87.328126-82.980468-87.328126-45.828126 0-82.980469 39.097657-82.980469 87.328126 0 48.226562 37.152343 87.324218 82.980469 87.324218 45.828124 0 82.980468-39.097656 82.980468-87.324218zm0 0" fill="#ffeab7"/><path d="m327.691406 98.125c0-50.050781-40.285156-90.625-89.980468-90.625-49.695313 0-89.980469 40.574219-89.980469 90.625zm0 0" fill="#ff9000"/><path d="m224.226562 40.277344c-14.34375.089844-24.980468-10.730469-26.609374-23.304688-29.570313 14.847656-49.886719 45.613282-49.886719 81.152344h179.960937c0-18.175781-5.308594-35.09375-14.453125-49.277344-34.28125-7.382812-67.730469-8.703125-89.011719-8.570312zm0 0" fill="#f88000"/><path d="m137.804688 177.042969h17.230468c-13.253906-8.101563-21.128906-18.207031-21.128906-29.171875 0-26.65625 46.476562-48.261719 103.804688-48.261719 57.328124 0 103.804687 21.609375 103.804687 48.261719 0 10.964844-7.878906 21.070312-21.136719 29.171875h17.234375c26.128907-11.984375 42.34375-28.628907 42.34375-47.046875 0-36.523438-63.6875-66.132813-142.246093-66.132813-78.5625 0-142.246094 29.609375-142.246094 66.132813 0 18.417968 16.210937 35.0625 42.339844 47.046875zm0 0" fill="#ffa93f"/><path d="m292.617188 152.601562v-12.453124c0-4.140626-3.355469-7.5-7.5-7.5-4.140626 0-7.5 3.359374-7.5 7.5v12.453124c0 4.140626 3.359374 7.5 7.5 7.5 4.144531 0 7.5-3.359374 7.5-7.5zm0 0"/><path d="m190.304688 132.648438c-4.144532 0-7.5 3.359374-7.5 7.5v12.453124c0 4.140626 3.355468 7.5 7.5 7.5 4.140624 0 7.5-3.359374 7.5-7.5v-12.453124c0-4.140626-3.359376-7.5-7.5-7.5zm0 0"/><path d="m253.21875 142.957031c-1.269531-.832031-6.878906-2.992187-10.382812 2.152344-1.683594 2.464844-4.132813 2.761719-5.125 2.761719-.992188 0-3.484376-.269532-5.121094-2.761719-2.277344-3.464844-6.925782-4.425781-10.386719-2.152344-3.464844 2.273438-4.425781 6.925781-2.152344 10.386719 3.921875 5.964844 10.519531 9.527344 17.660157 9.527344 7.140624 0 13.738281-3.5625 17.660156-9.527344 2.273437-3.460938 1.3125-8.113281-2.152344-10.386719zm0 0"/><path d="m449.117188 185.023438h-24.121094c.347656-5.222657-1.9375-10.207032-6.28125-13.398438-4.996094-3.671875-11.445313-4.042969-16.828125-.96875l-10.210938 5.835938c-9.226562-8.589844-26.863281-6.949219-26.863281-6.949219 14.761719-11.5625 22.648438-25.128907 22.648438-39.546875 0-23.277344-20.890626-44.132813-55.703126-57.703125-11.519531-42.617188-50.023437-72.292969-94.046874-72.292969-22.351563 0-44.191407 7.808594-61.496094 21.988281-15.800782 12.945313-27.230469 30.671875-32.554688 50.304688-34.15625 13.386719-55.695312 34.078125-55.695312 57.703125 0 14.417968 7.882812 27.984375 22.644531 39.546875 0 0-17.035156-1.585938-24.503906 6.949219l-10.210938-5.835938c-5.386719-3.074219-11.832031-2.703125-16.832031.96875-4.339844 3.191406-6.625 8.175781-6.277344 13.398438h-24.125c-15.804687 0-28.660156 12.859374-28.660156 28.664062s12.855469 28.664062 28.660156 28.664062h24.183594c-.574219 5.441407 1.710938 10.6875 6.21875 14 2.746094 2.019532 10.070312 5.1875 16.832031.96875l7.925781-4.527343c3.746094 4.050781 8.691407 7.023437 14.410157 8.359375l30.871093 7.195312c10.320313 2.402344 17.046876 12.136719 15.652344 22.640625l-.007812.035157v.007812l-12.773438 95.671875c-1.703125 12.738281 2.175782 25.589844 10.640625 35.261719 8.464844 9.667968 20.691407 15.214844 33.542969 15.214844h79.292969v43.257812c0 9.132812-7.425781 16.5625-16.558594 16.5625s-16.5625-7.429688-16.5625-16.5625v-19.390625c0-4.140625-3.355469-7.5-7.5-7.5-4.140625 0-7.5 3.359375-7.5 7.5v19.390625c0 17.40625 14.160156 31.5625 31.5625 31.5625s31.558594-14.15625 31.558594-31.5625v-43.257812h31.175781c12.851562 0 25.078125-5.546876 33.542969-15.214844 8.464843-9.671875 12.34375-22.523438 10.640625-35.261719l-12.773438-95.675781-.003906-.035156c-1.398438-10.507813 5.328125-20.242188 15.648438-22.648438l30.871093-7.195312c5.71875-1.332032 10.664063-4.304688 14.410157-8.355469l7.925781 4.527343c6.34375 3.40625 14.085937 1.050782 16.832031-.96875 4.507812-3.316406 6.792969-8.558593 6.21875-14.003906h24.179688c15.808593 0 28.664062-12.855468 28.664062-28.660156s-12.859375-28.664062-28.664062-28.664062zm-183.457032 48.628906c.199219 2.324218-.535156 8.9375-8.207031 8.9375h-37.125c-7.742187 0-8.40625-6.613282-8.207031-8.9375l.726562-8.476563c7.902344 2.371094 16.246094 3.640625 24.863282 3.640625 9.460937 0 18.585937-1.53125 27.160156-4.367187zm-27.949218-19.835938c-82.433594 0-75.222657-87.332031-74.730469-91.015625 1.4375-.769531 22.390625-15.691406 74.730469-15.691406 52.339843 0 73.289062 14.917969 74.726562 15.6875.488281 3.695313 7.707031 91.019531-74.726562 91.019531zm-90.472657-79.234375c.0625 11.097657 1.957031 21.75 5.375 31.640625-7.269531-5.820312-11.207031-12.183594-11.207031-18.351562 0-4.449219 2.039062-8.960938 5.832031-13.289063zm180.945313 0c3.792968 4.328125 5.832031 8.839844 5.832031 13.289063 0 6.164062-3.9375 12.527344-11.207031 18.347656 3.421875-9.890625 5.3125-20.539062 5.375-31.636719zm-225.21875-4.585937c0-14.367188 13.601562-28.933594 37.324218-39.960938 25.898438-12.042968 60.496094-18.671875 97.421876-18.671875 6.160156 0 12.359374.1875 18.429687.5625 4.136719.25 7.691406-2.890625 7.949219-7.023437.253906-4.132813-2.890625-7.691406-7.023438-7.949219-6.378906-.390625-12.890625-.59375-19.355468-.59375-28.015626 0-54 3.605469-76.195313 9.9375 5.222656-12.652344 13.535156-23.964844 24.203125-32.707031 14.632812-11.988282 33.097656-18.589844 51.992188-18.589844 33.738281 0 63.648437 20.625 76.230468 51.335938-7.867187-2.230469-16.238281-4.148438-25.085937-5.6875-4.085938-.710938-7.964844 2.023437-8.675781 6.105468-.707032 4.078125 2.023437 7.964844 6.105468 8.671875 50.738282 8.832031 86.171875 31.269531 86.171875 54.570313 0 12.550781-10.371093 25.226562-28.816406 35.585937 3.554687-5.585937 5.375-11.53125 5.375-17.710937 0-15.976563-12.339844-30.511719-34.742187-40.929688-20.574219-9.5625-47.765626-14.832031-76.5625-14.832031-28.796876 0-55.984376 5.269531-76.5625 14.832031-22.402344 10.417969-34.742188 24.953125-34.742188 40.929688 0 6.179687 1.820312 12.125 5.371094 17.710937-18.441406-10.359375-28.8125-23.035156-28.8125-35.585937zm-87.964844 83.691406c0-7.535156 6.128906-13.664062 13.660156-13.664062h20.785156s-8.132812 4.84375-8.132812 13.964843c0 9.125 7.390625 13.363281 7.390625 13.363281h-20.042969c-7.53125 0-13.660156-6.128906-13.660156-13.664062zm52.949219 30.578125c-.242188-.175781 2.613281-13.183594 2.613281-13.183594.605469-2.769531-.398438-5.648437-2.605469-7.433593 0 0-11.644531-9.4375-11.644531-9.660157 0-.21875 11.644531-9.65625 11.644531-9.65625 2.203125-1.785156 3.210938-4.664062 2.605469-7.4375 0 0-2.855469-13.003906-2.613281-13.183593.242187-.179688 9.804687 5.28125 9.804687 5.28125-.933594 2.804687-1.441406 5.796874-1.441406 8.910156v35.628906c0 2.027344.234375 4 .636719 5.914062-.003907 0-8.757813 5-9 4.820313zm64.554687 9.472656-30.867187-7.195312c-6.082031-1.417969-10.328125-6.765625-10.328125-13.011719v-35.628906c0-7.367188 5.992187-13.359375 13.359375-13.359375h53.890625l-10.066406 77.601562c-4.367188-4.007812-9.804688-6.964843-15.988282-8.40625zm198.4375 134.949219c1.128906 8.453125-1.445312 16.980469-7.0625 23.394531-5.617187 6.417969-13.726562 10.097657-22.253906 10.097657h-125.46875c-8.527344 0-16.640625-3.679688-22.253906-10.097657-5.617188-6.414062-8.191406-14.941406-7.0625-23.394531l24.980468-189.777344c7.527344 8.382813 16.488282 15.335938 26.46875 20.421875l-1.113281 13.039063c-.554687 6.464844 1.507813 25.21875 23.148438 25.21875h37.128906c21.101563 0 23.703125-18.753906 23.152344-25.21875l-1.21875-14.230469c9.988281-5.453125 18.886719-12.804687 26.265625-21.59375zm55.527344-155.15625c0 6.246094-4.246094 11.59375-10.324219 13.011719l-30.871093 7.195312c-6.179688 1.441407-11.617188 4.398438-15.988282 8.40625l-10.066406-77.601562h53.894531c7.363281 0 13.355469 5.992187 13.355469 13.359375zm23.363281 10.734375c-.242187.179687-9-4.820313-9-4.820313.402344-1.914062.636719-3.886718.636719-5.914062v-35.628906c0-3.113282-.511719-6.105469-1.441406-8.910156 0 0 9.5625-5.457032 9.804687-5.28125.242188.179687-2.613281 13.1875-2.613281 13.1875-.609375 2.769531.398438 5.648437 2.605469 7.433593 0 0 11.644531 9.4375 11.644531 9.65625 0 .222657-11.648438 9.660157-11.648438 9.660157-2.203124 1.789062-3.210937 4.664062-2.601562 7.4375 0-.003907 2.855469 13.003906 2.613281 13.179687zm39.285157-16.914063h-20.039063s7.390625-4.589843 7.390625-13.363281c0-8.773437-8.136719-13.964843-8.136719-13.964843h20.785157c7.535156 0 13.664062 6.128906 13.664062 13.664062s-6.128906 13.664062-13.664062 13.664062zm0 0"/></svg>