<svg height="512pt" viewBox="0 -2 512 511" width="512pt" xmlns="http://www.w3.org/2000/svg"><path d="m209.210938 223.609375s23.324218-104.132813-57-149.03125c-11.207032-6.265625-25.199219-4.496094-34.644532 4.195313l-10.835937 9.96875c-10.882813 10.011718-9.832031 27.390624 2.046875 36.195312 23.085937 17.117188 53.78125 49.222656 53.175781 98.671875zm0 0" fill="#00c140"/><path d="m340.679688 182.703125s26.671874-119.070313-65.171876-170.40625c-12.816406-7.164063-28.8125-5.140625-39.617187 4.796875l-12.386719 11.398438c-12.445312 11.449218-11.246094 31.320312 2.339844 41.390624 26.398438 19.570313 61.492188 56.277344 60.800781 112.820313zm0 0" fill="#29ce69"/><path d="m293.394531 24.242188c-12.605469 10.535156-31.398437 31.421874-42.457031 68.15625 19.253906 21.058593 36.199219 50.847656 35.714844 90.300781h54.035156c0 .003906 23-102.691407-47.292969-158.457031zm0 0" fill="#00c140"/><path d="m286.648438 182.703125s-26.671876-119.070313 65.171874-170.40625c12.816407-7.164063 28.8125-5.140625 39.617188 4.796875l12.386719 11.398438c12.445312 11.449218 11.246093 31.320312-2.339844 41.390624-26.398437 19.570313-61.492187 56.277344-60.800781 112.820313zm0 0" fill="#73da8c"/><path d="m270.523438 273.1875c0 46.75-37.902344 154.78125-84.65625 154.78125-46.753907 0-84.652344-108.03125-84.652344-154.78125 0-46.753906 37.898437-84.65625 84.652344-84.65625 46.753906 0 84.65625 37.902344 84.65625 84.65625zm0 0" fill="#ffa93f"/><path d="m141.699219 270.542969c-11.789063 1.421875-25.84375 4.320312-40.210938 10 3.492188 49.804687 39.9375 147.425781 84.378907 147.425781 46.753906 0 84.65625-108.03125 84.65625-154.78125 0-46.753906-37.902344-84.65625-84.65625-84.65625 0 0-14.515626 23.835938-16.332032 52.070312-.988281 15.386719-12.527344 28.089844-27.835937 29.941407zm0 0" fill="#ff9000"/><path d="m410.785156 239.390625c0 53.457031-43.335937 176.980469-96.796875 176.980469-53.457031 0-96.792969-123.523438-96.792969-176.980469 0-53.460937 43.335938-96.796875 96.792969-96.796875 53.460938 0 96.796875 43.335938 96.796875 96.796875zm0 0" fill="#ffbe73"/><path d="m468.703125 353.195312c-9.917969 0-18.957031-6.210937-22.007813-15.648437-6.597656-20.425781-25.769531-35.199219-48.394531-35.199219-13.125 0-25.085937 4.976563-34.105469 13.148438-7.625 6.90625-19.027343 6.90625-26.652343 0-9.019531-8.171875-20.980469-13.148438-34.109375-13.148438-13.125 0-25.085938 4.976563-34.105469 13.148438-7.625 6.90625-19.027344 6.90625-26.652344 0-9.019531-8.171875-20.980469-13.148438-34.109375-13.148438-13.125 0-25.085937 4.976563-34.105468 13.148438-7.625 6.90625-19.027344 6.90625-26.652344 0-9.019532-8.171875-20.980469-13.148438-34.109375-13.148438-22.621094 0-41.792969 14.773438-48.394531 35.199219-3.046876 9.4375-12.085938 15.648437-22.007813 15.648437 0 0-35.792969.640626-35.792969 35.796876v36.878906c0 41.394531 33.554688 74.949218 74.945313 74.949218h347.109375c41.390625 0 74.945312-33.554687 74.945312-74.949218v-36.878906c-.003906-37.144532-35.800781-35.796876-35.800781-35.796876zm0 0" fill="#dd6642"/><g fill="#b24e2f"><path d="m160.503906 401.582031c3.726563-72.554687 82.171875-86.089843 82.171875-86.089843-9.019531-8.167969-20.980469-13.144532-34.109375-13.144532s-25.089844 4.976563-34.105468 13.144532c-7.625 6.910156-19.027344 6.910156-26.65625 0-9.015626-8.167969-20.976563-13.144532-34.105469-13.144532-22.621094 0-41.792969 14.773438-48.394531 35.195313-3.050782 9.441406-12.089844 15.652343-22.007813 15.652343 0 0-35.796875.640626-35.796875 35.792969v36.882813c0 41.390625 33.554688 74.945312 74.945312 74.945312h112.328126c-22.691407-15.140625-36.894532-48.203125-34.269532-99.234375zm0 0"/><path d="m276.949219 399.230469c0 9.464843-7.671875 17.140625-17.136719 17.140625s-17.140625-7.675782-17.140625-17.140625c0-9.464844 7.675781-17.136719 17.140625-17.136719s17.136719 7.671875 17.136719 17.136719zm0 0"/><path d="m350.019531 445.105469c0 9.464843-7.671875 17.136719-17.136719 17.136719-9.464843 0-17.140624-7.671876-17.140624-17.136719 0-9.464844 7.675781-17.136719 17.140624-17.136719 9.464844 0 17.136719 7.671875 17.136719 17.136719zm0 0"/><path d="m410.785156 382.09375c0 9.464844-7.671875 17.136719-17.136718 17.136719-9.464844 0-17.140626-7.671875-17.140626-17.136719s7.675782-17.136719 17.140626-17.136719c9.464843 0 17.136718 7.671875 17.136718 17.136719zm0 0"/></g><path d="m353.898438 209.574219v12.453125c0 4.140625 3.355468 7.5 7.5 7.5 4.140624 0 7.5-3.359375 7.5-7.5v-12.453125c0-4.140625-3.359376-7.5-7.5-7.5-4.144532 0-7.5 3.359375-7.5 7.5zm0 0"/><path d="m259.082031 209.574219v12.453125c0 4.140625 3.359375 7.5 7.5 7.5 4.144531 0 7.5-3.359375 7.5-7.5v-12.453125c0-4.140625-3.355469-7.5-7.5-7.5-4.140625 0-7.5 3.359375-7.5 7.5zm0 0"/><path d="m319.113281 214.53125c-1.679687 2.46875-4.128906 2.765625-5.125 2.765625-.992187 0-3.480469-.269531-5.121093-2.765625-2.273438-3.460938-6.925782-4.425781-10.386719-2.148438-3.460938 2.273438-4.425781 6.921876-2.152344 10.382813 3.921875 5.96875 10.523437 9.53125 17.660156 9.53125 7.140625 0 13.742188-3.5625 17.660157-9.53125 2.277343-3.460937 1.3125-8.109375-2.148438-10.382813-1.269531-.835937-6.882812-2.992187-10.386719 2.148438zm0 0"/><path d="m500.03125 357.417969c-12.199219-11.75-29.289062-11.773438-31.414062-11.722657-6.730469-.039062-12.804688-4.328124-14.785157-10.457031-7.808593-24.160156-30.121093-40.394531-55.53125-40.394531-14.5 0-28.402343 5.359375-39.140625 15.089844-4.804687 4.351562-11.777344 4.351562-16.585937 0-10.738281-9.730469-24.640625-15.089844-39.140625-15.089844s-28.402344 5.359375-39.144532 15.089844c-4.804687 4.351562-11.777343 4.351562-16.582031 0-3.585937-3.246094-7.527343-5.996094-11.71875-8.230469-7.1875-23.667969-11.292969-46.234375-11.292969-62.316406 0-49.234375 40.058594-89.292969 89.292969-89.292969 49.238281 0 89.296875 40.058594 89.296875 89.292969 0 8.601562-1.230468 19.472656-3.550781 31.441406-.789063 4.0625 1.867187 8 5.933594 8.789063 4.066406.792968 8.003906-1.867188 8.792969-5.933594 2.5-12.890625 3.824218-24.753906 3.824218-34.296875 0-43.222657-26.429687-80.386719-63.976562-96.183594 10.761718-31.800781 33.710937-54.003906 51.640625-67.300781 8.328125-6.171875 13.414062-15.625 13.960937-25.9375.539063-10.222656-3.472656-20.0625-11.011718-26.996094l-12.386719-11.394531c-13.289063-12.226563-32.71875-14.566407-48.351563-5.828125-13.945312 7.792968-25.28125 17.078125-34.488281 27.226562-9.75-10.714844-21.308594-19.847656-34.511719-27.226562-15.632812-8.742188-35.0625-6.398438-48.351562 5.828125l-12.386719 11.394531c-25.90625 26.855469-5.375 46.761719 2.949219 52.933594 18.097656 13.417968 41.011718 35.6875 51.714844 67.550781-21.335938 9.128906-39.03125 25.179687-50.253907 45.308594-.988281-.433594-1.988281-.851563-2.992187-1.25-.214844-21.886719-3.980469-41.972657-11.21875-59.734375-10.597656-26.007813-28.347656-46.109375-52.753906-59.75-14.027344-7.839844-31.460938-5.742188-43.382813 5.226562l-10.832031 9.964844c-20.4375 22.710938-4.851563 42.175781 2.65625 47.742188 4.351562 3.226562 8.519531 6.667968 12.394531 10.234374 3.050781 2.804688 7.792969 2.605469 10.601563-.441406 2.800781-3.046875 2.605468-7.792968-.441407-10.597656-4.265625-3.921875-8.847656-7.703125-13.621093-11.242188-3.902344-2.894531-12.027344-12.265624-1.433594-24.65625l10.832031-9.964843c7.140625-6.566407 17.550781-7.84375 25.910156-3.171875 24.855469 13.894531 54.183594 42.785156 56.179688 101.871094-18.726563-4.304688-34.351563-.972657-41.636719.890624-3.484375-10.082031-8.375-19.804687-14.644531-28.972656-2.335938-3.417968-7.003907-4.292968-10.421875-1.957031-3.421875 2.339844-4.296875 7.003906-1.960938 10.425781 5.511719 8.058594 9.804688 16.578125 12.851563 25.394532-32.46875 14.269531-55.203125 46.730468-55.203125 84.410156 0 6.960937.804687 15.292968 2.324218 24.378906-17.652343 5.570312-31.945312 19.332031-37.871093 37.675781-1.988281 6.15625-8.105469 10.457031-14.871094 10.457031-.046875 0-.089844 0-.136719 0-.433594.007813-10.796875.25-21.164062 5.527344-10.035156 5.109375-21.996094 15.808594-21.996094 37.769532v36.878906c0 45.460937 36.984375 82.449218 82.445312 82.449218h347.109376c45.460937 0 82.445312-36.988281 82.445312-82.449218v-36.878906c0-13.304688-4.027344-23.929688-11.96875-31.574219zm-144.550781-338.574219c9.964843-5.570312 22.375-4.054688 30.878906 3.769531l12.386719 11.398438c4.234375 3.894531 6.488281 9.421875 6.1875 15.164062-.3125 5.828125-3.195313 11.179688-7.914063 14.679688-19.699219 14.605469-44.933593 39.101562-56.921875 74.546875-8.347656-2.15625-17.09375-3.308594-26.109375-3.308594-8.019531 0-15.832031.914062-23.339843 2.636719.480468-16.015625 2.941406-36.042969 10.414062-55.636719 10.558594-27.6875 28.871094-48.972656 54.417969-63.25zm-125.171875 45.011719c-4.71875-3.5-16.371094-15.429688-1.726563-29.84375l12.386719-11.398438c8.507812-7.824219 20.917969-9.339843 30.878906-3.769531 12.484375 6.976562 23.308594 15.691406 32.285156 25.960938-16.355468 22.886718-23.773437 48.664062-26.78125 71.355468-13.132812-23.644531-31.675781-40.910156-47.042968-52.304687zm-121.59375 209.332031c0-42.542969 34.609375-77.15625 77.152344-77.15625 10.554687 0 21.015624 2.175781 30.628906 6.328125-4.390625 11.511719-6.800782 23.992187-6.800782 37.03125 0 15.066406 3.226563 35.082031 8.976563 56.34375-18.171875-4.8125-38.507813 4.472656-49.246094 14.199219-4.804687 4.355468-11.78125 4.355468-16.582031 0-10.742188-9.726563-26.480469-16.308594-42.039062-15.007813-1.367188-8.195312-2.089844-15.625-2.089844-21.738281zm388.285156 152.683594c0 37.191406-30.257812 67.445312-67.445312 67.445312h-347.109376c-37.1875 0-67.445312-30.253906-67.445312-67.445312v-36.878906c0-26.640626 25.324219-28.207032 28.390625-28.296876 13.363281-.039062 25.03125-8.40625 29.050781-20.84375 5.796875-17.945312 22.378906-30.003906 41.257813-30.003906 10.769531 0 21.09375 3.980469 29.070312 11.203125 10.46875 9.484375 26.257813 9.484375 36.722657 0 7.980468-7.222656 18.304687-11.203125 29.074218-11.203125 10.769532 0 21.09375 3.980469 29.070313 11.203125 10.46875 9.484375 26.257812 9.484375 36.726562 0 7.976563-7.222656 18.300781-11.203125 29.070313-11.203125 10.769531 0 21.097656 3.980469 29.074218 11.203125 10.464844 9.484375 26.253907 9.484375 36.722657 0 7.976562-7.222656 18.300781-11.203125 29.070312-11.203125 18.878907 0 35.460938 12.058594 41.257813 30.003906 4.03125 12.46875 15.742187 20.84375 29.144531 20.84375.070313 0 .179687 0 .246094-.003906.128906-.007812 12.679687-.253906 20.757812 7.605469 4.839844 4.707031 7.292969 11.671875 7.292969 20.695313zm0 0"/></svg>