<svg height="512pt" viewBox="-91 0 512 512.001" width="512pt" xmlns="http://www.w3.org/2000/svg"><path d="m151.730469 242.871094h-57.113281v-177.820313c0-15.773437 12.785156-28.558593 28.554687-28.558593 15.773437 0 28.558594 12.785156 28.558594 28.558593zm0 0" fill="#889cb0"/><path d="m163.46875 256.554688 4.140625 105.636718-146.929687-108.261718c-13.21875-11.058594-17.214844-26.125-8.742188-39.429688 8.472656-13.300781 20.09375-16.785156 39.429688-8.738281zm0 0" fill="#6a829a"/><path d="m208.84375 213.878906h-57.113281v-177.820312c0-15.773438 12.785156-28.558594 28.558593-28.558594 15.769532 0 28.554688 12.785156 28.554688 28.558594zm0 0" fill="#6a829a"/><path d="m265.957031 242.871094h-57.113281v-177.820313c0-15.773437 12.785156-28.558593 28.558594-28.558593 15.769531 0 28.554687 12.785156 28.554687 28.558593zm0 0" fill="#889cb0"/><path d="m323.074219 270.417969h-57.113281v-177.820313c0-15.773437 12.785156-28.558594 28.554687-28.558594 15.773437 0 28.558594 12.785157 28.558594 28.558594zm0 0" fill="#6a829a"/><path d="m123.171875 324.957031h167.101563v136.1875h-167.101563zm0 0" fill="#eedb00"/><path d="m123.171875 324.957031v136.1875h64.316406c.003907-7.367187.007813-14.464843.003907-21.019531-.003907-19.109375 13.171874-35.785156 31.820312-39.964844 45.476562-10.1875 59.394531-42.570312 59.394531-42.570312v-32.632813zm0 0" fill="#dfca00"/><path d="m208.84375 381.453125c-63.085938 0-114.226562-51.140625-114.226562-114.226563v-72.554687h228.457031v72.554687c0 63.085938-51.144531 114.226563-114.230469 114.226563zm0 0" fill="#f9ee80"/><path d="m279.367188 504.5h-145.292969c-20.871094 0-37.792969-16.921875-37.792969-37.792969 0-20.875 16.921875-37.796875 37.792969-37.796875h145.292969c20.875 0 37.796874 16.921875 37.796874 37.796875 0 20.871094-16.921874 37.792969-37.796874 37.792969zm0 0" fill="#6a829a"/><path d="m159.128906 466.707031c0-20.875 16.917969-37.796875 37.792969-37.796875h-62.847656c-20.871094 0-37.792969 16.921875-37.792969 37.796875 0 20.871094 16.921875 37.792969 37.792969 37.792969h62.847656c-20.875 0-37.792969-16.921875-37.792969-37.792969zm0 0" fill="#516980"/><path d="m259.929688 242.039062h-77.859376c-16.757812 0-30.339843 13.582032-30.339843 30.339844v93.792969c16.800781 9.722656 36.308593 15.28125 57.113281 15.28125 31.878906 0 60.707031-13.054687 81.425781-34.117187v-74.957032c.003907-16.757812-13.582031-30.339844-30.339843-30.339844zm0 0" fill="#516980"/><path d="m123.171875 36.492188c-15.769531 0-28.554687 12.785156-28.554687 28.558593v35.980469h57.113281v-35.980469c0-15.773437-12.785157-28.558593-28.558594-28.558593zm0 0" fill="#eedb00"/><path d="m180.289062 7.5c-15.773437 0-28.558593 12.785156-28.558593 28.558594v35.980468h57.113281v-35.980468c0-15.773438-12.785156-28.558594-28.554688-28.558594zm0 0" fill="#f9ee80"/><path d="m237.402344 36.492188c-15.773438 0-28.558594 12.785156-28.558594 28.558593v35.980469h57.113281v-35.980469c0-15.773437-12.785156-28.558593-28.554687-28.558593zm0 0" fill="#eedb00"/><path d="m294.515625 64.039062c-15.773437 0-28.558594 12.785157-28.558594 28.558594v35.980469h57.117188v-35.980469c0-15.773437-12.785157-28.558594-28.558594-28.558594zm0 0" fill="#f9ee80"/><path d="m51.367188 205.761719c-19.335938-8.046875-30.957032-4.5625-39.429688 8.738281-8.472656 13.304688-4.476562 28.371094 8.742188 39.429688l28.324218 20.871093c1.679688-27.578125 7.734375-50.335937 12.46875-64.460937zm0 0" fill="#eedb00"/><path d="m294.515625 56.539062c-7.875 0-15.160156 2.546876-21.097656 6.847657-.875-19.113281-16.691407-34.394531-36.015625-34.394531-7.859375 0-15.132813 2.535156-21.0625 6.820312-.132813-19.769531-16.253906-35.8125-36.050782-35.8125-19.800781 0-35.917968 16.042969-36.050781 35.8125-5.933593-4.285156-13.207031-6.820312-21.066406-6.820312-19.878906 0-36.054687 16.175781-36.054687 36.058593v148.675781l-32.65625-14.796874c-.070313-.03125-.140626-.0625-.210938-.09375-21.925781-9.125-37.835938-5.320313-48.636719 11.636718-10.257812 16.101563-6.234375 35.417969 10.253907 49.210938.117187.097656.238281.195312.363281.285156l83.773437 61.726562c4.296875 8.546876 9.566406 16.519532 15.667969 23.777344v79.863282c-15.824219 7.066406-26.890625 22.945312-26.890625 41.371093 0 24.976563 20.320312 45.292969 45.296875 45.292969h145.292969c24.972656 0 45.292968-20.316406 45.292968-45.292969 0-18.425781-11.066406-34.304687-26.890624-41.371093v-75.078126c19.65625-21.039062 31.960937-49.03125 32.757812-79.839843h.042969v-177.820313c0-19.882812-16.175781-36.058594-36.058594-36.058594zm-135.285156 305.15625v-89.316406c0-12.59375 10.246093-22.839844 22.839843-22.839844h77.859376c12.597656 0 22.84375 10.246094 22.84375 22.839844v71.75c-19.195313 18.460938-45.261719 29.824219-73.929688 29.824219-17.898438 0-34.78125-4.433594-49.613281-12.257813zm100.699219-127.15625h-77.859376c-20.867187 0-37.839843 16.976563-37.839843 37.839844v79.734375c-25.578125-19.515625-42.113281-50.304687-42.113281-84.886719v-65.054687h213.457031v65.054687c0 21.777344-6.5625 42.042969-17.800781 58.945313v-53.792969c0-20.863281-16.976563-37.839844-37.84375-37.839844zm-108.199219-92.050781c4.140625 0 7.5-3.355469 7.5-7.5v-55.449219h42.113281v107.632813h-42.113281v-19.941406c0-4.140625-3.359375-7.5-7.5-7.5-4.144531 0-7.5 3.359375-7.5 7.5v19.941406h-42.113281v-78.640625h42.113281v26.457031c0 4.144531 3.355469 7.5 7.5 7.5zm106.726562 44.683594h-42.113281v-78.640625h42.113281zm15 0v-51.09375h42.117188v51.09375zm21.058594-115.632813c11.613281 0 21.058594 9.449219 21.058594 21.058594v28.480469h-42.113281v-28.480469c-.003907-11.609375 9.445312-21.058594 21.054687-21.058594zm-57.113281-27.546874c11.609375 0 21.058594 9.445312 21.058594 21.058593v28.480469h-42.117188v-28.480469c0-11.613281 9.445312-21.058593 21.058594-21.058593zm-57.113282-28.992188c11.609376 0 21.054688 9.445312 21.054688 21.058594v28.480468h-42.113281v-28.480468c0-11.613282 9.445312-21.058594 21.058593-21.058594zm-57.117187 28.992188c11.613281 0 21.058594 9.445312 21.058594 21.058593v28.480469h-42.113281v-28.480469c0-11.613281 9.445312-21.058593 21.054687-21.058593zm-104.910156 174.539062c9.371093-17.058594 34.039062-4.113281 34.039062-4.113281-3.609375 11.871093-7.460937 27.785156-9.589843 46.429687l-17.390626-12.8125c-10.523437-8.902344-12.53125-19.539062-7.058593-29.503906zm38.519531 52.683594c1.582031-20.324219 5.523438-37.726563 9.308594-50.550782l21.027344 9.53125v37.03125c0 9.957032 1.207031 19.632813 3.472656 28.902344zm208.296875 150.195312c-4.140625 0-7.5 3.359375-7.5 7.5 0 4.144532 3.359375 7.5 7.5 7.5h14.289063c16.707031 0 30.296874 13.59375 30.296874 30.296875s-13.589843 30.292969-30.296874 30.292969h-145.292969c-16.703125 0-30.292969-13.589844-30.292969-30.292969s13.589844-30.296875 30.292969-30.296875h100.054687c4.140625 0 7.5-3.355468 7.5-7.5 0-4.140625-3.359375-7.5-7.5-7.5 0 0-102.332031.058594-103.457031.144532v-61.097657c21.164063 17.773438 48.4375 28.496094 78.171875 28.496094 27.785156 0 53.417969-9.363281 73.929688-25.089844v57.691407c-1.125-.085938-17.695313-.144532-17.695313-.144532zm0 0"/></svg>