<svg height="512pt" viewBox="-72 0 512 512" width="512pt" xmlns="http://www.w3.org/2000/svg"><path d="m79.503906 400.988281c10.054688-12.707031 26.050782-26.320312 47.996094-25.214843 40.5 2.039062 65.046875 31.035156 48.039062 53.984374-17.6875 23.875-40.863281 9.984376-52.480468-6.539062-7.875-11.203125-22.128906-15.757812-35.1875-11.625-9.265625 2.929688-12.65625-5.183594-8.367188-10.605469zm0 0" fill="#29ce69"/><path d="m127.296875 428.539062c12.417969 13.8125 32.5 22.46875 48.242187 1.222657 15.3125-20.660157-3.058593-46.226563-36.429687-52.605469-5.105469 9.84375-10.945313 26.398438-11.8125 51.382812zm0 0" fill="#00a62c"/><path d="m184.34375 504.5c-12.261719 0-22.203125-9.941406-22.203125-22.203125v-177.871094h44.40625v177.871094c.003906 12.261719-9.941406 22.203125-22.203125 22.203125zm0 0" fill="#73da8c"/><g fill="#eedb00"><path d="m258.464844 97.492188c-7.339844 16.859374-26.957032 24.578124-43.816406 17.238281-16.859376-7.339844-24.578126-26.957031-17.238282-43.816407 7.339844-16.855468 40.660156-56.054687 57.519532-48.714843 16.859374 7.335937 10.875 58.433593 3.535156 75.292969zm0 0"/><path d="m171.277344 297.773438c7.339844-16.859376-.378906-36.472657-17.238282-43.8125-16.859374-7.339844-36.476562.378906-43.816406 17.238281-7.335937 16.859375-13.324218 67.953125 3.535156 75.292969 16.859376 7.339843 50.179688-31.859376 57.519532-48.71875zm0 0"/><path d="m298.167969 175.34375c-17.109375 6.730469-36.4375-1.683594-43.171875-18.792969-6.730469-17.113281 1.683594-36.441406 18.792968-43.171875 17.113282-6.734375 68.390626-10.886718 75.121094 6.222656 6.734375 17.113282-33.632812 49.007813-50.742187 55.742188zm0 0"/><path d="m94.898438 255.3125c17.109374-6.734375 25.523437-26.058594 18.792968-43.171875-6.734375-17.109375-26.0625-25.523437-43.171875-18.792969-17.113281 6.730469-57.476562 38.628906-50.742187 55.742188 6.730468 17.109375 58.007812 12.953125 75.121094 6.222656zm0 0"/><path d="m271.195312 258.464844c-16.859374-7.339844-24.578124-26.957032-17.238281-43.816406 7.339844-16.859376 26.957031-24.574219 43.816407-17.238282 16.859374 7.339844 56.054687 40.660156 48.714843 57.519532-7.335937 16.859374-58.433593 10.875-75.292969 3.535156zm0 0"/><path d="m70.914062 171.277344c16.859376 7.339844 36.476563-.378906 43.816407-17.238282 7.335937-16.859374-.378907-36.476562-17.238281-43.816406-16.859376-7.335937-67.957032-13.324218-75.296876 3.535156-7.339843 16.859376 31.859376 50.179688 48.71875 57.519532zm0 0"/><path d="m193.347656 298.167969c-6.734375-17.109375 1.679688-36.4375 18.792969-43.171875 17.109375-6.730469 36.4375 1.683594 43.171875 18.792968 6.730469 17.113282 10.886719 68.390626-6.226562 75.121094-17.109376 6.734375-49.007813-33.628906-55.738282-50.742187zm0 0"/><path d="m113.378906 94.898438c6.730469 17.109374 26.058594 25.523437 43.167969 18.792968 17.113281-6.730468 25.527344-26.058594 18.792969-43.171875-6.730469-17.109375-38.628906-57.472656-55.738282-50.742187-17.113281 6.730468-12.957031 58.007812-6.222656 75.121094zm0 0"/></g><path d="m217.636719 75.125c0 18.390625-14.90625 33.296875-33.292969 33.296875-18.390625 0-33.292969-14.90625-33.292969-33.296875 0-18.386719 14.90625-67.625 33.292969-67.625s33.292969 49.238281 33.292969 67.625zm0 0" fill="#f9ee80"/><path d="m217.636719 293.5625c0-18.386719-14.90625-33.292969-33.292969-33.292969-18.390625 0-33.292969 14.90625-33.292969 33.292969s14.902344 67.628906 33.292969 67.628906c18.386719 0 33.292969-49.242187 33.292969-67.628906zm0 0" fill="#f9ee80"/><path d="m285.113281 130.65625c-13 13.003906-34.082031 13.003906-47.082031 0-13.003906-13-13.003906-34.082031 0-47.082031 13-13.003907 58.359375-37.277344 71.359375-24.277344 13.003906 13.003906-11.273437 58.359375-24.277344 71.359375zm0 0" fill="#f9ee80"/><path d="m130.65625 285.117188c13.003906-13.003907 13.003906-34.082032 0-47.085938-13-13-34.082031-13-47.082031 0-13.003907 13.003906-37.28125 58.359375-24.277344 71.363281 13 13 58.359375-11.277343 71.359375-24.277343zm0 0" fill="#f9ee80"/><path d="m293.5625 217.636719c-18.386719 0-33.292969-14.90625-33.292969-33.292969s14.90625-33.292969 33.292969-33.292969 67.625 14.90625 67.625 33.292969-49.238281 33.292969-67.625 33.292969zm0 0" fill="#f9ee80"/><path d="m75.125 217.636719c18.390625 0 33.296875-14.90625 33.296875-33.292969s-14.90625-33.292969-33.296875-33.292969c-18.386719 0-67.625 14.90625-67.625 33.292969s49.238281 33.292969 67.625 33.292969zm0 0" fill="#f9ee80"/><path d="m238.03125 285.117188c-13.003906-13.003907-13.003906-34.082032 0-47.085938 13-13 34.082031-13 47.082031 0 13.003907 13.003906 37.28125 58.359375 24.277344 71.363281-13 13-58.359375-11.277343-71.359375-24.277343zm0 0" fill="#f9ee80"/><path d="m83.574219 130.65625c13 13.003906 34.082031 13.003906 47.082031 0 13.003906-13 13.003906-34.082031 0-47.082031-13-13.003907-58.359375-37.277344-71.359375-24.277344-13.003906 13.003906 11.273437 58.359375 24.277344 71.359375zm0 0" fill="#f9ee80"/><path d="m294.324219 184.34375c0 60.742188-49.238281 109.984375-109.980469 109.984375s-109.980469-49.242187-109.980469-109.984375c0-60.738281 49.238281-109.980469 109.980469-109.980469s109.980469 49.242188 109.980469 109.980469zm0 0" fill="#e7896e"/><path d="m289.183594 400.988281c-10.054688-12.707031-26.050782-26.320312-47.996094-25.214843-40.5 2.039062-65.046875 31.035156-48.039062 53.984374 17.6875 23.875 40.863281 9.984376 52.480468-6.539062 7.875-11.203125 22.128906-15.757812 35.1875-11.625 9.265625 2.929688 12.65625-5.183594 8.367188-10.605469zm0 0" fill="#b9ecc2"/><path d="m130.03125 202.199219c0-9.078125-9.242188-16.4375-20.640625-16.4375s-20.640625 7.359375-20.640625 16.4375 9.242188 16.4375 20.640625 16.4375 20.640625-7.359375 20.640625-16.4375zm0 0" fill="#ffb3dd"/><path d="m282.945312 202.199219c0-9.078125-9.242187-16.4375-20.640624-16.4375-11.398438 0-20.640626 7.359375-20.640626 16.4375s9.242188 16.4375 20.640626 16.4375c11.398437 0 20.640624-7.359375 20.640624-16.4375zm0 0" fill="#ffb3dd"/><path d="m156.921875 139.808594-7.0625-7.066406c-5.542969-5.539063-5.542969-14.523438 0-20.066407l7.0625-7.0625c5.542969-5.542969 14.527344-5.542969 20.066406 0l7.066407 7.0625c5.539062 5.542969 5.539062 14.527344 0 20.066407l-7.066407 7.066406c-5.539062 5.539062-14.523437 5.539062-20.066406 0zm0 0" fill="#dd6642"/><path d="m195.398438 264.773438-7.066407-7.0625c-5.539062-5.542969-5.539062-14.527344 0-20.066407l7.066407-7.066406c5.539062-5.539063 14.523437-5.539063 20.066406 0l7.0625 7.066406c5.539062 5.539063 5.539062 14.523438 0 20.066407l-7.0625 7.0625c-5.542969 5.539062-14.527344 5.539062-20.066406 0zm0 0" fill="#dd6642"/><path d="m201.355469 185.058594c-1.269531-.835938-6.882813-2.996094-10.386719 2.148437-1.679688 2.46875-4.128906 2.765625-5.121094 2.765625-.996094 0-3.484375-.269531-5.125-2.765625-2.273437-3.460937-6.921875-4.425781-10.382812-2.148437-3.464844 2.273437-4.425782 6.921875-2.152344 10.382812 3.917969 5.96875 10.519531 9.53125 17.660156 9.53125 7.136719 0 13.738282-3.5625 17.660156-9.53125 2.273438-3.460937 1.308594-8.113281-2.152343-10.382812zm0 0"/><path d="m124.039062 174.730469c-4.90625 0-9.519531 1.914062-12.992187 5.382812-2.929687 2.929688-2.929687 7.675781 0 10.605469s7.679687 2.929688 10.605469 0c.863281-.859375 1.867187-.988281 2.386718-.988281.523438 0 1.457032.207031 2.390626.988281 4.734374 3.964844 9.140624 1.464844 10.605468 0 2.929688-2.929688 2.929688-7.675781 0-10.605469-3.46875-3.46875-8.085937-5.382812-12.996094-5.382812zm0 0"/><path d="m260.648438 180.113281c-3.472657-3.46875-8.085938-5.382812-12.996094-5.382812-4.90625 0-9.519532 1.914062-12.992188 5.382812-2.929687 2.929688-2.929687 7.679688 0 10.609375 2.929688 2.925782 7.679688 2.925782 10.605469 0 .863281-.863281 1.867187-.992187 2.386719-.992187.523437 0 1.457031.210937 2.386718.992187 4.738282 3.960938 9.144532 1.460938 10.609376 0 2.929687-2.929687 2.929687-7.679687 0-10.609375zm0 0"/><path d="m368.6875 184.34375c0-10.960938-10.058594-21.109375-29.121094-29.4375 10.730469-10.773438 21.292969-25.417969 16.324219-38.050781-3.003906-7.636719-10.875-12.742188-23.398437-15.175781-6.441407-1.253907-13.261719-1.660157-19.496094-1.652344.316406-.722656 15.601562-32.507813 1.699218-46.035156-7.855468-7.644532-22.046874-7.796876-41.410156-.210938-.03125-15.160156-2.902344-33.039062-15.359375-38.460938-13.8125-6.015624-30.816406 7.03125-42.222656 18.445313-.292969-.738281-12.660156-33.765625-31.359375-33.765625-8.617188 0-16.59375 6.007812-23.703125 17.859375-1.996094 3.324219-3.921875 7.128906-5.730469 11.265625-10.785156-10.738281-25.425781-21.296875-38.054687-16.328125-13.953125 5.488281-16.871094 26.246094-16.832031 42.890625-.722657-.316406-33.761719-14.96875-46.03125-1.695312-7.4375 8.050781-7.796876 22.046874-.210938 41.40625-15.289062.027343-33.046875 2.929687-38.460938 15.367187-6.011718 13.8125 7.03125 30.8125 18.445313 42.222656-.738281.289063-33.765625 11.335938-33.765625 31.355469 0 10.964844 10.058594 21.113281 29.121094 29.4375-10.726563 10.777344-21.386719 25.460938-16.324219 38.054688 7.585937 18.859374 42.78125 16.828124 42.890625 16.828124-.316406.722657-14.984375 30.625-1.695312 46.03125 8.691406 10.074219 31.808593 3.96875 41.378906.222657-.0625 25.875 8.027344 35.347656 15.394531 38.449219 18.570313 7.824218 43.875-18.0625 43.875-18.0625v38.507812c-8.160156-3.15625-17.242187-5.046875-26.765625-5.527344-20.160156-1.003906-38.929688 8.683594-54.253906 28.054688-4.207032 5.316406-4.632813 12.371094-1.054688 17.550781 2.847656 4.132813 8.960938 7.574219 17.566406 4.855469 10.085938-3.191406 20.851563.339844 26.789063 8.789062 8.605469 12.242188 17.015625 23.191406 37.714844 22.472656v32.289063c.003906 16.378906 13.328125 29.703125 29.707031 29.703125s29.707031-13.324219 29.707031-29.703125v-32.308594c.367188.011719 7 .707031 13.265625-2.316406 3.730469-1.804687 5.792969-5.828125 4.304688-9.695313-1.484375-3.863281-5.820313-5.796874-9.691406-4.304687-8.664063 3.332031-16.109376.589844-22.753907-8.375-4.457031-6.015625-5.179687-12.652344-2.089843-19.191406 6.886718-14.578125 27.304687-21.976563 44.480468-22.839844 14.820313-.75 28.460938 6.273437 40.523438 20.878906-14.882813-4.292969-30.710938.402344-40.570313 12.128907-2.667969 3.171874-2.257812 7.902343.914063 10.570312 3.167968 2.664062 7.898437 2.253906 10.566406-.914062 6.160156-7.328126 16.191406-10.148438 25.554688-7.1875 8.605468 2.726562 14.714843-.722657 17.566406-4.851563 3.574218-5.183594 3.152344-12.238281-1.054688-17.554687-15.324218-19.367188-34.082031-29.0625-54.253906-28.054688-9.605469.484375-18.6875 2.429688-26.765625 5.554688v-34.003907c8.851563 8.761719 24.363281 22.105469 37.785156 16.058594 18.859375-8.496094 16.835938-36.667969 16.828125-42.894531.722656.316406 30.628906 15.769531 46.035156 1.699218 8.089844-7.390624 7.796876-22.046874.210938-41.40625 15.207031-.03125 33.039062-2.917968 38.460938-15.367187 6.011718-13.8125-7.03125-30.8125-18.445313-42.222656.742187-.289063 33.765625-13.5 33.765625-31.355469zm-15 0c0 3.574219-6.972656 10.296875-22.277344 16.609375-11.558594 4.769531-23.976562 7.773437-32.359375 8.792969 1.8125-8.183594 2.773438-16.679688 2.773438-25.402344 0-8.71875-.960938-17.214844-2.773438-25.398438 8.382813 1.015626 20.800781 4.023438 32.359375 8.789063 15.308594 6.316406 22.277344 13.035156 22.277344 16.609375zm-11.753906-61.996094c1.558594 3.96875-4.308594 14.480469-18.089844 26.789063-10.746094-3.292969-21.585938-5.402344-29.316406-5.5625-1.046875-2.820313-2.203125-5.585938-3.453125-8.300781 4.5-4.691407 9.585937-11.914063 14.230469-20.007813 22.765624-1.351563 35.097656 3.199219 36.628906 7.082031zm-157.589844 164.476563c-56.507812 0-102.480469-45.972657-102.480469-102.480469s45.972657-102.480469 102.480469-102.480469 102.480469 45.972657 102.480469 102.480469-45.972657 102.480469-102.480469 102.480469zm0 66.863281c-12.351562 0-24.382812-46.253906-25.402344-54.636719 8.183594 1.8125 16.683594 2.773438 25.402344 2.773438s17.21875-.960938 25.402344-2.773438c-1.019532 8.382813-13.050782 54.636719-25.402344 54.636719zm119.746094-289.085938c2.523437 2.527344 2.351562 12.207032-4.011719 27.496094-4.808594 11.5625-11.476563 22.488282-16.6875 29.132813-9.222656-14.425781-21.507813-26.707031-35.929687-35.933594 6.644531-5.210937 17.570312-11.878906 29.132812-16.6875 15.285156-6.359375 24.96875-6.539063 27.496094-4.007813zm-52.152344-35.527343c3.898438 1.699219 7.199219 13.285156 6.15625 31.734375-9.9375 5.269531-19.101562 11.453125-24.679688 16.804687-2.714843-1.25-5.480468-2.402343-8.300781-3.449219-.136719-6.503906-1.644531-15.199218-4.085937-24.199218 15.132812-17.054688 27.058594-22.566406 30.910156-20.890625zm-129.589844-2.316407c3.96875-1.566406 14.476563 4.304688 26.785156 18.085938-.453124 1.484375-5.039062 10.734375 3.941407 13.722656 3.933593 1.308594 8.121093-1.253906 9.214843-5.246094 7.175782-26.140624 17.402344-38.320312 22.054688-38.320312 3.574219 0 10.296875 6.972656 16.609375 22.277344 4.765625 11.558594 7.773437 23.976562 8.792969 32.359375-8.183594-1.8125-16.683594-2.773438-25.402344-2.773438-17.507812 0-34.128906 3.855469-49.070312 10.753907-4.691407-4.503907-11.917969-9.589844-20.007813-14.230469-1.417969-24.054688 3.539063-35.238281 7.082031-36.628907zm-57.75 37.84375c2.53125-2.527343 12.210938-2.351562 27.5 4.007813 11.558594 4.808594 22.484375 11.480469 29.128906 16.6875-14.421874 9.222656-26.707031 21.507813-35.929687 35.929687-5.210937-6.640624-11.878906-17.570312-16.6875-29.128906-6.363281-15.289062-6.539063-24.96875-4.011719-27.496094zm-35.523437 52.152344c1.707031-3.929687 13.285156-7.203125 31.734375-6.15625 5.269531 9.933594 11.453125 19.097656 16.804687 24.675782-1.25 2.714843-2.402343 5.480468-3.453125 8.300781-6.5.136719-15.199218 1.648437-24.195312 4.085937-17.058594-15.132812-22.566406-27.0625-20.890625-30.90625zm-14.074219 67.589844c0-3.574219 6.96875-10.292969 22.277344-16.609375 11.558594-4.765625 23.976562-7.773437 32.359375-8.789063-1.8125 8.183594-2.773438 16.679688-2.773438 25.398438 0 8.722656.960938 17.21875 2.773438 25.402344-8.382813-1.019532-20.800781-4.027344-32.359375-8.792969-15.308594-6.3125-22.277344-13.035156-22.277344-16.609375zm11.757812 62c-1.5625-3.96875 4.304688-14.484375 18.085938-26.792969 10.746094 3.292969 21.589844 5.402344 29.316406 5.566407 1.046875 2.816406 2.203125 5.582031 3.453125 8.296874-4.5 4.691407-9.585937 11.914063-14.230469 20.007813-24.050781 1.421875-35.234374-3.539063-36.625-7.078125zm37.839844 57.746094c-2.527344-2.527344-2.351562-12.210938 4.011719-27.496094 4.808594-11.5625 11.476563-22.488281 16.6875-29.132812 9.222656 14.421874 21.507813 26.707031 35.929687 35.929687-6.644531 5.210937-17.570312 11.882813-29.132812 16.691406-15.285156 6.359375-24.96875 6.535157-27.496094 4.007813zm52.152344 35.523437c-3.222656-1.402343-7.355469-11.015625-6.152344-31.730469 9.933594-5.273437 19.097656-11.457031 24.675782-16.808593 2.714843 1.25 5.480468 2.40625 8.296874 3.453125.140626 6.5 1.648438 15.199218 4.085938 24.195312-15.132812 17.058594-27.058594 22.5625-30.90625 20.890625zm12.445312 79.292969c-9.523437-13.546875-26.53125-19.398438-42.597656-14.761719 12.0625-14.605469 25.691406-21.628906 40.523438-20.878906 10.175781.511719 19.621094 2.929687 27.515625 6.972656v44.703125c-7.398438.382813-17.070313-4.128906-25.441407-16.035156zm54.328126-19.210938c-5.441407 11.515626-4.128907 24.101563 3.597656 34.527344 3.5625 4.808594 7.589844 8.542969 11.929687 11.175782v36.894531c0 8.109375-6.597656 14.707031-14.707031 14.707031s-14.703125-6.597656-14.703125-14.707031v-120.0625c4.65625 4.265625 9.589844 6.460937 14.703125 6.460937s10.046875-2.195312 14.707031-6.460937v19.597656c-6.898437 4.925781-12.277343 10.988281-15.527343 17.867187zm62.816406-57.761718c-3.96875 1.566406-14.480469-4.308594-26.789063-18.089844 3.292969-10.746094 5.402344-21.585938 5.5625-29.316406 2.820313-1.046875 5.585938-2.199219 8.296875-3.453125 4.695313 4.503906 11.917969 9.589843 20.011719 14.230469 1.355469 22.769531-3.195313 35.097656-7.082031 36.628906zm57.75-37.84375c-2.527344 2.527344-12.210938 2.351562-27.496094-4.007813-11.566406-4.8125-22.488281-11.480469-29.132812-16.691406 14.421874-9.222656 26.707031-21.507813 35.929687-35.929687 5.210937 6.644531 11.878906 17.570312 16.6875 29.132812 6.359375 15.285156 6.535156 24.96875 4.011719 27.496094zm35.523437-52.152344c-1.703125 3.910156-13.285156 7.195312-31.734375 6.15625-5.273437-9.9375-11.453125-19.101562-16.804687-24.679688 1.25-2.710937 2.40625-5.480468 3.449219-8.296874 6.503906-.136719 15.199218-1.648438 24.199218-4.085938 17.058594 15.132812 22.566406 27.058594 20.890625 30.90625zm0 0"/></svg>