<svg height="512pt" viewBox="-144 0 511 512" width="512pt" xmlns="http://www.w3.org/2000/svg"><path d="m112.046875 504.5c-15.96875 0-28.914063-12.945312-28.914063-28.914062v-193.277344h57.832032v193.277344c0 15.96875-12.949219 28.914062-28.917969 28.914062zm0 0" fill="#fab658"/><path d="m83.132812 410.484375c21.417969-2.4375 40.917969-8.804687 57.832032-16.640625v-111.535156h-57.832032zm0 0" fill="#ed8d00"/><path d="m156.90625 73.9375c0-36.691406-20.085938-66.4375-44.859375-66.4375s-44.855469 29.746094-44.855469 66.4375 20.082032 66.433594 44.855469 66.433594 44.859375-29.742188 44.859375-66.433594zm0 0" fill="#ffeab7"/><path d="m33.113281 319.320312c25.941407 25.941407 61.175781 32.773438 78.691407 15.257813 17.519531-17.515625 10.6875-52.75-15.257813-78.695313-25.945313-25.945312-61.175781-32.777343-78.695313-15.257812-17.515624 17.515625-10.683593 52.75 15.261719 78.695312zm0 0" fill="#f1b70b"/><path d="m190.988281 319.3125c25.945313-25.941406 32.777344-61.175781 15.257813-78.691406-17.515625-17.519532-52.75-10.6875-78.695313 15.257812-25.941406 25.945313-32.773437 61.175782-15.257812 78.695313 17.515625 17.515625 52.75 10.683593 78.695312-15.261719zm0 0" fill="#f6ca56"/><path d="m33.113281 268.332031c25.941407 25.941407 61.175781 32.773438 78.691407 15.257813 17.519531-17.519532 10.6875-52.75-15.257813-78.695313-25.945313-25.945312-61.175781-32.777343-78.695313-15.257812-17.515624 17.515625-10.683593 52.75 15.261719 78.695312zm0 0" fill="#f6ca56"/><path d="m190.988281 268.324219c25.945313-25.941407 32.777344-61.175781 15.257813-78.691407-17.515625-17.519531-52.75-10.6875-78.695313 15.257813-25.941406 25.945313-32.773437 61.175781-15.257812 78.695313 17.515625 17.515624 52.75 10.683593 78.695312-15.261719zm0 0" fill="#fad989"/><path d="m33.109375 217.339844c25.945313 25.945312 61.179687 32.777344 78.695313 15.261718 17.519531-17.519531 10.6875-52.75-15.257813-78.695312s-61.179687-32.777344-78.695313-15.261719c-17.515624 17.519531-10.683593 52.75 15.257813 78.695313zm0 0" fill="#f1b70b"/><path d="m190.988281 217.339844c25.945313-25.945313 32.773438-61.179688 15.257813-78.695313-17.515625-17.519531-52.75-10.6875-78.695313 15.257813-25.945312 25.945312-32.777343 61.175781-15.257812 78.695312 17.515625 17.515625 52.75 10.683594 78.695312-15.257812zm0 0" fill="#f6ca56"/><path d="m33.109375 166.351562c25.945313 25.945313 61.179687 32.777344 78.695313 15.261719 17.519531-17.519531 10.6875-52.75-15.257813-78.695312-25.945313-25.945313-61.179687-32.777344-78.695313-15.261719-17.515624 17.519531-10.683593 52.75 15.257813 78.695312zm0 0" fill="#f6ca56"/><path d="m190.988281 166.347656c25.945313-25.941406 32.773438-61.175781 15.257813-78.691406-17.515625-17.519531-52.75-10.6875-78.695313 15.257812-25.945312 25.945313-32.777343 61.175782-15.257812 78.695313 17.515625 17.515625 52.75 10.683594 78.695312-15.261719zm0 0" fill="#fad989"/><path d="m217.417969 140.90625c2.203125-5.160156 12.460937-40.335938-5.867188-58.550781-19.101562-18.988281-45.75-10.117188-47.167969-9.753907-.097656-7.984374-1.066406-15.804687-2.910156-23.269531-.992187-4.019531-5.058594-6.476562-9.078125-5.484375-4.023437.992188-6.949219 5.203125-5.484375 9.078125 4.738282 12.519531 2.460938 23.84375 2.394532 25.25-22.253907 10.390625-34.207032 27.160157-37.257813 31.285157-3.054687-4.140626-15.402344-20.894532-37.253906-31.285157 0-36.410156 17.007812-63.175781 37.253906-63.175781 8.660156 0 17.164063 4.960938 23.949219 13.972656 2.492187 3.308594 7.191406 3.972656 10.5 1.480469 3.3125-2.488281 3.972656-7.191406 1.480468-10.503906-9.683593-12.863281-22.445312-19.949219-35.929687-19.949219-14.550781 0-28.023437 8.082031-37.933594 22.761719-9.082031 13.457031-14.167969 31.109375-14.398437 49.839843-1.417969-.363281-28.203125-8.878906-47.167969 9.753907-21.539063 21.15625-8.074219 53.390625-5.867187 58.550781-11.277344 21.4375-2.207032 45.828125 0 50.992188-8.253907 13.859374-7.878907 32.601562-.011719 51-5.734375 9.605468-7.472657 21.820312-4.851563 35.339843 3.160156 16.316407 12.355469 32.824219 25.984375 46.382813 21.894531 21.773437 47.347657 26.152344 47.832031 26.234375v124.730469c0 20.078124 16.332032 36.414062 36.414063 36.414062 20.078125 0 36.414063-16.335938 36.414063-36.414062v-124.730469c.480468-.082031 22.691406.695312 47.828124-26.234375 13.121094-14.054688 22.824219-30.066406 25.984376-46.382813 2.625-13.527343.882812-25.746093-4.859376-35.355469 2.203126-5.160156 10.980469-30.226562 0-50.988281 8.820313-23.03125 5.746094-41.378906.003907-50.988281zm-9.863281 32.5c-2.601563 13.410156-10.367188 27.128906-21.871094 38.632812-22.585938 22.585938-53.769532 29.578126-68.085938 15.257813-7.886718-7.882813-9.589844-21.125-4.996094-35.75 7.058594 4.804687 15.6875 7.292969 25.320313 7.292969 22.835937 0 44.777344-13.589844 58.371094-27.183594 4.332031-4.332031 8.214843-8.960938 11.605469-13.777344.839843 4.664063.746093 9.898438-.34375 15.527344zm-74.699219-65.1875c11.503906-11.5 49.125-33.191406 68.089843-15.257812 14.710938 13.914062 7.328126 45.5-15.261718 68.089843-22.589844 22.589844-53.769532 29.578125-68.085938 15.257813-6.65625-6.65625-9.003906-17.117188-6.609375-29.457032 2.601563-13.410156 10.367188-27.128906 21.867188-38.632812zm-109.703125-15.257812c20.675781-19.855469 60.15625 7.328124 68.089844 15.257812 4.710937 4.714844 8.792968 9.808594 12.191406 15.1875-3.390625 6.738281-5.832032 13.679688-7.171875 20.589844-2.625 13.527344-.878907 25.746094 4.863281 35.355468-14.035156 9.117188-42.847656 1.5625-62.714844-18.300781-22.585937-22.589843-29.859375-54.0625-15.257812-68.089843zm4.652344 78.695312c13.59375 13.59375 30.132812 22.515625 46.382812 25.988281 8.945312 1.910157 18.515625.890625 21.578125.304688-1.789063 12.136719.035156 23.398437 5.363281 32.382812-11.332031 9.796875-42.851562 1.570313-62.714844-18.296875-11.503906-11.5-19.269531-25.21875-21.871093-38.628906-1.089844-5.632812-1.183594-10.863281-.34375-15.527344 3.390625 4.816406 7.273437 9.445313 11.605469 13.777344zm10.605468 142.359375c-11.5-11.503906-19.269531-25.222656-21.867187-38.632813-1.089844-5.628906-1.1875-10.859374-.34375-15.523437 3.355469 4.769531 6.761719 9.917969 11.605469 13.773437 4.390624 3.5 9.144531 1.464844 10.605468 0 2.929688-2.929687 2.929688-7.675781 0-10.605468-16.894531-16.894532-25.1875-38.328125-22.25-54.214844 3.398438 4.839844 7.296875 9.484375 11.644532 13.832031 13.59375 13.597657 30 23.199219 46.382812 25.988281 10.5625 1.800782 18.511719.890626 21.578125.308594-1.789063 12.136719.035156 23.398438 5.363281 32.382813-5.867187 6.277343-25.433594 5.347656-40.417968-2.082031-3.710938-1.839844-8.210938-.324219-10.050782 3.386718-1.839844 3.710938-.324218 8.210938 3.386719 10.050782 11.019531 5.464843 28.390625 9.257812 41.714844 7.257812-1.828125 12.453125.136719 23.984375 5.792969 33.078125-15.71875 8.957031-42.882813 1.261719-63.144532-19zm73.636719 182.984375c-11.804687 0-21.414063-9.605469-21.414063-21.414062v-123.964844c8.089844-.671875 15.355469-3.207032 21.414063-7.488282 6.0625 4.285157 13.328125 6.816407 21.414063 7.488282v123.964844c0 11.808593-9.605469 21.414062-21.414063 21.414062zm95.507813-221.617188c-2.601563 13.410157-10.367188 27.128907-21.871094 38.632813-22.585938 22.585937-53.769532 29.578125-68.085938 15.257813-7.886718-7.882813-9.589844-21.125-4.996094-35.75 7.058594 4.804687 21.972657 9.253906 37.308594 6.097656 16.277344-3.351563 32.785156-12.394532 46.382813-25.988282 4.332031-4.332031 8.214843-8.957031 11.605469-13.777343.839843 4.664062.746093 9.898437-.34375 15.527343zm-21.871094-12.355468c-14.621094 14.625-32.84375 22.707031-47.761719 22.707031-8.128906 0-15.277344-2.398437-20.324219-7.449219-7.886718-7.882812-9.589844-21.125-4.996094-35.75 7.058594 4.804688 23.476563 8.699219 37.308594 6.097656 16.332032-3.074218 32.789063-12.394531 46.382813-25.988281 4.3125-4.3125 8.179687-8.917969 11.5625-13.714843 2.761719 15.828124-5.398438 37.328124-22.171875 54.097656zm0 0"/></svg>