<svg height="511pt" viewBox="0 -92 511.998 511" width="511pt" xmlns="http://www.w3.org/2000/svg"><path d="m244.425781 148.769531c0 50.09375-40.609375 90.699219-90.703125 90.699219-50.089844 0-90.699218-40.605469-90.699218-90.699219 0-50.089843 40.609374-140.769531 90.699218-140.769531 50.09375 0 90.703125 90.679688 90.703125 140.769531zm0 0" fill="#ffeab7"/><path d="m111.460938 76.277344c1.960937-28.859375 9.132812-55.125 9.132812-55.125-33.707031 26.96875-57.570312 89.21875-57.570312 127.617187 0 50.09375 40.609374 90.703125 90.699218 90.703125 50.09375 0 90.699219-40.609375 90.699219-90.703125 0-6.011719-.582031-12.609375-1.699219-19.5625-29.035156-9.132812-66.570312-11.542969-93.644531-11.914062-22-.300781-39.109375-19.0625-37.617187-41.015625zm0 0" fill="#fad989"/><path d="m448.976562 148.769531c0 50.09375-40.609374 90.699219-90.699218 90.699219-50.09375 0-90.699219-40.605469-90.699219-90.699219 0-50.089843 40.605469-140.769531 90.699219-140.769531 50.089844 0 90.699218 90.679688 90.699218 140.769531zm0 0" fill="#ffeab7"/><path d="m316.011719 76.277344c1.960937-28.859375 9.132812-55.125 9.136719-55.125-33.707032 26.964844-57.570313 89.21875-57.570313 127.617187 0 50.09375 40.605469 90.699219 90.699219 90.699219 50.089844 0 90.699218-40.605469 90.699218-90.699219 0-6.011719-.585937-12.609375-1.699218-19.5625-29.035156-9.132812-66.574219-11.542969-93.644532-11.914062-22.003906-.300781-39.113281-19.0625-37.621093-41.015625zm0 0" fill="#fad989"/><path d="m45.621094 166.449219s6.71875 76.761719 52.367187 139.898437c6.082031 8.414063 15.808594 13.429688 26.1875 13.429688h59.09375c10.382813 0 20.105469-5.015625 26.1875-13.429688 45.648438-63.136718 52.367188-139.898437 52.367188-139.898437zm0 0" fill="#e7896e"/><path d="m158.386719 257.480469c44.953125-4.738281 85.972656-18.4375 86.039062-18.457031 14.554688-40.085938 17.398438-72.574219 17.398438-72.574219h-216.203125s6.71875 76.761719 52.367187 139.898437c6.082031 8.414063 15.808594 13.429688 26.1875 13.429688h25.230469c-3.636719-8.96875-7.742188-19.148438-11.484375-28.578125-6.054687-15.246094 4.152344-32 20.464844-33.71875zm0 0" fill="#dd6642"/><path d="m250.175781 166.449219s6.71875 76.761719 52.367188 139.898437c6.082031 8.414063 15.804687 13.429688 26.1875 13.429688h59.09375c10.378906 0 20.105469-5.015625 26.1875-13.429688 45.648437-63.136718 52.367187-139.898437 52.367187-139.898437zm0 0" fill="#e7896e"/><path d="m362.9375 257.480469c44.953125-4.738281 85.976562-18.4375 86.042969-18.457031 14.554687-40.085938 17.398437-72.574219 17.398437-72.574219h-216.203125s6.71875 76.761719 52.367188 139.898437c6.082031 8.414063 15.808593 13.429688 26.1875 13.429688h25.230469c-3.640626-8.96875-7.742188-19.148438-11.488282-28.578125-6.054687-15.246094 4.152344-32 20.464844-33.71875zm0 0" fill="#dd6642"/><path d="m472.078125 216.964844h-432.15625c-17.90625 0-32.421875-14.515625-32.421875-32.421875s14.515625-32.421875 32.421875-32.421875h432.15625c17.90625 0 32.421875 14.515625 32.421875 32.421875s-14.515625 32.421875-32.421875 32.421875zm0 0" fill="#f2ad9a"/><path d="m121.726562 184.542969c0-17.90625 14.515626-32.421875 32.421876-32.421875h-114.226563c-17.90625 0-32.421875 14.515625-32.421875 32.421875s14.515625 32.421875 32.421875 32.421875h114.226563c-17.90625 0-32.421876-14.515625-32.421876-32.421875zm0 0" fill="#e7896e"/><path d="m370.226562 122.722656c0-7.867187-5.351562-14.246094-11.949218-14.246094-6.601563 0-11.949219 6.378907-11.949219 14.246094 0 7.863282 5.347656 14.242188 11.949219 14.242188 6.597656 0 11.949218-6.378906 11.949218-14.242188zm0 0" fill="#454545"/><path d="m201.132812 97.964844c-4.144531 0-7.5 3.359375-7.5 7.5v12.449218c0 4.144532 3.355469 7.5 7.5 7.5 4.140626 0 7.5-3.355468 7.5-7.5v-12.449218c0-4.140625-3.359374-7.5-7.5-7.5zm0 0"/><path d="m106.316406 97.964844c-4.140625 0-7.5 3.359375-7.5 7.5v12.449218c0 4.144532 3.359375 7.5 7.5 7.5 4.144532 0 7.5-3.355468 7.5-7.5v-12.449218c0-4.140625-3.355468-7.5-7.5-7.5zm0 0"/><path d="m169.234375 108.273438c-1.269531-.832032-6.882813-2.992188-10.386719 2.152343-1.683594 2.464844-4.128906 2.761719-5.125 2.761719-.992187 0-3.484375-.269531-5.121094-2.761719-2.277343-3.464843-6.925781-4.425781-10.386718-2.152343-3.460938 2.273437-4.425782 6.921874-2.152344 10.386718 3.921875 5.964844 10.523438 9.527344 17.660156 9.527344 7.140625 0 13.742188-3.5625 17.660156-9.527344 2.273438-3.464844 1.3125-8.113281-2.148437-10.386718zm0 0"/><path d="m398.183594 105.464844v12.449218c0 4.144532 3.355468 7.5 7.5 7.5 4.140625 0 7.5-3.355468 7.5-7.5v-12.449218c0-4.140625-3.359375-7.5-7.5-7.5-4.144532 0-7.5 3.359375-7.5 7.5zm0 0"/><path d="m303.367188 105.464844v12.449218c0 4.144532 3.359374 7.5 7.5 7.5 4.144531 0 7.5-3.355468 7.5-7.5v-12.449218c0-4.140625-3.355469-7.5-7.5-7.5-4.140626 0-7.5 3.359375-7.5 7.5zm0 0"/><path d="m472.078125 144.621094h-15.578125c-1.09375-28.003906-12.96875-64.941406-30.25-93.496094-2.144531-3.546875-6.753906-4.679688-10.296875-2.535156-3.546875 2.144531-4.679687 6.757812-2.535156 10.300781 15.972656 26.390625 26.96875 60.207031 28.074219 85.730469h-166.199219c1.070312-23.820313 11.039062-55.851563 25.488281-81.320313 17.234375-30.378906 38.230469-47.800781 57.609375-47.800781 12.492187 0 25.199219 6.792969 37.761719 20.191406 2.835937 3.019532 7.582031 3.171875 10.601562.339844 3.023438-2.835938 3.175782-7.582031.339844-10.601562-15.511719-16.542969-31.898438-24.929688-48.703125-24.929688-25.296875 0-50.390625 19.675781-70.65625 55.398438-15.886719 28.003906-26.429687 62.28125-27.453125 88.71875h-8.445312c-1.027344-26.4375-11.566407-60.714844-27.453126-88.71875-20.269531-35.726563-45.363281-55.398438-70.660156-55.398438s-50.390625 19.675781-70.65625 55.398438c-15.886718 28.003906-26.429687 62.28125-27.453125 88.71875h-15.691406c-22.011719.003906-39.921875 17.910156-39.921875 39.925781 0 22.011719 17.910156 39.921875 39.921875 39.921875h10.355469c4.835937 15.898437 10.699218 31.117187 17.480468 45.308594 1.289063 2.695312 5.648438 5.886718 10.003907 3.535156 3.644531-1.96875 5.316406-6.265625 3.53125-10.003906-5.835938-12.210938-10.953125-25.242188-15.296875-38.839844h175.457031c-9.375 29.429687-22.152344 55.46875-38.074219 77.488281-4.675781 6.464844-12.191406 10.324219-20.109375 10.324219h-59.09375c-7.917969 0-15.4375-3.859375-20.109375-10.324219-3.214844-4.445313-6.347656-9.132813-9.3125-13.921875-2.179687-3.523438-6.800781-4.613281-10.324218-2.433594-3.523438 2.179688-4.613282 6.800782-2.433594 10.324219 3.152344 5.09375 6.488281 10.082031 9.914062 14.820313 7.484375 10.351562 19.546875 16.53125 32.265625 16.53125h59.09375c12.71875 0 24.777344-6.179688 32.261719-16.53125 17.035156-23.558594 30.640625-51.351563 40.523438-82.703126 9.882812 31.34375 23.484374 59.136719 40.523437 82.703126 7.484375 10.351562 19.546875 16.53125 32.265625 16.53125h59.09375c12.714844 0 24.777344-6.179688 32.261719-16.53125 17.679687-24.453126 31.667969-53.460938 41.636719-86.277344h10.238281c22.015625 0 39.921875-17.910156 39.921875-39.921875.003906-22.015625-17.90625-39.921875-39.917969-39.921875zm-375.964844-81.320313c17.234375-30.378906 38.230469-47.800781 57.609375-47.800781s40.378906 17.421875 57.613282 47.800781c14.445312 25.46875 24.414062 57.5 25.484374 81.320313h-166.195312c1.070312-23.820313 11.039062-55.851563 25.488281-81.320313zm311.933594 238.652344c-4.671875 6.464844-12.191406 10.324219-20.109375 10.324219h-59.09375c-7.917969 0-15.433594-3.859375-20.109375-10.324219-15.925781-22.027344-28.707031-48.066406-38.078125-77.488281h175.464844c-9.371094 29.429687-22.152344 55.46875-38.074219 77.488281zm64.03125-92.488281h-432.15625c-13.742187 0-24.921875-11.179688-24.921875-24.921875 0-13.742188 11.179688-24.921875 24.921875-24.921875h432.15625c13.742187 0 24.921875 11.179687 24.921875 24.921875 0 13.742187-11.179688 24.921875-24.921875 24.921875zm0 0"/><path d="m338.828125 122.722656c0 11.988282 8.722656 21.742188 19.449219 21.742188 10.722656 0 19.449218-9.753906 19.449218-21.742188 0-11.992187-8.726562-21.746094-19.449218-21.746094-10.726563 0-19.449219 9.753907-19.449219 21.746094zm23.898437 0c0 3.972656-2.34375 6.742188-4.449218 6.742188-2.105469 0-4.449219-2.769532-4.449219-6.742188 0-3.976562 2.34375-6.746094 4.449219-6.746094 2.105468 0 4.449218 2.769532 4.449218 6.746094zm0 0"/></svg>