<svg height="512pt" viewBox="-32 0 511 512" width="512pt" xmlns="http://www.w3.org/2000/svg"><path d="m200.019531 238.570312h47.113281v-126.371093c0-57.730469-46.96875-104.699219-104.699218-104.699219-57.734375 0-104.699219 46.96875-104.699219 104.699219v71.914062h47.109375v-71.914062c0-31.753907 25.835938-57.585938 57.589844-57.585938s57.589844 25.832031 57.589844 57.585938v126.371093zm0 0" fill="#29ce69"/><path d="m200.019531 112.199219v126.371093h47.113281v-126.371093c0-30.519531-13.125-58.03125-34.03125-77.1875-10.574218 7.683593-22.109374 18.6875-32.273437 34.304687 11.773437 10.550782 19.191406 25.867188 19.191406 42.882813zm0 0" fill="#00a62c"/><path d="m247.132812 422.699219h-47.113281v-256.378907c0-57.730468 46.96875-104.699218 104.703125-104.699218 57.730469 0 104.699219 46.96875 104.699219 104.699218v117.316407h-47.113281v-117.316407c0-31.753906-25.832032-57.589843-57.589844-57.589843-31.753906 0-57.585938 25.835937-57.585938 57.589843zm0 0" fill="#73da8c"/><path d="m399.105469 193.035156-9.78125-12.386718c-1.761719-2.238282-5.15625-2.238282-6.921875 0l-9.78125 12.386718c-1.992188 2.527344-5.1875 3.78125-8.367188 3.285156l-8.867187-1.378906c-4.238281-.660156-7.3125 3.929688-5.097657 7.597656l10.324219 17.089844h50.5l10.324219-17.089844c2.21875-3.667968-.859375-8.257812-5.09375-7.597656l-8.867188 1.378906c-3.175781.496094-6.375-.761718-8.371093-3.285156zm0 0" fill="#6a829a"/><path d="m440.21875 267.222656c0 30.015625-24.332031 54.351563-54.351562 54.351563-30.019532 0-54.355469-24.335938-54.355469-54.351563 0-30.019531 24.335937-54.355468 54.355469-54.355468 30.019531 0 54.351562 24.335937 54.351562 54.355468zm0 0" fill="#fd5c6f"/><path d="m74.492188 92.167969-9.78125-12.390625c-1.765626-2.234375-5.15625-2.234375-6.921876 0l-9.78125 12.390625c-1.992187 2.523437-5.191406 3.78125-8.371093 3.285156l-8.867188-1.378906c-4.234375-.660157-7.3125 3.929687-5.09375 7.597656l10.324219 17.085937h50.496094l10.328125-17.085937c2.214843-3.667969-.859375-8.257813-5.097657-7.597656l-8.867187 1.378906c-3.175781.496094-6.375-.761719-8.367187-3.285156zm0 0" fill="#516980"/><path d="m115.605469 166.351562c0 30.019532-24.335938 54.355469-54.355469 54.355469s-54.351562-24.335937-54.351562-54.355469c0-30.015624 24.332031-54.351562 54.351562-54.351562s54.355469 24.335938 54.355469 54.351562zm0 0" fill="#fd5c6f"/><path d="m352.691406 353.21875c-7.753906 0-15.234375 1.171875-22.273437 3.347656-13.601563 4.203125-28.085938-.402344-37.65625-12.683594-16.585938-21.28125-41.421875-34.804687-69.183594-34.804687-27.699219 0-52.476563 13.46875-69.054687 34.667969-9.117188 11.660156-22.675782 16.652344-35.621094 12.71875-6.9375-2.109375-14.296875-3.246094-21.925782-3.246094-41.726562 0-75.550781 33.867188-75.550781 75.640625s33.824219 75.640625 75.550781 75.640625h255.714844c41.726563 0 75.550782-33.867188 75.550782-75.640625s-33.824219-75.640625-75.550782-75.640625zm0 0" fill="#e7896e"/><g fill="#dd6642"><path d="m267.84375 321.570312c-13.082031-7.953124-28.1875-12.492187-44.265625-12.492187-27.699219 0-52.476563 13.46875-69.054687 34.667969-9.117188 11.660156-22.675782 16.652344-35.617188 12.71875-6.941406-2.109375-14.300781-3.246094-21.929688-3.246094-41.726562 0-75.550781 33.867188-75.550781 75.640625s33.824219 75.640625 75.550781 75.640625h60.132813c11-35.136719 29.683594-54.714844 32.472656-92.613281 4.488281-61.050781 78.179688-90.28125 78.261719-90.316407zm0 0"/><path d="m281.574219 424.007812c0 9.511719-7.710938 17.222657-17.222657 17.222657-9.507812 0-17.21875-7.710938-17.21875-17.222657 0-9.507812 7.710938-17.21875 17.21875-17.21875 9.511719 0 17.222657 7.710938 17.222657 17.21875zm0 0"/><path d="m354.207031 445.84375c0 9.511719-7.707031 17.21875-17.21875 17.21875s-17.21875-7.707031-17.21875-17.21875 7.707031-17.21875 17.21875-17.21875 17.21875 7.707031 17.21875 17.21875zm0 0"/></g><path d="m352.691406 345.71875c-8.34375 0-16.582031 1.238281-24.488281 3.683594-10.753906 3.324218-22.066406-.5625-29.527344-10.128906-11.792969-15.136719-27.066406-26.1875-44.042969-32.28125v-37.351563c0-4.144531-3.359374-7.5-7.5-7.5-4.140624 0-7.5 3.355469-7.5 7.5v33.351563c-12.203124-2.765626-26.847656-.933594-32.113281 0v-136.671876c0-53.597656 43.605469-97.199218 97.203125-97.199218 53.59375 0 97.199219 43.601562 97.199219 97.199218v18.175782l-6.707031-8.496094c-2.273438-2.878906-5.679688-4.527344-9.347656-4.527344-3.667969 0-7.078126 1.648438-9.347657 4.527344l-6.710937 8.496094v-18.175782c0-35.890624-29.199219-65.089843-65.085938-65.089843-35.890625 0-65.089844 29.199219-65.089844 65.089843v72.25c0 4.144532 3.359376 7.5 7.5 7.5 4.140626 0 7.5-3.355468 7.5-7.5v-72.25c0-27.621093 22.46875-50.089843 50.089844-50.089843 27.617188 0 50.085938 22.46875 50.085938 50.089843v21.0625c-4.238282-.085937-8.199219 1.949219-10.617188 5.554688-2.746094 4.09375-2.867187 9.257812-.320312 13.476562l6.261718 10.367188c-15.789062 11.214844-26.121093 29.640625-26.121093 50.441406 0 34.105469 27.75 61.851563 61.855469 61.851563 34.105468 0 61.851562-27.746094 61.851562-61.851563 0-20.800781-10.332031-39.226562-26.121094-50.441406l6.261719-10.367188c2.550781-4.21875 2.425781-9.382812-.320313-13.476562-2.417968-3.605469-6.378906-5.640625-10.617187-5.554688v-21.0625c0-61.867187-50.332031-112.199218-112.199219-112.199218-21.28125 0-41.195312 5.953125-58.167968 16.285156-7.726563-19.246094-20.542969-35.867188-37.429688-48.386719-19.433594-14.40625-42.492188-22.019531-66.691406-22.019531-26.769532 0-52.707032 9.617188-73.035156 27.085938-18.199219 15.636718-30.878907 36.652343-36.25 59.769531 0 0-8.722657-2.042969-13.574219 5.214843-2.734375 4.101563-2.867188 9.257813-.316407 13.476563l6.273438 10.382813c-12.476562 8.84375-21.652344 22.210937-24.878906 37.964843-.828125 4.058594 1.789062 8.019531 5.84375 8.851563 4.058594.828125 8.023437-1.785156 8.851562-5.84375 4.4375-21.671875 23.742188-37.402344 45.902344-37.402344 25.835938 0 46.855469 21.019531 46.855469 46.851562 0 25.835938-21.019531 46.855469-46.855469 46.855469-19.566406 0-37.25-12.335937-43.992188-30.691406-1.429687-3.890625-5.742187-5.882813-9.628906-4.453125-3.886718 1.425781-5.878906 5.738281-4.453125 9.625 8.90625 24.238281 32.246094 40.519531 58.074219 40.519531 34.105469 0 61.855469-27.746093 61.855469-61.851562 0-20.800781-10.332031-39.222657-26.121094-50.445313l6.261719-10.363281c6.902344-11.917969-2.972656-16.546875-4.6875-17.492187 8.714844-15.78125 25.484375-25.941407 43.875-25.941407 27.621094 0 50.089844 22.46875 50.089844 50.089844v194.796875c-16.910157 6.070312-32.132813 17.070312-43.90625 32.128906-7.332032 9.375-17.621094 13.171875-27.53125 10.160156-7.792969-2.367187-15.902344-3.566406-24.109376-3.566406-45.792968 0-83.050781 37.296875-83.050781 83.140625s37.257813 83.136719 83.050781 83.136719h255.714844c45.792969 0 83.050782-37.296875 83.050782-83.140625s-37.257813-83.140625-83.050782-83.140625zm80.027344-78.496094c0 25.835938-21.019531 46.851563-46.851562 46.851563-25.835938 0-46.855469-21.019531-46.855469-46.851563 0-25.835937 21.019531-46.855468 46.855469-46.855468 25.832031 0 46.851562 21.019531 46.851562 46.855468zm-46.851562-61.855468c-7.949219 0-15.542969 1.523437-22.527344 4.265624l-3.84375-6.363281c.871094.351563 13.417968 2.175781 19.015625-5.585937l7.355469-9.316406 7.355468 9.316406c6.9375 9.363281 19.078125 5.476562 19.078125 5.476562l-3.910156 6.472656c-6.984375-2.742187-14.578125-4.265624-22.523437-4.265624zm-324.617188-100.867188c-7.882812 0-15.488281 1.519531-22.511719 4.285156l-3.921875-6.492187s13.191406 3.65625 19.082032-5.476563l7.351562-9.316406 7.355469 9.316406c5.085937 8.949219 19.082031 5.476563 19.082031 5.476563l-3.910156 6.472656c-6.988282-2.742187-14.582032-4.265625-22.527344-4.265625zm81.183594-57.386719c-26.585938 0-50.5625 16.328125-60.421875 40.882813l-.304688.046875c-.503906.082031-11.109375-12.910157-11.109375-12.910157-6.789062-8.152343-15.226562-3.386718-17.40625-1.367187 5.824219-13.460937 14.664063-25.582031 25.984375-35.304687 17.609375-15.128907 40.074219-23.460938 63.257813-23.460938 41.261718 0 77.609375 25.726562 91.480468 64.355469-10.585937 8.632812-19.570312 19.152343-26.4375 31.046875-.960937-35.058594-29.757812-63.289063-65.042968-63.289063zm210.257812 449.886719h-255.714844c-37.523437 0-68.050781-30.566406-68.050781-68.140625s30.527344-68.140625 68.050781-68.140625c6.726563 0 13.371094.980469 19.746094 2.921875 15.832032 4.808594 32.582032-1.042969 43.707032-15.273437 15.796874-20.203126 38.8125-31.789063 63.148437-31.789063 24.402344 0 47.460937 11.632813 63.265625 31.914063 11.386719 14.605468 28.929688 20.449218 45.789062 15.238281 6.46875-1.996094 13.21875-3.011719 20.058594-3.011719 37.523438 0 68.050782 30.566406 68.050782 68.140625s-30.527344 68.140625-68.050782 68.140625zm0 0"/></svg>