<svg height="512pt" viewBox="-32 0 512 512" width="512pt" xmlns="http://www.w3.org/2000/svg"><path d="m83.714844 220.089844c-.3125-.914063-17.039063-48.914063-58.710938-60.6875-12.765625-3.605469-20.191406-16.875-16.585937-29.640625 3.605469-12.769531 16.882812-20.191407 29.644531-16.589844 66.828125 18.878906 90.335938 88.980469 91.304688 91.957031zm0 0" fill="#516980"/><path d="m365.164062 220.089844c.308594-.914063 17.039063-48.914063 58.710938-60.6875 12.765625-3.605469 20.191406-16.875 16.585938-29.640625-3.605469-12.769531-16.882813-20.191407-29.644532-16.589844-66.828125 18.878906-90.335937 88.980469-91.304687 91.957031zm0 0" fill="#6a829a"/><path d="m316.105469 111.707031h-183.332031l-51.828126 75.929688c-11.285156 16.539062-17.324218 36.097656-17.324218 56.125v211.035156c0 27.449219 22.25 49.703125 49.699218 49.703125h222.238282c27.449218 0 49.699218-22.253906 49.699218-49.703125v-211.035156c0-20.027344-6.039062-39.585938-17.328124-56.125zm0 0" fill="#889cb0"/><path d="m143.894531 445.84375s-.273437-107.480469-.25-172.832031c.011719-26.742188 14.257813-51.28125 37.148438-65.109375 35.503906-21.445313 53.765625-51.390625 53.765625-51.390625v-44.804688h-101.785156l-51.828126 75.929688c-11.285156 16.539062-17.324218 36.097656-17.324218 56.125v211.035156c0 27.449219 22.25 49.703125 49.699218 49.703125h55.082032c-23.953125-21.574219-24.507813-58.65625-24.507813-58.65625zm0 0" fill="#6a829a"/><path d="m316.105469 111.707031h-183.335938l-51.824219 75.929688c-7.519531 11.015625-12.695312 23.378906-15.320312 36.324219h317.628906c-2.625-12.945313-7.800781-25.308594-15.324218-36.324219zm0 0" fill="#a7b6c5"/><path d="m180.792969 207.902344c35.5-21.445313 53.765625-51.390625 53.765625-51.390625v-44.804688h-101.789063l-51.824219 75.929688c-7.519531 11.015625-12.695312 23.378906-15.320312 36.324219h96.222656c5.335938-6.246094 11.707032-11.6875 18.945313-16.058594zm0 0" fill="#889cb0"/><path d="m132.769531 44.140625h183.335938v67.566406h-183.335938zm0 0" fill="#889cb0"/><path d="m132.769531 44.140625h101.789063v67.566406h-101.789063zm0 0" fill="#6a829a"/><path d="m195.199219 35.640625v109.09375c0 11.839844 9.601562 21.441406 21.445312 21.441406 11.839844 0 21.441407-9.597656 21.441407-21.441406v-14.902344c0-9.703125 7.867187-17.566406 17.566406-17.566406 9.703125 0 17.570312 7.863281 17.570312 17.566406v51.132813c0 11.84375 9.597656 21.445312 21.441406 21.445312s21.445313-9.601562 21.445313-21.445312v-145.324219zm0 0" fill="#a4e7ff"/><path d="m324.910156 54.386719h-197.539062c-12.945313 0-23.441406-10.496094-23.441406-23.441407 0-12.949218 10.496093-23.445312 23.441406-23.445312h197.539062c12.945313 0 23.441406 10.496094 23.441406 23.445312 0 12.945313-10.496093 23.441407-23.441406 23.441407zm0 0" fill="#a7b6c5"/><path d="m160.417969 30.945312c0-12.949218 10.496093-23.445312 23.441406-23.445312h-56.488281c-12.945313 0-23.441406 10.496094-23.441406 23.445312 0 12.945313 10.496093 23.441407 23.441406 23.441407h56.488281c-12.945313 0-23.441406-10.496094-23.441406-23.441407zm0 0" fill="#889cb0"/><path d="m224.4375 355.902344c-15.519531 0-28.097656-12.582032-28.097656-28.101563v-20.429687c0-4.234375 3.433594-7.671875 7.671875-7.671875h40.859375c4.234375 0 7.667968 3.4375 7.667968 7.671875v20.429687c0 15.519531-12.578124 28.101563-28.101562 28.101563zm0 0" fill="#454545"/><path d="m160.417969 327.800781c0-13.183593-13.421875-23.867187-29.972657-23.867187-16.554687 0-29.972656 10.683594-29.972656 23.867187 0 13.183594 13.417969 23.871094 29.972656 23.871094 16.550782 0 29.972657-10.6875 29.972657-23.871094zm0 0" fill="#ffb3dd"/><path d="m348.410156 327.800781c0-13.183593-13.421875-23.867187-29.976562-23.867187-16.550782 0-29.972656 10.683594-29.972656 23.867187 0 13.183594 13.421874 23.871094 29.972656 23.871094 16.554687 0 29.976562-10.6875 29.976562-23.871094zm0 0" fill="#ffb3dd"/><path d="m312.597656 307.199219v-12.453125c0-4.140625-3.359375-7.5-7.5-7.5-4.144531 0-7.5 3.359375-7.5 7.5v12.453125c0 4.140625 3.355469 7.5 7.5 7.5 4.140625 0 7.5-3.359375 7.5-7.5zm0 0"/><path d="m151.285156 307.199219v-12.453125c0-4.140625-3.359375-7.5-7.5-7.5-4.144531 0-7.5 3.359375-7.5 7.5v12.453125c0 4.140625 3.355469 7.5 7.5 7.5 4.140625 0 7.5-3.359375 7.5-7.5zm0 0"/><path d="m260.039062 327.800781v-20.429687c0-8.363282-6.804687-15.171875-15.167968-15.171875h-40.859375c-8.367188 0-15.171875 6.808593-15.171875 15.171875v20.429687c0 19.632813 15.96875 35.601563 35.597656 35.601563s35.601562-15.96875 35.601562-35.601563zm-56.199218 0v-20.429687c0-.09375 41.199218-.09375 41.199218 0v20.429687c0 11.359375-9.242187 20.601563-20.601562 20.601563-11.355469 0-20.597656-9.242188-20.597656-20.601563zm0 0"/><path d="m447.679688 127.722656c-2.289063-8.101562-7.597657-14.828125-14.945313-18.9375-7.347656-4.113281-15.855469-5.113281-23.957031-2.828125-23.21875 6.558594-43.777344 19.5-61.238282 38.496094l-23.929687-35.058594v-47.507812h1.300781c17.0625 0 30.941406-13.878907 30.941406-30.941407s-13.878906-30.945312-30.941406-30.945312h-197.539062c-17.0625 0-30.941406 13.882812-30.941406 30.941406 0 16.359375 12.757812 29.78125 28.84375 30.867188v47.582031l-23.933594 35.0625c-17.460938-18.996094-38.015625-31.9375-61.238282-38.496094-8.101562-2.289062-16.609374-1.285156-23.957031 2.824219-7.347656 4.113281-12.65625 10.839844-14.941406 18.941406-2.289063 8.101563-1.2851562 16.609375 2.824219 23.957032 4.109375 7.347656 10.835937 12.652343 18.9375 14.941406 20.050781 5.664062 33.859375 20.945312 42.3125 33.800781-6.019532 13.570313-9.160156 28.269531-9.160156 43.339844v146.59375c0 4.140625 3.359374 7.5 7.5 7.5 4.144531 0 7.5-3.359375 7.5-7.5v-146.59375c0-4.140625.292968-8.246094.835937-12.300781h304.972656c.542969 4.054687.832031 8.160156.832031 12.300781v211.035156c0 23.273437-18.929687 42.203125-42.203124 42.203125h-222.234376c-23.269531 0-42.199218-18.933594-42.199218-42.203125v-32.425781c0-4.144532-3.359375-7.5-7.5-7.5-4.144532 0-7.5 3.355468-7.5 7.5v32.425781c0 31.542969 25.660156 57.203125 57.199218 57.203125h222.238282c31.539062 0 57.203125-25.660156 57.203125-57.203125v-211.035156c0-15.070313-3.140625-29.769531-9.160157-43.339844 8.453126-12.851563 22.261719-28.136719 42.3125-33.800781 8.101563-2.285156 14.828126-7.59375 18.9375-14.941406 4.109376-7.347657 5.113282-15.855469 2.828126-23.957032zm-336.25-96.78125c0-8.789062 7.152343-15.941406 15.941406-15.941406h197.539062c8.789063 0 15.941406 7.152344 15.941406 15.941406 0 8.792969-7.152343 15.945313-15.941406 15.945313h-37.277344c-4.144531 0-7.5 3.355469-7.5 7.5 0 4.140625 3.355469 7.5 7.5 7.5h20.976563v49.851562.019531 69.207032c0 7.6875-6.257813 13.941406-13.945313 13.941406s-13.941406-6.253906-13.941406-13.941406v-51.132813c0-13.824219-11.246094-25.070312-25.066406-25.070312-13.824219 0-25.070312 11.246093-25.070312 25.070312v14.898438c0 7.691406-6.253907 13.945312-13.941407 13.945312s-13.941406-6.253906-13.941406-13.945312v-82.84375h54.339844c4.144531 0 7.5-3.355469 7.5-7.5s-3.355469-7.5-7.5-7.5h-129.667969c-8.792969 0-15.945312-7.152344-15.945312-15.945313zm28.839843 30.945313h47.429688v42.320312h-47.429688zm-113.226562 90.300781c-4.246094-1.199219-14.632813-7.613281-11.40625-20.386719 3.226562-12.777343 16.140625-12.609375 20.386719-11.410156 21.523437 6.082031 40.542968 18.460937 56.613281 36.8125 0 0-18.894531 27.730469-19.390625 28.5-10.117188-13.429687-25.195313-27.582031-46.203125-33.515625zm48.203125 64.273438c2.695312-8.679688 6.683594-16.960938 11.894531-24.597657l49.59375-72.65625h50.964844v25.527344c0 15.957031 12.984375 28.941406 28.941406 28.941406 15.960937 0 28.945313-12.984375 28.945313-28.941406v-14.902344c0-5.550781 4.515624-10.066406 10.066406-10.066406 5.550781 0 10.066406 4.515625 10.066406 10.066406v51.132813c0 15.960937 12.984375 28.941406 28.945312 28.941406 15.957032 0 28.941407-12.980469 28.941407-28.941406v-44.964844l38.128906 55.863281c5.214844 7.640625 9.203125 15.917969 11.898437 24.597657zm346.589844-64.273438c-21.007813 5.933594-36.085938 20.085938-46.207032 33.515625-.496094-.769531-19.386718-28.5-19.386718-28.5 16.070312-18.351563 35.089843-30.730469 56.613281-36.8125 4.242187-1.199219 16.707031-1.617187 20.386719 11.410156 3.679687 13.023438-7.160157 19.1875-11.40625 20.386719zm0 0"/></svg>