<svg height="512pt" viewBox="-7 0 512 512" width="512pt" xmlns="http://www.w3.org/2000/svg"><path d="m437.066406 204.742188h-377.511718s-21.558594 24.816406-40.550782 66.082031c-19.96875 43.394531-13.59375 94.398437 16.4375 131.539062 18.917969 23.398438 43.355469 51.839844 71.027344 79.84375 14.046875 14.214844 33.144531 22.292969 53.121094 22.292969h177.4375c19.980468 0 39.078125-8.082031 53.121094-22.292969 27.671874-28.003906 52.109374-56.445312 71.027343-79.84375 30.03125-37.140625 36.40625-88.148437 16.441407-131.539062-18.992188-41.265625-40.550782-66.082031-40.550782-66.082031zm0 0" fill="#b0f0ef"/><path d="m59.554688 204.746094s-21.558594 24.8125-40.550782 66.082031c-19.96875 43.390625-13.59375 94.394531 16.4375 131.535156 18.917969 23.398438 43.355469 51.84375 71.027344 79.847657 14.046875 14.210937 33.144531 22.289062 53.121094 22.289062h85.339844c-23.265626-21.832031-44.519532-48.976562-62.242188-75.046875-26.847656-39.5-4.542969-93.507813 42.300781-102.835937 112.449219-22.390626 148.804688-74.683594 148.804688-74.683594v-47.191406h-314.238281zm0 0" fill="#76e7e7"/><path d="m433.882812 115.242188h-367.664062c-29.648438 16.496093-45.53125 42.351562-54.015625 64.367187-7.269531 18.863281 3.335937 40.054687 22.925781 45.050781 32.167969 8.203125 42.613282 27.273438 91.179688 27.273438 61.871094 0 61.871094-30.953125 123.742187-30.953125 61.871094 0 61.871094 30.953125 123.742188 30.953125 48.566406 0 59.007812-19.070313 91.175781-27.273438 19.589844-4.996094 30.199219-26.1875 22.929688-45.050781-8.484376-22.015625-24.367188-47.871094-54.015626-64.367187zm0 0" fill="#ffeab7"/><path d="m12.203125 179.609375c-7.269531 18.863281 3.335937 40.054687 22.925781 45.050781 24.976563 6.367188 36.867188 19.289063 63.660156 24.75 3.355469-21.070312 16.011719-58.992187 63.640626-60.445312 66.09375-2.015625 102.347656-40.191406 102.347656-40.191406l-.429688-33.53125h-198.128906c-29.648438 16.496093-45.53125 42.351562-54.015625 64.367187zm0 0" fill="#fad989"/><path d="m379.441406 7.5h-262.261718c-28.144532 0-50.960938 22.816406-50.960938 50.960938v56.777343h364.183594v-56.777343c0-28.144532-22.816406-50.960938-50.960938-50.960938zm0 0" fill="#ffeab7"/><path d="m211.167969 7.5h-93.988281c-28.144532 0-50.960938 22.816406-50.960938 50.960938v56.777343h93.988281v-56.777343c0-28.144532 22.816407-50.960938 50.960938-50.960938zm0 0" fill="#fad989"/><path d="m429.121094 148.773438h-358.125c-18.519532 0-33.53125-15.015626-33.53125-33.535157 0-18.515625 15.011718-33.53125 33.53125-33.53125h358.125c18.515625 0 33.53125 15.015625 33.53125 33.53125 0 18.523438-15.011719 33.535157-33.53125 33.535157zm0 0" fill="#e7896e"/><path d="m135.257812 115.242188c0-18.519532 15.011719-33.53125 33.53125-33.53125h-97.792968c-18.519532 0-33.53125 15.011718-33.53125 33.53125 0 18.519531 15.011718 33.53125 33.53125 33.53125h97.792968c-18.519531 0-33.53125-15.011719-33.53125-33.53125zm0 0" fill="#dd6642"/><path d="m35.433594 402.363281c18.917968 23.398438 43.359375 51.84375 71.03125 79.847657 14.042968 14.210937 33.140625 22.289062 53.121094 22.289062h177.433593c19.980469 0 39.078125-8.078125 53.121094-22.289062 27.675781-28.007813 52.113281-56.449219 71.03125-79.847657 21.671875-26.804687 31.03125-60.832031 27.050781-94.007812h-479.828125c-3.976562 33.175781 5.367188 67.203125 27.039063 94.007812zm0 0" fill="#ff8a98"/><path d="m224.988281 326.617188c24.757813-4.929688 45.828125-11.308594 63.632813-18.261719h-280.226563c-3.976562 33.175781 5.367188 67.203125 27.039063 94.007812 18.917968 23.398438 43.359375 51.84375 71.03125 79.847657 14.042968 14.210937 33.140625 22.289062 53.121094 22.289062h85.34375c-23.265626-21.832031-44.519532-48.976562-62.242188-75.050781-26.847656-39.496094-4.539062-93.503907 42.300781-102.832031zm0 0" fill="#fd5c6f"/><path d="m184.28125 397.28125c0-13.183594-13.421875-23.871094-29.972656-23.871094-16.554688 0-29.972656 10.6875-29.972656 23.871094s13.417968 23.867188 29.972656 23.867188c16.550781 0 29.972656-10.683594 29.972656-23.867188zm0 0" fill="#ffb3dd"/><path d="m372.273438 397.28125c0-13.183594-13.421876-23.871094-29.972657-23.871094-16.554687 0-29.972656 10.6875-29.972656 23.871094s13.417969 23.867188 29.972656 23.867188c16.550781 0 29.972657-10.683594 29.972657-23.867188zm0 0" fill="#ffb3dd"/><path d="m266.625 372.128906c-10.789062 8.367188-25.855469 8.367188-36.640625 0-3.273437-2.539062-7.988281-1.945312-10.523437 1.332032-2.539063 3.269531-1.945313 7.980468 1.328124 10.519531 8.101563 6.285156 17.808594 9.425781 27.515626 9.425781 9.707031 0 19.414062-3.140625 27.511718-9.425781 3.273438-2.535157 3.867188-7.25 1.328125-10.519531-2.535156-3.277344-7.25-3.871094-10.519531-1.332032zm0 0"/><path d="m167.644531 361.253906c-7.136719 0-13.738281 3.5625-17.65625 9.527344-2.277343 3.464844-1.3125 8.113281 2.148438 10.386719 3.460937 2.273437 8.113281 1.3125 10.386719-2.148438 1.640624-2.496093 4.128906-2.765625 5.121093-2.765625.996094 0 3.445313.296875 5.125 2.765625 3.503907 5.140625 9.117188 2.984375 10.386719 2.148438 3.460938-2.273438 4.421875-6.921875 2.148438-10.386719-3.917969-5.964844-10.519532-9.527344-17.660157-9.527344zm0 0"/><path d="m328.960938 361.253906c-7.140626 0-13.742188 3.5625-17.660157 9.527344-2.273437 3.464844-1.3125 8.113281 2.152344 10.386719 3.460937 2.273437 8.109375 1.3125 10.382813-2.148438 1.640624-2.496093 4.128906-2.765625 5.125-2.765625.992187 0 3.441406.296875 5.121093 2.765625 3.503907 5.140625 9.117188 2.984375 10.386719 2.148438 3.460938-2.273438 4.425781-6.921875 2.152344-10.386719-3.921875-5.964844-10.523438-9.527344-17.660156-9.527344zm0 0"/><path d="m465.550781 232.265625c13.550781-4.121094 22.121094-10.839844 27.496094-21.246094 5.457031-10.570312 6.128906-23 1.847656-34.109375-6.789062-17.613281-16.234375-32.867187-28.097656-45.4375 2.152344-4.980468 3.355469-10.46875 3.355469-16.230468 0-19.613282-13.835938-36.042969-32.253906-40.078126v-16.703124c.003906-32.234376-26.222657-58.460938-58.457032-58.460938h-262.261718c-32.234376 0-58.460938 26.226562-58.460938 58.460938v17.625c-16.644531 5.230468-28.753906 20.804687-28.753906 39.152343 0 5.761719 1.199218 11.242188 3.347656 16.222657-11.867188 12.574218-21.316406 27.828124-28.109375 45.449218-4.28125 11.109375-3.605469 23.539063 1.851563 34.105469 5.101562 9.878906 13.972656 17.242187 24.519531 20.425781-7.121094 11.597656-13.628907 23.746094-19.382813 36.25-10.382812 22.5625-14.242187 47.519532-11.160156 72.175782 3.082031 24.660156 12.964844 47.898437 28.578125 67.210937 23.660156 29.265625 47.726563 56.316406 71.527344 80.402344 15.398437 15.582031 36.703125 24.519531 58.453125 24.519531h177.4375c21.75 0 43.058594-8.9375 58.457031-24.519531 23.800781-24.085938 47.863281-51.136719 71.523437-80.402344 15.617188-19.3125 25.5-42.550781 28.582032-67.210937 3.082031-24.65625-.777344-49.613282-11.160156-72.175782-5.613282-12.199218-11.953126-24.070312-18.878907-35.425781zm-394.554687-143.054687h302.796875c4.140625 0 7.5-3.359376 7.5-7.5 0-4.144532-3.359375-7.5-7.5-7.5h-300.074219v-15.75c0-23.964844 19.496094-43.460938 43.460938-43.460938h262.261718c23.960938 0 43.457032 19.496094 43.457032 43.460938v15.75h-18.773438c-4.144531 0-7.5 3.355468-7.5 7.5 0 4.140624 3.355469 7.5 7.5 7.5h24.996094c14.351562 0 26.03125 11.675781 26.03125 26.027343 0 14.355469-11.679688 26.035157-26.03125 26.035157h-358.125c-14.355469 0-26.03125-11.679688-26.03125-26.035157 0-14.351562 11.675781-26.027343 26.03125-26.027343zm-24.75 147.011718c5.171875 2.105469 25.621094 23.210938 80.0625 23.210938 7.789062 0 14.847656-.460938 21.582031-1.402344 4.101563-.578125 6.960937-4.367188 6.386719-8.46875-.574219-4.101562-4.367188-6.953125-8.46875-6.386719-6.039063.84375-12.417969 1.257813-19.5 1.257813-29.164063 0-43.421875-7.132813-58.515625-14.6875-9.023438-4.511719-18.351563-9.179688-30.808594-12.355469-7.246094-1.847656-13.144531-6.554687-16.601563-13.253906-3.492187-6.765625-3.921874-14.722657-1.183593-21.832031 5.644531-14.644532 13.292969-27.417969 22.769531-38.089844 7.433594 7.441406 17.703125 12.058594 29.027344 12.058594h358.125c11.320312 0 21.585937-4.613282 29.015625-12.050782 9.476562 10.671875 17.121093 23.441406 22.765625 38.082032 2.738281 7.109374 2.308594 15.066406-1.183594 21.832031-3.460938 6.699219-9.355469 11.40625-16.601562 13.253906-12.457032 3.175781-21.789063 7.84375-30.808594 12.359375-15.09375 7.550781-29.351563 14.683594-58.515625 14.683594-29.164063 0-43.421875-7.132813-58.515625-14.683594-15.988282-8-32.519532-16.269531-65.226563-16.269531-32.710937 0-49.242187 8.269531-65.230469 16.269531-3.457031 1.730469-6.726562 3.363281-10.1875 4.9375-3.773437 1.707031-5.445312 6.152344-3.734374 9.925781 1.710937 3.773438 6.15625 5.445313 9.929687 3.734375 3.722656-1.691406 7.273437-3.464844 10.707031-5.183594 15.09375-7.550781 29.351563-14.683593 58.515625-14.683593 29.164063 0 43.421875 7.132812 58.515625 14.683593 15.988282 7.996094 32.519532 16.269532 65.226563 16.269532 44.835937 0 73.175781-20.242188 77.308593-22.046875 7.273438 11.664062 13.890626 23.941406 19.703126 36.574219 3.972656 8.632812 6.863281 17.664062 8.652343 26.894531h-462.292969c1.789063-9.230469 4.679688-18.261719 8.652344-26.894531 6.011719-13.066407 12.871094-25.734376 20.429688-37.738282zm434.457031 101.785156c-2.734375 21.882813-11.5 42.503907-25.355469 59.640626-23.351562 28.878906-47.082031 55.558593-70.53125 79.289062-12.601562 12.75-30.019531 20.0625-47.789062 20.0625h-177.4375c-17.769532 0-35.183594-7.3125-47.785156-20.0625-23.453126-23.730469-47.183594-50.410156-70.53125-79.289062-13.855469-17.136719-22.625-37.757813-25.359376-59.640626-.921874-7.386718-1.125-14.796874-.660156-22.152343h466.113282c.464843 7.355469.261718 14.765625-.664063 22.152343zm0 0"/></svg>