<svg height="511pt" viewBox="-3 0 511 511.99936" width="511pt" xmlns="http://www.w3.org/2000/svg"><path d="m330.023438 135.796875c0 42.328125-34.3125 76.636719-76.636719 76.636719-42.328125 0-76.640625-34.308594-76.640625-76.636719 0-42.324219 34.3125-76.636719 76.640625-76.636719 42.324219 0 76.636719 34.3125 76.636719 76.636719zm0 0" fill="#ffbe73"/><path d="m111.640625 74.175781c-41.214844 77.976563-33.929687 145.355469-23.480469 186.679688 11.621094 45.945312 33.441406 73.375 35.890625 76.351562 0 0 112.84375-55.800781 113.136719-55.421875-1.953125-2.53125-54.394531-73.425781-38.417969-165.554687 4.5625-26.324219 1.523438-52.980469-22.539062-64.59375-6.777344-3.269531-46.339844-11.996094-64.589844 22.539062zm0 0" fill="#b18cd9"/><path d="m108.792969 232.148438h275.648437v196.109374h-275.648437zm0 0" fill="#a34325"/><path d="m412.867188 138.074219c0 41.070312-33.292969 74.359375-74.359376 74.359375-41.070312 0-74.363281-33.289063-74.363281-74.359375 0-41.066407 33.292969-74.359375 74.363281-74.359375 41.066407 0 74.359376 33.292968 74.359376 74.359375zm0 0" fill="#fd5c6f"/><path d="m372.429688 52.328125-31.8125 3.636719c-1.402344.160156-2.820313.160156-4.222657 0l-31.8125-3.636719c-6.226562-.710937-9.746093 6.9375-5.15625 11.203125l6.757813 6.285156c3.296875 3.0625 4.195312 7.925782 2.214844 11.964844l-6.070313 12.382812c-2.441406 4.984376 2.980469 10.152344 7.839844 7.476563l19.492187-10.738281c5.507813-3.03125 12.183594-3.03125 17.691406 0l19.488282 10.738281c4.863281 2.675781 10.285156-2.492187 7.839844-7.476563l-6.070313-12.382812c-1.980469-4.039062-1.078125-8.902344 2.214844-11.964844l6.761719-6.285156c4.589843-4.265625 1.066406-11.914062-5.15625-11.203125zm0 0" fill="#6a829a"/><path d="m185.765625 464.070312h-126.875v-284.183593c0-21.695313 17.585937-39.277344 39.277344-39.277344h48.316406c21.695313 0 39.28125 17.585937 39.28125 39.277344zm0 0" fill="#dd6642"/><path d="m447.878906 464.070312h-126.875v-284.183593c0-21.695313 17.585938-39.277344 39.277344-39.277344h48.320312c21.691407 0 39.277344 17.585937 39.277344 39.277344zm0 0" fill="#dd6642"/><path d="m462.109375 302.339844h-417.449219c-20.246094 0-36.660156-16.414063-36.660156-36.660156v-49.375c0-20.246094 16.414062-36.660157 36.660156-36.660157h417.449219c20.246094 0 36.660156 16.414063 36.660156 36.660157v49.375c0 20.246093-16.414062 36.660156-36.660156 36.660156zm0 0" fill="#f2ad9a"/><path d="m127.121094 265.679688v-49.375c0-20.246094 16.414062-36.660157 36.660156-36.660157h-119.121094c-20.246094 0-36.660156 16.414063-36.660156 36.660157v49.375c0 20.246093 16.414062 36.660156 36.660156 36.660156h119.117188c-20.242188 0-36.65625-16.414063-36.65625-36.660156zm0 0" fill="#e7896e"/><path d="m462.109375 504.5h-417.449219c-20.246094 0-36.660156-16.410156-36.660156-36.65625v-49.375c0-20.246094 16.414062-36.660156 36.660156-36.660156h417.449219c20.246094 0 36.660156 16.414062 36.660156 36.660156v49.375c0 20.246094-16.414062 36.65625-36.660156 36.65625zm0 0" fill="#f2ad9a"/><path d="m127.121094 467.84375v-49.375c0-20.246094 16.414062-36.660156 36.660156-36.660156h-119.121094c-20.246094 0-36.660156 16.414062-36.660156 36.660156v49.375c0 20.246094 16.414062 36.660156 36.660156 36.660156h119.117188c-20.242188-.003906-36.65625-16.414062-36.65625-36.660156zm0 0" fill="#e7896e"/><path d="m211.351562 59.714844c-8.59375-24.761719-39.972656-25.394532-39.972656-25.394532s-27.726562-14.707031-47.277344 2.75c-7.398437 6.605469-14.570312 10.257813-20.625 12.25-7.585937 2.492188-9.753906 12.203126-3.960937 17.699219 10.785156 10.242188 28 21.027344 50.398437 16.917969 5.714844-1.050781 11.605469.480469 16.089844 4.175781 17.570313 14.484375 37.859375 13.433594 52.265625 9.730469 7.734375-1.988281 10.5625-11.527344 5.148438-17.394531-4.328125-4.683594-8.816407-11.363281-12.066407-20.734375zm0 0" fill="#29ce69"/><path d="m165.15625 58.292969c-9.714844-2.519531-15.546875-12.4375-13.027344-22.15625l3.898438-15.015625c2.523437-9.71875 12.441406-15.546875 22.15625-13.027344 9.714844 2.523438 15.546875 12.441406 13.027344 22.15625l-3.898438 15.019531c-2.523438 9.714844-12.441406 15.546875-22.15625 13.023438zm0 0" fill="#73da8c"/><g fill="#516980"><path d="m137.660156 212.898438c0 8.46875-6.867187 15.332031-15.332031 15.332031-8.46875 0-15.332031-6.863281-15.332031-15.332031s6.863281-15.332032 15.332031-15.332032c8.464844 0 15.332031 6.863282 15.332031 15.332032zm0 0"/><path d="m137.660156 269.085938c0 8.46875-6.867187 15.332031-15.332031 15.332031-8.46875 0-15.332031-6.863281-15.332031-15.332031 0-8.464844 6.863281-15.328126 15.332031-15.328126 8.464844 0 15.332031 6.863282 15.332031 15.328126zm0 0"/><path d="m399.773438 212.898438c0 8.46875-6.863282 15.332031-15.332032 15.332031-8.464844 0-15.332031-6.863281-15.332031-15.332031s6.867187-15.332032 15.332031-15.332032c8.46875 0 15.332032 6.863282 15.332032 15.332032zm0 0"/><path d="m399.773438 269.085938c0 8.46875-6.863282 15.332031-15.332032 15.332031-8.464844 0-15.332031-6.863281-15.332031-15.332031 0-8.464844 6.867187-15.328126 15.332031-15.328126 8.46875 0 15.332032 6.863282 15.332032 15.328126zm0 0"/><path d="m137.660156 415.0625c0 8.464844-6.867187 15.328125-15.332031 15.328125-8.46875 0-15.332031-6.863281-15.332031-15.328125 0-8.46875 6.863281-15.332031 15.332031-15.332031 8.464844 0 15.332031 6.863281 15.332031 15.332031zm0 0"/><path d="m137.660156 471.25c0 8.464844-6.867187 15.332031-15.332031 15.332031-8.46875 0-15.332031-6.867187-15.332031-15.332031 0-8.46875 6.863281-15.332031 15.332031-15.332031 8.464844 0 15.332031 6.863281 15.332031 15.332031zm0 0"/><path d="m399.773438 415.0625c0 8.464844-6.863282 15.328125-15.332032 15.328125-8.464844 0-15.332031-6.863281-15.332031-15.328125 0-8.46875 6.867187-15.332031 15.332031-15.332031 8.46875 0 15.332032 6.863281 15.332032 15.332031zm0 0"/><path d="m399.773438 471.25c0 8.464844-6.863282 15.332031-15.332032 15.332031-8.464844 0-15.332031-6.867187-15.332031-15.332031 0-8.46875 6.867187-15.332031 15.332031-15.332031 8.46875 0 15.332032 6.863281 15.332032 15.332031zm0 0"/></g><path d="m462.109375 309.839844c24.351563 0 44.160156-19.8125 44.160156-44.160156v-49.375c0-24.347657-19.808593-44.15625-44.160156-44.15625h-7.382813c-3.054687-18.273438-16.726562-32.992188-34.445312-37.5625-1.152344-26.648438-15.429688-51.179688-37.683594-65.472657l.09375-.089843c4.507813-4.1875 5.757813-10.503907 3.183594-16.09375-2.570312-5.589844-8.1875-8.757813-14.296875-8.050782 0 0-32.648437 3.703125-33.070313 3.703125-.421874 0-33.074218-3.703125-33.074218-3.703125-14.757813-.691406-15.75 12.730469-15.5625 15.0625-11.28125-5.449218-23.648438-8.28125-36.484375-8.28125-11.859375 0-23.574219 2.507813-34.316407 7.300782-.214843-.566407-.433593-1.125-.632812-1.707032-3.472656-10.007812-10.488281-17.960937-20.4375-23.304687l.46875-1.816407c1.722656-6.636718.757812-13.546874-2.714844-19.460937-3.476562-5.910156-9.046875-10.117187-15.683594-11.839844-6.640624-1.71875-13.550781-.7578122-19.460937 2.71875-5.914063 3.476563-10.117187 9.046875-11.839844 15.683594l-.46875 1.816406c-11.285156-.164062-21.316406 3.394531-29.195312 10.425781-5.660157 5.054688-11.707031 8.660157-17.972657 10.71875-6.085937 2-10.5625 6.933594-11.96875 13.195313-1.40625 6.269531.53125 12.648437 5.1875 17.070313 2.035157 1.933593 4.304688 3.898437 6.785157 5.804687-9.476563 19.203125-16.667969 38.886719-21.429688 58.644531-14.355469 6.195313-25.007812 19.375-27.660156 35.234375h-7.382813c-5.835937 0-11.511718 1.121094-16.863281 3.335938-3.828125 1.582031-5.648437 5.96875-4.066406 9.796875 1.585937 3.828125 5.972656 5.648437 9.796875 4.0625 3.527344-1.457032 7.269531-2.195313 11.128906-2.195313h417.453125c16.078125 0 29.160157 13.082031 29.160157 29.160157v49.375c0 16.074218-13.082032 29.15625-29.160157 29.15625h-417.453125c-16.078125 0-29.160156-13.082032-29.160156-29.15625v-49.375c0-3.808594.71875-7.503907 2.140625-10.988282 1.5625-3.839844-.28125-8.214844-4.117187-9.777344-3.835938-1.558593-8.214844.285157-9.777344 4.117188-2.152344 5.292969-3.246094 10.894531-3.246094 16.648438v49.375c0 24.347656 19.808594 44.15625 44.160156 44.15625h6.730469v64.472656h-6.730469c-24.351562 0-44.160156 19.808594-44.160156 44.15625v49.375c0 24.351562 19.808594 44.160156 44.160156 44.160156h417.449219c24.347656 0 44.160156-19.808594 44.160156-44.160156v-49.375c0-24.347656-19.8125-44.15625-44.160156-44.15625h-6.730469v-64.46875zm-22.6875-137.691406h-109.960937c3.464843-13.796876 15.96875-24.039063 30.820312-24.039063h48.320312c14.855469 0 27.355469 10.242187 30.820313 24.039063zm-34.246094-39.039063h-44.894531c-23.15625 0-42.425781 16.914063-46.125 39.039063h-33.179688c-6.109374-10.289063-9.332031-21.984376-9.332031-34.074219 0-21.339844 10.359375-41.3125 27.175781-53.785157l-3.222656 6.574219c-2.542968 5.1875-1.445312 11.351563 2.738282 15.339844 4.179687 3.984375 10.390624 4.796875 15.453124 2.007813l19.492188-10.738282c3.269531-1.800781 7.179688-1.800781 10.449219 0l19.492187 10.738282c7.445313 3.554687 12.933594.394531 15.457032-2.007813 4.179687-3.988281 5.28125-10.152344 2.738281-15.339844l-3.222657-6.574219c15.5 11.5 25.511719 29.375 26.980469 48.820313zm-69.632812-69.695313c1.96875.226563 3.960937.226563 5.925781 0l28.761719-3.285156s-15.589844 8.503906-8.351563 24.953125l3.53125 7.207031-14.441406-7.957031c-7.800781-4.296875-17.121094-4.296875-24.925781 0l-14.4375 7.957031 3.527343-7.207031c6.984376-15.507812-8.351562-24.953125-8.351562-24.953125zm-82.15625 3.246094c11.695312 0 22.914062 2.867188 32.964843 8.347656-18.480468 15.363282-29.707031 38.476563-29.707031 63.066407 0 11.878906 2.550781 23.449219 7.421875 34.070312h-59.765625c-1.859375-18.410156-1.667969-48.597656 3.21875-64.792969 4.53125-.445312 8.792969-1.261718 12.613281-2.246093 6.21875-1.597657 10.707032-6.328125 12.835938-12.394531 4.21875-12.019532-5.84375-19.417969-6.683594-20.523438 8.519532-3.625 17.753906-5.527344 27.101563-5.527344zm-94-28.636718 3.898437-15.019532c.71875-2.761718 4.394532-9.507812 13.015625-7.648437 8.617188 1.855469 8.363281 10.25 7.648438 13.011719l-3.898438 15.019531c-1.480469 5.695312-7.425781 9.488281-13.011719 7.648437-8.433593-2.777344-8.367187-10.253906-7.652343-13.011718zm-55.589844 20.65625c.140625-.636719 14.597656-4.273438 25.296875-16.015626 3.824219-4.195312 9.386719-5.957031 15.363281-6.5-1.09375 6.039063-2.011719 23.605469 18.8125 29.390626 15.375 4.273437 27.140625-6.035157 30.730469-16.535157 4.957031 3.378907 8.742188 7.671875 10.265625 13.15625 3.652344 13.167969 14.5 25.671875 14.316406 26.292969-.183593.625-21.492187 13.902344-47.808593-6.140625-6.402344-4.875-14.191407-6.253906-22.214844-5.765625-33.414063 2.03125-44.90625-17.246094-44.761719-17.882812zm10.140625 27.539062c10.28125 4.960938 22.808594 7.757812 37.328125 5.097656 3.546875-.65625 7.179687.289063 9.964844 2.585938 10.117187 8.339844 20.957031 12.140625 31.238281 13.355468-2.808594 11.425782-4.597656 36.996094-4.074219 51.878907-7.660156-15.410157-23.5625-26.027344-41.910156-26.027344 0 0-49.664063.023437-50.332031.050781 4.3125-15.792968 10.269531-31.515625 17.785156-46.941406zm-15.769531 61.890625h48.316406c14.855469 0 27.359375 10.242187 30.824219 24.039063h-109.960938c3.464844-13.796876 15.964844-24.039063 30.820313-24.039063zm-31.777344 161.730469h111.875v64.46875h-111.875zm424.878906 108.628906v49.375c0 16.078125-13.082031 29.15625-29.160156 29.15625h-417.449219c-16.078125 0-29.160156-13.078125-29.160156-29.15625v-49.375c0-16.078125 13.082031-29.160156 29.160156-29.160156h224.296875c4.140625 0 7.5-3.355469 7.5-7.5 0-4.140625-3.359375-7.5-7.5-7.5h-75.691406v-64.46875h120.238281v64.46875h-13.089844c-4.140624 0-7.5 3.359375-7.5 7.5 0 4.144531 3.359376 7.5 7.5 7.5h161.695313c16.078125 0 29.160156 13.082031 29.160156 29.160156zm-50.890625-44.160156h-111.875v-64.46875h111.875zm0 0"/><path d="m122.328125 235.730469c12.585937 0 22.828125-10.242188 22.828125-22.832031 0-12.589844-10.242188-22.832032-22.828125-22.832032-12.589844 0-22.832031 10.242188-22.832031 22.832032 0 12.589843 10.242187 22.832031 22.832031 22.832031zm0-30.664063c4.316406 0 7.828125 3.515625 7.828125 7.832032 0 4.316406-3.511719 7.832031-7.828125 7.832031-4.320313 0-7.832031-3.515625-7.832031-7.832031 0-4.316407 3.511718-7.832032 7.832031-7.832032zm0 0"/><path d="m122.328125 291.917969c12.585937 0 22.828125-10.242188 22.828125-22.832031 0-12.589844-10.242188-22.828126-22.828125-22.828126-12.589844 0-22.832031 10.238282-22.832031 22.828126 0 12.589843 10.242187 22.832031 22.832031 22.832031zm0-30.664063c4.316406 0 7.828125 3.515625 7.828125 7.832032 0 4.320312-3.511719 7.832031-7.828125 7.832031-4.320313 0-7.832031-3.511719-7.832031-7.832031 0-4.316407 3.511718-7.832032 7.832031-7.832032zm0 0"/><path d="m384.441406 235.730469c12.589844 0 22.832032-10.242188 22.832032-22.832031 0-12.589844-10.242188-22.832032-22.832032-22.832032-12.585937 0-22.828125 10.242188-22.828125 22.832032 0 12.589843 10.242188 22.832031 22.828125 22.832031zm0-30.664063c4.320313 0 7.832032 3.515625 7.832032 7.832032 0 4.316406-3.511719 7.832031-7.832032 7.832031-4.316406 0-7.828125-3.515625-7.828125-7.832031 0-4.316407 3.511719-7.832032 7.828125-7.832032zm0 0"/><path d="m384.441406 291.917969c12.589844 0 22.832032-10.242188 22.832032-22.832031 0-12.589844-10.242188-22.828126-22.832032-22.828126-12.585937 0-22.828125 10.238282-22.828125 22.828126 0 12.589843 10.242188 22.832031 22.828125 22.832031zm0-30.664063c4.320313 0 7.832032 3.515625 7.832032 7.832032 0 4.320312-3.511719 7.832031-7.832032 7.832031-4.316406 0-7.828125-3.511719-7.828125-7.832031 0-4.316407 3.511719-7.832032 7.828125-7.832032zm0 0"/><path d="m122.328125 392.230469c-12.589844 0-22.832031 10.242187-22.832031 22.832031 0 12.585938 10.242187 22.828125 22.832031 22.828125 12.585937 0 22.828125-10.242187 22.828125-22.828125 0-12.589844-10.242188-22.832031-22.828125-22.832031zm0 30.660156c-4.320313 0-7.832031-3.511719-7.832031-7.828125s3.511718-7.832031 7.832031-7.832031c4.316406 0 7.828125 3.515625 7.828125 7.832031.003906 4.316406-3.511719 7.828125-7.828125 7.828125zm0 0"/><path d="m122.328125 448.417969c-12.589844 0-22.832031 10.242187-22.832031 22.832031s10.242187 22.832031 22.832031 22.832031c12.585937 0 22.828125-10.242187 22.828125-22.832031s-10.242188-22.832031-22.828125-22.832031zm0 30.664062c-4.320313 0-7.832031-3.515625-7.832031-7.832031s3.511718-7.832031 7.832031-7.832031c4.316406 0 7.828125 3.515625 7.828125 7.832031s-3.511719 7.832031-7.828125 7.832031zm0 0"/><path d="m384.441406 437.890625c12.589844 0 22.832032-10.242187 22.832032-22.828125 0-12.589844-10.242188-22.832031-22.832032-22.832031-12.585937 0-22.828125 10.242187-22.828125 22.832031 0 12.585938 10.242188 22.828125 22.828125 22.828125zm0-30.660156c4.320313 0 7.832032 3.515625 7.832032 7.832031s-3.511719 7.828125-7.832032 7.828125c-4.316406 0-7.828125-3.511719-7.828125-7.828125 0-4.320312 3.511719-7.832031 7.828125-7.832031zm0 0"/><path d="m384.441406 494.082031c12.589844 0 22.832032-10.242187 22.832032-22.832031s-10.242188-22.832031-22.832032-22.832031c-12.585937 0-22.828125 10.242187-22.828125 22.832031s10.242188 22.832031 22.828125 22.832031zm0-30.664062c4.320313 0 7.832032 3.515625 7.832032 7.832031s-3.511719 7.832031-7.832032 7.832031c-4.316406 0-7.828125-3.515625-7.828125-7.832031s3.511719-7.832031 7.828125-7.832031zm0 0"/></svg>