<svg height="512pt" viewBox="-91 0 512 512.001" width="512pt" xmlns="http://www.w3.org/2000/svg"><path d="m69.152344 126.257812c33.367187 33.476563 80.132812 40.964844 104.460937 16.71875 24.324219-24.242187 17-71.035156-16.367187-104.515624-33.363282-33.476563-80.132813-40.960938-104.457032-16.71875-24.328124 24.246093-17 71.039062 16.363282 104.515624zm0 0" fill="#29ce69"/><path d="m153.457031 34.828125c-11.011719 10.734375-28.582031 32.660156-33.871093 67.003906-3.277344 21.28125-10.085938 36.832031-16.925782 47.757813 26.476563 11.753906 54.101563 10.195312 70.953125-6.601563 24.328125-24.246093 17-71.039062-16.367187-104.515625-1.246094-1.25-2.503906-2.464844-3.789063-3.644531zm0 0" fill="#00c140"/><path d="m97.613281 66.726562c7.707031-7.683593 20.183594-7.660156 27.867188.046876l58.992187 59.191406c-2.375 6.390625-5.980468 12.152344-10.859375 17.015625-4.878906 4.863281-10.652343 8.449219-17.050781 10.804687l-58.996094-59.195312c-7.683594-7.707032-7.660156-20.183594.046875-27.863282zm0 0" fill="#00a62c"/><path d="m119.585938 101.824219c-.675782 4.378906-1.496094 8.507812-2.4375 12.414062l39.414062 39.546875c6.398438-2.355468 12.171875-5.941406 17.050781-10.804687 4.878907-4.863281 8.484375-10.625 10.859375-17.015625l-55.585937-55.773438c-4.070313 9.050782-7.441407 19.574219-9.300781 31.632813zm0 0" fill="#008c1c"/><path d="m187.972656 260.320312h-46.359375v-152.949218l46.359375 18.457031zm0 0" fill="#b9ecc2"/><path d="m266.890625 299.792969c0-38.878907-45.710937-70.394531-102.097656-70.394531s-102.097657 31.515624-102.097657 70.394531c0 38.875 45.710938 70.390625 102.097657 70.390625s102.097656-31.515625 102.097656-70.390625zm0 0" fill="#e7896e"/><path d="m167.84375 264.894531c-14.230469-3.496093-15.558594-23.097656-1.957031-28.542969 11.386719-4.558593 22.238281-5.105468 22.238281-5.105468-7.496094-1.207032-15.304688-1.847656-23.332031-1.847656-56.386719 0-102.097657 31.515624-102.097657 70.394531 0 38.875 45.710938 70.390625 102.097657 70.390625 46.332031 0 85.457031-21.277344 97.933593-50.433594-29.617187-33.789062-69.167968-48.539062-94.882812-54.855469zm0 0" fill="#dd6642"/><path d="m32.984375 325.238281 31.496094 148.457031c3.8125 17.960938 19.667969 30.804688 38.027343 30.804688h124.570313c18.359375 0 34.21875-12.84375 38.027344-30.804688l31.5-148.457031zm0 0" fill="#ffbe73"/><path d="m167.609375 406.980469c60.183594-12.324219 119.457031-36.792969 119.457031-36.792969l9.539063-44.949219h-263.621094l31.496094 148.457031c3.8125 17.960938 19.667969 30.804688 38.027343 30.804688h49.644532c-9.214844-11.492188-15.4375-24.695312-19.621094-37.421875-8.699219-26.433594 7.816406-54.515625 35.078125-60.097656zm0 0" fill="#ffa93f"/><path d="m287.71875 346.578125h-245.855469c-18.976562 0-34.363281-15.386719-34.363281-34.363281 0-18.980469 15.386719-34.367188 34.363281-34.367188h245.855469c18.980469 0 34.367188 15.386719 34.367188 34.367188 0 18.976562-15.386719 34.363281-34.367188 34.363281zm0 0" fill="#f9ee80"/><path d="m95.488281 312.214844c0-18.980469 15.386719-34.367188 34.367188-34.367188h-87.988281c-18.980469 0-34.367188 15.386719-34.367188 34.367188 0 18.976562 15.386719 34.363281 34.367188 34.363281h87.988281c-18.980469 0-34.367188-15.386719-34.367188-34.363281zm0 0" fill="#eedb00"/><path d="m260.394531 126.335938c33.421875-33.421876 40.828125-80.203126 16.542969-104.488282s-71.066406-16.878906-104.488281 16.542969c-33.417969 33.417969-40.824219 80.199219-16.539063 104.484375s71.0625 16.878906 104.484375-16.539062zm0 0" fill="#73da8c"/><path d="m232.039062 66.75c-7.695312-7.691406-20.171874-7.691406-27.867187 0l-59.09375 59.097656c2.367187 6.390625 5.960937 12.160156 10.832031 17.03125s10.640625 8.464844 17.035156 10.832032l59.09375-59.09375c7.695313-7.695313 7.695313-20.171876 0-27.867188zm0 0" fill="#29ce69"/><path d="m108.976562 413.324219c0-9.078125-9.238281-16.4375-20.640624-16.4375-11.398438 0-20.636719 7.359375-20.636719 16.4375s9.238281 16.4375 20.636719 16.4375c11.402343 0 20.640624-7.359375 20.640624-16.4375zm0 0" fill="#ff83b4"/><path d="m261.890625 413.324219c0-9.078125-9.242187-16.4375-20.640625-16.4375-11.402344 0-20.640625 7.359375-20.640625 16.4375s9.238281 16.4375 20.640625 16.4375c11.398438 0 20.640625-7.359375 20.640625-16.4375zm0 0" fill="#ff83b4"/><path d="m226.597656 404.691406c4.144532 0 7.5-3.359375 7.5-7.5v-12.453125c0-4.140625-3.355468-7.5-7.5-7.5-4.144531 0-7.5 3.359375-7.5 7.5v12.453125c0 4.140625 3.359375 7.5 7.5 7.5zm0 0"/><path d="m102.988281 404.691406c4.144531 0 7.5-3.359375 7.5-7.5v-12.453125c0-4.140625-3.355469-7.5-7.5-7.5-4.140625 0-7.5 3.359375-7.5 7.5v12.453125c0 4.140625 3.359375 7.5 7.5 7.5zm0 0"/><path d="m164.792969 407.460938c7.140625 0 13.738281-3.5625 17.660156-9.527344 2.273437-3.460938 1.3125-8.113282-2.152344-10.386719-1.269531-.832031-6.878906-2.992187-10.382812 2.152344-1.683594 2.464843-4.128907 2.761719-5.125 2.761719-.992188 0-3.484375-.269532-5.121094-2.761719-2.277344-3.460938-6.925781-4.425781-10.386719-2.152344-3.460937 2.273437-4.425781 6.925781-2.152344 10.386719 3.921876 5.964844 10.523438 9.527344 17.660157 9.527344zm0 0"/><path d="m329.585938 312.214844c0-23.085938-18.777344-41.867188-41.863282-41.867188h-21.375c-12.699218-22.296875-39.0625-38.816406-70.875-45.359375v-60.347656c3.402344-.105469 6.878906-.421875 10.429688-.984375 21.285156-3.371094 42.523437-14.742188 59.800781-32.015625 9.710937-9.710937 17.523437-20.597656 23.21875-32.347656 1.808594-3.730469.25-8.214844-3.476563-10.023438-3.726562-1.804687-8.214843-.246093-10.019531 3.480469-4.964843 10.242188-11.804687 19.757812-20.332031 28.28125-20.445312 20.449219-46.15625 30.492188-67.296875 28.433594l49.546875-49.546875c10.605469-10.605469 11.371094-28.691407-.003906-38.46875-15.6875-13.488281-33.332032-5.140625-38.472656-.003907l-49.542969 49.546876c-.09375-.980469-4.246094-33.929688 28.433593-67.296876 14.894532-15.210937 33.351563-24.929687 51.539063-27.808593 17.296875-2.738281 32.335937 1.261719 42.339844 11.265625 9.214843 9.210937 13.386719 22.945312 11.746093 38.667968-.429687 4.121094 2.5625 7.808594 6.683594 8.238282 4.117188.429687 7.808594-2.5625 8.238282-6.683594 2.113281-20.308594-3.589844-38.359375-16.0625-50.832031-10.820313-10.820313-25.609376-16.5078128-42.480469-16.5078128-43.054688 0-74.175781 34.6562498-74.941407 35.4648438-.746093-.785156-31.632812-35.5-74.953124-35.5-16.820313 0-31.5625 5.660156-42.375 16.4375-13.507813 13.464844-19.039063 33.09375-15.566407 55.265625 3.335938 21.296875 14.667969 42.550781 31.917969 59.855469 20.195312 20.261718 46.125 32.40625 70.273438 33.121094v60.359374c-31.6875 6.582032-58.21875 23.117188-70.882813 45.308594h-21.367187c-23.085938 0-41.867188 18.78125-41.867188 41.867188 0 19.15625 13.058594 35.6875 31.140625 40.46875l26.003906 122.570312c4.519531 21.292969 23.597657 36.746094 45.363281 36.746094h124.570313c21.769531 0 40.847656-15.453125 45.367187-36.746094l26.003907-122.574218c17.902343-4.75 31.136719-21.089844 31.136719-40.464844zm-120.109376-240.160156c4.757813-4.757813 12.5-4.757813 17.257813 0 4.761719 4.757812 4.761719 12.5 0 17.257812l-55.488281 55.488281c-11.308594-3.644531-15.386719-13.574219-17.257813-17.257812zm-75.359374 48.585937-31.238282-31.34375c-2.300781-2.308594-6.863281-10.710937.027344-17.257813 6.894531-6.550781 14.957031-2.28125 17.261719.027344l15.890625 15.945313c-2.339844 13.507812-1.941406 32.628906-1.941406 32.628906zm-59.652344.328125c-15.027344-15.078125-24.871094-33.398438-27.71875-51.585938-2.710938-17.304687 1.3125-32.335937 11.335937-42.320312 10.019531-9.988281 25.210938-14.761719 42.359375-11.195312 34.871094 7.25 53.617188 30.078124 54.644532 31.199218-5.808594 7.835938-10.515626 16.179688-13.996094 24.746094l-10.300782-10.332031c-5.128906-5.148438-22.902343-16.09375-38.46875-.066407-15.570312 16.027344-5.195312 33.324219-.066406 38.472657l41.863282 42v7.78125c-20.242188-.738281-42.234376-11.222657-59.652344-28.699219zm74.648437 25.621094c.496094.535156 9.445313 13.972656 31.359375 16.960937v59.152344c-5.140625-.519531-10.375-.804687-15.679687-.804687-5.296875 0-10.53125.285156-15.679688.816406zm15.679688 90.308594c34.925781 0 67.113281 13.308593 83.425781 33.449218h-166.90625c16.308594-20.34375 48.246094-33.449218 83.480469-33.449218zm122.929687 102.179687h-219.042968c-4.144532 0-7.5 3.359375-7.5 7.5 0 4.144531 3.355468 7.5 7.5 7.5h214.140624l-25.050781 118.058594c-3.054687 14.40625-15.964843 24.863281-30.691406 24.863281h-124.570313c-14.726562 0-27.632812-10.457031-30.691406-24.863281l-27.03125-127.402344-.007812.003906c-.644532-3.027343-3.128906-5.460937-6.375-5.878906-13.339844-1.710937-23.402344-13.167969-23.402344-26.644531 0-14.8125 12.050781-26.867188 26.867188-26.867188h245.855468c14.8125 0 26.863282 12.054688 26.863282 26.867188s-12.050782 26.863281-26.863282 26.863281zm0 0"/></svg>