<svg height="512pt" viewBox="-54 0 512 512" width="512pt" xmlns="http://www.w3.org/2000/svg"><path d="m12.0625 415.496094s2.222656 31.214844 23.164062 67.949218c7.378907 12.941407 21.078126 20.996094 35.972657 20.996094l248.492187.058594c23.101563.007812 41.832032-18.722656 41.832032-41.824219v-70.421875zm0 0" fill="#6a829a"/><path d="m250.492188 452.566406c-6.355469 18.875-11.078126 36.167969-14.523438 51.914063l83.71875.019531c23.105469.007812 41.835938-18.722656 41.835938-41.824219v-70.425781l-97.003907 6.453125c-3.558593 18.273437-8.148437 36.417969-14.027343 53.863281zm0 0" fill="#516980"/><path d="m118.703125 89.078125s11.019531 79.453125-.628906 148.304687c-10.160157 60.042969-65.828125 82.160157-65.828125 82.160157-65.324219 29.625-40.183594 95.953125-40.183594 95.953125 12.472656 34.609375 47.707031 55.585937 84.0625 49.953125 41.328125-6.402344 95.449219-13.285157 137.113281-13.285157 26.339844 0 49.53125 2.75 68.695313 6.390626 30.929687 5.875 59.589844-17.722657 59.589844-49.203126v-330.582031zm0 0" fill="#73da8c"/><path d="m123.109375 146.667969c.003906 0 39.660156 14.863281 88.96875 24.652343 35.625 7.070313 61.75 37.574219 63.007813 73.871094 1.929687 55.648438-.941407 137.164063-24.59375 207.375 19.292968.882813 36.582031 3.164063 51.441406 5.988282 30.929687 5.875 59.589844-17.722657 59.589844-49.203126v-330.582031l-242.820313 10.308594s3.363281 24.265625 4.40625 57.589844zm0 0" fill="#29ce69"/><path d="m346.40625 109.832031h-209.109375c-28.257813 0-51.164063-22.90625-51.164063-51.167969 0-28.257812 22.90625-51.164062 51.164063-51.164062h209.109375c28.257812 0 51.164062 22.90625 51.164062 51.164062 0 28.261719-22.90625 51.167969-51.164062 51.167969zm0 0" fill="#889cb0"/><path d="m346.40625 7.5h-91.121094c28.257813 0 51.164063 22.90625 51.164063 51.164062 0 28.257813-22.90625 51.164063-51.164063 51.164063h91.121094c28.257812 0 51.164062-22.90625 51.164062-51.164063 0-28.257812-22.90625-51.164062-51.164062-51.164062zm0 0" fill="#6a829a"/><path d="m301.9375 458.554688c30.925781 5.875 59.585938-17.722657 59.585938-49.203126v-86.003906c-40.484376-17.167968-89-10.5625-123.703126 20.925782-31.394531 28.488281-43.625 70.191406-35.929687 108.949218 10.917969-.671875 21.492187-1.058594 31.351563-1.058594 26.335937 0 49.527343 2.75 68.695312 6.390626zm0 0" fill="#f9ee80"/><path d="m274.082031 321.875c-2.675781 42.273438-9.382812 88.523438-23.589843 130.691406 19.292968.882813 36.582031 3.164063 51.441406 5.984375 30.929687 5.875 59.589844-17.722656 59.589844-49.203125v-86.003906c-27.71875-11.753906-59.203126-12.363281-87.441407-1.46875zm0 0" fill="#eedb00"/><path d="m405.070312 58.664062c0-32.347656-26.316406-58.664062-58.664062-58.664062h-209.109375c-32.347656 0-58.664063 26.316406-58.664063 58.664062 0 23.921876 14.398438 44.527344 34.972657 53.652344 2.398437 28.296875 4.742187 78.476563-2.925781 123.8125-9.304688 54.984375-60.699219 76.238282-61.203126 76.441406-.109374.046876-.21875.089844-.328124.140626-37.023438 16.792968-47.058594 44.738281-48.957032 65.222656-1.769531 19.050781 8.886719 74.785156 28.519532 109.226562 8.710937 15.285156 24.992187 24.78125 42.484374 24.78125l248.492188.058594h.011719c13.171875 0 25.558593-5.128906 34.875-14.441406 9.316406-9.316406 14.449219-21.707032 14.449219-34.882813v-349.886719c21.152343-8.871093 36.046874-29.789062 36.046874-54.125zm-51.046874 404.011719c0 9.171875-3.570313 17.789063-10.058594 24.273438-6.480469 6.480469-15.097656 10.050781-24.265625 10.050781-.003907 0-.003907 0-.007813 0l-248.492187-.058594c-12.121094 0-23.40625-6.597656-29.457031-17.210937-5.1875-9.097657-9.269532-18.085938-12.453126-26.429688 15.109376 13.015625 34.617188 20.554688 55.113282 20.554688 30.867187 0 79.582031-14.191407 148.835937-14.191407 22.785157 0 45.429688 2.105469 67.296875 6.257813 16.984375 3.230469 34.351563-1.234375 47.644532-12.238281 2.097656-1.738282 4.035156-3.621094 5.84375-5.601563zm0-150.113281c-10.671876-3.4375-21.746094-5.402344-33.050782-5.859375-.105468-.003906-.207031-.007813-.308594-.007813-4.003906 0-7.328124 3.164063-7.492187 7.199219-.164063 4.136719 3.054687 7.628907 7.191406 7.796875 11.578125.464844 22.878907 2.734375 33.660157 6.742188v80.917968c0 12.722657-5.617188 24.667969-15.410157 32.777344-9.839843 8.144532-22.699219 11.445313-35.277343 9.058594-22.789063-4.328125-46.375-6.523438-70.097657-6.523438-7.964843 0-16.382812.25-25.058593.699219-2.210938-16.128906-.804688-32.65625 4.160156-48.179687 5.789062-18.117188 16.34375-34.492188 30.519531-47.355469 13.769531-12.496094 30.566406-21.292969 48.574219-25.441406 4.035156-.929688 6.554687-4.957031 5.625-8.992188-.933594-4.039062-4.957032-6.558593-8.992188-5.625-20.5 4.722657-39.621094 14.734375-55.289062 28.953125-16.125 14.632813-28.132813 33.269532-34.722656 53.894532-5.53125 17.300781-7.183594 35.699218-4.878907 53.691406-34.027343 2.492187-70.277343 7.40625-98.195312 11.730468-32.714844 5.070313-64.621094-13.894531-75.863281-45.085937-.011719-.027344-.027344-.070313-.035157-.101563-.914062-2.441406-21.683593-60.09375 36.121094-86.414062 4.308594-1.753906 59.71875-25.484375 70.265625-87.804688 7.445312-44.015624 5.804688-92.121093 3.542969-121.898437 2.710937.386719 28.460937.597656 28.460937.597656 4.144532 0 7.5-3.355469 7.5-7.5s-3.355468-7.5-7.5-7.5h-20.171875c-24.078125 0-43.667969-19.589843-43.667969-43.664062 0-24.078125 19.589844-43.667969 43.664063-43.667969h209.109375c24.078125 0 43.664062 19.589844 43.664062 43.664062 0 24.078126-19.585937 43.667969-43.664062 43.667969h-158.859375c-4.140625 0-7.5 3.355469-7.5 7.5 0 4.140625 3.359375 7.5 7.5 7.5 0 0 163.980469-.1875 166.476563-.511719zm0 0"/></svg>