<svg height="512pt" viewBox="-52 0 512 512" width="512pt" xmlns="http://www.w3.org/2000/svg"><path d="m235.320312 363.65625h-62.023437v-325.144531c0-17.128907 13.882813-31.011719 31.011719-31.011719 17.125 0 31.011718 13.882812 31.011718 31.011719zm0 0" fill="#e7896e"/><path d="m204.308594 232.449219c-13.824219-2.875-23.839844-7.042969-31.011719-11.203125v142.414062h62.019531v-119.671875c-10.945312-5.339843-21.695312-9.601562-31.007812-11.539062zm0 0" fill="#dd6642"/><path d="m260.367188 413.660156h-112.121094v-95.039062c0-16.890625 13.691406-30.582032 30.578125-30.582032h50.964843c16.890626 0 30.578126 13.691407 30.578126 30.582032zm0 0" fill="#73da8c"/><path d="m229.789062 288.039062h-50.964843c-16.886719 0-30.578125 13.691407-30.578125 30.578126v95.039062h103.125c-21.542969-32.71875-54.609375-52.414062-57.261719-81.589844-3.757813-41.332031 35.679687-44.027344 35.679687-44.027344zm0 0" fill="#29ce69"/><g fill="#889cb0"><path d="m350.757812 504.5c-11.152343 0-20.191406-9.039062-20.191406-20.1875v-62.824219h40.378906v62.824219c0 11.148438-9.039062 20.1875-20.1875 20.1875zm0 0"/><path d="m277.53125 504.5c-11.148438 0-20.1875-9.039062-20.1875-20.1875v-62.824219h40.378906v62.824219c0 11.148438-9.039062 20.1875-20.191406 20.1875zm0 0"/><path d="m204.308594 504.5c-11.152344 0-20.191406-9.039062-20.191406-20.1875v-62.824219h40.378906v62.824219c0 11.148438-9.039063 20.1875-20.1875 20.1875zm0 0"/><path d="m131.082031 504.5c-11.148437 0-20.1875-9.039062-20.1875-20.1875v-62.824219h40.375v62.824219c0 11.148438-9.039062 20.1875-20.1875 20.1875zm0 0"/><path d="m57.855469 504.5c-11.148438 0-20.1875-9.039062-20.1875-20.1875v-62.824219h40.378906v62.824219c0 11.148438-9.039063 20.1875-20.191406 20.1875zm0 0"/></g><path d="m330.566406 421.488281h40.378906v49.375h-40.378906zm0 0" fill="#6a829a"/><path d="m257.34375 421.488281h40.378906v49.375h-40.378906zm0 0" fill="#6a829a"/><path d="m184.117188 421.488281h40.378906v49.375h-40.378906zm0 0" fill="#6a829a"/><path d="m110.894531 421.488281h40.375v49.375h-40.375zm0 0" fill="#6a829a"/><path d="m37.667969 421.488281h40.378906v49.375h-40.378906zm0 0" fill="#6a829a"/><path d="m376.960938 440.121094h-345.308594c-13.339844 0-24.152344-10.8125-24.152344-24.152344s10.8125-24.152344 24.152344-24.152344h345.308594c13.339843 0 24.152343 10.8125 24.152343 24.152344s-10.8125 24.152344-24.152343 24.152344zm0 0" fill="#a7b6c5"/><path d="m86.691406 418.167969c0-13.339844 10.816406-24.152344 24.152344-24.152344h-79.191406c-13.339844 0-24.152344 10.8125-24.152344 24.152344 0 13.339843 10.8125 24.152343 24.152344 24.152343h79.191406c-13.335938 0-24.152344-10.8125-24.152344-24.152343zm0 0" fill="#889cb0"/><path d="m408.613281 415.96875c0-17.453125-14.199219-31.652344-31.652343-31.652344h-109.09375v-65.695312c0-16.421875-10.449219-30.449219-25.046876-35.78125v-149.558594c0-4.140625-3.359374-7.5-7.5-7.5-4.144531 0-7.5 3.359375-7.5 7.5v147.257812h-47.023437v-242.027343c0-12.964844 10.546875-23.511719 23.511719-23.511719 12.960937 0 23.511718 10.546875 23.511718 23.511719v62.066406c0 4.144531 3.355469 7.5 7.5 7.5 4.140626 0 7.5-3.355469 7.5-7.5v-62.066406c0-21.234375-17.277343-38.511719-38.511718-38.511719-21.238282 0-38.511719 17.277344-38.511719 38.511719v244.328125c-14.601563 5.332031-25.050781 19.355468-25.050781 35.777344v65.699218h-64.28125c-4.144532 0-7.5 3.355469-7.5 7.5 0 4.144532 3.355468 7.5 7.5 7.5h300.496094c9.183593 0 16.652343 7.46875 16.652343 16.652344 0 9.179688-7.46875 16.652344-16.652343 16.652344h-345.308594c-9.183594 0-16.652344-7.472656-16.652344-16.652344 0-9.183594 7.46875-16.652344 16.652344-16.652344h13.097656c4.140625 0 7.5-3.355468 7.5-7.5 0-4.144531-3.359375-7.5-7.5-7.5h-13.097656c-17.453125 0-31.652344 14.199219-31.652344 31.652344 0 16.953125 13.402344 30.835938 30.167969 31.613281v36.726563c0 15.269531 12.421875 27.691406 27.6875 27.691406 15.269531 0 27.691406-12.421875 27.691406-27.691406v-36.6875h17.847656v36.6875c0 15.269531 12.417969 27.691406 27.6875 27.691406s27.6875-12.421875 27.6875-27.691406v-36.6875h17.847657v36.6875c0 15.269531 12.421874 27.691406 27.691406 27.691406 15.265625 0 27.6875-12.421875 27.6875-27.6875v-36.691406h17.847656v36.691406c0 15.265625 12.421875 27.6875 27.6875 27.6875 15.269531 0 27.691406-12.421875 27.691406-27.6875v-36.691406h17.84375v36.691406c0 15.265625 12.421875 27.6875 27.691406 27.6875 15.265626 0 27.6875-12.421875 27.6875-27.6875v-36.726562c16.765626-.78125 30.167969-14.660157 30.167969-31.617188zm-252.867187-97.351562c0-11.3125 8.1875-20.746094 18.949218-22.699219.050782-.011719.101563-.015625.148438-.027344 1.292969-.226563 2.625-.351563 3.980469-.351563h50.964843c1.359376 0 2.6875.125 3.980469.351563.050781.007813.097657.015625.148438.027344 10.761719 1.953125 18.949219 11.386719 18.949219 22.699219v65.699218h-97.121094zm-85.199219 165.695312c0 6.996094-5.691406 12.6875-12.691406 12.6875-6.996094 0-12.6875-5.691406-12.6875-12.6875v-36.691406h25.378906zm73.222656 0c0 6.996094-5.691406 12.6875-12.6875 12.6875-6.996093 0-12.6875-5.691406-12.6875-12.6875v-36.691406h25.375zm73.226563 0c0 6.996094-5.691406 12.6875-12.6875 12.6875-7 0-12.691406-5.691406-12.691406-12.6875v-36.691406h25.378906zm73.226562 0c0 6.996094-5.695312 12.6875-12.691406 12.6875s-12.6875-5.691406-12.6875-12.6875v-36.691406h25.378906zm60.535156 12.6875c-6.996093 0-12.691406-5.691406-12.691406-12.6875v-36.691406h25.378906v36.691406c0 6.996094-5.691406 12.6875-12.6875 12.6875zm0 0"/></svg>