<svg height="511pt" viewBox="0 -21 511.99988 511" width="511pt" xmlns="http://www.w3.org/2000/svg"><path d="m361.503906 91.304688c-28.070312-2.609376-55.230468 3.386718-79.511718 16.089843-16.304688 8.53125-35.679688 8.53125-51.984376 0-24.28125-12.699219-51.441406-18.699219-79.515624-16.089843-87.964844 8.179687-151.558594 97.773437-142.042969 200.109374 9.515625 102.335938 88.539062 178.667969 176.503906 170.484376 19.421875-1.804688 37.652344-7.578126 54.171875-16.585938 10.503906-5.722656 23.246094-5.722656 33.75 0 16.519531 9.003906 34.75 14.78125 54.167969 16.585938 87.96875 8.179687 166.992187-68.148438 176.507812-170.484376 9.515625-102.335937-54.078125-191.929687-142.046875-200.109374zm0 0" fill="#ff8a98"/><path d="m230.007812 107.394531c-24.28125-12.699219-51.441406-18.699219-79.515624-16.089843-87.964844 8.179687-151.558594 97.773437-142.042969 200.109374 9.515625 102.335938 88.539062 178.667969 176.503906 170.484376 19.175781-1.78125 37.191406-7.433594 53.542969-16.246094-43.636719-45.917969-60.964844-97.464844-66.730469-140.746094-6.0625-45.53125 25.25-87.980469 70.601563-95.269531 53.527343-8.597657 94.285156-35.867188 94.285156-35.867188l-17.128906-79.996093c-13.046876 2.78125-25.636719 7.394531-37.53125 13.621093-16.304688 8.53125-35.679688 8.53125-51.984376 0zm0 0" fill="#fd5c6f"/><path d="m328.871094 111.976562c17.847656-12.761718 28.230468-26.535156 34.191406-38.46875 5.292969-10.589843-5.710938-21.773437-16.472656-16.835937-38.570313 17.695313-90.589844 20.824219-90.589844 20.824219s-52.019531-3.128906-90.59375-20.824219c-10.757812-4.9375-21.761719 6.246094-16.472656 16.835937 5.964844 11.929688 16.347656 25.707032 34.195312 38.46875-.1875.890626-9.691406 20.613282-29.40625 33.644532-10.574218 6.988281-7.410156 23.324218 5.019532 25.808594 22.753906 4.546874 51.042968 4.933593 77.613281-10.417969 12.199219-7.046875 27.089843-7.046875 39.285156 0 26.570313 15.351562 54.859375 14.964843 77.613281 10.417969 12.429688-2.484376 15.59375-18.824219 5.019532-25.808594-19.710938-13.03125-29.214844-32.753906-29.402344-33.644532zm0 0" fill="#73da8c"/><path d="m148.9375 73.507812c5.960938 11.929688 16.34375 25.707032 34.191406 38.464844-.1875.894532-9.691406 20.617188-29.40625 33.648438-10.574218 6.988281-7.40625 23.324218 5.019532 25.808594 5.089843 1.019531 10.460937 1.824218 16.023437 2.296874 6.027344-12.058593 16.332031-26.222656 32.234375-29.023437 28.667969-5.046875 49-16.429687 49-16.429687v-50.777344s-52.019531-3.128906-90.59375-20.824219c-10.757812-4.9375-21.761719 6.246094-16.46875 16.835937zm0 0" fill="#29ce69"/><path d="m256 128.273438c-15.003906 0-27.164062-12.160157-27.164062-27.164063v-65.945313c0-15.003906 12.160156-27.164062 27.164062-27.164062s27.164062 12.160156 27.164062 27.164062v65.945313c0 15.003906-12.160156 27.164063-27.164062 27.164063zm0 0" fill="#b9ecc2"/><path d="m256 306.765625c-15.519531 0-28.101562-12.582031-28.101562-28.101563v-20.429687c0-4.234375 3.4375-7.667969 7.671874-7.667969h40.859376c4.234374 0 7.671874 3.433594 7.671874 7.667969v20.429687c-.003906 15.519532-12.582031 28.101563-28.101562 28.101563zm0 0" fill="#454545"/><path d="m191.980469 278.664062c0-13.183593-13.421875-23.867187-29.972657-23.867187-16.554687 0-29.972656 10.683594-29.972656 23.867187 0 13.183594 13.417969 23.867188 29.972656 23.867188 16.550782 0 29.972657-10.683594 29.972657-23.867188zm0 0" fill="#ffb3dd"/><path d="m379.964844 278.664062c0-13.183593-13.417969-23.867187-29.972656-23.867187-16.550782 0-29.972657 10.683594-29.972657 23.867187 0 13.183594 13.421875 23.867188 29.972657 23.867188 16.554687 0 29.972656-10.683594 29.972656-23.867188zm0 0" fill="#ffb3dd"/><path d="m344.152344 258.0625v-12.453125c0-4.140625-3.355469-7.5-7.496094-7.5-4.144531 0-7.5 3.359375-7.5 7.5v12.453125c0 4.140625 3.355469 7.5 7.5 7.5 4.140625 0 7.496094-3.359375 7.496094-7.5zm0 0"/><path d="m182.84375 258.0625v-12.453125c0-4.140625-3.355469-7.5-7.5-7.5-4.140625 0-7.5 3.359375-7.5 7.5v12.453125c0 4.140625 3.359375 7.5 7.5 7.5 4.144531 0 7.5-3.359375 7.5-7.5zm0 0"/><path d="m475.199219 151.710938c-27.382813-38.578126-66.164063-62.4375-109.515625-67.5 1.476562-2.40625 2.84375-4.855469 4.089844-7.351563 3.832031-7.671875 2.46875-16.601563-3.476563-22.742187-5.996094-6.203126-14.957031-7.875-22.832031-4.261719-17 7.800781-36.875 12.644531-52.800782 15.570312v-30.261719c0-19.113281-15.550781-34.664062-34.664062-34.664062s-34.664062 15.550781-34.664062 34.664062v30.261719c-15.804688-2.90625-35.753907-7.75-52.800782-15.570312-7.875-3.613281-16.835937-1.941407-22.835937 4.261719-5.941407 6.140624-7.304688 15.070312-3.472657 22.742187 1.246094 2.496094 2.613282 4.945313 4.089844 7.351563-43.351562 5.0625-82.136718 28.921874-109.515625 67.5-27.867187 39.257812-40.585937 89.117187-35.820312 140.398437 3.578125 38.445313 16.785156 74.660156 38.195312 104.726563 1.460938 2.054687 6.21875 4.644531 10.457031 1.757812 3.425782-2.332031 4.164063-7.085938 1.761719-10.457031-19.878906-27.914063-32.148437-61.601563-35.480469-97.417969-9.117187-98.058594 54.261719-185.609375 137.96875-193.390625 1.859376-.171875 13.367188 11.886719 19.632813 16.8125-3.960937 6.46875-12.09375 17.398437-23.929687 25.222656-7.371094 4.871094-11.035157 13.632813-9.335938 22.316407 1.722656 8.796874 8.246094 15.351562 17.023438 17.105468 9.71875 1.941406 19.113281 2.910156 28.160156 2.910156 20.007812 0 38.316406-4.742187 54.671875-14.191406 9.953125-5.75 21.832031-5.75 31.785156 0 3.585937 2.074219 8.171875.847656 10.246094-2.742187 2.070312-3.585938.84375-8.171875-2.742188-10.246094-14.433593-8.335937-32.363281-8.335937-46.792969 0-20.503906 11.847656-44.855468 15.0625-72.390624 9.5625-4.0625-.8125-5.039063-4.25-5.242188-5.28125-.203125-1.042969-.597656-4.617187 2.886719-6.921875 20.789062-13.738281 31.925781-35.070312 32.613281-38.375.605469-2.910156-.566406-5.898438-2.980469-7.625-14.449219-10.332031-25.164062-22.347656-31.84375-35.71875-1.414062-2.824219.113281-4.867188.835938-5.613281.585937-.601563 2.726562-2.464844 5.796875-1.054688 19.410156 8.902344 41.960937 14.171875 59.058594 17.179688v20.441406c0 19.113281 15.550781 34.664063 34.664062 34.664063s34.664062-15.550782 34.664062-34.664063v-20.441406c17.253907-3.035157 39.714844-8.308594 59.054688-17.179688 3.066406-1.40625 5.214844.453125 5.796875 1.054688.722656.746093 2.25 2.789062.839844 5.609375-6.683594 13.375-17.398438 25.390625-31.847657 35.722656-2.414062 1.726562-3.585937 4.714844-2.980468 7.625.6875 3.304688 11.824218 24.636719 32.613281 38.375 3.484375 2.304688 3.089844 5.878906 2.886719 6.921875-.203125 1.03125-1.179688 4.46875-5.242188 5.28125-16.136718 3.222656-31.335937 3.453125-45.167968.679687-4.066407-.8125-8.011719 1.816407-8.828126 5.878907-.8125 4.0625 1.816407 8.011719 5.878907 8.828125 7.367187 1.476562 28.914062 3.710937 51.058593-.679688 8.777344-1.738281 15.300782-8.308594 17.019532-17.105468 1.703125-8.683594-1.960938-17.445313-9.335938-22.316407-11.835937-7.824219-19.96875-18.753906-23.929687-25.21875 6.265625-4.925781 17.328125-16.988281 19.1875-16.816406 83.707031 7.785156 147.53125 95.335937 138.414062 193.390625-9.117187 98.058594-84.632812 171.507812-168.34375 163.714844-17.96875-1.671875-35.222656-6.953125-51.273437-15.703125-12.816406-6.984375-28.117188-6.984375-40.929688 0-16.054687 8.75-33.304687 14.03125-51.273437 15.703125-41.792969 3.882812-82.550781-11.988282-114.777344-44.707032-2.90625-2.949218-7.65625-2.988281-10.605469-.078124-2.949218 2.90625-2.988281 7.652343-.078125 10.605468 17.136719 17.394532 36.667969 30.535156 58.054688 39.046875 17.886719 7.125 45.152343 12.339844 68.792969 10.066407 20.007812-1.921876 39.210937-7.734376 57.066406-17.46875 8.316406-4.535157 18.253906-4.535157 26.570312 0 17.855469 9.730468 37.03125 15.882812 57.066406 17.46875 37.027344 2.9375 92.222657-15.585938 123.574219-45.871094 34.628907-33.445313 56.324219-80.105469 61.09375-131.386719 4.765625-51.28125-7.953125-101.140625-35.820312-140.398437zm-199.535157-50.601563c0 10.84375-8.820312 19.664063-19.664062 19.664063s-19.664062-8.820313-19.664062-19.664063v-65.945313c0-10.84375 8.820312-19.664062 19.664062-19.664062s19.664062 8.820312 19.664062 19.664062zm0 0"/><path d="m291.597656 278.664062v-20.429687c0-8.363281-6.804687-15.171875-15.167968-15.171875h-40.859376c-8.363281 0-15.171874 6.808594-15.171874 15.171875v20.429687c0 19.628907 15.972656 35.601563 35.601562 35.601563 19.628906-.003906 35.597656-15.972656 35.597656-35.601563zm-56.199218 0s.078124-20.601562.171874-20.601562c0 0 41.03125.078125 41.03125.171875v20.429687c-.003906 11.359376-9.242187 20.601563-20.601562 20.601563-11.359375-.003906-20.601562-9.242187-20.601562-20.601563zm0 0"/></svg>