<svg height="512pt" viewBox="-82 0 512 512" width="512pt" xmlns="http://www.w3.org/2000/svg"><path d="m38.632812 371.46875c-17.195312 0-31.132812-13.941406-31.132812-31.132812v-301.703126c0-17.195312 13.9375-31.132812 31.132812-31.132812 17.195313 0 31.132813 13.9375 31.132813 31.132812v301.703126c0 17.191406-13.9375 31.132812-31.132813 31.132812zm0 0" fill="#a4e7ff"/><path d="m100.898438 300.667969c-17.191407 0-31.132813-13.9375-31.132813-31.132813v-230.902344c0-17.195312 13.941406-31.132812 31.132813-31.132812 17.195312 0 31.132812 13.9375 31.132812 31.132812v230.902344c0 17.195313-13.9375 31.132813-31.132812 31.132813zm0 0" fill="#5ad6ff"/><path d="m163.164062 300.667969c-17.191406 0-31.132812-13.9375-31.132812-31.132813v-230.902344c0-17.195312 13.941406-31.132812 31.132812-31.132812 17.195313 0 31.136719 13.9375 31.136719 31.132812v230.902344c0 17.195313-13.941406 31.132813-31.136719 31.132813zm0 0" fill="#a4e7ff"/><path d="m225.433594 300.667969c-17.195313 0-31.132813-13.9375-31.132813-31.132813v-230.902344c0-17.195312 13.9375-31.132812 31.132813-31.132812 17.191406 0 31.132812 13.9375 31.132812 31.132812v230.902344c0 17.195313-13.941406 31.132813-31.132812 31.132813zm0 0" fill="#5ad6ff"/><path d="m287.699219 382.894531c-17.195313 0-31.132813-13.9375-31.132813-31.132812v-313.128907c0-17.195312 13.9375-31.132812 31.132813-31.132812 17.191406 0 31.132812 13.9375 31.132812 31.132812v313.128907c0 17.195312-13.941406 31.132812-31.132812 31.132812zm0 0" fill="#a4e7ff"/><path d="m253.355469 393.113281 14.015625 93.871094c1.503906 10.066406 10.148437 17.515625 20.328125 17.515625 10.175781 0 18.820312-7.449219 20.324219-17.515625l14.015624-93.871094zm0 0" fill="#f9ee80"/><path d="m259.914062 437.042969c9.042969 1.070312 20.519532 1.367187 27.785157-2.40625 6.988281-3.628907 18.96875-6.183594 29.304687-7.800781l5.035156-33.722657h-68.683593zm0 0" fill="#eedb00"/><path d="m318.265625 404.660156h-61.136719c-12.519531 0-22.671875-10.148437-22.671875-22.671875v-21.042969c0-12.519531 10.152344-22.671874 22.671875-22.671874h61.136719c12.523437 0 22.671875 10.152343 22.671875 22.671874v21.042969c0 12.523438-10.148438 22.671875-22.671875 22.671875zm0 0" fill="#73da8c"/><path d="m274.582031 381.988281v-21.042969c0-12.519531 10.148438-22.671874 22.671875-22.671874h-40.125c-12.519531 0-22.671875 10.152343-22.671875 22.671874v21.042969c0 12.523438 10.152344 22.671875 22.671875 22.671875h40.125c-12.523437 0-22.671875-10.148437-22.671875-22.671875zm0 0" fill="#29ce69"/><path d="m326.332031 331.878906v-50.222656c0-4.144531-3.359375-7.5-7.5-7.5-4.144531 0-7.5 3.355469-7.5 7.5v49.117188h-47.269531v-292.140626c0-13.03125 10.601562-23.632812 23.636719-23.632812 13.03125 0 23.632812 10.601562 23.632812 23.632812v210.296876c0 4.140624 3.355469 7.5 7.5 7.5 4.140625 0 7.5-3.359376 7.5-7.5v-210.296876c0-21.300781-17.332031-38.632812-38.632812-38.632812-12.765625 0-24.097657 6.226562-31.136719 15.792969-7.035156-9.566407-18.367188-15.792969-31.128906-15.792969-12.761719 0-24.09375 6.226562-31.132813 15.792969-7.039062-9.566407-18.371093-15.792969-31.136719-15.792969-12.761718 0-24.09375 6.226562-31.132812 15.792969-7.039062-9.566407-18.371094-15.792969-31.132812-15.792969-12.761719 0-24.09375 6.226562-31.132813 15.792969-7.039063-9.566407-18.371094-15.792969-31.132813-15.792969-21.300781 0-38.632812 17.332031-38.632812 38.632812v301.703126c0 21.300781 17.332031 38.632812 38.632812 38.632812 21.300782 0 38.632813-17.332031 38.632813-38.632812v-40.273438c6.539063 5.074219 14.738281 8.105469 23.632813 8.105469 12.761718 0 24.09375-6.226563 31.132812-15.792969 7.039062 9.566406 18.371094 15.792969 31.132812 15.792969 12.765626 0 24.097657-6.226563 31.132813-15.792969 7.039063 9.570312 18.371094 15.792969 31.132813 15.792969 8.898437 0 17.097656-3.03125 23.632812-8.105469v31.816406c-12.730469 3.535156-22.105469 15.222656-22.105469 29.066406v21.042969c0 13.613281 9.0625 25.140625 21.46875 28.886719l11.527344 77.21875c2.035156 13.628906 13.964844 23.90625 27.746094 23.90625 13.777343 0 25.707031-10.277344 27.742187-23.90625l11.53125-77.21875c12.402344-3.746094 21.464844-15.273438 21.464844-28.886719v-21.042969c0-13.84375-9.375-25.53125-22.105469-29.066406zm-225.433593-38.710937c-13.03125 0-23.632813-10.601563-23.632813-23.632813v-164.015625c0-4.140625-3.355469-7.5-7.5-7.5-4.140625 0-7.5 3.359375-7.5 7.5v234.816407c0 13.027343-10.601563 23.632812-23.632813 23.632812s-23.632812-10.605469-23.632812-23.632812v-301.703126c0-13.03125 10.601562-23.632812 23.632812-23.632812s23.632813 10.601562 23.632813 23.632812v36c0 4.140626 3.359375 7.5 7.5 7.5 4.144531 0 7.5-3.359374 7.5-7.5v-36c0-13.03125 10.601563-23.632812 23.632813-23.632812s23.632812 10.601562 23.632812 23.632812v230.902344c0 13.03125-10.601562 23.632813-23.632812 23.632813zm62.265624 0c-13.027343 0-23.632812-10.601563-23.632812-23.632813v-230.902344c0-13.03125 10.605469-23.632812 23.632812-23.632812 13.035157 0 23.636719 10.601562 23.636719 23.632812v230.902344c0 13.03125-10.601562 23.632813-23.636719 23.632813zm62.269532 0c-13.03125 0-23.632813-10.601563-23.632813-23.632813v-230.902344c0-13.03125 10.601563-23.632812 23.632813-23.632812s23.632812 10.601562 23.632812 23.632812v230.902344c0 13.03125-10.601562 23.632813-23.632812 23.632813zm75.171875 192.707031c-.945313 6.34375-6.496094 11.125-12.90625 11.125-6.414063 0-11.960938-4.78125-12.90625-11.121094l-11.007813-73.71875h47.828125zm32.832031-103.886719c0 8.367188-6.804688 15.171875-15.171875 15.171875h-61.136719c-8.363281 0-15.171875-6.804687-15.171875-15.171875v-21.042969c0-8.363281 6.808594-15.171874 15.171875-15.171874h61.136719c8.367187 0 15.171875 6.808593 15.171875 15.171874zm0 0"/></svg>