<svg height="512pt" viewBox="0 -25 512.001 512" width="512pt" xmlns="http://www.w3.org/2000/svg"><path d="m482.183594 255.226562-27.710938 30.222657 8.894532 39.996093c2.871093 12.902344-4.613282 25.855469-17.226563 29.8125l-39.113281 12.265626-12.261719 39.109374c-3.957031 12.613282-16.910156 20.097657-29.8125 17.230469l-39.996094-8.898437-30.222656 27.710937c-9.730469 8.921875-24.671875 8.921875-34.402344 0l-30.222656-27.710937-39.996094 8.898437c-12.902343 2.867188-25.855469-4.617187-29.8125-17.230469l-12.265625-39.109374-39.109375-12.265626c-12.613281-3.957031-20.097656-16.910156-17.230469-29.8125l8.898438-39.996093-27.710938-30.222657c-8.921874-9.734374-8.921874-24.671874 0-34.402343l27.710938-30.222657-8.898438-39.996093c-2.867187-12.902344 4.617188-25.859375 17.230469-29.8125l39.109375-12.265625 12.265625-39.109375c3.957031-12.613281 16.910157-20.097657 29.8125-17.230469l39.996094 8.898438 30.222656-27.710938c9.730469-8.921875 24.671875-8.921875 34.402344 0l30.222656 27.710938 39.996094-8.898438c12.902344-2.867188 25.855469 4.617188 29.8125 17.230469l12.261719 39.109375 39.113281 12.265625c12.613281 3.953125 20.097656 16.910156 17.226563 29.8125l-8.894532 39.992187 27.710938 30.226563c8.921875 9.730469 8.921875 24.667969 0 34.402343zm0 0" fill="#f4e74d"/><path d="m277.53125 389.25c-33.296875-65.960938-81.875-121.433594-80.65625-183.871094 1.878906-96 107.425781-163.234375 107.425781-163.234375l-9.566406-8.769531c-9.734375-8.921875-24.671875-8.921875-34.402344 0l-30.226562 27.710938-39.992188-8.898438c-12.902343-2.867188-25.859375 4.617188-29.8125 17.230469l-12.265625 39.109375-39.109375 12.265625c-12.613281 3.953125-20.101562 16.910156-17.230469 29.8125l8.898438 39.996093-27.710938 30.222657c-8.921874 9.730469-8.921874 24.671875 0 34.402343l27.710938 30.222657-8.898438 39.996093c-2.871093 12.902344 4.617188 25.855469 17.230469 29.8125l39.109375 12.261719 12.265625 39.109375c3.957031 12.617188 16.910157 20.101563 29.8125 17.230469l39.996094-8.894531 30.222656 27.710937c9.730469 8.921875 24.671875 8.921875 34.402344 0l3.367187-3.089843c-5.324218-17.566407-12.460937-34.28125-20.570312-50.335938zm0 0" fill="#eedb00"/><path d="m428.757812 238.023438c0 83.519531-67.707031 151.226562-151.226562 151.226562-83.515625 0-151.222656-67.707031-151.222656-151.226562 0-83.519532 67.707031-151.222657 151.222656-151.222657 83.519531 0 151.226562 67.703125 151.226562 151.222657zm0 0" fill="#fcf5af"/><path d="m196.875 205.378906c.921875-47.136718 26.839844-87.335937 52.980469-116.050781-70.300781 13.003906-123.546875 74.632813-123.546875 148.699219 0 83.515625 67.703125 151.222656 151.222656 151.222656-33.296875-65.960938-81.875-121.433594-80.65625-183.871094zm0 0" fill="#f9ee80"/><path d="m78.914062 15.042969 5.375 9.828125c5.359376 9.800781 13.421876 17.863281 23.222657 23.222656l9.828125 5.375c10.054687 5.5 10.054687 19.945312 0 25.445312l-9.828125 5.375c-9.804688 5.359376-17.863281 13.417969-23.222657 23.222657l-5.375 9.824219c-5.5 10.058593-19.945312 10.058593-25.445312 0l-5.375-9.824219c-5.359375-9.804688-13.421875-17.863281-23.222656-23.222657l-9.828125-5.375c-10.054688-5.5-10.054688-19.945312 0-25.445312l9.828125-5.375c9.804687-5.359375 17.863281-13.421875 23.222656-23.222656l5.375-9.828125c5.5-10.054688 19.945312-10.054688 25.445312 0zm0 0" fill="#a4e7ff"/><path d="m473.109375 378.976562 3.671875 6.714844c3.660156 6.691406 9.164062 12.195313 15.859375 15.855469l6.710937 3.671875c6.867188 3.753906 6.867188 13.621094 0 17.375l-6.710937 3.671875c-6.695313 3.660156-12.199219 9.164063-15.859375 15.859375l-3.671875 6.710938c-3.753906 6.867187-13.621094 6.867187-17.375 0l-3.671875-6.710938c-3.660156-6.695312-9.164062-12.199219-15.859375-15.859375l-6.710937-3.671875c-6.867188-3.753906-6.867188-13.621094 0-17.375l6.710937-3.671875c6.695313-3.660156 12.199219-9.164063 15.859375-15.855469l3.671875-6.714844c3.753906-6.867187 13.621094-6.867187 17.375 0zm0 0" fill="#a4e7ff"/><path d="m213.511719 254.675781c0-13.179687-13.421875-23.867187-29.976563-23.867187-16.550781 0-29.972656 10.6875-29.972656 23.867187 0 13.183594 13.421875 23.871094 29.972656 23.871094 16.554688 0 29.976563-10.6875 29.976563-23.871094zm0 0" fill="#ffb3dd"/><path d="m401.503906 254.675781c0-13.179687-13.421875-23.867187-29.976562-23.867187-16.550782 0-29.972656 10.6875-29.972656 23.867187 0 13.183594 13.421874 23.871094 29.972656 23.871094 16.554687 0 29.976562-10.6875 29.976562-23.871094zm0 0" fill="#ffb3dd"/><path d="m277.53125 250.800781c-9.707031 0-19.414062-3.140625-27.511719-9.421875-3.273437-2.539062-3.867187-7.25-1.328125-10.523437 2.535156-3.273438 7.25-3.871094 10.519532-1.332031 10.789062 8.367187 25.855468 8.367187 36.640624 0 3.273438-2.535157 7.984376-1.941407 10.523438 1.332031 2.539062 3.273437 1.945312 7.984375-1.328125 10.523437-8.101563 6.28125-17.808594 9.421875-27.515625 9.421875zm0 0"/><path d="m202 236.414062c-1.683594-2.464843-4.128906-2.761718-5.125-2.761718-.992188 0-3.484375.269531-5.121094 2.761718-2.277344 3.460938-6.925781 4.425782-10.386718 2.152344-3.460938-2.273437-4.425782-6.925781-2.152344-10.386718 3.921875-5.96875 10.523437-9.527344 17.660156-9.527344 7.140625 0 13.742188 3.558594 17.660156 9.527344 2.273438 3.460937 1.3125 8.113281-2.148437 10.386718-1.269531.832032-6.882813 2.992188-10.386719-2.152344zm0 0"/><path d="m363.3125 236.414062c-1.679688-2.464843-4.128906-2.761718-5.125-2.761718-.992188 0-3.484375.269531-5.121094 2.761718-2.273437 3.460938-6.925781 4.425782-10.386718 2.152344-3.460938-2.273437-4.421876-6.925781-2.148438-10.386718 3.917969-5.96875 10.519531-9.527344 17.660156-9.527344 7.136719 0 13.738282 3.558594 17.660156 9.527344 2.273438 3.460937 1.308594 8.113281-2.152343 10.386718-1.269531.832032-6.882813 2.992188-10.386719-2.152344zm0 0"/><path d="m277.53125 456.933594c-7.960938 0-15.921875-2.910156-22.269531-8.730469l-27.339844-25.066406-36.179687 8.046875c-16.851563 3.746094-33.4375-5.84375-38.601563-22.308594l-11.089844-35.371094-35.371093-11.089844c-16.460938-5.164062-26.050782-21.757812-22.308594-38.597656l8.050781-36.179687-25.070313-27.34375c-11.636718-12.695313-11.636718-31.84375 0-44.539063l25.070313-27.34375-8.050781-36.179687c-3.742188-16.839844 5.847656-33.433594 22.308594-38.597657l35.371093-11.089843 11.089844-35.371094c5.164063-16.464844 21.765625-26.050781 38.597656-22.308594l36.179688 8.050781 27.34375-25.070312c12.695312-11.640625 31.84375-11.640625 44.539062 0l27.34375 25.070312 36.179688-8.050781c16.847656-3.738281 33.4375 5.847657 38.597656 22.308594l11.09375 35.371094 35.367187 11.089843c16.464844 5.164063 26.054688 21.757813 22.308594 38.601563l-8.046875 36.175781 25.066407 27.34375c11.640624 12.695313 11.640624 31.84375 0 44.539063l-25.066407 27.34375 8.046875 36.179687c3.746094 16.839844-5.84375 33.433594-22.308594 38.597656l-35.371093 11.089844-11.089844 35.371094c-5.164063 16.464844-21.761719 26.050781-38.597656 22.308594l-36.179688-8.046875-27.34375 25.066406c-6.347656 5.820313-14.308593 8.730469-22.269531 8.730469zm-47.421875-49.46875c1.855469 0 3.667969.691406 5.066406 1.972656l30.222657 27.710938c6.917968 6.339843 17.347656 6.339843 24.265624 0l30.226563-27.710938c1.804687-1.65625 4.300781-2.324219 6.695313-1.792969l39.996093 8.894531c9.164063 2.039063 18.214844-3.183593 21.027344-12.152343l12.261719-39.109375c.734375-2.34375 2.570312-4.175782 4.914062-4.910156l39.109375-12.265626c8.96875-2.8125 14.195313-11.851562 12.152344-21.027343l-8.894531-39.996094c-.53125-2.390625.136718-4.890625 1.792968-6.695313l27.707032-30.226562c6.34375-6.914062 6.34375-17.347656 0-24.265625l-27.707032-30.222656c-1.65625-1.804688-2.324218-4.304688-1.792968-6.695313l8.894531-39.996094c2.042969-9.175781-3.183594-18.214843-12.152344-21.027343l-39.109375-12.265625c-2.34375-.734375-4.175781-2.566406-4.910156-4.910156l-12.265625-39.109376c-2.8125-8.972656-11.847656-14.203124-21.03125-12.15625l-39.992187 8.898438c-2.394532.53125-4.890626-.140625-6.695313-1.792969l-30.226563-27.710937c-6.914062-6.34375-17.347656-6.34375-24.265624 0l-30.222657 27.710937c-1.808593 1.652344-4.304687 2.324219-6.699219 1.792969l-39.992187-8.898438c-9.171875-2.039062-18.214844 3.183594-21.027344 12.15625l-12.265625 39.109376c-.734375 2.339843-2.570312 4.175781-4.910156 4.910156l-39.109375 12.265625c-8.972656 2.8125-14.195313 11.851562-12.152344 21.027343l8.894531 39.996094c.53125 2.390625-.136718 4.890625-1.792968 6.695313l-27.710938 30.222656c-6.339844 6.917969-6.339844 17.351563 0 24.265625l27.710938 30.226562c1.65625 1.804688 2.324218 4.304688 1.792968 6.695313l-8.894531 39.992187c-2.042969 9.179688 3.183594 18.21875 12.152344 21.03125l39.109375 12.261719c2.339844.734375 4.175781 2.570313 4.910156 4.914063l12.265625 39.109375c2.8125 8.96875 11.847657 14.195312 21.027344 12.152343l39.996094-8.894531c.539062-.121093 1.085937-.179687 1.628906-.179687zm0 0"/><path d="m277.53125 396.75c-87.519531 0-158.722656-71.203125-158.722656-158.726562 0-87.519532 71.203125-158.722657 158.722656-158.722657 87.523438 0 158.726562 71.203125 158.726562 158.722657 0 48.695312-21.890624 94.015624-60.058593 124.339843-3.246094 2.578125-7.964844 2.039063-10.539063-1.203125-2.578125-3.246094-2.035156-7.960937 1.207032-10.539062 34.566406-27.464844 54.390624-68.503906 54.390624-112.597656 0-79.246094-64.476562-143.722657-143.726562-143.722657s-143.722656 64.476563-143.722656 143.722657c0 79.25 64.472656 143.726562 143.722656 143.726562 22.214844 0 43.511719-4.929688 63.296875-14.652344 3.714844-1.824218 8.210937-.292968 10.039063 3.425782 1.824218 3.71875.292968 8.210937-3.425782 10.039062-21.859375 10.738281-45.378906 16.1875-69.910156 16.1875zm0 0"/><path d="m66.191406 132.382812c-8.167968 0-15.382812-4.277343-19.304687-11.445312-1.988281-3.632812-.652344-8.191406 2.980469-10.179688 3.632812-1.988281 8.191406-.652343 10.179687 2.984376 1.796875 3.285156 4.894531 3.640624 6.144531 3.640624 1.246094 0 4.34375-.355468 6.140625-3.640624l5.375-9.828126c6.0625-11.082031 15.125-20.144531 26.207031-26.207031l9.824219-5.371093c3.289063-1.800782 3.644531-4.898438 3.644531-6.144532 0-1.25-.355468-4.34375-3.644531-6.144531l-9.824219-5.375c-11.082031-6.058594-20.144531-15.121094-26.207031-26.203125l-5.375-9.828125c-1.796875-3.285156-4.894531-3.640625-6.140625-3.640625-1.25 0-4.347656.355469-6.144531 3.644531l-5.375 9.824219c-6.058594 11.082031-15.121094 20.144531-26.203125 26.207031l-9.828125 5.375c-3.285156 1.796875-3.640625 4.894531-3.640625 6.140625s.355469 4.34375 3.640625 6.144532c0 0 14.351563 6.964843 21.585937 13.578124 3.054688 2.796876 3.4375 7.464844.710938 10.582032-2.726562 3.121094-7.808594 3.792968-10.582031.714844-4.667969-5.1875-18.910157-11.714844-18.910157-11.714844-7.167968-3.921875-11.445312-11.136719-11.445312-19.304688 0-8.167968 4.277344-15.382812 11.445312-19.304687l9.824219-5.375c8.5625-4.679688 15.5625-11.679688 20.242188-20.238281l5.375-9.828126c3.921875-7.167968 11.136719-11.445312 19.304687-11.445312 8.167969 0 15.382813 4.28125 19.300782 11.445312l5.375 9.828126c4.683593 8.558593 11.683593 15.558593 20.242187 20.238281l9.828125 5.375c7.164062 3.921875 11.441406 11.136719 11.445312 19.304687 0 8.167969-4.28125 15.382813-11.445312 19.304688l-9.828125 5.371094c-8.558594 4.683593-15.558594 11.683593-20.242187 20.242187l-5.375 9.828125c-3.917969 7.164062-11.132813 11.445312-19.300782 11.445312zm0 0"/><path d="m464.421875 461.484375c-6.363281 0-12.214844-3.46875-15.269531-9.050781l-3.667969-6.714844c-2.980469-5.445312-7.433594-9.894531-12.878906-12.875l-6.710938-3.671875c-5.582031-3.050781-9.050781-8.902344-9.050781-15.265625s3.46875-12.214844 9.050781-15.269531l6.710938-3.671875c5.445312-2.976563 9.898437-7.429688 12.878906-12.875l3.667969-6.710938c3.054687-5.585937 8.90625-9.054687 15.269531-9.054687 6.363281.003906 12.214844 3.46875 15.269531 9.054687l3.667969 6.710938c2.980469 5.445312 7.433594 9.898437 12.878906 12.875l6.710938 3.671875c5.582031 3.054687 9.050781 8.902343 9.050781 15.269531 0 6.363281-3.46875 12.214844-9.050781 15.265625l-6.710938 3.671875c-5.445312 2.980469-9.898437 7.433594-12.878906 12.875l-3.667969 6.714844c-3.054687 5.582031-8.90625 9.050781-15.269531 9.050781zm0-80.15625c-.53125 0-5.777344 7.960937-5.777344 7.960937-4.359375 7.96875-10.875 14.484376-18.839843 18.839844 0 0-7.960938 5.246094-7.960938 5.777344s7.960938 5.777344 7.960938 5.777344c7.964843 4.355468 14.480468 10.871094 18.839843 18.839844 0 0 5.246094 7.960937 5.777344 7.960937s5.777344-7.960937 5.777344-7.960937c4.355469-7.96875 10.871093-14.480469 18.839843-18.839844 0 0 7.960938-5.246094 7.960938-5.777344s-7.960938-5.777344-7.960938-5.777344c-7.96875-4.355468-14.480468-10.875-18.839843-18.839844 0 0-5.246094-7.960937-5.777344-7.960937zm0 0"/></svg>