<svg height="511pt" viewBox="-44 0 511 511.998" width="511pt" xmlns="http://www.w3.org/2000/svg"><path d="m209.566406 104.40625c31.234375 20.441406 68.683594 18.484375 83.640625-4.371094 14.957031-22.855468 1.761719-57.953125-29.472656-78.394531-31.234375-20.445313-68.683594-18.488281-83.640625 4.367187-14.957031 22.855469-1.761719 57.953126 29.472656 78.398438zm0 0" fill="#29ce69"/><path d="m263.722656 21.648438c-1.933594-1.265626-3.886718-2.453126-5.863281-3.546876-18.078125 11.496094-42.023437 36.242188-46.367187 87.542969 30.832031 19.121094 67.054687 16.789063 81.703124-5.59375 14.960938-22.855469 1.765626-57.957031-29.472656-78.402343zm0 0" fill="#00a62c"/><path d="m258.007812 76.585938h41.355469v141.5h-41.355469zm0 0" fill="#73da8c"/><path d="m347.753906 104.398438c31.238282-20.441407 44.433594-55.542969 29.472656-78.398438-14.957031-22.855469-52.402343-24.808594-83.640624-4.367188-31.234376 20.441407-44.429688 55.542969-29.472657 78.398438 14.960938 22.855469 52.40625 24.808594 83.640625 4.367188zm0 0" fill="#b9ecc2"/><path d="m370.132812 264.367188c0-44.394532-47.109374-80.386719-105.222656-80.386719-58.113281 0-105.222656 35.992187-105.222656 80.386719 0 44.398437 47.109375 80.386718 105.222656 80.386718 58.113282 0 105.222656-35.988281 105.222656-80.386718zm0 0" fill="#f2ad9a"/><path d="m68.941406 321.457031 66.015625-67.238281c9.382813-9.558594 20.617188-17.097656 33.011719-22.164062l56.429688-23.0625c12.886718-5.265626 27.640624.421874 33.65625 12.972656 5.042968 10.53125 2.539062 23.128906-6.148438 30.925781l-43.289062 38.847656 94.265624-10.480469c11.097657-1.234374 21.410157-6.324218 29.136719-14.382812l43.941407-45.796875c7.59375-7.917969 19.671874-9.484375 29.035156-3.773437 11.804687 7.203124 14.808594 23.019531 6.46875 34.046874l-56.496094 74.695313c-7.277344 9.625-17.105469 17.023437-28.367188 21.351563l-168.28125 64.691406zm0 0" fill="#ffddcf"/><path d="m108.859375 280.800781-39.917969 40.65625 89.378906 90.632813 86.625-33.300782c-83.847656-16.832031-121.929687-70.902343-136.085937-97.988281zm0 0" fill="#ffcbbe"/><path d="m83.578125 306.550781 92.976563 108.574219c15.238281 17.792969 12.828124 44.648438-5.339844 59.445312l-25.195313 20.519532c-17.332031 14.113281-42.710937 12.050781-57.535156-4.679688l-69.273437-78.179687c-17.664063-19.933594-14.019532-50.804688 7.796874-66.078125zm0 0" fill="#a4e7ff"/><path d="m112.699219 444.054688c-90.425781-59.410157-59.105469-116.511719-59.105469-116.515626l-26.585938 18.613282c-21.816406 15.273437-25.460937 46.144531-7.796874 66.078125l69.273437 78.183593c14.824219 16.726563 40.203125 18.792969 57.535156 4.675782l7.109375-5.789063c.835938-29.960937-9.457031-45.246093-9.457031-45.246093s-29.910156-.164063-30.972656 0zm0 0" fill="#5ad6ff"/><path d="m143.671875 444.054688c0 11.554687-9.367187 20.917968-20.921875 20.917968-11.550781 0-20.917969-9.363281-20.917969-20.917968 0-11.554688 9.367188-20.917969 20.917969-20.917969 11.554688 0 20.921875 9.363281 20.921875 20.917969zm0 0" fill="#6a829a"/><path d="m408.902344 210.902344c-26.09375-16.070313-44.765625 11.667968-44.765625 11.667968-12.664063-18.3125-33.082031-32.257812-57.273438-39.792968v-56.828125c15.167969-.734375 30.902344-6.03125 45.015625-15.269531 3.464844-2.265626 4.4375-6.914063 2.167969-10.378907-2.269531-3.46875-6.917969-4.4375-10.382813-2.167969-27.722656 18.144532-60.238281 16.925782-73.261718-2.199218-14.972656-21.984375 7.71875-55.203125 27.304687-68.019532 27.722657-18.144531 60.589844-17.160156 73.261719 2.199219 8.574219 13.097657 5.949219 31.871094-6.84375 48.996094-2.476562 3.320313-1.796875 8.019531 1.519531 10.496094 3.316407 2.476562 8.019531 1.796875 10.496094-1.519531 16.667969-22.3125 19.496094-47.671876 7.378906-66.1875-8.582031-13.105469-23.332031-21.898438-41.605469-21.898438-38.328124 0-59.886718 20.632812-63.261718 23.570312-3.390625-2.949218-26.003906-23.570312-63.242188-23.570312-16.542968 0-33.023437 8.792969-41.601562 21.898438-8.582032 13.109374-9.765625 29.746093-3.335938 46.851562 6.125 16.285156 18.542969 31.179688 34.972656 41.929688 14.132813 9.25 29.878907 14.546874 45.0625 15.273437v51.257813c-37.460937 3.734374-70.242187 21.863281-86.929687 48.558593-12.785156 5.460938-24.207031 13.25-33.96875 23.191407l-50.898437 51.839843-56.003907 39.207031c-12.148437 8.503907-20.109375 21.828126-21.851562 36.554688-1.738281 14.726562 2.90625 29.539062 12.742187 40.640625l69.273438 78.179687c9.726562 10.976563 23.222656 16.613282 36.8125 16.613282 10.933594 0 21.925781-3.644532 31.070312-11.09375l25.195313-20.519532c31.429687-26.6875 14.996093-59.984374 6.300781-70.140624l-88.503906-103.347657 46.5625-47.425781c8.71875-8.878906 18.980468-15.769531 30.496094-20.476562l56.433593-23.0625c9.195313-3.753907 19.757813.316406 24.050781 9.273437 3.582032 7.476563 1.777344 16.566406-4.394531 22.101563l-43.289062 38.851562c-2.425781 2.175781-3.167969 5.671875-1.832031 8.644531 1.332031 2.976563 4.4375 4.761719 7.671874 4.390625l94.265626-10.484375c12.816406-1.425781 24.792968-7.335937 33.722656-16.640625l43.9375-45.800781c5.117187-5.335937 13.453125-6.480469 19.71875-2.5625 11.542968 7.21875 7.132812 19.5 4.394531 23.125l-56.496094 74.695313c-6.441406 8.515624-15.113281 15.039062-25.082031 18.871093l-125.703125 48.324219c-3.863281 1.484375-5.792969 5.824219-4.308594 9.691406 1.148438 2.980469 4.832031 5.34375 9.691407 4.308594l125.703124-48.324219c12.582032-4.835937 23.53125-13.074219 31.660157-23.824219l56.496093-74.695312c5.253907-6.941406 14.140626-31.003906-8.542968-44.972656zm-242.421875 257.851562-25.199219 20.519532c-14.261719 11.617187-34.984375 9.933593-47.183594-3.835938l-69.273437-78.179688c-7.003907-7.902343-10.308594-18.449218-9.070313-28.9375 1.238282-10.484374 6.90625-19.96875 15.558594-26.023437l50.996094-35.703125 88.550781 103.40625c6.042969 7.058594 15.722656 31.128906-4.378906 48.753906zm125.382812-343.640625v53.914063c-8.507812-1.625-17.339843-2.5-26.355469-2.535156v-63.457032c6.972657 6.226563 15.960938 10.351563 26.355469 12.078125zm-78.203125-26.980469c-13.785156-9.023437-24.136718-21.332031-29.144531-34.660156-4.703125-12.511718-4.050781-24.359375 1.839844-33.359375 5.894531-9 16.488281-14.339843 29.835937-15.039062 14.207032-.726563 29.644532 3.816406 43.425782 12.839843 2.988281 1.957032 5.820312 4.101563 8.496093 6.378907-5.910156 7.09375-10.523437 14.878906-13.59375 23.007812-5.660156 14.988281-4.011719 53.628907-4.011719 53.628907-12.300781-.722657-25.164062-5.148438-36.847656-12.796876zm112.949219 163.550782c-6.5 6.777344-15.222656 11.082031-24.554687 12.121094l-71.027344 7.898437 25.886718-23.230469c11.09375-9.957031 14.34375-26.300781 7.902344-39.746094-7.71875-16.109374-26.722656-23.433593-43.253906-16.675781l-24.953125 10.195313c17.894531-13.078125 42.183594-20.765625 68.300781-20.765625 38.207032 0 72.5 16.449219 88.582032 42.179687zm0 0"/><path d="m122.75 472.472656c15.671875 0 28.421875-12.746094 28.421875-28.417968 0-15.667969-12.75-28.417969-28.421875-28.417969-15.667969 0-28.414062 12.75-28.414062 28.417969 0 15.671874 12.746093 28.417968 28.414062 28.417968zm0-41.835937c7.402344 0 13.421875 6.019531 13.421875 13.417969 0 7.398437-6.019531 13.421874-13.421875 13.421874-7.398438 0-13.417969-6.023437-13.417969-13.421874 0-7.398438 6.019531-13.417969 13.417969-13.417969zm0 0"/></svg>