<svg height="511pt" viewBox="-102 0 511 511.99709" width="511pt" xmlns="http://www.w3.org/2000/svg"><path d="m116.054688 211.148438s1.386718-134.664063 87.164062-197.09375c12.394531-9.019532 29.246094-8.789063 41.285156.699218l24.875 19.613282c13.484375 10.628906 12.832032 31.28125-1.308594 41.019531-29.113281 20.050781-68.761718 60.65625-76.554687 135.761719zm0 0" fill="#73da8c"/><path d="m201.195312 83.996094c-8.066406-19.054688-18.402343-32.882813-27.359374-42.355469-56.730469 67.613281-57.78125 169.507813-57.78125 169.507813h75.460937c4.015625-38.714844 16.492187-68.257813 31.632813-90.546876-7.285157-8.722656-15.203126-20.664062-21.953126-36.605468zm0 0" fill="#29ce69"/><path d="m191.515625 211.148438s-1.386719-134.664063-87.164063-197.09375c-12.390624-9.019532-29.246093-8.789063-41.285156.699218l-24.875 19.613282c-13.484375 10.628906-12.832031 31.28125 1.308594 41.019531 29.113281 20.050781 68.761719 60.65625 76.554688 135.761719zm0 0" fill="#b9ecc2"/><path d="m254.484375 288.238281s-44.476563-32.703125-62.96875-77.089843c-6.355469-15.257813-21.203125-25.242188-37.730469-25.242188s-31.371094 9.984375-37.730468 25.242188c-18.492188 44.386718-62.96875 77.089843-62.96875 77.089843-28.011719 22.839844-45.476563 55.109375-45.476563 90.882813 0 69.242187 65.375 125.378906 146.175781 125.378906 80.800782 0 146.175782-56.136719 146.175782-125.378906 0-35.773438-17.464844-68.039063-45.476563-90.882813zm0 0" fill="#c7aee4"/><path d="m85.582031 314.691406c22.628907-43.203125 30.472657-103.542968 30.472657-103.542968-18.492188 44.386718-62.96875 77.089843-62.96875 77.089843-28.011719 22.84375-45.472657 55.113281-45.472657 90.882813 0 47.890625 31.28125 89.515625 77.296875 110.632812-36.71875-55.121094-17.375-140.609375.671875-175.0625zm0 0" fill="#b18cd9"/><path d="m221.988281 314.691406c-22.628906-43.203125-30.472656-103.542968-30.472656-103.542968 18.492187 44.386718 62.96875 77.089843 62.96875 77.089843 28.011719 22.84375 45.476563 55.113281 45.476563 90.882813 0 47.890625-31.285157 89.515625-77.300782 110.632812 36.71875-55.121094 17.375-140.609375-.671875-175.0625zm0 0" fill="#b18cd9"/><path d="m201.195312 364.695312c-4.140624 0-7.5 3.359376-7.5 7.5v12.453126c0 4.140624 3.359376 7.5 7.5 7.5 4.144532 0 7.503907-3.359376 7.503907-7.5v-12.453126c0-4.140624-3.359375-7.5-7.503907-7.5zm0 0"/><path d="m106.375 364.695312c-4.144531 0-7.5 3.359376-7.5 7.5v12.453126c0 4.140624 3.355469 7.5 7.5 7.5s7.5-3.359376 7.5-7.5v-12.453126c0-4.140624-3.355469-7.5-7.5-7.5zm0 0"/><path d="m169.296875 375.003906c-1.269531-.832031-6.882813-2.992187-10.386719 2.148438-1.683594 2.46875-4.128906 2.765625-5.125 2.765625s-3.484375-.269531-5.125-2.765625c-2.273437-3.460938-6.925781-4.421875-10.386718-2.148438-3.460938 2.273438-4.425782 6.921875-2.148438 10.386719 3.917969 5.96875 10.519531 9.527344 17.660156 9.527344s13.742188-3.558594 17.660156-9.527344c2.273438-3.460937 1.3125-8.113281-2.148437-10.386719zm0 0"/><path d="m259.222656 282.425781-.292968-.226562c-.421876-.3125-41.84375-31.171875-59.730469-72.160157 7.820312-69.863281 43.996093-108.414062 73.125-128.476562 8.71875-6.003906 13.914062-15.515625 14.257812-26.097656.339844-10.589844-4.238281-20.425782-12.558593-26.988282l-24.875-19.613281c-14.570313-11.484375-35.269532-11.84375-50.34375-.871093-17.203126 12.519531-32.289063 28.699218-44.996094 48.179687-12.6875-19.46875-27.738282-35.585937-45.042969-48.179687-15.074219-10.972657-35.773437-10.613282-50.339844.871093l-24.878906 19.613281c-8.320313 6.5625-12.898437 16.398438-12.554687 26.988282.339843 10.582031 5.535156 20.09375 14.253906 26.097656 29.128906 20.0625 65.304687 58.613281 73.125 128.476562-17.886719 40.988282-59.308594 71.847657-59.726563 72.15625l-.300781.230469c-28.023438 22.851563-45.003906 53.6875-47.816406 86.828125-.351563 4.128906 2.710937 7.757813 6.839844 8.105469 4.132812.355469 7.753906-2.710937 8.105468-6.835937 2.460938-29 17.453125-56.113282 42.21875-76.363282 2.390625-1.777344 23.550782-17.800781 42.609375-42.242187-4.71875 18.746093-11.65625 40.761719-21.363281 59.292969-8.699219 16.605468-18.96875 47.050781-21.707031 82.683593-1.652344 21.488281-.824219 50.253907 9.660156 77.183594-25.394531-17.320313-43.566406-42.199219-49.632813-71.171875-.847656-4.054688-4.820312-6.65625-8.875-5.804688-4.058593.851563-6.65625 4.824219-5.804687 8.878907 13.222656 63.167969 76.816406 109.015625 151.207031 109.015625 40.859375 0 79.3125-13.683594 108.269532-38.53125 29.28125-25.121094 45.40625-58.628906 45.40625-94.347656 0-36.988282-17.132813-71.328126-48.238282-96.691407zm-215.46875-213.214843c-4.75-3.273438-7.582031-8.460938-7.769531-14.226563-.1875-5.78125 2.3125-11.148437 6.851563-14.726563l24.878906-19.613281c9.308594-7.34375 22.5625-7.558593 32.226562-.523437 28.109375 20.457031 49.878906 51.332031 64.707032 91.765625 1.425781 3.886719 5.738281 5.882812 9.625 4.457031 3.886718-1.425781 5.882812-5.734375 4.457031-9.625-4.746094-12.945312-10.1875-24.984375-16.289063-36.105469 12.496094-20.777343 27.679688-37.75 45.191406-50.496093 9.664063-7.03125 22.914063-6.816407 32.226563.527343l24.875 19.609375c4.542969 3.582032 7.039063 8.949219 6.851563 14.726563-.183594 5.769531-3.015626 10.953125-7.769532 14.226562-24.773437 17.0625-54.214844 46.335938-69.945312 94.304688-1.441406-8.074219-3.28125-16.84375-5.640625-26.0625-1.027344-4.011719-5.117188-6.433594-9.125-5.40625-4.015625 1.027343-6.433594 5.113281-5.40625 9.125 4.566406 17.847656 7.113281 34.125 8.535156 46.496093-8.089844-5.902343-17.972656-9.261718-28.449219-9.261718-12.53125 0-24.226562 4.816406-33 13.039062-12-64.902344-47.773437-102.082031-77.03125-122.230468zm46.296875 414.664062c-18.160156-28.550781-19.777343-63.9375-17.863281-88.828125 2.566406-33.402344 12.398438-62.289063 20.039062-76.875 21.539063-41.121094 29.878907-96.09375 31.113282-104.917969 5.390625-12.078125 17.238281-19.847656 30.445312-19.847656 13.203125 0 25.050782 7.769531 30.445313 19.847656 1.230469 8.824219 9.570312 63.796875 31.113281 104.917969 7.640625 14.585937 17.46875 43.472656 20.035156 76.875 1.910156 24.855469.304688 60.179687-17.78125 88.707031-19.113281 8.457032-40.816406 13.246094-63.8125 13.246094-22.855468 0-44.5625-4.710938-63.734375-13.125zm150.714844-13.019531c10.398437-26.867188 11.21875-55.527344 9.574219-76.957031-2.738282-35.636719-13.007813-66.082032-21.707032-82.6875-9.707031-18.53125-16.644531-40.546876-21.363281-59.292969 19.058594 24.441406 40.214844 40.464843 42.609375 42.242187 27.460938 22.453125 42.582032 52.617188 42.582032 84.957032 0 37.023437-20.191407 70.109374-51.695313 91.738281zm0 0"/></svg>