<?xml version="1.0" encoding="iso-8859-1"?>
<!-- Generator: Adobe Illustrator 19.0.0, SVG Export Plug-In . SVG Version: 6.00 Build 0)  -->
<svg xmlns="http://www.w3.org/2000/svg" xmlns:xlink="http://www.w3.org/1999/xlink" version="1.1" id="Layer_1" x="0px" y="0px" viewBox="0 0 512 512" style="enable-background:new 0 0 512 512;" xml:space="preserve">
<path style="fill:#CCCCCC;" d="M394.168,69.65c2.6,5.68,5.28,11.74,7.99,18.14c-2.83-5.51-5.31-10.14-7.31-13.8  C394.068,72.57,393.888,71.05,394.168,69.65z"/>
<path style="fill:#FFFFFF;" d="M400.496,64.469h56.301c2.818,0,5.102-2.284,5.102-5.102V12.602c0-2.818-2.284-5.102-5.102-5.102  h-129.34c-14.544,0-24.724,14.371-19.9,28.091l46.875,133.321c67.825,221.185-36.342,255.349-86.291,259.572v-0.047  c0,0-0.897,0.114-2.529,0.24c-3.551,0.24-6.779,0.33-9.603,0.335c-2.824-0.005-6.053-0.095-9.603-0.335  c-1.633-0.126-2.529-0.24-2.529-0.24v0.047c-49.95-4.224-154.116-38.387-86.291-259.572l46.874-133.32  c4.824-13.72-5.357-28.091-19.9-28.091H55.219c-2.818,0-5.102,2.284-5.102,5.102v46.765c0,2.818,2.284,5.102,5.102,5.102h56.301  c4.887,0,7.996,5.23,5.648,9.517C89.206,125.04-32.113,368.188,128.883,476.699c0,0,48.744,30.824,127.125,28.338  c78.381,2.486,127.125-28.338,127.125-28.338C544.13,368.188,422.811,125.04,394.848,73.986  C392.501,69.7,395.609,64.469,400.496,64.469z"/>
<path style="fill:#CCCCCC;" d="M383.138,476.7c0,0-48.75,30.82-127.13,28.34c-78.38,2.48-127.13-28.34-127.13-28.34  c-38.38-25.87-60.72-59.4-72.1-96.15c12.41,19.01,29.13,36.33,51.11,51.15c0,0,48.74,30.83,127.12,28.34  c78.38,2.49,127.13-28.34,127.13-28.34c125.25-84.42,79.62-250.33,40.03-343.88C438.758,159.22,532.588,375.97,383.138,476.7z"/>
<path d="M256.021,435.933c-3.339-0.006-6.731-0.124-10.106-0.351c-0.847-0.066-1.518-0.128-2.007-0.178  c-0.219,0.008-0.431-0.006-0.647-0.025c-28.011-2.369-66.649-12.956-91.653-49.945c-31.128-46.046-31.483-119.709-1.053-218.943  c0.03-0.097,0.061-0.192,0.096-0.288L197.462,33.06c1.479-4.209,0.849-8.711-1.729-12.352c-2.58-3.641-6.617-5.729-11.079-5.729  H57.882v41.914h53.831c4.968,0,9.445,2.551,11.977,6.825c2.53,4.269,2.617,9.415,0.233,13.767  c-6.494,11.857-16.446,31.16-26.975,55.778c-1.626,3.803-6.026,5.571-9.832,3.941c-3.804-1.627-5.568-6.028-3.941-9.832  c10.309-24.105,20.091-43.252,26.745-55.499H55.486c-6.939,0-12.585-5.646-12.585-12.586V12.586C42.901,5.646,48.547,0,55.486,0  h129.168c9.246,0,17.958,4.505,23.302,12.049c5.345,7.545,6.705,17.256,3.638,25.979l-46.761,132.999  c-28.994,94.619-29.267,163.929-0.814,206.017c21.457,31.741,55.022,41.114,79.706,43.339c0.362-0.01,0.735,0.008,1.107,0.056  c0.079,0.01,0.843,0.099,2.167,0.203c2.974,0.2,6.035,0.307,9.022,0.312c2.962-0.005,6.023-0.112,9.074-0.318  c1.247-0.098,2.011-0.187,2.1-0.199c0.368-0.046,0.735-0.059,1.1-0.055c31.292-2.829,84.738-18.389,97.747-90  c0.738-4.07,4.647-6.775,8.708-6.03c4.07,0.739,6.769,4.637,6.03,8.708c-6.525,35.918-22.83,63.094-48.464,80.769  c-22.097,15.238-46.761,20.129-63.561,21.55c-0.217,0.019-0.439,0.017-0.65,0.026c-0.477,0.048-1.124,0.108-1.926,0.171  C262.727,435.809,259.335,435.927,256.021,435.933z"/>
<path d="M265.073,512c-2.979,0-5.995-0.046-9.065-0.14c-3.065,0.095-6.091,0.14-9.065,0.14  c-74.198,0.002-119.909-28.349-121.894-29.604c-0.061-0.039-0.122-0.079-0.182-0.119c-51.483-34.7-79.882-85.899-84.409-152.178  c-3.308-48.434,6.109-104.023,27.989-165.223c1.393-3.896,5.679-5.925,9.574-4.532s5.925,5.679,4.532,9.575  c-34.917,97.666-54.476,228.951,50.57,299.859c2.07,1.266,49.124,29.434,122.648,27.103c0.158-0.006,0.315-0.006,0.475,0  c73.741,2.33,120.507-25.785,122.641-27.1c65.376-44.124,90.038-116.481,73.308-215.068  c-13.358-78.716-49.278-150.162-64.101-177.226c-2.384-4.352-2.297-9.498,0.233-13.767c2.532-4.274,7.009-6.825,11.977-6.825h53.831  V14.98H327.363c-4.462,0-8.499,2.088-11.079,5.729c-2.579,3.641-3.209,8.142-1.729,12.352l46.812,133.143  c0.034,0.096,0.065,0.191,0.095,0.288c14.276,46.552,21.85,87.939,22.512,123.01c0.078,4.136-3.212,7.552-7.348,7.63  c-4.139,0.1-7.552-3.212-7.63-7.348c-0.635-33.643-7.972-73.595-21.811-118.756l-46.761-133c-3.067-8.723-1.708-18.434,3.638-25.979  C309.405,4.505,318.116,0,327.363,0H456.53c6.939,0,12.585,5.646,12.585,12.586v46.702c0,6.94-5.646,12.586-12.585,12.586h-54.433  c15.675,28.854,51.383,100.872,64.867,180.331c7.909,46.609,6.834,88.491-3.199,124.484c-12.287,44.08-38.064,79.604-76.615,105.588  c-0.06,0.04-0.121,0.08-0.182,0.119C384.982,483.651,339.264,511.998,265.073,512z"/>
<path d="M262.622,474.943h-13.227c-0.089,0-0.178-0.002-0.266-0.005c-3.219-0.114-6.439-0.272-9.568-0.468  c-4.129-0.258-7.266-3.815-7.007-7.944c0.258-4.128,3.821-7.269,7.944-7.007c2.954,0.185,5.992,0.335,9.033,0.444h12.958  c5.716-0.204,11.358-0.549,16.773-1.026c4.112-0.375,7.755,2.682,8.118,6.803c0.364,4.12-2.683,7.755-6.803,8.118  c-5.716,0.504-11.667,0.867-17.689,1.08C262.798,474.941,262.709,474.943,262.622,474.943z M200.502,469.253  c-0.517,0-1.042-0.055-1.567-0.166c-14.371-3.06-27.648-7.339-39.458-12.715c-3.765-1.715-5.427-6.156-3.714-9.92  c1.715-3.765,6.155-5.427,9.92-3.714c10.823,4.928,23.061,8.863,36.371,11.697c4.046,0.862,6.628,4.84,5.767,8.886  C207.071,466.841,203.961,469.253,200.502,469.253z M319.263,467.456c-3.351,0-6.403-2.266-7.258-5.663  c-1.009-4.011,1.424-8.082,5.435-9.092c13.145-3.308,25.146-7.773,35.672-13.27c3.664-1.913,8.19-0.495,10.107,3.173  c1.914,3.667,0.494,8.191-3.173,10.107c-11.565,6.039-24.669,10.924-38.949,14.519C320.484,467.382,319.869,467.456,319.263,467.456  z M129.191,435.491c-1.786,0-3.577-0.635-5.009-1.923c-10.526-9.475-19.293-20.679-26.058-33.3  c-1.954-3.646-0.583-8.185,3.063-10.14c3.645-1.954,8.185-0.583,10.14,3.063c5.945,11.091,13.642,20.93,22.877,29.243  c3.075,2.768,3.324,7.504,0.556,10.578C133.281,434.655,131.24,435.491,129.191,435.491z M388.545,429.975  c-1.875,0-3.753-0.7-5.207-2.107c-2.973-2.877-3.052-7.619-0.176-10.591c8.544-8.831,15.555-19.186,20.839-30.777  c1.715-3.764,6.159-5.425,9.921-3.709c3.765,1.715,5.425,6.158,3.709,9.921c-5.994,13.15-13.969,24.919-23.703,34.981  C392.46,429.212,390.503,429.975,388.545,429.975z M91.436,366.717c-3.48,0-6.598-2.438-7.328-5.979  c-2.616-12.684-3.952-26.546-3.969-41.199c-0.005-4.136,3.344-7.494,7.481-7.499c0.003,0,0.006,0,0.009,0  c4.132,0,7.485,3.347,7.49,7.481c0.017,13.645,1.248,26.494,3.661,38.191c0.836,4.051-1.772,8.013-5.823,8.849  C92.447,366.666,91.938,366.717,91.436,366.717z M422.003,358.887c-0.388,0-0.781-0.03-1.177-0.093  c-4.086-0.646-6.876-4.481-6.23-8.567c1.527-9.668,2.302-20.097,2.302-31.001c-0.001-2.443-0.04-4.943-0.115-7.428  c-0.127-4.135,3.124-7.589,7.258-7.714c0.078-0.003,0.155-0.004,0.232-0.004c4.032,0,7.359,3.205,7.482,7.262  c0.081,2.634,0.122,5.286,0.123,7.881c0,11.687-0.836,22.903-2.485,33.34C428.81,356.255,425.624,358.887,422.003,358.887z   M90.523,287.189c-0.342,0-0.689-0.023-1.037-0.072c-4.098-0.567-6.959-4.349-6.392-8.446c1.762-12.732,4.349-26.184,7.685-39.98  c0.973-4.021,5.024-6.498,9.041-5.52c4.021,0.972,6.492,5.021,5.52,9.041c-3.22,13.315-5.713,26.273-7.408,38.513  C97.413,284.474,94.203,287.189,90.523,287.189z M420.313,279.316c-3.611,0-6.792-2.618-7.386-6.297  c-1.976-12.242-4.72-25.165-8.158-38.409c-1.039-4.003,1.364-8.092,5.369-9.131c4.003-1.043,8.093,1.365,9.131,5.369  c3.554,13.696,6.396,27.081,8.447,39.784c0.659,4.084-2.117,7.929-6.201,8.588C421.112,279.284,420.709,279.316,420.313,279.316z   M108.986,209.49c-0.766,0-1.543-0.118-2.309-0.367c-3.935-1.274-6.092-5.498-4.818-9.433c4.018-12.409,8.618-25.215,13.672-38.064  c1.515-3.848,5.858-5.741,9.713-4.228c3.849,1.515,5.742,5.862,4.228,9.713c-4.942,12.561-9.438,25.076-13.362,37.194  C115.084,207.474,112.146,209.49,108.986,209.49z M400.527,201.93c-3.123,0-6.037-1.968-7.093-5.09  c-4.098-12.106-8.747-24.57-13.816-37.047c-1.557-3.833,0.288-8.202,4.12-9.758c3.834-1.559,8.201,0.287,9.758,4.12  c5.181,12.752,9.933,25.497,14.126,37.882c1.327,3.919-0.774,8.17-4.692,9.496C402.133,201.803,401.324,201.93,400.527,201.93z   M138.15,135.057c-1.042,0-2.101-0.218-3.11-0.681c-3.762-1.72-5.417-6.164-3.696-9.926c7.368-16.113,13.772-28.645,17.847-36.321  c1.938-3.653,6.474-5.046,10.127-3.103c3.653,1.939,5.043,6.474,3.103,10.127c-3.98,7.498-10.239,19.747-17.455,35.527  C143.708,133.433,140.991,135.057,138.15,135.057z M370.514,127.827c-2.812,0-5.507-1.592-6.783-4.305  c-10.131-21.546-17.784-35.085-17.86-35.22c-2.04-3.598-0.778-8.169,2.819-10.21c3.599-2.038,8.168-0.779,10.21,2.819  c0.321,0.567,7.989,14.125,18.387,36.237c1.76,3.744,0.152,8.205-3.591,9.965C372.667,127.598,371.582,127.827,370.514,127.827z"/>
<g>
</g>
<g>
</g>
<g>
</g>
<g>
</g>
<g>
</g>
<g>
</g>
<g>
</g>
<g>
</g>
<g>
</g>
<g>
</g>
<g>
</g>
<g>
</g>
<g>
</g>
<g>
</g>
<g>
</g>
</svg>
