<?xml version="1.0" encoding="iso-8859-1"?>
<!-- Generator: Adobe Illustrator 19.0.0, SVG Export Plug-In . SVG Version: 6.00 Build 0)  -->
<svg xmlns="http://www.w3.org/2000/svg" xmlns:xlink="http://www.w3.org/1999/xlink" version="1.1" id="Layer_1" x="0px" y="0px" viewBox="0 0 512 512" style="enable-background:new 0 0 512 512;" xml:space="preserve">
<path style="fill:#FD7555;" d="M166.796,39.316h146.908c2.761,0,5,2.239,5,5v209.747c0,14.825,12.018,26.844,26.844,26.844h60.715  c54.542,0,98.757,44.215,98.757,98.757v46.879H161.796V44.315C161.796,41.554,164.034,39.316,166.796,39.316z"/>
<path style="fill:#EF431D;" d="M505.022,379.668v46.877h-26.498l2.963-15.706c8.899-65.805-41.14-107.625-99.606-107.625h-44.397  c-23.316,0-42.217-18.902-42.217-42.217V40.673c0-0.47-0.06-0.93-0.18-1.36h18.619c2.761,0,5,2.239,5,5v209.747  c0,14.826,12.019,26.846,26.846,26.846h60.708C460.804,280.905,505.022,325.123,505.022,379.668z"/>
<g>
	<path style="fill:#496A7E;" d="M279.456,474.372h-112.66c-2.761,0-5-2.239-5-5v-42.831h122.659v42.831   C284.455,472.134,282.217,474.372,279.456,474.372z"/>
	<path style="fill:#496A7E;" d="M500.019,474.372H327.22c-2.761,0-5-2.239-5-5v-42.831h182.799v42.831   C505.018,472.134,502.781,474.372,500.019,474.372z"/>
</g>
<path style="fill:#FD7555;" d="M13.018,39.316h146.908c2.761,0,5,2.239,5,5v209.747c0,14.825,12.018,26.844,26.844,26.844h60.715  c54.542,0,98.757,44.215,98.757,98.757v46.879H8.018V44.315C8.018,41.554,10.256,39.316,13.018,39.316z"/>
<path style="fill:#EF431D;" d="M351.244,379.668v46.877h-26.498l2.963-15.706c8.899-65.805-41.14-107.625-99.606-107.625h-44.397  c-23.316,0-42.217-18.902-42.217-42.217V40.673c0-0.47-0.06-0.93-0.18-1.36h18.619c2.761,0,5,2.239,5,5v209.747  c0,14.826,12.019,26.846,26.846,26.846h60.708C307.026,280.905,351.244,325.123,351.244,379.668z"/>
<g>
	<path style="fill:#496A7E;" d="M118.963,474.372H12.732c-2.604,0-4.715-2.239-4.715-5v-42.831h115.66v42.831   C123.678,472.134,121.567,474.372,118.963,474.372z"/>
	<path style="fill:#496A7E;" d="M346.241,474.372H173.441c-2.761,0-5-2.239-5-5v-42.831h182.799v42.831   C351.241,472.134,349.002,474.372,346.241,474.372z"/>
</g>
<path d="M405.743,272.562h-60.715c-10.666,0-19.345-8.678-19.345-19.345V143.13c0-4.143-3.357-7.499-7.499-7.499  s-7.499,3.357-7.499,7.499v110.088c0,18.937,15.406,34.344,34.344,34.344h60.715c50.319,0,91.258,40.937,91.258,91.257v39.38  h-138.78v-39.38c0-58.59-47.667-106.256-106.256-106.256H191.25c-10.666,0-19.345-8.678-19.345-19.345V45.971h138.779v53.82  c0,4.143,3.357,7.499,7.499,7.499s7.499-3.357,7.499-7.499v-56.32c0-6.893-5.607-12.499-12.499-12.499H12.499  C5.607,30.972,0,36.579,0,43.471v206.692c0,4.143,3.357,7.499,7.499,7.499s7.499-3.357,7.499-7.499V45.971h141.909v207.247  c0,18.937,15.406,34.344,34.344,34.344h60.715c50.319,0,91.257,40.937,91.257,91.257v39.38H168.101h-44.942H14.999V289.782  c0-4.143-3.357-7.499-7.499-7.499s-7.325,3.357-7.325,7.499v178.747c0,6.893,5.607,12.499,12.499,12.499h105.486  c6.893,0,12.499-5.607,12.499-12.499v-35.331h29.943v35.331c0,6.893,5.607,12.499,12.499,12.499h172.375h0.247h153.779  c6.892,0,12.499-5.607,12.499-12.499v-89.711C512,320.228,464.333,272.562,405.743,272.562z M115.66,466.029H15.173v-32.832H115.66  V466.029z M343.222,466.029H175.6v-32.832h167.622V466.029z M497.001,466.029h-138.78v-32.832h138.78V466.029z"/>
<circle cx="274.65" cy="76.514" r="8.584"/>
<circle cx="262.181" cy="127.46" r="8.584"/>
<circle cx="91.243" cy="338.045" r="8.584"/>
<circle cx="120.871" cy="76.514" r="8.584"/>
<circle cx="108.412" cy="127.46" r="8.584"/>
<circle cx="67.085" cy="392.071" r="8.584"/>
<circle cx="39.593" cy="358.604" r="8.584"/>
<g>
</g>
<g>
</g>
<g>
</g>
<g>
</g>
<g>
</g>
<g>
</g>
<g>
</g>
<g>
</g>
<g>
</g>
<g>
</g>
<g>
</g>
<g>
</g>
<g>
</g>
<g>
</g>
<g>
</g>
</svg>
