<?xml version="1.0" encoding="iso-8859-1"?>
<!-- Generator: Adobe Illustrator 19.0.0, SVG Export Plug-In . SVG Version: 6.00 Build 0)  -->
<svg xmlns="http://www.w3.org/2000/svg" xmlns:xlink="http://www.w3.org/1999/xlink" version="1.1" id="Layer_1" x="0px" y="0px" viewBox="0 0 512 512" style="enable-background:new 0 0 512 512;" xml:space="preserve">
<path style="fill:#43A838;" d="M435.525,141.655v-6.333c0-50.076-40.971-91.048-91.048-91.048l0,0  c-50.076,0-91.048,40.971-91.048,91.048v6.336c0,19.236-7.814,37.596-21.504,51.109c-30.104,29.712-48.503,71.253-47.648,117.088  c1.637,87.705,74.342,158.152,162.057,157.155c87.636-0.996,158.37-72.346,158.37-160.218c0-44.572-18.205-84.886-47.579-113.929  C443.413,179.304,435.525,160.939,435.525,141.655z"/>
<path style="fill:#338727;" d="M504.706,306.789c0,87.875-70.737,159.221-158.375,160.218c-7.571,0.086-15.039-0.361-22.354-1.301  c78.755-10.118,139.612-77.406,139.612-158.917c0-44.565-18.203-84.883-47.577-113.924c-13.718-13.557-21.603-31.929-21.603-51.205  v-6.336c0-43.007-30.229-79.307-70.49-88.693c6.612-1.539,13.491-2.356,20.559-2.356c50.075,0,91.049,40.974,91.049,91.049v6.336  c0,19.275,7.885,37.649,21.603,51.205C486.504,221.905,504.706,262.224,504.706,306.789z"/>
<path style="fill:#43A838;" d="M169.855,123.269l-4.267-4.681c-33.731-37.011-91.611-39.695-128.622-5.963l0,0  c-37.011,33.731-39.695,91.611-5.963,128.622l4.269,4.683c12.957,14.217,19.55,33.05,18.533,52.26  c-2.235,42.238,12.147,85.335,43.654,118.634c60.288,63.719,161.477,66.812,225.636,6.992  c64.101-59.767,68.319-160.149,9.129-225.094c-30.024-32.943-70.634-50.477-111.909-52.156  C201.046,145.782,182.845,137.522,169.855,123.269z"/>
<path style="fill:#338727;" d="M332.22,198.719c59.193,64.948,54.969,165.328-9.132,225.098  c-5.539,5.163-11.358,9.863-17.398,14.095c51.393-60.528,51.047-151.254-3.859-211.498c-30.019-32.937-70.63-50.476-111.903-52.155  c-19.27-0.779-37.474-9.047-50.458-23.294l-4.269-4.683c-28.97-31.786-75.763-38.253-111.842-18.07  c3.85-5.591,8.383-10.828,13.608-15.589c37.01-33.73,94.894-31.047,128.624,5.963l4.269,4.683  c12.984,14.246,31.188,22.515,50.458,23.294C261.59,148.243,302.202,165.781,332.22,198.719z"/>
<ellipse transform="matrix(0.7391 -0.6736 0.6736 0.7391 -154.3295 231.1387)" style="fill:#975D50;" cx="221.213" cy="314.793" rx="77.586" ry="77.018"/>
<path style="fill:#7F443B;" d="M273.103,371.711c-4.963,4.523-10.347,8.282-16.025,11.298c18.94-28.851,16.896-67.767-7.27-94.282  c-24.167-26.517-62.727-32.152-93.206-15.963c3.527-5.374,7.769-10.387,12.731-14.911c31.658-28.853,80.558-26.764,109.214,4.679  C307.204,293.975,304.761,342.858,273.103,371.711z"/>
<path d="M498.91,242.072c-1.61-3.819-6.012-5.614-9.832-4.001c-3.82,1.609-5.612,6.012-4.002,9.832  c7.903,18.751,11.91,38.668,11.91,59.198c0,83.185-67.655,151.63-150.814,152.574c-0.587,0.007-1.164,0.011-1.749,0.011  c-16.365,0-32.158-2.622-46.987-7.455c10.971-6.312,21.268-13.905,30.718-22.716c32.447-30.253,51.317-71.34,53.136-115.694  c1.82-44.388-13.659-86.917-43.586-119.754c-21.095-23.146-47.578-39.552-76.883-48.042c0.071-1.303,0.115-2.609,0.115-3.917v-6.331  c0-46.021,37.442-83.463,83.464-83.463c46.021,0,83.463,37.441,83.463,83.463v6.328c0,21.253,8.457,41.319,23.812,56.501  c5.333,5.273,10.317,10.982,14.812,16.967c2.489,3.314,7.195,3.982,10.51,1.494c3.315-2.489,3.983-7.195,1.494-10.51  c-4.936-6.572-10.407-12.839-16.261-18.627c-12.481-12.341-19.355-28.615-19.355-45.826v-6.328  c0-54.299-44.177-98.476-98.476-98.476s-98.476,44.177-98.476,98.476v6.331c0,0.11-0.009,0.218-0.009,0.328  c-8.261-1.59-16.699-2.575-25.267-2.924c-17.536-0.713-33.579-8.111-45.173-20.832l-4.264-4.678  c-36.576-40.131-98.983-43.028-139.117-6.449c-40.132,36.576-43.026,98.983-6.45,139.117l4.264,4.679  c11.607,12.736,17.491,29.343,16.569,46.763c-2.45,46.31,13.765,90.378,45.66,124.088c1.981,2.094,4.032,4.154,6.1,6.125  c3.001,2.859,7.753,2.746,10.613-0.253c2.86-3.001,2.747-7.753-0.253-10.613c-1.882-1.794-3.75-3.669-5.554-5.576  c-29.04-30.693-43.804-70.816-41.573-112.977c1.119-21.15-6.34-42.17-20.465-57.668l-4.264-4.679  c-31-34.014-28.548-86.908,5.467-117.91c34.014-30.999,86.907-28.547,117.908,5.467l4.264,4.678  c14.316,15.708,34.083,24.843,55.659,25.721c41.054,1.668,78.901,19.307,106.57,49.666c56.033,61.482,52.135,157.642-8.692,214.356  c-48.492,45.215-120.12,53.965-178.234,21.778c-3.626-2.009-8.195-0.698-10.204,2.93c-2.009,3.626-0.697,8.195,2.93,10.203  c24.776,13.723,53.218,20.94,81.725,20.94c6.329,0,12.665-0.355,18.961-1.076c16.019-1.831,31.438-5.872,45.948-11.966  c20.133,8.59,42.238,13.357,65.38,13.356c0.637,0,1.281-0.004,1.92-0.011c44.359-0.504,85.983-18.161,117.204-49.717  C494.792,393.391,512,351.53,512,307.101C512,284.559,507.596,262.679,498.91,242.072z"/>
<path d="M217.064,399.727c1.239,0.053,2.472,0.079,3.705,0.079c21.259,0,41.507-7.841,57.365-22.293  c16.777-15.29,26.639-36.156,27.77-58.751c1.131-22.617-6.619-44.26-21.822-60.941c-15.203-16.682-36.036-26.402-58.661-27.367  c-22.609-0.958-44.292,6.924-61.069,22.214c-16.777,15.289-26.64,36.155-27.77,58.751c-1.131,22.617,6.619,44.26,21.822,60.941  C173.607,389.042,194.44,398.761,217.064,399.727z M151.576,312.169c0.931-18.612,9.06-35.802,22.889-48.405  c13.072-11.913,29.753-18.376,47.266-18.376c1.013,0,2.031,0.021,3.05,0.065c18.598,0.795,35.717,8.778,48.206,22.48  c12.488,13.702,18.853,31.487,17.923,50.078c-0.931,18.612-9.06,35.803-22.889,48.406c-13.828,12.603-31.694,19.107-50.316,18.311  c-18.598-0.795-35.717-8.778-48.205-22.48C157.012,348.545,150.647,330.761,151.576,312.169z"/>
<g>
</g>
<g>
</g>
<g>
</g>
<g>
</g>
<g>
</g>
<g>
</g>
<g>
</g>
<g>
</g>
<g>
</g>
<g>
</g>
<g>
</g>
<g>
</g>
<g>
</g>
<g>
</g>
<g>
</g>
</svg>
