<?xml version="1.0" encoding="iso-8859-1"?>
<!-- Generator: Adobe Illustrator 19.0.0, SVG Export Plug-In . SVG Version: 6.00 Build 0)  -->
<svg xmlns="http://www.w3.org/2000/svg" xmlns:xlink="http://www.w3.org/1999/xlink" version="1.1" id="Layer_1" x="0px" y="0px" viewBox="0 0 512 512" style="enable-background:new 0 0 512 512;" xml:space="preserve">
<path style="fill:#F8C442;" d="M287.666,109.539c-48.005,37.979-116.604,120.51-122.95,284.398  c-0.526,13.585,10.406,24.864,24.001,24.864h145.686h161.516c4.78,0,8.651-3.91,8.588-8.689  c-2.301-174.671-73.809-261.362-123.368-300.572C353.758,87.877,315.046,87.877,287.666,109.539z"/>
<path style="fill:#F4A240;" d="M504.504,410.107c0.067,4.779-3.803,8.69-8.582,8.69h-47.04c4.779,0,8.649-3.911,8.582-8.69  c-2.294-174.666-73.804-261.356-123.363-300.565c-7.106-5.622-14.98-9.792-23.22-12.486c23.495-7.723,49.984-3.562,70.259,12.486  C430.7,148.751,502.202,235.442,504.504,410.107z"/>
<path style="fill:#F8C442;" d="M130.672,109.539C82.668,147.518,14.068,230.049,7.722,393.936  C7.196,407.521,18.128,418.8,31.723,418.8h145.686h161.516c4.78,0,8.651-3.91,8.588-8.689  c-2.301-174.671-73.809-261.362-123.368-300.572C196.765,87.877,158.053,87.877,130.672,109.539z"/>
<path style="fill:#F4A240;" d="M347.511,410.107c0.067,4.779-3.803,8.69-8.582,8.69h-47.04c4.779,0,8.649-3.911,8.582-8.69  c-2.294-174.666-73.805-261.356-123.363-300.565c-7.106-5.622-14.98-9.792-23.22-12.486c23.495-7.723,49.984-3.562,70.26,12.486  C273.706,148.751,345.209,235.442,347.511,410.107z"/>
<path d="M459.204,190.646c-2.042-3.601-6.618-4.864-10.215-2.823c-3.6,2.042-4.864,6.615-2.823,10.215  c32.64,57.558,49.747,128.964,50.844,212.235c0.005,0.37-0.168,0.623-0.313,0.77c-0.148,0.15-0.405,0.33-0.786,0.33H354.89  c0.028-0.43,0.052-0.862,0.046-1.297c-0.186-14.086-0.829-27.849-1.912-41.292l20.785,17.633c1.409,1.195,3.131,1.779,4.844,1.779  c2.125,0,4.236-0.899,5.719-2.646c2.677-3.156,2.289-7.885-0.868-10.563l-24.66-20.919c-2.105-1.784-4.908-2.2-7.337-1.346  c-6.032-55.108-19.874-104.404-41.352-147.084c-12.449-24.739-27.26-46.925-44.233-66.402c8.866-9.186,17.737-17.109,26.297-23.882  c24.791-19.614,59.419-19.615,84.214,0c17.497,13.843,33.573,30.398,47.779,49.206c2.495,3.302,7.192,3.958,10.496,1.462  c3.302-2.494,3.957-7.193,1.462-10.496c-14.974-19.825-31.944-37.295-50.439-51.927c-30.267-23.945-72.544-23.944-102.811,0  c-9.526,7.537-18.569,15.755-27.128,24.605c-8.556-8.84-17.591-17.065-27.121-24.605c-30.265-23.945-72.545-23.945-102.81,0  c-40.406,31.969-93.268,93.087-115.639,202.72c-0.828,4.055,1.789,8.014,5.844,8.841c4.062,0.833,8.015-1.789,8.841-5.844  c21.467-105.202,71.806-163.544,110.254-193.963c24.791-19.613,59.422-19.613,84.213,0c44.04,34.842,118.265,119.49,120.576,294.92  c0.005,0.37-0.168,0.623-0.313,0.77c-0.148,0.15-0.405,0.33-0.786,0.33H192.426H31.522c-4.548,0-8.789-1.805-11.943-5.084  c-3.128-3.252-4.754-7.515-4.58-12.007c0.607-15.678,1.822-31.139,3.614-45.952c0.498-4.109-2.431-7.842-6.539-8.339  c-4.107-0.501-7.842,2.43-8.338,6.539c-1.841,15.217-3.09,31.087-3.711,47.171C-0.31,402.305,2.8,410.464,8.78,416.68  c6.004,6.242,14.082,9.68,22.743,9.68h157.84h149.491h157.06c4.337,0,8.405-1.7,11.453-4.79c3.044-3.085,4.688-7.167,4.631-11.495  C510.867,324.252,493.104,250.426,459.204,190.646z"/>
<path d="M404.331,254.928l-28.992,14.326c-3.71,1.833-5.232,6.327-3.399,10.038c1.305,2.643,3.962,4.176,6.724,4.176  c1.115,0,2.247-0.25,3.314-0.778l28.992-14.326c3.71-1.833,5.232-6.327,3.399-10.038  C412.536,254.616,408.04,253.092,404.331,254.928z"/>
<path d="M453.048,347.032c3.082,0,5.969-1.915,7.06-4.984l10.838-30.467c1.386-3.899-0.65-8.185-4.549-9.572  c-3.896-1.387-8.185,0.65-9.572,4.549l-10.838,30.467c-1.386,3.899,0.65,8.185,4.549,9.572  C451.367,346.892,452.213,347.032,453.048,347.032z"/>
<path d="M342.318,140.196c-3.962-1.197-8.143,1.05-9.337,5.013c-1.195,3.962,1.05,8.143,5.012,9.337l15.529,4.681  c0.721,0.218,1.449,0.321,2.165,0.321c3.219,0,6.195-2.092,7.172-5.334c1.195-3.962-1.05-8.143-5.012-9.337L342.318,140.196z"/>
<path d="M221.605,283.467c1.115,0,2.247-0.25,3.314-0.778l28.991-14.326c3.71-1.833,5.232-6.327,3.399-10.038  c-1.832-3.71-6.327-5.234-10.038-3.399l-28.991,14.326c-3.71,1.833-5.232,6.327-3.399,10.038  C216.187,281.934,218.844,283.467,221.605,283.467z"/>
<path d="M295.988,347.032c3.082,0,5.969-1.915,7.06-4.984l10.838-30.467c1.386-3.899-0.65-8.185-4.549-9.572  c-3.898-1.387-8.185,0.65-9.572,4.549l-10.838,30.467c-1.386,3.899,0.65,8.185,4.549,9.572  C294.307,346.892,295.154,347.032,295.988,347.032z"/>
<path d="M74.734,366.271c1.165,0.658,2.43,0.97,3.677,0.97c2.615,0,5.155-1.37,6.531-3.81c2.035-3.603,0.764-8.175-2.841-10.21  l-28.159-15.9c-3.604-2.037-8.177-0.763-10.209,2.841c-2.035,3.603-0.764,8.175,2.841,10.21L74.734,366.271z"/>
<path d="M120.375,183.368c-2.476-3.317-7.174-3.995-10.489-1.519c-3.316,2.477-3.995,7.173-1.519,10.489l9.708,12.995  c1.471,1.97,3.726,3.009,6.009,3.009c1.56,0,3.133-0.485,4.479-1.49c3.316-2.477,3.995-7.173,1.519-10.489L120.375,183.368z"/>
<path d="M137.589,316.56c0.062,0.001,0.123,0.002,0.184,0.002c4.054,0,7.389-3.238,7.488-7.313l0.39-16.215  c0.1-4.138-3.174-7.573-7.311-7.673c-0.062-0.001-0.123-0.002-0.184-0.002c-4.054,0-7.389,3.238-7.488,7.313l-0.39,16.215  C130.178,313.026,133.451,316.461,137.589,316.56z"/>
<path d="M200.788,144.877l-15.528-4.681c-3.962-1.197-8.143,1.05-9.337,5.013c-1.195,3.962,1.05,8.143,5.012,9.337l15.528,4.681  c0.721,0.218,1.449,0.321,2.165,0.321c3.219,0,6.195-2.092,7.172-5.334C206.994,150.251,204.75,146.071,200.788,144.877z"/>
<path d="M191.224,354.935c-2.677,3.157-2.289,7.885,0.868,10.563l24.661,20.919c1.409,1.195,3.131,1.779,4.844,1.779  c2.125,0,4.236-0.899,5.719-2.646c2.677-3.157,2.289-7.885-0.868-10.563l-24.661-20.919  C198.63,351.391,193.9,351.781,191.224,354.935z"/>
<g>
</g>
<g>
</g>
<g>
</g>
<g>
</g>
<g>
</g>
<g>
</g>
<g>
</g>
<g>
</g>
<g>
</g>
<g>
</g>
<g>
</g>
<g>
</g>
<g>
</g>
<g>
</g>
<g>
</g>
</svg>
