<?xml version="1.0" encoding="iso-8859-1"?>
<!-- Generator: Adobe Illustrator 19.0.0, SVG Export Plug-In . SVG Version: 6.00 Build 0)  -->
<svg xmlns="http://www.w3.org/2000/svg" xmlns:xlink="http://www.w3.org/1999/xlink" version="1.1" id="Layer_1" x="0px" y="0px" viewBox="0 0 512 512" style="enable-background:new 0 0 512 512;" xml:space="preserve">
<g>
	<path style="fill:#FD7555;" d="M362.83,75.129l29.041,21.213c1.418,1.035,1.222,3.208-0.357,3.974l-28.684,13.915L362.83,75.129   L362.83,75.129z"/>
	<path style="fill:#FD7555;" d="M129.03,227.998h30.122v-30.235c0-4.46-5.397-6.688-8.543-3.528l-25.122,25.235   C122.347,222.623,124.581,227.998,129.03,227.998z"/>
	<ellipse style="fill:#FD7555;" cx="335.137" cy="26.538" rx="19.2" ry="19.06"/>
</g>
<path style="fill:#EF431D;" d="M354.33,26.537c0,10.53-8.59,19.06-19.2,19.06c-2.47,0-4.83-0.46-7-1.32  c7.15-2.77,12.2-9.66,12.2-17.74c0-8.07-5.05-14.97-12.2-17.74c2.17-0.85,4.53-1.32,7-1.32  C345.74,7.477,354.33,16.017,354.33,26.537z"/>
<ellipse transform="matrix(0.9024 -0.4308 0.4308 0.9024 15.7846 126.7704)" style="fill:#FD7555;" cx="287.793" cy="28.534" rx="19.199" ry="19.059"/>
<path style="fill:#EF431D;" d="M305.124,20.267c4.537,9.503,0.46,20.901-9.115,25.473c-2.229,1.064-4.557,1.666-6.886,1.825  c5.259-5.58,6.848-13.974,3.366-21.265c-3.477-7.283-11.007-11.333-18.653-10.753c1.592-1.702,3.519-3.143,5.748-4.207  C289.16,6.768,300.591,10.774,305.124,20.267z"/>
<ellipse transform="matrix(0.7098 -0.7044 0.7044 0.7098 33.6873 195.2494)" style="fill:#FD7555;" cx="253.809" cy="56.74" rx="19.2" ry="19.06"/>
<path style="fill:#EF431D;" d="M267.427,43.215c7.417,7.474,7.329,19.58-0.202,27.053c-1.753,1.74-3.753,3.076-5.898,3.994  c3.124-7.003,1.855-15.45-3.837-21.186c-5.685-5.728-14.129-7.068-21.156-3.998c0.941-2.132,2.285-4.128,4.039-5.868  C247.903,35.737,260.016,35.748,267.427,43.215z"/>
<path style="fill:#FFFFFF;" d="M340.067,134.341c13.225-9.366,21.76-24.917,21.356-42.447  c-0.611-26.496-22.061-48.293-48.545-49.301c-28.806-1.096-52.503,21.931-52.503,50.494c0,12.276,4.381,23.527,11.66,32.282v101.894  H158.89c-1.112,0-2.023,0.911-2.004,2.023c1.089,63.217,53.114,114.021,116.795,113.13c62.857-0.879,113.791-52.807,113.516-115.669  C387.031,188.805,368.513,155.203,340.067,134.341z"/>
<path style="fill:#CCCCCC;" d="M387.154,230.454c-1.697,62.794-52.715,112.193-115.532,111.971  c-6.347-0.022-12.569-0.56-18.638-1.577c54.54-9.067,96.119-56.477,96.119-113.584c0-35.817-16.349-67.806-41.994-88.929  c-2.495-2.055-2.556-5.819-0.173-8.002c10.078-9.237,16.405-22.499,16.405-37.242c0-21.169-13.021-39.302-31.484-46.822  c6.556-2.671,13.794-4.002,21.383-3.662c25.599,1.148,46.522,21.715,48.097,47.291c1.129,18.336-7.548,34.717-21.27,44.442  C369.438,155.882,388.22,190.999,387.154,230.454z"/>
<circle cx="325.467" cy="83.61" r="8.572"/>
<path d="M393.664,90.173l-28.997-21.182c-0.424-0.31-0.88-0.553-1.348-0.764c-3.678-7.73-9.016-14.525-15.553-19.92  c6.935-4.793,11.487-12.77,11.487-21.787c0-14.623-11.959-26.52-26.658-26.52c-10.66,0-19.874,6.259-24.136,15.275  c-6.826-11.92-21.893-16.735-34.554-10.69c-10.374,4.953-16.1,15.75-15.09,26.533c-8.955-2.545-19.02-0.307-26.115,6.733  c-5.047,5.008-7.856,11.672-7.908,18.764c-0.053,7.113,2.67,13.803,7.667,18.838c4.998,5.036,11.667,7.809,18.779,7.811  c0.001,0,0.003,0,0.004,0c0.84,0,1.673-0.042,2.5-0.118c-0.556,3.25-0.856,6.57-0.856,9.942c0,12.586,4.123,24.867,11.66,34.882  v91.387c0,0.23-0.187,0.417-0.417,0.417h-99.77v-22.28c0-5.073-3.029-9.6-7.717-11.537c-4.688-1.936-10.03-0.865-13.61,2.731  l-25.084,25.197c-3.571,3.586-4.623,8.922-2.682,13.595c1.942,4.673,6.466,7.693,11.527,7.693h22.845  c3.941,61.609,53.594,110.775,114.908,114.506v147.343h-73.553c-4.137,0-7.489,3.353-7.489,7.489c0,4.137,3.353,7.489,7.489,7.489  h162.085c4.137,0,7.489-3.353,7.489-7.489c0-4.137-3.353-7.489-7.489-7.489h-73.553V349.674  c33.967-2.117,65.723-18.725,87.842-46.163c2.596-3.22,2.09-7.935-1.13-10.53c-3.22-2.596-7.935-2.089-10.53,1.13  c-20.554,25.497-50.489,40.373-82.127,40.816c-57.288,0.79-105.064-43.661-108.962-100.176h99.512  c8.49,0,15.395-6.906,15.395-15.395v-93.987c0-1.749-0.612-3.443-1.73-4.788c-6.404-7.702-9.93-17.466-9.93-27.494  c0-11.808,4.686-22.822,13.195-31.013c3.611-3.476,7.709-6.235,12.133-8.235c1.203-0.376,2.396-0.832,3.566-1.39  c0.058-0.028,0.113-0.059,0.171-0.087c4.957-1.696,10.241-2.49,15.666-2.286c22.659,0.862,40.819,19.307,41.343,41.99  c0.3,13.032-5.227,25.353-15.165,33.806c-2.537,2.16-3.962,5.306-3.906,8.629c0.055,3.319,1.578,6.411,4.178,8.48  c25.701,20.462,40.523,51.005,40.666,83.798c0.056,12.614-2.185,25.069-6.659,37.016c-1.451,3.873,0.513,8.189,4.387,9.639  c3.87,1.452,8.189-0.514,9.639-4.387c5.114-13.654,7.674-27.897,7.611-42.334c-0.157-35.839-15.703-69.318-42.814-92.558  c3.825-3.807,7.045-8.089,9.637-12.702c0.687-0.118,1.365-0.32,2.009-0.632l28.641-13.894c3.127-1.517,5.181-4.49,5.492-7.952  C397.961,95.512,396.471,92.221,393.664,90.173z M259.511,64.866c-2.221,2.205-5.157,3.419-8.269,3.419c0,0-0.001,0-0.002,0  c-3.09-0.001-5.984-1.202-8.149-3.384c-2.165-2.18-3.344-5.083-3.32-8.175c0.022-3.112,1.259-6.039,3.481-8.245  c2.293-2.275,5.286-3.413,8.268-3.413c2.965,0,5.917,1.126,8.152,3.378c2.164,2.18,3.344,5.084,3.32,8.176  C262.969,59.733,261.733,62.661,259.511,64.866z M149.379,220.195h-16.58l16.58-16.655V220.195z M296.31,32.296  c-0.961,2.686-2.842,4.88-5.324,6.267c-1.012,0.369-2.015,0.763-3.005,1.189c-5.234,1.264-10.807-1.21-13.191-6.204  c-2.742-5.743-0.244-12.673,5.567-15.447c1.637-0.781,3.364-1.152,5.063-1.152c4.334,0,8.482,2.409,10.452,6.534  C297.195,26.256,297.351,29.387,296.31,32.296z M332.594,38.06c-6.441,0-11.68-5.177-11.68-11.541s5.239-11.542,11.68-11.542  s11.68,5.178,11.68,11.542S339.035,38.06,332.594,38.06z M368.242,101.881c0.507-3.33,0.746-6.725,0.667-10.16  c-0.009-0.376-0.037-0.747-0.053-1.121l9.036,6.6L368.242,101.881z"/>
<circle cx="243.867" cy="314.7" r="8.572"/>
<circle cx="214.297" cy="285.91" r="8.572"/>
<circle cx="253.737" cy="285.91" r="8.572"/>
<g>
</g>
<g>
</g>
<g>
</g>
<g>
</g>
<g>
</g>
<g>
</g>
<g>
</g>
<g>
</g>
<g>
</g>
<g>
</g>
<g>
</g>
<g>
</g>
<g>
</g>
<g>
</g>
<g>
</g>
</svg>
