<svg height="512pt" viewBox="0 0 512 512.00154" width="512pt" xmlns="http://www.w3.org/2000/svg"><path d="m442.09375 7.9375c-67.851562 8.480469-175.382812 30.914062-266.355469 90.242188-36.1875 23.601562-41.226562 74.6875-10.675781 105.238281l143.519531 143.519531c30.550781 30.550781 81.636719 25.511719 105.238281-10.675781 59.328126-90.972657 81.757813-198.503907 90.242188-266.355469 4.484375-35.875-26.09375-66.453125-61.96875-61.96875zm0 0" fill="#a7b6c5"/><path d="m165.0625 203.417969 143.515625 143.519531c15.960937 15.957031 37.539063 22.207031 57.859375 19.375-62.113281-75.863281-51.742188-169.242188-51.742188-169.242188s-93.179687 10.347657-169-51.550781c-2.847656 20.332031 3.394532 41.925781 19.367188 57.898438zm0 0" fill="#889cb0"/><path d="m488.210938 23.789062c-11.566407-11.570312-28.179688-18.09375-46.121094-15.851562-67.847656 8.484375-175.378906 30.917969-266.351563 90.246094-36.1875 23.601562-41.226562 74.6875-10.675781 105.238281l71.757812 71.757813zm0 0" fill="#889cb0"/><path d="m314.667969 197.332031c.015625-.160156.027343-.265625.027343-.265625s-93.183593 10.347656-169-51.546875c-2.847656 20.335938 3.394532 41.929688 19.367188 57.898438l71.757812 71.757812zm0 0" fill="#6a829a"/><path d="m224.988281 238.1875 48.824219 48.824219-146.109375 146.109375-48.824219-48.824219zm0 0" fill="#e7896e"/><path d="m224.984375 238.1875-64.980469 64.980469c5.824219 4.183593 12.21875 9.402343 19.007813 15.933593 29.386719 28.253907 48.308593 14.402344 48.308593 14.402344l46.488282-46.488281zm0 0" fill="#dd6642"/><path d="m206.011719 305.988281c-13.480469-13.484375-13.480469-35.34375 0-48.824219l96.71875-96.71875c13.484375-13.484374 35.34375-13.484374 48.824219 0 13.484374 13.484376 13.484374 35.34375 0 48.824219l-96.714844 96.71875c-13.484375 13.480469-35.34375 13.480469-48.828125 0zm0 0" fill="#f9ee80"/><path d="m27.652344 484.347656c-26.917969-26.921875-26.917969-70.566406 0-97.484375l49.320312-49.316406c16.40625-16.40625 43.003906-16.40625 59.410156 0l38.070313 38.066406c16.40625 16.40625 16.40625 43.007813 0 59.414063l-49.316406 49.316406c-26.917969 26.921875-70.5625 26.921875-97.484375.003906zm0 0" fill="#73da8c"/><path d="m63.820312 423.027344 49.316407-49.316406c16.40625-16.40625 43.003906-16.40625 59.410156 0l-36.164063-36.164063c-16.40625-16.40625-43.007812-16.40625-59.414062 0l-49.316406 49.316406c-26.917969 26.917969-26.917969 70.5625 0 97.484375 6.390625 6.390625 13.746094 11.269532 21.574218 14.628906-10.777343-25.148437-5.933593-55.421874 14.59375-75.949218zm0 0" fill="#29ce69"/><path d="m420.101562 340.359375c59.007813-90.484375 82.273438-196.511719 91.402344-269.523437 2.425782-19.410157-4.128906-38.492188-17.988281-52.351563s-32.941406-20.414063-52.355469-17.988281c-23.929687 2.992187-47.855468 7.089844-71.121094 12.175781-4.046874.886719-6.609374 4.882813-5.722656 8.929687.882813 4.050782 4.882813 6.609376 8.929688 5.726563 22.820312-4.992187 46.292968-9.011719 69.773437-11.949219 12.273438-1.53125 24.367188 1.664063 34.164063 8.828125l-126.113282 126.113281c-16.371093-11.351562-39.070312-9.753906-53.644531 4.820313l-85.015625 85.019531-42.042968-42.042968c-13.039063-13.039063-19.417969-31.039063-17.507813-49.390626 1.894531-18.183593 11.726563-34.316406 26.976563-44.261718 45.394531-29.605469 99.710937-52.953125 161.433593-69.394532 4.003907-1.066406 6.382813-5.171874 5.316407-9.175781-1.066407-4.003906-5.175782-6.382812-9.179688-5.320312-63.261719 16.851562-119.03125 40.851562-165.761719 71.324219-19.054687 12.429687-31.339843 32.574218-33.703125 55.277343-2.382812 22.867188 5.570313 45.300781 21.816406 61.546875l42.042969 42.042969-72.464843 72.46875c-18.625-9.566406-42.085938-6.570313-57.667969 9.007813l-49.316407 49.320312c-29.800781 29.800781-29.800781 78.289062 0 108.089844 29.800782 29.800781 78.289063 29.800781 108.089844 0 2.929688-2.929688 2.929688-7.679688 0-10.609375-2.929687-2.929688-7.679687-2.929688-10.609375 0-23.949219 23.953125-62.921875 23.949219-86.875 0-23.949219-23.953125-23.949219-62.921875 0-86.875l49.316407-49.316407c13.457031-13.457031 35.351562-13.457031 48.808593 0l38.066407 38.070313c13.457031 13.453125 13.457031 35.347656 0 48.804687l-26.460938 26.460938c-2.925781 2.925781-2.925781 7.675781 0 10.605469 2.929688 2.929687 7.679688 2.929687 10.609375 0l26.460937-26.460938c15.582032-15.578125 18.578126-39.042969 9.007813-57.664062l72.46875-72.46875 42.042969 42.042969c16.246094 16.25 38.679687 24.199218 61.550781 21.820312 22.699219-2.363281 42.847656-14.648438 55.273437-33.703125zm-112.070312-174.609375c10.539062-10.539062 27.683594-10.539062 38.21875 0 10.539062 10.535156 10.539062 27.679688 0 38.21875l-96.714844 96.714844c-10.539062 10.539062-27.683594 10.539062-38.21875 0-10.539062-10.535156-10.539062-27.679688 0-38.21875zm-128.273438 204.5625-38.070312-38.070312c-.023438-.023438-.050781-.046876-.074219-.070313l46.96875-46.972656c.816407 9.523437 4.855469 18.820312 12.128907 26.09375 7.269531 7.273437 16.566406 11.308593 26.089843 12.125l-46.96875 46.972656c-.027343-.027344-.050781-.054687-.074219-.078125zm183.515626-11.171875c-18.351563 1.910156-36.351563-4.46875-49.390626-17.507813l-42.042968-42.042968 85.019531-85.015625c14.574219-14.574219 16.171875-37.273438 4.820313-53.644531l126.113281-126.117188c7.164062 9.800781 10.359375 21.890625 8.828125 34.164062-8.933594 71.445313-31.636719 175.097657-89.085938 263.1875-9.945312 15.25-26.078125 25.082032-44.261718 26.976563zm0 0"/></svg>