<?xml version="1.0" encoding="iso-8859-1"?>
<!-- Generator: Adobe Illustrator 19.0.0, SVG Export Plug-In . SVG Version: 6.00 Build 0)  -->
<svg xmlns="http://www.w3.org/2000/svg" xmlns:xlink="http://www.w3.org/1999/xlink" version="1.1" id="Layer_1" x="0px" y="0px" viewBox="0 0 511.999 511.999" style="enable-background:new 0 0 511.999 511.999;" xml:space="preserve">
<path style="fill:#FFFFFF;" d="M419.751,113.478c-17.351-0.339-33.564,4.429-47.246,12.898c-2.63,1.628-6.071,0.135-6.597-2.913  C354.594,57.862,297.422,7.957,228.589,7.957c-64.185,0-118.228,43.395-134.409,102.445c-0.493,1.8-2.108,3.066-3.973,3.146  c-46.369,1.987-83.293,40.429-82.83,87.395c0.47,47.667,40.012,85.734,87.681,85.734h322.958c48.243,0,87.274-39.445,86.599-87.843  C503.97,152.376,466.204,114.387,419.751,113.478z"/>
<path style="fill:#CCCCCC;" d="M504.603,197.894c0.707,28.81-12.663,54.537-33.716,70.782c2.491-8.073,3.828-16.641,3.828-25.53  c0-47.84-38.777-86.608-86.608-86.608c-16.733,0-32.357,4.745-45.597,12.963c-2.592,1.609-5.995,0.036-6.513-2.97  c-11.316-65.601-68.491-115.499-137.322-115.499c-37.961,0-72.38,15.183-97.512,39.818c21.659-48.83,70.567-82.893,127.426-82.893  c68.833,0,126.001,49.909,137.322,115.505c0.526,3.047,3.967,4.541,6.597,2.913c13.672-8.463,29.878-13.229,47.22-12.894  C465.832,114.368,503.471,151.797,504.603,197.894z"/>
<path style="fill:#FFFFFF;" d="M361.625,256.007c-9.74-0.191-18.842,2.486-26.523,7.241c-1.476,0.914-3.408,0.076-3.703-1.635  c-6.352-36.827-38.448-64.843-77.09-64.843c-36.032,0-66.371,24.361-75.456,57.511c-0.276,1.01-1.184,1.721-2.23,1.766  c-26.031,1.116-46.76,22.697-46.499,49.062c0.265,26.76,22.462,48.129,49.223,48.129h181.305c27.083,0,48.994-22.144,48.615-49.314  C408.903,277.844,387.702,256.517,361.625,256.007z"/>
<path style="fill:#CCCCCC;" d="M409.26,303.397c0.397,16.173-7.109,30.616-18.927,39.736c1.398-4.533,2.149-9.342,2.149-14.333  c0-26.856-21.769-48.621-48.621-48.621c-9.394,0-18.164,2.664-25.598,7.278c-1.455,0.903-3.365,0.02-3.656-1.667  c-6.352-36.828-38.45-64.839-77.092-64.839c-21.311,0-40.633,8.523-54.742,22.354c12.159-27.412,39.615-46.535,71.535-46.535  c38.642,0,70.735,28.018,77.092,64.843c0.295,1.711,2.227,2.549,3.703,1.635c7.675-4.751,16.773-7.426,26.509-7.239  C387.494,256.507,408.624,277.519,409.26,303.397z"/>
<path d="M144.851,511.527c-0.73,0-1.47-0.107-2.204-0.333c-3.95-1.215-6.167-5.403-4.951-9.353l7.337-23.84  c1.216-3.95,5.405-6.169,9.353-4.951c3.95,1.215,6.167,5.403,4.951,9.353L152,506.243  C151.011,509.46,148.049,511.527,144.851,511.527z M159.526,463.848c-0.73,0-1.47-0.107-2.204-0.333  c-3.95-1.216-6.167-5.403-4.951-9.353l7.337-23.839c1.216-3.949,5.404-6.167,9.353-4.951c3.95,1.215,6.167,5.403,4.951,9.353  l-7.337,23.839C165.685,461.78,162.724,463.848,159.526,463.848z M174.201,416.169c-0.73,0-1.47-0.107-2.204-0.333  c-3.95-1.216-6.167-5.403-4.951-9.353l7.337-23.839c1.216-3.95,5.403-6.17,9.353-4.951c3.95,1.216,6.167,5.403,4.951,9.353  l-7.337,23.839C180.359,414.101,177.399,416.169,174.201,416.169z"/>
<path d="M175.88,511.527c-0.73,0-1.47-0.107-2.204-0.333c-3.95-1.215-6.167-5.403-4.951-9.353l7.337-23.84  c1.216-3.95,5.403-6.169,9.353-4.951c3.95,1.215,6.167,5.403,4.951,9.353l-7.337,23.84  C182.039,509.46,179.078,511.527,175.88,511.527z M190.555,463.848c-0.73,0-1.47-0.107-2.204-0.333  c-3.95-1.216-6.167-5.403-4.951-9.353l7.337-23.839c1.216-3.949,5.405-6.167,9.353-4.951c3.95,1.215,6.167,5.403,4.951,9.353  l-7.337,23.839C196.713,461.78,193.753,463.848,190.555,463.848z M205.23,416.169c-0.73,0-1.47-0.107-2.204-0.333  c-3.95-1.216-6.167-5.403-4.951-9.353l7.337-23.839c1.216-3.95,5.404-6.17,9.353-4.951c3.95,1.216,6.167,5.403,4.951,9.353  l-7.337,23.839C211.388,414.101,208.428,416.169,205.23,416.169z"/>
<path d="M206.908,511.527c-0.73,0-1.47-0.107-2.204-0.333c-3.95-1.216-6.167-5.403-4.951-9.353l7.337-23.84  c1.216-3.95,5.404-6.169,9.353-4.951c3.95,1.216,6.167,5.403,4.951,9.353l-7.337,23.84  C213.067,509.46,210.107,511.527,206.908,511.527z M221.583,463.848c-0.73,0-1.47-0.107-2.204-0.333  c-3.95-1.216-6.167-5.403-4.951-9.353l7.337-23.839c1.216-3.949,5.403-6.167,9.353-4.951c3.95,1.215,6.167,5.403,4.951,9.353  l-7.337,23.839C227.742,461.78,224.781,463.848,221.583,463.848z M236.257,416.169c-0.73,0-1.47-0.107-2.204-0.333  c-3.95-1.216-6.167-5.403-4.951-9.353l7.337-23.839c1.216-3.95,5.405-6.17,9.353-4.951c3.95,1.216,6.167,5.403,4.951,9.353  l-7.337,23.839C242.417,414.101,239.455,416.169,236.257,416.169z"/>
<path d="M237.937,511.527c-0.73,0-1.47-0.107-2.204-0.333c-3.95-1.216-6.167-5.403-4.951-9.353l7.337-23.84  c1.216-3.95,5.404-6.169,9.353-4.951c3.95,1.216,6.167,5.403,4.951,9.353l-7.337,23.84  C244.096,509.46,241.135,511.527,237.937,511.527z M252.612,463.848c-0.73,0-1.47-0.107-2.204-0.333  c-3.95-1.216-6.167-5.403-4.951-9.353l7.337-23.839c1.216-3.949,5.404-6.167,9.353-4.951c3.95,1.215,6.167,5.403,4.951,9.353  l-7.337,23.839C258.771,461.78,255.81,463.848,252.612,463.848z M267.286,416.169c-0.73,0-1.47-0.107-2.204-0.333  c-3.95-1.216-6.167-5.403-4.951-9.353l7.337-23.839c1.216-3.95,5.403-6.17,9.353-4.951c3.95,1.216,6.167,5.403,4.951,9.353  l-7.337,23.839C273.445,414.101,270.484,416.169,267.286,416.169z"/>
<path d="M268.966,511.527c-0.73,0-1.47-0.107-2.204-0.333c-3.95-1.216-6.167-5.403-4.951-9.353l7.337-23.84  c1.216-3.95,5.405-6.169,9.353-4.951c3.95,1.216,6.167,5.403,4.951,9.353l-7.337,23.84  C275.124,509.46,272.164,511.527,268.966,511.527z M283.641,463.848c-0.73,0-1.47-0.107-2.204-0.333  c-3.95-1.216-6.167-5.403-4.951-9.353l7.337-23.839c1.216-3.949,5.405-6.167,9.353-4.951c3.95,1.215,6.167,5.403,4.951,9.353  l-7.337,23.839C289.799,461.78,286.839,463.848,283.641,463.848z M298.315,416.169c-0.73,0-1.47-0.107-2.204-0.333  c-3.95-1.216-6.167-5.403-4.951-9.353l7.337-23.839c1.216-3.95,5.404-6.17,9.353-4.951c3.95,1.216,6.167,5.403,4.951,9.353  l-7.337,23.839C304.474,414.101,301.514,416.169,298.315,416.169z"/>
<path d="M299.994,511.527c-0.73,0-1.47-0.107-2.204-0.333c-3.95-1.216-6.167-5.403-4.951-9.353l7.337-23.84  c1.216-3.95,5.403-6.169,9.353-4.951c3.95,1.216,6.167,5.403,4.951,9.353l-7.337,23.84  C306.153,509.46,303.193,511.527,299.994,511.527z M314.669,463.848c-0.73,0-1.47-0.107-2.204-0.333  c-3.95-1.216-6.167-5.403-4.951-9.353l7.337-23.839c1.216-3.949,5.405-6.167,9.353-4.951c3.95,1.215,6.167,5.403,4.951,9.353  l-7.337,23.839C320.828,461.78,317.867,463.848,314.669,463.848z M329.343,416.169c-0.73,0-1.47-0.107-2.204-0.333  c-3.95-1.216-6.167-5.403-4.951-9.353l7.337-23.839c1.216-3.95,5.405-6.17,9.353-4.951c3.95,1.216,6.167,5.403,4.951,9.353  l-7.337,23.839C335.503,414.101,332.542,416.169,329.343,416.169z"/>
<path d="M331.023,511.527c-0.73,0-1.47-0.107-2.204-0.333c-3.95-1.216-6.167-5.403-4.951-9.353l7.337-23.84  c1.216-3.95,5.404-6.169,9.353-4.951c3.95,1.216,6.167,5.403,4.951,9.353l-7.337,23.84  C337.182,509.46,334.221,511.527,331.023,511.527z M345.698,463.848c-0.73,0-1.47-0.107-2.204-0.333  c-3.95-1.216-6.167-5.403-4.951-9.353l7.337-23.839c1.216-3.949,5.404-6.167,9.353-4.951c3.95,1.215,6.167,5.403,4.951,9.353  l-7.337,23.839C351.857,461.78,348.896,463.848,345.698,463.848z M360.372,416.169c-0.73,0-1.47-0.107-2.204-0.333  c-3.95-1.216-6.167-5.403-4.951-9.353l7.337-23.839c1.216-3.95,5.403-6.17,9.353-4.951c3.95,1.216,6.167,5.403,4.951,9.353  l-7.337,23.839C366.532,414.101,363.571,416.169,360.372,416.169z"/>
<path d="M511.99,198.642c-0.34-24.411-10.078-47.461-27.419-64.904c-17.343-17.444-40.336-27.314-64.744-27.791  c-16.674-0.298-32.976,3.721-47.429,11.737c-3.363-16.459-9.491-32.085-18.25-46.51c-2.144-3.531-6.747-4.657-10.28-2.512  c-3.532,2.145-4.657,6.748-2.512,10.28c8.567,14.11,14.332,29.499,17.133,45.739c0.667,3.866,3.199,7.136,6.774,8.745  c3.602,1.621,7.764,1.345,11.131-0.742c12.927-8.001,27.848-12.044,43.14-11.774c42.142,0.824,76.905,35.788,77.493,77.941  c0.297,21.35-7.788,41.471-22.765,56.659c-14.981,15.191-34.98,23.557-56.314,23.557h-7.385c-2.627-5.128-6.05-9.883-10.228-14.085  c-10.34-10.399-24.052-16.283-38.611-16.568c-8.495-0.148-16.813,1.569-24.429,5.053c-9.623-37.626-43.488-64.266-82.986-64.266  c-37.284,0-70.336,24.303-81.611,59.529c-19.43,2.068-35.66,13.845-43.987,30.338H95.129c-43.774,0-79.735-35.119-80.16-78.287  c-0.423-42.915,32.798-77.97,75.632-79.807c5.143-0.221,9.51-3.694,10.867-8.642c15.633-57.051,67.912-96.895,127.133-96.895  c33.197,0,64.912,12.382,89.304,34.864c3.038,2.801,7.773,2.609,10.573-0.43c2.801-3.039,2.608-7.774-0.43-10.573  c-27.164-25.037-62.481-38.825-99.446-38.825c-65.17,0-122.791,43.337-140.938,105.677c-23.546,1.579-45.402,11.827-61.755,29.011  C8.961,152.967-0.239,176.325,0.005,200.929c0.507,51.338,43.179,93.105,95.125,93.105h28.528  c-0.663,3.564-0.998,7.247-0.961,11.017c0.302,30.611,25.73,55.516,56.684,55.516h181.225c15.128,0,29.31-5.933,39.932-16.705  c10.621-10.769,16.355-25.038,16.144-40.174c-0.046-3.27-0.389-6.495-0.988-9.655h2.253c25.37,0,49.154-9.949,66.969-28.015  C502.729,247.956,512.344,224.028,511.99,198.642z M389.882,333.354c-7.789,7.898-18.186,12.247-29.277,12.247H179.38  c-22.782,0-41.497-18.257-41.719-40.699c-0.221-22.312,17.049-40.536,39.317-41.491c4.318-0.185,7.985-3.104,9.126-7.264  c8.387-30.605,36.434-51.981,68.205-51.981c34.519,0,63.824,24.646,69.681,58.603c0.559,3.247,2.686,5.992,5.689,7.344  c3.018,1.359,6.504,1.128,9.326-0.618c6.718-4.159,14.474-6.281,22.426-6.118l0,0c21.909,0.428,39.98,18.605,40.286,40.519  C401.872,314.996,397.669,325.458,389.882,333.354z"/>
<path d="M361.724,248.414L361.724,248.414L361.724,248.414z"/>
<circle cx="174.238" cy="299.436" r="8.565"/>
<circle cx="202.036" cy="324.33" r="8.565"/>
<circle cx="291.371" cy="268.563" r="8.565"/>
<g>
</g>
<g>
</g>
<g>
</g>
<g>
</g>
<g>
</g>
<g>
</g>
<g>
</g>
<g>
</g>
<g>
</g>
<g>
</g>
<g>
</g>
<g>
</g>
<g>
</g>
<g>
</g>
<g>
</g>
</svg>
