<?xml version="1.0" encoding="iso-8859-1"?>
<!-- Generator: Adobe Illustrator 19.0.0, SVG Export Plug-In . SVG Version: 6.00 Build 0)  -->
<svg xmlns="http://www.w3.org/2000/svg" xmlns:xlink="http://www.w3.org/1999/xlink" version="1.1" id="Layer_1" x="0px" y="0px" viewBox="0 0 512.001 512.001" style="enable-background:new 0 0 512.001 512.001;" xml:space="preserve">
<path style="fill:#F8C442;" d="M375.174,150.747V33.032H238.098H101.022v117.716c0,8.934-3.549,17.501-9.866,23.818l-11.82,11.82  c-6.317,6.317-9.866,14.885-9.866,23.818v268.214c0,14.168,11.486,25.654,25.654,25.654h142.972H381.07  c14.168,0,25.654-11.486,25.654-25.654V210.204c0-8.934-3.549-17.501-9.866-23.818l-11.82-11.82  C378.723,168.249,375.174,159.681,375.174,150.747z"/>
<path style="fill:#F4A240;" d="M406.721,210.201v268.22c0,14.165-11.477,25.651-25.651,25.651h-46.95  c14.165,0,25.651-11.487,25.651-25.651v-268.22c0-8.933-3.546-17.494-9.864-23.811l-11.818-11.828  c-6.317-6.317-9.864-14.878-9.864-23.811V33.028h46.95V150.75c0,8.933,3.546,17.494,9.864,23.811l11.818,11.828  C403.174,192.706,406.721,201.268,406.721,210.201z"/>
<path style="fill:#B9E5FA;" d="M398.654,96.488l-0.081-0.211c-0.213-0.613-0.441-1.218-0.695-1.81l-17.593-45.835  c-0.803-2.093-4.274-3.562-4.274-3.562c10.176,0,18.5-8.325,18.5-18.5s-8.324-18.5-18.499-18.5H104.924  c-10.175,0-18.5,8.325-18.5,18.5s8.326,18.5,18.5,18.5l-3.829,0.088c-2.241,0-4.251,1.381-5.054,3.474L79.032,92.944  c-2.282,4.533-3.352,9.782-2.752,15.327c1.402,12.949,12.052,23.254,25.039,24.256c10.17,0.784,19.273-3.997,24.606-11.612  c4.949,7.069,13.149,11.696,22.435,11.696c9.285,0,17.484-4.627,22.435-11.696c4.95,7.069,13.149,11.696,22.435,11.696  c9.285,0,17.484-4.627,22.435-11.696c4.95,7.069,13.149,11.696,22.435,11.696c9.285,0,17.484-4.627,22.435-11.696  c4.949,7.069,13.149,11.696,22.435,11.696c9.285,0,17.484-4.627,22.435-11.696c4.95,7.069,13.149,11.696,22.435,11.696  c9.285,0,17.484-4.627,22.435-11.696c4.95,7.069,13.149,11.696,22.435,11.696c15.119,0,27.375-12.256,27.375-27.375  C400.081,102.176,398.654,96.488,398.654,96.488z"/>
<path d="M406.895,408.367c-4.138,0-7.492,3.353-7.492,7.492v62.967c0,10.031-8.161,18.192-18.192,18.192H94.945  c-10.031,0-18.192-8.161-18.192-18.192V279.118c0-4.138-3.353-7.492-7.492-7.492c-4.138,0-7.492,3.353-7.492,7.492v199.708  c0,18.292,14.881,33.175,33.175,33.175h286.267c18.292,0,33.175-14.881,33.175-33.175v-62.967  C414.386,411.72,411.033,408.367,406.895,408.367z"/>
<path d="M444.327,38.334c4.34-4.152,6.352-9.654,5.82-15.909c-0.961-11.317-10.012-20.65-21.523-22.188  c-12.366-1.651-23.008,5.636-30.234,12.762c-4.567-7.512-12.83-12.54-22.245-12.54h-271.39c-14.343,0-26.013,11.67-26.013,26.013  c0,8.207,3.825,15.533,9.78,20.303L71.966,89.906c-2.898,5.923-4.051,12.541-3.334,19.164c1.533,14.165,11.495,25.696,24.726,29.612  v12.105c0,7.007-2.728,13.594-7.683,18.547l-11.834,11.833c-7.783,7.784-12.07,18.134-12.07,29.143v25.423  c0,4.138,3.353,7.492,7.492,7.492c4.138,0,7.492-3.353,7.492-7.492v-25.423c0-7.007,2.728-13.594,7.682-18.547l11.832-11.833  c7.785-7.783,12.072-18.134,12.072-29.143v-11.021c6.473-0.921,12.494-3.621,17.459-7.827c6.221,5.222,14.149,8.183,22.441,8.183  c8.3,0,16.237-2.969,22.459-8.2c6.222,5.231,14.16,8.2,22.46,8.2s16.237-2.969,22.459-8.2c6.222,5.231,14.16,8.2,22.46,8.2  c8.3,0,16.237-2.969,22.459-8.2c6.223,5.232,14.16,8.2,22.46,8.2c8.3,0,16.237-2.969,22.459-8.2c6.223,5.232,14.16,8.2,22.46,8.2  c8.3,0,16.237-2.969,22.459-8.2c4.954,4.165,10.996,6.889,17.44,7.829v11.036c0,11.009,4.287,21.359,12.071,29.143l11.833,11.833  c4.954,4.953,7.682,11.541,7.682,18.547v163.934c0,4.138,3.353,7.492,7.492,7.492c4.138,0,7.492-3.353,7.492-7.492V210.31  c0-11.009-4.287-21.359-12.071-29.143l-11.833-11.833c-4.954-4.953-7.682-11.541-7.682-18.547v-12.121  c14.403-4.299,24.935-17.66,24.935-33.44c0-3.797-1.377-9.479-1.653-10.58c-0.073-0.294-0.165-0.582-0.273-0.865l-0.039-0.1  c-0.255-0.728-0.512-1.398-0.783-2.044l-11.289-29.41c6.002,10.241,15.533,24.066,28.464,35.42c1.422,1.25,3.184,1.862,4.939,1.862  c2.081,0,4.151-0.862,5.633-2.549c2.73-3.109,2.423-7.842-0.687-10.572c-15.566-13.669-25.874-31.986-30.038-40.251  c4.401,0.39,8.489,0.584,12.272,0.584C428.558,46.721,438.466,43.94,444.327,38.334z M104.755,15.442h271.391  c6.082,0,11.03,4.947,11.03,11.03c0,6.081-4.947,11.029-11.03,11.029H104.755c-6.082,0-11.03-4.947-11.03-11.029  C93.725,20.39,98.673,15.442,104.755,15.442z M372.836,125.139c-6.488,0-12.59-3.183-16.324-8.514  c-1.402-2.002-3.693-3.193-6.137-3.193c-2.444,0-4.735,1.192-6.137,3.194c-3.733,5.331-9.835,8.513-16.323,8.513  s-12.59-3.183-16.324-8.514c-1.402-2.002-3.693-3.193-6.137-3.193c-2.444,0-4.735,1.192-6.137,3.194  c-3.733,5.331-9.835,8.513-16.323,8.513c-6.488,0-12.59-3.183-16.324-8.514c-1.402-2.002-3.693-3.193-6.137-3.193  c-2.444,0-4.735,1.192-6.137,3.194c-3.733,5.331-9.835,8.513-16.323,8.513c-6.488,0-12.59-3.183-16.324-8.513  c-1.401-2.003-3.692-3.194-6.137-3.194s-4.735,1.192-6.137,3.194c-3.733,5.331-9.835,8.513-16.323,8.513  c-6.488,0-12.59-3.183-16.324-8.513c-1.401-2.003-3.692-3.194-6.137-3.194s-4.735,1.192-6.137,3.194  c-3.733,5.331-9.835,8.513-16.323,8.513c-6.488,0-12.59-3.183-16.324-8.513c-1.401-2.003-3.692-3.194-6.137-3.194  c-2.445,0-4.735,1.192-6.137,3.194c-4.091,5.843-10.804,8.997-17.92,8.453c-9.364-0.723-17.187-8.298-18.197-17.62  c-0.42-3.879,0.271-7.74,1.998-11.168c0.112-0.224,0.214-0.452,0.304-0.686l16.517-43.032h271.596l17.103,44.556  c0.034,0.088,0.069,0.175,0.106,0.262c0.165,0.386,0.326,0.805,0.491,1.282c0.492,2.049,1.109,5.242,1.109,6.554  C392.751,116.205,383.817,125.139,372.836,125.139z M426.638,15.088c4.6,0.615,8.209,4.234,8.58,8.605  c0.181,2.129-0.494,3.092-1.251,3.814c-1.981,1.896-8.897,5.764-31.476,3.632C406.939,24.873,416.969,13.799,426.638,15.088z"/>
<circle cx="125.35" cy="438.289" r="8.575"/>
<circle cx="153.179" cy="463.221" r="8.575"/>
<circle cx="290.175" cy="203.592" r="8.575"/>
<circle cx="325.495" cy="238.912" r="8.575"/>
<circle cx="325.495" cy="332.817" r="8.575"/>
<g>
</g>
<g>
</g>
<g>
</g>
<g>
</g>
<g>
</g>
<g>
</g>
<g>
</g>
<g>
</g>
<g>
</g>
<g>
</g>
<g>
</g>
<g>
</g>
<g>
</g>
<g>
</g>
<g>
</g>
</svg>
