<?xml version="1.0" encoding="iso-8859-1"?>
<!-- Generator: Adobe Illustrator 19.0.0, SVG Export Plug-In . SVG Version: 6.00 Build 0)  -->
<svg xmlns="http://www.w3.org/2000/svg" xmlns:xlink="http://www.w3.org/1999/xlink" version="1.1" id="Layer_1" x="0px" y="0px" viewBox="0 0 511.999 511.999" style="enable-background:new 0 0 511.999 511.999;" xml:space="preserve">
<path style="fill:#FD7555;" d="M499.849,189.698h-80.735c-2.422,0-4.387-1.964-4.387-4.387v-22.784c0-2.422,1.964-4.387,4.387-4.387  h80.736c2.422,0,4.387,1.964,4.387,4.387v22.784C504.236,187.734,502.272,189.698,499.849,189.698z"/>
<path style="fill:#EF431D;" d="M504.239,162.527v22.788c0,2.414-1.966,4.38-4.39,4.38h-36.915c2.424,0,4.39-1.966,4.39-4.38v-22.788  c0-2.424-1.966-4.39-4.39-4.39h36.915C502.273,158.137,504.239,160.103,504.239,162.527z"/>
<polygon style="fill:#F8C442;" points="473.699,66.167 459.483,66.167 459.48,66.167 445.263,66.167 431.044,158.142   459.48,158.142 459.483,158.142 487.919,158.142 "/>
<polygon style="fill:#F4A240;" points="487.917,158.137 464.969,158.137 450.752,66.168 473.699,66.168 "/>
<path style="fill:#43A838;" d="M333.88,425.371c52.814,0,95.628-42.814,95.628-95.628V189.269h61.223v152.914  c0,80.792-65.495,146.288-146.288,146.288H198.926v-63.099H333.88V425.371z"/>
<path style="fill:#338727;" d="M490.73,189.265v152.92c0,80.785-65.5,146.285-146.285,146.285H198.928v-19.186h120.344  c80.795,0,146.285-65.49,146.285-146.285V189.265H490.73z"/>
<path style="fill:#43A838;" d="M185.626,132.777c-98.222,0-177.847,79.625-177.847,177.847S87.404,488.47,185.626,488.47  s177.847-79.625,177.847-177.846S283.848,132.777,185.626,132.777z M185.626,367.982c-31.678,0-57.358-25.68-57.358-57.358  s25.68-57.358,57.358-57.358s57.358,25.68,57.358,57.358S217.304,367.982,185.626,367.982z"/>
<path style="fill:#338727;" d="M185.629,132.774c-9.768,0-19.346,0.788-28.685,2.304c84.586,13.709,149.168,87.09,149.168,175.547  c0,88.447-64.582,161.829-149.168,175.538c9.338,1.516,18.917,2.304,28.685,2.304c98.215,0,177.843-79.628,177.843-177.843  C363.471,212.402,283.844,132.774,185.629,132.774z"/>
<path style="fill:#B9E5FA;" d="M353.703,61.012c5.332-12.422,16.954-27.134,23.69-35.108c2.675-3.166,7.539-3.166,10.214,0  c6.736,7.975,18.359,22.687,23.691,35.108c2.91,5.804,4.171,12.578,2.989,19.751c-2.343,14.206-14.147,25.288-28.473,26.717  c-19.286,1.924-35.54-13.171-35.54-32.062C350.273,70.233,351.527,65.352,353.703,61.012z"/>
<path style="fill:#87D5F6;" d="M350.595,79.996c2.233,15.635,15.664,27.65,31.898,27.65c17.81,0,32.234-14.423,32.234-32.234  c0-5.182-1.256-10.058-3.431-14.394c-4.102-9.577-11.956-20.496-18.424-28.672c0.964,1.796,1.84,3.577,2.584,5.314  c2.175,4.336,3.431,9.211,3.431,14.394c0,17.81-14.423,32.234-32.219,32.234C360.814,84.288,355.326,82.726,350.595,79.996z"/>
<path d="M500.117,150.54h-5.522l-13.255-85.732c-0.564-3.652-3.708-6.347-7.403-6.347h-28.468c-3.696,0-6.839,2.695-7.403,6.347  l-13.255,85.732h-5.522c-6.552,0-11.882,5.331-11.882,11.882v22.809c0,6.553,5.331,11.883,11.882,11.883h2.915v133.143  c0,47.819-38.233,86.872-85.735,88.207c21.773-30.399,34.607-67.616,34.607-107.777c0-102.306-83.232-185.539-185.538-185.539  c-32.558,0-64.589,8.555-92.629,24.742c-3.583,2.068-4.811,6.649-2.743,10.232c2.069,3.584,6.65,4.81,10.233,2.743  c25.766-14.873,55.207-22.735,85.138-22.735c94.045,0,170.555,76.511,170.555,170.556c0,94.044-76.511,170.555-170.555,170.555  S14.983,404.73,14.983,310.686c0-47.635,19.144-91.824,53.904-124.427c3.017-2.831,3.169-7.571,0.339-10.59  c-2.83-3.018-7.571-3.169-10.589-0.34c-18.314,17.177-32.731,37.482-42.849,60.349C5.312,259.355,0,284.591,0,310.686  c0,102.306,83.232,185.538,185.539,185.538c3.734,0,7.438-0.124,11.118-0.343c0.695,0.216,1.43,0.343,2.197,0.343h145.681  c84.886,0,153.944-69.06,153.944-153.944v-75.02c0-4.138-3.354-7.491-7.491-7.491s-7.491,3.353-7.491,7.491v75.019  c0,76.624-62.338,138.962-138.962,138.962h-85.98c25.393-10.912,47.874-27.339,65.941-47.758h9.463  c56.92,0,103.227-46.307,103.227-103.227V197.115h46.309v28.623c0,4.138,3.354,7.491,7.491,7.491c4.137,0,7.491-3.353,7.491-7.491  v-28.623h1.638c6.552,0,11.882-5.331,11.882-11.883v-22.809C512,155.871,506.669,150.54,500.117,150.54z M451.892,73.444h15.624  l11.919,77.097h-39.462L451.892,73.444z M497.017,182.132H422.39v-16.61h74.627V182.132z"/>
<path d="M185.539,441.657c-71.552,0-129.763-58.21-129.763-129.762s58.211-129.762,129.763-129.762  c71.551,0,129.762,58.21,129.762,129.762S257.09,441.657,185.539,441.657z M185.539,197.115c-63.291,0-114.781,51.49-114.781,114.78  s51.49,114.78,114.781,114.78c63.29,0,114.78-51.49,114.78-114.78S248.828,197.115,185.539,197.115z"/>
<path d="M185.539,376.808c-35.794,0-64.915-29.12-64.915-64.914c0-35.794,29.12-64.915,64.915-64.915  c35.793,0,64.915,29.12,64.915,64.915C250.453,347.688,221.332,376.808,185.539,376.808z M185.539,261.963  c-27.533,0-49.932,22.4-49.932,49.932c0,27.532,22.399,49.931,49.932,49.931c27.532,0,49.932-22.399,49.932-49.931  C235.471,284.363,213.071,261.963,185.539,261.963z"/>
<path d="M382.721,114.964c-9.857,0-19.432-3.639-26.758-10.27c-8.314-7.526-13.083-18.271-13.083-29.48  c0-6.127,1.388-12.039,4.127-17.578c5.495-12.682,16.503-27.015,24.792-36.827c2.703-3.199,6.652-5.034,10.836-5.034  c4.183,0,8.134,1.835,10.835,5.034c8.289,9.813,19.298,24.145,24.791,36.827c3.714,7.511,4.953,15.856,3.585,24.147  c-2.911,17.645-17.366,31.208-35.153,32.983C385.368,114.899,384.041,114.964,382.721,114.964z M382.635,31.203  c-6.381,7.609-17.117,21.293-21.946,32.543c-0.059,0.137-0.121,0.271-0.187,0.402c-1.751,3.494-2.64,7.218-2.64,11.066  c0,6.984,2.973,13.68,8.155,18.372c5.253,4.754,12.071,6.983,19.19,6.272c10.883-1.086,20.076-9.713,21.858-20.512  c0.862-5.224,0.068-10.479-2.297-15.196c-0.066-0.133-0.129-0.267-0.188-0.403C399.751,52.496,389.015,38.811,382.635,31.203z   M353.805,60.792h0.01H353.805z"/>
<g>
</g>
<g>
</g>
<g>
</g>
<g>
</g>
<g>
</g>
<g>
</g>
<g>
</g>
<g>
</g>
<g>
</g>
<g>
</g>
<g>
</g>
<g>
</g>
<g>
</g>
<g>
</g>
<g>
</g>
</svg>
