<svg height="511pt" viewBox="-19 0 511 511.99948" width="511pt" xmlns="http://www.w3.org/2000/svg"><path d="m182.4375 141.242188c20.695312 20.695312 47.914062 27.035156 60.792969 14.15625 12.875-12.878907 6.539062-40.09375-14.160157-60.789063-20.695312-20.695313-47.910156-27.035156-60.789062-14.15625-12.878906 12.875-6.539062 40.09375 14.15625 60.789063zm0 0" fill="#29ce69"/><path d="m207.988281 79.363281c-7.640625 12.628907-18.460937 37.625-13.089843 72.160157 18.132812 12.140624 37.917968 14.289062 48.328124 3.878906 12.875-12.878906 6.539063-40.09375-14.15625-60.789063-6.59375-6.59375-13.839843-11.726562-21.082031-15.25zm0 0" fill="#00c140"/><path d="m182.4375 273.78125c20.699219 20.695312 47.914062 27.03125 60.792969 14.15625 12.875-12.878906 6.539062-40.097656-14.15625-60.792969-20.695313-20.695312-47.914063-27.035156-60.792969-14.15625-12.875 12.878907-6.539062 40.09375 14.15625 60.792969zm0 0" fill="#29ce69"/><path d="m207.992188 211.902344c-7.640626 12.625-18.464844 37.621094-13.09375 72.15625 18.132812 12.140625 37.917968 14.292968 48.328124 3.878906 12.875-12.875 6.539063-40.09375-14.15625-60.789062-6.59375-6.59375-13.839843-11.726563-21.078124-15.246094zm0 0" fill="#00c140"/><path d="m275.175781 365.097656h-50.5625v-275.144531c0-13.964844 11.320313-25.285156 25.28125-25.285156 13.960938 0 25.28125 11.320312 25.28125 25.285156zm0 0" fill="#73da8c"/><path d="m310.5625 74.972656c20.695312-20.695312 27.035156-47.910156 14.15625-60.789062-12.878906-12.878906-40.09375-6.539063-60.789062 14.15625-20.699219 20.695312-27.035157 47.914062-14.15625 60.789062 12.875 12.878906 40.09375 6.539063 60.789062-14.15625zm0 0" fill="#b9ecc2"/><path d="m310.5625 207.507812c20.699219-20.695312 27.035156-47.914062 14.15625-60.789062-12.875-12.878906-40.09375-6.539062-60.789062 14.15625-20.695313 20.695312-27.035157 47.914062-14.15625 60.789062 12.878906 12.878907 40.09375 6.539063 60.789062-14.15625zm0 0" fill="#b9ecc2"/><path d="m323.261719 338.902344c-17.664063-.570313-34.132813 4.390625-47.8125 13.28125-15.609375 10.148437-35.5 10.148437-51.109375 0-13.679688-8.890625-30.148438-13.851563-47.8125-13.28125-42.890625 1.386718-78.011719 35.992187-79.984375 78.863281-2.1875 47.519531 35.695312 86.734375 82.730469 86.734375h141.238281c47.039062 0 84.921875-39.214844 82.734375-86.734375-1.972656-42.871094-37.09375-77.476563-79.984375-78.863281zm0 0" fill="#f2ad9a"/><path d="m78.480469 84.796875 5.304687 9.699219c5.292969 9.675781 13.246094 17.628906 22.921875 22.921875l9.699219 5.304687c9.925781 5.425782 9.925781 19.683594 0 25.113282l-9.699219 5.304687c-9.675781 5.289063-17.628906 13.246094-22.921875 22.917969l-5.304687 9.699218c-5.425781 9.925782-19.683594 9.925782-25.113281 0l-5.304688-9.699218c-5.289062-9.671875-13.242188-17.628906-22.917969-22.917969l-9.699219-5.304687c-9.925781-5.429688-9.925781-19.6875 0-25.113282l9.699219-5.304687c9.675781-5.292969 17.628907-13.246094 22.917969-22.921875l5.304688-9.699219c5.429687-9.925781 19.6875-9.925781 25.113281 0zm0 0" fill="#f4e74d"/><path d="m430.253906 223.25 4.167969 7.617188c4.15625 7.597656 10.402344 13.84375 18 18l7.617187 4.164062c7.796876 4.265625 7.796876 15.460938 0 19.726562l-7.617187 4.164063c-7.597656 4.15625-13.84375 10.402344-18 18l-4.167969 7.621094c-4.261718 7.792969-15.457031 7.792969-19.722656 0l-4.164062-7.621094c-4.15625-7.597656-10.402344-13.84375-18.003907-18l-7.613281-4.164063c-7.796875-4.265624-7.796875-15.460937 0-19.726562l7.613281-4.164062c7.601563-4.15625 13.847657-10.402344 18.003907-18l4.164062-7.617188c4.265625-7.796875 15.460938-7.796875 19.722656 0zm0 0" fill="#f9ee80"/><g fill="#e7896e"><path d="m235.132812 402.414062c52.027344-17.375 72.042969-62.453124 72.058594-62.492187-11.558594 1.871094-22.3125 6.132813-31.742187 12.261719-15.609375 10.144531-35.5 10.144531-51.109375 0-13.679688-8.890625-30.148438-13.855469-47.8125-13.28125-42.890625 1.386718-78.011719 35.992187-79.984375 78.863281-2.1875 47.519531 35.695312 86.734375 82.734375 86.734375h30.066406c-6.242188-8.816406-10.523438-18.175781-13.375-27.464844-9.625-31.332031 8.074219-64.238281 39.164062-74.621094zm0 0"/><path d="m296.023438 453.234375c0 8.511719-6.898438 15.410156-15.40625 15.410156-8.511719 0-15.410157-6.898437-15.410157-15.410156 0-8.507813 6.898438-15.40625 15.410157-15.40625 8.507812 0 15.40625 6.898437 15.40625 15.40625zm0 0"/><path d="m349.714844 421.679688c0 8.507812-6.898438 15.40625-15.40625 15.40625-8.511719 0-15.410156-6.898438-15.410156-15.40625 0-8.511719 6.898437-15.410157 15.410156-15.410157 8.507812 0 15.40625 6.898438 15.40625 15.410157zm0 0"/></g><path d="m382.007812 355.65625c-3.03125-2.824219-7.777343-2.65625-10.601562.375s-2.65625 7.773438.375 10.597656c14.554688 13.566406 23.066406 31.847656 23.972656 51.480469.957032 20.820313-6.414062 40.5625-20.761718 55.582031-14.351563 15.03125-33.703126 23.308594-54.480469 23.308594h-141.234375c-20.777344 0-40.125-8.277344-54.480469-23.308594-14.347656-15.019531-21.71875-34.761718-20.761719-55.582031 1.792969-38.953125 33.742188-70.453125 72.738282-71.714844 15.511718-.496093 30.554687 3.675781 43.480468 12.078125 18.007813 11.703125 41.273438 11.703125 59.28125 0 12.925782-8.402344 27.957032-12.574218 43.480469-12.078125 9.09375.296875 17.957031 2.226563 26.34375 5.734375 3.820313 1.601563 8.214844-.199218 9.8125-4.019531 1.601563-3.820313-.199219-8.214844-4.019531-9.8125-10.078125-4.21875-20.726563-6.539063-31.648438-6.890625-14.242187-.460938-28.136718 2.375-40.828125 8.246094v-106.121094c11.226563-3.390625 22.890625-10.414062 33.191407-20.71875 23.988281-23.984375 30.796874-55.960938 14.15625-71.394531-18.472657-17.136719-43.082032-4.976563-47.347657-2.976563v-37.445312c11.226563-3.390625 22.890625-10.414063 33.191407-20.71875 23.984374-23.984375 30.203124-55.347656 14.15625-71.394532-8.128907-8.128906-20.367188-10.796874-34.46875-7.515624-12.828126 2.988281-25.941407 10.683593-36.929688 21.671874-11.40625 11.40625-18.785156 24.480469-21.671875 36.78125-7.925781 3.386719-14.089844 9.71875-17.324219 17.503907-21.15625-13.761719-43.804687-15.027344-56.65625-2.175781-8.125 8.128906-10.792968 20.371093-7.511718 34.46875 2.988281 12.828124 10.683593 25.941406 21.671874 36.929687 11.878907 11.878906 26.414063 19.894531 39.980469 22.273437v39.46875c-20.417969-12.265624-41.796875-12.949218-54.140625-.605468-16.046875 16.050781-9.828125 47.410156 14.160156 71.398437 11.878907 11.878907 26.410157 19.894531 39.980469 22.273438v38.296875c-12.691406-5.867188-26.585937-8.707032-40.828125-8.25-46.765625 1.515625-85.085937 39.296875-87.234375 86.015625-1.148437 24.957031 7.691407 48.617187 24.894531 66.632812 17.214844 18.023438 40.414063 27.949219 65.328126 27.949219h141.238281c24.914062 0 48.117187-9.925781 65.328125-27.949219 17.203125-18.015625 26.046875-41.675781 24.894531-66.632812-1.082031-23.570313-11.285156-45.507813-28.726563-61.761719zm-62.589843-203.632812c10.3125 9.183593 3.28125 32.746093-14.15625 50.183593s-40.421875 23.925781-50.1875 14.160157c-9.761719-9.765626-3.28125-32.746094 14.160156-50.1875 9.03125-9.03125 35.199219-27.496094 50.183594-14.15625zm-50.183594-118.378907c9.03125-9.03125 35.695313-27.148437 50.183594-14.15625 10.28125 9.21875 3.28125 32.746094-14.15625 50.183594s-40.417969 23.921875-50.183594 14.15625c-9.765625-9.761719-3.285156-32.746094 14.15625-50.183594zm-32.96875 44.878907c1.175781 6.121093 6.296875 23.386718 31.410156 24.808593v44.304688c-3.132812 2.402343-6.164062 5.054687-9.050781 7.9375-23.984375 23.984375-30.203125 55.347656-14.15625 71.398437 5.996094 5.992188 14.125 8.878906 23.207031 8.894532v112.121093c-11.167969 5.652344-24.394531 5.652344-35.5625 0v-258.035156c0-4.316406 1.542969-8.3125 4.152344-11.429687zm-48.527344 57.417968c-9.03125-9.03125-15.308593-19.589844-17.667969-29.726562-1.195312-5.132813-2.328124-14.621094 3.511719-20.460938 8.425781-8.425781 27.152344-4.742187 43.53125 8.234375v59.546875c-9.824219-2.351562-20.382812-8.601562-29.375-17.59375zm0 132.535156c-17.4375-17.4375-23.921875-40.421874-14.15625-50.183593 8.425781-8.429688 27.152344-4.746094 43.53125 8.230469v59.546874c-9.824219-2.351562-20.382812-8.601562-29.375-17.59375zm0 0"/><path d="m110.304688 159.71875 9.699218-5.304688c7-3.828124 11.347656-11.160156 11.347656-19.136718 0-7.976563-4.347656-15.308594-11.347656-19.136719l-9.699218-5.304687c-8.429688-4.613282-15.324219-11.507813-19.9375-19.941407l-5.304688-9.695312c-3.828125-7-11.160156-11.347657-19.136719-11.347657-7.976562 0-15.308593 4.347657-19.136719 11.347657l-5.304687 9.695312c-1.839844 3.363281-4.066406 6.515625-6.617187 9.371094-2.761719 3.085937-2.496094 7.828125.589843 10.589844 3.085938 2.761719 7.828125 2.496093 10.589844-.589844 3.316406-3.710937 6.210937-7.804687 8.597656-12.171875l5.304688-9.699219c1.75-3.195312 4.761719-3.542969 5.976562-3.542969 1.214844 0 4.230469.347657 5.976563 3.542969l5.304687 9.699219c5.992188 10.957031 14.949219 19.914062 25.902344 25.902344l9.699219 5.304687c3.199218 1.75 3.542968 4.761719 3.542968 5.976563s-.34375 4.226562-3.542968 5.976562l-9.699219 5.308594c-10.953125 5.988281-19.910156 14.945312-25.902344 25.898438l-5.304687 9.699218c-1.75 3.199219-4.761719 3.542969-5.976563 3.542969-1.214843 0-4.226562-.34375-5.976562-3.542969l-5.304688-9.699218c-5.992187-10.953126-14.949219-19.910157-25.902343-25.902344l-9.699219-5.304688c-3.199219-1.75-3.542969-4.761718-3.542969-5.976562s.347656-4.226563 3.542969-5.976563c3.632812-1.988281 4.96875-6.546875 2.980469-10.179687-1.988282-3.632813-6.542969-4.96875-10.179688-2.980469-6.996094 3.828125-11.34375 11.160156-11.34375 19.136719 0 7.976562 4.347656 15.308594 11.34375 19.136718l9.699219 5.304688c8.433593 4.609375 15.328125 11.507812 19.941406 19.9375l5.304687 9.699219c3.824219 7 11.160157 11.347656 19.136719 11.347656 7.976563 0 15.308594-4.347656 19.136719-11.347656l5.304688-9.699219c4.613281-8.429688 11.507812-15.324219 19.9375-19.9375zm0 0"/><path d="m463.636719 246.453125-7.613281-4.164063c-6.355469-3.476562-11.546876-8.667968-15.023438-15.019531l-4.164062-7.621093c-3.289063-6.011719-9.589844-9.746094-16.441407-9.746094-6.851562 0-13.152343 3.734375-16.441406 9.746094l-4.164063 7.617187c-3.476562 6.355469-8.671874 11.546875-15.023437 15.023437l-7.617187 4.164063c-6.011719 3.289063-9.746094 9.589844-9.746094 16.441406 0 6.851563 3.734375 13.152344 9.746094 16.441407l7.617187 4.167968c6.351563 3.472656 11.546875 8.664063 15.023437 15.019532l4.164063 7.617187c3.289063 6.011719 9.589844 9.746094 16.441406 9.746094 6.851563 0 13.152344-3.734375 16.441407-9.746094l4.164062-7.617187c3.476562-6.355469 8.667969-11.546876 15.023438-15.019532l7.613281-4.167968c6.015625-3.289063 9.75-9.589844 9.75-16.441407 0-6.851562-3.734375-13.152343-9.75-16.441406zm-7.195313 19.722656-7.617187 4.167969c-8.875 4.851562-16.128907 12.105469-20.980469 20.980469l-4.167969 7.617187c-.960937 1.757813-2.613281 1.945313-3.28125 1.945313-.664062 0-2.320312-.1875-3.28125-1.945313l-4.164062-7.617187c-4.855469-8.875-12.109375-16.128907-20.984375-20.980469l-7.617188-4.167969c-1.753906-.957031-1.945312-2.613281-1.945312-3.28125 0-.664062.191406-2.320312 1.945312-3.28125l7.617188-4.164062c8.875-4.855469 16.128906-12.109375 20.984375-20.984375l4.164062-7.617188c.960938-1.753906 2.617188-1.945312 3.28125-1.945312.667969 0 2.320313.191406 3.28125 1.945312l4.167969 7.617188c4.851562 8.875 12.109375 16.128906 20.980469 20.980468l7.617187 4.167969c1.757813.960938 1.945313 2.613281 1.945313 3.28125s-.1875 2.320313-1.945313 3.28125zm0 0"/></svg>