<svg height="512pt" viewBox="0 -20 512 511" width="512pt" xmlns="http://www.w3.org/2000/svg"><path d="m384.3125 78.542969c-9.464844-15.535157-25.597656-24.507813-42.480469-25.488281-11.679687-.679688-22.417969-6.378907-29.21875-15.898438-12.613281-17.648438-33.265625-29.15625-56.613281-29.15625s-44 11.507812-56.613281 29.15625c-6.800781 9.519531-17.539063 15.21875-29.21875 15.898438-16.882813.984374-33.015625 9.957031-42.480469 25.492187-15.328125 25.15625-7.359375 57.976563 17.796875 73.304687 24.609375 14.992188 196.421875 14.992188 221.03125 0 25.15625-15.328124 33.125-48.148437 17.796875-73.308593zm0 0" fill="#f2ad9a"/><path d="m357.769531 155.203125c-65.859375-66.003906-124.78125-44.242187-125.292969-89.757813-.578124-51.378906 37.808594-55.972656 37.820313-55.972656-4.609375-.960937-9.402344-1.46875-14.296875-1.46875-23.351562 0-44.003906 11.507813-56.613281 29.15625-6.804688 9.519532-17.542969 15.21875-29.21875 15.898438-16.882813.980468-33.015625 9.953125-42.480469 25.488281-15.328125 25.15625-7.359375 57.976563 17.796875 73.304687 22.613281 13.777344 169.515625 14.894532 212.285156 3.351563zm0 0" fill="#e7896e"/><path d="m497.84375 411.476562-16.367188-16.371093c-8.746093-8.742188-13.9375-20.410157-14.644531-32.757813-4.984375-87.089844-24.683593-159.011718-39.730469-202.796875-9.511718-27.671875-35.589843-46.210937-64.855468-46.210937h-212.492188c-29.265625 0-55.34375 18.539062-64.855468 46.210937-15.046876 43.785157-34.746094 115.707031-39.730469 202.796875-.703125 12.347656-5.898438 24.015625-14.644531 32.757813l-16.367188 16.371093c-8.875 8.875-8.875 23.261719 0 32.136719 8.871094 8.871094 23.257812 8.871094 32.132812 0 0 0 19.667969-18.679687 45.339844-9.789062 37.503906 12.984375 94.058594 29.730469 164.371094 29.730469s126.917969-16.59375 164.371094-29.730469c28.015625-9.828125 45.339844 9.789062 45.339844 9.789062 8.875 8.871094 23.261718 8.871094 32.132812 0 8.875-8.875 8.875-23.261719 0-32.136719zm0 0" fill="#ffeab7"/><path d="m149.753906 113.339844c-29.265625 0-55.34375 18.539062-64.855468 46.210937-15.046876 43.785157-34.746094 115.707031-39.730469 202.796875-.703125 12.347656-5.898438 24.015625-14.644531 32.757813l-16.367188 16.371093c-8.875 8.875-8.875 23.261719 0 32.136719 8.871094 8.871094 23.257812 8.871094 32.132812 0 0 0 19.667969-18.679687 45.339844-9.789062 11.550782 3.996093 24.914063 8.355469 39.921875 12.46875-38.320312-102.902344 30.296875-177.894531 43.792969-245.871094 15.40625-77.609375 108.757812-87.082031 108.757812-87.082031zm0 0" fill="#fad989"/><path d="m190.214844 377.441406c20.429687 20.429688 53.554687 20.429688 73.984375 0 20.429687-20.429687 20.429687-53.550781 0-73.980468-12.085938-12.089844-48.125-22.234376-75.542969-28.5-16.164062-3.699219-30.636719 10.773437-26.941406 26.9375 6.269531 27.417968 16.414062 63.457031 28.5 75.542968zm0 0" fill="#29ce69"/><path d="m233.398438 287.453125c-11.554688 10.324219-22.921876 28.042969-21.398438 57.429687.972656 18.746094-1.753906 32.894532-5.867188 43.464844 19.171876 8.425782 42.367188 4.804688 58.066407-10.894531 20.429687-20.429687 20.429687-53.554687 0-73.984375-5.867188-5.867188-17.375-11.285156-30.800781-16.015625zm0 0" fill="#00c140"/><path d="m321.785156 377.441406c-20.429687 20.429688-53.554687 20.429688-73.984375 0-20.429687-20.429687-20.429687-53.550781 0-73.980468 12.085938-12.089844 48.125-22.234376 75.542969-28.5 16.164062-3.699219 30.636719 10.773437 26.941406 26.9375-6.269531 27.417968-16.414062 63.457031-28.5 75.542968zm0 0" fill="#73da8c"/><path d="m256 241.625c-15.519531 0-28.101562-12.582031-28.101562-28.101562v-20.429688c0-4.234375 3.4375-7.667969 7.671874-7.667969h40.859376c4.238281 0 7.671874 3.433594 7.671874 7.667969v20.429688c-.003906 15.519531-12.582031 28.101562-28.101562 28.101562zm0 0" fill="#454545"/><path d="m191.976562 213.523438c0-13.183594-13.417968-23.867188-29.972656-23.867188-16.554687 0-29.972656 10.683594-29.972656 23.867188 0 13.183593 13.417969 23.871093 29.972656 23.871093 16.554688 0 29.972656-10.6875 29.972656-23.871093zm0 0" fill="#ffb3dd"/><path d="m379.96875 213.523438c0-13.183594-13.417969-23.867188-29.972656-23.867188-16.554688 0-29.972656 10.683594-29.972656 23.867188 0 13.183593 13.417968 23.871093 29.972656 23.871093 16.554687 0 29.972656-10.6875 29.972656-23.871093zm0 0" fill="#ffb3dd"/><path d="m336.65625 200.421875c4.144531 0 7.5-3.359375 7.5-7.5v-12.449219c0-4.144531-3.355469-7.5-7.5-7.5-4.140625 0-7.5 3.355469-7.5 7.5v12.449219c0 4.140625 3.359375 7.5 7.5 7.5zm0 0"/><path d="m182.84375 192.921875v-12.449219c0-4.144531-3.359375-7.5-7.5-7.5-4.144531 0-7.5 3.355469-7.5 7.5v12.449219c0 4.140625 3.355469 7.5 7.5 7.5 4.140625 0 7.5-3.359375 7.5-7.5zm0 0"/><path d="m503.148438 406.175781-16.371094-16.371093c-7.429688-7.433594-11.855469-17.335938-12.460938-27.886719-4.992187-87.316407-24.574218-159.570313-40.125-204.804688-6.277344-18.261719-19.066406-32.953125-35.246094-41.851562 2.125-14.074219-.71875-28.292969-8.226562-40.617188-10.386719-17.046875-28.5-27.914062-48.453125-29.078125-9.566406-.554687-18.148437-5.210937-23.550781-12.769531-2.605469-3.648437-5.554688-7.09375-8.753906-10.234375-2.957032-2.902344-7.703126-2.859375-10.609376.097656-2.898437 2.957032-2.855468 7.703125.101563 10.605469 2.582031 2.535156 4.957031 5.3125 7.058594 8.253906 8.050781 11.265625 20.765625 18.203125 34.886719 19.023438 15.039062.875 28.6875 9.0625 36.507812 21.902343 4.96875 8.15625 7.214844 17.414063 6.609375 26.730469-7.09375-2.167969-14.578125-3.335937-22.269531-3.335937h-212.492188c-7.691406 0-15.171875 1.167968-22.261718 3.335937-.605469-9.320312 1.640624-18.585937 6.601562-26.730469 7.820312-12.839843 21.472656-21.027343 36.511719-21.902343 14.117187-.824219 26.832031-7.757813 34.882812-19.023438 11.644531-16.292969 30.527344-26.019531 50.511719-26.019531 7.03125 0 13.921875 1.164062 20.488281 3.460938 3.910157 1.371093 8.1875-.691407 9.554688-4.601563 1.367187-3.910156-.691407-8.1875-4.601563-9.554687-8.160156-2.855469-16.722656-4.304688-25.441406-4.304688-24.816406 0-48.265625 12.074219-62.71875 32.296875-5.398438 7.558594-13.980469 12.214844-23.550781 12.769531-19.953125 1.164063-38.0625 12.03125-48.449219 29.074219-7.496094 12.304687-10.335938 26.539063-8.214844 40.613281-16.183594 8.898438-28.980468 23.59375-35.257812 41.859375-6.089844 17.707031-11.65625 36.265625-16.550782 55.15625-1.039062 4.011719 1.371094 8.101563 5.378907 9.140625 4.015625 1.042969 8.101562-1.371094 9.140625-5.378906 4.796875-18.519531 10.253906-36.699219 16.214844-54.042969 8.460937-24.609375 31.671874-41.148437 57.761718-41.148437h212.492188c26.089844 0 49.300781 16.539062 57.761718 41.148437 15.242188 44.34375 34.4375 115.175781 39.335938 200.789063.8125 14.230468 6.789062 27.597656 16.828125 37.632812l16.371094 16.371094c2.875 2.875 7.964843 13.371094-.003907 21.527344-7.964843 8.15625-18.554687 2.914062-21.417968.105468-2.363282-2.550781-22.199219-22.554687-53.234375-11.667968-35.871094 12.582031-91.683594 29.308594-161.886719 29.308594-69.234375 0-125.566406-16.734376-161.914062-29.320313-29.644532-10.265625-52.023438 10.546875-52.960938 11.441406-.046875.042969-.09375.085938-.140625.132813-2.875 2.875-13.242187 8.914062-21.523437 0-8.285157-8.910156-2.878907-18.652344 0-21.527344l16.367187-16.371094c10.039063-10.039062 16.015625-23.402344 16.828125-37.636718 2.210938-38.640626 7.570312-77.828126 15.933594-116.476563.875-4.050781-1.695313-8.042969-5.742188-8.917969-4.042968-.875-8.042968 1.695313-8.917968 5.742188-8.527344 39.410156-13.992188 79.378906-16.246094 118.796875-.605469 10.550781-5.03125 20.453125-12.460938 27.886719l-16.371094 16.367187c-5.707031 5.710937-8.851562 13.300781-8.851562 21.375 0 8.070313 3.144531 15.660156 8.851562 21.367187 5.710938 5.710938 13.300782 8.855469 21.371094 8.855469 8.027344 0 15.574219-3.109375 21.273438-8.753906.925781-.851563 17.074218-15.238281 37.679687-8.105469 37.371094 12.941406 95.324219 30.148438 166.824219 30.148438 72.496094 0 129.945312-17.210938 166.851562-30.15625 22.683594-7.957032 36.6875 7.070312 37.238282 7.675781.101562.117187 9.550781 9.191406 21.6875 9.191406 8.070312 0 15.660156-3.144531 21.371094-8.855469 5.707031-5.707031 8.851562-13.296874 8.851562-21.367187 0-8.074219-3.144531-15.664063-8.851562-21.371094zm0 0"/><path d="m154.402344 303.570312c9.574218 41.867188 19.839844 68.507813 30.507812 79.175782 11.300782 11.296875 26.320313 17.519531 42.296875 17.519531 4.144531 0 7.5-3.359375 7.5-7.5s-3.355469-7.5-7.5-7.5c-11.96875 0-23.222656-4.660156-31.6875-13.125-8.277343-8.277344-17.933593-34.492187-26.492187-71.914063-1.175782-5.132812.289062-10.214843 4.015625-13.941406 3.726562-3.726562 8.800781-5.191406 13.941406-4.015625 23.253906 5.316407 41.945313 10.949219 54.921875 16.507813-10.914062 11.226562-16.929688 25.984375-16.929688 41.671875 0 15.980469 6.222657 31 17.519532 42.296875 11.300781 11.296875 26.320312 17.519531 42.296875 17.519531 15.976562 0 30.996093-6.222656 42.296875-17.519531 10.667968-10.667969 20.933594-37.308594 30.507812-79.175782 2.3125-10.125-.6875-20.550781-8.03125-27.894531-7.34375-7.339843-17.769531-10.34375-27.890625-8.027343-29.566406 6.757812-51.523437 13.863281-65.640625 21.210937-14.054687-7.320313-36.132812-14.449219-65.707031-21.210937-10.121094-2.316407-20.550781.6875-27.890625 8.027343-7.34375 7.34375-10.347656 17.769531-8.035156 27.894531zm170.613281-21.300781c1.164063-.265625 8.492187-1.621093 13.945313 4.015625 3.660156 3.785156 5.1875 8.808594 4.011718 13.941406-8.558594 37.421876-18.210937 63.632813-26.492187 71.914063-8.464844 8.460937-19.71875 13.125-31.6875 13.125-11.972657 0-23.226563-4.664063-31.6875-13.125-8.464844-8.464844-13.128907-19.71875-13.128907-31.691406 0-11.96875 4.664063-23.222657 13.128907-31.6875 8.277343-8.28125 34.488281-17.9375 71.910156-26.492188zm0 0"/><path d="m291.601562 213.523438v-20.429688c0-8.363281-6.804687-15.167969-15.171874-15.167969h-40.859376c-8.367187 0-15.171874 6.804688-15.171874 15.167969v20.429688c0 19.632812 15.972656 35.601562 35.601562 35.601562s35.601562-15.96875 35.601562-35.601562zm-56.203124 0v-20.429688c0-.09375 41.203124-.09375 41.203124 0v20.429688c-.003906 11.359374-9.242187 20.601562-20.601562 20.601562s-20.601562-9.242188-20.601562-20.601562zm0 0"/></svg>