<svg height="512" viewBox="0 0 512 512" width="512" xmlns="http://www.w3.org/2000/svg"><g id="flat"><path d="m239.994 96a7.973 7.973 0 0 1 -3.572-.847l-1.69-.844a33.7 33.7 0 0 1 -18.732-30.309 8 8 0 0 1 16 0 17.792 17.792 0 0 0 9.888 16l1.69.845a8 8 0 0 1 -3.584 15.155z" fill="#91a666"/><path d="m272.006 96a8 8 0 0 1 -3.584-15.157l1.689-.843a17.791 17.791 0 0 0 9.889-16 8 8 0 0 1 16 0 33.7 33.7 0 0 1 -18.733 30.311l-1.689.844a7.973 7.973 0 0 1 -3.572.845z" fill="#91a666"/><path d="m229.215 114.43 10.785 21.57h32l10.227-20.454-26.558-30.546z" fill="#b5cf7f"/><path d="m240 88v-6.111a16 16 0 0 1 8.845-14.311 15.993 15.993 0 0 1 14.31 0 16 16 0 0 1 8.845 14.311v6.111l-16 18z" fill="#b5cf7f"/><path d="m264.006 472a8 8 0 0 1 -7.161-4.424l-.845-1.687-.845 1.689a8 8 0 0 1 -14.31-7.156l8-16a8 8 0 0 1 14.31 0l8 16a8 8 0 0 1 -7.149 11.578z" fill="#91a666"/><path d="m208.008 152a8 8 0 0 1 -6.868-3.885l-9.161-15.266a53.858 53.858 0 0 1 -1.1-53.2l-6.034-12.068a8 8 0 0 1 14.31-7.156l8 16a8 8 0 0 1 -.5 8.016 37.747 37.747 0 0 0 -.956 40.179l9.16 15.267a8 8 0 0 1 -6.851 12.113z" fill="#91a666"/><path d="m303.992 152a8 8 0 0 1 -6.852-12.117l9.16-15.267a37.747 37.747 0 0 0 -.956-40.179 8 8 0 0 1 -.5-8.016l8-16a8 8 0 1 1 14.31 7.156l-6.034 12.068a53.858 53.858 0 0 1 -1.1 53.2l-9.161 15.266a8 8 0 0 1 -6.867 3.889z" fill="#91a666"/><circle cx="240" cy="104" fill="#91a666" r="16"/><circle cx="272" cy="104" fill="#91a666" r="16"/><path d="m240 136-8 32 8 24h32l8-24-8-32z" fill="#91a666"/><path d="m240 192-4.422 13.267a18.3 18.3 0 0 0 4.422 18.733v208a16 16 0 0 0 16 16 16 16 0 0 0 16-16v-208a18.3 18.3 0 0 0 4.422-18.733l-4.422-13.267z" fill="#b5cf7f"/><path d="m276.67 216a18.158 18.158 0 0 1 -4.67 8v8h-32v-8a18.158 18.158 0 0 1 -4.67-8z" fill="#f7a014"/><path d="m276.67 216a18.158 18.158 0 0 1 -4.67 8v8h-32v-8a18.158 18.158 0 0 1 -4.67-8z" fill="#91a666"/><path d="m240 248h32v16h-32z" fill="#91a666"/><path d="m240 280h32v16h-32z" fill="#91a666"/><path d="m240 312h32v16h-32z" fill="#91a666"/><path d="m240 344h32v16h-32z" fill="#91a666"/><path d="m240 376h32v16h-32z" fill="#91a666"/><g fill="#92d1f7"><path d="m211.5 139.331-164.471-73.096a16.378 16.378 0 0 0 -23.029 14.965 30.054 30.054 0 0 0 11.73 23.822l32.57 24.339a248 248 0 0 0 115.683 47.17l56.017 7.469v-.806a48 48 0 0 0 -28.5-43.863z"/><path d="m240 192-184 70.122a50 50 0 0 0 -31.08 36.861 10.883 10.883 0 0 0 10.671 13.017h67.766a130 130 0 0 0 110.715-61.867l17.621-28.633a56 56 0 0 0 8.307-29.35z"/><path d="m300.505 139.331 164.466-73.1a16.378 16.378 0 0 1 23.029 14.969 30.054 30.054 0 0 1 -11.73 23.822l-32.57 24.339a248 248 0 0 1 -115.683 47.17l-56.017 7.469v-.806a48 48 0 0 1 28.505-43.863z"/><path d="m272 192 184 70.122a50 50 0 0 1 31.08 36.861 10.883 10.883 0 0 1 -10.671 13.017h-67.766a130 130 0 0 1 -110.715-61.867l-17.621-28.633a56 56 0 0 1 -8.307-29.35z"/><path d="m240 183.19v.81l-2.33-.31-134.24-55.27-26.66 6.99q-4.29-2.925-8.47-6.05l-8.2-6.12 41.87-10.98a8.041 8.041 0 0 1 5.08.34l26.67 10.99-20.22-24.66a7.949 7.949 0 0 1 -1.73-3.92l30.23 13.44 22.98 28.01 71.86 29.59a47.871 47.871 0 0 1 3.16 17.14z"/><path d="m239.52 199.38a55.939 55.939 0 0 1 -7.78 22.04l-63.71 33.73-15.04 47a129.738 129.738 0 0 1 -18.76 6.13l13.57-42.42-20.23 10.71a61.769 61.769 0 0 0 -26.45 27.07c-.02.05-.05.1-.07.15l-4.32 8.21h-18.07l8.19-15.59a77.542 77.542 0 0 1 33.23-33.98l111.7-59.13c.04-.02.09-.05.13-.07z"/><path d="m451.89 123.24-8.19 6.12q-4.17 3.12-8.47 6.05l-26.66-6.99-134.24 55.27-2.33.31v-.81a47.871 47.871 0 0 1 3.16-17.14l71.86-29.59 22.99-28.02 27.52-12.23a7.987 7.987 0 0 1 -1.75 6.05l-17.5 21.33 26.67-10.99a8.041 8.041 0 0 1 5.08-.34z"/><path d="m432.38 312h-17.63l-3.92-8.46a61.693 61.693 0 0 0 -26.4-26.97l-20.23-10.69 13.57 42.4a129.738 129.738 0 0 1 -18.76-6.13l-15.03-46.96-63.64-33.65-.03-.04a55.772 55.772 0 0 1 -7.73-21.4 8.11 8.11 0 0 1 3.16.91l116.17 61.42a77.521 77.521 0 0 1 33.28 34.06c.03.07.07.14.1.21z"/></g><path d="m240 408h32v16h-32z" fill="#91a666"/><path d="m240 183.19v.81l-2.33-.31-134.24-55.27-26.66 6.99q-4.29-2.925-8.47-6.05l-8.2-6.12 41.87-10.98a8.041 8.041 0 0 1 5.08.34l26.67 10.99-20.22-24.66a7.949 7.949 0 0 1 -1.73-3.92l30.23 13.44 22.98 28.01 71.86 29.59a47.871 47.871 0 0 1 3.16 17.14z" fill="#5ebef7"/><path d="m451.89 123.24-8.19 6.12q-4.17 3.12-8.47 6.05l-26.66-6.99-134.24 55.27-2.33.31v-.81a47.871 47.871 0 0 1 3.16-17.14l71.86-29.59 22.99-28.02 27.52-12.23a7.987 7.987 0 0 1 -1.75 6.05l-17.5 21.33 26.67-10.99a8.041 8.041 0 0 1 5.08-.34z" fill="#5ebef7"/><path d="m432.38 312h-17.63l-3.92-8.46a61.693 61.693 0 0 0 -26.4-26.97l-20.23-10.69 13.57 42.4a129.738 129.738 0 0 1 -18.76-6.13l-15.03-46.96-63.64-33.65-.03-.04a55.772 55.772 0 0 1 -7.73-21.4 8.11 8.11 0 0 1 3.16.91l116.17 61.42a77.521 77.521 0 0 1 33.28 34.06c.03.07.07.14.1.21z" fill="#5ebef7"/><path d="m239.52 199.38a55.939 55.939 0 0 1 -7.78 22.04l-63.71 33.73-15.04 47a129.738 129.738 0 0 1 -18.76 6.13l13.57-42.42-20.23 10.71a61.769 61.769 0 0 0 -26.45 27.07c-.02.05-.05.1-.07.15l-4.32 8.21h-18.07l8.19-15.59a77.542 77.542 0 0 1 33.23-33.98l111.7-59.13c.04-.02.09-.05.13-.07z" fill="#5ebef7"/></g></svg>