<svg height="512" viewBox="0 0 512 512" width="512" xmlns="http://www.w3.org/2000/svg"><g id="flat"><path d="m410.029 211.366c-.786-.461-1.586-.885-2.4-1.279l13.819-42.915-48 .49 7.253 40.934a34.811 34.811 0 0 0 -9.559 5.175l-1.133.868a34.9 34.9 0 0 0 -13.5 24.209l-1.482 14.7a135.643 135.643 0 0 1 -31.968 74.668 135.633 135.633 0 0 1 -68.744 42.973l-26.738 6.976a74.605 74.605 0 0 0 -43.665 31.444l-15.912 8.166.164 16 16.08 7.836 3 2.2a78.033 78.033 0 0 0 64.5 12.95 228.344 228.344 0 0 0 115.747-68.8 228.348 228.348 0 0 0 57.009-123.178l2.479-18.72a34.907 34.907 0 0 0 -16.95-34.697z" fill="#ffc864"/><path d="m419.6 172.91-5.51 17.11-7.32-14.78z" fill="#f3be5f"/><path d="m426.98 246.06-2.48 18.72c-3.04 22.94-6.89 42.46-16.5 63.22s-24.98 42.8-40.5 59.96a228.636 228.636 0 0 1 -52.69 43.13 226.175 226.175 0 0 1 -36.21 17.4 74.592 74.592 0 0 1 34.83-39.65l24.4-12.96a135.616 135.616 0 0 0 70.81-137.73l-1.96-14.64a34.93 34.93 0 0 1 7.55-26.68l.9-1.1c.11-.14.23-.28.35-.41a34.866 34.866 0 0 1 11.5 30.74z" fill="#f3be5f"/><path d="m268.873 348.417a8 8 0 0 1 -8-8 112.7 112.7 0 0 0 -22.4-67.2 8 8 0 0 1 12.8-9.6 128.8 128.8 0 0 1 25.6 76.8 8 8 0 0 1 -8 8z" fill="#91a666"/><path d="m222.385 260.276c-13.5-29.086-23.611-59.63-28.882-91.261l-.3-1.777a66.105 66.105 0 0 0 -65.203-55.238 66.105 66.105 0 0 0 -65.206 55.238l-.118.706c-5.231 31.388-14.39 62.08-28.288 90.7a103.6 103.6 0 0 0 -10.382 46.523c.619 56.139 46.386 102.043 102.523 102.819a104.04 104.04 0 0 0 95.856-147.714z" fill="#91a666"/><circle cx="128" cy="304" fill="#ee9d0d" r="56"/><path d="m128 336a8 8 0 0 1 0-16 16.019 16.019 0 0 0 16-16 8 8 0 0 1 16 0 32.036 32.036 0 0 1 -32 32z" fill="#ffc864"/><path d="m136 168a8 8 0 0 1 -8-8v-16a8 8 0 0 1 16 0v16a8 8 0 0 1 -8 8z" fill="#667447"/><path d="m168 192a8 8 0 0 1 -8-8v-16a8 8 0 0 1 16 0v16a8 8 0 0 1 -8 8z" fill="#667447"/><path d="m136 216a8 8 0 0 1 -8-8v-16a8 8 0 0 1 16 0v16a8 8 0 0 1 -8 8z" fill="#667447"/><path d="m128.015 416c-.532 0-1.063 0-1.6-.011a112.036 112.036 0 0 1 -99.224-160.835c12.973-26.717 22.257-56.5 27.594-88.526l.118-.706a74.105 74.105 0 0 1 146.194 0l.3 1.777c4.893 29.356 14.4 59.37 28.247 89.207a112.019 112.019 0 0 1 -101.629 159.094zm-.015-296a57.923 57.923 0 0 0 -57.315 48.553l-.118.707c-5.589 33.535-15.34 64.786-28.982 92.882a95.04 95.04 0 0 0 -9.579 42.941c.568 51.619 43.021 94.194 94.633 94.908a96.039 96.039 0 0 0 88.489-136.346c-14.456-31.144-24.387-62.539-29.517-93.314l-.3-1.777a57.923 57.923 0 0 0 -57.311-48.554z" fill="#667447"/><path d="m303.75 400.388a8 8 0 0 1 -3.049-15.4l4.292-1.768a123.2 123.2 0 0 0 69.707-74.22 8 8 0 1 1 15.146 5.155 139.191 139.191 0 0 1 -78.758 83.858l-4.293 1.768a7.963 7.963 0 0 1 -3.045.607z" fill="#f3be5f"/><path d="m388.023 295.521a8.107 8.107 0 0 1 -1.244-.1 8 8 0 0 1 -6.67-9.139l2.5-16.026a8 8 0 0 1 15.809 2.469l-2.5 16.026a8 8 0 0 1 -7.895 6.77z" fill="#f3be5f"/><path d="m460.242 204.4q-1.308-.4-2.628-.692l3.613-36.947-46.618 8.477 16.464 33.241a34.813 34.813 0 0 0 -8.1 7.243l-.9 1.106a34.905 34.905 0 0 0 -7.544 26.674l1.955 14.647a135.627 135.627 0 0 1 -13.852 80.034 135.63 135.63 0 0 1 -56.955 57.693l-24.4 12.965a74.611 74.611 0 0 0 -35.219 40.681l-13.6 11.62 3.855 15.528 17.456 3.909 3.431 1.451a78.036 78.036 0 0 0 65.749-2.3 228.342 228.342 0 0 0 96.719-93.683 228.341 228.341 0 0 0 27-133.016l-1.913-18.787a34.9 34.9 0 0 0 -24.513-29.844z" fill="#ffc864"/><path d="m398.665 413.082a8 8 0 0 1 -4.68-14.494l3.767-2.712a123.191 123.191 0 0 0 50.672-88.315 8 8 0 0 1 15.928 1.516 139.193 139.193 0 0 1 -57.252 99.786l-3.768 2.711a7.962 7.962 0 0 1 -4.667 1.508z" fill="#f3be5f"/><path d="m456.407 291.583a8 8 0 0 1 -7.967-7.375l-1.267-16.171a8 8 0 0 1 15.951-1.25l1.268 16.171a8 8 0 0 1 -7.351 8.6c-.212.017-.424.025-.634.025z" fill="#f3be5f"/><path d="m314.937 329.8c-16-3.863-32.478.538-46.5 10.849-14.022-10.311-30.495-14.712-46.5-10.849-33.769 8.151-52.649 49.955-42.17 93.372s46.35 72.007 80.119 63.856a49.589 49.589 0 0 0 8.551-2.925 49.6 49.6 0 0 0 8.552 2.925c33.769 8.151 69.639-20.438 80.118-63.856s-8.401-85.219-42.17-93.372z" fill="#ea2b2d"/><path d="m144 360h-26.334a86.833 86.833 0 0 0 -77.666 48l-8.845 4.422a12.945 12.945 0 0 0 -7.155 11.578 12.945 12.945 0 0 0 7.155 11.578l8.845 4.422a86.833 86.833 0 0 0 77.666 48h26.334" fill="#dcac56"/><circle cx="144" cy="424" fill="#ffc864" r="64"/><g fill="#dcac56"><path d="m121.373 409.373a7.975 7.975 0 0 1 -5.657-2.344l-5.657-5.656a8 8 0 0 1 11.314-11.314l5.656 5.657a8 8 0 0 1 -5.656 13.657z"/><path d="m112 432h-8a8 8 0 0 1 0-16h8a8 8 0 0 1 0 16z"/><path d="m115.716 460.284a8 8 0 0 1 -5.657-13.657l5.657-5.656a8 8 0 1 1 11.313 11.313l-5.656 5.657a7.976 7.976 0 0 1 -5.657 2.343z"/><path d="m144 472a8 8 0 0 1 -8-8v-8a8 8 0 0 1 16 0v8a8 8 0 0 1 -8 8z"/><path d="m172.284 460.284a7.976 7.976 0 0 1 -5.657-2.343l-5.656-5.657a8 8 0 0 1 11.313-11.313l5.657 5.656a8 8 0 0 1 -5.657 13.657z"/><path d="m184 432h-8a8 8 0 0 1 0-16h8a8 8 0 0 1 0 16z"/><path d="m166.627 409.373a8 8 0 0 1 -5.656-13.657l5.656-5.657a8 8 0 0 1 11.314 11.314l-5.657 5.656a7.975 7.975 0 0 1 -5.657 2.344z"/></g><path d="m318.869 438.3a8 8 0 0 1 -6.806-12.19l.117-.184a57.536 57.536 0 0 0 9.079-36.367 8 8 0 0 1 15.938-1.416 73.621 73.621 0 0 1 -11.6 46.5 8 8 0 0 1 -6.728 3.657z" fill="#cb2527"/><path d="m329.484 268.418-12.944-3.262a38 38 0 0 0 -43.12 19.55l-10.078 19.712 23.88.455a38 38 0 0 0 34.872-21.32z" fill="#91a666"/><path d="m301.591 463.944a8 8 0 0 1 -5.957-13.337l3.207-3.581a8 8 0 0 1 11.919 10.674l-3.207 3.581a7.98 7.98 0 0 1 -5.962 2.663z" fill="#cb2527"/><path d="m144 400a8 8 0 0 1 -8-8v-8a8 8 0 0 1 16 0v8a8 8 0 0 1 -8 8z" fill="#dcac56"/></g></svg>