<svg height="512" viewBox="0 0 512 512" width="512" xmlns="http://www.w3.org/2000/svg"><g id="flat"><g fill="#5b3719"><path d="m264 192a8 8 0 0 1 -5.657-13.657l13.657-13.656v-12.687a8 8 0 0 1 16 0v16a8 8 0 0 1 -2.343 5.657l-16 16a7.974 7.974 0 0 1 -5.657 2.343z"/><path d="m200 320h-32a8 8 0 0 1 -4.8-1.6l-32-24a8 8 0 0 1 -2.628-3.429l-16-40a8 8 0 1 1 14.856-5.942l15.172 37.917 28.067 21.054h29.333a8 8 0 0 1 0 16z"/><path d="m88.006 416a8 8 0 0 1 -3.584-15.157l13.036-6.518 6.952-20.857a8 8 0 0 1 3.152-4.126l48-32a8 8 0 0 1 10.095 1l32 32a8 8 0 0 1 0 11.314c-3.125 3.124 7.642 17.524 4.517 14.4l-43.194-41.762-40.258 26.84-7.132 21.4a8 8 0 0 1 -4.012 4.625l-16 8a7.986 7.986 0 0 1 -3.572.841z"/><path d="m160 496a8 8 0 0 1 -5.657-13.657l13.089-13.089-7.324-43.939a8 8 0 0 1 9.461-9.16l40 8a8 8 0 0 1 6.276 9.414c-.866 4.333 11.737 10.182 7.4 9.316l-45.45-8.767 6.095 36.567a8.008 8.008 0 0 1 -2.235 6.972l-16 16a7.974 7.974 0 0 1 -5.655 2.343z"/><path d="m248 192a7.974 7.974 0 0 1 -5.657-2.343l-16-16a8 8 0 0 1 -2.343-5.657v-16a8 8 0 0 1 16 0v12.687l13.657 13.656a8 8 0 0 1 -5.657 13.657z"/></g><path d="m357.744 83.715-53.744-59.715v32l-24 8 42.623 28.415a18.84 18.84 0 0 1 7.421 9.716 18.835 18.835 0 0 1 -11.913 23.825l-6.131 2.044a45.58 45.58 0 0 1 1.16 48.734l-9.16 15.266h-24l-24-16-24 16h-24l-9.16-15.266a45.58 45.58 0 0 1 1.16-48.734l-6.131-2.044a18.835 18.835 0 0 1 -11.913-23.825 18.84 18.84 0 0 1 7.421-9.716l42.623-28.415-24-8v-32l-53.744 59.715a71.117 71.117 0 0 0 -18.256 47.575 71.123 71.123 0 0 0 11.118 38.182l44.882 70.528-1.96 3.92a27.013 27.013 0 0 0 0 24.16 27.013 27.013 0 0 0 5.06 7.02l12.9 12.9 32 6 16-6 16 7 32-7 12.9-12.9a27.013 27.013 0 0 0 5.059-7.019 27.013 27.013 0 0 0 0-24.16l-1.959-3.921 44.882-70.528a71.123 71.123 0 0 0 11.118-38.182 71.117 71.117 0 0 0 -18.256-47.575z" fill="#7a4922"/><path d="m264 365v109.06a21.813 21.813 0 0 1 -16 0v-109.06a8 8 0 0 1 16 0z" fill="#a3612d"/><path d="m344 320h-32a8 8 0 0 1 0-16h29.333l28.072-21.054 15.167-37.917a8 8 0 0 1 14.856 5.942l-16 40a8 8 0 0 1 -2.628 3.429l-32 24a8 8 0 0 1 -4.8 1.6z" fill="#5b3719"/><path d="m423.994 416a7.973 7.973 0 0 1 -3.572-.847l-16-8a8 8 0 0 1 -4.012-4.625l-7.132-21.4-40.258-26.84-38.458 38.641c-3.125 3.124 2.906-8.154-.219-11.278a8 8 0 0 1 0-11.314l32-32a8 8 0 0 1 10.095-1l48 32a8 8 0 0 1 3.152 4.126l6.952 20.857 13.036 6.518a8 8 0 0 1 -3.584 15.162z" fill="#5b3719"/><path d="m352 496a7.974 7.974 0 0 1 -5.657-2.343l-16-16a8.008 8.008 0 0 1 -2.235-6.972l6.095-36.567-38.2 7.6c-4.335.866 1.023-3.813.157-8.146a8 8 0 0 1 6.276-9.414l40-8a8 8 0 0 1 9.461 9.16l-7.324 43.939 13.089 13.089a8 8 0 0 1 -5.662 13.654z" fill="#5b3719"/><path d="m304 344h-96l-16 16v48a138.708 138.708 0 0 0 51.846 63.9 21.909 21.909 0 0 0 24.308 0 138.708 138.708 0 0 0 51.846-63.9v-48z" fill="#a3612d"/><path d="m304 288h-32l-16-16-16 16h-32a27.315 27.315 0 0 0 -8 19.314v17.372a27.315 27.315 0 0 0 8 19.314h24l16 21.333v108.727a21.813 21.813 0 0 0 16 0v-108.727l16-21.333h24a27.315 27.315 0 0 0 8-19.314v-17.372a27.315 27.315 0 0 0 -8-19.314z" fill="#5b3719"/></g></svg>