<svg height="512" viewBox="0 0 512 512" width="512" xmlns="http://www.w3.org/2000/svg"><g id="flat"><path d="m312 161.572v-81.572h-112v81.574a168 168 0 1 0 112 0z" fill="#eae9e4"/><path d="m256 487.99a168.03 168.03 0 0 0 164.95-135.99h-329.883a168.033 168.033 0 0 0 164.933 135.99z" fill="#915628"/><path d="m306.475 392h-50.475a8 8 0 0 1 0-16h50.475a8 8 0 0 1 0 16z" fill="#7a4922"/><path d="m224 416a8 8 0 0 1 -8 8h-91.92a164.713 164.713 0 0 1 -11.18-16h103.1a8 8 0 0 1 8 8z" fill="#915628"/><path d="m420.95 352a168.141 168.141 0 0 1 -228.95 123.37v-3.37a34.627 34.627 0 0 1 22.47-32.43l41.53-15.57a23.606 23.606 0 0 1 14.86-21.94l25.14-10.06v-1.39a23.631 23.631 0 0 1 13.06-21.14l34.94-17.47z" fill="#a6deff"/><rect fill="#dcdbd6" height="32" rx="16" width="144" x="184" y="48"/><path d="m420.95 352a168.141 168.141 0 0 1 -228.95 123.37v-3.37a34.627 34.627 0 0 1 22.47-32.43l41.53-15.57a23.606 23.606 0 0 1 14.86-21.94l25.14-10.06v-1.39a23.631 23.631 0 0 1 13.06-21.14l34.94-17.47z" fill="#92d1f7"/><path d="m373.56 440a167.064 167.064 0 0 1 -18.92 16h-50.64a8 8 0 0 1 0-16z" fill="#92d1f7"/><path d="m399.12 408a164.713 164.713 0 0 1 -11.18 16h-27.94a8 8 0 0 1 0-16z" fill="#92d1f7"/><path d="m413.6 378.28q-2.58 7.02-5.78 13.72h-15.82a8 8 0 0 1 0-16h16a8.027 8.027 0 0 1 5.6 2.28z" fill="#92d1f7"/><path d="m160 240a15.979 15.979 0 0 1 -16 16h-43.37a167.976 167.976 0 0 1 27.97-45.5 16 16 0 0 1 7.4 13.5h8a16 16 0 0 1 16 16z" fill="#eae9e4"/><path d="m344 272a279.968 279.968 0 0 1 -56-56h48l-9.321-5.593a122.862 122.862 0 0 1 -46.679-50.407h24l-7.03-7.03a57.939 57.939 0 0 1 -16.97-40.97h16a95.841 95.841 0 0 1 -23.155-37.466l-16.845-50.534-16.845 50.534a95.841 95.841 0 0 1 -23.155 37.466h16a57.939 57.939 0 0 1 -16.97 40.97l-7.03 7.03h24a122.862 122.862 0 0 1 -46.679 50.407l-9.321 5.593h48a279.968 279.968 0 0 1 -56 56z" fill="#91a666"/><path d="m280 352h-48a155.883 155.883 0 0 0 8-49.3v-30.7h32v30.7a155.883 155.883 0 0 0 8 49.3z" fill="#7a4922"/><path d="m424 320a168.714 168.714 0 0 1 -3.05 32h-107.62l101.47-86.97a167.783 167.783 0 0 1 9.2 54.97z" fill="#667447"/><path d="m392 352-56-56-72 56z" fill="#768753"/><path d="m152 416a8 8 0 0 1 -8-8v-40a8 8 0 0 1 16 0v40a8 8 0 0 1 -8 8z" fill="#5b3719"/><path d="m200 416a8 8 0 0 1 -8-8v-24a8 8 0 0 1 16 0v24a8 8 0 0 1 -8 8z" fill="#5b3719"/><g fill="#a6deff"><path d="m360 392h-24a8 8 0 0 1 0-16h24a8 8 0 0 1 0 16z"/><path d="m413.6 378.28q-2.58 7.02-5.78 13.72h-15.82a8 8 0 0 1 0-16h16a8.027 8.027 0 0 1 5.6 2.28z"/><path d="m328 424h-24a8 8 0 0 1 0-16h24a8 8 0 0 1 0 16z"/><path d="m399.12 408a164.713 164.713 0 0 1 -11.18 16h-27.94a8 8 0 0 1 0-16z"/><path d="m373.56 440a167.064 167.064 0 0 1 -18.92 16h-50.64a8 8 0 0 1 0-16z"/><path d="m272 456h-8a8 8 0 0 1 0-16h8a8 8 0 0 1 0 16z"/></g><path d="m224 416a8 8 0 0 1 -8 8h-91.92a164.713 164.713 0 0 1 -11.18-16h103.1a8 8 0 0 1 8 8z" fill="#7a4922"/><path d="m160 240a15.979 15.979 0 0 1 -16 16h-43.37a167.976 167.976 0 0 1 27.97-45.5 16 16 0 0 1 7.4 13.5h8a16 16 0 0 1 16 16z" fill="#a6deff"/><circle cx="372" cy="260" fill="#ffc864" r="20"/><circle cx="372" cy="260" fill="#fd9226" r="12"/><path d="m240 272h32v11.996h-32z" fill="#5b3719"/><path d="m152 304-24 64h48z" fill="#768753"/><path d="m200 320-24 64h48z" fill="#91a666"/></g></svg>