<svg height="512" viewBox="0 0 512 512" width="512" xmlns="http://www.w3.org/2000/svg"><g id="flat"><path d="m328 488a207.835 207.835 0 0 1 -46.9-110.1l-1.1-9.9h-48l-1.1 9.9a207.835 207.835 0 0 1 -46.9 110.1z" fill="#c7830b"/><path d="m223.993 496a8 8 0 0 1 -6.939-11.97l12.154-21.271a142.842 142.842 0 0 0 18.792-70.759 8 8 0 0 1 16 0 158.876 158.876 0 0 1 -20.9 78.7l-12.154 21.27a8 8 0 0 1 -6.953 4.03z" fill="#936108"/><path d="m144 368h32l-32-64h16l-56-88-56 88h24l-40 64h32l-40 64h160z" fill="#667447"/><path d="m128 488h-48a155.883 155.883 0 0 0 8-49.3v-6.7h32v6.7a155.883 155.883 0 0 0 8 49.3z" fill="#c7830b"/><path d="m448 368h32l-40-64h24l-56-88-56 88h16l-32 64h32l-40 64h160z" fill="#7a4922"/><path d="m432 488h-48a155.883 155.883 0 0 0 8-49.3v-6.7h32v6.7a155.883 155.883 0 0 0 8 49.3z" fill="#936108"/><path d="m424.3 358.187a372.353 372.353 0 0 1 -85.366-73.432l-10.934-12.755h64l-7.03-6.025a372.4 372.4 0 0 1 -80.97-97.975h48l-8.255-8.255a372.36 372.36 0 0 1 -75.686-109.215l-12.059-26.53-12.059 26.53a372.36 372.36 0 0 1 -75.686 109.215l-8.255 8.255h48a372.4 372.4 0 0 1 -80.97 97.975l-7.03 6.025h64l-10.933 12.755a372.353 372.353 0 0 1 -85.367 73.432l-15.7 9.813h368z" fill="#91a666"/><path d="m205.6 224.905q-6.593 7.73-13.6 15.1" fill="#fff" stroke="#768753" stroke-miterlimit="10"/><path d="m192 248a8 8 0 0 1 -5.793-13.516c4.546-4.776 9.025-9.745 13.312-14.771a8 8 0 0 1 12.172 10.387c-4.475 5.246-9.151 10.434-13.9 15.419a7.979 7.979 0 0 1 -5.791 2.481z" fill="#768753"/><path d="m245.6 168a372.443 372.443 0 0 1 -20.52 32" fill="#fff" stroke="#768753" stroke-miterlimit="10"/><path d="m225.077 208a8 8 0 0 1 -6.5-12.657 366.016 366.016 0 0 0 20.079-31.312 8 8 0 0 1 13.892 7.938 381.675 381.675 0 0 1 -20.962 32.688 7.989 7.989 0 0 1 -6.509 3.343z" fill="#768753"/><path d="m488 496h-464a8 8 0 0 1 0-16h464a8 8 0 0 1 0 16z" fill="#7a4922"/></g></svg>