<svg height="512" viewBox="0 0 512 512" width="512" xmlns="http://www.w3.org/2000/svg"><g id="flat"><path d="m335.292 488h-24a8 8 0 0 1 -7.761-6.06l-24-96a8 8 0 0 1 15.523-3.88l22.485 89.94h17.753a8 8 0 0 1 0 16z" fill="#a86e09"/><path d="m384 488h-24a8 8 0 0 1 -7.761-6.06l-25.439-101.757a8 8 0 1 1 15.523-3.881l23.923 95.698h17.754a8 8 0 0 1 0 16z" fill="#a86e09"/><path d="m139.646 280h-115.646v4.686a27.315 27.315 0 0 0 8 19.314 27.315 27.315 0 0 0 19.314 8h128.332z" fill="#d78e0c"/><path d="m179.646 312h-131.646v4.686a27.315 27.315 0 0 0 8 19.314 27.315 27.315 0 0 0 19.314 8h136.332z" fill="#c7830b"/><path d="m211.646 344h-139.646v4.686a27.315 27.315 0 0 0 8 19.314 27.315 27.315 0 0 0 19.314 8h152.332z" fill="#a86e09"/><path d="m355.363 212.479-4.07-4.479v-45.344a42.656 42.656 0 0 1 42.656-42.656h3.675a42.653 42.653 0 0 1 30.162 12.494l18.707 18.706s.8-20.477.8-23.2a64 64 0 0 0 -128 0v.177a21.286 21.286 0 0 1 -15.947 20.771q-3.936 1.017-7.836 2.187a215.86 215.86 0 0 0 -96.155 59.875l-64.062 68.99 69.332 68.392a135.482 135.482 0 0 0 98.617 38.971l1.816-.046a125.776 125.776 0 0 0 97.562-50.417l.962-1.285a195.539 195.539 0 0 0 36.83-87.615h-4.766a108.487 108.487 0 0 1 -80.283-35.521z" fill="#d5515e"/><path d="m243.65 248a8 8 0 0 1 -8 8h-78.36l9.52-10.39q2.625-2.865 5.36-5.61h63.48a8 8 0 0 1 8 8z" fill="#c34a56"/><path d="m272.48 216a8 8 0 0 1 -8 8h-74.23a189.318 189.318 0 0 1 24.2-16h50.03a8 8 0 0 1 8 8z" fill="#c34a56"/><path d="m446.493 151.2-18.707-18.706a42.653 42.653 0 0 0 -30.162-12.494h-3.675a42.656 42.656 0 0 0 -42.656 42.656v45.344l4.07 4.479a108.487 108.487 0 0 0 80.283 35.521h4.766q1.482-9.633 2.009-19.436z" fill="#dcdbd6"/><path d="m483.84 147.95-3.66.92a74.318 74.318 0 0 0 -23.28 10.3l-11.22 7.48.81-15.45s.8-20.48.8-23.2a65.147 65.147 0 0 0 -.33-6.58l37.71 16.16a5.489 5.489 0 0 1 -.83 10.37z" fill="#f7ba61"/><circle cx="391.293" cy="120" fill="#e6e5e0" r="16"/><circle cx="391.293" cy="120" fill="#6a6c65" r="7.129"/><g fill="#a8404a"><path d="m387.646 288a8 8 0 0 1 -8-8v-8a8 8 0 0 1 16 0v8a8 8 0 0 1 -8 8z"/><path d="m355.646 296a8 8 0 0 1 -8-8v-8a8 8 0 0 1 16 0v8a8 8 0 0 1 -8 8z"/><path d="m379.646 328a8 8 0 0 1 -8-8v-8a8 8 0 0 1 16 0v8a8 8 0 0 1 -8 8z"/></g><path d="m232 320h-16a8 8 0 0 1 0-16h16a8 8 0 0 1 0 16z" fill="#c34a56"/><path d="m264 344h-16a8 8 0 0 1 0-16h16a8 8 0 0 1 0 16z" fill="#c34a56"/><path d="m307.646 184a119.562 119.562 0 0 1 -43.02 91.85l-5.333 4.15h25.34a74 74 0 0 0 56.848-26.626l.66-.792a74 74 0 0 0 17.152-47.374v-21.208z" fill="#d78e0c"/><path d="m307.646 184h-.772a190 190 0 0 0 -140.059 61.612l-31.522 34.388h124l5.333-4.15a119.562 119.562 0 0 0 43.02-91.85z" fill="#c34a56"/><path d="m243.65 248a8 8 0 0 1 -8 8h-78.36l9.52-10.39q2.625-2.865 5.36-5.61h63.48a8 8 0 0 1 8 8z" fill="#a8404a"/><path d="m272.48 216a8 8 0 0 1 -8 8h-74.23a189.318 189.318 0 0 1 24.2-16h50.03a8 8 0 0 1 8 8z" fill="#a8404a"/></g></svg>