<svg height="512" viewBox="0 0 512 512" width="512" xmlns="http://www.w3.org/2000/svg"><g id="flat"><path d="m440 312v-8a184 184 0 0 0 -184-184 184 184 0 0 0 -184 184v32h32v-32a152 152 0 0 1 152-152 152 152 0 0 1 152 152v8z" fill="#91a666"/><path d="m408 312v-8a152 152 0 0 0 -152-152 152 152 0 0 0 -152 152v8h32v-8a120 120 0 0 1 120-120 120 120 0 0 1 120 120v8z" fill="#5ebef7"/><path d="m72 336v-32a184 184 0 0 1 184-184 184 184 0 0 1 184 184v6l32 8v-14c0-124.627-96.706-216-216-216-119.294 0-216 96.706-216 216v48z" fill="#fd9226"/><path d="m72 344a8 8 0 0 1 -8-8v-32c0-105.869 86.131-192 192-192s192 86.131 192 192v8a8 8 0 0 1 -16 0v-8c0-97.047-78.953-176-176-176s-176 78.953-176 176v32a8 8 0 0 1 -8 8z" fill="#d78e0c"/><path d="m40 360a8 8 0 0 1 -8-8v-48a224 224 0 0 1 382.392-158.392 222.533 222.533 0 0 1 65.608 158.392v16a8 8 0 0 1 -16 0v-16c0-114.691-93.309-208-208-208s-208 93.309-208 208v48a8 8 0 0 1 -8 8z" fill="#ea2b2d"/><path d="m376 320a8 8 0 0 1 -8-8v-8a112 112 0 0 0 -224 0v8a8 8 0 0 1 -16 0v-8a128 128 0 0 1 256 0v8a8 8 0 0 1 -8 8z" fill="#8a91fb"/><path d="m104 344a8 8 0 0 1 -8-8v-32c0-88.224 71.776-160 160-160s160 71.776 160 160v8a8 8 0 0 1 -16 0v-8c0-79.4-64.6-144-144-144s-144 64.6-144 144v32a8 8 0 0 1 -8 8z" fill="#007af6"/><path d="m228.62 329.688a31.966 31.966 0 0 0 -33.161-17.361 63.99 63.99 0 0 0 -122.943 15.673h-.516a48 48 0 0 0 -48 48 48 48 0 0 0 48 48h144a48 48 0 0 0 48-48 48.012 48.012 0 0 0 -35.38-46.312z" fill="#eae9e4"/><path d="m264 376a48 48 0 0 1 -48 48h-16a48 48 0 0 0 12.62-94.31 31.979 31.979 0 0 0 -28.62-17.69 32.344 32.344 0 0 0 -4.54.33 64.035 64.035 0 0 0 -51.46-39.83 64.018 64.018 0 0 1 67.46 39.83 32.344 32.344 0 0 1 4.54-.33 31.979 31.979 0 0 1 28.62 17.69 47.991 47.991 0 0 1 35.38 46.31z" fill="#dcdbd6"/><path d="m462.883 272.75a24.066 24.066 0 0 0 -13.558-14.871 40 40 0 0 0 -72.525 14.121h-.8a32 32 0 0 0 -32 32 32 32 0 0 0 32 32h80a32 32 0 0 0 32-32 32.006 32.006 0 0 0 -25.117-31.25z" fill="#eae9e4"/><path d="m488 304a32 32 0 0 1 -32 32h-16a32 32 0 0 0 6.88-63.25 24.009 24.009 0 0 0 -13.56-14.87 39.957 39.957 0 0 0 -25.34-17.08 40.7 40.7 0 0 1 8.02-.8 39.929 39.929 0 0 1 33.32 17.88 24.009 24.009 0 0 1 13.56 14.87 32.01 32.01 0 0 1 25.12 31.25z" fill="#dcdbd6"/></g></svg>