<svg height="512" viewBox="0 0 512 512" width="512" xmlns="http://www.w3.org/2000/svg"><g id="flat"><g fill="#5ebef7"><path d="m282.343 130.343-18.862 18.862.073-17.445 22.1-22.1a8 8 0 0 0 -11.314-11.314l-10.694 10.694.073-17.444 13.935-13.936a8 8 0 0 0 -11.314-11.314l-2.526 2.526.186-43.772a8 8 0 0 0 -7.967-8.034h-.033a8 8 0 0 0 -8 7.967l-.182 43.467-2.161-2.161a8 8 0 0 0 -11.314 11.314l13.381 13.381-.072 17.3-9.995-9.995a8 8 0 0 0 -11.314 11.314l21.214 21.215-.072 17.3-17.828-17.828a8 8 0 0 0 -11.314 11.314l29.048 29.048-.009 2.126a8 8 0 0 0 7.967 8.033h.034a8 8 0 0 0 8-7.967v-.968l30.271-30.272a8 8 0 0 0 -11.314-11.314z"/><path d="m51.2 148.978 36.666 20.807-1.284.344a8 8 0 1 0 4.141 15.455l16.971-4.547 15.222 8.638-12.621 3.382a8 8 0 1 0 4.141 15.455l28.308-7.585 15.223 8.638-23.959 6.42a8 8 0 1 0 4.14 15.455l39.646-10.623 1.952 1.108a8 8 0 0 0 7.9-13.916l-.754-.428-11.083-41.364a8 8 0 0 0 -15.455 4.14l7 26.139-15-8.512-8.263-30.838a8 8 0 1 0 -15.455 4.14l4.184 15.614-15-8.511-5.443-20.315a8 8 0 1 0 -15.455 4.141l1.363 5.088-39.185-22.241a8 8 0 1 0 -7.9 13.916z"/><path d="m180.259 291.205-.747.438-41.365-11.083a8 8 0 0 0 -4.14 15.455l26.138 7-14.87 8.732-30.84-8.263a8 8 0 0 0 -4.141 15.455l15.612 4.184-14.869 8.733-20.315-5.444a8 8 0 1 0 -4.141 15.455l5.088 1.364-38.857 22.825a8 8 0 1 0 8.1 13.8l36.356-21.356-.344 1.283a8 8 0 1 0 15.455 4.141l4.547-16.97 15.092-8.864-3.381 12.621a8 8 0 1 0 15.455 4.14l7.584-28.306 15.094-8.864-6.42 23.959a8 8 0 1 0 15.455 4.14l10.622-39.645 1.935-1.135a8 8 0 1 0 -8.1-13.8z"/><path d="m264.609 341.3.009-2.126a8 8 0 0 0 -7.967-8.033h-.034a8 8 0 0 0 -8 7.967v.968l-30.271 30.272a8 8 0 0 0 11.314 11.314l18.859-18.862-.073 17.445-22.1 22.1a8 8 0 0 0 11.314 11.314l10.694-10.694-.073 17.444-13.935 13.936a8 8 0 0 0 11.314 11.314l2.526-2.526-.186 43.767a8 8 0 0 0 7.967 8.034h.033a8 8 0 0 0 8-7.967l.182-43.471 2.161 2.161a8 8 0 0 0 11.314-11.314l-13.381-13.381.072-17.3 10 10a8 8 0 0 0 11.314-11.314l-21.214-21.215.072-17.3 17.828 17.828a8 8 0 0 0 11.314-11.314z"/><path d="m460.8 363.022-36.666-20.807 1.284-.344a8 8 0 0 0 -4.141-15.455l-16.971 4.547-15.222-8.638 12.621-3.382a8 8 0 0 0 -4.141-15.455l-28.308 7.585-15.223-8.638 23.959-6.42a8 8 0 0 0 -4.14-15.455l-39.646 10.623-1.952-1.108a8 8 0 0 0 -7.9 13.916l.754.428 11.092 41.364a8 8 0 0 0 15.455-4.14l-7-26.139 15 8.512 8.263 30.838a8 8 0 1 0 15.455-4.14l-4.193-15.614 15 8.511 5.443 20.315a8 8 0 0 0 15.455-4.141l-1.363-5.088 39.191 22.24a8 8 0 1 0 7.9-13.916z"/><path d="m327.7 221.9a7.969 7.969 0 0 0 4.044-1.1l.747-.438 41.365 11.083a8 8 0 0 0 4.14-15.455l-26.138-7 14.87-8.732 30.84 8.263a8 8 0 0 0 4.141-15.455l-15.612-4.184 14.869-8.733 20.315 5.444a8 8 0 0 0 4.141-15.455l-5.088-1.364 38.857-22.821a8 8 0 0 0 -8.1-13.8l-36.359 21.347.344-1.283a8 8 0 1 0 -15.455-4.141l-4.547 16.97-15.092 8.864 3.381-12.621a8 8 0 1 0 -15.455-4.14l-7.584 28.306-15.094 8.864 6.42-23.959a8 8 0 0 0 -15.455-4.14l-10.622 39.645-1.935 1.135a8 8 0 0 0 4.059 14.9z"/></g><path d="m204.226 245.66a8 8 0 0 1 -.65-15.972l5.81-.481-2.479-5.656a8 8 0 0 1 14.655-6.422l6.976 15.918a8 8 0 0 1 -6.669 11.183l-16.976 1.4c-.224.021-.447.03-.667.03z" fill="#a6deff"/><path d="m214.229 299.662a8 8 0 0 1 -7.229-11.418l2.489-5.271-6.138-.682a8 8 0 1 1 1.765-15.9l17.275 1.917a8 8 0 0 1 6.35 11.367l-7.274 15.4a8 8 0 0 1 -7.238 4.587z" fill="#a6deff"/><path d="m266.007 318a7.989 7.989 0 0 1 -6.582-3.444l-3.321-4.792-3.66 4.975a8 8 0 0 1 -12.888-9.48l10.3-14a8 8 0 0 1 13.019.183l9.7 14a8 8 0 0 1 -6.568 12.558z" fill="#a6deff"/><path d="m297.77 299.662a8 8 0 0 1 -7.332-4.791l-6.976-15.918a8 8 0 0 1 6.669-11.183l16.976-1.4a8 8 0 0 1 1.317 15.945l-5.81.481 2.479 5.656a8 8 0 0 1 -7.323 11.213z" fill="#a6deff"/><path d="m307.775 245.661a7.922 7.922 0 0 1 -.892-.05l-17.275-1.917a8 8 0 0 1 -6.35-11.367l7.274-15.4a8 8 0 1 1 14.468 6.829l-2.489 5.271 6.138.682a8 8 0 0 1 -.873 15.952z" fill="#a6deff"/><path d="m256 277a21 21 0 1 1 21-21 21.024 21.024 0 0 1 -21 21zm0-26a5 5 0 1 0 5 5 5.006 5.006 0 0 0 -5-5z" fill="#a6deff"/><path d="m256.618 347.136a8 8 0 0 1 -3.948-1.042l-72.308-41.032a8 8 0 0 1 -4.051-6.9l-.618-83.137a8.005 8.005 0 0 1 3.949-6.958l71.688-42.1a8.005 8.005 0 0 1 8-.06l72.308 41.032a8 8 0 0 1 4.051 6.9l.618 83.137a8.005 8.005 0 0 1 -3.949 6.958l-71.688 42.1a8 8 0 0 1 -4.052 1.102zm-64.342-53.71 64.274 36.474 63.722-37.424-.548-73.9-64.274-36.476-63.722 37.424z" fill="#92d1f7"/><path d="m255.7 224h-.112a8 8 0 0 1 -6.463-3.442l-9.7-14a8 8 0 0 1 13.15-9.114l3.321 4.792 3.66-4.975a8 8 0 0 1 12.888 9.48l-10.3 14a8 8 0 0 1 -6.444 3.259z" fill="#a6deff"/><path d="m256.3 304a7.993 7.993 0 0 1 -3.948-1.042l-34.789-19.742a8 8 0 0 1 -4.052-6.9l-.3-40a8 8 0 0 1 3.948-6.958l34.491-20.258a8 8 0 0 1 8-.06l34.789 19.742a8 8 0 0 1 4.052 6.9l.3 40a8 8 0 0 1 -3.948 6.958l-34.493 20.26a7.991 7.991 0 0 1 -4.05 1.1zm-26.823-32.42 26.754 15.183 26.526-15.579-.23-30.762-26.754-15.183-26.526 15.579z" fill="#5ebef7"/></g></svg>