<svg height="512" viewBox="0 0 512 512" width="512" xmlns="http://www.w3.org/2000/svg"><g id="flat"><path d="m24 200h32l16 16h48l16 16h32 160l16-8h32l16 16 24 56 32 128h-424z" fill="#c7830b"/><path d="m376 296a8 8 0 0 1 -16 0 107.574 107.574 0 0 0 -15.32-55.32l-7.54-12.56c-.11-.18-.2-.36-.29-.54l7.15-3.58h9.33l5.07 8.44a123.657 123.657 0 0 1 17.6 63.56z" fill="#c7830b"/><path d="m128 295.56v72.44a8 8 0 0 1 -16 0v-72.44a48.513 48.513 0 0 0 -14.32-34.56l-1.68-1.69v67.72a48.652 48.652 0 0 1 -14.34 34.63 32.72 32.72 0 0 0 -9.66 23.31v39.03h-16v-39.03a48.652 48.652 0 0 1 14.34-34.63 32.72 32.72 0 0 0 9.66-23.31v-84.61l-27.99-41.98a3.992 3.992 0 0 1 -.27-.44h4.26l16 16h9.62l12.6 18.9 14.78 14.78a64.487 64.487 0 0 1 19 45.88z" fill="#c7830b"/><path d="m168 298.15v29.85a8 8 0 0 1 -16 0v-29.85a95.041 95.041 0 0 0 -18.84-56.6l-20.07-25.55h6.91l16 16h10a111.2 111.2 0 0 1 22 66.15z" fill="#c7830b"/><path d="m24 200v-160h16l16-16h48l24 16 152 80h24l16 24 32 24 8 56h-16l-16 8h-192l-16-16h-48l-16-16z" fill="#ee9d0d"/><path d="m136 160.06v31.94a8 8 0 0 1 -16 0v-31.94a21.945 21.945 0 0 0 -9.8-18.31l-.84-.56a29.935 29.935 0 0 1 -13.36-24.96v-31.51a33.838 33.838 0 0 0 -5.71-18.86l-28.07-41.86h19.27l22.1 32.96a49.838 49.838 0 0 1 8.41 27.76v31.51a13.991 13.991 0 0 0 6.23 11.65l.85.55a37.958 37.958 0 0 1 16.92 31.63z" fill="#ee9d0d"/><path d="m328 184a8 8 0 0 1 -16 0 116.179 116.179 0 0 0 -8.34-43.31l-8.21-20.69h8.55l16 24 2.37 1.78a131.708 131.708 0 0 1 5.63 38.22z" fill="#ee9d0d"/><path d="m280 232h-112v-67.181a214.748 214.748 0 0 0 -40-124.819h112a214.748 214.748 0 0 1 40 124.819z" fill="#a6deff"/><path d="m208 164.82a8 8 0 0 1 -16 0 205.634 205.634 0 0 0 -38.45-120.09l-3.56-4.73h19.75a221.393 221.393 0 0 1 38.26 124.82z" fill="#a6deff"/><path d="m336 424h-96v-67.181a214.748 214.748 0 0 0 -40-124.819h96a214.748 214.748 0 0 1 40 124.819z" fill="#92d1f7"/><path d="m241.742 232a223.034 223.034 0 0 1 21.658 40.451 8 8 0 1 1 -14.807 6.061 206.989 206.989 0 0 0 -23.103-41.862 41.438 41.438 0 0 1 -3.08-4.65z" fill="#5ebef7"/><path d="m270.047 336a8 8 0 0 1 -7.917-6.928c-.7-5.144-1.6-10.327-2.683-15.4a8 8 0 0 1 15.648-3.34c1.167 5.47 2.14 11.054 2.89 16.6a8 8 0 0 1 -6.854 9 8.124 8.124 0 0 1 -1.084.068z" fill="#5ebef7"/><path d="m272 400a8 8 0 0 1 -8-8v-24a8 8 0 0 1 16 0v24a8 8 0 0 1 -8 8z" fill="#5ebef7"/><path d="m295.2 304a8 8 0 0 1 -7.669-5.736 207.155 207.155 0 0 0 -15.736-38.51 8 8 0 0 1 14.127-7.512 223.178 223.178 0 0 1 16.954 41.49 8 8 0 0 1 -7.676 10.268z" fill="#5ebef7"/><path d="m304 392a8 8 0 0 1 -8-8v-27.182a207.381 207.381 0 0 0 -1.87-27.744 8 8 0 1 1 15.855-2.148 223.473 223.473 0 0 1 2.015 29.892v27.182a8 8 0 0 1 -8 8z" fill="#5ebef7"/><path d="m217.792 96a8 8 0 0 1 -7.473-5.141 207.3 207.3 0 0 0 -10.519-23.103 8 8 0 0 1 14.127-7.512 223.33 223.33 0 0 1 11.335 24.895 8 8 0 0 1 -7.47 10.861z" fill="#92d1f7"/><path d="m232 172.818a8 8 0 0 1 -8-8 207.334 207.334 0 0 0 -3.061-35.446 8 8 0 1 1 15.763-2.744 223.414 223.414 0 0 1 3.3 38.19 8 8 0 0 1 -8.002 8z" fill="#92d1f7"/><path d="m200 208a8 8 0 0 1 -8-8v-8a8 8 0 0 1 16 0v8a8 8 0 0 1 -8 8z" fill="#92d1f7"/><path d="m224 232v-32a8 8 0 0 1 16 0v32z" fill="#92d1f7"/><path d="m128 295.56v72.44a8 8 0 0 1 -16 0v-72.44a48.513 48.513 0 0 0 -14.32-34.56l-1.68-1.69v67.72a48.652 48.652 0 0 1 -14.34 34.63 32.72 32.72 0 0 0 -9.66 23.31v39.03a8 8 0 0 1 -16 0v-39.03a48.652 48.652 0 0 1 14.34-34.63 32.72 32.72 0 0 0 9.66-23.31v-84.61l-27.99-41.98a3.992 3.992 0 0 1 -.27-.44h4.26l16 16h9.62l12.6 18.9 14.78 14.78a64.487 64.487 0 0 1 19 45.88z" fill="#936108"/><path d="m168 298.15v29.85a8 8 0 0 1 -16 0v-29.85a95.041 95.041 0 0 0 -18.84-56.6l-20.07-25.55h6.91l16 16h10a111.2 111.2 0 0 1 22 66.15z" fill="#936108"/><path d="m392 328 48 32 16 40v24h-88v-64z" fill="#ee9d0d"/><path d="m376 296a8 8 0 0 1 -16 0 107.574 107.574 0 0 0 -15.32-55.32l-7.54-12.56c-.11-.18-.2-.36-.29-.54l7.15-3.58h9.33l5.07 8.44a123.657 123.657 0 0 1 17.6 63.56z" fill="#936108"/><path d="m328 184a8 8 0 0 1 -16 0 116.179 116.179 0 0 0 -8.34-43.31l-8.21-20.69h8.55l16 24 2.37 1.78a131.708 131.708 0 0 1 5.63 38.22z" fill="#c7830b"/><path d="m415.994 132.6a7.976 7.976 0 0 1 -3.572-.847l-5.88-2.941a7.687 7.687 0 0 0 -8.885 1.443 8 8 0 0 1 -11.314 0 7.686 7.686 0 0 0 -8.885-1.443l-5.88 2.941a8 8 0 0 1 -7.156-14.311l5.881-2.94a23.666 23.666 0 0 1 21.7.253 23.657 23.657 0 0 1 21.7-.253l5.881 2.94a8 8 0 0 1 -3.584 15.158z" fill="#dcdbd6"/><path d="m455.994 96a7.976 7.976 0 0 1 -3.572-.847l-5.88-2.94a7.688 7.688 0 0 0 -8.885 1.442 8 8 0 0 1 -11.314 0 7.688 7.688 0 0 0 -8.885-1.442l-5.88 2.94a8 8 0 0 1 -7.156-14.31l5.878-2.943a23.666 23.666 0 0 1 21.7.253 23.663 23.663 0 0 1 21.7-.253l5.881 2.941a8 8 0 0 1 -3.587 15.159z" fill="#dcdbd6"/><path d="m136 160.06v31.94a8 8 0 0 1 -16 0v-31.94a21.945 21.945 0 0 0 -9.8-18.31l-.84-.56a29.935 29.935 0 0 1 -13.36-24.96v-31.51a33.838 33.838 0 0 0 -5.71-18.86l-28.07-41.86h19.27l22.1 32.96a49.838 49.838 0 0 1 8.41 27.76v31.51a13.991 13.991 0 0 0 6.23 11.65l.85.55a37.958 37.958 0 0 1 16.92 31.63z" fill="#c7830b"/><path d="m56 200a40 40 0 0 1 76.662-16h5.338a30 30 0 0 1 30 30v18h-32l-16-16h-48z" fill="#91a666"/><path d="m208 164.82a8 8 0 0 1 -16 0 205.634 205.634 0 0 0 -38.45-120.09l-3.56-4.73h19.75a221.393 221.393 0 0 1 38.26 124.82z" fill="#92d1f7"/><path d="m104 424v-40l32-32 8-24h40l8 32 48 40v24z" fill="#ee9d0d"/><path d="m424 432a8 8 0 0 1 -8-8v-6.111a68.121 68.121 0 0 0 -7.155-30.311l-4-8a8 8 0 0 1 14.31-7.156l4 8a84.209 84.209 0 0 1 8.845 37.467v6.111a8 8 0 0 1 -8 8z" fill="#c7830b"/><path d="m368 360 24 16 24 8 24-24-48-32z" fill="#ffc864"/><path d="m24 424h464v64h-464z" fill="#5ebef7"/><g fill="#92d1f7"><path d="m240 464h-16a8 8 0 0 1 0-16h16a8 8 0 0 1 0 16z"/><path d="m304 464h-40a8 8 0 0 1 0-16h40a8 8 0 0 1 0 16z"/><path d="m384 464h-48a8 8 0 0 1 0-16h48a8 8 0 0 1 0 16z"/><path d="m488 464h-72a8 8 0 0 1 0-16h72z"/><path d="m192 464h-16a8 8 0 0 1 0-16h16a8 8 0 0 1 0 16z"/><path d="m24 448h120a8 8 0 0 1 0 16h-120z"/></g></g></svg>