<svg height="512" viewBox="0 0 512 512" width="512" xmlns="http://www.w3.org/2000/svg"><g id="flat"><path d="m283.973 145.723-104.893 154.577a75.574 75.574 0 0 0 9.1 95.874 75.572 75.572 0 0 0 66.572 20.985 129.95 129.95 0 0 0 106.76-115.453l12.215-126.219a50 50 0 0 0 -14.412-40.172 42.085 42.085 0 0 0 -36.679-11.754l-5.509.918a50 50 0 0 0 -33.154 21.244z" fill="#91a666"/><ellipse cx="388.804" cy="384.312" fill="#fd9226" rx="76" ry="64" transform="matrix(.616 -.788 .788 .616 -153.458 453.709)"/><path d="m296 320h-30.169l36.679-51.351a8 8 0 1 0 -13.02-9.3l-9.49 13.288v-8.637a8 8 0 0 0 -16 0v31.037l-40 56v-23.037a8 8 0 0 0 -16 0v45.437l-78.51 109.914a8 8 0 1 0 13.02 9.3l112-156.794a8.01 8.01 0 0 0 1.49.143h40a8 8 0 0 0 0-16z" fill="#a3612d"/><path d="m408.079 353.49a8 8 0 0 0 -11.16 1.861l-12.919 18.086v-5.437a8 8 0 0 0 -16 0l-.015 29.262c0 1.066-62.495 86.089-62.495 86.089a8 8 0 1 0 13.02 9.3l49.051-68.671c.146.008.291.022.439.022h32a8 8 0 0 0 0-16h-21.026l30.964-43.351a8 8 0 0 0 -1.859-11.161z" fill="#a3612d"/><path d="m160 200h-112a8 8 0 0 1 0-16h112a24 24 0 1 0 -24-24 8 8 0 0 1 -16 0 40 40 0 1 1 40 40z" fill="#a6deff"/><path d="m96 248h-56a8 8 0 0 1 0-16h56a8 8 0 0 1 0 16z" fill="#92d1f7"/><path d="m248 248h-104a8 8 0 0 1 0-16h104a8 8 0 0 1 0 16z" fill="#92d1f7"/><path d="m88 376a48.055 48.055 0 0 1 -48-48 8 8 0 0 1 16 0 32 32 0 1 0 32-32h-56a8 8 0 0 1 0-16h56a48 48 0 0 1 0 96z" fill="#a6deff"/><path d="m400 192h-64a8 8 0 0 1 0-16h64a8 8 0 0 1 0 16z" fill="#92d1f7"/><path d="m128 448h-16a8 8 0 0 1 0-16h16a8 8 0 0 1 0 16z" fill="#92d1f7"/><path d="m112 416h-56a8 8 0 0 1 0-16h56a8 8 0 0 1 0 16z" fill="#a6deff"/><path d="m112 80h-40a8 8 0 0 1 0-16h40a8 8 0 0 1 0 16z" fill="#92d1f7"/><path d="m248 107.832a7.976 7.976 0 0 1 -5.657-2.343l-11.232-11.231a37.416 37.416 0 0 1 0-52.851l11.232-11.231a8 8 0 0 1 11.314 0l11.232 11.232a37.414 37.414 0 0 1 0 52.85l-11.232 11.231a7.976 7.976 0 0 1 -5.657 2.343z" fill="#91a666"/><path d="m261.057 124.169a7.963 7.963 0 0 1 -4.685-1.522 49.033 49.033 0 0 1 -18.272-53.328l1.159-3.975a8 8 0 1 1 15.36 4.48l-1.163 3.976a33 33 0 0 0 12.3 35.889 8 8 0 0 1 -4.7 14.481z" fill="#a3612d"/><path d="m425.666 121.12a8 8 0 0 1 -7.792-6.222l-3.535-15.485a37.37 37.37 0 0 1 28.118-44.75l15.485-3.535a8 8 0 0 1 9.58 6.019l3.535 15.487a37.414 37.414 0 0 1 -28.118 44.75l-15.486 3.534a8.009 8.009 0 0 1 -1.787.202z" fill="#768753"/><path d="m405.913 128a8 8 0 0 1 -.518-15.982 33 33 0 0 0 29.505-23.846l1.134-3.983a8 8 0 0 1 15.388 4.379l-1.133 3.983a49.033 49.033 0 0 1 -43.846 35.431c-.175.012-.354.018-.53.018z" fill="#a3612d"/><path d="m448.007 282.788a37.361 37.361 0 0 1 -7.668-.8l-15.547-3.255a8 8 0 0 1 -6.19-9.469l3.255-15.548a37.37 37.37 0 0 1 44.236-28.916l15.547 3.256a8 8 0 0 1 6.19 9.469l-3.255 15.547a37.438 37.438 0 0 1 -36.568 29.716z" fill="#fd9226"/><path d="m420.158 279.593a48.692 48.692 0 0 1 -17.4-3.211 8 8 0 1 1 5.712-14.945 33 33 0 0 0 36.77-9.345l2.693-3.146a8 8 0 0 1 12.154 10.407l-2.693 3.145a49.036 49.036 0 0 1 -37.236 17.095z" fill="#a3612d"/><path d="m248 456h-8a8 8 0 0 1 0-16h8a8 8 0 0 1 0 16z" fill="#a6deff"/><path d="m304 248h-8a8 8 0 0 1 0-16h8a8 8 0 0 1 0 16z" fill="#a6deff"/><path d="m488 496h-456a8 8 0 0 1 0-16h456a8 8 0 0 1 0 16z" fill="#7a4922"/></g></svg>