<svg height="512" viewBox="0 0 512 512" width="512" xmlns="http://www.w3.org/2000/svg"><g id="flat"><path d="m442.8 330.5-10.8 13.5-176-64 160-16 31.085 31.085c1.043 1.043 2.054 2.113 3.046 3.2a37.883 37.883 0 0 1 -7.331 32.215z" fill="#92d1f7"/><path d="m432 344a56.947 56.947 0 0 1 -38.165 63.388l-1.835.612-136-128z" fill="#5ebef7"/><path d="m392 408-1.681 4.2a56.948 56.948 0 0 1 -52.875 35.8h-.8l-80.644-168z" fill="#92d1f7"/><path d="m248.481 277.266a8 8 0 0 1 10.253-4.785l184.76 67.186a8 8 0 1 1 -5.468 15.037l-148.265-53.914 111.75 105.176a8 8 0 1 1 -10.966 11.65l-139.959-131.725a8 8 0 0 1 -2.105-8.625z" fill="#4e9ecd"/><path d="m376 232 36.414 36.414-156.414 11.586v-8l16.512-10.32a195.257 195.257 0 0 1 103.488-29.68z" fill="#5ebef7"/><path d="m318.331 180.535 25.669-20.535 7.306 4.383a56 56 0 0 1 26.426 57.226l-1.732 10.391a195.257 195.257 0 0 0 -103.488 29.68l-16.512 10.32v-24l36.056-42.066a195.309 195.309 0 0 1 26.275-25.399z" fill="#92d1f7"/><path d="m303.822 148.282a203.938 203.938 0 0 1 22.4-29.235l.967.953a55.832 55.832 0 0 1 16.811 40l-25.669 20.535a195.309 195.309 0 0 0 -26.275 25.4l-36.056 42.065v-24z" fill="#5ebef7"/><path d="m256 256a7.978 7.978 0 0 0 6.078-2.794l36.056-42.065a187.721 187.721 0 0 1 25.2-24.359l34.015-26.935a8 8 0 1 0 -9.933-12.543l-34.046 26.96a203.821 203.821 0 0 0 -27.383 26.465l-36.056 42.065a8 8 0 0 0 6.069 13.206z" fill="#4e9ecd"/><path d="m256.008 280a7.963 7.963 0 0 0 4.232-1.217l16.512-10.32a187.069 187.069 0 0 1 99.248-28.463h8a8 8 0 0 0 0-16h-8a203.053 203.053 0 0 0 -107.728 30.9l-16.512 10.32a8 8 0 0 0 4.248 14.78z" fill="#4e9ecd"/><path d="m69.2 330.5 10.8 13.5 176-64-160-16-31.085 31.085c-1.043 1.043-2.054 2.113-3.046 3.2a37.883 37.883 0 0 0 7.331 32.215z" fill="#92d1f7"/><path d="m80 344a56.947 56.947 0 0 0 38.165 63.388l1.835.612 136-128z" fill="#5ebef7"/><path d="m120 408 1.681 4.2a56.948 56.948 0 0 0 52.875 35.8h.8l80.644-168z" fill="#92d1f7"/><path d="m263.519 277.266a8 8 0 0 0 -10.253-4.785l-184.76 67.186a8 8 0 1 0 5.468 15.033l148.265-53.91-111.75 105.176a8 8 0 1 0 10.966 11.65l139.959-131.725a8 8 0 0 0 2.105-8.625z" fill="#4e9ecd"/><path d="m136 232-36.414 36.414 156.414 11.586v-8l-16.512-10.32a195.257 195.257 0 0 0 -103.488-29.68z" fill="#5ebef7"/><path d="m193.669 180.535-25.669-20.535-7.306 4.383a56 56 0 0 0 -26.426 57.226l1.732 10.391a195.257 195.257 0 0 1 103.488 29.68l16.512 10.32v-24l-36.056-42.066a195.309 195.309 0 0 0 -26.275-25.399z" fill="#92d1f7"/><path d="m208.178 148.282a203.938 203.938 0 0 0 -22.4-29.235l-.967.953a55.832 55.832 0 0 0 -16.811 40l25.669 20.535a195.309 195.309 0 0 1 26.275 25.4l36.056 42.065v-24z" fill="#5ebef7"/><path d="m256 256a7.978 7.978 0 0 1 -6.078-2.794l-36.052-42.065a187.721 187.721 0 0 0 -25.2-24.359l-34.015-26.935a8 8 0 1 1 9.933-12.543l34.046 26.96a203.821 203.821 0 0 1 27.383 26.465l36.056 42.065a8 8 0 0 1 -6.073 13.206z" fill="#4e9ecd"/><path d="m255.992 280a7.963 7.963 0 0 1 -4.232-1.217l-16.512-10.32a187.069 187.069 0 0 0 -99.248-28.463h-8a8 8 0 0 1 0-16h8a203.053 203.053 0 0 1 107.728 30.9l16.512 10.32a8 8 0 0 1 -4.248 14.78z" fill="#4e9ecd"/><g fill="#915628"><path d="m264 168a8.008 8.008 0 0 1 -7.666-10.3l14.525-48.4a66.283 66.283 0 0 1 47.2-45.056 8 8 0 0 1 3.88 15.522 50.211 50.211 0 0 0 -35.755 34.132l-14.521 48.402a8 8 0 0 1 -7.663 5.7z"/><path d="m264 168a8.008 8.008 0 0 1 -7.666-10.3l14.525-48.4a66.283 66.283 0 0 1 47.2-45.056 8 8 0 0 1 3.88 15.522 50.211 50.211 0 0 0 -35.755 34.132l-14.521 48.402a8 8 0 0 1 -7.663 5.7z"/><path d="m248 168a8 8 0 0 1 -7.66-5.7l-14.522-48.406a50.211 50.211 0 0 0 -35.758-34.133 8 8 0 0 1 3.88-15.522 66.283 66.283 0 0 1 47.2 45.056l14.523 48.405a8.008 8.008 0 0 1 -7.663 10.3z"/><path d="m280 256h-48a111.192 111.192 0 0 0 -.873 80.338l3.255 8.681a23.088 23.088 0 0 0 21.618 14.981 23.088 23.088 0 0 0 21.618-14.981l3.255-8.681a111.192 111.192 0 0 0 -.873-80.338z"/></g><path d="m286.98 312a110.2 110.2 0 0 1 -3.36 16h-55.24a110.2 110.2 0 0 1 -3.36-16z" fill="#7a4922"/><path d="m287.94 296h-63.88a110.124 110.124 0 0 1 1.35-16h61.18a110.124 110.124 0 0 1 1.35 16z" fill="#7a4922"/><path d="m287.94 296h-63.88a110.124 110.124 0 0 1 1.35-16h61.18a110.124 110.124 0 0 1 1.35 16z" fill="#a3612d"/><path d="m286.98 312a110.2 110.2 0 0 1 -3.36 16h-55.24a110.2 110.2 0 0 1 -3.36-16z" fill="#a3612d"/><path d="m272 200h-32l-4.686 9.373a61.076 61.076 0 0 0 -3.314 46.627h48a61.076 61.076 0 0 0 -3.314-46.627z" fill="#a3612d"/><circle cx="256" cy="184" fill="#915628" r="24"/><path d="m390.319 412.2 1.681-4.2 1.835-.612a56.947 56.947 0 0 0 38.165-63.388l10.8-13.5a37.883 37.883 0 0 0 7.334-32.222 100.358 100.358 0 0 1 26 76.107 100.363 100.363 0 0 1 -46.134 76.343l-37.459 23.836a34.764 34.764 0 0 1 -18.665 5.436 34.764 34.764 0 0 1 -31.342-19.722l-5.894-12.278h.8a56.948 56.948 0 0 0 52.879-35.8z" fill="#0a71cd"/><path d="m121.681 412.2-1.681-4.2-1.835-.612a56.947 56.947 0 0 1 -38.165-63.388l-10.8-13.5a37.883 37.883 0 0 1 -7.334-32.222 100.358 100.358 0 0 0 -26 76.107 100.363 100.363 0 0 0 46.134 76.343l37.459 23.836a34.764 34.764 0 0 0 18.665 5.436 34.764 34.764 0 0 0 31.342-19.722l5.894-12.278h-.8a56.948 56.948 0 0 1 -52.879-35.8z" fill="#0a71cd"/><path d="m377.732 221.609a56 56 0 0 0 -26.426-57.226l-7.306-4.383a55.832 55.832 0 0 0 -16.808-40l-.967-.953a204 204 0 0 1 114.624-62.726l6.225-1.1a34.867 34.867 0 0 1 40.926 34.337 34.865 34.865 0 0 1 -10.212 24.654 53.1 53.1 0 0 0 -13.681 51.515l13.727 50.332a34.864 34.864 0 0 1 .552 16.012l-1.191 5.953a34.866 34.866 0 0 1 -31.613 27.933l-33.168 2.457-36.414-36.414z" fill="#007af6"/><circle cx="416" cy="120" fill="#d78e0c" r="24"/><circle cx="424" cy="208" fill="#a86e09" r="16"/><path d="m134.268 221.609a56 56 0 0 1 26.426-57.226l7.306-4.383a55.832 55.832 0 0 1 16.808-40l.967-.953a204 204 0 0 0 -114.624-62.726l-6.225-1.1a34.867 34.867 0 0 0 -40.926 34.337 34.865 34.865 0 0 0 10.212 24.654 53.1 53.1 0 0 1 13.681 51.515l-13.727 50.332a34.864 34.864 0 0 0 -.552 16.012l1.191 5.953a34.866 34.866 0 0 0 31.613 27.933l33.168 2.457 36.414-36.414z" fill="#007af6"/><circle cx="96" cy="120" fill="#d78e0c" r="24"/><circle cx="88" cy="208" fill="#a86e09" r="16"/></g></svg>