<svg id="Layer_1" enable-background="new 0 0 512.004 512.004" height="512" viewBox="0 0 512.004 512.004" width="512" xmlns="http://www.w3.org/2000/svg"><g><path d="m215.102 178.064c-19.091-5.335-40.361-.293-55.1 14.75-14.678-14.982-35.907-20.109-55.1-14.75-9.135-50.475 49.091-85.668 89.11-54.55 5.75 4.083 12.429 12.257 14.96 17.31 5.99 10.485 8.526 23.998 6.13 37.24z" fill="#f79caf"/><path d="m215.102 178.064c-19.091-5.335-40.361-.293-55.1 14.75-14.678-14.982-35.907-20.109-55.1-14.75-.961-5.309-1.166-10.836-.55-16.35 18.487-4.117 38.571-.9 55.64 10.41 9.37-6.29 20.06-10.26 31.36-11.61 2.562-14.51-1.578-32.21-13.35-45.55 26.147 8.711 42.077 35.597 37.1 63.1z" fill="#e3889b"/><path d="m258.342 248.054c-25.496-.974-46.878 14.779-54.91 36.61-11.946-14.662-30.196-22.279-49.19-20.37-6.45-9.13-10.24-20.27-10.24-32.29 0-45.046 50.768-71.569 87.41-46.37 15.439 10.669 23.987 27.224 24.54 44.07.164 1.956-.429 8.929 2.39 18.35z" fill="#f79caf"/><path d="m258.342 248.054c-25.496-.974-46.878 14.779-54.91 36.61-4.53-5.56-10.1-10.25-16.43-13.74 1.98-.4 3.92-.9 5.81-1.49 7.79-14.29 20.09-25.36 34.78-31.64 8.162-19.188 5.031-42.262-9.59-58.83 18.085 6.028 33.89 22.071 37.44 45.1 1.169 7.892-.398 12.967 2.9 23.99z" fill="#e3889b"/><path d="m407.102 178.064c-19.178-5.355-40.411-.243-55.1 14.75-10.64-10.86-25.61-17.399-42.34-16.76 3.883-12.976 3.037-27.545-3.28-40.53 10.15-14.24 26.8-23.52 45.62-23.52 34.762 0 61.362 31.452 55.1 66.06z" fill="#f79caf"/><path d="m408.002 167.714c0 30.794-24.936 56-56 56-16.73 0-31.75-7.34-42-18.96 36.263 12.322 74-14.714 74-53.04 0-14.2-5.29-27.17-14-37.04 22.1 7.49 38 28.4 38 53.04z" fill="#e3889b"/><path d="m448.002 232.004c0 28.98-22.01 52.82-50.24 55.71-9.1-12.87-23.48-21.73-40-23.42 15.363-21.746 13.449-51.87-5.76-71.48 10.16-10.37 24.33-16.81 40-16.81 31.014 0 56 25.147 56 56z" fill="#f79caf"/><path d="m448.002 231.714c0 30.794-24.936 56-56 56-16.73 0-31.75-7.34-42-18.96 36.263 12.322 74-14.714 74-53.04 0-14.2-5.29-27.17-14-37.04 22.1 7.49 38 28.4 38 53.04z" fill="#e3889b"/><path d="m408.002 320.004c0 30.06-23.69 54.59-53.42 55.94-10.588-22.223-34.796-35.498-60.25-31.11 15.658-14.712 21.342-36.79 15.33-56.88 20.003.764 37.589-8.773 48.1-23.66 28.2 2.885 50.24 26.702 50.24 55.71z" fill="#f79caf"/><path d="m408.002 320.004c0 30.794-24.936 56-56 56-16.73 0-31.75-7.34-42-18.96 36.263 12.322 74-14.714 74-53.04 0-14.2-5.29-27.17-14-37.04 22.1 7.49 38 28.4 38 53.04z" fill="#e3889b"/><path d="m360.002 400.004c0 28.39-21.12 51.84-48.5 55.5 4.185-31.069-17.805-58.964-48-63-1.03-7.73-3.64-14.95-7.5-21.35-9.942-16.559-15.614-11.15 0-11.15 24.931 0 37.621-15.17 38.33-15.17 34.557-5.957 65.67 20.591 65.67 55.17z" fill="#f79caf"/><path d="m360.002 400.004c0 30.794-24.936 56-56 56-16.73 0-31.75-7.34-42-18.96 36.263 12.322 74-14.714 74-53.04 0-14.2-5.29-27.17-14-37.04 22.1 7.49 38 28.4 38 53.04z" fill="#e3889b"/><path d="m287.102 36.684-3.1 4.14c-7.79 10.38-12 23.01-12 36 0 26.428-.041 26.316.12 29.54h-32.24c.165-3.31.12-2.477.12-30.47 0-22.7 7.73-44.73 21.91-62.47 5.24-6.57 15.288-7.412 21.51-1.19l2.09 2.1c6.02 6.02 6.7 15.54 1.59 22.35z" fill="#b59f89"/><path d="m309.662 176.054c-29.864 1.223-53.66 25.835-53.66 55.95 0-25.598-17.204-47.318-40.9-53.94 2.638-14.576-.489-29.934-9.48-42.54 12.717-26.135 43.191-37.723 68.72-28.44 27.634 9.211 44.07 39.726 35.32 68.97z" fill="#f79caf"/><path d="m368.002 232.004c0 31.436-25.981 57.186-58.34 55.95-6.676-22.473-27.105-38.905-51.32-39.9-3.083-10.305-3.158-21.546 0-32.1 12.198-40.9 63.933-53.482 93.66-23.14 10.117 10.329 16 24.237 16 39.19z" fill="#f79caf"/><path d="m312.002 448.004c0 30.794-24.936 56-56 56-31.02 0-56-25.16-56-56 0-33.942 29.93-60.023 63.5-55.5 27.38 3.66 48.5 27.11 48.5 55.5z" fill="#f79caf"/><path d="m312.002 448.004c0 30.794-24.936 56-56 56-16.73 0-31.75-7.34-42-18.96 36.263 12.322 74-14.714 74-53.04 0-14.2-5.29-27.17-14-37.04 22.1 7.49 38 28.4 38 53.04z" fill="#e3889b"/><path d="m154.242 264.294c-16.52 1.69-30.89 10.55-39.99 23.41-1.313 0-7.223-.948-12.19-2.64-21.43-6.958-38.06-27.923-38.06-53.06 0-30.892 25.026-56 56-56 14.795 0 29.231 5.812 40 16.81-19.064 19.462-21.24 49.569-5.76 71.48z" fill="#f79caf"/><path d="m263.502 392.504c-36.75-4.951-67.92 26.473-63 63-.103 0-1.683-.245-2.24-.35-36.512-6.383-56.674-46.04-40.84-79.21 9.507-19.953 30.199-32.961 53.16-31.88 5.057.231 6.573.77 7.1.77 7.943 7.456 17.935 12.473 28.64 14.34h.01c7.853 7.523 13.389 16.313 16.27 28.36.479 1.996.9 4.869.9 4.97z" fill="#f79caf"/><path d="m217.672 344.834c-25.449-4.387-49.66 8.883-60.25 31.11-6.911-.319-13.648-1.921-19.45-4.45-12.827-5.375-19.794-14.45-19.97-14.45-25.177-28.498-15.12-73.499 19.94-88.52 22.332-9.608 49.289-3.773 65.49 16.14-7.419 20.034-2.986 43.986 14.24 60.17z" fill="#f79caf"/><path d="m368.002 232.004c0 30.794-24.936 56-56 56-16.73 0-31.75-7.34-42-18.96 36.263 12.322 74-14.714 74-53.04 0-14.2-5.29-27.17-14-37.04 22.1 7.49 38 28.4 38 53.04z" fill="#e3889b"/><path d="m312.002 304.004c0 48.371-58.302 74.629-94.32 40.83-.177 0-5.11-5.241-5.11-5.49-29.187-35.795-4.67-89.409 41.09-91.29 32.336-1.235 58.34 24.498 58.34 55.95z" fill="#f79caf"/><g fill="#e3889b"><path d="m312.002 304.004c0 30.794-24.936 56-56 56-16.73 0-31.75-7.34-42-18.96 36.263 12.322 74-14.714 74-53.04 0-14.2-5.29-27.17-14-37.04 22.1 7.49 38 28.4 38 53.04z"/><path d="m263.502 392.504c-36.75-4.951-67.92 26.473-63 63-.103 0-1.683-.245-2.24-.35-12.738-2.227-24.077-8.801-32.26-18.11 6.588 2.239 14.348 3.217 18.45 2.95 3.38-30.49 25.89-55.29 55.22-62.12-.94-8.57-3.8-16.56-8.16-23.51 6.427 3.151 13.827 4.81 14.82 4.81 7.528 7.211 12.489 15.551 15.02 23.78 1.398 4.357 2.15 9.156 2.15 9.55z"/><path d="m217.672 344.834c-25.449-4.387-49.66 8.883-60.25 31.11-15.691-.725-30.112-8.067-39.42-18.9.676 0 13.771 5.625 31.24 1.38 9.513-13.393 23.487-23.306 39.86-27.85-5.324-13.443-6.427-27.754-3.56-41.36-7.315-6.106-16.31-9.21-25.54-9.21-3.188 0-10.638.866-10.536.856-1.794.182-3.547-.617-4.588-2.09-3.39-4.799-5.011-6.974-6.936-10.246 22.364-9.622 49.303-3.756 65.49 16.14-7.655 20.67-2.414 44.523 14.24 60.17z"/><path d="m154.242 264.294c-16.52 1.69-30.89 10.55-39.99 23.41-11.768-.862-26.197-7.195-36.25-18.66 18.197 6.184 39.328 2.755 54.89-10.91-9.724-24.944-4.96-54.316 14.31-75.08.121-.118 6.987 3.823 12.8 9.76-19.064 19.462-21.24 49.569-5.76 71.48z"/><path d="m309.662 176.054c-29.864 1.223-53.66 25.835-53.66 55.95 0-12.135-3.901-23.844-11.12-33.5 1.35-.31 2.69-.68 4-1.09 7.7-13.97 19.98-25.19 34.69-31.56 8.245-19.369 4.962-42.423-9.57-58.89 8.885 3.235 16.581 7.738 23.74 15.7 3.698 3.698 8.867 11.876 11.28 19.29 3.668 10.595 4.03 22.77.64 34.1z"/></g><path d="m456.002 232.004c0-26.271-16.217-49.783-40.179-59.403 2.671-37.534-27.193-68.597-63.821-68.597-16.701 0-32.641 6.574-44.474 17.991-7.08-9.658-16.609-17.01-27.526-21.389v-23.782c0-11.184 3.693-22.263 10.404-31.205l3.095-4.134c7.448-9.927 6.446-24.031-2.319-32.795l-2.102-2.112c-9.478-9.48-25.076-8.583-33.417 1.851-15.258 19.089-23.661 43.049-23.661 67.465v24.712c-10.917 4.379-20.446 11.731-27.526 21.39-11.833-11.417-27.773-17.991-44.474-17.991-36.642 0-66.491 31.084-63.821 68.597-23.963 9.62-40.179 33.131-40.179 59.403 0 28.909 19.009 53.52 45.784 61.383-16.767 36.579 4.236 80.478 44.622 89.158-10.051 35.437 12.051 71.753 47.219 79.834 6.588 28.669 32.43 49.625 62.375 49.625 29.948 0 55.791-20.959 62.375-49.625 35.176-8.084 57.266-44.406 47.219-79.834 40.308-8.663 61.427-52.493 44.621-89.158 26.776-7.864 45.785-32.475 45.785-61.384zm-104-112c26.28 0 48.237 21.417 47.998 48.497-16.768-2.085-34.131 2.377-47.998 13.53-9.018-7.251-20.202-12.186-32.552-13.603 1.454-11.054-.038-22.086-3.826-31.737 9.071-10.52 22.37-16.687 36.378-16.687zm7.682 117.563c-2.589 22.531-20.973 40.733-44.387 42.313-7.539-18.757-24.111-33.587-45.214-38.316-5.82-1.301-5.252-.651-5.353-1.226-4.31-24.58 10.929-48.034 34.326-54.568 33.003-9.228 64.517 17.997 60.628 51.797zm-103.682 114.437c-33.4 0-56.607-33.4-45.062-64.577 15.37-41.775 74.719-41.866 90.13.015 11.502 31.068-11.607 64.562-45.068 64.562zm-97.561-95.981c-18.343-31.634 4.359-72.02 41.561-72.02 26.611 0 48 21.665 48 48 0 2.857.225 5.946.553 8.43-20.747 2.553-37.388 14.059-47.4 30.535-12.157-10.256-27.43-15.317-42.714-14.945zm89.561-180.13c0-20.8 7.159-41.211 20.159-57.475 1.227-1.535 3.068-2.415 5.051-2.415 3.139 0 4.5 1.834 6.643 3.987 3.183 3.182 3.547 8.294.843 11.897l-3.095 4.134c-8.771 11.687-13.602 26.177-13.602 40.802v19.678c-5.393-.664-10.604-.665-16 0v-20.608zm8 36.111c30.478 0 52.51 27.554 47.229 56.599-20.046 2.768-37.43 14.96-47.144 32.3-.338.603-8.712-18.812-32.249-28.302.898-12.625-1.893-25.773-8.912-37.464 8.667-14.374 24.033-23.133 41.076-23.133zm-96 8c26.301 0 48.268 21.421 47.989 48.497-16.761-2.076-34.123 2.382-47.989 13.531-13.752-11.063-31.168-15.641-47.998-13.531-.239-27.091 21.723-48.497 47.998-48.497zm-88 112c0-39.258 45.142-62.262 76.801-38.411-14.389 19.154-16.514 44.354-7.016 65.044-12.503 3.71-23.24 11.108-31.028 20.483-22.378-4.325-38.757-23.87-38.757-47.116zm40 88c0-42.639 52.223-64.588 82.414-33.443-4.736 16.711-2.428 34.785 6.407 49.853-20.431 2.367-38.033 14.331-47.947 31.066-23.281-3.438-40.874-23.42-40.874-47.476zm48 80c0-28.284 24.455-50.614 52.932-47.739 1.333.137 1.204.138 1.401.308 14.203 12.206 27.352 13.219 28.52 14.453 4.383 4.622 7.709 9.929 9.955 15.757.578 1.5.58 1.278.192 1.297-33.029 1.531-59.562 28.229-60.943 61.211-18.808-6.633-32.057-24.662-32.057-45.287zm96 96c-26.082 0-48-21.182-48-48 0-29.011 25.649-51.447 54.44-47.57 25.998 3.475 44.688 27.633 41.13 54.011-3.166 23.692-23.617 41.559-47.57 41.559zm63.942-50.713c-1.219-28.654-21.711-53.285-49.562-59.662-1.424-6.234-3.909-12.47-7.184-18.027 12.172-1.359 23.892-6.245 33.633-14.33 1.176-.978.755-.857 2.247-1.008 28.363-2.871 52.924 19.351 52.924 47.739 0 20.626-13.25 38.655-32.058 45.288zm39.183-77.812c-10.037-16.917-27.7-28.72-47.947-31.066 7.053-12.018 10.175-26.393 8.269-40.834 15.976-1.839 30.622-9.487 41.781-22.676 9.634 1.857 18.486 6.723 25.287 13.753 27.068 28.02 11.111 75.139-27.39 80.823zm42.12-88.358c-5.398-6.497-12.181-12.016-19.992-16.049-7.988-4.108-11.216-4.048-10.964-4.605 9.437-20.727 7.254-45.748-7.089-64.873 31.583-23.794 76.801-.911 76.801 38.411-.001 23.245-16.38 42.79-38.756 47.116z"/></g></svg>