<svg id="Layer_1" enable-background="new 0 0 512 512" height="512" viewBox="0 0 512 512" width="512" xmlns="http://www.w3.org/2000/svg"><g><path d="m240 368.008c0 26.51-21.49 48-48 48h-136c-26.51 0-48-21.49-48-48 0-20.91 13.37-38.69 32.02-45.27.83-40.307 40.491-68.251 78.61-55.78 12.44 4.06 23.1 12.07 30.47 22.56 22.557-6.506 45.913 8.165 50.2 31.04 23.029 3.519 40.7 23.405 40.7 47.45z" fill="#e2e0e0"/><path d="m240 368.008c0 26.51-21.49 48-48 48h-40c26.51 0 48-21.49 48-48 0-24.05-17.67-43.93-40.7-47.45-4.29-22.88-27.64-37.55-50.2-31.04-7.1-10.1-17.24-17.9-29.09-22.09 25.718-9.183 53.887.452 69.09 22.09 22.56-6.51 45.91 8.16 50.2 31.04 23.03 3.52 40.7 23.4 40.7 47.45z" fill="#cecccc"/><path d="m504 102.078v40.69c-132.801-26.81-272.832 26.562-351.96 146.04-.99.2-1.97.43-2.94.71-7.37-10.49-18.03-18.5-30.47-22.56 84.02-127.321 235.138-192.051 385.37-164.88z" fill="#f79caf"/><path d="m504 142.768v40.94c-116.138-26.823-240.311 16.676-313 119.04-9.629-11.839-24.819-16.856-38.96-13.94 77.657-117.256 216.434-173.401 351.96-146.04z" fill="#f8e9d2"/><path d="m504 183.708v41.24c-104.008-28.02-218.375 10.164-283.04 104.78-6.21-4.71-13.61-7.94-21.66-9.17-1.25-6.67-4.16-12.75-8.3-17.81 71.976-101.36 195.624-146.149 313-119.04z" fill="#acebe2"/><path d="m505.424 94.206c-146.93-26.58-301.23 32.881-390.23 163.518-40.188-9.185-78.888 19.13-82.856 59.521-19.545 9.112-32.338 28.88-32.338 50.763 0 30.879 25.121 56 56 56h136c30.879 0 56-25.121 56-56 0-15.072-5.892-29.104-16.355-39.539 63.268-87.181 171.057-122.524 270.274-95.797 5.076 1.368 10.081-2.461 10.081-7.725 0-12.767 0-104.001 0-122.869 0-3.869-2.769-7.183-6.576-7.872zm-315.398 196.346c-6.77-5.436-14.719-8.743-22.503-9.957 74.518-101.769 199.535-154.46 328.477-131.197v24.421c-116.163-22.884-234.062 21.792-305.974 116.733zm305.974-181.728v24.309c-136.807-23.629-269.63 34.737-346.14 144.646-5.55-5.972-12.218-10.914-19.117-14.427 83.203-119.317 225.472-177.196 365.257-154.528zm-304 299.184h-136c-22.056 0-40-17.944-40-40 0-16.934 10.723-32.095 26.682-37.726 3.142-1.108 5.268-4.048 5.336-7.379.708-34.379 34.861-59.225 68.131-48.34 17.773 5.8 25.578 18.782 27.139 20.439 1.082 1.144 2.537 1.995 4.193 2.338 2.45.513 3.639-.186 6.176-.698 17.662-3.644 34.568 8.25 37.779 25.389.626 3.341 3.295 5.922 6.655 6.435 18.613 2.844 33.909 18.883 33.909 39.542 0 22.056-17.944 40-40 40zm26.84-89.154c-.579-.322-1.713-.905-2.878-1.458-5.786-2.737-10.098-3.558-10.143-3.702-1.135-3.63-2.834-7.418-4.973-10.89 70.377-95.038 185.85-135.336 295.154-112.653v24.567c-102.427-23.322-211.828 14.295-277.16 104.136z"/></g></svg>