<svg id="Layer_1" enable-background="new 0 0 512 512" height="512" viewBox="0 0 512 512" width="512" xmlns="http://www.w3.org/2000/svg"><g><path d="m414.5 240v234c0 16.57-13.43 30-30 30h-260c-16.57 0-30-13.43-30-30v-234c0-25.03 5.75-48.72 16-69.82 48.005-98.862 179.319-121.14 257.14-43.32 29.182 29.183 46.86 69.303 46.86 113.14z" fill="#acebe2"/><path d="m414.5 240v234c0 16.57-13.43 30-30 30h-48c16.57 0 30-13.43 30-30v-234c0-80.363-59.275-146.673-135.64-158.2 97.571-14.642 183.64 61.25 183.64 158.2z" fill="#98d7ce"/><path d="m94.5 336h-56c-8.837 0-16-7.163-16-16 0-8.809 7.136-16 16-16h56z" fill="#acebe2"/><path d="m70.5 304h24v32h-24z" fill="#98d7ce"/><path d="m94.5 472c-30.842 0-56-24.987-56-56v-80h56z" fill="#f79caf"/><path d="m94.5 336v136c-8.59 0-16.72-1.93-24-5.39v-130.61z" fill="#e3889b"/><path d="m414.5 336h59c8.837 0 16-7.163 16-16 0-8.809-7.136-16-16-16h-59z" fill="#acebe2"/><path d="m489.5 320c0 8.84-7.16 16-16 16h-35c14.303 0 21.295-17.311 11.32-27.32-2.9-2.89-6.9-4.68-11.32-4.68h35c8.853 0 16 7.16 16 16z" fill="#98d7ce"/><path d="m414.5 472c30.842 0 56-24.987 56-56v-80h-56z" fill="#f79caf"/><path d="m470.5 336v80c0 30.93-25.07 56-56 56v-5.39c18.92-8.99 32-28.27 32-50.61v-80z" fill="#e3889b"/><path d="m182.5 28c0 74.419.197 68.967-.4 69.29-31.02 15.754-56.317 41.407-71.6 72.89v-142.18c0-11.05 8.95-20 20-20h32c11.05 0 20 8.95 20 20z" fill="#f79caf"/><path d="m182.5 28c0 74.419.197 68.967-.4 69.29-11.38 5.78-21.99 12.89-31.6 21.13v-90.42c0-11.05-8.95-20-20-20h32c11.05 0 20 8.95 20 20z" fill="#e3889b"/><path d="m398.5 28c0 158.098.277 142.698-.62 140.95-15.117-30.498-40.011-56.027-71.38-71.87v-69.08c0-11.05 8.95-20 20-20h32c11.05 0 20 8.95 20 20z" fill="#f79caf"/><path d="m398.5 28c0 158.098.277 142.698-.62 140.95-8-16.14-18.65-30.73-31.38-43.2v-97.75c0-11.05-8.95-20-20-20h32c11.05 0 20 8.95 20 20z" fill="#e3889b"/><path d="m356.5 456h-212c-5.523 0-10-4.477-10-10v-62h232v62c0 5.523-4.477 10-10 10z" fill="#f8e9d2"/><path d="m366.5 384v62c0 5.52-4.48 10-10 10h-40c5.52 0 10-4.48 10-10v-62z" fill="#e4d5c1"/><path d="m366.5 384h-232v-18c0-16.569 13.431-30 30-30h172c16.569 0 30 13.431 30 30z" fill="#f79caf"/><path d="m366.5 366v18h-40v-18c0-16.57-13.43-30-30-30h40c16.57 0 30 13.43 30 30z" fill="#e3889b"/><path d="m300.5 240h-92c-5.523 0-10-4.477-10-10v-44c0-5.523 4.477-10 10-10h92c5.523 0 10 4.477 10 10v44c0 5.523-4.477 10-10 10z" fill="#f79caf"/><path d="m310.5 186v44c0 5.52-4.48 10-10 10h-24c5.52 0 10-4.48 10-10v-44c0-5.52-4.48-10-10-10h24c5.52 0 10 4.48 10 10z" fill="#e3889b"/><path d="m497.5 320c0-13.233-10.767-24-24-24h-51v-56c0-25.558-5.747-49.796-16-71.505v-140.495c0-15.439-12.561-28-28-28h-32c-15.439 0-28 12.561-28 28v56.679c-7.729-3.197-15.745-5.83-24-7.854v-4.825c0-10.688-4.16-20.733-11.713-28.287-25.123-25.12-68.287-7.136-68.287 28.287v4.825c-8.255 2.024-16.271 4.657-24 7.854v-56.679c0-15.439-12.561-28-28-28h-32c-15.439 0-28 12.561-28 28v140.495c-10.253 21.709-16 45.947-16 71.505v56h-48c-13.233 0-24 10.767-24 24 0 10.429 6.689 19.321 16 22.624v73.376c0 32.72 24.686 59.765 56.407 63.534 2.688 18.339 18.52 32.466 37.593 32.466h260c19.073 0 34.905-14.127 37.593-32.466 31.721-3.769 56.407-30.814 56.407-63.534v-72.528c10.841-2.307 19-11.953 19-23.472zm-163-292c0-6.617 5.383-12 12-12h32c6.617 0 12 5.383 12 12v113.491c-14.728-20.276-33.863-37.153-56-49.191zm-104 44c0-21.238 25.897-32.051 40.973-16.973 4.532 4.532 7.027 10.559 7.027 16.973v1.722c-15.966-2.294-32.009-2.297-48 0zm-112-44c0-6.617 5.383-12 12-12h32c6.617 0 12 5.383 12 12v64.3c-22.137 12.038-41.272 28.915-56 49.191zm-80 284h48v16h-48c-4.411 0-8-3.589-8-8s3.589-8 8-8zm8 104v-72h40v119.333c-22.673-3.819-40-23.591-40-47.333zm360 58c0 12.131-9.869 22-22 22h-260c-12.131 0-22-9.869-22-22 0-83.805 0-163.566 0-234 0-83.813 68.187-152 152-152s152 68.187 152 152zm56-58c0 23.742-17.327 43.514-40 47.333v-119.333h40zm11-88c-15.297 0-35.771 0-51 0v-16h51c4.411 0 8 3.589 8 8s-3.589 8-8 8z"/><path d="m336.5 328h-172c-20.953 0-38 17.047-38 38v80c0 9.925 8.075 18 18 18h212c9.925 0 18-8.075 18-18 0-16.252 0-63.401 0-80 0-20.953-17.047-38-38-38zm-194 38c0-12.131 9.869-22 22-22h172c12.131 0 22 9.869 22 22v10h-216zm216 80c0 1.103-.897 2-2 2h-212c-1.103 0-2-.897-2-2v-54h24v16c0 4.418 3.582 8 8 8s8-3.582 8-8v-16h176z"/><path d="m208.5 248h92c9.925 0 18-8.075 18-18v-44c0-9.925-8.075-18-18-18h-92c-9.925 0-18 8.075-18 18v44c0 9.925 8.075 18 18 18zm-2-62c0-1.103.897-2 2-2h92c1.103 0 2 .897 2 2v44c0 1.103-.897 2-2 2h-92c-1.103 0-2-.897-2-2z"/><path d="m230.5 216h48c4.418 0 8-3.582 8-8s-3.582-8-8-8h-48c-4.418 0-8 3.582-8 8s3.582 8 8 8z"/></g></svg>