<svg id="Layer_1" enable-background="new 0 0 512.031 512.031" height="512" viewBox="0 0 512.031 512.031" width="512" xmlns="http://www.w3.org/2000/svg"><g><path d="m256.016 8.014-64 80-40-16 24 128-95.072-46-.928 38-72-8 48 64-24 24 96 48-96 56 96 40 72-32-8 56 64-40 64 40-8-56 72 32 96-40-96-56 96-48-24-24 48-64-72 8-.929-38-95.071 46 24-128-40 16z" fill="#acebe2"/><path d="m480.016 272.014-96 48 96 56-96 40-72-32 8 56-61.76-38.6c29.5-71.99 45.76-150.8 45.76-233.4 0-38.57-3.54-76.31-10.32-112.91l26.32 32.91 40-16-24 128 95.07-46 .93 38 72-8-48 64z" fill="#98d7ce"/><path d="m503.132 176.063-63.332 7.037-.716-29.281c-.142-5.801-6.242-9.54-11.482-7.006l-80.802 39.096 21.079-112.42c1.161-6.191-4.985-11.247-10.834-8.902l-34.489 13.796-60.293-75.367c-3.2-3.999-9.292-4.001-12.494 0l-60.292 75.366-34.489-13.796c-5.847-2.341-11.996 2.708-10.834 8.902l21.079 112.42-80.803-39.096c-5.222-2.529-11.34 1.188-11.482 7.006l-.717 29.282-63.332-7.037c-6.932-.778-11.487 7.146-7.283 12.751l43.837 58.449-19.094 19.094c-3.856 3.856-2.804 10.373 2.079 12.813l82.772 41.387-83.225 48.548c-5.696 3.323-5.14 11.755.954 14.295l96 40c2.029.845 4.316.818 6.326-.074l58.787-26.127-5.955 41.686c-.961 6.721 6.395 11.513 12.16 7.915l51.76-32.351v89.566c0 4.418 3.582 8 8 8s8-3.582 8-8v-89.566c55.966 34.979 52.725 33.566 56 33.566 4.826 0 8.613-4.276 7.919-9.131l-5.955-41.686 58.787 26.127c2.009.892 4.296.919 6.326.074l96-40c6.086-2.536 6.657-10.968.954-14.295l-83.225-48.548 82.772-41.387c4.877-2.437 5.939-8.953 2.079-12.813l-19.094-19.094 43.837-58.449c4.193-5.591-.33-13.521-7.285-12.75zm-53.516 67.151c-2.389 3.185-2.072 7.642.743 10.457l16.151 16.151-86.072 43.036c-5.67 2.834-5.945 10.861-.453 14.065l82.103 47.894-77.97 32.487-68.853-30.602c-5.735-2.551-12.057 2.223-11.168 8.441l5.566 38.964-45.646-28.529v-71.141l76.689 34.859c3.999 1.819 8.756.07 10.593-3.973 1.829-4.022.05-8.766-3.972-10.594l-73.18-33.264 29.193-15.455 47.361 7.894c4.338.724 8.477-2.201 9.206-6.576.727-4.358-2.218-8.48-6.576-9.207l-26.687-4.447 69.115-36.591c3.905-2.067 5.395-6.908 3.327-10.813s-6.909-5.396-10.813-3.327l-64.977 34.4 11.876-23.751c1.976-3.952.374-8.758-3.578-10.733-3.952-1.976-8.758-.374-10.733 3.577l-21.894 43.788-34.951 18.503v-71.907l30.247-37.809c2.76-3.449 2.201-8.484-1.25-11.244-3.449-2.758-8.484-2.201-11.245 1.25l-17.753 22.19v-97.194c0-4.418-3.582-8-8-8s-8 3.582-8 8v97.194l-17.753-22.19c-2.76-3.45-7.793-4.009-11.245-1.25-3.45 2.76-4.009 7.795-1.25 11.244l30.247 37.809v71.907l-34.951-18.503-21.894-43.788c-1.975-3.95-6.78-5.552-10.733-3.577-3.952 1.976-5.554 6.781-3.578 10.733l11.876 23.751-64.977-34.4c-3.904-2.066-8.746-.577-10.813 3.327-2.067 3.905-.578 8.746 3.327 10.813l69.115 36.591-26.687 4.447c-4.358.727-7.303 4.849-6.576 9.207.72 4.318 4.797 7.302 9.206 6.576l47.361-7.894 29.193 15.455-73.18 33.264c-4.022 1.828-5.801 6.571-3.972 10.594 1.828 4.021 6.57 5.799 10.593 3.973l76.689-34.859v71.141l-45.646 28.529 5.566-38.964c.888-6.215-5.428-10.992-11.168-8.441l-68.853 30.602-77.97-32.487 82.103-47.894c5.495-3.206 5.216-11.232-.453-14.065l-86.072-43.036 16.151-16.151c2.815-2.815 3.132-7.272.743-10.457l-36.904-49.207 53.622 5.958c4.66.516 8.766-3.068 8.881-7.756l.625-25.585 83.893 40.591c5.882 2.848 12.559-2.215 11.347-8.676l-21.317-113.69 26.483 10.593c3.273 1.311 7.016.321 9.218-2.43l57.753-72.191 57.753 72.191c2.202 2.752 5.945 3.741 9.218 2.43l26.483-10.593-21.317 113.69c-1.206 6.429 5.433 11.537 11.347 8.676l83.893-40.591.625 25.585c.114 4.686 4.22 8.274 8.881 7.756l53.622-5.958z"/></g></svg>