<svg id="Layer_1" enable-background="new 0 0 512 512" height="512" viewBox="0 0 512 512" width="512" xmlns="http://www.w3.org/2000/svg"><g><path d="m432.003 436v48c0 11.05-8.95 20-20 20h-216c-11.05 0-20-8.95-20-20v-48c0-9.68 6.87-17.75 16-19.6 2.935-.591-11.434-.4 220-.4 11.043 0 20 8.943 20 20z" fill="#acebe2"/><path d="m432.003 436v48c0 11.05-8.95 20-20 20h-40c11.05 0 20-8.95 20-20v-48c0-9.68-6.87-17.75-16-19.6-3.403-.685-7.115-.4 36-.4 11.043 0 20 8.943 20 20z" fill="#98d7ce"/><path d="m432.003 104v230.03c0 12.42-2.89 24.67-8.45 35.78-5.649 11.307-7.55 13.891-7.55 19.83v26.76c-1.29-.26-2.63-.4-4-.4-230.994 0-217.066-.191-220 .4v-35.82c0-7.99-3.18-15.65-8.85-21.28-24.51-24.34-91.43-90.78-91.43-90.78-7.82-7.81-11.72-18.05-11.72-28.28 0-35.293 42.987-53.583 68.28-28.29l27.72 27.72v-159.67c0-28.594 34.658-42.602 54.63-22.63 5.79 5.79 9.37 13.79 9.37 22.63v-40c0-28.594 34.658-42.602 54.63-22.63 5.79 5.79 9.37 13.79 9.37 22.63v32c0-28.594 34.658-42.602 54.63-22.63 5.79 5.79 9.37 13.79 9.37 22.63v32c0-28.594 34.658-42.602 54.63-22.63 5.79 5.79 9.37 13.79 9.37 22.63z" fill="#f79caf"/><path d="m432.003 104v230.03c0 12.42-2.89 24.67-8.45 35.78-5.649 11.307-7.55 13.891-7.55 19.83v26.76c-2.682-.54-.925-.4-32-.4 0-35.664-1.681-27.711 7.55-46.19 5.56-11.11 8.45-23.36 8.45-35.78v-230.03c0-11.816-6.42-22.199-16-27.72 21.351-12.329 48 3.161 48 27.72z" fill="#e3889b"/><path d="m425.27 384.273c7.137-14.273 14.733-27.534 14.733-50.241v-230.032c0-33.068-37.916-51.604-64-31.978 0-33.119-37.932-51.614-64-32 0-22.147-18.004-40.022-40-40.022-22.056 0-40 17.944-40 40v8.022c-26.116-19.65-64-1.059-64 31.978v140.356l-14.063-14.063c-18.749-18.75-49.111-18.764-67.869-.004-18.598 18.574-18.938 48.979.017 67.907 0 .001 66.92 66.439 91.425 90.78 4.186 4.158 6.491 9.699 6.491 15.604v30.127c-9.451 4.502-16 14.146-16 25.293v48c0 15.439 12.561 28 28 28h216c15.439 0 28-12.561 28-28v-48c0-11.147-6.549-20.791-16-25.293-.001-21.558-.478-22.945 1.266-26.434zm-327.893-121.415c-12.503-12.486-12.512-32.752.004-45.251 12.503-12.504 32.74-12.507 45.246 0l26.553 26.553c4.098 6.708 14.824 4.239 14.824-4.488 0-23.671 0-135.743 0-159.672 0-13.233 10.767-24 24-24s24 10.767 24 24v128c0 4.418 3.582 8 8 8s8-3.582 8-8c0-18.036 0-147.806 0-168 0-13.233 10.767-24 24-24s24 10.767 24 24v168c0 4.418 3.582 8 8 8s8-3.582 8-8c0-21.657 0-121.364 0-136 0-13.233 10.767-24 24-24s24 10.767 24 24v136c0 4.418 3.582 8 8 8s8-3.582 8-8v-104c0-13.233 10.767-24 24-24s24 10.767 24 24v230.032c0 19.158-6.785 30.567-13.044 43.085-3.613 7.226-2.956 10.748-2.956 30.883h-208v-27.42c0-10.198-3.983-19.771-11.215-26.955-24.502-24.337-91.404-90.759-91.412-90.767zm326.626 221.142c0 6.617-5.383 12-12 12h-216c-6.617 0-12-5.383-12-12v-48c0-6.617 5.383-12 12-12h216c6.617 0 12 5.383 12 12z"/><path d="m208.003 440c-4.418 0-8 3.582-8 8v24c0 4.418 3.582 8 8 8s8-3.582 8-8v-24c0-4.418-3.581-8-8-8z"/><path d="m240.003 440c-4.418 0-8 3.582-8 8v24c0 4.418 3.582 8 8 8s8-3.582 8-8v-24c0-4.418-3.581-8-8-8z"/><path d="m272.003 440c-4.418 0-8 3.582-8 8v24c0 4.418 3.582 8 8 8s8-3.582 8-8v-24c0-4.418-3.581-8-8-8z"/><path d="m304.003 440c-4.418 0-8 3.582-8 8v24c0 4.418 3.582 8 8 8s8-3.582 8-8v-24c0-4.418-3.581-8-8-8z"/><path d="m336.003 440c-4.418 0-8 3.582-8 8v24c0 4.418 3.582 8 8 8s8-3.582 8-8v-24c0-4.418-3.581-8-8-8z"/><path d="m368.003 440c-4.418 0-8 3.582-8 8v24c0 4.418 3.582 8 8 8s8-3.582 8-8v-24c0-4.418-3.581-8-8-8z"/><path d="m400.003 440c-4.418 0-8 3.582-8 8v24c0 4.418 3.582 8 8 8s8-3.582 8-8v-24c0-4.418-3.581-8-8-8z"/></g></svg>