<svg id="Layer_1" enable-background="new 0 0 512.011 512.011" height="512" viewBox="0 0 512.011 512.011" width="512" xmlns="http://www.w3.org/2000/svg"><g><path d="m385.271 469.456-17.27 34.549h-320l-17.27-34.549 177.27-269.451z" fill="#f3d4b7"/><path d="m385.271 469.456-17.27 34.549h-41l17.27-34.549-136.27-207.131v-62.32z" fill="#e1c3a7"/><path d="m208.001 360.005 56 144 40-40z" fill="#b59f89"/><path d="m208.001 360.005-56 144-40-40z" fill="#b59f89"/><path d="m487.699 301.347c22.71-36.839-3.584-85.342-47.698-85.342-44.139 0-70.391 48.53-47.698 85.342-36.487 40.771-7.891 106.658 47.698 106.658 55.593 0 84.183-65.889 47.698-106.658z" fill="#acebe2"/><path d="m440.001 408.005c-7.14 0-13.83-1.09-20-3.07 41.86-13.44 59.49-68.06 27.7-103.59 19.01-30.84 3.68-69.85-27.7-81.74 6.11-2.31 12.82-3.6 20-3.6 44.11 0 70.41 48.5 47.7 85.34 36.48 40.77 7.89 106.66-47.7 106.66z" fill="#98d7ce"/><path d="m304.001 116.005c0 19.88 16.12 36 36 36h116c17.67 0 32-14.33 32-32 0-20.931-19.782-36.205-40.02-30.99.648-21.989-20.315-37.797-41.01-31.72-8.04-10.51-20.72-17.29-34.97-17.29-23.64 0-42.92 18.64-43.95 42.03-14.01 4.93-24.05 18.28-24.05 33.97z" fill="#e2e0e0"/><path d="m32.001 84.005c0 19.88 16.12 36 36 36h116c17.67 0 32-14.33 32-32 0-20.931-19.782-36.205-40.02-30.99.648-21.989-20.315-37.797-41.01-31.72-8.04-10.51-20.72-17.29-34.97-17.29-23.64 0-42.92 18.64-43.95 42.03-14.01 4.93-24.05 18.28-24.05 33.97z" fill="#e2e0e0"/><path d="m216.001 88.005c0 12.77-7.48 23.8-18.3 28.93 9.732-24.102-12.187-49.5-37.72-42.92.651-22.099-20.412-37.768-41.01-31.72-13.76-17.988-38.78-22.512-57.86-10.87 15.041-28.389 54.379-31.596 73.86-6.13 20.687-6.074 41.658 9.724 41.01 31.72 20.266-5.222 40.02 10.091 40.02 30.99z" fill="#cecccc"/><path d="m488.001 120.005c0 12.77-7.48 23.8-18.3 28.93 9.732-24.102-12.187-49.5-37.72-42.92.651-22.099-20.412-37.768-41.01-31.72-13.76-17.988-38.78-22.512-57.86-10.87 15.041-28.389 54.379-31.596 73.86-6.13 20.687-6.074 41.658 9.724 41.01 31.72 20.266-5.222 40.02 10.091 40.02 30.99z" fill="#cecccc"/><path d="m214.684 195.609c-2.657-4.038-8.3-4.822-11.956-1.61-1.295 1.141 13.228-20.641-201.411 305.61-2.428 3.69-1.404 8.651 2.287 11.08 3.69 2.429 8.651 1.404 11.08-2.287l15.097-22.947 11.064 22.129c1.354 2.71 4.125 4.422 7.155 4.422h320c3.03 0 5.801-1.712 7.155-4.422l11.064-22.129 15.097 22.947c1.537 2.337 4.089 3.604 6.691 3.604 6.269 0 10.204-7.034 6.676-12.397zm37.622 300.396h-88.61l44.305-113.928zm-21.546-99.55 62.149 67.329-25.896 25.896zm-81.772 93.224-25.896-25.896 62.149-67.329zm-109.043-19.674 160.079-243.32.115 130.042-94.017 101.853c-2.912 3.154-2.814 8.047.222 11.083l26.343 26.343h-79.742zm323.111 26h-79.741l26.343-26.343c3.036-3.036 3.134-7.929.222-11.083l-93.741-101.552-.115-130.271 160.032 243.249z"/><path d="m497.333 300.46c21.042-42.352-9.872-92.455-57.332-92.455-47.488 0-78.365 50.121-57.332 92.455-33.665 44.27-6.158 108.925 49.332 115.09l-.001 88.455c0 4.418 3.582 8 8 8s8-3.582 8-8l.001-88.455c55.527-6.168 82.98-70.841 49.332-115.09zm-57.332 99.545c-48.206 0-73.854-57.435-41.737-93.323 2.362-2.64 2.708-6.518.849-9.533-19.452-31.554 3.135-73.144 40.889-73.144 37.683 0 60.387 41.515 40.889 73.144-1.859 3.016-1.514 6.894.849 9.533 32.114 35.888 6.477 93.323-41.739 93.323z"/><path d="m340.001 160.005h116c22.056 0 40-17.944 40-40 0-22.147-18.173-40.407-40.802-39.992-4.155-20.41-23.731-34.815-45.235-31.555-29.591-31.717-83.277-14.999-89.426 28.075-14.866 7.335-24.537 22.601-24.537 39.472 0 24.262 19.738 44 44 44zm-9.295-70.422c3.081-1.084 5.193-3.933 5.337-7.194 1.486-33.721 44.289-46.745 64.574-20.232 2.01 2.629 5.428 3.749 8.607 2.815 15.609-4.582 31.272 7.429 30.76 23.814-.153 5.31 4.836 9.306 9.992 7.977 15.267-3.929 30.024 7.652 30.024 23.243 0 13.233-10.767 24-24 24h-116c-15.439 0-28-12.561-28-28 .001-11.869 7.517-22.487 18.706-26.423z"/><path d="m68.001 128.005h116c22.056 0 40-17.944 40-40 0-22.147-18.173-40.407-40.802-39.992-4.155-20.41-23.731-34.815-45.235-31.555-29.588-31.717-83.277-14.997-89.426 28.075-14.866 7.336-24.537 22.602-24.537 39.473 0 24.261 19.738 43.999 44 43.999zm-9.294-70.424c3.08-1.084 5.192-3.932 5.336-7.194 1.486-33.716 44.29-46.748 64.573-20.23 2.012 2.629 5.429 3.749 8.608 2.815 15.594-4.577 31.262 7.414 30.76 23.791-.168 5.333 4.836 9.327 9.993 8 15.202-3.919 30.023 7.591 30.023 23.243 0 13.233-10.767 24-24 24h-116c-15.439 0-28-12.561-28-28 .001-11.868 7.518-22.487 18.707-26.425z"/></g></svg>