<svg id="Layer_1" enable-background="new 0 0 511.998 511.998" height="512" viewBox="0 0 511.998 511.998" width="512" xmlns="http://www.w3.org/2000/svg"><g><path d="m279.659 67.978c-11.597-4.031-24.468-5.123-37.17-2.71-1.745-4.667-5.451-9.347-8.92-12.95 3.699-14.903 14.152-33.283 22.43-44.32 10.727 14.298 26.671 43.097 23.66 59.98z" fill="#f8e9d2"/><path d="m327.999 135.998c0 45.143-41.089 79.168-85.51 70.73-42.688-8.098-69.06-52.523-54.51-94.39 16.758-48.108 76.758-63.968 115.07-30.84 15.749 13.617 24.95 33.335 24.95 54.5z" fill="#f3d4b7"/><path d="m327.999 135.998c0 47.8-45.848 82.464-91.99 69.19 55.1-16.009 70.045-86.5 27.04-123.69-8.18-7.08-17.36-11.92-26.89-14.69 46.77-13.399 91.84 22.059 91.84 69.19z" fill="#e1c3a7"/><path d="m242.489 65.268c-12.486 2.369-24.065 8.037-33.54 16.23-3.919-3.189-9.334-5.348-14.22-6.77-4.202-14.641-4.402-35.686-2.73-49.58 16.071 6.863 44.367 23.746 50.49 40.12z" fill="#f8e9d2"/><path d="m208.949 81.498c-9.934 8.589-16.979 19.364-20.97 30.84-4.819-.859-10.889.055-15.66 1.23-10.923-10.496-21.651-28.639-27.17-41.57 17.529-2.109 50.073-1.671 63.8 9.5z" fill="#f8e9d2"/><path d="m185.269 149.507c-4.666 1.745-9.346 5.451-12.95 8.92-14.763-3.664-33.089-14.006-44.32-22.43 14.298-10.727 43.097-26.67 59.98-23.66-4.113 11.835-5.078 24.705-2.71 37.17z" fill="#f8e9d2"/><path d="m201.499 183.047c-3.201 3.934-5.358 9.369-6.77 14.22-14.656 4.206-35.682 4.402-49.58 2.73 7.031-16.464 23.812-44.392 40.12-50.49 2.439 12.864 8.284 24.351 16.23 33.54z" fill="#f8e9d2"/><path d="m233.569 219.678c-10.523 10.95-28.697 21.675-41.57 27.17-2.134-17.736-1.638-50.113 9.5-63.8 8.017 9.272 18.538 16.692 30.84 20.97-.859 4.817.054 10.885 1.23 15.66z" fill="#f8e9d2"/><path d="m278.429 219.678c-3.698 14.903-14.212 33.362-22.43 44.32-10.727-14.298-26.671-43.097-23.66-59.98 11.834 4.114 24.709 5.077 37.17 2.71 1.745 4.667 5.451 9.346 8.92 12.95z" fill="#f8e9d2"/><path d="m319.999 246.848c-16.446-7.023-44.391-23.812-50.49-40.12 12.833-2.434 24.323-8.261 33.54-16.23 3.916 3.187 9.33 5.346 14.22 6.77 4.202 14.641 4.402 35.686 2.73 49.58z" fill="#f8e9d2"/><path d="m366.849 199.998c-17.819 2.144-50.152 1.606-63.8-9.5 9.299-8.04 16.702-18.57 20.97-30.84 4.817.859 10.886-.054 15.66-1.23 10.922 10.496 21.651 28.64 27.17 41.57z" fill="#f8e9d2"/><path d="m383.999 135.998c-14.298 10.727-43.097 26.67-59.98 23.66 3.993-11.492 5.144-24.356 2.71-37.17 4.676-1.75 9.353-5.457 12.95-8.92 14.769 3.665 33.099 14.014 44.32 22.43z" fill="#f8e9d2"/><path d="m366.849 71.998c-7.032 16.466-23.814 44.386-40.12 50.49-2.433-12.832-8.262-24.324-16.23-33.54 3.202-3.935 5.359-9.373 6.77-14.22 14.656-4.207 35.682-4.402 49.58-2.73z" fill="#f8e9d2"/><path d="m310.499 88.948c-8.281-9.578-18.909-16.821-30.84-20.97.859-4.817-.054-10.886-1.23-15.66 10.496-10.923 28.642-21.652 41.57-27.17 2.109 17.529 1.67 50.073-9.5 63.8z" fill="#f8e9d2"/><path d="m371.999 299.998s-50.433 1.495-76.125 27.187c-12.162 12.162-9.443 34.056 2.719 46.219 12.162 12.162 34.056 14.881 46.219 2.719 25.691-25.693 27.187-76.125 27.187-76.125z" fill="#acebe2"/><path d="m139.999 275.998s50.433 1.495 76.125 27.187c12.162 12.162 9.443 34.056-2.719 46.219-12.162 12.162-34.056 14.881-46.219 2.719-25.692-25.693-27.187-76.125-27.187-76.125z" fill="#acebe2"/><path d="m213.409 349.408c-9.27 9.26-24.17 13.05-36.12 8.94 26.217-8.013 32.825-40.178 17.83-55.16-14.9-14.9-38.12-21.66-54.99-24.71-.1-1.6-.13-2.48-.13-2.48s50.43 1.5 76.12 27.19c12.17 12.16 9.45 34.05-2.71 46.22z" fill="#98d7ce"/><path d="m343.999 503.998h-176c42.692-64.039 133.285-64.072 176 0z" fill="#b59f89"/><path d="m343.999 503.998h-48c-16.19-24.29-39.26-39.36-64-45.23 40.51-9.621 85.48 5.449 112 45.23z" fill="#a18b76"/><path d="m371.999 299.998s-1.5 50.43-27.19 76.12c-7.87 7.88-19.82 9.52-30.57 6.39 3.92-1.26 7.55-3.37 10.57-6.39 22.42-22.42 26.42-63.67 27.07-73.82 11.71-2.05 20.12-2.3 20.12-2.3z" fill="#98d7ce"/><g fill="#e4d5c1"><path d="m295.999 63.998c0 4.172-.552 6.577-1.38 11.23-4.65-2.97-9.67-5.41-14.96-7.25.859-4.817-.054-10.886-1.23-15.66 3.94-4.1 8.6-7.88 13.34-11.24 2.506 7.308 4.23 15.225 4.23 22.92z"/><path d="m334.439 71.678c-1.466 7.568-3.994 15.385-7.81 21.98-2.03 3.509-3.804 5.493-6.75 9.11-2.59-4.98-5.74-9.61-9.38-13.82 3.202-3.935 5.359-9.373 6.77-14.22 5.47-1.57 11.39-2.52 17.17-3.05z"/><path d="m356.079 119.507c-5.007 5.778-11.142 11.327-17.72 15.12-3.554 2.052-6.032 2.844-10.43 4.49.251-5.207-.13-10.995-1.2-16.63 4.676-1.75 9.353-5.457 12.95-8.92 5.52 1.371 11.12 3.511 16.4 5.94z"/><path d="m350.919 171.768c-7.29 2.499-15.21 4.23-22.92 4.23-4.173 0-6.559-.549-11.23-1.38 2.97-4.65 5.41-9.67 7.25-14.96 4.817.859 10.886-.054 15.66-1.23 4.1 3.94 7.88 8.599 11.24 13.34z"/><path d="m320.319 214.448c-7.471-1.461-15.33-3.973-21.98-7.82-3.434-1.967-5.527-3.831-9.11-6.75 4.98-2.59 9.61-5.74 13.82-9.38 3.916 3.187 9.33 5.346 14.22 6.77 1.57 5.47 2.52 11.39 3.05 17.18z"/><path d="m278.429 219.678c-1.37 5.52-3.51 11.12-5.94 16.4-12.965-11.236-16.409-19.568-19.62-28.15 5.152.247 10.936-.117 16.64-1.2 1.745 4.667 5.451 9.346 8.92 12.95z"/><path d="m233.569 219.678c-3.94 4.1-8.6 7.88-13.34 11.24-.84-2.45-1.58-4.92-2.19-7.39-3.401-13.755-1.734-20.722-.66-26.76 4.65 2.97 9.67 5.41 14.96 7.25-.859 4.817.054 10.885 1.23 15.66z"/><path d="m201.499 183.047c-3.201 3.934-5.358 9.369-6.77 14.22-5.47 1.57-11.39 2.52-17.17 3.05 3.483-17.985 9.834-25.287 14.56-31.09 2.59 4.981 5.74 9.61 9.38 13.82z"/><path d="m185.269 149.507c-4.666 1.745-9.346 5.451-12.95 8.92-5.52-1.37-11.12-3.51-16.4-5.94 6.283-7.25 14.759-14.61 23.75-17.97l4.4-1.65c-.249 5.183.123 10.972 1.2 16.64z"/><path d="m195.229 97.377c-2.97 4.65-5.41 9.67-7.25 14.96-4.819-.859-10.889.055-15.66 1.23-4.1-3.94-7.88-8.6-11.24-13.34 7.291-2.499 15.211-4.23 22.92-4.23 4.172.001 6.558.549 11.23 1.38z"/><path d="m222.769 72.118c-4.98 2.59-9.61 5.74-13.82 9.38-3.919-3.189-9.334-5.348-14.22-6.77-1.57-5.47-2.52-11.39-3.05-17.18 7.473 1.461 15.33 3.973 21.98 7.82 3.467 1.994 5.512 3.819 9.11 6.75z"/><path d="m259.129 64.067c-5.152-.247-10.937.117-16.64 1.2-1.745-4.667-5.451-9.347-8.92-12.95 1.37-5.52 3.51-11.12 5.94-16.4 12.642 11.023 16.151 18.88 19.62 28.15z"/></g><path d="m388.8 129.598c-.808-.606-16.72-12.449-35.046-19.799 12.198-15.524 20.056-33.731 20.453-34.66 2.096-4.907-1.116-10.448-6.402-11.084-1.002-.122-20.7-2.415-40.241.377 2.792-19.541.499-39.238.378-40.241-.637-5.294-6.188-8.493-11.084-6.401-.929.396-19.135 8.254-34.659 20.452-7.351-18.327-19.194-34.239-19.8-35.046-3.197-4.26-9.598-4.265-12.799 0-.606.808-12.449 16.72-19.8 35.046-15.524-12.198-33.73-20.056-34.659-20.452-4.906-2.094-10.449 1.116-11.084 6.401-.12 1.002-2.414 20.7.378 40.241-19.541-2.793-39.239-.5-40.241-.377-5.297.637-8.493 6.188-6.402 11.084.397.928 8.254 19.135 20.453 34.66-18.325 7.35-34.238 19.193-35.046 19.799-4.267 3.2-4.259 9.605 0 12.799.808.606 16.721 12.449 35.046 19.799-12.198 15.524-20.056 33.731-20.453 34.66-2.096 4.907 1.116 10.448 6.402 11.084 10.841 1.317 27.192 1.486 40.241-.378-2.792 19.541-.499 39.239-.378 40.242.638 5.3 6.193 8.49 11.084 6.401.929-.396 19.135-8.254 34.659-20.452 5.877 14.651 14.616 27.749 18.199 32.83v106.102l-23.832-23.833c10.526-15.554 11.142-37.795-2.386-51.323-27.62-27.62-79.355-29.462-81.544-29.526-4.503-.16-8.372 3.563-8.233 8.233.065 2.188 1.907 53.924 29.527 81.545 13.029 13.029 35.423 13.251 51.334 2.396l35.135 35.135v52.979c-33.17 2.342-65.144 19.006-86.656 51.269-3.536 5.304.27 12.438 6.656 12.438h176c6.375 0 10.199-7.125 6.656-12.438-21.101-31.624-52.682-48.87-86.656-51.269v-28.979l35.135-35.135c15.954 10.885 38.341 10.596 51.334-2.396 27.62-27.621 29.462-79.356 29.527-81.545.137-4.6-3.648-8.386-8.233-8.233-2.189.064-53.925 1.906-81.544 29.526-13.497 13.497-12.936 35.734-2.386 51.323l-23.832 23.833c0-16.464 0-118.04 0-130.102 3.583-5.081 12.323-18.179 18.199-32.83 15.524 12.198 33.73 20.056 34.659 20.452 4.899 2.092 10.448-1.111 11.084-6.401.12-1.002 2.414-20.7-.378-40.242 13.093 1.872 29.46 1.688 40.241.378 5.297-.637 8.493-6.188 6.402-11.084-.397-.928-8.254-19.135-20.453-34.66 18.326-7.35 34.238-19.193 35.046-19.799 4.265-3.2 4.257-9.605-.001-12.799zm-215.957 216.867c-16.94-16.94-22.39-46.811-24.097-61.721 14.91 1.707 44.78 7.156 61.721 24.098 7.15 7.149 6.86 19.339 2.065 28.374l-22.876-22.876c-3.124-3.123-8.189-3.123-11.313 0-3.125 3.125-3.125 8.189 0 11.314l22.87 22.87c-9.104 4.84-21.102 5.21-28.37-2.059zm128.688-13.623c16.941-16.941 46.811-22.391 61.721-24.098-1.708 14.91-7.157 44.78-24.097 61.721-7.268 7.267-19.266 6.898-28.369 2.059l22.87-22.87c3.125-3.125 3.125-8.189 0-11.314-3.124-3.123-8.189-3.123-11.313 0l-22.876 22.876c-4.797-9.036-5.085-21.225 2.064-28.374zm-24.5-136.382c-41.375 14.403-85.033-16.373-85.033-60.463 0-40.033 36.423-70.388 76.019-62.871 47.99 9.105 68.765 67.296 36.429 104.688-7.309 8.455-16.677 14.908-27.415 18.646zm77.405-117.295c-5.618 10.543-13.614 23.07-22.758 30.846-2.606-7.635-6.591-15.152-11.317-21.536 1.227-2.293 2.26-4.67 3.139-7.074 10.55-2.331 22.439-2.522 30.936-2.236zm-41.604-41.605c.405 11.922-.249 26.827-4.287 38.115-6.003-5.306-13.481-9.937-20.566-13.026-.083-2.577-.394-5.275-.815-7.675 7.965-7.3 18.164-13.415 25.668-17.414zm-56.833-15.233c6.319 10.128 13.219 23.399 15.345 35.147-14.199-2.855-24.136-.665-24.389-1.075-1.319-2.12-2.998-4.373-4.492-6.152 3.255-10.306 9.035-20.705 13.536-27.92zm-56.833 15.233c10.52 5.606 23.145 13.665 30.846 22.758-7.503 2.556-15.056 6.526-21.536 11.317-2.139-1.138-4.405-2.164-7.074-3.14-2.33-10.548-2.525-22.438-2.236-30.935zm-3.489 45.892c-10.09 11.587-12.577 20.55-13.142 20.572-2.513.084-5.235.405-7.56.81-7.3-7.967-13.416-18.166-17.414-25.67 11.952-.407 26.852.25 38.116 4.288zm-18.202 37.2c-1.567 8.141-1.875 16.28-.974 24.324-2.106 1.291-4.379 2.991-6.252 4.557-10.307-3.254-20.705-9.034-27.921-13.535 10.158-6.338 23.37-13.203 35.147-15.346zm-19.914 72.179c5.628-10.561 13.661-23.131 22.758-30.845 2.582 7.574 6.571 15.126 11.317 21.536-1.201 2.225-2.313 4.811-3.139 7.074-10.549 2.328-22.438 2.521-30.936 2.235zm41.604 41.604c-.406-11.914.246-26.845 4.288-38.115 6.036 5.331 13.5 9.945 20.566 13.026.076 2.512.386 5.221.815 7.675-7.965 7.3-18.165 13.416-25.669 17.414zm128.682 261.563h-143.697c38.362-42.718 105.434-42.607 143.697 0zm-70.861-247.933c-.717-.089-1.24-.091-1.976 0-5.947-9.758-12.332-22.331-14.357-33.543 14.116 2.837 24.128.659 24.395 1.083 1.328 2.133 2.887 4.231 4.486 6.143-3.021 9.566-8.217 19.21-12.548 26.317zm55.845-13.622c-10.6-5.644-23.097-13.649-30.845-22.766 7.811-2.676 15.206-6.639 21.536-11.317 2.321 1.233 4.682 2.267 7.074 3.14 2.331 10.55 2.525 22.445 2.235 30.943zm3.491-45.9c11.018-12.663 12.337-20.541 13.141-20.572 2.5-.082 5.221-.403 7.56-.81 7.302 7.969 13.419 18.172 17.418 25.677-11.992.411-26.928-.266-38.119-4.295zm18.2-37.2c1.47-7.677 1.934-15.76.974-24.325 2.095-1.307 4.146-2.788 6.253-4.556 10.311 3.255 20.71 9.037 27.927 13.54-10.142 6.332-23.349 13.191-35.154 15.341z"/></g></svg>