<svg id="Layer_1" enable-background="new 0 0 511.975 511.975" height="512" viewBox="0 0 511.975 511.975" width="512" xmlns="http://www.w3.org/2000/svg"><g><path d="m463.992 185.975v204c0 27.61-22.39 50-50 50h-62v-40h52c11.05 0 20-8.95 20-20v-184c0-11.05-8.95-20-20-20h-52v-40h62c27.61 0 50 22.39 50 50z" fill="#f3d4b7"/><path d="m463.992 185.975v204c0 27.61-22.39 50-50 50h-32c27.61 0 50-22.39 50-50v-204c0-27.61-22.39-50-50-50h32c27.61 0 50 22.39 50 50z" fill="#e1c3a7"/><path d="m367.952 73.855c-1.348 35.772-40.751 57.761-71.96 39.68-11.085 6.421-23.898 7.927-35.55 5.03-6.33-1.56-12.45 3.18-12.45 9.69v11.27c0 10.43-7.81 19.47-18.2 20.37-11.86 1.04-21.8-8.28-21.8-19.92v-24c0-5.49-2.218-10.498-5.86-14.14-12.503-12.502-34.14-3.754-34.14 14.14v55.55c0 10.43-7.81 19.47-18.2 20.37-11.86 1.04-21.8-8.28-21.8-19.92v-32.67c0-9.35-9.01-16.13-17.96-13.42-30.452 9.286-60.813-13.177-62-44.01-1.144-29.554 24.415-53.303 54.16-49.49 19.392-34.291 69.561-31.926 85.63 4.03 15.485-7.162 33.688-5.622 47.76 4.3 15.309-17.795 40.734-21.698 60.41-10.3 32.31-18.717 73.42 5.381 71.96 43.44z" fill="#e2e0e0"/><path d="m367.952 73.855c-1.205 31.971-33.549 54.254-63.99 43.36 5.81-2.07 11.11-5.23 15.66-9.23 27.692-24.342 18.736-69.118-15.61-81.27 31.75-11.243 65.247 13.077 63.94 47.14z" fill="#cecccc"/><path d="m351.992 473.975c0 16.57-13.43 30-30 30h-228c-16.57 0-30-13.43-30-30 0-375.461-.188-357.995.34-358.01 12.865 11.342 30.144 14.664 45.7 9.92 8.95-2.71 17.96 4.07 17.96 13.42v32.67c0 11.64 9.94 20.96 21.8 19.92 10.39-.9 18.2-9.94 18.2-20.37 0-60.497-.09-56.422.21-58.44 1.388-9.592 9.647-17.11 19.79-17.11 9.716 0 17.771 6.932 19.6 16.01.534 2.649.4 1.392.4 27.99 0 11.64 9.94 20.96 21.8 19.92 10.39-.9 18.2-9.94 18.2-20.37v-11.27c0-6.51 6.12-11.25 12.45-9.69 11.64 2.894 24.45 1.4 35.55-5.03 17.737 10.276 40.084 8.138 55.63-5.55.575-.016.37-17.366.37 365.99z" fill="#f3d4b7"/><path d="m351.992 107.975v366c0 16.57-13.43 30-30 30h-48c16.57 0 30-13.43 30-30v-354c19.427 0 47.292-11.981 48-12z" fill="#e1c3a7"/><g fill="#f8e9d2"><path d="m207.992 439.975c-8.809 0-16-7.136-16-16v-176c0-8.837 7.163-16 16-16 8.809 0 16 7.136 16 16v176c0 8.836-7.163 16-16 16z"/><path d="m287.992 439.975c-8.809 0-16-7.136-16-16v-176c0-8.837 7.163-16 16-16 8.809 0 16 7.136 16 16v176c0 8.836-7.163 16-16 16z"/><path d="m127.992 439.975c8.809 0 16-7.136 16-16v-176c0-8.837-7.163-16-16-16-8.809 0-16 7.136-16 16v176c0 8.836 7.164 16 16 16z"/></g><path d="m223.992 247.975v176c0 12.364-13.424 19.98-24 13.86 4.78-2.76 8-7.94 8-13.86v-176c0-5.855-3.162-11.085-8-13.86 10.522-6.091 24 1.433 24 13.86z" fill="#e4d5c1"/><path d="m303.992 247.975v176c0 12.364-13.424 19.98-24 13.86 4.78-2.76 8-7.94 8-13.86v-176c0-5.855-3.162-11.085-8-13.86 10.522-6.091 24 1.433 24 13.86z" fill="#e4d5c1"/><path d="m143.992 247.975v176c0 12.364-13.424 19.98-24 13.86 4.78-2.76 8-7.94 8-13.86v-176c0-5.92-3.22-11.1-8-13.86 10.541-6.102 24 1.462 24 13.86z" fill="#e4d5c1"/><path d="m413.992 127.975h-54v-16.928c21.163-21.651 21.41-56.019.354-77.9-17.566-18.252-43.683-21.582-64.354-11.764-20.325-9.654-44.708-6.253-61.667 9.172-13.379-7.167-28.913-8.388-42.768-4.123-21.199-34.097-70.486-35.527-93.541-2.418-15.467-.597-30.896 5.195-42.386 17.14-21.016 21.846-20.829 56.212.362 77.896v354.925c0 20.953 17.047 38 38 38h228c20.953 0 38-17.047 38-38v-26h54c31.981 0 58-26.019 58-58v-204c0-31.982-26.018-58-58-58zm-54 56h44c6.617 0 12 5.383 12 12v184c0 6.617-5.383 12-12 12h-44zm-292.831-131.73c8.789-9.135 21.143-13.573 34.016-11.925 3.224.412 6.378-1.168 7.979-3.997 16.165-28.588 57.991-26.567 71.362 3.354.873 1.954 2.492 3.477 4.496 4.228 6.205 2.326 8.356-3.931 22.978-3.931 8.281 0 16.227 2.517 22.98 7.278 3.368 2.376 7.987 1.803 10.674-1.32 12.736-14.805 33.93-18.099 50.335-8.596 2.48 1.436 5.539 1.436 8.02 0 26.92-15.593 61.174 4.465 59.956 36.211 0 28.136-33.064 48.642-59.956 33.064-2.48-1.436-5.539-1.436-8.02 0-8.922 5.168-19.58 6.683-29.625 4.185-11.384-2.805-22.365 5.76-22.365 17.457v11.269c0 6.424-4.787 11.873-10.898 12.406-7.199.617-13.102-4.984-13.102-11.954v-24c0-7.476-2.913-14.506-8.204-19.798-14.143-14.14-38.303-9.344-45.773 9.359-2.689 6.646-2.023 4.522-2.023 65.986 0 10.711-12.303 16.456-20.104 9.308-2.512-2.302-3.896-5.447-3.896-8.855v-32.67c0-12.59-10.304-22.028-21.891-22.028-6.502 0-9.391 3.065-19.71 2.664-34.04-1.315-51.229-42.745-27.229-67.695zm276.831 421.73c0 12.131-9.869 22-22 22h-228c-12.131 0-22-9.869-22-22v-343.452c13.073 6.259 27.522 6.935 40.358 3.019 3.822-1.156 7.642 1.78 7.642 5.764v32.67c0 7.833 3.312 15.36 9.085 20.651 18.074 16.564 46.915 3.415 46.915-21.104v-55.548c0-6.57 5.282-12 12-12 6.627 0 12 5.373 12 12v24c0 7.833 3.312 15.36 9.085 20.651 18.074 16.564 46.915 3.415 46.915-21.104 0-12.252-.253-12.028.753-12.817 1.814-1.426 3.748 1.27 15.247 1.27 8.317 0 16.527-1.859 23.998-5.407 14.677 6.979 32.339 7.448 48.002-.05zm112-84c0 23.159-18.841 42-42 42h-54v-24h44c15.439 0 28-12.561 28-28v-184c0-15.439-12.561-28-28-28h-44v-24h54c23.159 0 42 18.841 42 42z"/><path d="m207.992 223.975c-13.233 0-24 10.767-24 24v176c0 13.233 10.767 24 24 24s24-10.767 24-24v-176c0-13.234-10.767-24-24-24zm8 200c0 4.411-3.589 8-8 8s-8-3.589-8-8v-176c0-4.411 3.589-8 8-8s8 3.589 8 8z"/><path d="m287.992 223.975c-13.233 0-24 10.767-24 24v176c0 13.233 10.767 24 24 24s24-10.767 24-24v-176c0-13.234-10.767-24-24-24zm8 200c0 4.411-3.589 8-8 8s-8-3.589-8-8v-176c0-4.411 3.589-8 8-8s8 3.589 8 8z"/><path d="m127.992 223.975c-13.233 0-24 10.767-24 24v176c0 13.233 10.767 24 24 24s24-10.767 24-24v-176c0-13.234-10.767-24-24-24zm8 200c0 4.411-3.589 8-8 8s-8-3.589-8-8v-176c0-4.411 3.589-8 8-8s8 3.589 8 8z"/></g></svg>