<svg id="Layer_1" enable-background="new 0 0 512 512" height="512" viewBox="0 0 512 512" width="512" xmlns="http://www.w3.org/2000/svg"><g><path d="m396 356s-50.433 1.495-76.125 27.187c-12.162 12.162-9.443 34.056 2.719 46.219 12.162 12.162 34.056 14.881 46.219 2.719 25.692-25.692 27.187-76.125 27.187-76.125z" fill="#acebe2"/><path d="m396 356s-1.5 50.43-27.19 76.12c-7.87 7.88-19.82 9.52-30.57 6.39 3.92-1.26 7.55-3.37 10.57-6.39 22.42-22.42 26.42-63.67 27.07-73.82 11.71-2.05 20.12-2.3 20.12-2.3z" fill="#98d7ce"/><path d="m372 129s-50.433 1.495-76.125 27.187c-12.162 12.162-9.443 34.056 2.719 46.219 12.162 12.162 34.056 14.881 46.219 2.719 25.692-25.692 27.187-76.125 27.187-76.125z" fill="#acebe2"/><path d="m372 129s-1.5 50.43-27.19 76.12c-7.87 7.88-19.82 9.52-30.57 6.39 3.92-1.26 7.55-3.37 10.57-6.39 22.42-22.42 26.42-63.67 27.07-73.82 11.71-2.05 20.12-2.3 20.12-2.3z" fill="#98d7ce"/><path d="m100 220s50.433-1.495 76.125-27.187c12.162-12.162 9.443-34.056-2.719-46.219-12.162-12.162-34.056-14.881-46.219-2.719-25.692 25.692-27.187 76.125-27.187 76.125z" fill="#acebe2"/><path d="m176.12 192.81c-25.69 25.69-76.12 27.19-76.12 27.19s.03-1.1.17-3.06c16.54-3.29 37.93-10.11 51.95-24.13 14.55-14.538 8.858-45.784-16.24-54.63 12.16-4.93 27.89-1.22 37.53 8.41 12.16 12.17 14.88 34.06 2.71 46.22z" fill="#98d7ce"/><path d="m77.946 326s36.719 34.604 73.053 34.604c17.2 0 30.759-17.404 30.759-34.604s-13.559-34.604-30.759-34.604c-36.334 0-73.053 34.604-73.053 34.604z" fill="#acebe2"/><path d="m181.76 326c0 17.2-13.56 34.6-30.76 34.6-4.5 0-9.01-.53-13.45-1.47 12.93-4.54 22.21-18.9 22.21-33.13s-9.28-28.59-22.21-33.13c4.44-.94 8.95-1.47 13.45-1.47 17.2 0 30.76 17.4 30.76 34.6z" fill="#98d7ce"/><path d="m395.763 348.004c-2.189.064-53.925 1.906-81.544 29.526-13.497 13.497-12.936 35.734-2.386 51.323l-13.489 13.489c-5.055 5.056-1.408 13.658 5.656 13.658 2.047 0 4.095-.781 5.657-2.343l13.478-13.479c15.954 10.885 38.341 10.596 51.334-2.396 27.62-27.621 29.462-79.356 29.527-81.545.138-4.625-3.668-8.381-8.233-8.233zm-32.607 78.464c-7.268 7.267-19.267 6.898-28.369 2.059l22.87-22.87c3.125-3.125 3.125-8.189 0-11.314-3.124-3.123-8.189-3.123-11.313 0l-22.876 22.876c-4.796-9.037-5.084-21.226 2.065-28.374 16.941-16.941 46.811-22.391 61.721-24.098-1.709 14.91-7.158 44.78-24.098 61.721z"/><path d="m274.343 226.657c3.125 3.124 8.189 3.123 11.313 0l13.478-13.479c15.954 10.885 38.341 10.596 51.334-2.396 27.62-27.621 29.462-79.356 29.527-81.545.137-4.62-3.655-8.374-8.233-8.233-2.189.064-53.925 1.906-81.544 29.526-13.497 13.497-12.936 35.734-2.386 51.323l-13.489 13.489c-3.124 3.126-3.124 8.19 0 11.315zm27.189-64.812c16.941-16.941 46.811-22.391 61.721-24.098-1.708 14.91-7.157 44.78-24.097 61.721-7.268 7.267-19.266 6.898-28.369 2.059l22.87-22.87c3.125-3.125 3.125-8.189 0-11.314-3.124-3.123-8.189-3.123-11.313 0l-22.876 22.876c-4.796-9.037-5.085-21.226 2.064-28.374z"/><path d="m197.657 122.343c-3.124-3.123-8.189-3.123-11.313 0l-13.474 13.474c-16.119-10.998-38.487-10.45-51.339 2.401-27.62 27.621-29.462 79.356-29.527 81.545-.138 4.648 3.712 8.401 8.233 8.233 2.189-.064 53.925-1.906 81.544-29.526 13.496-13.496 12.937-35.732 2.386-51.323l13.489-13.489c3.125-3.126 3.125-8.19.001-11.315zm-27.189 64.812c-16.941 16.941-46.811 22.391-61.721 24.098 1.708-14.91 7.157-44.78 24.097-61.721 7.256-7.256 19.236-6.915 28.369-2.059l-22.87 22.87c-5.054 5.055-1.407 13.657 5.657 13.657 2.047 0 4.095-.781 5.657-2.343l22.876-22.876c4.795 9.037 5.084 21.226-2.065 28.374z"/><path d="m150.999 368.604c18.175 0 34.379-15.429 38-34.604h19.001c4.418 0 8-3.582 8-8s-3.582-8-8-8h-19.001c-3.621-19.175-19.825-34.604-38-34.604-39.061 0-76.946 35.279-78.54 36.781-3.351 3.158-3.348 8.489 0 11.645 1.594 1.502 39.479 36.782 78.54 36.782zm0-69.208c10.278 0 18.501 8.745 21.515 18.604h-32.514c-4.418 0-8 3.582-8 8s3.582 8 8 8h32.514c-3.014 9.858-11.237 18.604-21.515 18.604-23.958 0-48.932-17.268-60.682-26.604 11.75-9.336 36.724-26.604 60.682-26.604z"/><path d="m200 472h-160c-13.233 0-24-10.767-24-24s10.767-24 24-24 24 10.767 24 24c0 4.418 3.582 8 8 8s8-3.582 8-8c0-22.056-17.944-40-40-40s-40 17.944-40 40 17.944 40 40 40h160c4.418 0 8-3.582 8-8s-3.582-8-8-8z"/><path d="m232 280c0 22.056 17.944 40 40 40s40-17.944 40-40c0-4.418-3.582-8-8-8s-8 3.582-8 8c0 13.233-10.767 24-24 24s-24-10.767-24-24 10.767-24 24-24h232c4.418 0 8-3.582 8-8s-3.582-8-8-8h-232c-22.056 0-40 17.944-40 40z"/><path d="m72 104h240c4.418 0 8-3.582 8-8s-3.582-8-8-8h-240c-13.233 0-24-10.767-24-24s10.767-24 24-24 24 10.767 24 24c0 4.418 3.582 8 8 8s8-3.582 8-8c0-22.056-17.944-40-40-40s-40 17.944-40 40 17.944 40 40 40z"/><path d="m384 472h-152c-4.418 0-8 3.582-8 8s3.582 8 8 8h152c4.418 0 8-3.582 8-8s-3.582-8-8-8z"/><path d="m128 448h136c4.418 0 8-3.582 8-8s-3.582-8-8-8h-136c-4.418 0-8 3.582-8 8s3.582 8 8 8z"/><path d="m504 392h-72c-4.418 0-8 3.582-8 8s3.582 8 8 8h72c4.418 0 8-3.582 8-8s-3.582-8-8-8z"/><path d="m96 408h32c4.418 0 8-3.582 8-8s-3.582-8-8-8h-32c-4.418 0-8 3.582-8 8s3.582 8 8 8z"/><path d="m504 296h-72c-4.418 0-8 3.582-8 8s3.582 8 8 8h72c4.418 0 8-3.582 8-8s-3.582-8-8-8z"/><path d="m395.94 296.609c-5.32 2.219-6.583 9.068-2.6 13.051 3.127 3.119 8.205 3.111 11.32 0 6.151-6.318-.777-16.347-8.72-13.051z"/><path d="m296 360c0-4.418-3.582-8-8-8h-40c-4.418 0-8 3.582-8 8s3.582 8 8 8h40c4.418 0 8-3.582 8-8z"/><path d="m336 296c-4.418 0-8 3.582-8 8s3.582 8 8 8h32c4.418 0 8-3.582 8-8s-3.582-8-8-8z"/><path d="m152 400c0 4.418 3.582 8 8 8h80c4.418 0 8-3.582 8-8s-3.582-8-8-8h-80c-4.418 0-8 3.582-8 8z"/><path d="m336 96c0 4.418 3.582 8 8 8h104c4.418 0 8-3.582 8-8s-3.582-8-8-8h-104c-4.418 0-8 3.582-8 8z"/><path d="m184 64h168c4.418 0 8-3.582 8-8s-3.582-8-8-8h-168c-4.418 0-8 3.582-8 8s3.582 8 8 8z"/><path d="m464 200c4.418 0 8-3.582 8-8s-3.582-8-8-8h-64c-4.418 0-8 3.582-8 8s3.582 8 8 8z"/><path d="m416 152c0 4.418 3.582 8 8 8h64c4.418 0 8-3.582 8-8s-3.582-8-8-8h-64c-4.418 0-8 3.582-8 8z"/><path d="m208 192c0 4.418 3.582 8 8 8h40c4.418 0 8-3.582 8-8s-3.582-8-8-8h-40c-4.418 0-8 3.582-8 8z"/><path d="m256 160c4.418 0 8-3.582 8-8s-3.582-8-8-8h-32c-4.418 0-8 3.582-8 8s3.582 8 8 8z"/><path d="m56 256c0 4.418 3.582 8 8 8h112c4.418 0 8-3.582 8-8s-3.582-8-8-8h-112c-4.418 0-8 3.582-8 8z"/></g></svg>