<svg id="Layer_1" enable-background="new 0 0 512.454 512.454" height="512" viewBox="0 0 512.454 512.454" width="512" xmlns="http://www.w3.org/2000/svg"><g><path d="m24.228 464.231h464v40h-464z" fill="#b59f89"/><path d="m456.228 464.231h32v40h-32z" fill="#a18b76"/><path d="m504.438 188.441c0 16.701-19.399 25.779-32.21 15.32-2.998-2.442 1.511 3.532-59.2-84.57-3.14-4.55-7.47-8.15-12.52-10.39l-128.97-57.32c-10.023-4.449-21.141-4.212-30.62 0-1.084.487-127.481 56.658-128.97 57.32-5.05 2.24-9.38 5.84-12.52 10.39l-54.86 79.61c-3.678 5.945-10.039 9.4-16.84 9.4-15.536 0-24.996-17.302-16.57-30.42l59.63-84.21c6.18-8.73 14.59-15.66 24.34-20.05 141.407-63.623 134.838-61.353 145.46-63.63 15.495-3.329 31.694-1.632 46.23 4.91l130.51 58.72c9.75 4.39 18.16 11.32 24.34 20.05l59.63 84.21c2.12 3.3 3.14 6.999 3.14 10.66z" fill="#e2e0e0"/><path d="m504.438 188.441c0 16.378-18.815 25.616-31.74 15.68 8.174-6.248 10.15-17.7 4.6-26.34l-59.63-84.21c-6.18-8.73-14.59-15.66-24.34-20.05-139.046-62.561-135.516-62.102-149.1-64.31 14.336-2.359 29.176-.447 42.59 5.59l130.51 58.72c9.75 4.39 18.16 11.32 24.34 20.05l59.63 84.21c2.12 3.3 3.14 6.999 3.14 10.66z" fill="#cecccc"/><path d="m472.228 203.76v260.47h-432v-260.47c2.998-2.442-1.511 3.532 59.2-84.57 3.14-4.55 7.47-8.15 12.52-10.39l128.97-57.32c9.753-4.33 20.853-4.335 30.62 0l128.97 57.32c5.05 2.24 9.38 5.84 12.52 10.39 60.718 88.111 56.198 82.126 59.2 84.57z" fill="#f79caf"/><path d="m472.228 203.76v260.47h-48v-260.47c-2.998-2.442 1.511 3.532-59.2-84.57-3.14-4.55-7.47-8.15-12.52-10.39-142.53-63.343-112.589-56.871-111.59-57.32 7.102-3.154 15.15-4.114 23.13-2.43 5.541 1.186-4.25-2.788 136.46 59.75 5.05 2.24 9.38 5.84 12.52 10.39 60.718 88.111 56.198 82.126 59.2 84.57z" fill="#e3889b"/><path d="m152.228 304.231h104v160h-104z" fill="#e2e0e0"/><path d="m208.228 304.231h48v160h-48z" fill="#cecccc"/><g fill="#e2e0e0"><path d="m256.228 304.231h104v160h-104z"/><path d="m96.228 208.231h56v56h-56z"/><path d="m360.228 208.231h56v56h-56z" transform="matrix(-1 0 0 -1 776.456 472.461)"/></g><path d="m392.228 208.231h24v56h-24z" fill="#cecccc"/><path d="m128.228 208.231h24v56h-24z" fill="#cecccc"/><circle cx="256.228" cy="160.231" fill="#e2e0e0" r="48"/><path d="m304.228 160.231c0 33.273-33.001 56.244-64 45.27 18.64-6.59 32-24.37 32-45.27s-13.36-38.68-32-45.27c30.995-10.973 64 11.992 64 45.27z" fill="#cecccc"/><path d="m312.228 304.231h48v160h-48z" fill="#cecccc"/><path d="m508.029 173.459c-.15-.234 2.596 3.652-59.828-84.514-7.002-9.889-16.543-17.744-27.593-22.716l-130.507-58.729c-21.552-9.694-46.158-9.711-67.747.001l-130.505 58.728c-11.051 4.973-20.592 12.828-27.594 22.717-63.532 89.731-59.68 84.282-59.828 84.514-12.835 19.967 4.009 46.248 27.801 42.364v240.408h-8c-4.418 0-8 3.582-8 8v40c0 4.418 3.582 8 8 8h464c4.418 0 8-3.582 8-8v-40c0-4.418-3.582-8-8-8h-8v-240.407c23.819 3.885 40.622-22.421 27.801-42.366zm-27.801 322.772h-448v-24h448zm-232-58.989-34.458-53.012 34.458-53.012zm16-106.023 34.458 53.012-34.458 53.012zm-22.742 125.012h-74.516l37.258-57.32zm66.742-57.32 37.258 57.32h-74.516zm44 38.331-34.458-53.012 34.458-53.012zm-44-67.692-37.258-57.32h74.516zm-104 0-37.258-57.32h74.516zm-9.542 14.681-34.458 53.012v-106.024zm173.542 72c0-164.736.453-153.169-.949-155.78-1.31-2.449-3.907-4.134-6.821-4.208-.572-.018-208.364-.031-208.983.026-3.657.336-6.925 3.26-7.218 7.4-.044.621-.028 56.685-.028 152.562h-96v-249.072c1.875-2.049-3.125 4.967 57.791-83.429 2.301-3.339 5.477-5.974 9.181-7.621l128.966-57.319c7.681-3.413 16.43-3.419 24.123 0l128.966 57.318c3.705 1.647 6.881 4.282 9.182 7.62 60.946 88.441 55.924 81.39 57.791 83.43v249.072h-96.001zm123.51-258.383c-5.499 4.126-13.392 2.685-17.037-3.239-.156-.253 2.589 3.74-55.09-79.959-3.974-5.766-9.457-10.316-15.856-13.162l-128.967-57.319c-11.817-5.252-25.281-5.261-37.119 0l-128.968 57.319c-6.398 2.845-11.882 7.396-15.855 13.162-58.703 85.185-54.936 79.709-55.09 79.958-3.595 5.843-11.463 7.42-17.038 3.238-4.856-3.642-6.12-10.468-2.915-15.604l59.512-84.052c5.354-7.563 12.65-13.569 21.101-17.372l130.504-58.726c17.368-7.815 37.212-7.831 54.616-.001l130.507 58.729c8.449 3.802 15.745 9.809 21.1 17.371l59.512 84.052c3.204 5.136 1.94 11.962-2.917 15.605z"/><path d="m152.228 200.231h-56c-4.418 0-8 3.582-8 8v56c0 4.418 3.582 8 8 8h56c4.418 0 8-3.582 8-8v-56c0-4.418-3.582-8-8-8zm-8 56h-40v-40h40z"/><path d="m416.228 200.231h-56c-4.418 0-8 3.582-8 8v56c0 4.418 3.582 8 8 8h56c4.418 0 8-3.582 8-8v-56c0-4.418-3.582-8-8-8zm-8 56h-40v-40h40z"/><path d="m256.228 104.231c-30.879 0-56 25.121-56 56s25.121 56 56 56 56-25.121 56-56-25.121-56-56-56zm0 96c-22.056 0-40-17.944-40-40s17.944-40 40-40 40 17.944 40 40-17.944 40-40 40z"/></g></svg>