<svg id="Layer_1" enable-background="new 0 0 512 512" height="512" viewBox="0 0 512 512" width="512" xmlns="http://www.w3.org/2000/svg"><g><path d="m436 504h-360c-11.046 0-20-8.954-20-20v-64c0-11.046 8.954-20 20-20h360c11.046 0 20 8.954 20 20v64c0 11.046-8.954 20-20 20z" fill="#f79caf"/><path d="m456 420v64c0 11.05-8.95 20-20 20h-48c11.05 0 20-8.95 20-20v-64c0-11.05-8.95-20-20-20h48c11.05 0 20 8.95 20 20z" fill="#e3889b"/><path d="m440 400h-368l16.492-160.793c8.809-85.895 81.162-151.207 167.508-151.207 85.917 0 158.655 64.888 167.509 151.207z" fill="#f79caf"/><path d="m440 400h-56l-16.49-160.79c-7.87-76.76-66.26-136.57-139.51-148.88 95.444-16.117 185.549 51.722 195.51 148.88z" fill="#e3889b"/><path d="m434.69 348.24c-17.86 1.68-19.56 11.76-40.69 11.76-22.989 0-23.026-12-46.01-12-23 0-23 12-46 12s-23-12-46-12-23 12-46 12c-22.99 0-22.99-12-45.99-12s-23 12-46 12c-21.08 0-22.84-10.08-40.69-11.76 12.26-119.6 11.45-116.77 15.05-131.6 6.77 3.38 12.39 7.36 25.64 7.36 23 0 23-12 46-12s23 12 45.99 12c23 0 23-12 46-12s23 12 46 12 23-12 46-12c23.021 0 23.004 12 46.01 12 13.25 0 18.87-3.98 25.64-7.36 2.588 5.161 5.585 38.95 15.05 131.6z" fill="#acebe2"/><path d="m434.69 348.24c-17.86 1.68-19.56 11.76-40.69 11.76-6.1 0-10.59-.85-14.32-2.09-13.342-130.129-12.427-127.331-16.6-143.56 9.77 3.5 14.46 9.65 30.92 9.65 13.25 0 18.87-3.98 25.64-7.36.297.592 1.859 8.499 2.39 11.63 2.233 17.975-.438-8.249 12.66 119.97z" fill="#98d7ce"/><g fill="#f8e9d2"><path d="m160 312-21.333-32 21.333-32 21.333 32z"/><path d="m352 312 21.333-32-21.333-32-21.333 32z"/><path d="m256 312-21.333-32 21.333-32 21.333 32z"/></g><path d="m302.89 94.63c24.036-36.721-2.042-86.63-46.89-86.63-44.909 0-70.885 49.971-46.89 86.63z" fill="#acebe2"/><path d="m302.89 94.63h-47.76c19.06-29.6 5.78-67.58-23.53-81.15 7.21-3.49 15.43-5.48 24.4-5.48 44.85 0 70.93 49.91 46.89 86.63z" fill="#98d7ce"/><path d="m104.61 283.06c1.763 4.226 6.525 5.967 10.45 4.33 4.194-1.745 5.979-6.494 4.33-10.45-1.971-4.737-7.734-6.35-11.83-3.59-3.175 2.091-4.405 6.218-2.95 9.71z"/><path d="m392.61 283.06c1.745 4.184 6.481 5.985 10.45 4.33 4.155-1.729 5.995-6.456 4.33-10.45-1.958-4.707-7.706-6.369-11.83-3.59-3.148 2.073-4.418 6.187-2.95 9.71z"/><path d="m200.61 283.06c1.745 4.184 6.481 5.985 10.45 4.33 4.155-1.729 5.995-6.456 4.33-10.45-1.958-4.707-7.706-6.369-11.83-3.59-3.148 2.073-4.418 6.187-2.95 9.71z"/><path d="m296.61 283.06c1.745 4.184 6.481 5.985 10.45 4.33 4.155-1.729 5.995-6.456 4.33-10.45-1.958-4.707-7.706-6.369-11.83-3.59-3.148 2.073-4.418 6.187-2.95 9.71z"/><path d="m447.475 394.469-16.009-156.079c-4.463-43.516-24.804-83.625-57.275-112.936-17.532-15.826-37.837-27.804-59.692-35.484 3.612-8.127 5.501-16.946 5.501-25.97 0-35.29-28.71-64-64-64s-64 28.71-64 64c0 9.024 1.889 17.843 5.501 25.97-21.855 7.68-42.16 19.658-59.692 35.484-32.472 29.312-52.813 69.42-57.275 112.936l-16.009 156.079c-9.731 4.392-16.525 14.18-16.525 25.531v64c0 15.439 12.561 28 28 28h360c15.439 0 28-12.561 28-28v-64c0-11.351-6.794-21.139-16.525-25.531zm-363.113-36.592c2.42.864 4.55 1.971 6.939 3.217 6.205 3.237 13.238 6.906 26.699 6.906s20.495-3.669 26.701-6.907c5.453-2.845 9.76-5.093 19.299-5.093 9.54 0 13.847 2.248 19.299 5.093 6.204 3.237 13.235 6.907 26.691 6.907 13.461 0 20.495-3.669 26.701-6.907 5.453-2.845 9.761-5.093 19.299-5.093s13.846 2.248 19.299 5.093c6.206 3.238 13.239 6.907 26.701 6.907s20.495-3.669 26.701-6.907c5.453-2.845 9.761-5.093 19.299-5.093s13.846 2.247 19.299 5.092c6.208 3.238 13.244 6.908 26.711 6.908 13.461 0 20.494-3.669 26.699-6.906 2.389-1.246 4.519-2.354 6.939-3.217l3.5 34.123h-350.276zm12.088-117.854c.404-3.938.949-7.829 1.625-11.67 4.906 2.031 11 3.647 19.926 3.647 13.461 0 20.495-3.669 26.701-6.907 5.452-2.845 9.759-5.093 19.298-5.093 9.54 0 13.847 2.248 19.299 5.093 6.204 3.237 13.235 6.907 26.691 6.907 13.461 0 20.495-3.669 26.701-6.907 5.453-2.845 9.761-5.093 19.299-5.093s13.846 2.248 19.299 5.093c6.206 3.238 13.239 6.907 26.701 6.907s20.495-3.669 26.701-6.907c5.453-2.845 9.761-5.093 19.299-5.093s13.846 2.247 19.299 5.092c6.208 3.238 13.244 6.908 26.711 6.908 8.926 0 15.019-1.615 19.926-3.647.676 3.841 1.221 7.731 1.625 11.67l10.424 101.636c-5.246 1.374-9.125 3.397-12.676 5.249-5.453 2.845-9.76 5.092-19.299 5.092-9.545 0-13.854-2.248-19.311-5.094-6.205-3.237-13.239-6.906-26.699-6.906-13.461 0-20.495 3.669-26.701 6.907-5.453 2.845-9.761 5.093-19.299 5.093s-13.846-2.248-19.299-5.093c-6.206-3.238-13.239-6.907-26.701-6.907s-20.495 3.669-26.701 6.907c-5.453 2.845-9.761 5.093-19.299 5.093-9.532 0-13.837-2.247-19.289-5.091-6.204-3.239-13.238-6.909-26.701-6.909-13.461 0-20.495 3.669-26.701 6.907-5.453 2.845-9.76 5.093-19.299 5.093s-13.846-2.247-19.299-5.092c-3.551-1.853-7.43-3.875-12.676-5.249zm111.55-176.023c0-26.467 21.533-48 48-48s48 21.533 48 48c0 7.459-1.715 14.728-4.986 21.317-13.948-3.501-28.38-5.317-43.014-5.317s-29.066 1.816-43.014 5.317c-3.271-6.589-4.986-13.858-4.986-21.317zm48 32c73.003 0 135.087 48.443 154.285 116.447-4.253 2.075-8.549 3.553-16.285 3.553-9.545 0-13.854-2.248-19.311-5.094-6.205-3.237-13.239-6.906-26.699-6.906-13.461 0-20.495 3.669-26.701 6.907-5.453 2.845-9.761 5.093-19.299 5.093s-13.846-2.248-19.299-5.093c-6.206-3.238-13.239-6.907-26.701-6.907s-20.495 3.669-26.701 6.907c-5.453 2.845-9.761 5.093-19.299 5.093-9.532 0-13.837-2.247-19.289-5.091-6.204-3.239-13.238-6.909-26.701-6.909-13.461 0-20.495 3.669-26.701 6.907-5.453 2.845-9.76 5.093-19.299 5.093-7.736 0-12.032-1.478-16.285-3.553 19.198-68.004 81.282-116.447 154.285-116.447zm192 388c0 6.617-5.383 12-12 12h-360c-6.617 0-12-5.383-12-12v-64c0-6.617 5.383-12 12-12h360c6.617 0 12 5.383 12 12z"/><path d="m153.344 316.438c1.483 2.226 3.981 3.563 6.656 3.563s5.173-1.337 6.656-3.563l21.333-32c1.792-2.687 1.792-6.188 0-8.875l-21.333-32c-1.483-2.226-3.981-3.563-6.656-3.563s-5.173 1.337-6.656 3.563l-21.333 32c-1.792 2.687-1.792 6.188 0 8.875zm6.656-54.016 11.719 17.578-11.719 17.578-11.719-17.578z"/><path d="m345.344 316.438c1.483 2.226 3.981 3.563 6.656 3.563s5.173-1.337 6.656-3.563l21.333-32c1.792-2.687 1.792-6.188 0-8.875l-21.333-32c-1.483-2.226-3.981-3.563-6.656-3.563s-5.173 1.337-6.656 3.563l-21.333 32c-1.792 2.687-1.792 6.188 0 8.875zm6.656-54.016 11.719 17.578-11.719 17.578-11.719-17.578z"/><path d="m249.344 316.438c1.483 2.226 3.981 3.563 6.656 3.563s5.173-1.337 6.656-3.563l21.333-32c1.792-2.687 1.792-6.188 0-8.875l-21.333-32c-1.483-2.226-3.981-3.563-6.656-3.563s-5.173 1.337-6.656 3.563l-21.333 32c-1.792 2.687-1.792 6.188 0 8.875zm6.656-54.016 11.719 17.578-11.719 17.578-11.719-17.578z"/><path d="m256 424c-4.418 0-8 3.582-8 8v40c0 4.418 3.582 8 8 8s8-3.582 8-8v-40c0-4.418-3.582-8-8-8z"/><path d="m304 424c-4.418 0-8 3.582-8 8v40c0 4.418 3.582 8 8 8s8-3.582 8-8v-40c0-4.418-3.582-8-8-8z"/><path d="m352 424c-4.418 0-8 3.582-8 8v40c0 4.418 3.582 8 8 8s8-3.582 8-8v-40c0-4.418-3.582-8-8-8z"/><path d="m400 424c-4.418 0-8 3.582-8 8v40c0 4.418 3.582 8 8 8s8-3.582 8-8v-40c0-4.418-3.582-8-8-8z"/><path d="m208 424c-4.418 0-8 3.582-8 8v40c0 4.418 3.582 8 8 8s8-3.582 8-8v-40c0-4.418-3.582-8-8-8z"/><path d="m160 424c-4.418 0-8 3.582-8 8v40c0 4.418 3.582 8 8 8s8-3.582 8-8v-40c0-4.418-3.582-8-8-8z"/><path d="m112 424c-4.418 0-8 3.582-8 8v40c0 4.418 3.582 8 8 8s8-3.582 8-8v-40c0-4.418-3.582-8-8-8z"/></g></svg>