<svg id="Layer_1" enable-background="new 0 0 511.998 511.998" height="512" viewBox="0 0 511.998 511.998" width="512" xmlns="http://www.w3.org/2000/svg"><g><path d="m295.999 79.998c0 22.091-17.909 40-40 40s-40-17.909-40-40 40-72 40-72 40 49.909 40 72z" fill="#f79caf"/><path d="m343.999 151.998v88h-10c-11.05 0-20 8.95-20 20v8c0 11.04-8.96 20-20 20-11.05 0-20-8.95-20-20v-4c0-13.25-10.75-24-24-24h-14.11c-10.93 0-20.969-6.157-25.89-16-4.9-9.81-14.93-16-25.89-16h-16.11v-56z" fill="#f79caf"/><path d="m343.999 151.998v88h-10c-11.05 0-20 8.95-20 20v7.52c0 10.866-8.451 20.087-19.28 20.47-11.38.4-20.72-8.7-20.72-19.99v-8c0-11.05 8.95-20 20-20 5.52 0 10-4.48 10-10v-78z" fill="#e3889b"/><path d="m343.999 239.998v264h-176v-296h16.11c10.96 0 20.99 6.19 25.89 16 2.45 4.9 6.18 8.9 10.67 11.68 8.769 5.41 15.834 4.32 29.33 4.32 13.25 0 24 10.75 24 24v4c0 17.869 21.65 26.63 34.14 14.14 6.775-6.775 5.86-13.729 5.86-22.14 0-11.05 8.95-20 20-20z" fill="#e2e0e0"/><path d="m343.999 239.998v264h-40v-218.75c6.02-3.58 10-10.27 10-17.73v-7.52c0-11.05 8.95-20 20-20z" fill="#cecccc"/><path d="m273.142 102.855c0 9.468-7.675 17.143-17.143 17.143s-17.143-7.675-17.143-17.143 17.143-30.857 17.143-30.857 17.143 21.389 17.143 30.857z" fill="#f3d4b7"/><path d="m343.999 143.998h-80v-16.679c22.671-3.821 40-23.58 40-47.321 0-24.203-37.483-71.67-41.758-77.003-3.198-3.992-9.283-3.995-12.485 0-4.274 5.333-41.757 52.8-41.757 77.003 0 23.741 17.329 43.499 40 47.321v16.679h-80c-4.418 0-8 3.582-8 8v352c0 4.418 3.582 8 8 8h176c4.418 0 8-3.582 8-8v-352c0-4.418-3.582-8-8-8zm-97.143-41.143c.019-2.555 3.921-9.796 9.143-17.416 5.222 7.621 9.124 14.861 9.143 17.416-.001 5.041-4.102 9.143-9.143 9.143s-9.143-4.102-9.143-9.143zm9.144-81.781c14.333 19.139 31.999 46.734 31.999 58.924 0 7.603-2.67 14.59-7.115 20.086-1.928-11.473-14.552-27.985-18.643-33.089-3.198-3.992-9.283-3.995-12.484 0-4.091 5.105-16.716 21.617-18.644 33.089-4.445-5.496-7.114-12.484-7.114-20.086 0-12.175 17.667-39.777 32.001-58.924zm79.999 348.247-160 29.091v-47.737l160-29.091zm0-64-160 29.091v-47.737l90.102-16.38c1.173 14.368 13.233 25.703 27.898 25.703 15.439 0 28-12.561 28-28v-8c0-6.617 5.383-12 12-12h2zm-160-34.908v-54.415h8.111c7.984 0 15.163 4.437 18.733 11.578 6.298 12.597 18.96 20.422 33.044 20.422h14.111c5.313 0 10.016 2.614 12.928 6.612zm0 144.262 160-29.091v47.738l-160 29.091zm160-254.677v72h-2c-15.439 0-28 12.561-28 28v8c0 6.617-5.383 12-12 12s-12-5.383-12-12v-4c0-17.645-14.355-32-32-32h-14.111c-7.984 0-15.163-4.437-18.733-11.578-6.298-12.597-18.96-20.422-33.044-20.422h-8.111v-40zm-160 336v-17.323l160-29.091v46.414z"/></g></svg>