<svg id="Layer_1" enable-background="new 0 0 512 512" height="512" viewBox="0 0 512 512" width="512" xmlns="http://www.w3.org/2000/svg"><g><path d="m459.505 273.63-54.83 214.78c-2.32 9.11-11.48 15.59-22.05 15.59h-253.24c-10.57 0-19.73-6.48-22.05-15.59l-54.83-214.78c-15.686-61.484 10.393-123.628 63.28-161.59h2.4c8.53 3.49 14.88 7.96 31.15 7.96 26.672 0 26.666-12 53.33-12 26.668 0 26.653 12 53.33 12 26.672 0 26.666-12 53.33-12 26.678 0 26.66 12 53.35 12 16.27 0 22.62-4.47 31.15-7.96h2.4c53.231 38.207 78.838 100.404 63.28 161.59z" fill="#b59f89"/><path d="m459.505 273.63-54.83 214.78c-2.32 9.11-11.48 15.59-22.05 15.59h-48c10.57 0 19.73-6.48 22.05-15.59l54.83-214.78c14.54-57.17-6.86-115.2-53.14-153.74 19.093.988 26.503-4.185 35.46-7.85h2.4c53.23 38.21 78.84 100.4 63.28 161.59z" fill="#a18b76"/><path d="m338.005 416h-164c-16.569 0-30-13.431-30-30v-164c0-16.569 13.431-30 30-30h164c16.569 0 30 13.431 30 30v164c0 16.569-13.431 30-30 30z" fill="#e2e0e0"/><path d="m368.005 222v164c0 16.57-13.43 30-30 30h-48c16.57 0 30-13.43 30-30v-164c0-16.57-13.43-30-30-30h48c16.57 0 30 13.43 30 30z" fill="#cecccc"/><g fill="#f3d4b7"><path d="m288.005 258.48v35.62l-32 18.47-32-18.47v-35.62l32-18.48z"/><path d="m320.005 312.57v36.95l-32 18.48-32-18.48v-36.95l32-18.47z"/><path d="m256.005 312.57v36.95l-32 18.48-32-18.48v-36.95l32-18.47z"/></g><path d="m416.005 105.04c0 1.73-1.491 2.953-3.2 3.02-23.504.908-24.57 11.94-50.13 11.94-26.687 0-26.676-12-53.35-12-26.668 0-26.653 12-53.33 12-26.672 0-26.666-12-53.33-12-26.668 0-26.653 12-53.33 12-25.578 0-26.603-11.031-50.13-11.94-1.707-.067-3.2-1.288-3.2-3.02 0-1.485-1.723.898 28.39-32.98 4.5-5.06 5.99-11.76 4.01-17.99l-6.53-20.58c-4.05-12.77 6.6-25.49 21.37-25.49h225.52c14.77 0 25.42 12.72 21.37 25.49l-6.53 20.58c-1.98 6.23-.49 12.93 4.01 17.99 30.116 33.881 28.39 31.494 28.39 32.98z" fill="#e2e0e0"/><path d="m416.005 105.04c0 1.73-1.49 2.95-3.2 3.02-23.5.91-24.57 11.94-50.13 11.94-14.23 0-20.87-3.41-28.01-6.6 5.7-2.54 11.71-4.93 22.14-5.34 1.71-.07 3.2-1.29 3.2-3.02 0-1.49 1.73.9-28.39-32.98-4.5-5.06-5.99-11.76-4.01-17.99l6.53-20.58c4.05-12.77-6.6-25.49-21.37-25.49h56c14.77 0 25.42 12.72 21.37 25.49l-6.53 20.58c-1.98 6.23-.49 12.93 4.01 17.99 30.12 33.88 28.39 31.49 28.39 32.98z" fill="#cecccc"/><path d="m324.005 305.646-28-16.165v-31c0-2.857-1.524-5.498-3.999-6.928l-32-18.48c-2.476-1.43-5.526-1.43-8.002 0l-32 18.48c-2.475 1.43-3.999 4.07-3.999 6.928v31l-28 16.165c-2.475 1.43-4 4.07-4 6.929v36.95c0 2.858 1.525 5.499 4 6.928 34.345 19.83 33.032 19.548 36 19.548 2.933 0 1.765.218 32-17.238 30.737 17.746 29.095 17.238 32 17.238 2.903 0 .446.979 36-19.548 2.476-1.429 4-4.069 4-6.928v-36.95c0-2.859-1.524-5.5-4-6.929zm-68-56.408 24 13.86v26.382l-24 13.855-24-13.855v-26.382zm-32 109.525-24-13.857v-27.712l24-13.856 24 13.856v27.712zm88-13.858-24 13.857-24-13.857v-27.712l24-13.856 24 13.856z"/><path d="m414.113 115.969c9.157-1.126 12.911-11.615 7.147-18.098l-22.997-25.873c4.402-.019 7.965-3.592 7.965-7.998 0-4.418-3.582-8-8-8h-6.845l6.376-20.085c5.724-18.032-8.896-35.915-28.992-35.915h-225.524c-20.124 0-34.708 17.91-28.992 35.915l6.377 20.085h-6.845c-4.418 0-8 3.582-8 8 0 4.406 3.563 7.979 7.965 7.998l-22.998 25.873c-5.804 6.53-1.931 17.008 7.184 18.101-46.644 40.433-68.279 100.343-53.181 159.636l54.827 214.783c3.252 12.723 15.508 21.609 29.805 21.609h253.24c14.296 0 26.553-8.886 29.806-21.611l54.828-214.785c14.359-56.405-3.975-117.207-53.146-159.635zm-284.612-84.896c-2.522-7.946 4.903-15.073 13.742-15.073h225.523c8.91 0 16.238 7.209 13.742 15.073-7.01 22.082-7.078 21.856-7.505 24.927h-237.996c-.422-3.035-.36-2.417-7.506-24.927zm4.618 40.927h243.773c2.102 3.93 1.68 3.053 24.837 29.106-17.433 3.185-19.86 10.894-40.057 10.894-24.038 0-24.889-12-53.345-12-28.324 0-29.368 12-53.334 12-23.825 0-25.063-12-53.333-12-28.405 0-29.269 12-53.322 12-20.281 0-22.493-7.685-40.058-10.894 23.148-26.04 22.755-25.211 24.839-29.106zm320.817 182.896c-1.471 11.769 1.473-1.476-58.007 231.533-1.418 5.546-7.434 9.571-14.304 9.571h-253.24c-6.871 0-12.886-4.025-14.303-9.568l-54.825-214.777c-14.096-55.358 7.424-113.637 57.469-151.104 10.04 4.448 16.866 7.448 31.613 7.448 28.326 0 29.356-12 53.322-12 23.825 0 25.063 12 53.333 12 28.323 0 29.369-12 53.334-12 23.809 0 25.093 12 53.345 12 13.912 0 20.759-2.638 31.612-7.448 45.148 33.752 66.955 84.041 60.651 134.345z"/><path d="m338.005 184h-164c-20.953 0-38 17.047-38 38v164c0 20.953 17.047 38 38 38h164c20.953 0 38-17.047 38-38v-164c0-20.953-17.047-38-38-38zm22 202c0 12.131-9.869 22-22 22h-164c-12.131 0-22-9.869-22-22v-164c0-12.131 9.869-22 22-22h164c12.131 0 22 9.869 22 22z"/></g></svg>