<svg height="512" viewBox="0 0 512 512" width="512" xmlns="http://www.w3.org/2000/svg"><g id="flat"><path d="m80 365.663a8 8 0 0 1 -8-8v-53.663a8 8 0 0 1 16 0v53.663a8 8 0 0 1 -8 8z" fill="#7a4922"/><path d="m88 304v6.99h-16v-6.99a8 8 0 0 1 16 0z" fill="#7a4922"/><path d="m32 488 24-128 72-48 32-128 104-64 40 40 32 16 24 120 72 40 17.684 72 22.316 8 16 72z" fill="#dcdbd6"/><path d="m129.16 307.37-9.23 69.68a8 8 0 0 1 -3.49 5.61l-21.43 14.28-7.25 29a8 8 0 0 1 -7.75 6.06 8.132 8.132 0 0 1 -1.95-.24 7.994 7.994 0 0 1 -5.82-9.7l8-32a8.037 8.037 0 0 1 3.32-4.72l20.98-13.98 6.35-47.95 17.11-11.41z" fill="#dcdbd6"/><path d="m256 280v32a8 8 0 0 1 -16 0v-27.72l-20.44-13.62a8.033 8.033 0 0 1 -3.56-6.66v-36l-16-12v80a8 8 0 0 1 -16 0v-126.77l16-9.85v36.62l28.8 21.6a8.009 8.009 0 0 1 3.2 6.4v35.72l20.44 13.62a8.033 8.033 0 0 1 3.56 6.66z" fill="#dcdbd6"/><path d="m272 400a16 16 0 0 1 16 16v20a12 12 0 0 0 24 0v-16a12 12 0 0 1 24 0 12 12 0 0 0 24 0v-20l-80-64-23.931 47.862 4.353 8.983a12.945 12.945 0 0 0 11.578 7.155z" fill="#cdccc8"/><path d="m360 400v20a12 12 0 0 1 -24 0 12 12 0 0 0 -24 0v16a12 12 0 0 1 -24 0v-20a16 16 0 0 0 -16-16 12.945 12.945 0 0 1 -11.578-7.155l-4.353-8.983-.069.138-40 24-24 80h192z" fill="#bbbab6"/><path d="m129.16 307.37-9.23 69.68a8 8 0 0 1 -3.49 5.61l-21.43 14.28-7.25 29a8 8 0 0 1 -7.75 6.06 8.132 8.132 0 0 1 -1.95-.24 7.994 7.994 0 0 1 -5.82-9.7l8-32a8.037 8.037 0 0 1 3.32-4.72l20.98-13.98 6.35-47.95 17.11-11.41z" fill="#cdccc8"/><path d="m360 296 17.13 9.52 6.29 34.59 14.24 14.23a7.975 7.975 0 0 1 2.23 4.34l8 48a8 8 0 0 1 -6.57 9.21 8.624 8.624 0 0 1 -1.33.11 8 8 0 0 1 -7.88-6.68l-7.58-45.48-14.19-14.18a8 8 0 0 1 -2.21-4.23z" fill="#cdccc8"/><path d="m256 280v32a8 8 0 0 1 -16 0v-27.72l-20.44-13.62a8.033 8.033 0 0 1 -3.56-6.66v-36l-16-12v80a8 8 0 0 1 -16 0v-126.77l16-9.85v36.62l28.8 21.6a8.009 8.009 0 0 1 3.2 6.4v35.72l20.44 13.62a8.033 8.033 0 0 1 3.56 6.66z" fill="#cdccc8"/><path d="m148 432h-36l-16 16-8 40h64l-16-24z" fill="#bbbab6"/><path d="m240 496a8 8 0 0 1 -8-8v-56a8 8 0 0 1 16 0v56a8 8 0 0 1 -8 8z" fill="#a8a7a3"/><path d="m272 496a8 8 0 0 1 -8-8v-24a8 8 0 0 1 16 0v24a8 8 0 0 1 -8 8z" fill="#a8a7a3"/><path d="m304 496a8 8 0 0 1 -8-8v-16a8 8 0 0 1 16 0v16a8 8 0 0 1 -8 8z" fill="#a8a7a3"/><path d="m336 496a8 8 0 0 1 -8-8v-32a8 8 0 0 1 16 0v32a8 8 0 0 1 -8 8z" fill="#a8a7a3"/><path d="m456 496a8 8 0 0 1 -8-8v-40a8 8 0 0 1 16 0v40a8 8 0 0 1 -8 8z" fill="#7a4922"/><path d="m464 448v14.62a23.878 23.878 0 0 1 -16 0v-14.62a8 8 0 0 1 16 0z" fill="#7a4922"/><path d="m88 304v6.99a32.188 32.188 0 0 1 -16 0v-6.99a8 8 0 0 1 16 0z" fill="#5b3719"/><path d="m448.006 175.131a8 8 0 0 1 -7.161-4.424 4.893 4.893 0 0 0 -7.838-1.271l-3.35 3.35a8 8 0 0 1 -11.314 0l-3.351-3.35a4.893 4.893 0 0 0 -7.837 1.271 8 8 0 0 1 -14.31-7.156 20.889 20.889 0 0 1 31.155-7.419 20.889 20.889 0 0 1 31.155 7.419 8 8 0 0 1 -7.149 11.58z" fill="#dcdbd6"/><path d="m128.006 183.131a8 8 0 0 1 -7.161-4.424 4.893 4.893 0 0 0 -7.838-1.271l-3.35 3.35a8 8 0 0 1 -11.314 0l-3.351-3.35a4.893 4.893 0 0 0 -7.837 1.271 8 8 0 1 1 -14.31-7.156 20.889 20.889 0 0 1 31.155-7.419 20.889 20.889 0 0 1 31.155 7.419 8 8 0 0 1 -7.149 11.58z" fill="#dcdbd6"/><path d="m488.006 135.131a8 8 0 0 1 -7.161-4.424 4.893 4.893 0 0 0 -7.838-1.271l-3.35 3.35a8 8 0 0 1 -11.314 0l-3.351-3.35a4.893 4.893 0 0 0 -7.837 1.271 8 8 0 0 1 -14.31-7.156 20.889 20.889 0 0 1 31.155-7.419 20.889 20.889 0 0 1 31.155 7.419 8 8 0 0 1 -7.149 11.58z" fill="#dcdbd6"/><path d="m96.006 143.131a8 8 0 0 1 -7.161-4.424 4.893 4.893 0 0 0 -7.838-1.271l-3.35 3.35a8 8 0 0 1 -11.314 0l-3.351-3.35a4.893 4.893 0 0 0 -7.837 1.271 8 8 0 1 1 -14.31-7.156 20.889 20.889 0 0 1 31.155-7.419 20.889 20.889 0 0 1 31.155 7.419 8 8 0 0 1 -7.149 11.58z" fill="#dcdbd6"/><circle cx="256" cy="120" fill="#fd9226" r="40"/><g fill="#ffc864"><path d="m256 56a8 8 0 0 1 -8-8v-16a8 8 0 0 1 16 0v16a8 8 0 0 1 -8 8z"/><path d="m256 56a8 8 0 0 1 -8-8v-16a8 8 0 0 1 16 0v16a8 8 0 0 1 -8 8z"/><path d="m213.687 69.752a7.987 7.987 0 0 1 -6.479-3.3l-9.408-12.943a8 8 0 0 1 12.946-9.409l9.405 12.945a8 8 0 0 1 -6.464 12.7z"/><path d="m187.526 105.753a7.985 7.985 0 0 1 -2.473-.394l-15.218-4.944a8 8 0 1 1 4.943-15.215l15.222 4.943a8 8 0 0 1 -2.47 15.61z"/><path d="m172.305 155.2a8 8 0 0 1 -2.47-15.61l15.218-4.944a8 8 0 1 1 4.947 15.211l-15.222 4.943a8.013 8.013 0 0 1 -2.473.4z"/><path d="m339.7 155.2a8.013 8.013 0 0 1 -2.473-.393l-15.227-4.95a8 8 0 1 1 4.943-15.216l15.218 4.944a8 8 0 0 1 -2.47 15.61z"/><path d="m324.474 105.753a8 8 0 0 1 -2.474-15.61l15.222-4.943a8 8 0 0 1 4.943 15.217l-15.218 4.944a7.985 7.985 0 0 1 -2.473.392z"/><path d="m298.313 69.752a8 8 0 0 1 -6.464-12.7l9.405-12.952a8 8 0 0 1 12.946 9.409l-9.405 12.944a7.991 7.991 0 0 1 -6.482 3.299z"/></g><path d="m224 144 8 32 16 8 16 24 40 8 16 32 32 8-16-80-32-16-40-40z" fill="#768753"/><path d="m464 448v14.62a23.878 23.878 0 0 1 -16 0v-14.62a8 8 0 0 1 16 0z" fill="#5b3719"/><path d="m104 250.845v-10.845a24 24 0 0 0 -48 0v10.845a32 32 0 1 0 48 0z" fill="#768753"/><rect fill="#768753" height="64" rx="24" width="48" x="432" y="392"/><path d="m160 416-24 24v32l16 16h40l16-24-16-40z" fill="#cdccc8"/><path d="m136 440 32 16 16-8 8-24-32-8z" fill="#e6e5e0"/><path d="m488 496h-464a8 8 0 0 1 0-16h464a8 8 0 0 1 0 16z" fill="#a8a7a3"/></g></svg>