<svg id="Layer_1" enable-background="new 0 0 512.003 512.003" height="512" viewBox="0 0 512.003 512.003" width="512" xmlns="http://www.w3.org/2000/svg"><g><path d="m287.026 36.684-3.1 4.14c-7.79 10.38-12 23.01-12 36 0 23.12-.23 29.461.7 36.52-10.793-1.752-22.258-1.816-33.4 0 .924-7.668.7-10.726.7-37.45 0-22.7 7.73-44.73 21.91-62.47 2.738-3.434 6.889-5.42 11.3-5.42 6.305 0 9.413 3.429 12.3 6.33 6.02 6.02 6.699 15.54 1.59 22.35z" fill="#b59f89"/><path d="m239.925 85.249s0-85.488-112-66.491c0 0 0 85.488 112 66.491z" fill="#acebe2"/><path d="m391.925 368.004c0 75.44-61.42 136.53-136.97 136-72.22-.51-133.72-61.32-135.01-133.52-.51-28.62 7.83-55.26 22.45-77.38 11.32-17.11 14.95-38.04 11.24-58.21-13.041-71.386 48.621-132.993 118.99-121.55 56.269 9.191 96.648 63.458 85.46 122.23-3.83 20.1.49 40.92 11.7 58.03 14 21.38 22.14 46.94 22.14 74.4z" fill="#f8e9d2"/><path d="m391.925 368.004c0 83.577-74.737 146.879-155.73 134.5 98.309-14.681 147.389-126.741 93.59-208.9-11.21-17.11-15.53-37.93-11.7-58.03 10.98-57.67-27.7-111.01-82.32-121.66 71.658-14.149 136.152 49.014 122.32 121.66-3.83 20.1.49 40.92 11.7 58.03 14 21.38 22.14 46.94 22.14 74.4z" fill="#e4d5c1"/><path d="m239.925 85.254c-16.2 2.75-30.05 3.31-41.9 2.25 2.633-.206 5.341-.478 8.125-.819 5.734-.702 9.667-6.126 8.586-11.801-3.438-18.051-16.821-53.773-68.911-58.38 94.1-7.37 94.1 68.75 94.1 68.75z" fill="#98d7ce"/><path d="m376.476 289.223c-10.226-15.615-13.967-34.137-10.533-52.151 11.521-60.432-27.809-117.593-85.873-130.433-.193-3.491-.145-2.582-.145-29.815 0-11.184 3.693-22.263 10.404-31.206l3.094-4.133c7.449-9.927 6.447-24.031-2.318-32.795l-2.102-2.112c-9.478-9.48-25.074-8.584-33.417 1.851-8.892 11.125-15.435 23.909-19.365 37.467-22.406-37.119-66.536-42.332-109.633-35.025-3.847.653-6.662 3.985-6.662 7.888 0 1.412.309 34.834 27.128 57.487 23.149 19.553 54.959 22.05 84.872 18.269 0 6.843.045 8.66-.143 12.082-57.316 12.522-97.201 68.847-86.012 129.742 3.445 18.754-.122 37.346-10.043 52.35-16.077 24.313-24.3 52.645-23.778 81.934 1.36 76.48 66.17 140.84 142.946 141.379 115.352.649 184.028-127.428 121.58-222.779zm-239.85-263.696c61.175-8.168 88.939 17.832 94.598 52.953-61.168 8.162-88.935-17.822-94.598-52.953zm111.299 50.366c0-20.799 7.159-41.211 20.158-57.474 2.395-2.995 6.892-3.242 9.592-.542l2.104 2.113c3.183 3.182 3.547 8.294.842 11.898l-3.094 4.133c-8.771 11.687-13.602 26.177-13.602 40.802 0 27.046-.017 25.18.041 27.474-5.266-.377-10.476-.404-16.081-.01.055-2.176.04.584.04-28.394zm7.082 420.108c-67.671-.474-125.857-58.021-127.06-125.664-.464-26.039 6.841-51.222 21.126-72.823 12.214-18.471 16.63-41.224 12.434-64.065-11.967-65.186 43.906-122.588 109.541-112.264.184.037.371.064.558.088 52.972 8.651 88.803 59.387 78.621 112.804-4.215 22.111.354 44.81 12.865 63.913 55.619 84.925-5.791 198.662-108.085 198.011z"/></g></svg>