<svg height="512" viewBox="0 0 512 512" width="512" xmlns="http://www.w3.org/2000/svg"><g id="flat"><path d="m200 72a8 8 0 0 0 -8 8v16a22.416 22.416 0 0 1 -12.208 20.034l-9.908 4.038a83.889 83.889 0 0 0 6.116-31.552v-.52a8 8 0 0 0 -16 0v.52a67.5 67.5 0 0 1 -11.985 38.555l-4.254-17.015a8 8 0 1 0 -15.522 3.88l7.142 28.567-20.432 30.647a8 8 0 1 0 13.313 8.875l21.954-32.929s4.216-4.37 5.638-6.03l30.282-12.341q.283-.117.557-.253a38.331 38.331 0 0 0 21.307-34.476v-16a8 8 0 0 0 -8-8z" fill="#5b3719"/><path d="m88.619 150.507 7.142-28.567a8 8 0 1 0 -15.522-3.88l-4.254 17.015a67.5 67.5 0 0 1 -11.985-38.555v-.52a8 8 0 0 0 -16 0v.52a83.889 83.889 0 0 0 6.116 31.552l-9.908-4.038a22.416 22.416 0 0 1 -12.208-20.034v-16a8 8 0 0 0 -16 0v16a38.331 38.331 0 0 0 21.307 34.474q.273.137.557.253l30.282 12.341c1.422 1.66 23.973 33.533 23.973 33.533a8 8 0 0 0 13.313-8.875z" fill="#5b3719"/><g fill="#7a4922"><path d="m424 232 7.056-7.056a20.468 20.468 0 0 1 20.944-4.944 20.467 20.467 0 0 1 13.789 16.522l3.541 24.791a60.424 60.424 0 0 1 -5.772 35.571 40.8 40.8 0 0 1 -23.591 20.46l-7.967 2.656a155.883 155.883 0 0 1 -8-49.3z"/><path d="m184 328-35.565 47.42a62.172 62.172 0 0 0 -12.435 37.305 62.175 62.175 0 0 0 3.959 21.832l20.041 53.443 24-8-13.183-52.733a39.876 39.876 0 0 1 .856-22.285 39.879 39.879 0 0 1 15.713-20.573l36.614-24.409z"/><path d="m344 352 16 56-24 80h24l35.037-70.074a30 30 0 0 0 2.271-20.692l-13.308-53.234z"/></g><path d="m435.535 353.613a22 22 0 0 1 -6.787-23.858l11.493-34.478a63.3 63.3 0 0 0 -26.5-73.689 63.293 63.293 0 0 0 -46.808-8.216l-72.557 15.547a138.766 138.766 0 0 1 -29.076 3.081h-6.614a130 130 0 0 0 -51.21 10.511l-11.119 4.765a37.859 37.859 0 0 1 -31.845-.637 37.114 37.114 0 0 1 -20.512-33.189v-37.45l-40-8a63.421 63.421 0 0 0 -17.344 57.282l1.344 6.718v27.569a107.061 107.061 0 0 0 14.106 53.117l5.355 9.37a107.055 107.055 0 0 0 33.568 35.963 107.054 107.054 0 0 0 59.386 17.981h.652l14.933 112h32l-8-72 6.667-40h1.333l86.766-6.2c16.756-1.2 25.3-4.49 41.234-9.8l48 40-8 88h32l15.231-86.02a30 30 0 0 0 -10.026-29.793z" fill="#a3612d"/><path d="m163.3 246h-38.44a12.861 12.861 0 0 1 -12.86-12.86v-14.19l7.15 8.48a12.845 12.845 0 0 0 9.83 4.57h19.99a37.034 37.034 0 0 0 14.33 14z" fill="#a3612d"/><path d="m144 176 8 21.333 16 10.667-8 24h-40l-16-64z" fill="#a3612d"/><circle cx="120" cy="200" fill="#5b3719" r="8"/><circle cx="367" cy="295" fill="#eae9e4" r="9"/><circle cx="335" cy="279" fill="#eae9e4" r="9"/><circle cx="369" cy="255" fill="#eae9e4" r="9"/><path d="m172.555 341.756a8.015 8.015 0 0 1 -2.647-.452 80.221 80.221 0 0 1 -45.749-40.931l-6.772-14.085a8 8 0 1 1 14.42-6.934l6.772 14.085a64.187 64.187 0 0 0 36.621 32.761 8 8 0 0 1 -2.646 15.552z" fill="#7a4922"/><path d="m163.3 246h-38.44a12.861 12.861 0 0 1 -12.86-12.86v-14.19l7.15 8.48a12.845 12.845 0 0 0 9.83 4.57h19.99a37.034 37.034 0 0 0 14.33 14z" fill="#7a4922"/></g></svg>