<svg height="512" viewBox="0 0 512 512" width="512" xmlns="http://www.w3.org/2000/svg"><g id="flat"><path d="m456 224-24 24-40-8-24-24-16 16-16-24-24-16-16 16-24 80-24 16-40 88h280v-128z" fill="#cdccc8"/><path d="m352 232-24 24 16.7-34.94h.01z" fill="#cdccc8"/><path d="m287.174 381.852a8.182 8.182 0 0 1 -1.141-.081 8 8 0 0 1 -6.788-9.052l8.836-61.851a7.994 7.994 0 0 1 2.262-4.525l16-16a8 8 0 0 1 11.314 11.314l-14.115 14.114-8.459 59.211a8 8 0 0 1 -7.909 6.87z" fill="#bbbab6"/><path d="m64.006 160a8 8 0 0 1 -7.161-4.424l-8-16a8 8 0 1 1 14.31-7.156l8 16a8 8 0 0 1 -7.149 11.58z" fill="#768753"/><path d="m95.994 160a8 8 0 0 1 -7.149-11.58l8-16a8 8 0 0 1 14.31 7.156l-8 16a8 8 0 0 1 -7.161 4.424z" fill="#768753"/><path d="m79.541 152q-.118 0-.237 0a8 8 0 0 1 -7.764-8.229l.463-16a8 8 0 1 1 15.997.46l-.464 16a8 8 0 0 1 -7.995 7.769z" fill="#768753"/><path d="m143.155 236.422a8 8 0 0 0 -14.31 7.156l8 16a8 8 0 1 0 14.31-7.156z" fill="#768753"/><path d="m187.578 232.845a8 8 0 0 0 -10.733 3.577l-8 16a8 8 0 1 0 14.31 7.156l8-16a8 8 0 0 0 -3.577-10.733z" fill="#768753"/><path d="m160.232 224a7.988 7.988 0 0 0 -8.232 7.769l-.463 16a8 8 0 0 0 7.763 8.231q.119 0 .237 0a8 8 0 0 0 7.992-7.769l.464-16a8 8 0 0 0 -7.761-8.231z" fill="#768753"/><path d="m488 392-136-64-96 64z" fill="#e8a156"/><path d="m24 392v96h464v-96h-280z" fill="#ffb15e"/><path d="m328 392-144-64-160 64z" fill="#f4a95a"/><path d="m160.464 248c-13.453-.251-24.464 11.085-24.464 24.54v15.46a16 16 0 0 1 -16 16 16 16 0 0 1 -16-16v-119.46c0-13.455-11.011-24.791-24.464-24.536a24 24 0 0 0 -23.536 23.996v256h56v-72h26a46 46 0 0 0 46-46v-34a24 24 0 0 0 -23.536-24z" fill="#91a666"/><path d="m80 200a8 8 0 0 1 -8-8v-16a8 8 0 0 1 16 0v16a8 8 0 0 1 -8 8z" fill="#768753"/><path d="m80 240a8 8 0 0 1 -8-8v-8a8 8 0 0 1 16 0v8a8 8 0 0 1 -8 8z" fill="#768753"/><path d="m80 304a8 8 0 0 1 -8-8v-40a8 8 0 0 1 16 0v40a8 8 0 0 1 -8 8z" fill="#768753"/><path d="m408 280 24-32-13.599-2.72z" fill="#bbbab6"/><path d="m352 232-24 24 16.7-34.94h.01z" fill="#bbbab6"/><path d="m448 424h-48l-1.613-8.064c-4.227-21.137-4.83-34.838-1.781-56.177a27.672 27.672 0 0 1 27.394-23.759 27.672 27.672 0 0 1 27.394 23.759c3.049 21.339 2.446 35.04-1.781 56.177z" fill="#91a666"/><path d="m432 337.18v86.82h-16v-86.82a27.709 27.709 0 0 1 16 0z" fill="#91a666"/><path d="m432 337.18v86.82h-16v-86.82a27.709 27.709 0 0 1 16 0z" fill="#768753"/><path d="m424 288-16 16-16-8v12.686a27.315 27.315 0 0 0 8 19.314 27.315 27.315 0 0 0 19.314 8h9.372a27.315 27.315 0 0 0 19.314-8 27.315 27.315 0 0 0 8-19.314v-12.686l-16 8z" fill="#faa6b2"/><path d="m24 416h144a8 8 0 0 1 0 16h-144z" fill="#f4a95a"/><path d="m240 432h-32a8 8 0 0 1 0-16h32a8 8 0 0 1 0 16z" fill="#f4a95a"/><path d="m488 432h-128a8 8 0 0 1 0-16h128z" fill="#f4a95a"/><path d="m272 464h-127.231a8 8 0 0 1 0-16h127.231a8 8 0 0 1 0 16z" fill="#f4a95a"/><path d="m408 464h-80a8 8 0 0 1 0-16h80a8 8 0 0 1 0 16z" fill="#f4a95a"/><path d="m488 464h-43.1a8 8 0 0 1 0-16h43.1z" fill="#f4a95a"/><path d="m99.119 464h-23.311a8 8 0 1 1 0-16h23.311a8 8 0 1 1 0 16z" fill="#f4a95a"/><path d="m320 432h-16a8 8 0 0 1 0-16h16a8 8 0 0 1 0 16z" fill="#f4a95a"/><circle cx="208" cy="104" fill="#fd9226" r="32"/><g fill="#f3be5f"><path d="m208 48a8 8 0 0 1 -8-8v-16a8 8 0 0 1 16 0v16a8 8 0 0 1 -8 8z"/><path d="m208 48a8 8 0 0 1 -8-8v-16a8 8 0 0 1 16 0v16a8 8 0 0 1 -8 8z"/><path d="m162.745 66.745a7.976 7.976 0 0 1 -5.657-2.343l-11.313-11.313a8 8 0 0 1 11.313-11.315l11.312 11.314a8 8 0 0 1 -5.657 13.657z"/><path d="m144 112h-16a8 8 0 0 1 0-16h16a8 8 0 0 1 0 16z"/><path d="m151.432 168.568a8 8 0 0 1 -5.657-13.657l11.313-11.311a8 8 0 1 1 11.312 11.312l-11.314 11.314a7.977 7.977 0 0 1 -5.654 2.342z"/><path d="m208 192a8 8 0 0 1 -8-8v-16a8 8 0 0 1 16 0v16a8 8 0 0 1 -8 8z"/><path d="m264.568 168.568a7.977 7.977 0 0 1 -5.656-2.342l-11.312-11.314a8 8 0 1 1 11.312-11.312l11.313 11.313a8 8 0 0 1 -5.657 13.657z"/><path d="m288 112h-16a8 8 0 0 1 0-16h16a8 8 0 0 1 0 16z"/><path d="m253.255 66.745a8 8 0 0 1 -5.655-13.657l11.314-11.314a8 8 0 0 1 11.313 11.315l-11.315 11.311a7.976 7.976 0 0 1 -5.657 2.345z"/></g><path d="m405.9 120.1a15.982 15.982 0 0 0 -13.9-8.1c-.455 0-.9.031-1.348.068a24 24 0 0 0 -46.652 7.932c0 .134.008.266.01.4a20.006 20.006 0 0 0 -16.01 19.6 20 20 0 0 0 20 20h56a20 20 0 0 0 20-20 20 20 0 0 0 -18.1-19.9z" fill="#eae9e4"/><path d="m56 403.553h56v12.447h-56z" fill="#768753"/></g></svg>