<svg height="512" viewBox="0 0 512 512" width="512" xmlns="http://www.w3.org/2000/svg"><g id="flat"><g fill="#c7830b"><path d="m152 488h32l-8-40 26.592-42.547a53.715 53.715 0 0 0 5.408-45.453h-40l-40 88z"/><path d="m352 488h-32l-8-16-16-112 48-16z"/><path d="m120 216-30.58-4.369a44.955 44.955 0 0 0 -41.461 16.421 44.956 44.956 0 0 0 -6.989 43.868l.985 2.627a73.021 73.021 0 0 1 -9.955 69.453 64.959 64.959 0 0 0 57.34-13.116 70.469 70.469 0 0 0 25.11-48.279z"/></g><path d="m400 80v-11.156a53.9 53.9 0 0 0 -24-44.844 53.9 53.9 0 0 0 -24 44.844v27.156l-3.273 4.91a75.773 75.773 0 0 0 -12.727 42.033v30.635a34.423 34.423 0 0 1 -15.328 28.641c-5.655 3.769-20.3 5.781-27.094 5.781h-137.608a79.333 79.333 0 0 0 -67.27 37.286 79.334 79.334 0 0 0 -10.518 57.6l.685 3.427a235.513 235.513 0 0 0 34.979 84.447l6.154 9.24-12.062 36.185a34 34 0 0 0 .687 23.379l11.375 28.436h32l-8-40 20.686-41.373a61.076 61.076 0 0 0 3.314-46.627h126.111a75.779 75.779 0 0 0 33.889-8l16 112 8 24h40v-24l-16-16v-88l26.97-23.117a98.894 98.894 0 0 0 33.772-62.822 98.907 98.907 0 0 1 19.016-47.072l8.242-10.989 8.845-11.793a75.78 75.78 0 0 0 15.155-45.466v-28.852a75.779 75.779 0 0 0 -8-33.889v-27.156a53.9 53.9 0 0 0 -24-44.844 53.9 53.9 0 0 0 -24 44.844v11.156a35.778 35.778 0 0 0 -32 0z" fill="#d78e0c"/><circle cx="386" cy="122" fill="#7a4922" r="10"/><circle cx="442" cy="122" fill="#7a4922" r="10"/><path d="m432 200a7.988 7.988 0 0 1 -2.531-.413l-8.822-2.94a30.17 30.17 0 0 1 -12.647-8.16 30.17 30.17 0 0 1 -12.648 8.162l-8.822 2.94a8 8 0 0 1 -10.272-5.571 8.179 8.179 0 0 1 5.468-9.693l8.335-2.778c5.8-1.934 10.049-7.288 9.94-13.4 0-.049 0-8.1 0-8.146a8 8 0 0 1 8-8 8.494 8.494 0 0 1 1.956.232 8.186 8.186 0 0 1 6.036 7.767c0 .091.008 8.181.01 8.272a14.179 14.179 0 0 0 9.706 13.2l8.566 2.855a8.18 8.18 0 0 1 5.471 9.68 8.006 8.006 0 0 1 -7.746 5.993z" fill="#c7830b"/><path d="m408 219.752a43.8 43.8 0 0 1 -19.578-4.6 8 8 0 0 1 7.156-14.31 27.917 27.917 0 0 0 24.844 0 8 8 0 1 1 7.156 14.31 43.8 43.8 0 0 1 -19.578 4.6z" fill="#c7830b"/><path d="m320 192a163.882 163.882 0 0 0 115.882 48h12.118v32h-21.894a163.88 163.88 0 0 1 -113.706-45.868l-18.822-18.132z" fill="#ea2b2d"/><path d="m399.066 144.625-6.845 13.69a2.089 2.089 0 0 0 .934 2.8l13.911 6.955a2.088 2.088 0 0 0 1.868 0l13.911-6.955a2.089 2.089 0 0 0 .934-2.8l-6.845-13.69a2.089 2.089 0 0 0 -1.869-1.155h-14.13a2.089 2.089 0 0 0 -1.869 1.155z" fill="#7a4922"/></g></svg>