<svg height="512pt" viewBox="-90 0 512 512" width="512pt" xmlns="http://www.w3.org/2000/svg"><path d="m223.308594 461.867188c0-23.546876-20.746094-42.632813-46.339844-42.632813s-46.339844 19.085937-46.339844 42.632813c0 23.546874 20.746094 42.632812 46.339844 42.632812s46.339844-19.085938 46.339844-42.632812zm0 0" fill="#00a62c"/><path d="m309.785156 298.6875c0 57.210938-59.464844 103.59375-132.816406 103.59375s-132.816406-46.382812-132.816406-103.59375 26.980468-291.1875 132.816406-291.1875c105.839844 0 132.816406 233.976562 132.816406 291.1875zm0 0" fill="#f9ee80"/><path d="m149.460938 364.121094s25.277343-134.261719 138.128906-209.917969c17.644531-11.828125 40.742187 3.738281 36.609375 24.570313-5.414063 27.28125-10.742188 61.898437-10.214844 93.839843 1.09375 66.222657 10.9375 212.660157-110.550781 200.851563-78.808594-7.664063-53.972656-109.34375-53.972656-109.34375zm0 0" fill="#29ce69"/><path d="m282.570312 446.113281c-13.601562-6.203125-23.339843-14.734375-30.128906-22.628906-8.554687-9.953125-13.214844-22.679687-13.222656-35.800781-.027344-64.460938-35.433594-108.226563-50.628906-124.046875-30.335938 53.808593-39.128906 100.484375-39.128906 100.484375s-24.832032 101.679687 53.976562 109.34375c37.535156 3.648437 62.539062-7.816406 79.132812-27.351563zm0 0" fill="#00c140"/><path d="m200.574219 364.121094s-9.523438-50.523438-42.925781-107.046875l-121.917969 31.148437c-1.507813 71.046875-1.796875 196.191406 110.871093 185.242188 78.804688-7.664063 53.972657-109.34375 53.972657-109.34375zm0 0" fill="#73da8c"/><path d="m157.648438 257.074219-121.917969 31.148437c-.589844 27.640625-.992188 63.472656 5.375 96.292969 19.910156-6.96875 47.21875-20.640625 59.257812-45.46875 20.054688-41.371094 74.65625-48.96875 74.65625-48.96875-4.902343-10.519531-10.652343-21.640625-17.371093-33.003906zm0 0" fill="#29ce69"/><path d="m157.652344 257.074219s-74.863282 12.355469-120.339844 75.15625c-9.757812 13.472656-31.121094 5.5-29.753906-11.078125 2.152344-26.074219 10.5-57.457032 33.050781-87.089844 5.28125-6.9375 12.328125-12.375 20.464844-15.503906 21.597656-8.304688 65.414062-15.8125 96.578125 38.515625zm0 0" fill="#b9ecc2"/><path d="m157.789062 81.144531-9.898437-9.898437c-4.8125-4.8125-4.8125-12.613282 0-17.425782l9.898437-9.898437c4.8125-4.8125 12.613282-4.8125 17.425782 0l9.898437 9.898437c4.8125 4.8125 4.8125 12.613282 0 17.425782l-9.898437 9.898437c-4.8125 4.8125-12.613282 4.8125-17.425782 0zm0 0" fill="#eedb00"/><path d="m199.070312 122.425781-9.902343-9.898437c-4.808594-4.8125-4.808594-12.613282 0-17.425782l9.902343-9.898437c4.808594-4.8125 12.613282-4.8125 17.425782 0l9.898437 9.898437c4.8125 4.8125 4.8125 12.613282 0 17.425782l-9.898437 9.898437c-4.8125 4.8125-12.613282 4.8125-17.425782 0zm0 0" fill="#eedb00"/><path d="m246.125 165.394531v-12.449219c0-4.140624-3.355469-7.5-7.5-7.5-4.140625 0-7.5 3.359376-7.5 7.5v12.449219c0 4.144531 3.359375 7.5 7.5 7.5 4.144531 0 7.5-3.355469 7.5-7.5zm0 0"/><path d="m122.515625 165.394531v-12.449219c0-4.140624-3.359375-7.5-7.5-7.5-4.144531 0-7.5 3.359376-7.5 7.5v12.449219c0 4.144531 3.355469 7.5 7.5 7.5 4.140625 0 7.5-3.355469 7.5-7.5zm0 0"/><path d="m176.820312 175.667969c7.136719 0 13.738282-3.5625 17.660157-9.53125 2.273437-3.460938 1.308593-8.109375-2.152344-10.382813-1.269531-.835937-6.882813-2.996094-10.386719 2.148438-1.679687 2.46875-4.125 2.765625-5.121094 2.765625-.996093 0-3.484374-.269531-5.125-2.765625-2.273437-3.460938-6.921874-4.425782-10.382812-2.148438-3.464844 2.273438-4.425781 6.921875-2.152344 10.382813 3.917969 5.96875 10.523438 9.53125 17.660156 9.53125zm0 0"/><path d="m318.144531 147.949219c-7.320312-4.878907-15.835937-6.417969-23.902343-4.636719-25.675782-93.808594-66.128907-143.3125-117.273438-143.3125-22.910156 0-43.816406 9.910156-62.132812 29.453125-15.1875 16.207031-28.722657 39.242187-40.226563 68.472656-1.519531 3.855469.375 8.210938 4.230469 9.726563 3.855468 1.515625 8.207031-.378906 9.726562-4.230469 23.09375-58.671875 52.835938-88.421875 88.402344-88.421875 24.285156 0 46.101562 14.152344 64.84375 42.0625 15.234375 22.683594 28.234375 53.9375 38.683594 92.917969-52.371094 36.054687-85.566406 84.453125-105.472656 123.058593-3.324219-6.457031-6.953126-13.070312-10.917969-19.78125-33.855469-58.933593-82.359375-50.101562-103.699219-42.449218 4.613281-27.660156 10.667969-54.117188 17.71875-77.234375 1.207031-3.964844-1.023438-8.152344-4.988281-9.363281-3.964844-1.207032-8.152344 1.023437-9.359375 4.988281-8.230469 26.996093-15.132813 58.359375-20.023438 90.878906-28.816406 28.933594-40.867187 66.515625-43.6679685 100.457031-.8984375 10.851563 5.3750005 20.683594 15.6093745 24.472656 2.785157 1.03125 8.394532 2.347657 13.207032 1.039063 3.546875 55.125 17.277344 92.527344 41.828125 114.074219 15.019531 13.179687 34.03125 20.320312 56.679687 21.359375 8.351563 18.230469 27.886719 30.519531 49.558594 30.519531 22.039062 0 41.359375-12.164062 49.664062-30.742188 38.65625-3 65.828126-24.398437 80.90625-63.871093 1.480469-3.867188-.460937-8.203125-4.328124-9.683594-3.871094-1.476563-8.207032.460937-9.683594 4.332031-15.527344 40.648438-44.765625 58.296875-89.367188 53.960938-5.335937-.515625-10.265625-1.539063-14.78125-3.027344 2.714844-2.621094 5.207032-5.5 7.457032-8.671875 24.144531-34.019531 12.085937-87.492187 11.070312-91.761719-.597656-3.09375-6.710938-33.21875-24.605469-72.445312 18.601563-38.957032 52.222657-91.949219 108.46875-129.65625 5.636719-3.78125 12.386719-3.785156 18.054688-.003906 4.425781 2.949218 8.59375 8.9375 7.019531 16.882812-7.3125 36.835938-10.136719 72.738281-10.136719 106.359375 0 27.757813 1.445313 65.757813-5.210937 99.78125-.796875 4.066406.761718 9.121094 7.367187 8.941406 3.511719-.09375 6.652344-2.480469 7.351563-6.058593 6.972656-35.617188 5.488281-74.550782 5.488281-102.992188 0-53.445312 2.75-67.316406 9.851563-103.109375 2.523437-12.714844-2.613282-25.089844-13.410157-32.285156zm-297.242187 182.992187c-3.109375-1.152344-6.28125-4.164062-5.867188-9.171875 2.5625-31.046875 13.171875-59.027343 31.542969-83.164062 4.527344-5.953125 17.53125-18.476563 44.296875-18.476563 26.257812 0 44.003906 16.710938 54.726562 31.957032-23.054687 5.996093-77.550781 24.910156-114.363281 75.746093-2.921875 4.03125-7.253906 4.25-10.335937 3.109375zm188.308594 150.476563c-7.097657 9.503906-19.144532 15.582031-32.242188 15.582031-13.269531 0-25.382812-6.175781-32.441406-15.832031.929687-.074219 18.886718-.832031 30.519531-7.976563 14.902344 8.484375 32.027344 8.109375 34.164063 8.226563zm-15.925782-115.523438c.121094.503907 11.964844 50.679688-8.703125 79.757813-3.097656 4.355468-20.277343 17.515625-38.707031 20.347656-27.5 4.222656-49.03125-2.917969-65.25-17.152344-22.613281-19.84375-34.800781-56.597656-37.214844-112.25 36.4375-50.289062 93.414063-67.035156 110.480469-71.0625 30.113281 52.742188 39.222656 99.5 39.3125 99.976563.023437.125.050781.257812.082031.382812zm0 0"/></svg>