<svg height="512pt" viewBox="-76 0 512 512" width="512pt" xmlns="http://www.w3.org/2000/svg"><path d="m130.1875 297.617188c14.132812 10.273437 33.917969 7.148437 44.191406-6.984376 10.273438-14.132812 7.148438-33.917968-6.984375-44.191406-14.132812-10.273437-54.957031-22.445312-65.230469-8.3125-10.277343 14.132813 13.890626 49.214844 28.023438 59.488282zm0 0" fill="#29ce69"/><path d="m167.394531 246.449219c-5.046875-3.667969-13.492187-7.585938-22.738281-10.453125-2.664062 7.234375-5.601562 18.570312-4.597656 31.703125 1.027344 13.429687-2.109375 25.371093-4.855469 32.902343 13.492187 6.4375 30.070313 2.5625 39.175781-9.964843 10.273438-14.128907 7.148438-33.914063-6.984375-44.1875zm0 0" fill="#00c140"/><path d="m163.902344 175.664062h33.046875v209.675782h-33.046875zm0 0" fill="#73da8c"/><path d="m180.511719 105.890625 72.1875-23.414063c12.449219-4.035156 18.800781-17.796874 13.878906-29.921874-13.027344-32.070313-40.53125-41.476563-60.949219-43.789063-13.359375-1.511719-25.070312 8.890625-25.078125 22.335937zm0 0" fill="#ffabcd"/><path d="m180.546875 41.679688-.035156 64.210937 61.085937-19.8125c-8.347656-25.753906-32.515625-44.386719-61.050781-44.398437zm0 0" fill="#ff83b4"/><path d="m180.511719 105.890625.039062-75.886719c.007813-13.085937-11.117187-23.382812-24.167969-22.445312-34.527343 2.476562-51.972656 25.730468-60.480468 44.433594-5.566406 12.234374.710937 26.589843 13.492187 30.75zm0 0" fill="#ffd2e3"/><path d="m180.546875 41.679688c-28.527344 0-52.726563 18.601562-61.097656 44.335937l61.0625 19.875c.003906 0 .046875-64.210937.035156-64.210937zm0 0" fill="#ffabcd"/><path d="m180.511719 105.890625-72.160157-23.488281c-12.441406-4.046875-25.671874 3.351562-28.8125 16.054687-8.316406 33.601563 8.410157 57.378907 23.566407 71.25 9.921875 9.074219 25.511719 7.542969 33.417969-3.328125zm0 0" fill="#ff83b4"/><path d="m119.449219 86.015625c-2.035157 6.261719-3.148438 12.9375-3.148438 19.875 0 21.347656 10.421875 40.246094 26.449219 51.921875l37.761719-51.921875zm0 0" fill="#ff5d9c"/><path d="m180.511719 105.890625-44.636719 61.375c-7.695312 10.582031-4.746094 25.449219 6.363281 32.363281 29.390625 18.292969 57.167969 9.734375 75.046875-.398437 11.695313-6.628907 15.054688-21.929688 7.160156-32.808594zm0 0" fill="#ffabcd"/><path d="m218.226562 157.851562-37.714843-51.960937-37.761719 51.925781c10.597656 7.722656 23.644531 12.289063 37.761719 12.289063 14.097656 0 27.125-4.550781 37.714843-12.253907zm0 0" fill="#ff83b4"/><path d="m180.511719 105.890625 44.578125 61.417969c7.6875 10.589844 22.734375 12.382812 32.746094 3.953125 26.476562-22.300781 26.921874-51.363281 22.808593-71.496094-2.6875-13.171875-16.199219-21.097656-28.988281-16.949219zm0 0" fill="#ffd2e3"/><path d="m244.726562 105.890625c0-6.914063-1.105468-13.570313-3.128906-19.8125l-61.082031 19.8125 37.710937 51.960937c16.054688-11.671874 26.5-30.589843 26.5-51.960937zm0 0" fill="#ffabcd"/><path d="m211.808594 105.890625c0 17.285156-14.011719 31.296875-31.296875 31.296875-17.28125 0-31.292969-14.011719-31.292969-31.296875 0-17.28125 14.011719-31.292969 31.292969-31.292969 17.285156 0 31.296875 14.011719 31.296875 31.292969zm0 0" fill="#fcf5af"/><path d="m230.644531 297.667969c-14.140625 10.261719-33.925781 7.113281-44.183593-7.027344-10.261719-14.144531-7.113282-33.925781 7.03125-44.1875 14.140624-10.257813 54.976562-22.386719 65.238281-8.242187 10.257812 14.140624-13.945313 49.199218-28.085938 59.457031zm0 0" fill="#b9ecc2"/><path d="m337.132812 401.382812c-15.703124-17.125-38.90625-23.332031-60.027343-18.152343-13.160157 3.226562-27.140625-1.429688-35.617188-12.003907-14.34375-17.890624-36.375-29.355468-61.09375-29.367187s-46.761719 11.425781-61.125 29.304687c-8.472656 10.546876-22.4375 15.230469-35.570312 11.980469-21.242188-5.253906-44.59375 1.027344-60.3125 18.300781-22.417969 24.644532-21.003907 63.207032 3.207031 86.09375 11.941406 11.292969 27.132812 16.832032 42.269531 16.835938v.011719l222.898438.113281v-.003906c15.214843.011718 30.484375-5.582032 42.449219-16.957032 24.167968-22.96875 25.457031-61.582031 2.921874-86.15625zm0 0" fill="#e7896e"/><g fill="#dd6642"><path d="m126.984375 504.5c14.183594-14.914062 28.132813-37.515625 30.832031-69.96875 5.816406-69.976562 60.527344-82.855469 60.527344-82.855469-11.210938-6.207031-24.222656-9.726562-37.949219-9.730469-24.71875-.015624-46.761719 11.425782-61.125 29.304688-8.472656 10.546875-22.4375 15.226562-35.570312 11.980469-21.242188-5.253907-44.59375 1.023437-60.3125 18.300781-22.417969 24.644531-21.003907 63.207031 3.207031 86.09375 11.941406 11.289062 27.132812 16.832031 42.269531 16.835938v.011718zm0 0"/><path d="m228.523438 419.234375c0 8.78125-7.121094 15.902344-15.902344 15.902344s-15.902344-7.121094-15.902344-15.902344 7.121094-15.902344 15.902344-15.902344 15.902344 7.121094 15.902344 15.902344zm0 0"/><path d="m270.160156 451.035156c0 8.78125-7.121094 15.902344-15.902344 15.902344s-15.902343-7.121094-15.902343-15.902344 7.121093-15.898437 15.902343-15.898437 15.902344 7.117187 15.902344 15.898437zm0 0"/></g><path d="m352.34375 409.859375c-1.980469-3.636719-6.53125-4.980469-10.171875-3-3.636719 1.980469-4.984375 6.53125-3.003906 10.171875 11.710937 21.519531 7.546875 48.277344-10.125 65.074219-10.101563 9.605469-23.324219 14.894531-37.230469 14.894531-.015625 0-.027344 0-.042969 0-.066406.003906-.128906 0-.195312 0l-222.3125-.113281c-.132813-.007813-.265625-.007813-.398438-.007813-13.851562-.003906-27.035156-5.253906-37.117187-14.789062-21.21875-20.0625-22.480469-53.972656-2.808594-75.59375 13.359375-14.6875 33.652344-20.84375 52.960938-16.070313 15.96875 3.953125 32.9375-1.765625 43.222656-14.5625 13.53125-16.84375 32.519531-26.503906 55.269531-26.503906s41.726563 9.695313 55.246094 26.5625c10.257812 12.792969 27.238281 18.519531 43.257812 14.59375 14.535157-3.566406 30.019531-.929687 42.484375 7.234375 3.460938 2.269531 8.113282 1.300781 10.382813-2.164062 2.269531-3.46875 1.300781-8.117188-2.164063-10.386719-15.933594-10.433594-35.71875-13.804688-54.273437-9.253907-10.378907 2.542969-21.359375-1.148437-27.980469-9.410156-11.265625-14.046875-26.316406-23.980468-43.121094-28.820312v-27.316406c14.125 2.886718 24.074219-1.757813 30.828125-6.660157 8.355469-6.058593 18.542969-18.402343 25.351563-30.710937 9.300781-16.808594 10.820312-30.371094 4.398437-39.21875-6.417969-8.851563-19.785156-11.613282-38.644531-7.992188-7.394531 1.421875-15.089844 3.761719-21.933594 6.554688v-18.988282c6.160156-2.128906 11.792969-4.8125 16.761719-7.625 7.445313-4.222656 15.941406-10.855468 15.027344-22.582031 10.746093 3.789063 21.210937-1.589843 26.65625-6.175781 29.203125-24.59375 29.890625-56.390625 25.328125-78.734375-1.710938-8.382813-7.933594-20.179687-16.832032-21.273437 5.445313-8.394532 5.5-19.535157 2.363282-27.257813-14.363282-35.371094-44.394532-45.855469-67.054688-48.417969-8.5-.957031-19.539062-.390625-25.429687 9.433594-.789063-.941406-6.332031-10.75-25.199219-10.75-15.613281 0-29.359375 6.296875-40.972656 15.242188-3.28125 2.527343-3.894532 7.238281-1.363282 10.519531 2.523438 3.28125 7.234376 3.894531 10.515626 1.367187 9.242187-7.117187 20.308593-11.1875 32.894531-12.089844 4.25-.300781 8.273437 1.121094 11.371093 4.003907 3.074219 2.863281 4.765626 6.753906 4.765626 10.957031l-.019532 37.816406c-17.433594 2.816406-24.667968 16.074219-26.398437 19.164063l-34.917969-11.367188c-4.109375-1.335937-7.328125-4.25-9.070312-8.203125-1.746094-3.976562-1.71875-8.347656.085937-12.3125 1.515625-3.332031 3.203125-6.527344 5.027344-9.5 2.164062-3.53125 1.054687-8.148437-2.476563-10.3125-3.53125-2.164062-8.148437-1.054687-10.3125 2.476563-2.144531 3.496093-4.542968 7.078125-5.894531 11.128906-5.476563 16.410156.652344 26.277344 1.113281 27.101563-11.328125 5.300781-15.929687 12.574218-17.933594 20.664062-9.167968 37.058594 8.964844 63.1875 25.789063 78.582031 5.570313 5.097657 17.109375 10.796875 26.121094 7.316407.082031 1.222656-1.644531 13.726562 14.109375 23.441406 6.160156 3.800781 12.21875 6.589844 18.160156 8.492187v17.777344c-19.644531-7.96875-49.417969-13.566406-60.339844 1.457031-6.425781 8.839844-4.921875 22.40625 4.363282 39.222656 6.796874 12.316407 16.972656 24.671876 25.320312 30.738282 6.792969 4.9375 20.601562 11.101562 30.65625 6.699218v27.347657c-16.753906 4.839843-31.765625 14.738281-43.011719 28.738281-6.636719 8.261719-17.597656 11.953125-27.925781 9.394531-24.660156-6.097656-50.585938 1.773438-67.660156 20.539063-25.128906 27.625-23.515625 70.953125 3.601562 96.585937 12.777344 12.082031 29.453125 18.78125 47 18.886719.140625.007812.277344.011719.417969.011719l222.898437.113281h.003907c.066406 0 .132812 0 .195312-.003906 17.71875-.035156 34.554688-6.785156 47.421875-19.019532 22.582032-21.464843 27.914063-55.644531 12.964844-83.117187zm-123.363281-169.3125c4.734375-.910156 19.09375-2.78125 23.679687 2.066406 2.273438 2.40625 1.695313 10.347657-5.386718 23.152344-6.414063 11.59375-15.4375 21.769531-21.035157 25.832031-5.21875 3.785156-11.597656 5.308594-17.964843 4.300782-6.367188-1.015626-11.957032-4.445313-15.742188-9.664063s-5.3125-11.597656-4.300781-17.964844c1.015625-6.367187 4.445312-11.960937 9.664062-15.746093 5.597657-4.058594 18.074219-9.476563 31.085938-11.976563zm24.023437-75.023437c-3.246094 2.734374-7.351562 3.957031-11.546875 3.445312-4.175781-.511719-7.832031-2.664062-10.296875-6.066406l-22.222656-30.617188c6.6875-7.191406 11.59375-18.480468 10.089844-31l34.941406-11.335937c4.113281-1.332031 8.429688-.867188 12.160156 1.308593 3.75 2.1875 6.296875 5.742188 7.167969 10.007813 3.75 18.359375 3.273437 44.410156-20.292969 64.257813zm-59.953125-145.578126c3.242188-2.894531 7.410157-4.214843 11.734375-3.726562 18.621094 2.105469 43.25 10.609375 54.84375 39.15625 1.597656 3.933594 1.492188 8.210938-.292968 12.050781-1.777344 3.808594-4.953126 6.621094-8.949219 7.917969l-35.996094 11.675781c-5.464844-9.773437-15.03125-16.949219-26.355469-19.183593l.015625-36.730469c.003907-4.320313 1.777344-8.285157 5-11.160157zm-12.535156 62.152344h.011719.003906.003906c13.117188.011719 23.78125 10.6875 23.773438 23.804688-.007813 13.117187-10.679688 23.785156-23.792969 23.785156-.003906 0-.007813 0-.011719 0-13.121094-.007812-23.789062-10.6875-23.785156-23.808594.007812-13.117187 10.679688-23.78125 23.796875-23.78125zm-60.664063 85.957032c-4.324218.4375-8.46875-.941407-11.683593-3.882813-13.824219-12.648437-28.75-34.007813-21.351563-63.914063 1.019532-4.121093 3.617188-7.523437 7.316406-9.574218 3.675782-2.042969 7.902344-2.449219 11.898438-1.148438l35.972656 11.710938c-1.566406 11.257812 3.644532 24.066406 10.070313 30.992187l-21.625 29.734375c-2.539063 3.488282-6.304688 5.648438-10.597657 6.082032zm19.503907 15.285156c-.804688-4.125.113281-8.269532 2.585937-11.664063l22.257813-30.601562c4.957031 2.308593 10.476562 3.609375 16.296875 3.609375h.019531c5.722656 0 11.25-1.234375 16.292969-3.570313l21.570312 29.71875c2.535156 3.496094 3.425782 7.742188 2.511719 11.960938-.921875 4.242187-3.515625 7.765625-7.304687 9.910156-16.304688 9.238281-41.226563 16.835937-67.382813.558594-3.605469-2.242188-6.035156-5.765625-6.847656-9.921875zm-4.757813 108.210937c-5.59375-4.066406-14.605468-14.253906-21.007812-25.855469-7.070313-12.808593-7.304688-20.476562-5.359375-23.15625 4.691406-6.453124 29.742187-3.125 48.207031 6.132813v46.234375c-7.304688 2.417969-15.503906 1.25-21.839844-3.355469zm36.839844-73.972656c2.304688.222656 8.71875 1.148437 17.78125-.5v23.210937c-.042969.03125-.089844.0625-.132812.09375-8.460938 6.140626-14.027344 15.207032-15.667969 25.527344-1.644531 10.324219.832031 20.667969 6.972656 29.132813 2.492187 3.4375 5.480469 6.390625 8.828125 8.800781v30.976562c-7.390625-1.050781-14.839844-.300781-17.78125.003907zm0 0"/></svg>