<svg height="512pt" viewBox="-12 0 512 512.00019" width="512pt" xmlns="http://www.w3.org/2000/svg"><path d="m324.347656 59.808594c-75.449218-70.820313-194.464844-69.511719-268.433594 2.851562-21.792968 21.320313-37.910156 46.332032-47.082031 73.332032-6.203125 18.261718 11.027344 25.800781 23.710938 12.6875 57.296875-59.257813 153.136719-59.90625 211.972656-2.175782 47.433594 46.542969 57.28125 116.699219 29.566406 173.058594-7.582031 15.417969-4.191406 33.992188 7.957031 46.140625l46.390626 46.390625 55.941406-55.9375-37.789063-37.789062c58.761719-77.6875 51.363281-189.480469-22.234375-258.558594zm0 0" fill="#889cb0"/><path d="m299.195312 382.863281 29.234376 29.234375 55.9375-55.941406-37.785157-37.789062c-13.949219 36.488281-34.226562 59.34375-34.226562 59.34375zm0 0" fill="#889cb0"/><path d="m294.269531 107.695312c-135.375-135.375-285.4375 28.296876-285.4375 28.296876-6.203125 18.261718 11.027344 25.800781 23.710938 12.6875 57.296875-59.257813 153.136719-59.90625 211.972656-2.175782 47.429687 46.546875 57.28125 116.703125 29.566406 173.0625-7.582031 15.414063-4.191406 33.992188 7.957031 46.140625l17.15625 17.15625s33.4375-28.007812 47.386719-64.496093c19.832031-51.875 27.15625-131.199219-52.3125-210.671876zm0 0" fill="#6a829a"/><path d="m438.128906 376.144531c-36.417968-7.933593-67.164062-49.359375-67.164062-49.359375l-68.199219 68.199219s41.425781 30.742187 49.363281 67.160156c7.933594 36.421875 59.429688 63.988281 104.707032 18.710938 45.277343-45.277344 17.710937-96.777344-18.707032-104.710938zm0 0" fill="#e7896e"/><path d="m480.121094 436.222656c-9.253906 10.703125-24.203125 23.519532-46.03125 29.792969-17.296875 4.972656-32.296875-1.921875-43.816406-11.703125-15.75-13.375-17.761719-37.042969-4.414063-52.820312 12.410156-14.675782 19.09375-29.109376 22.566406-38.914063-21.988281-14.949219-37.460937-35.792969-37.460937-35.792969l-68.199219 68.199219s41.425781 30.746094 49.363281 67.164063c7.933594 36.417968 59.429688 63.984374 104.707032 18.707031 14.792968-14.789063 21.808593-30.25 23.285156-44.632813zm0 0" fill="#dd6642"/><path d="m315.089844 415.460938 76.351562-76.351563c9.058594-9.058594 9.058594-23.742187 0-32.800781s-23.742187-9.058594-32.800781 0l-76.351563 76.351562c-9.058593 9.058594-9.058593 23.742188 0 32.800782 9.058594 9.058593 23.742188 9.058593 32.800782 0zm0 0" fill="#a7b6c5"/><path d="m329.480469 54.34375c-8.5-7.980469-17.734375-15.25-27.445313-21.601562-3.464844-2.265626-8.109375-1.289063-10.378906 2.171874-2.269531 3.464844-1.296875 8.113282 2.167969 10.378907 8.984375 5.875 17.527343 12.601562 25.394531 19.984375 33.960938 31.878906 54.707031 74.914062 58.40625 121.183594 3.648438 45.582031-9.402344 90.660156-36.738281 127l-50.246094 50.246093s-22.125-16.300781-9.832031-40.832031c30.46875-60.796875 17.535156-134.050781-31.042969-181.71875-30.089844-29.527344-70.046875-45.480469-112.511719-44.925781-42.082031.554687-81.175781 17.332031-110.105468 47.238281-4.046876 4.183594-8.335938 5.078125-10.464844 3.777344-1.890625-1.152344-2.1875-4.625-.753906-8.839844 8.703124-25.613281 24.375-49.953125 45.226562-70.386719 27.320312-26.722656 61.769531-44.167969 99.625-50.445312 37.117188-6.15625 74.691406-1.214844 108.660156 14.285156 3.769532 1.71875 8.21875.058594 9.933594-3.710937 1.71875-3.765626.0625-8.214844-3.707031-9.933594-36.691407-16.746094-77.269531-22.085938-117.339844-15.4375-40.902344 6.78125-78.132813 25.636718-107.660156 54.519531-22.566407 22.0625-39.480469 48.449219-48.9375 76.28125-4.585938 13.5.683593 22.527344 7.140625 26.46875 8.691406 5.304687 20.367187 2.859375 29.0625-6.15625 26.105468-27.035156 61.460937-42.164063 99.515625-42.664063 38.441406-.507812 74.597656 13.925782 101.8125 40.628907 43.953125 43.128906 54.597656 108.882812 28.089843 164.398437-16.976562 35.554688 12.683594 58.050782 12.683594 58.050782s-24.597656 24.90625-3.046875 46.457031c11.835938 11.839843 31.015625 11.960937 43.011719.375 10.246094 11.25 21.28125 26.457031 24.800781 42.605469 1.359375 6.242187 3.816407 12.277343 7.296875 17.929687 2.171875 3.527344 6.980469 4.914063 10.316406 2.457031 4.910157-3.621094 4.3125-7.300781 2.453126-10.320312-2.59375-4.210938-4.414063-8.671875-5.414063-13.257813-4.253906-19.527343-17.121094-37.253906-28.824219-50.023437l55.882813-55.882813c12.769531 11.703125 30.496093 24.574219 50.023437 28.828125 16.007813 3.484375 29.523438 16.546875 34.429688 33.273438 5.761718 19.632812-1.136719 40.515625-19.429688 58.804687-30.027344 30.027344-56.933594 21.292969-67.109375 16.140625-3.695312-1.871094-8.207031-.386718-10.078125 3.304688-1.867187 3.695312-.390625 8.207031 3.304688 10.078125 27.261718 13.796875 58.84375 6.726562 84.488281-18.917969 22.023437-22.023438 30.484375-48.863281 23.214844-73.632812-6.429688-21.910157-24.339844-39.066407-45.628907-43.703126-16.148437-3.519531-31.355468-14.554687-42.605468-24.800781 11.585937-11.996093 11.464844-31.175781-.375-43.015625-6.839844-6.839844-16.128906-9.761718-25.070313-8.785156 16.535157-32.777344 23.878907-69.714844 20.898438-106.957031-4-49.988281-26.40625-96.484375-63.09375-130.917969zm56.660156 279.464844-76.351563 76.351562c-6.121093 6.121094-16.078124 6.121094-22.199218 0-6.117188-6.121094-6.121094-16.078125 0-22.199218l76.351562-76.351563c6.121094-6.117187 16.078125-6.117187 22.199219 0 6.121094 6.121094 6.121094 16.078125 0 22.199219zm0 0"/></svg>