<svg height="511pt" viewBox="-37 0 511 511.998" width="511pt" xmlns="http://www.w3.org/2000/svg"><path d="m357.546875 504.488281h-277.574219c-16.363281 0-29.628906-13.265625-29.628906-29.628906v-14.265625c0-49.304688 39.96875-89.269531 89.269531-89.269531h158.292969c49.304688 0 89.269531 39.964843 89.269531 89.269531v14.265625c0 16.363281-13.265625 29.628906-29.628906 29.628906zm0 0" fill="#f9ee80"/><path d="m121.832031 437.90625h193.859375v66.582031h-193.859375zm0 0" fill="#5ad6ff"/><path d="m85.960938 377.097656c-9.828126 4.398438-11.886719 17.480469-3.839844 24.640625 12.414062 11.046875 28.507812 27.992188 40.066406 49.609375 5.105469 9.546875 11.429688 15.425782 25.964844 15.425782 23.546875 0 36.488281-23.527344 26.234375-43.203126-10.957031-21.03125-28.878907-45.089843-57.453125-60.769531-.546875.605469-16.601563 7.867188-30.972656 14.296875zm0 0" fill="#a4e7ff"/><path d="m351.558594 377.097656c9.828125 4.398438 11.886718 17.480469 3.84375 24.640625-12.414063 11.046875-28.511719 27.992188-40.070313 49.609375-5.105469 9.546875-11.429687 15.425782-25.964843 15.425782-23.546876 0-36.488282-23.527344-26.234376-43.203126 10.957032-21.03125 28.878907-45.089843 57.453126-60.769531.550781.605469 16.605468 7.867188 30.972656 14.296875zm0 0" fill="#a4e7ff"/><path d="m97.96875 276c0 23.652344-19.171875 42.824219-42.824219 42.824219-23.648437 0-42.820312-19.171875-42.820312-42.824219 0-23.648438 19.171875-42.820312 42.820312-42.820312 23.652344 0 42.824219 19.171874 42.824219 42.820312zm0 0" fill="#ffb2a6"/><path d="m425.199219 276c0 23.652344-19.171875 42.824219-42.824219 42.824219-23.648438 0-42.824219-19.171875-42.824219-42.824219 0-23.648438 19.175781-42.820312 42.824219-42.820312 23.652344 0 42.824219 19.171874 42.824219 42.820312zm0 0" fill="#ffcbbe"/><path d="m234.300781 410.945312h-31.078125c-81.441406 0-148.078125-66.636718-148.078125-148.074218v-68.03125c0-89.988282 73.628907-163.617188 163.617188-163.617188 89.984375 0 163.613281 73.628906 163.613281 163.617188v68.03125c0 81.4375-66.632812 148.074218-148.074219 148.074218zm0 0" fill="#ffddcf"/><path d="m133.484375 299.148438c-7.632813-40.410157 4.84375-81.761719 32.167969-112.496094 40.636718-45.707032 53.109375-155.421875 53.109375-155.421875-89.988281 0-163.613281 73.625-163.613281 163.613281v68.03125c0 80.886719 65.746093 147.167969 146.433593 148.0625-43.058593-35.65625-61.410156-76.398438-68.097656-111.789062zm0 0" fill="#ffcbbe"/><path d="m154.640625 300.878906c0-13.199218-13.4375-23.902344-30.015625-23.902344s-30.019531 10.703126-30.019531 23.902344c0 13.203125 13.441406 23.90625 30.019531 23.90625s30.015625-10.703125 30.015625-23.90625zm0 0" fill="#ff89ca"/><path d="m342.914062 300.878906c0-13.199218-13.4375-23.902344-30.015624-23.902344-16.578126 0-30.019532 10.703126-30.019532 23.902344 0 13.203125 13.441406 23.90625 30.019532 23.90625 16.578124 0 30.015624-10.703125 30.015624-23.90625zm0 0" fill="#ff89ca"/><path d="m239.648438 294.824219c0-13.660157-9.351563-24.734375-20.886719-24.734375-11.539063 0-20.890625 11.074218-20.890625 24.734375 0 13.660156 9.351562 24.734375 20.890625 24.734375 11.535156 0 20.886719-11.074219 20.886719-24.734375zm0 0" fill="#454545"/><path d="m46.242188 166.886719s-10.664063 41.324219-2.75 82.980469c2.679687 14.109374 20.9375 17.867187 29.28125 6.179687 8.308593-11.640625 21-23.042969 40.074218-27.976563 45.734375-11.835937 67.355469-61.183593 67.355469-61.183593zm0 0" fill="#e8a900"/><path d="m391.28125 166.886719s10.664062 41.324219 2.75 82.980469c-2.679688 14.109374-20.9375 17.867187-29.28125 6.179687-8.308594-11.640625-21-23.042969-40.074219-27.976563-45.738281-11.835937-67.355469-61.183593-67.355469-61.183593zm0 0" fill="#f1b70b"/><path d="m350.601562 70.589844c-11.941406-34.574219-43.351562-58.761719-79.84375-61.292969-15.167968-1.050781-32.683593-1.785156-51.996093-1.785156-19.167969 0-36.558594.722656-51.648438 1.761719-36.621093 2.519531-68.210937 26.621093-80.191406 61.316406l-29.402344 85.144531h322.480469zm0 0" fill="#e7896e"/><path d="m184.84375 27.21875c16.636719-14.074219 33.917969-19.707031 33.917969-19.707031-19.167969 0-36.558594.722656-51.648438 1.761719-36.621093 2.519531-68.210937 26.617187-80.191406 61.316406l-29.402344 85.144531h266.1875c-39.554687-42.640625-92.523437-65.082031-128.046875-76.117187-22.964844-7.132813-29.175781-36.867188-10.816406-52.398438zm0 0" fill="#dd6642"/><path d="m218.761719 110.398438c-84.089844 0-156.273438 24.28125-202.144531 44.726562-14.269532 6.359375-9.707032 27.695312 5.914062 27.695312h392.457031c15.621094 0 20.183594-21.335937 5.917969-27.695312-45.875-20.445312-118.058594-44.726562-202.144531-44.726562zm0 0" fill="#f2ad9a"/><path d="m237.695312 471.195312h-37.867187c-8.472656 0-15.34375 6.871094-15.34375 15.34375v17.949219h68.550781v-17.949219c0-8.472656-6.867187-15.34375-15.339844-15.34375zm0 0" fill="#a4e7ff"/><path d="m151.160156 150.296875c4.457032-30.195313 33.210938-37.570313 45.601563-39.347656-74.632813 3.710937-138.324219 25.539062-180.144531 44.175781-14.269532 6.359375-9.707032 27.695312 5.917968 27.695312h148.65625c-12.421875-6.230468-22.421875-16.304687-20.03125-32.523437zm0 0" fill="#e7896e"/><path d="m299.539062 287.757812c4.148438 0 7.511719-3.363281 7.511719-7.511718v-12.46875c0-4.148438-3.363281-7.511719-7.511719-7.511719-4.148437 0-7.511718 3.363281-7.511718 7.511719v12.46875c0 4.148437 3.363281 7.511718 7.511718 7.511718zm0 0"/><path d="m137.980469 287.757812c4.152343 0 7.511719-3.363281 7.511719-7.511718v-12.46875c0-4.148438-3.359376-7.511719-7.511719-7.511719-4.148438 0-7.511719 3.363281-7.511719 7.511719v12.46875c0 4.148437 3.363281 7.511718 7.511719 7.511718zm0 0"/><path d="m157.015625 441.039062c0 4.148438-3.363281 7.507813-7.511719 7.507813-4.148437 0-7.511718-3.359375-7.511718-7.507813 0-4.148437 3.363281-7.511718 7.511718-7.511718 4.148438 0 7.511719 3.363281 7.511719 7.511718zm0 0"/><path d="m295.527344 441.039062c0 4.148438-3.359375 7.507813-7.507813 7.507813-4.148437 0-7.511719-3.359375-7.511719-7.507813 0-4.148437 3.363282-7.511718 7.511719-7.511718 4.148438 0 7.507813 3.363281 7.507813 7.511718zm0 0"/><path d="m218.761719 327.070312c15.660156 0 28.398437-14.464843 28.398437-32.246093s-12.742187-32.246094-28.398437-32.246094c-15.660157 0-28.402344 14.464844-28.402344 32.246094s12.742187 32.246093 28.402344 32.246093zm0-49.46875c7.375 0 13.375 7.726563 13.375 17.222657 0 9.5-6 17.226562-13.375 17.226562-7.378907 0-13.378907-7.726562-13.378907-17.226562 0-9.496094 6-17.222657 13.378907-17.222657zm0 0"/><path d="m436.503906 172.90625c2.214844-10.410156-2.824218-20.3125-12.542968-24.640625-12.914063-5.757813-27.910157-11.820313-44.660157-17.574219l-21.601562-62.554687c-5.234375-15.15625-14.175781-28.953125-25.863281-39.90625-3.027344-2.835938-7.78125-2.679688-10.617188.34375-2.835938 3.027343-2.683594 7.78125.34375 10.617187 9.914062 9.289063 17.496094 20.992188 21.9375 33.847656l17.902344 51.847657c-40.375-12.320313-89.125-22-142.640625-22-53.519531 0-102.269531 9.679687-142.644531 22l17.902343-51.847657c11.003907-31.863281 39.898438-53.953124 73.613281-56.273437 16.824219-1.15625 34.023438-1.742187 51.128907-1.742187 17.214843 0 34.535156.59375 51.476562 1.769531 9.808594.679687 19.324219 3.058593 28.285157 7.070312 3.785156 1.695313 8.230468 0 9.925781-3.785156 1.695312-3.789063 0-8.230469-3.785157-9.925781-10.578124-4.738282-21.808593-7.546875-33.386718-8.347656-17.285156-1.199219-34.953125-1.804688-52.515625-1.804688-17.445313 0-34.996094.597656-52.160157 1.78125-39.742187 2.734375-73.804687 28.78125-86.78125 66.355469l-21.601562 62.554687c-16.75 5.753906-31.746094 11.816406-44.660156 17.570313-9.71875 4.332031-14.757813 14.234375-12.542969 24.644531 2.21875 10.421875 10.863281 17.425781 21.515625 17.425781h12.085938c-1.316407 11.445313-2.105469 25.402344-1.105469 40.230469-21.472657 10.210938-33.34375 34.625-27.003907 58.40625 3.46875 12.992188 19.027344 37.644531 54.585938 37.007812 1.0625 2.371094 7.492188 21.191407 27.449219 41.730469-24.121094 11.339844-18.96875 23.773438-18.707031 25.828125-17.425782 18.113282-27.003907 41.847656-27.003907 67.058594v14.265625c0 20.476563 16.660157 37.136719 37.140625 37.136719h277.574219c20.480469 0 37.140625-16.660156 37.140625-37.136719v-14.265625c0-25.316406-9.558594-48.960938-27.003906-67.0625.261718-2.054688 3.640625-16.402344-18.679688-25.8125 11.492188-12.53125 20.726563-26.609375 27.488282-41.734375 37.535156 1.574219 51.042968-24.023437 54.507812-37.011719 6.34375-23.78125-5.523438-48.191406-26.988281-58.40625.996093-14.832031.210937-28.789062-1.105469-40.234375h12.082031c10.652344 0 19.300781-7.003906 21.515625-17.425781zm-420.796875-3.125c-.273437-1.292969-.800781-5.671875 3.964844-7.796875 45.121094-20.105469 116.28125-44.074219 199.089844-44.074219 82.804687 0 153.964843 23.96875 199.085937 44.074219 4.765625 2.125 4.238282 6.503906 3.964844 7.796875-.277344 1.296875-1.585938 5.527344-6.824219 5.527344h-392.457031c-5.238281 0-6.546875-4.230469-6.824219-5.527344zm140.480469 20.550781c-10.558594 12.613281-25.527344 25.367188-45.222656 30.464844-18.117188 4.6875-33.023438 15.078125-44.308594 30.886719-3.203125 4.488281-7.855469 3.871094-9.203125 3.574218-1.296875-.285156-5.597656-1.613281-6.582031-6.792968-4.03125-21.21875-3.0625-42.414063-1.132813-58.132813zm-135.160156 94.769531c-3.972656-14.882812 2.230468-30.117187 14.304687-38.324218.238281 1.496094.800781 16.207031 12.367188 20.703125.433593 15.066406 3.015625 29.726562 7.683593 43.832031-15.695312.105469-30.128906-10.355469-34.355468-26.210938zm63.730468 104.457032c.390626-2.523438 1.945313-4.5625 4.273438-5.605469 3.644531-1.628906 7.386719-3.308594 10.96875-4.925781 3.019531 2.6875 6.132812 5.269531 9.347656 7.714844 1.355469 1.035156 6.398438 3.042968 10.523438-1.429688 2.8125-3.050781 1.871094-8.015625-1.429688-10.527344-16.9375-12.882812-30.976562-29.671875-40.589844-48.554687-8.960937-17.589844-13.984374-36.382813-14.996093-55.960938 6.332031-.898437 12.085937-4.335937 16.03125-9.859375 9.175781-12.855468 21.238281-21.289062 35.839843-25.070312 28.628907-7.40625 48.375-27.945313 60.382813-45.007813h87.300781c12.007813 17.0625 31.757813 37.601563 60.382813 45.007813 14.605469 3.78125 26.667969 12.214844 35.84375 25.070312 3.941406 5.523438 9.699219 8.964844 16.03125 9.859375-1.804688 34.613281-16.234375 67-41.101563 91.867188-26.628906 26.628906-61.882812 41.296875-99.265625 41.296875h-31.078125c-20.226562 0-39.777344-4.257813-58.109375-12.652344-3.777343-1.726562-8.230469-.070312-9.957031 3.703125-1.726562 3.769531-.070312 8.226563 3.699219 9.957031 6.523437 2.984375 13.179687 5.492188 19.957031 7.527344 3.183594 4.765625 6.183594 9.832031 8.914062 15.074219 3.734376 7.167969 3.578126 15.378906-.414062 21.96875-3.953125 6.515625-10.9375 10.253906-19.160156 10.253906-11.171875 0-15.277344-3.859375-19.339844-11.457031-12.285156-22.976563-29.457031-40.785156-41.699219-51.679688-1.882812-1.675781-2.742187-4.070312-2.355469-6.570312zm223.0625 107.417968h-47.273437v-10.4375c0-12.601562-10.25-22.855468-22.851563-22.855468h-37.867187c-12.601563 0-22.855469 10.253906-22.855469 22.855468v10.4375h-47.628906v-26.957031c4.710938 2.613281 10.773438 4.265625 18.808594 4.265625 13.398437 0 25.363281-6.535156 32.003906-17.484375 2.167969-3.574219 3.664062-7.417969 4.5-11.382812h68.203125c.839844 3.960937 2.335937 7.808593 4.503906 11.382812 6.644531 10.949219 18.605469 17.484375 32.003907 17.484375 7.835937 0 13.792968-1.574218 18.453124-4.070312zm-54.988281-66.582031h-68.140625c-1.613281-4.890625-4.890625-12.640625-5.53125-13.804687 7.90625 1.238281 15.933594 1.867187 24.0625 1.867187h31.078125c8.128907 0 16.167969-.636719 24.058594-1.863281-.636719 1.160156-4.816406 10.289062-5.527344 13.800781zm-194.976562 44.464844v-14.265625c0-19.648438 6.902343-38.230469 19.535156-53.007812 10.898437 9.734374 25.867187 25.269531 36.929687 45.0625v44.328124h-34.347656c-12.195312 0-22.117187-9.921874-22.117187-22.117187zm134.140625 22.117187v-10.4375c0-4.320312 3.515625-7.832031 7.832031-7.832031h37.867187c4.316407 0 7.828126 3.511719 7.828126 7.832031v10.4375zm187.671875-22.117187c0 12.195313-9.921875 22.117187-22.117188 22.117187h-34.707031v-43.683593c11.101562-20.109375 26.289062-35.886719 37.308594-45.726563 12.640625 14.761719 19.515625 33.292969 19.515625 53.027344zm-26.90625-85.300781c.386719 2.5-.472657 4.894531-2.355469 6.570312-12.242188 10.890625-29.414062 28.703125-41.699219 51.679688-4.0625 7.597656-8.167969 11.453125-19.339843 11.453125-8.222657 0-15.207032-3.738281-19.160157-10.253907-3.996093-6.585937-4.148437-14.800781-.414062-21.96875 2.726562-5.230468 5.71875-10.28125 8.890625-15.039062 21.597656-6.445312 41.628906-17.609375 58.847656-32.96875 3.578125 1.613281 7.316406 3.292969 10.957031 4.921875 2.328125 1.042969 3.886719 3.085937 4.273438 5.605469zm63.722656-104.457032c-4.226563 15.839844-18.640625 26.296876-34.320313 26.210938 4.609376-14.019531 7.207032-28.746094 7.648438-43.828125 11.339844-7.21875 12.136719-19.203125 12.375-20.699219 12.070312 8.207032 18.265625 23.4375 14.296875 38.316406zm-29.832031-36.636718c-.984375 5.179687-5.289063 6.507812-6.585938 6.792968-1.347656.296876-6 .914063-9.203125-3.574218-11.285156-15.808594-26.191406-26.199219-44.304687-30.886719-19.699219-5.097656-34.664063-17.851563-45.226563-30.464844h106.453125c1.929688 15.71875 2.898438 36.914063-1.132812 58.132813zm0 0"/></svg>