<svg height="512pt" viewBox="-104 0 512 512" width="512pt" xmlns="http://www.w3.org/2000/svg"><path d="m70.832031 43.839844s-5.699219 52.714844-56.984375 89.6875c-7.027344 5.066406-8.101562 15.121094-2.398437 21.640625.085937.101562.175781.203125.261719.304687 4.179687 4.773438 10.921874 6.34375 16.777343 3.90625 21.804688-9.070312 73.90625-34.675781 100.882813-81.296875-.519532-1.898437-58.539063-34.242187-58.539063-34.242187zm0 0" fill="#f9ee80"/><path d="m129.371094 78.085938c-.515625-1.902344-58.539063-34.246094-58.539063-34.246094s-2.023437 18.679687-14.472656 41.597656c5.820313 4.652344 10.796875 11.53125 12.21875 21.714844 1.359375 9.738281 1.792969 20.359375 1.777344 30.132812 21.074219-13.703125 43.957031-33.179687 59.015625-59.199218zm0 0" fill="#eedb00"/><path d="m214.457031 172.09375h-94.242187l-53.140625 57.972656c-13.621094 14.859375-21.179688 34.285156-21.179688 54.445313v169.53125c0 27.867187 22.59375 50.457031 50.460938 50.457031h141.964843c27.867188 0 50.457032-22.589844 50.457032-50.457031v-169.53125c0-20.160157-7.558594-39.585938-21.179688-54.445313zm0 0" fill="#b0f0ef"/><path d="m249.523438 210.347656-35.066407-38.253906h-94.242187l-53.140625 57.972656c-13.621094 14.859375-21.179688 34.285156-21.179688 54.445313v169.53125c0 27.867187 22.59375 50.457031 50.460938 50.457031h33.957031c-17.132812-21.0625-16.335938-60.632812-16.335938-60.632812s-.355468-61.820313-.421874-110.863282c-.042969-30.945312 19.867187-58.425781 49.324218-67.917968 41.777344-13.460938 71.128906-38.644532 86.644532-54.738282zm0 0" fill="#76e7e7"/><path d="m45.894531 322.675781v131.367188c0 27.867187 22.59375 50.457031 50.460938 50.457031h141.964843c27.867188 0 50.457032-22.589844 50.457032-50.457031v-131.367188zm0 0" fill="#2eddda"/><path d="m167.335938 436.019531c-10.535157 0-19.078126-8.542969-19.078126-19.078125v-267.441406h38.15625v267.441406c0 10.535156-8.542968 19.078125-19.078124 19.078125zm0 0" fill="#f9ee80"/><path d="m148.257812 322.671875v94.265625c0 10.539062 8.542969 19.078125 19.078126 19.078125 10.535156 0 19.078124-8.539063 19.078124-19.078125v-94.265625zm0 0" fill="#eedb00"/><path d="m111.199219 112.019531-24.070313-39.21875c-3.996094-6.507812-11.082031-10.472656-18.71875-10.472656h-15.546875c-11.277343 0-20.417969-9.140625-20.417969-20.417969v-13.992187c0-11.277344 9.140626-20.417969 20.417969-20.417969h154.132813c14.726562 0 28.851562 5.851562 39.261718 16.261719l46.082032 46.082031c5.613281 5.613281 6.058594 14.566406 1.03125 20.710938-4.09375 5.003906-10.863282 6.929687-16.976563 4.832031l-30.503906-10.472657c-8.640625-2.964843-17.636719 3.453126-17.636719 12.589844v14.515625zm0 0" fill="#00c140"/><path d="m214.867188 195.503906h-95.0625c-20.621094 0-37.339844-16.71875-37.339844-37.34375v-17.320312c0-20.625 16.71875-37.34375 37.339844-37.34375h95.0625c20.621093 0 37.339843 16.71875 37.339843 37.34375v17.320312c0 20.625-16.71875 37.34375-37.339843 37.34375zm0 0" fill="#73da8c"/><path d="m131.476562 158.164062v-17.324218c0-20.625 16.71875-37.34375 37.339844-37.34375h-49.007812c-20.625 0-37.34375 16.71875-37.34375 37.34375v17.324218c0 20.621094 16.71875 37.339844 37.34375 37.339844h49.007812c-20.621094 0-37.339844-16.71875-37.339844-37.339844zm0 0" fill="#29ce69"/><path d="m45.894531 322.675781v131.367188c0 27.867187 22.59375 50.457031 50.460938 50.457031h33.957031c-17.132812-21.058594-16.335938-60.628906-16.335938-60.628906s-.359374-61.820313-.421874-110.863282c-.007813-3.496093.242187-6.945312.734374-10.332031zm0 0" fill="#00d2ce"/><path d="m297.640625 64.539062-46.078125-46.078124c-11.90625-11.90625-27.730469-18.460938-44.566406-18.460938h-154.132813c-15.394531 0-27.917969 12.523438-27.917969 27.917969v13.992187c0 28.011719 30.621094 27.914063 30.621094 27.914063-7.460937 17.792969-21.125 39.613281-46.105468 57.621093-5.03125 3.628907-16.324219 16.59375-3.671876 32.644532 9.464844 12.003906 22.8125 7.371094 25.582032 6.214844 9.320312-3.875 25.835937-11.484376 43.59375-23.082032v14.9375c0 13.859375 6.320312 26.265625 16.226562 34.496094l-29.644531 32.339844c-14.929687 16.285156-23.148437 37.421875-23.148437 59.515625v114.449219c0 4.144531 3.355468 7.5 7.5 7.5 4.140624 0 7.5-3.355469 7.5-7.5v-68.789063h87.359374v86.769531c0 14.652344 11.925782 26.578125 26.578126 26.578125 14.65625 0 26.578124-11.925781 26.578124-26.578125v-86.769531h87.363282v123.871094c0 23.6875-19.269532 42.957031-42.957032 42.957031h-141.964843c-23.6875 0-42.960938-19.269531-42.960938-42.957031v-26.996094c0-4.140625-3.355469-7.5-7.5-7.5-4.140625 0-7.5 3.359375-7.5 7.5v26.996094c0 31.957031 26 57.957031 57.960938 57.957031h141.964843c31.957032 0 57.957032-26 57.957032-57.957031v-169.53125c0-22.09375-8.222656-43.230469-23.148438-59.515625l-29.640625-32.34375c9.902344-8.230469 16.222657-20.636719 16.222657-34.492188v-17.324218c0-17.183594-9.726563-32.136719-23.957032-39.660157 0 0-2.574218-12.390625 7.699219-9.167969l30.507813 10.472657c9.03125 3.101562 19.167968.21875 25.214843-7.175781 7.5-9.164063 6.839844-22.390626-1.535156-30.765626zm-272.03125 87.917969c-2.878906 1.199219-6.28125.914063-8.515625-2.226562-3.972656-5.578125-.5-9.4375 1.140625-10.617188 30.300781-21.84375 45.617187-48.800781 53.324219-69.425781 3.765625.851562 7.125 3.191406 9.175781 6.535156l15.828125 25.78125c-7.574219 4.609375-13.667969 11.398438-17.429688 19.488282-21.105468 15.90625-42.570312 25.910156-53.523437 30.464843zm27.785156 162.714844v-30.660156c0-18.328125 6.824219-35.867188 19.207031-49.378907l31.917969-34.816406c4.773438 1.738282 9.921875 2.6875 15.289063 2.6875h20.949218v112.167969zm125.519531-112.167969v112.167969h-23.15625v-112.167969zm0 213.9375c0 6.382813-5.195312 11.578125-11.578124 11.578125-6.382813 0-11.578126-5.195312-11.578126-11.578125v-86.769531h23.15625zm83.15625-181.808594c12.386719 13.511719 19.207032 31.050782 19.207032 49.378907v30.660156h-87.363282v-112.167969h20.953126c5.367187 0 10.519531-.949218 15.296874-2.6875zm25.496094-149.324218c-2.097656 2.558594-5.609375 3.558594-8.738281 2.484375l-30.503906-10.472657c-6.347657-2.175781-13.390625-1.148437-18.851563 2.746094-5.160156 3.683594-8.347656 9.539063-8.683594 15.832032-1.941406-.253907-3.914062-.402344-5.921874-.402344h-12.933594c-4.144532 0-7.5 3.359375-7.5 7.5 0 4.144531 3.355468 7.5 7.5 7.5h12.933594c16.453124 0 29.84375 13.386718 29.84375 29.84375v17.324218c0 16.453126-13.390626 29.839844-29.84375 29.839844h-95.0625c-16.453126 0-29.839844-13.386718-29.839844-29.839844v-17.324218c0-16.457032 13.386718-29.84375 29.839844-29.84375h52.796874c4.144532 0 7.5-3.355469 7.5-7.5 0-4.140625-3.355468-7.5-7.5-7.5h-52.796874c-3.105469 0-6.140626.320312-9.070313.925781l-17.214844-28.042969c-5.320312-8.667968-14.941406-14.050781-25.109375-14.050781h-15.546875c-7.121093 0-12.917969-5.796875-12.917969-12.917969v-13.992187c0-7.125 5.796876-12.917969 12.917969-12.917969h154.132813c12.828125 0 24.890625 4.996094 33.960937 14.066406l46.078125 46.082032c2.902344 2.898437 3.128906 7.480468.53125 10.660156zm0 0"/></svg>