<svg height="512pt" viewBox="-83 0 512 512" width="512pt" xmlns="http://www.w3.org/2000/svg"><path d="m287.304688 208.320312h-227.953126s-41.613281 100.078126-51.738281 245.84375c-1.890625 27.207032 19.652344 50.335938 46.921875 50.335938h237.582032c27.273437 0 48.816406-23.128906 46.925781-50.335938-10.125-145.765624-51.738281-245.84375-51.738281-245.84375zm0 0" fill="#ff8f71"/><path d="m287.304688 208.320312h-227.953126s-41.613281 100.078126-51.738281 245.84375c-1.890625 27.207032 19.652344 50.335938 46.925781 50.335938h30.324219c19.144531-187.144531 55.363281-213.890625 112.765625-211.738281 48.382813 1.8125 91.378906-24.863281 106.328125-35.351563-9.289062-31.375-16.652343-49.089844-16.652343-49.089844zm0 0" fill="#ff6e42"/><path d="m139.714844 52.964844c-29.863282 26.410156-74.140625 71.613281-109.503906 132.988281-11.476563 19.921875 2.996093 44.808594 25.988281 44.808594h234.257812c22.992188 0 37.464844-24.886719 25.988281-44.808594-35.367187-61.375-79.640624-106.578125-109.503906-132.988281-19.203125-16.980469-48.023437-16.980469-67.226562 0zm0 0" fill="#516980"/><path d="m208.769531 165.953125c0 19.84375-16.085937 35.929687-35.925781 35.929687-19.84375 0-35.929688-16.085937-35.929688-35.929687s16.085938-35.929687 35.929688-35.929687c19.839844 0 35.925781 16.085937 35.925781 35.929687zm0 0" fill="#f9ee80"/><path d="m224.167969 112.109375h-51.324219v-104.609375h51.324219c12.71875 0 23.027343 10.308594 23.027343 23.027344v58.554687c0 12.71875-10.308593 23.027344-23.027343 23.027344zm0 0" fill="#b0f0ef"/><path d="m119 114.625v51.328125h-104.609375v-51.328125c0-12.71875 10.308594-23.027344 23.027344-23.027344h58.554687c12.714844 0 23.027344 10.308594 23.027344 23.027344zm0 0" fill="#2eddda"/><path d="m121.515625 219.796875h51.328125v104.605469h-51.328125c-12.71875 0-23.027344-10.308594-23.027344-23.023438v-58.554687c0-12.71875 10.308594-23.027344 23.027344-23.027344zm0 0" fill="#b0f0ef"/><path d="m226.683594 217.277344v-51.324219h104.609375v51.324219c0 12.71875-10.308594 23.027344-23.027344 23.027344h-58.554687c-12.714844.003906-23.027344-10.308594-23.027344-23.027344zm0 0" fill="#2eddda"/><path d="m189.246094 394.378906h-31.835938c-12.746094 0-23.824218 8.757813-26.761718 21.160156l-21.09375 88.960938h127.546874l-21.09375-88.960938c-2.941406-12.402343-14.015624-21.160156-26.761718-21.160156zm0 0" fill="#6a829a"/><path d="m346.527344 453.644531c-6.339844-91.226562-25.136719-165.054687-37.640625-205.855469 16.546875-.332031 29.90625-13.886718 29.90625-30.511718v-51.324219c0-4.144531-3.355469-7.5-7.5-7.5h-22.960938c-15.613281-23.882813-33.628906-47.046875-53.644531-68.960937 0-.136719.007812-.273438.007812-.410157v-25.230469c0-4.140624-3.355468-7.5-7.5-7.5-4.140624 0-7.5 3.359376-7.5 7.5v25.230469c0 8.5625-6.964843 15.527344-15.527343 15.527344h-43.824219v-89.609375h43.824219c8.5625 0 15.527343 6.964844 15.527343 15.527344 0 4.140625 3.359376 7.5 7.5 7.5 4.144532 0 7.5-3.359375 7.5-7.5 0-16.832032-13.691406-30.527344-30.527343-30.527344h-51.324219c-4.144531 0-7.5 3.359375-7.5 7.5v25.777344c-11.304688 1.5625-21.949219 6.421875-30.597656 14.066406-13.003906 11.503906-25.695313 23.855469-37.804688 36.777344-.324218-.007813-.644531-.023438-.96875-.023438h-58.554687c-16.832031 0-30.527344 13.691406-30.527344 30.527344v51.324219c0 4.144531 3.355469 7.5 7.5 7.5h14.503906c-1.765625 2.917969-3.5 5.84375-5.183593 8.761719-6.726563 11.675781-6.710938 25.628906.046874 37.316406 4.222657 7.304687 10.519532 12.773437 17.9375 15.859375-5.507812 16.863281-12.660156 40.988281-19.546874 70.769531-.933594 4.035156 1.582031 8.070312 5.617187 8.996094 5.515625 1.269531 8.195313-2.148438 8.996094-5.617188 7.015625-30.347656 14.304687-54.683594 19.777343-71.277344h34.789063c-.222656 1.488282-.339844 63.117188-.339844 63.117188 0 16.835938 13.695313 30.527344 30.527344 30.527344h51.328125c4.140625 0 7.5-3.355469 7.5-7.5v-86.140625h47.226562c5.566407 5.871093 13.429688 9.542969 22.144532 9.542969h43.472656c12.242188 39.046874 31.902344 113.710937 38.375 206.878906.769531 11.074218-2.976562 21.636718-10.542969 29.75-7.5625 8.105468-17.824219 12.566406-28.902343 12.566406h-49.085938l-19.726562-83.191406c-3.757813-15.855469-17.765626-26.929688-34.0625-26.929688h-31.832032c-16.296875 0-30.300781 11.074219-34.0625 26.929688l-19.722656 83.191406h-49.085938c-11.078124 0-21.339843-4.460938-28.898437-12.5625-7.570313-8.113281-11.316406-18.679688-10.546875-29.753906 2.644531-38.085938 7.71875-76.503906 15.074219-114.1875.792969-4.066406-1.859375-8.003906-5.925781-8.796875-4.070313-.792969-8.003907 1.855469-8.796876 5.921875-7.476562 38.285156-12.628906 77.320312-15.316406 116.023437-1.042968 15.042969 4.257813 29.996094 14.542969 41.023438 10.277344 11.015625 24.804687 17.332031 39.867187 17.332031h237.578126c15.0625 0 29.589843-6.316406 39.867187-17.332031 10.285156-11.023438 15.585937-25.976563 14.542969-41.023438zm-122.359375-334.035156c10.523437 0 19.816406-5.351563 25.308593-13.472656 14.882813 16.820312 28.550782 34.339843 40.816407 52.316406h-74.683594c-3.140625-17.945313-17.324219-32.128906-35.265625-35.269531v-3.574219zm-51.324219 74.773437c-15.675781 0-28.429688-12.753906-28.429688-28.429687s12.753907-28.429687 28.429688-28.429687 28.429688 12.753906 28.429688 28.429687-12.753907 28.429687-28.429688 28.429687zm-28.160156-135.800781c5.890625-5.210937 13.035156-8.675781 20.660156-10.105469v74.710938c-17.945312 3.136719-32.128906 17.320312-35.269531 35.265625h-3.578125v-43.828125c0-10.609375-5.441406-19.96875-13.679688-25.441406 10.289063-10.699219 20.964844-20.960938 31.867188-30.601563zm-122.792969 56.042969c0-8.5625 6.964844-15.527344 15.527344-15.527344h58.554687c8.5625 0 15.527344 6.964844 15.527344 15.527344v43.828125h-89.609375zm34.308594 108.636719c-8.117188 0-15.390625-4.203125-19.457031-11.238281-4.042969-6.996094-4.054688-15.339844-.03125-22.324219 3.121093-5.421875 6.417968-10.867188 9.808593-16.246094h83.554688c3.140625 17.945313 17.324219 32.125 35.269531 35.265625v3.578125h-43.828125c-9.394531 0-17.808594 4.265625-23.414063 10.964844zm49.789062 78.117187v-58.554687c0-8.5625 6.964844-15.527344 15.527344-15.527344h43.828125v89.609375h-43.828125c-8.5625-.003906-15.527344-6.96875-15.527344-15.527344zm74.355469-78.117187v-14.542969c17.941406-3.140625 32.128906-17.320312 35.265625-35.265625h3.578125s.203125 47.871094.589844 49.808594zm53.839844-5.984375v-43.824219h89.609375v43.824219c0 8.5625-6.964844 15.527344-15.527344 15.527344h-58.554687c-8.558594.003906-15.527344-6.964844-15.527344-15.527344zm-115.144532 279.722656 18.90625-79.730469c2.148438-9.0625 10.152344-15.390625 19.464844-15.390625h31.835938c9.3125 0 17.316406 6.328125 19.464844 15.390625l18.90625 79.730469zm0 0"/></svg>