<svg height="511pt" viewBox="0 -5 511.99989 511" width="511pt" xmlns="http://www.w3.org/2000/svg"><path d="m162.210938 82.191406c53.984374 22.734375 71.882812 102.578125 49.148437 156.558594-22.734375 53.984375-84.921875 79.316406-138.90625 56.582031-53.980469-22.734375-79.3125-84.921875-56.578125-138.902343 22.730469-53.984376 92.355469-96.96875 146.335938-74.238282zm0 0" fill="#00a62c"/><path d="m349.785156 82.191406c-53.980468 22.734375-71.878906 102.578125-49.144531 156.558594 22.730469 53.984375 84.921875 79.316406 138.902344 56.582031s79.316406-84.921875 56.582031-138.902343c-22.734375-53.984376-92.355469-96.96875-146.339844-74.238282zm0 0" fill="#29ce69"/><path d="m326.152344 277.789062c-25.273438 10.519532-45.128906 40.582032-57.171875 63.488282-5.351563 10.179687-20.609375 10.179687-25.960938 0-12.042969-22.90625-31.898437-52.96875-57.171875-63.488282 0 .660157-53.203125 27.847657-53.203125 27.847657s44.109375 36.183593 44.109375 85.273437v64.304688c0 20.882812 17.832032 37.8125 39.832032 37.8125h78.824218c22 0 39.835938-16.929688 39.835938-37.8125v-64.304688c0-49.089844 44.105468-85.273437 44.105468-85.273437s-53.199218-27.1875-53.199218-27.847657zm0 0" fill="#f9ee80"/><path d="m379.355469 305.636719s-53.203125-27.1875-53.203125-27.847657c-25.273438 10.519532-45.128906 40.578126-57.171875 63.488282-5.351563 10.179687-20.609375 10.179687-25.960938 0-12.042969-22.910156-31.898437-52.96875-57.171875-63.488282 0 .660157-53.203125 27.847657-53.203125 27.847657s44.109375 36.183593 44.109375 85.273437c0 0 27.910156-9.441406 71.945313-12.183594 64.84375-4.035156 106.296875-45.601562 106.304687-45.609374 11.734375-17.128907 24.351563-27.480469 24.351563-27.480469zm0 0" fill="#eedb00"/><path d="m398.019531 131.433594c-12.285156-7.78125-21.492187-19.691406-25.230469-33.746094-13.746093-51.640625-60.820312-89.6875-116.789062-89.6875s-103.046875 38.046875-116.789062 89.6875c-3.742188 14.054688-12.945313 25.964844-25.230469 33.746094-29.996094 19.003906-49.625 52.894531-48.464844 91.296875 1.667969 55.089843 46.75 99.757812 101.855469 100.945312 21.523437.464844 41.601562-5.597656 58.394531-16.34375 18.382813-11.765625 42.085937-11.765625 60.46875 0 16.792969 10.746094 36.871094 16.808594 58.394531 16.34375 55.105469-1.1875 100.183594-45.855469 101.851563-100.945312 1.164062-38.402344-18.464844-72.292969-48.460938-91.296875zm0 0" fill="#73da8c"/><path d="m256 8c-55.96875 0-103.046875 38.046875-116.789062 89.6875-3.742188 14.054688-12.945313 25.964844-25.230469 33.746094-29.996094 19.003906-49.625 52.894531-48.464844 91.296875 1.667969 55.09375 46.75 99.757812 101.855469 100.949219 8.96875.191406 17.6875-.75 26.023437-2.6875-43.671875-68.804688-23.242187-135.089844-9.839843-164.28125 4.722656-10.292969 8.46875-21.027344 10.742187-32.121094 18.570313-90.746094 124.148437-98.152344 125.722656-98.257813-18.554687-11.605469-40.519531-18.332031-64.019531-18.332031zm0 0" fill="#29ce69"/><path d="m303.398438 409.21875c-4.140626 0-7.496094 3.355469-7.496094 7.5v12.449219c0 4.140625 3.355468 7.496093 7.496094 7.496093 4.144531 0 7.5-3.355468 7.5-7.496093v-12.449219c0-4.144531-3.355469-7.5-7.5-7.5zm0 0"/><path d="m208.597656 409.21875c-4.140625 0-7.496094 3.355469-7.496094 7.5v12.449219c0 4.140625 3.355469 7.496093 7.496094 7.496093 4.144532 0 7.5-3.355468 7.5-7.496093v-12.449219c0-4.144531-3.355468-7.5-7.5-7.5zm0 0"/><path d="m271.507812 419.523438c-1.269531-.832032-6.882812-2.992188-10.386718 2.152343-1.679688 2.464844-4.128906 2.761719-5.121094 2.761719-.996094 0-3.484375-.269531-5.121094-2.761719-2.277344-3.464843-6.925781-4.425781-10.386718-2.152343-3.460938 2.273437-4.425782 6.921874-2.152344 10.382812 3.921875 5.96875 10.519531 9.53125 17.660156 9.53125 7.136719 0 13.738281-3.5625 17.65625-9.53125 2.273438-3.457031 1.3125-8.109375-2.148438-10.382812zm0 0"/><path d="m503.035156 153.515625c-10.660156-25.316406-31.386718-48.988281-56.863281-64.941406-25.046875-15.679688-51.972656-22.453125-76.488281-19.363281-21.792969-41.511719-65.273438-68.710938-113.683594-68.710938s-91.890625 27.195312-113.683594 68.710938c-24.832031-3.136719-52.078125 3.835937-77.386718 19.929687-3.492188 2.222656-4.523438 6.859375-2.300782 10.351563 1.425782 2.25 5.996094 5 10.351563 2.304687 20.917969-12.945313 42.726562-19.484375 62.863281-18.148437-1.476562 3.941406-2.777344 7.980468-3.878906 12.113281-3.179688 11.949219-10.992188 22.367187-21.996094 29.335937-16.09375 10.195313-29.402344 24.417969-38.492188 41.125-9.402343 17.289063-14.054687 36.90625-13.453124 56.734375.769531 25.421875 10.167968 49.527344 26.65625 68.835938-35.136719-11.046875-52.40625-32.644531-62.335938-57.023438-9.933594-24.382812-9.777344-51.167969.441406-75.429687 5.785156-13.738282 15.066406-27.175782 26.84375-38.867188 2.9375-2.917968 2.953125-7.667968.035156-10.605468-2.917968-2.941407-7.664062-2.957032-10.601562-.039063-13.152344 13.058594-23.5625 28.164063-30.101562 43.6875-11.769532 27.957031-11.953126 58.820313-.507813 86.910156 11.441406 28.089844 33.136719 50.046875 61.09375 61.816407 11.542969 4.863281 23.652344 7.738281 36.023437 8.617187 11.632813 8.210937 24.640626 14.082031 38.394532 17.34375 11.902344 14.65625 25.289062 36.878906 25.289062 62.707031v64.300782c0 24.988281 21.234375 45.3125 47.332032 45.3125h78.828124c26.097657 0 47.332032-20.324219 47.332032-45.3125v-64.300782c0-25.890625 13.484375-48.171875 25.285156-62.707031 13.753906-3.261719 26.765625-9.128906 38.398438-17.34375 12.371093-.878906 24.480468-3.753906 36.027343-8.617187 27.953125-11.769532 49.652344-33.726563 61.09375-61.816407 11.441407-28.089843 11.257813-58.953125-.515625-86.910156zm-175.289062 237.394531v64.304688c0 16.714844-14.503906 30.3125-32.332032 30.3125h-78.828124c-17.828126 0-32.332032-13.597656-32.332032-30.3125v-64.304688c0-23.46875-9.171875-44.03125-19.585937-59.820312.847656.035156 28.074219 2.253906 55.976562-12.191406 5.433594 7.652343 10.714844 16.316406 15.738281 25.867187 3.773438 7.183594 11.289063 11.644531 19.617188 11.644531 8.324219 0 15.84375-4.460937 19.617188-11.644531 5.019531-9.546875 10.300781-18.210937 15.738281-25.863281 28.664062 15.449218 55.132812 12.222656 55.976562 12.1875-10.371093 15.734375-19.585937 36.324218-19.585937 59.820312zm-94.03125-79.503906c13.941406-7.183594 30.628906-7.183594 44.570312 0-5.523437 7.902344-10.871094 16.734375-15.941406 26.378906-1.769531 3.363282-5.304688 3.625-6.34375 3.625-1.042969 0-4.574219-.261718-6.34375-3.625-5.070312-9.644531-10.417969-18.480468-15.941406-26.378906zm193.601562-19.613281c16.492188-19.308594 25.890625-43.414063 26.660156-68.835938.417969-13.820312-1.65625-27.375-6.164062-40.285156-1.367188-3.910156-5.640625-5.972656-9.554688-4.605469-3.90625 1.367188-5.96875 5.640625-4.605468 9.550782 3.902344 11.171874 5.695312 22.910156 5.332031 34.886718-.746094 24.714844-10.929687 48.007813-28.667969 65.589844-17.742187 17.578125-41.125 27.554688-65.851562 28.089844-19.289063.410156-38.039063-4.828125-54.1875-15.167969-20.824219-13.324219-47.730469-13.328125-68.554688 0-16.152344 10.339844-34.894531 15.167969-54.191406 15.167969-37.640625 0-62.636719-24.910156-65.847656-28.089844-17.742188-17.582031-27.921875-40.875-28.671875-65.589844-1.042969-34.550781 15.769531-66.226562 44.980469-84.734375 14.203124-8.992187 24.3125-22.542969 28.464843-38.152343 13.183594-49.527344 58.226563-84.117188 109.542969-84.117188s96.359375 34.589844 109.542969 84.117188c4.152343 15.605468 14.261719 29.15625 28.460937 38.152343 10.484375 6.640625 19.484375 15.109375 26.761719 25.171875 2.425781 3.355469 7.113281 4.109375 10.46875 1.683594 3.359375-2.429688 4.113281-7.117188 1.683594-10.472656-8.394531-11.613282-18.789063-21.386719-30.886719-29.050782-11.003906-6.972656-18.816406-17.394531-21.996094-29.339843-1.101562-4.132813-2.402344-8.171875-3.882812-12.109375 19.859375-1.3125 41.546875 4.792968 62.058594 17.636718 22.921874 14.351563 41.511718 35.507813 51.003906 58.050782 21.089844 50.082031-3.300782 110.675781-61.898438 132.453125zm0 0"/></svg>