<svg height="512pt" viewBox="0 -27 512.00042 512" width="512pt" xmlns="http://www.w3.org/2000/svg"><path d="m131.640625 105.050781s-21.492187 3.140625-36.46875-14.183593c-12.710937-14.703126-31.035156-32.199219-68.101563-23.757813-13.476562 3.070313-22.046874 16.484375-18.921874 29.945313 4.578124 19.71875 16.222656 46.871093 45.207031 58.71875 47.847656 19.566406 90.335937-9.464844 90.335937-9.464844zm0 0" fill="#f3c23b"/><path d="m53.351562 155.773438c31.878907 13.035156 61.375 4.5 77.515626-2.648438-51.511719-47.609375-122.71875-56.070312-122.71875-56.070312 4.578124 19.71875 16.222656 46.871093 45.203124 58.71875zm0 0" fill="#ff83b4"/><path d="m380.363281 105.050781s21.488281 3.140625 36.464844-14.183593c12.710937-14.703126 31.035156-32.199219 68.101563-23.757813 13.476562 3.066406 22.046874 16.480469 18.921874 29.945313-4.574218 19.71875-16.222656 46.871093-45.203124 58.71875-47.851563 19.566406-90.335938-9.464844-90.335938-9.464844zm0 0" fill="#fad989"/><path d="m458.648438 155.773438c-31.878907 13.035156-61.375 4.5-77.515626-2.648438 51.511719-47.609375 122.71875-56.070312 122.71875-56.070312-4.574218 19.71875-16.222656 46.871093-45.203124 58.71875zm0 0" fill="#ff83b4"/><path d="m143.691406 99.484375s-14.59375-35.96875-3.855468-79.265625c1.859374-7.5 8.675781-12.71875 16.40625-12.71875h.40625c8.332031 0 15.351562 5.953125 16.773437 14.085938 3.367187 19.234374 12.289063 52.601562 34.558594 63.699218-1.761719 1.875-64.289063 14.199219-64.289063 14.199219zm0 0" fill="#5ad6ff"/><path d="m368.3125 99.484375s14.59375-35.96875 3.851562-79.265625c-1.859374-7.5-8.675781-12.71875-16.40625-12.71875h-.40625c-8.328124 0-15.351562 5.953125-16.773437 14.085938-3.363281 19.234374-12.289063 52.601562-34.558594 63.699218 1.761719 1.875 64.292969 14.199219 64.292969 14.199219zm0 0" fill="#a4e7ff"/><path d="m418.816406 176.644531c0 89.921875-47.386718 246.722657-162.816406 246.722657s-162.8125-156.800782-162.8125-246.722657 72.890625-134.34375 162.8125-134.34375 162.816406 44.425781 162.816406 134.34375zm0 0" fill="#ffeab7"/><path d="m291.726562 44.785156c-11.492187-1.65625-23.457031-2.484375-35.726562-2.484375-89.917969 0-162.8125 44.421875-162.8125 134.34375s47.382812 246.722657 162.8125 246.722657c27.359375 0 50.890625-8.804688 70.878906-23.441407 3.167969-79.257812-39.207031-118.324219-71.578125-136.371093-25.027343-13.953126-40.253906-40.589844-40.375-69.242188-.496093-117.972656 71.371094-147.464844 76.800781-149.527344zm0 0" fill="#fad989"/><path d="m256 42.300781c-26.167969 0-50.886719 3.757813-72.792969 11.308594 0 0-9.207031 67.265625 54.792969 90.941406 28.570312 10.566407 51.972656 11.699219 69.128906 9.714844 18.042969-2.089844 35.75 6.398437 45.574219 21.679687 10.492187 16.320313 29.421875 34.457032 63.199219 42.300782 1.960937-14.785156 2.914062-28.863282 2.914062-41.601563 0-89.917969-72.894531-134.34375-162.816406-134.34375zm0 0" fill="#6a829a"/><path d="m183.207031 53.609375s-7.585937 55.074219 38.234375 82.964844c17.738282-70.402344 65.882813-90.117188 70.285156-91.789063-11.492187-1.65625-23.457031-2.484375-35.726562-2.484375-26.167969 0-50.886719 3.757813-72.792969 11.308594zm0 0" fill="#516980"/><path d="m367.246094 363.660156c0-48.203125-49.808594-87.28125-111.246094-87.28125s-111.246094 39.078125-111.246094 87.28125 49.808594 87.28125 111.246094 87.28125 111.246094-39.078125 111.246094-87.28125zm0 0" fill="#ffabcd"/><path d="m226.570312 279.46875c-47.15625 10.121094-81.816406 43.980469-81.816406 84.191406 0 41.050782 36.125 75.484375 84.792969 84.796875 1.242187-11.859375 5.464844-28.449219 15.726563-51.4375 25.402343-56.910156-8.65625-105.148437-18.703126-117.550781zm0 0" fill="#ff83b4"/><path d="m223.523438 348.109375c-11.617188-11.617187-27.996094-14.074219-36.585938-5.488281-8.585938 8.589844-6.128906 24.96875 5.488281 36.585937 11.617188 11.621094 28 14.078125 36.585938 5.488281 8.589843-8.585937 6.132812-24.96875-5.488281-36.585937zm0 0" fill="#3e4f61"/><path d="m288.472656 348.117188c-11.621094 11.617187-14.078125 28-5.488281 36.585937 8.585937 8.585937 24.96875 6.128906 36.585937-5.488281 11.617188-11.617188 14.074219-28 5.488282-36.585938-8.589844-8.589844-24.96875-6.132812-36.585938 5.488282zm0 0" fill="#516980"/><path d="m191.980469 262.726562c0-13.183593-13.421875-23.867187-29.972657-23.867187-16.554687 0-29.972656 10.683594-29.972656 23.867187 0 13.183594 13.417969 23.867188 29.972656 23.867188 16.550782 0 29.972657-10.683594 29.972657-23.867188zm0 0" fill="#ffb3dd"/><path d="m379.964844 262.726562c0-13.183593-13.417969-23.867187-29.972656-23.867187-16.550782 0-29.96875 10.683594-29.96875 23.867187 0 13.183594 13.417968 23.867188 29.96875 23.867188 16.554687 0 29.972656-10.683594 29.972656-23.867188zm0 0" fill="#ffb3dd"/><path d="m100.710938 130.269531c-4.890626 13.816407-7.527344 29.273438-7.527344 46.375 0 26.183594 4.019531 58.035157 12.5625 90.035157 69.332031-93.855469-5.03125-136.410157-5.035156-136.410157zm0 0" fill="#516980"/><path d="m336.65625 222.175781c-4.144531 0-7.5 3.355469-7.5 7.5v12.449219c0 4.140625 3.355469 7.5 7.5 7.5 4.140625 0 7.5-3.359375 7.5-7.5v-12.449219c0-4.144531-3.359375-7.5-7.5-7.5zm0 0"/><path d="m175.347656 222.175781c-4.144531 0-7.5 3.355469-7.5 7.5v12.449219c0 4.140625 3.355469 7.5 7.5 7.5 4.140625 0 7.496094-3.359375 7.496094-7.5v-12.449219c0-4.144531-3.355469-7.5-7.496094-7.5zm0 0"/><path d="m181.636719 337.320312c-11.496094 11.5-9.035157 32.667969 5.488281 47.191407 8.367188 8.367187 18.9375 12.730469 28.59375 12.730469 7.109375 0 13.726562-2.367188 18.601562-7.242188 11.5-11.496094 9.035157-32.667969-5.488281-47.191406-6.746093-6.746094-15.132812-11.164063-23.621093-12.4375-9.183594-1.375-17.777344 1.15625-23.574219 6.949218zm42.078125 42.074219c-5.554688 5.554688-17.453125 3.039063-25.980469-5.488281-4.429687-4.425781-7.417969-9.980469-8.207031-15.238281-.394532-2.605469-.558594-7.464844 2.71875-10.742188 2.339844-2.339843 5.488281-2.925781 8.046875-2.925781 1.019531 0 1.949219.09375 2.691406.207031 5.257813.789063 10.8125 3.78125 15.242187 8.207031 8.527344 8.53125 11.042969 20.425782 5.488282 25.980469zm0 0"/><path d="m306.789062 330.371094c-8.484374 1.273437-16.875 5.691406-23.621093 12.4375-14.523438 14.523437-16.984375 35.695312-5.488281 47.191406 4.757812 4.757812 11.402343 7.316406 18.714843 7.316406 1.589844 0 3.214844-.121094 4.859375-.367187 8.484375-1.273438 16.875-5.6875 23.621094-12.4375 14.523438-14.523438 16.984375-35.695313 5.488281-47.191407-5.792969-5.792968-14.390625-8.324218-23.574219-6.949218zm15.6875 28.296875c-.789062 5.257812-3.78125 10.8125-8.210937 15.238281-4.425781 4.429688-9.980469 7.417969-15.238281 8.207031-2.601563.394531-7.464844.558594-10.738282-2.71875-5.554687-5.554687-3.042968-17.453125 5.484376-25.980469 4.429687-4.425781 9.984374-7.417968 15.242187-8.207031 2.605469-.394531 7.464844-.558593 10.738281 2.71875 3.277344 3.277344 3.113282 8.136719 2.722656 10.742188zm0 0"/><path d="m507.046875 74.324219c-4.644531-7.421875-11.910156-12.582031-20.449219-14.527344-38.886718-8.855469-59.957031 8.257813-75.441406 26.164063-3.0625 3.546874-6.710938 6.316406-10.871094 8.292968-5.304687-6.980468-11.398437-13.441406-18.265625-19.335937 2.042969-14.226563 2.902344-34.425781-2.574219-56.503907-2.6875-10.84375-12.429687-18.414062-23.6875-18.414062h-.40625c-11.941406 0-22.101562 8.535156-24.160156 20.292969-1.113281 6.363281-3.023437 15.207031-6.125 24.175781-20.773437-6.378906-44.003906-9.667969-69.066406-9.667969s-48.289062 3.289063-69.066406 9.667969c-3.097656-8.96875-5.011719-17.8125-6.125-24.175781-2.058594-11.757813-12.21875-20.292969-24.160156-20.292969h-.410157c-11.253906 0-20.996093 7.570312-23.683593 18.414062-5.476563 22.078126-4.621094 42.277344-2.574219 56.503907-6.867188 5.894531-12.960938 12.355469-18.265625 19.335937-4.160156-1.976562-7.808594-4.746094-10.871094-8.292968-15.480469-17.90625-36.550781-35.019532-75.4375-26.164063-8.542969 1.945313-15.804688 7.105469-20.453125 14.527344-4.601563 7.347656-6.058594 16.019531-4.109375 24.425781 5.105469 22.003906 17.867188 50.964844 49.671875 63.964844 2.828125 1.160156 16.273437 6.121094 17.992187-1.910156 1.785157-8.351563-9.914062-10.988282-12.316406-11.972657-20.921875-8.554687-31.832031-26.113281-37.515625-42.332031 15.417969 3.183594 44.289063 10.824219 73.019531 27.328125-3.980468 13.261719-6.011718 27.585937-6.011718 42.816406 0 47.898438 13.578125 124.140625 51.71875 182.339844-2.09375 30.804687 19.957031 99.457031 118.597656 99.457031 35.308594 0 68.53125-12.378906 91.148438-33.960937 2.996093-2.859375 3.105468-7.605469.246093-10.601563-2.855469-2.996094-7.605469-3.109375-10.601562-.25-19.855469 18.945313-49.304688 29.8125-80.792969 29.8125-57.207031 0-103.746094-35.789062-103.746094-79.78125 0-43.992187 46.539063-79.78125 103.746094-79.78125 57.203125 0 103.746094 35.789063 103.746094 79.78125 0 9.691406-2.25 19.164063-6.679688 28.15625-1.832031 3.714844-.304687 8.210938 3.410156 10.042969 3.71875 1.832031 8.214844.300781 10.042969-3.414063 5.457031-11.074218 8.578125-22.4375 8.078125-39.464843 57.863282-89.375 51.660156-186.765625 51.574219-188.957031 12.191406-.25 24.042969-2.699219 35.3125-7.308594 31.800781-13.003906 44.5625-41.960938 49.671875-63.964844 1.953125-8.402344.492188-17.078125-4.109375-24.425781zm-84.542969 21.449219c12.296875-14.226563 27.808594-27.074219 60.761719-21.351563 12.054687 2.09375 13.535156 13.214844 13.695313 16.097656-13.433594 2.308594-47.25 9.628907-81.871094 29.023438-1.902344-4.382813-4.050782-8.621094-6.429688-12.714844 5.230469-2.777344 9.871094-6.464844 13.84375-11.054687zm-76.539062-72.894532c.800781-4.566406 4.746094-7.878906 9.386718-7.878906h.40625c4.351563 0 8.101563 2.890625 9.128907 7.027344 3.921875 15.808594 4.207031 30.578125 3.226562 42.417968-8.835937-5.839843-18.5-10.851562-28.898437-15 3.433594-9.925781 5.535156-19.617187 6.75-26.566406zm20.628906 58.847656c29.257812 22.191407 44.722656 55.011719 44.722656 94.917969 0 9.882813-.621094 20.703125-1.863281 32.089844-22.089844-6.761719-39.042969-19.121094-50.4375-36.84375-11.335937-17.628906-32.035156-27.472656-52.75-25.074219-20.480469 2.371094-42.574219-.761718-65.664063-9.300781-24-8.878906-39.695312-25.328125-46.644531-48.882813-3.628906-12.3125-3.863281-23.546874-3.636719-29.519531 19.589844-6.144531 41.691407-9.3125 65.679688-9.3125 44.8125 0 83.054688 11.039063 110.59375 31.925781zm-219.480469-59.703124c1.027344-4.132813 4.78125-7.023438 9.128907-7.023438h.40625c4.640624 0 8.585937 3.3125 9.386718 7.878906 1.214844 6.949219 3.316406 16.640625 6.75 26.566406-10.398437 4.148438-20.0625 9.15625-28.898437 15-.980469-11.839843-.691407-26.609374 3.226562-42.421874zm-132.070312 68.496093c.15625-2.882812 1.039062-5.707031 2.621093-8.234375 2.515626-4.019531 6.449219-6.8125 11.070313-7.863281 32.617187-7.429687 48.464844 7.125 60.761719 21.347656 3.96875 4.59375 8.613281 8.277344 13.84375 11.054688-2.378906 4.097656-4.527344 8.335937-6.429688 12.714843-34.621094-19.390624-68.433594-26.710937-81.867187-29.019531zm111.417969 88.535157c4.273437 20.65625-1.5625 43.9375-17.347657 69.355468-5.699219-25.863281-8.429687-50.898437-8.429687-71.765625 0-11.976562 1.402344-23.308593 4.144531-33.914062 7.4375 6.582031 17.980469 18.644531 21.632813 36.324219zm129.539062 89.824218c-54.09375 0-99.851562 29.023438-114.128906 68.582032-12.011719-21.402344-21.234375-45.386719-27.878906-69.378907 26.089843-36.484375 34.558593-70.035156 25.152343-99.765625-6.597656-20.847656-20.65625-34.4375-29.226562-40.867187 7.46875-18.066407 19.382812-33.507813 35.484375-45.722657 8.886718-6.738281 18.890625-12.445312 29.867187-17.09375.144531 7.210938 1.066407 17.023438 4.128907 27.644532 5.675781 19.707031 20 45.988281 56 59.304687 25.320312 9.367188 49.742187 12.773438 72.589843 10.132813 15.0625-1.742188 30.144531 5.433594 38.40625 18.285156 9.640625 14.996094 27.941407 34.304688 61.085938 43.804688-5.683594 37.335937-17.839844 78.90625-37.351563 113.660156-14.273437-39.5625-60.03125-68.585938-114.128906-68.585938zm199.808594-120.046875c-9.855469 4.03125-20.238282 6.109375-30.9375 6.210938-1.003906-7.335938-2.527344-14.417969-4.566406-21.214844 28.664062-16.457031 57.578124-24.117187 73.015624-27.316406-5.6875 16.21875-16.59375 33.769531-37.511718 42.320312zm0 0"/></svg>