<svg height="511pt" viewBox="0 -44 511.9993 511" width="511pt" xmlns="http://www.w3.org/2000/svg"><path d="m285.941406 118h-147.277344c-35.382812 0-66.101562 24.378906-74.136718 58.839844l-21.679688 92.992187 70.800782 74.972657h248.714843zm0 0" fill="#29ce69"/><path d="m185.257812 118h-46.59375c-35.382812 0-66.101562 24.378906-74.136718 58.839844l-21.679688 92.992187 70.800782 74.972657h28.015624zm0 0" fill="#6a829a"/><path d="m285.941406 118h-147.277344c-26.871093 0-51.039062 14.070312-64.636718 35.929688h224.019531zm0 0" fill="#f9ee80"/><path d="m249.894531 285.109375 46.652344-258.460937h178.289063v291.160156zm0 0" fill="#73da8c"/><path d="m284.882812 91.261719s86.78125-3.410157 127.261719 36.519531c18.355469 18.105469 42.152344 27.5 62.691407 32.359375v-133.492187h-178.289063zm0 0" fill="#29ce69"/><path d="m273.570312 153.929688h109.957032c14.867187 0 27.277344-11.339844 28.617187-26.148438l7.472657-82.539062h-126.429688zm0 0" fill="#a4e7ff"/><path d="m293.1875 45.242188-8.304688 46.019531s86.78125-3.410157 127.261719 36.519531l7.46875-82.539062zm0 0" fill="#5ad6ff"/><path d="m106.027344 239.269531c-42.109375 0-78.535156 24.792969-95.453125 60.546875-9.890625 20.898438 5.34375 44.988282 28.464843 44.988282h133.976563c23.125 0 38.359375-24.089844 28.46875-44.988282-16.917969-35.753906-53.347656-60.546875-95.457031-60.546875zm0 0" fill="#b9ecc2"/><path d="m464.082031 344.804688c24.582031 0 43.621094-21.808594 39.964844-46.117188-7.097656-47.210938-34.269531-113.402344-128.34375-113.402344-93.722656 0-121.042969 65.691406-128.265625 112.867188-3.753906 24.515625 15.085938 46.652344 39.890625 46.652344zm0 0" fill="#b9ecc2"/><path d="m474.835938 317.808594c0 54.75-44.386719 99.132812-99.136719 99.132812s-99.132813-44.382812-99.132813-99.132812 44.382813-99.132813 99.132813-99.132813 99.136719 44.382813 99.136719 99.132813zm0 0" fill="#516980"/><path d="m178.171875 344.804688c0 39.839843-32.300781 72.140624-72.144531 72.140624-39.839844 0-72.140625-32.300781-72.140625-72.140624 0-39.84375 32.300781-72.140626 72.140625-72.140626 39.84375 0 72.144531 32.296876 72.144531 72.140626zm0 0" fill="#516980"/><path d="m467.558594 62.078125h-183.714844c-14.929688 0-27.035156-12.105469-27.035156-27.039063 0-14.933593 12.105468-27.039062 27.035156-27.039062h183.710938c14.933593 0 27.039062 12.105469 27.039062 27.039062 0 14.933594-12.101562 27.039063-27.035156 27.039063zm0 0" fill="#f9ee80"/><path d="m321.363281 35.039062c0-14.933593 12.105469-27.039062 27.035157-27.039062h-64.554688c-14.929688 0-27.035156 12.105469-27.035156 27.039062 0 14.933594 12.105468 27.039063 27.035156 27.039063h64.554688c-14.929688 0-27.035157-12.105469-27.035157-27.039063zm0 0" fill="#f4e74d"/><path d="m136.820312 344.804688c0 17.003906-13.785156 30.789062-30.792968 30.789062-17.003906 0-30.789063-13.785156-30.789063-30.789062 0-17.007813 13.785157-30.789063 30.789063-30.789063 17.007812 0 30.792968 13.78125 30.792968 30.789063zm0 0" fill="#3e4f61"/><path d="m423.257812 317.808594c0 26.265625-21.292968 47.554687-47.558593 47.554687-26.261719 0-47.554688-21.289062-47.554688-47.554687 0-26.261719 21.292969-47.554688 47.554688-47.554688 26.265625 0 47.558593 21.292969 47.558593 47.554688zm0 0" fill="#3e4f61"/><path d="m97.453125 184.898438h-34.804687l-7.738282 33.195312h42.542969c9.167969 0 16.597656-7.429688 16.597656-16.597656 0-9.167969-7.429687-16.597656-16.597656-16.597656zm0 0" fill="#ffbe73"/><path d="m511.464844 297.570312c-3.199219-21.285156-10.90625-49.429687-29.128906-73.089843v-158.234375c11.667968-5.546875 19.757812-17.449219 19.757812-31.207032 0-19.042968-15.492188-34.539062-34.539062-34.539062h-19.46875c-4.144532 0-7.5 3.359375-7.5 7.5s3.355468 7.5 7.5 7.5h19.46875c10.773437 0 19.539062 8.765625 19.539062 19.539062 0 10.773438-8.765625 19.539063-19.539062 19.539063h-183.710938c-10.769531 0-19.535156-8.765625-19.535156-19.539063 0-10.773437 8.765625-19.539062 19.535156-19.539062h134.257812c4.144532 0 7.5-3.359375 7.5-7.5s-3.355468-7.5-7.5-7.5h-134.257812c-19.042969 0-34.535156 15.492188-34.535156 34.539062 0 18.152344 14.078125 33.066407 31.886718 34.425782l-7.40625 41.035156h-135.125c-39.074218 0-72.5625 26.582031-81.4375 64.636719l-18.40625 78.941406c-14.746093 10.910156-26.921874 25.398437-35.027343 42.53125-5.304688 11.207031-5.035157 23.914063.738281 34.855469 4.789062 9.078125 12.640625 15.703125 22.066406 18.832031 2.835938 41.359375 37.363282 74.148437 79.429688 74.148437 41.386718 0 75.484375-31.734374 79.277344-72.140624h89.492187c14.367187 41.917968 54.171875 72.140624 100.902344 72.140624 47.40625 0 87.675781-31.097656 101.507812-73.957031 10.242188-2.894531 19.214844-9.113281 25.605469-17.839843 7.453125-10.171876 10.523438-22.628907 8.652344-35.078126zm-303.203125-.960937c-9.132813-19.304687-23.4375-35.246094-40.757813-46.5l17.042969-88.679687h80.046875l-22.078125 122.332031c-1.039063 4.625-1.855469 9.074219-2.492187 13.257812-2.316407 15.117188 2.761718 29.835938 12.585937 40.285157h-48.835937c10.578124-12.386719 9.796874-29.488282 4.488281-40.695313zm71.578125-135.179687h103.6875c18.871094 0 34.386718-14.175782 36.085937-32.96875l5.332031-58.882813h42.390626v138.820313c-20.359376-17.984376-49.613282-30.613282-91.636719-30.613282-54.433594 0-87.441407 21.207032-107.433594 47.757813zm2.707031-15 13.871094-76.855469h113.464843l-5.207031 57.53125c-.996093 11.015625-10.089843 19.320312-21.148437 19.320312h-100.980469zm-143.882813-20.929688h132.417969l-3.777343 20.929688h-178.070313c12.570313-13.054688 30.167969-20.929688 49.429687-20.929688zm-70.0625 66.898438h28.851563c5.019531 0 9.101563 4.082031 9.101563 9.097656s-4.082032 9.097656-9.101563 9.097656h-33.09375zm-7.742187 33.195312h36.59375c13.289063 0 24.101563-10.808594 24.101563-24.097656 0-13.289063-10.8125-24.097656-24.101563-24.097656h-25.328125c1.421875-5.667969 3.507812-11.019532 6.175781-15.96875h90.972657l-15.570313 81.011718c-14.707031-6.886718-30.941406-10.671875-47.671875-10.671875-17.34375 0-34.148438 4.0625-49.273438 11.433594zm45.167969 183.851562c-35.644532 0-64.640625-29-64.640625-64.640624 0-19.988282 9.03125-38.539063 24.777343-50.894532 3.261719-2.554687 3.828126-7.269531 1.273438-10.527344-2.558594-3.257812-7.273438-3.828124-10.53125-1.273437-16.566406 13-27.09375 31.570313-29.8125 52.054687-3.878906-2.222656-7.105469-5.542968-9.296875-9.695312-3.550781-6.726562-3.710937-14.542969-.445313-21.445312 16.167969-34.171876 50.976563-56.25 88.675782-56.25 37.699218 0 72.507812 22.078124 88.675781 56.25 3.265625 6.902343 5.964844 23.796874-9.765625 31.15625-5.210938-38.90625-38.601562-69.015626-78.910156-69.015626-6.800782 0-13.554688.859376-20.078125 2.554688-4.011719 1.042969-6.414063 5.136719-5.375 9.144531 1.042969 4.007813 5.140625 6.417969 9.144531 5.371094 5.296875-1.375 10.78125-2.070313 16.308594-2.070313 35.644531 0 64.644531 28.996094 64.644531 64.640626 0 35.640624-29 64.640624-64.644531 64.640624zm269.675781 0c-50.527344 0-91.636719-41.105468-91.636719-91.632812s41.105469-91.636719 91.636719-91.636719c50.523437 0 91.632813 41.105469 91.632813 91.636719 0 50.523438-41.109376 91.632812-91.632813 91.632812zm105.628906-77.035156c.65625-4.773437 1.003907-9.648437 1.003907-14.597656 0-58.800781-47.835938-106.636719-106.636719-106.636719-58.796875 0-106.632813 47.835938-106.632813 106.636719 0 4.953125.347656 9.824219 1.003906 14.601562-10.910156-6.785156-17.273437-19.726562-15.21875-33.125 3.046876-19.910156 10.714844-48.273437 29.933594-70.332031 20.914063-24.003906 51.503906-36.171875 90.914063-36.171875 39.546875 0 70.203125 12.25 91.121093 36.40625 19.195313 22.167969 26.808594 50.632813 29.8125 70.609375 1.976563 13.15625-4.480468 25.898438-15.300781 32.609375zm0 0"/><path d="m106.027344 306.515625c-21.109375 0-38.289063 17.175781-38.289063 38.289063 0 21.109374 17.179688 38.289062 38.289063 38.289062 21.113281 0 38.292968-17.179688 38.292968-38.289062 0-21.113282-17.179687-38.289063-38.292968-38.289063zm0 61.578125c-12.839844 0-23.289063-10.449219-23.289063-23.289062 0-12.84375 10.449219-23.292969 23.289063-23.292969 12.84375 0 23.292968 10.449219 23.292968 23.292969 0 12.839843-10.449218 23.289062-23.292968 23.289062zm0 0"/><path d="m375.703125 262.753906c-30.359375 0-55.058594 24.699219-55.058594 55.054688 0 30.359375 24.699219 55.054687 55.058594 55.054687 30.355469 0 55.054687-24.695312 55.054687-55.054687 0-30.355469-24.699218-55.054688-55.054687-55.054688zm0 95.109375c-22.085937 0-40.058594-17.96875-40.058594-40.054687 0-22.085938 17.972657-40.054688 40.058594-40.054688s40.054687 17.96875 40.054687 40.054688c0 22.085937-17.96875 40.054687-40.054687 40.054687zm0 0"/></svg>