<svg height="511pt" viewBox="0 -37 511.99996 511" width="511pt" xmlns="http://www.w3.org/2000/svg"><path d="m276.074219 430.4375h-75.105469c-9.015625 0-16.324219-7.308594-16.324219-16.328125 0-9.011719 7.308594-16.324219 16.324219-16.324219h62.75l18.496094-65.558594c2.445312-8.679687 11.46875-13.730468 20.140625-11.28125 8.679687 2.449219 13.726562 11.46875 11.28125 20.144532l-21.851563 77.453125c-1.984375 7.035156-8.402344 11.894531-15.710937 11.894531zm0 0" fill="#ff9000"/><path d="m87.585938 120.464844s40.933593 5.246094 39.957031 56.324218c-.980469 51.078126-27.171875 193.835938 164.039062 193.835938 184.058594 0 191.125-129.21875 189.902344-145.480469l-246.21875-82.40625c-26.195313-99.535156-43.21875-134.894531-98.226563-134.894531-55.003906 0-57.339843 56.132812-57.339843 56.132812zm0 0" fill="#f4e74d"/><path d="m481.484375 225.304688-193.789063-64.859376-84.160156 64.789063s-10.777344 66.5625 45.914063 103.011719c24.078125 15.480468 41.78125 30.351562 54.195312 42.34375 172.304688-5.523438 179.035157-129.390625 177.839844-145.285156zm0 0" fill="#eedb00"/><path d="m392.792969 237.910156 84.800781-21.953125c16.882812-4.371093 31.714844 12.144531 25.476562 28.433594-11.558593 30.183594-38.617187 67.289063-101.710937 64.375.253906.070313-8.566406-70.855469-8.566406-70.855469zm0 0" fill="#dfca00"/><path d="m374.175781 204.636719 76.597657-42.496094c15.253906-8.460937 33.746093 3.816406 31.789062 21.144531-3.628906 32.121094-20.53125 74.820313-82.339844 87.804688.257813 0-26.046875-66.453125-26.046875-66.453125zm0 0" fill="#eedb00"/><path d="m79.675781 64.148438c-11.085937 7.625-34.027343 21.46875-65.5 30.449218-7.753906 2.210938-9.101562 12.601563-2.164062 16.710938 14.640625 8.671875 36.914062 17.996094 58.265625 13.304687 17.820312-3.910156 31.992187-7.605469 41.78125-10.347656 6.3125-1.769531 8.785156-9.503906 4.535156-14.496094-4.613281-5.414062-8.847656-12.707031-8.433594-20.964843.296875-5.917969-1.980468-10.136719-5.132812-13.128907-6.347656-6.023437-16.140625-6.484375-23.351563-1.527343zm0 0" fill="#ffa93f"/><path d="m203.019531 206.246094c-1.632812 31.027344 6.066407 66.484375 40.917969 89.902344 8.214844 5.519531 19.273438 3.945312 25.605469-3.664063 6.480469-7.792969 13.5-16.460937 13.5-16.460937s17.3125 30.90625 51.40625 44.863281c26.4375 10.828125 35.832031-16.28125 35.832031-16.28125s29.484375 24.605469 69.367188 26.933593c14.171874.824219 25.726562-11.300781 24.21875-25.417968-4.640626-43.367188-21.726563-134.089844-84.191407-164.3125-35.683593-17.265625-70.378906-19.722656-98.375-16.898438-42.472656 4.289063-76.035156 38.703125-78.28125 81.335938zm0 0" fill="#fcf5af"/><path d="m339.917969 430.4375h-75.109375c-9.015625 0-16.324219-7.308594-16.324219-16.328125 0-9.011719 7.308594-16.324219 16.324219-16.324219h62.753906l15.882812-57.644531c2.445313-8.675781 11.464844-13.726563 20.140626-11.277344 8.679687 2.449219 13.726562 11.46875 11.28125 20.144531l-19.238282 69.535157c-1.984375 7.035156-8.402344 11.894531-15.710937 11.894531zm0 0" fill="#ffa93f"/><path d="m133.011719 51.722656v12.433594c0 4.132812 3.355469 7.488281 7.5 7.488281 4.140625 0 7.5-3.355469 7.5-7.488281v-12.433594c0-4.136718-3.359375-7.488281-7.5-7.488281-4.144531 0-7.5 3.351563-7.5 7.488281zm0 0"/><path d="m504.621094 217.457031c-5.140625-5.753906-12.1875-9.105469-19.605469-9.613281 2.375-7.472656 4.058594-15.394531 5-23.714844 1.21875-10.804687-3.644531-21.265625-12.699219-27.304687-9.078125-6.058594-20.640625-6.535157-30.179687-1.242188l-23.417969 12.992188c-11.765625-14.863281-25.390625-26.074219-40.773438-33.515625-31.707031-15.34375-66.160156-21.269532-102.398437-17.609375-14.59375 1.472656-28.457031 6.332031-40.597656 13.871093-24.378907-90.839843-42.96875-130.820312-102.910157-130.820312-32.140624 0-48.148437 17.425781-55.917968 32.046875-5.785156 10.886719-7.832032 21.71875-8.542969 27.339844-11.417969 7.519531-32.4375 19.503906-60.460937 27.5-6.519532 1.859375-11.105469 7.183593-11.972657 13.898437-.867187 6.710938 2.214844 13.027344 8.046875 16.476563 20.371094 12.066406 37.265625 15.609375 50.089844 15.609375 12.351562 0 24.28125-3.828125 29.511719-5.082032 30.917969 14.359376 31.578125 24.699219 31.578125 63.726563 0 25.148437-3.21875 59.5 7.125 92.574219 12.511718 40.011718 40.160156 67.550781 82.175781 81.851562.804687.273438 7.167969 2.109375 9.519531-4.683594 1.355469-3.914062-.761718-8.179687-4.683594-9.515624-86.195312-29.339844-79.15625-110.695313-79.15625-159.417969 0-52.332031-8.308593-55.777344-23.605468-70.417969 7.964844-2.523438 13.082031-6.625 14.742187-12.074219 1.644531-5.390625.453125-11.15625-3.183593-15.425781-4.664063-5.472656-6.902344-10.765625-6.652344-15.726562.371094-7.410157-2.210938-13.960938-7.460938-18.945313-5.21875-4.953125-12.207031-7.277344-19.160156-6.890625 3.71875-14.46875 14.851562-37.84375 48.007812-37.84375 25.25 0 40.808594 7.773438 53.707032 26.828125 13.652344 20.164063 24.085937 52.765625 36.253906 98.640625-9.410156 8.324219-17.207031 18.507812-22.695312 30.105469-1.769532 3.742187-.171876 8.214843 3.570312 9.988281s8.21875.171875 9.988281-3.570312c11.847657-25.03125 36.445313-42.316407 64.191407-45.117188 33.4375-3.371094 65.183593 2.070312 94.355468 16.1875 60.019532 29.042969 75.941406 120.417969 79.996094 158.359375.484375 4.53125-1.046875 9.027344-4.199219 12.339844-3.152343 3.308593-7.570312 5.050781-12.121093 4.789062-36.792969-2.148437-64.730469-24.980469-64.996094-25.203125-1.894532-1.578125-4.445313-2.128906-6.816406-1.46875-2.371094.660156-4.269532 2.445313-5.078126 4.773438-.03125.089844-3.460937 9.179687-10.839843 12.511718-4.261719 1.925782-9.1875 1.691407-15.066407-.714843-31.121093-12.746094-47.546874-41.316407-47.699218-41.589844-1.21875-2.171875-3.429688-3.597656-5.910156-3.808594-2.46875-.210937-4.898438.820313-6.464844 2.753907-.070313.085937-7.0625 8.722656-13.4375 16.382812-3.878906 4.667969-10.613282 5.625-15.65625 2.234375-26.914063-18.085937-39.570313-46.105469-37.613282-83.28125.21875-4.136719-2.957031-7.664063-7.09375-7.882813-4.109374-.210937-7.667968 2.957032-7.882812 7.09375-2.222656 42.210938 13.066406 75.585938 44.222656 96.523438 11.453125 7.695312 26.738282 5.507812 35.558594-5.09375 2.429688-2.917969 4.945312-5.980469 7.140625-8.660156 8.097656 10.902344 31.800781 36.457031 57.601563 41.738281-5.042969 5.402344-10.183594 30.808594-10.183594 30.808594-12.0625 1.398437-24.917969 2.113281-38.289063 2.113281-18.382812 0-35.398437-1.371094-50.566406-4.074219-4.074219-.722656-7.972656 1.992188-8.699219 6.070313-.726562 4.078125 1.992188 7.972656 6.070313 8.699218 7.414062 1.320313 15.238281 2.324219 23.398437 3.039063l-3.742187 13.273437h-57.074219c-13.136719 0-23.824219 10.6875-23.824219 23.824219s10.6875 23.824219 23.824219 23.824219h138.949219c10.617187 0 20.042969-7.140625 22.9375-17.394531l14.945312-54.007813c21.117188-6.59375 39.683594-16.015625 55.257813-28.039062 2.023437.226562 19.996094 3.59375 30.007812-8.886719 9.957032-12.414063 7.792969-28.453125 7.519532-30.660156 17.546874-11.835938 30.828124-29.265625 39.488281-51.875 3.886719-10.152344 1.796875-21.5-5.453125-29.617188zm-414.085938-149.195312c2.699219 0 10.132813 1.957031 10.132813 10.167969 0 18.671874 10.472656 27.527343 10.472656 27.527343-.097656.316407-24.183594 7.316407-42.46875 11.332031-20.210937 4.4375-41.78125-5.886718-52.839844-12.433593-.628906-.375-.902343-.929688-.8125-1.652344.09375-.722656.503907-1.191406 1.210938-1.394531 32.597656-9.300782 56.40625-23.714844 67.695312-31.480469 2.015625-1.382813 4.335938-2.066406 6.609375-2.066406zm235.054688 308.445312-3.742188 13.578125h-14.296875l3.53125-12.515625c4.925781-.257812 9.773438-.605469 14.507813-1.0625zm-30.230469 1.546875-3.394531 12.035156h-18.335938l3.46875-12.292968c4.734375.1875 17.003906.269531 18.261719.257812zm-103.214844 35.855469c0-4.863281 3.960938-8.824219 8.824219-8.824219h41.71875c-1.09375 2.734375-1.703125 5.707032-1.703125 8.824219s.609375 6.09375 1.703125 8.824219h-41.71875c-4.863281 0-8.824219-3.957032-8.824219-8.824219zm175.492188-67.101563-19.226563 69.5c-1.066406 3.785157-4.5625 6.425782-8.492187 6.425782h-75.105469c-4.867188 0-8.824219-3.957032-8.824219-8.820313 0-4.867187 3.957031-8.824219 8.824219-8.824219h62.75c3.375 0 6.332031-2.253906 7.230469-5.507812l15.871093-57.601562c.640626-2.269532 3.222657-7.984376 10.886719-6.097657 7.664063 1.890625 6.738281 8.621094 6.085938 10.925781zm14.910156 2.074219c1.070313-5.519531.117187-19.789062-15.140625-26.839843 2.203125-2.113282 4.007812-4.367188 5.433594-6.484376 8 5.371094 22.027344 13.515626 39.867187 18.65625-9.140625 5.726563-19.222656 10.628907-30.160156 14.667969zm71.863281-180.382812c4.679688-2.59375 10.128906-2.367188 14.582032.601562 4.425781 2.953125 6.710937 7.867188 6.117187 13.144531-2.207031 19.542969-8.648437 35.980469-19.179687 49.046876-1.667969-5.078126-3.496094-10.167969-5.503907-15.222657-5.238281-13.1875-11.230469-24.992187-17.945312-35.402343zm41.65625 73.007812c-6.496094 16.96875-15.867187 30.503907-27.914062 40.378907-1.742188-10.453126-4.082032-21.90625-7.222656-33.722657 7.441406-7.484375 13.578124-16.226562 18.320312-26.007812 0 0 9.144531-.660157 14.1875 5.097656 3.503906 4.003906 4.527344 9.296875 2.628906 14.253906zm0 0"/></svg>