<svg height="511pt" viewBox="1 -2 511.99918 511" width="511pt" xmlns="http://www.w3.org/2000/svg"><path d="m402.710938 177.820312c-22.863282 1.695313-43.871094-8.445312-57.011719-25.238281-6.265625-8.007812-17.1875-10.355469-26.445313-6.15625-29.859375 13.550781-67.195312 22.191407-91.753906-2.363281-19.75-19.753906-27.171875-47.164062-22.269531-72.671875 2.546875-13.238281-5.351563-26.269531-18.222657-30.269531-38.183593-11.871094-75.269531-22.425782-107.015624-31.050782-42.789063-11.625-82.050782 27.628907-70.421876 70.421876 31.285157 115.136718 87.945313 300.648437 140.6875 353.390624 78.183594 78.183594 204.941407 78.183594 283.125 0 62.859376-62.859374 71.941407-155.554687 36.945313-232.277343-11.949219-26.203125-27.53125-37.847657-44.253906-29.933594-7.140625 3.382813-15.011719 5.53125-23.363281 6.148437zm0 0" fill="#73da8c"/><path d="m27.167969 22.257812c-15.539063 13.628907-23.792969 35.429688-17.597657 58.230469 31.289063 115.140625 87.945313 300.652344 140.691407 353.394531 78.179687 78.183594 204.941406 78.183594 283.121093 0zm0 0" fill="#29ce69"/><path d="m399.429688 215.902344c-16.679688-2.53125-32.253907 8.941406-34.78125 25.621094l-15.566407 102.648437-102.648437 15.566406c-16.679688 2.527344-28.152344 18.101563-25.621094 34.78125 2.527344 16.679688 18.101562 28.152344 34.78125 25.625l147.148438-22.3125 22.3125-147.148437c2.527343-16.679688-8.945313-32.253906-25.625-34.78125zm0 0" fill="#29ce69"/><path d="m402.742188 397.832031-53.660157-53.660156-102.648437 15.566406c-16.679688 2.527344-28.152344 18.101563-25.621094 34.78125 2.527344 16.679688 18.101562 28.152344 34.78125 25.625zm0 0" fill="#00a62c"/><path d="m495.570312 490.660156c-11.929687 11.929688-31.273437 11.929688-43.203124 0l-197.839844-197.839844c-11.929688-11.933593-11.929688-31.273437 0-43.203124 11.929687-11.929688 31.273437-11.929688 43.203125 0l197.839843 197.839843c11.929688 11.929688 11.929688 31.273438 0 43.203125zm0 0" fill="#b9ecc2"/><path d="m446.371094 163.53125c-7.613282-2.785156-15.742188-2.3125-23.503906 1.363281-6.5 3.078125-13.46875 4.910157-20.714844 5.445313-19.550782 1.453125-38.445313-6.917969-50.546875-22.382813-8.3125-10.621093-22.890625-14.0625-35.453125-8.359375-37.660156 17.085938-65.703125 16.804688-83.347656-.839844-17.273438-17.273437-24.824219-41.925781-20.207032-65.953124 3.265625-16.988282-6.777344-33.691407-23.363281-38.847657-33.488281-10.410156-69.582031-20.882812-107.273437-31.125-22.722657-6.175781-46.234376.082031-62.890626 16.738281s-22.914062 40.164063-16.738281 62.886719c7.648438 28.144531 15.480469 55.585938 23.269531 81.558594 1.191407 3.96875 5.375 6.21875 9.339844 5.027344 3.972656-1.1875 6.21875-5.371094 5.027344-9.339844-7.753906-25.847656-15.546875-53.160156-23.160156-81.179687-4.425782-16.277344-.542969-33.074219 10.367187-45.648438l217.273438 217.269531c-9.835938 14.773438-8.246094 34.960938 4.773437 47.980469l46.546875 46.546875-50.457031 7.648437c-20.746094 3.148438-35.0625 22.582032-31.917969 43.324219 3.144531 20.742188 22.582031 35.058594 43.324219 31.914063l105.886719-16.054688 39.128906 39.128906c-35.566406 24.742188-78.675781 36.78125-122.292969 33.992188-46.730468-2.988281-90.726562-22.894531-123.878906-56.042969-30.257812-30.261719-67.183594-113.292969-106.789062-240.117187-1.238282-3.953125-5.441407-6.160156-9.398438-4.925782-3.953125 1.234376-6.160156 5.441407-4.921875 9.394532 40.902344 130.980468 78.078125 213.828125 110.503906 246.253906 35.730469 35.730469 83.152344 57.183594 133.527344 60.40625 47.90625 3.066406 95.25-10.480469 134.011719-38.199219l34.566406 34.566407c14.835938 14.835937 38.972656 14.835937 53.808594.003906 14.835937-14.835938 14.835937-38.976563 0-53.8125l-35.648438-35.648438c19.320313-29.675781 30.566406-64.488281 32.550782-100.890625 1.972656-36.175781-5.15625-73.21875-20.621094-107.121093-8.609375-18.882813-18.964844-30.644532-30.78125-34.960938zm-191.902344 249.195312c-6.085938.921876-23.542969-1.71875-26.242188-19.332031-2.699218-17.613281 13.246094-25.320312 19.332032-26.242187l61.386718-9.308594 40.484376 40.484375zm235.796875 40.035157c8.988281 8.984375 8.988281 23.609375 0 32.59375-8.984375 8.988281-23.605469 8.988281-32.59375 0l-197.839844-197.839844c-8.988281-8.988281-8.988281-23.609375-.003906-32.59375 8.988281-8.988281 23.609375-8.988281 32.597656 0zm-26.757813-248.042969c14.460938 31.703125 21.132813 66.3125 19.289063 100.078125-1.785156 32.6875-11.59375 63.960937-28.4375 90.84375l-91.605469-91.605469 9.308594-61.386718c3.976562-17.289063 20.15625-20.253907 26.242188-19.332032 12.566406 1.90625 21.238281 13.679688 19.332031 26.242188l-11.480469 75.71875c-.621094 4.09375 2.195312 7.917968 6.292969 8.539062 2.449219.371094 6.738281-.609375 8.539062-6.292968l11.480469-75.714844c3.144531-20.742188-11.171875-40.175782-31.914062-43.324219-10.050782-1.523437-37.496094.824219-43.324219 31.914063l-7.652344 50.460937-46.546875-46.546875c-13.019531-13.019531-33.203125-14.609375-47.976562-4.777344l-216.457032-216.453125c11.621094-7.308593 25.707032-9.503906 39.429688-5.773437 37.519531 10.195312 73.4375 20.617187 106.753906 30.972656 9.28125 2.886719 14.90625 12.210938 13.085938 21.691406-5.558594 28.917969 3.535156 58.597656 24.332031 79.390625 22.203125 22.203125 56.835937 23.550781 100.152343 3.894531 6.238282-2.828124 13.410157-1.207031 17.441407 3.945313 15.191406 19.414063 38.917969 29.917969 63.46875 28.097656 9.089843-.671875 17.847656-2.976562 26.023437-6.847656 4.167969-1.972656 8.070313-2.246094 11.9375-.835937 7.679688 2.808593 15.59375 12.433593 22.285156 27.101562zm0 0"/></svg>