<svg height="512pt" viewBox="0 -50 512 511" width="512pt" xmlns="http://www.w3.org/2000/svg"><path d="m465.042969 291.703125h-418.085938c-21.792969 0-39.457031-17.664063-39.457031-39.457031v-52.542969c0-21.792969 17.664062-39.457031 39.457031-39.457031h418.085938c21.792969 0 39.457031 17.664062 39.457031 39.457031v52.542969c0 21.792968-17.664062 39.457031-39.457031 39.457031zm0 0" fill="#f2ad9a"/><path d="m465.042969 160.246094h-418.085938c-21.792969 0-39.457031 17.664062-39.457031 39.457031v52.542969s5.878906-26.273438 39.457031-26.273438h418.085938c33.148437 0 39.457031 26.273438 39.457031 26.273438v-52.542969c0-21.792969-17.664062-39.457031-39.457031-39.457031zm0 0" fill="#e7896e"/><path d="m191.582031 404.113281h-86.425781c-17.28125 0-31.289062-14.003906-31.289062-31.285156v-273.109375c0-16.109375 6.242187-31.589844 17.410156-43.199219l39.476562-41.027343c9.617188-9.988282 25.609375-9.988282 35.226563 0l39.476562 41.027343c11.167969 11.609375 17.40625 27.089844 17.40625 43.199219v273.109375c.003907 17.28125-14.003906 31.285156-31.28125 31.285156zm0 0" fill="#ffeab7"/><path d="m406.84375 404.113281h-86.425781c-17.277344 0-31.285157-14.003906-31.285157-31.285156v-273.109375c0-16.109375 6.238282-31.589844 17.40625-43.199219l39.480469-41.027343c9.613281-9.988282 25.609375-9.988282 35.222657 0l39.480468 41.027343c11.167969 11.609375 17.40625 27.089844 17.40625 43.199219v273.109375c0 17.28125-14.007812 31.285156-31.285156 31.285156zm0 0" fill="#ffeab7"/><g fill="#6a829a"><path d="m121.703125 225.976562c0 8.28125-6.71875 15-15 15-8.285156 0-15-6.71875-15-15 0-8.285156 6.714844-15 15-15 8.28125 0 15 6.714844 15 15zm0 0"/><path d="m205.035156 225.976562c0 8.28125-6.714844 15-15 15s-15-6.71875-15-15c0-8.285156 6.714844-15 15-15s15 6.714844 15 15zm0 0"/><path d="m336.964844 225.976562c0 8.28125-6.714844 15-15 15s-15-6.71875-15-15c0-8.285156 6.714844-15 15-15s15 6.714844 15 15zm0 0"/><path d="m420.296875 225.976562c0 8.28125-6.714844 15-15 15-8.28125 0-15-6.71875-15-15 0-8.285156 6.71875-15 15-15 8.285156 0 15 6.714844 15 15zm0 0"/></g><path d="m391.65625 26.316406v139.085938c0 12.835937 10.40625 23.238281 23.238281 23.238281s23.238281-10.402344 23.238281-23.238281v-65.683594c0-16.109375-6.242187-31.589844-17.410156-43.199219zm0 0" fill="#fad989"/><path d="m165.980469 15.492188c-7.542969-7.835938-19.007813-9.527344-28.242188-5.070313v129.496094c0 12.835937 10.40625 23.238281 23.238281 23.238281 12.832032 0 23.238282-10.402344 23.238282-23.238281v-105.476563zm0 0" fill="#fad989"/><path d="m129.9375 296.421875c-12.832031 0-23.234375 10.402344-23.234375 23.238281v84.453125h46.472656v-84.453125c0-12.835937-10.402343-23.238281-23.238281-23.238281zm0 0" fill="#fad989"/><path d="m352.59375 362.699219c-12.832031 0-23.238281-10.40625-23.238281-23.238281v-24.519532c0-12.832031 10.40625-23.238281 23.238281-23.238281s23.234375 10.40625 23.234375 23.238281v24.519532c0 12.835937-10.402344 23.238281-23.234375 23.238281zm0 0" fill="#fad989"/><path d="m106.699219 248.476562c12.40625 0 22.5-10.09375 22.5-22.5s-10.09375-22.5-22.5-22.5c-12.402344 0-22.5 10.09375-22.5 22.5s10.097656 22.5 22.5 22.5zm0-30c4.136719 0 7.5 3.363282 7.5 7.5 0 4.132813-3.363281 7.5-7.5 7.5-4.132813 0-7.5-3.367187-7.5-7.5 0-4.136718 3.367187-7.5 7.5-7.5zm0 0"/><path d="m212.535156 225.976562c0-12.40625-10.09375-22.5-22.5-22.5s-22.5 10.09375-22.5 22.5 10.09375 22.5 22.5 22.5 22.5-10.09375 22.5-22.5zm-30 0c0-4.136718 3.363282-7.5 7.5-7.5 4.136719 0 7.5 3.363282 7.5 7.5 0 4.132813-3.363281 7.5-7.5 7.5-4.136718 0-7.5-3.367187-7.5-7.5zm0 0"/><path d="m344.464844 225.976562c0-12.40625-10.09375-22.5-22.5-22.5s-22.5 10.09375-22.5 22.5 10.09375 22.5 22.5 22.5 22.5-10.09375 22.5-22.5zm-30 0c0-4.136718 3.363281-7.5 7.5-7.5 4.136718 0 7.5 3.363282 7.5 7.5 0 4.132813-3.363282 7.5-7.5 7.5-4.136719 0-7.5-3.367187-7.5-7.5zm0 0"/><path d="m405.300781 203.476562c-12.40625 0-22.5 10.09375-22.5 22.5s10.09375 22.5 22.5 22.5c12.402344 0 22.5-10.09375 22.5-22.5s-10.097656-22.5-22.5-22.5zm0 30c-4.136719 0-7.5-3.367187-7.5-7.5 0-4.136718 3.363281-7.5 7.5-7.5 4.132813 0 7.5 3.363282 7.5 7.5 0 4.132813-3.367187 7.5-7.5 7.5zm0 0"/><path d="m352.59375 284.203125c-16.949219 0-30.738281 13.789063-30.738281 30.738281v24.519532c0 16.949218 13.789062 30.738281 30.738281 30.738281 16.945312 0 30.734375-13.789063 30.734375-30.738281v-24.519532c0-16.949218-13.789063-30.738281-30.734375-30.738281zm15.734375 55.257813c0 8.679687-7.058594 15.738281-15.734375 15.738281-8.679688 0-15.738281-7.0625-15.738281-15.738281v-24.519532c0-8.679687 7.058593-15.738281 15.738281-15.738281 8.675781 0 15.734375 7.0625 15.734375 15.738281zm0 0"/><path d="m465.042969 152.746094h-19.410157v-53.027344c0-18.140625-6.929687-35.328125-19.503906-48.398438l-39.480468-41.023437c-6.078126-6.316406-14.25-9.796875-23.015626-9.796875-8.769531 0-16.941406 3.480469-23.019531 9.796875l-39.476562 41.023437c-12.578125 13.070313-19.503907 30.257813-19.503907 48.398438v53.027344h-51.269531v-53.027344c0-18.140625-6.925781-35.328125-19.503906-48.398438l-39.476563-41.023437c-6.078124-6.316406-14.25-9.796875-23.019531-9.796875-8.765625 0-16.9375 3.480469-23.015625 9.796875l-39.480468 41.023437c-12.574219 13.070313-19.503907 30.257813-19.503907 48.398438v10.324219c0 4.140625 3.359375 7.5 7.5 7.5 4.144531 0 7.5-3.359375 7.5-7.5v-10.324219c0-14.242188 5.441407-27.738281 15.316407-38l33.554687-34.871094v113.074219c0 16.945313 13.789063 30.734375 30.738281 30.734375 16.949219 0 30.738282-13.789062 30.738282-30.734375v-86.871094l8.339843 8.671875c9.875 10.261719 15.3125 23.753906 15.3125 37.996094v273.109375c0 13.117187-10.671875 23.785156-23.785156 23.785156h-30.90625v-76.953125c0-16.949218-13.789063-30.738281-30.734375-30.738281-16.949219 0-30.738281 13.789063-30.738281 30.738281v76.199219c-10.242188-2.648437-17.832031-11.96875-17.832031-23.03125v-232.703125c0-4.140625-3.355469-7.5-7.5-7.5-4.144532 0-7.5 3.359375-7.5 7.5v12.621094h-19.410157c-25.894531 0-46.957031 21.0625-46.957031 46.957031v52.542969c0 25.894531 21.0625 46.957031 46.957031 46.957031h19.410157v73.625c0 21.386719 17.402343 38.785156 38.789062 38.785156h86.425781c21.386719 0 38.785157-17.398437 38.785157-38.785156v-73.625h51.265624v73.625c0 21.386719 17.398438 38.785156 38.785157 38.785156h86.425781c21.386719 0 38.789062-17.398437 38.789062-38.785156v-205.082031h19.410157c17.621093 0 31.957031 14.335937 31.957031 31.957031v52.542969c0 15.796875-11.300781 29.070312-26.867188 31.554687-4.089843.652344-6.890624 4.503907-6.222656 8.589844 1.175782 7.238281 8.1875 6.289063 8.585938 6.222656 22.890625-3.65625 39.503906-23.15625 39.503906-46.367187v-52.542969c0-25.894531-21.0625-46.957031-46.957031-46.957031zm-288.328125-12.828125c0 8.679687-7.0625 15.738281-15.738282 15.738281-8.675781 0-15.738281-7.0625-15.738281-15.738281v-124.121094c1.023438-.1875 8.019531-2.222656 15.339844 4.898437l16.136719 16.769532zm-129.757813 144.285156c-17.621093 0-31.957031-14.335937-31.957031-31.957031v-52.542969c0-17.621094 14.335938-31.957031 31.957031-31.957031h19.410157v116.457031zm67.242188 112.410156v-76.953125c0-8.679687 7.0625-15.738281 15.738281-15.738281s15.738281 7.0625 15.738281 15.738281v76.953125zm116.167969-112.410156v-116.457031h51.265624v116.457031zm200.265624-184.484375v65.683594c0 8.679687-7.0625 15.738281-15.738281 15.738281s-15.738281-7.058594-15.738281-15.738281v-120.476563l16.164062 16.792969c9.871094 10.261719 15.3125 23.757812 15.3125 38zm-23.789062 296.894531h-86.425781c-13.113281 0-23.785157-10.667969-23.785157-23.785156v-273.109375c0-14.242188 5.4375-27.738281 15.3125-38l39.480469-41.023438c3.222657-3.351562 7.558594-5.195312 12.207031-5.195312 4.648438 0 8.984376 1.84375 12.207032 5.195312l8.316406 8.640626v136.066406c0 16.949218 13.789062 30.738281 30.738281 30.738281 5.746094 0 11.128907-1.589844 15.738281-4.347656v181.035156c0 13.117187-10.671874 23.785156-23.789062 23.785156zm0 0"/></svg>