<svg height="511pt" viewBox="-5 0 511 511.99977" width="511pt" xmlns="http://www.w3.org/2000/svg"><path d="m305.878906 433.433594c-59.234375 59.234375-191.1875 126.390625-274.992187-3.558594-52.492188-81.390625-9.0625-179.214844 71.164062-203.320312 206.371094-62.015626 196.414063-208.199219 300.722657-163.039063 165.226562 71.53125-37.660157 310.683594-96.894532 369.917969zm0 0" fill="#b18cd9"/><path d="m413.566406 68.695312-77.773437 75.128907s-27.433594 54.683593-26.25 109.285156c2.664062 122.996094-129.574219 153.25-194.929688 130.453125-59.519531-20.761719-82.558593-63.175781-92.132812-89.898438-20.300781 40.027344-20.949219 90.691407 8.40625 136.210938 83.804687 129.949219 215.757812 62.792969 274.992187 3.558594 57.875-57.875 252.890625-287.511719 107.6875-364.738282zm0 0" fill="#996acc"/><path d="m493.515625 140.003906c4.976563-58.671875-47.402344-92.242187-47.402344-92.242187s-48.101562-39.457031-102.371093-16.609375c-20.75 8.738281-37.34375 13.503906-49.929688 16.058594-12.066406 2.453124-15.875 17.898437-6.207031 25.523437 10.378906 8.191406 23.585937 16.605469 38.503906 21.589844 10.671875 3.566406 16.75 14.910156 13.90625 25.796875-3.003906 11.5-5.601563 26.386718-4.371094 41.585937 1.460938 18.09375 18.53125 30.5 36.195313 26.304688 14.835937-3.523438 28.195312-10.589844 38.203125-16.996094 9.476562-6.066406 22.144531-3.785156 28.828125 5.261719 9.347656 12.652344 21.425781 22.613281 32.421875 29.960937 10.238281 6.839844 23.753906-1.550781 22.359375-13.785156-1.453125-12.757813-2.042969-30.015625-.136719-52.449219zm0 0" fill="#73da8c"/><path d="m389.867188 137.867188c3.3125 14.050781 1.207031 34.640624-10.546876 48.042968 11.824219-3.824218 22.429688-9.589844 30.71875-14.894531 9.476563-6.066406 22.144532-3.785156 28.828126 5.261719 9.347656 12.652344 21.429687 22.613281 32.421874 29.960937 10.238282 6.839844 23.757813-1.550781 22.363282-13.785156-1.453125-12.761719-2.042969-30.015625-.140625-52.449219 4.976562-58.671875-47.398438-92.246094-47.398438-92.246094s-2.546875-2.085937-7.125-5.019531l-41.140625 41.140625s-15.550781 21.84375-7.980468 53.988282zm0 0" fill="#29ce69"/><path d="m408.152344 99.992188c-11.71875-8.519532-14.316406-24.925782-5.796875-36.648438l32.738281-45.042969c8.519531-11.722656 24.925781-14.320312 36.648438-5.800781 11.71875 8.519531 14.316406 24.925781 5.796874 36.648438l-32.738281 45.046874c-8.519531 11.71875-24.925781 14.316407-36.648437 5.796876zm0 0" fill="#b9ecc2"/><path d="m269.71875 171.929688c-8.828125-7.214844-20.640625-7.363282-26.382812-.332032-5.746094 7.03125-3.246094 18.574219 5.582031 25.789063 8.828125 7.210937 20.640625 7.359375 26.386719.332031 5.742187-7.03125 3.242187-18.578125-5.585938-25.789062zm0 0" fill="#ffb3dd"/><path d="m388.132812 268.679688c-8.828124-7.214844-20.640624-7.363282-26.386718-.332032-5.742188 7.03125-3.242188 18.574219 5.585937 25.789063 8.828125 7.210937 20.640625 7.359375 26.382813.332031 5.746094-7.03125 3.246094-18.578125-5.582032-25.789062zm0 0" fill="#ffb3dd"/><path d="m382.410156 264.414062 7.875-9.640624c2.621094-3.207032 2.148438-7.933594-1.058594-10.554688-3.210937-2.621094-7.933593-2.144531-10.554687 1.0625l-7.878906 9.640625c-2.621094 3.210937-2.144531 7.933594 1.0625 10.554687 3.207031 2.621094 7.933593 2.144532 10.554687-1.0625zm0 0"/><path d="m286.6875 186.199219 7.875-9.640625c2.621094-3.210938 2.148438-7.933594-1.058594-10.554688-3.210937-2.621094-7.933594-2.144531-10.554687 1.0625l-7.878907 9.640625c-2.621093 3.207031-2.144531 7.933594 1.0625 10.554688 3.207032 2.621093 7.933594 2.144531 10.554688-1.0625zm0 0"/><path d="m322.832031 203.28125c-4.121093-.429688-7.808593 2.558594-8.238281 6.679688-.738281 7.101562 2.117188 14.039062 7.648438 18.554687 5.527343 4.515625 12.894531 5.9375 19.703124 3.792969 3.949219-1.242188 6.148438-5.449219 4.90625-9.402344-.457031-1.449219-3.433593-6.671875-9.40625-4.90625-2.859374.847656-4.945312-.472656-5.714843-1.101562-.769531-.628907-2.527344-2.414063-2.21875-5.382813.429687-4.117187-2.558594-7.808594-6.679688-8.234375zm0 0"/><path d="m500.988281 140.636719c2.835938-33.425781-11.484375-59.167969-25.484375-75.933594l8.101563-11.144531c5.296875-7.289063 7.441406-16.207032 6.03125-25.105469-1.410157-8.902344-6.199219-16.722656-13.488281-22.019531-15.046876-10.9375-36.1875-7.59375-47.125 7.457031l-8.101563 11.148437c-15.378906-6.195312-30.832031-9.03125-46.027344-8.425781-4.140625.164063-7.359375 3.65625-7.195312 7.796875.167969 4.136719 3.660156 7.363282 7.796875 7.191406 11.902344-.480468 24.078125 1.535157 36.300781 5.992188l-15.507813 21.339844c-5.300781 7.289062-12.605468 32.847656 7.453126 47.125 23.023437 16.382812 40.53125 1.613281 47.125-7.457032l15.503906-21.332031c11.277344 14.480469 21.921875 35.546875 19.667968 62.101563-1.695312 19.972656-1.640624 38.117187.160157 53.929687.476562 4.164063-2.441407 6.289063-3.347657 6.839844-1.128906.6875-4.109374 2.054687-7.394531-.140625-12.761719-8.527344-23.042969-18.007812-30.554687-28.179688-9.007813-12.191406-26.09375-15.324218-38.90625-7.125-12.347656 7.90625-24.421875 13.296876-35.890625 16.019532-6.289063 1.492187-12.859375.191406-18.03125-3.566406-5.171875-3.753907-8.433594-9.605469-8.957031-16.046876-.949219-11.75.449218-24.898437 4.15625-39.085937 3.84375-14.710937-4.410157-30-18.789063-34.804687-11.996094-4.007813-24.1875-10.855469-36.234375-20.363282-3.101562-2.445312-2.722656-5.703125-2.417969-6.988281.246094-1.03125 1.367188-4.464844 5.472657-5.296875 15.589843-3.167969 32.867187-8.71875 51.34375-16.496094 3.820312-1.605468 5.609374-6.007812 4.003906-9.824218-1.605469-3.816407-6.003906-5.609376-9.824219-4-17.566406 7.394531-33.886719 12.648437-48.511719 15.621093-8.519531 1.730469-15.0625 8.0625-17.078125 16.523438-1.996093 8.386719.960938 16.90625 7.71875 22.238281 4.398438 3.46875 8.832031 6.621094 13.28125 9.457031-39.320312 44.785157-94.863281 100.792969-196.347656 131.289063-41.546875 12.480468-75.460937 44.667968-90.730469 86.101562-15.582031 42.285156-9.960937 89.109375 15.421875 128.46875 31.378907 48.65625 75.351563 78.058594 129.3125 78.058594 44.058594 0 83.785157-19.058594 110.027344-35.667969 3.5-2.214843 4.542969-6.847656 2.328125-10.347656s-6.847656-4.539063-10.347656-2.328125c-124.542969 78.820312-194.441406-.210938-218.714844-37.84375-22.800781-35.359375-27.886719-77.332031-13.949219-115.15625 13.644531-37.027344 43.601563-66.875 80.96875-76.917969 132.878907-35.726562 201.253907-133.652343 205.546875-138.054687 4.660156 2.273437 9.324219 4.199218 13.980469 5.753906 6.914063 2.3125 10.878906 9.683594 9.027344 16.785156-4.136719 15.820313-5.679688 30.652344-4.59375 44.085938.875 10.808594 6.371093 20.640625 15.089843 26.976562 8.714844 6.335938 19.765626 8.53125 30.3125 6.023438 13.113282-3.113282 26.742188-9.164063 40.515626-17.980469 6.179687-3.953125 14.417968-2.460937 18.75 3.40625 5.132812 6.945313 11.347656 13.566406 18.566406 19.804687-25.132813 85.761719-117.492188 203.421876-169.890625 244.71875-3.253907 2.566407-3.707031 7.332032-1.097657 10.550782 1.480469 1.828125 5.410157 4.847656 10.546876 1.097656 7.503906-5.46875 55.058593-46.410156 102.207031-115.617188 33.480469-49.148437 58.605469-92.199218 70.90625-130.90625 1.003906.703126 12.894531 10.191407 26.585937 2.566407 7.597656-4.234375 11.429688-12.707031 10.441406-21.347657-1.6875-14.828124-1.726562-31.972656-.113281-50.964843zm-62.253906-50.851563c-6.074219 8.355469-17.03125 10.390625-26.171875 4.136719-12.121094-8.289063-7.082031-22.121094-4.140625-26.167969l32.738281-45.046875c2.941406-4.046875 14.796875-12.589843 26.171875-4.140625 8.292969 6.160156 10.210938 17.816406 4.140625 26.171875zm0 0"/></svg>