<svg height="512pt" viewBox="0 -14 512 512" width="512pt" xmlns="http://www.w3.org/2000/svg"><path d="m197.605469 37.605469-162.195313 177.398437c-18.769531 20.53125-29.179687 47.34375-29.179687 75.164063v124.648437c0 36.367188 30.828125 65.113282 67.105469 62.570313l371.492187-26.019531c32.894531-2.304688 58.402344-29.660157 58.402344-62.632813v-172.242187c0-37.769532-14.089844-74.171876-39.515625-102.105469-32.238282-35.421875-86.855469-78.914063-173.238282-103.433594-33.453124-9.496094-69.40625.988281-92.871093 26.652344zm0 0" fill="#f4e74d"/><path d="m503.230469 388.734375v-172.242187c0-37.769532-14.089844-74.171876-39.515625-102.105469-32.238282-35.421875-86.855469-78.914063-173.238282-103.433594-33.453124-9.496094-69.40625.988281-92.871093 26.652344 0 0 168.957031 80.746093 152.511719 191.453125-13.667969 92.023437-52.609376 113.570312-46.730469 232.214844l141.441406-9.902344c32.894531-2.304688 58.402344-29.660156 58.402344-62.636719zm0 0" fill="#eedb00"/><path d="m14.507812 248.105469c-5.402343 13.246093-8.277343 27.511719-8.277343 42.0625v124.648437c0 36.367188 30.828125 65.109375 67.105469 62.570313l371.492187-26.019531c32.894531-2.304688 58.402344-29.660157 58.402344-62.632813v-168.023437zm0 0" fill="#fcf5af"/><path d="m503.230469 388.734375v-168.023437l-153.148438 8.585937c-13.699219 91.820313-52.566406 113.433594-46.695312 231.976563l141.445312-9.902344c32.890625-2.304688 58.398438-29.660156 58.398438-62.636719zm0 0" fill="#f9ee80"/><path d="m6.230469 313.195312v98.136719c17.003906 4.5625 35.910156.167969 49.226562-13.199219 19.808594-19.886718 19.746094-52.066406-.136719-71.875-13.320312-13.269531-32.148437-17.609374-49.089843-13.0625zm0 0" fill="#eedb00"/><path d="m233.605469 396.617188c-24.699219-18.472657-59.695313-13.429688-78.167969 11.269531-14.417969 19.277343-14.507812 44.828125-2.109375 63.898437l97.433594-6.824218c10.988281-23.472657 4.414062-52.210938-17.15625-68.34375zm0 0" fill="#eedb00"/><path d="m403.007812 368.921875c0 15.25-12.359374 27.609375-27.605468 27.609375-15.25 0-27.609375-12.359375-27.609375-27.609375 0-15.246094 12.359375-27.605469 27.609375-27.605469 15.246094 0 27.605468 12.359375 27.605468 27.605469zm0 0" fill="#dfca00"/><path d="m503.230469 354.90625v-86.925781c-18.816407-10.882813-43.277344-8.605469-59.789063 7.167969-20.042968 19.152343-20.769531 50.925781-1.617187 70.96875 16.324219 17.089843 41.820312 20.125 61.40625 8.789062zm0 0" fill="#dfca00"/><path d="m229.234375 311.453125c0 20.445313-16.574219 37.019531-37.019531 37.019531-20.445313 0-37.019532-16.574218-37.019532-37.019531s16.574219-37.019531 37.019532-37.019531c20.445312 0 37.019531 16.574218 37.019531 37.019531zm0 0" fill="#eedb00"/><path d="m470.53125 109.339844c-31.035156-34.097656-86.886719-80.097656-176.738281-105.601563-17.730469-5.035156-36.507813-4.984375-54.304688.148438-17.722656 5.109375-33.679687 15.019531-46.148437 28.65625l-32.410156 35.449219c-2.792969 3.058593-2.582032 7.800781.476562 10.597656 3.054688 2.792968 7.800781 2.582031 10.59375-.476563l32.410156-35.449219c21.8125-23.851562 54.488282-33.238281 85.289063-24.496093 86.449219 24.539062 140.019531 68.613281 169.738281 101.265625 23.578125 25.90625 36.839844 59.253906 37.53125 94.1875l-469.007812 26.289062c3.921874-7.089844 8.6875-13.753906 14.253906-19.84375l109.785156-120.078125c2.796875-3.054687 2.582031-7.800781-.472656-10.59375-3.058594-2.796875-7.800782-2.585937-10.597656.472657l-109.785157 120.078124c-20.082031 21.96875-31.144531 50.457032-31.144531 80.222657v124.648437c0 19.40625 8.140625 38.125 22.335938 51.359375 13.003906 12.128907 29.871093 18.695313 52.792968 18.691407l371.496094-26.019532c36.65625-2.566406 65.375-33.363281 65.375-70.113281v-172.242187c0-39.714844-14.726562-77.769532-41.46875-107.152344zm-455.53125 209.992187c13.226562-1.738281 26.730469 2.710938 36.296875 12.238281 8.195313 8.167969 12.722656 19.039063 12.746094 30.609376.023437 11.570312-4.464844 22.460937-12.628907 30.660156-9.574218 9.609375-23.128906 14.105468-36.414062 12.351562zm482 69.402344c0 28.90625-22.589844 53.132813-51.425781 55.152344l-182.703125 12.796875c6.03125-24.292969-2.882813-50.644532-23.503906-66.074219-22.34375-16.714844-52.527344-16.953125-75.101563-.59375-3.355469 2.433594-4.105469 7.121094-1.671875 10.476563 2.429688 3.351562 7.121094 4.101562 10.472656 1.671874 17.226563-12.484374 40.257813-12.300781 57.316406.457032 17.097657 12.792968 23.667969 35.421875 16.503907 55.179687l-39.816407 2.789063-48.375 3.386718c-6.71875-12.675781-7.5-27.742187-1.960937-41.113281 1.585937-3.828125-.230469-8.214843-4.058594-9.800781-3.828125-1.589844-8.210937.230469-9.796875 4.058594-6.417968 15.488281-6.359375 32.71875-.179687 47.976562l-68.617188 4.808594c-15.449219 1.085938-30.191406-4.140625-41.519531-14.699219-9.972656-9.296875-15.996094-21.53125-17.292969-34.894531 24.25-.910156 35.707031-5.785156 46.769531-16.886719 10.996094-11.039062 17.035157-25.695312 17.003907-41.273437s-6.125-30.214844-17.164063-41.207032c-12.398437-12.355468-29.71875-18.375-46.878906-16.707031v-14.070312c0-12.003907 2.082031-23.765625 6.027344-34.84375l475.972656-26.679688v27.882813c-19.777344-6.289063-42.0625-1.519532-57.46875 13.199218-23.003906 21.976563-23.839844 58.570313-1.859375 81.574219 8.984375 9.40625 20.917969 16.644531 33.890625 17.300781 6.34375.324219 7.929688-2.65625 8.441406-6.417968.558594-4.105469-2.316406-7.886719-6.417968-8.441406-9.65625-1.316407-18.324219-5.742188-25.070313-12.804688-16.261719-17.023438-15.644531-44.101562 1.378906-60.367188 12.605469-12.042968 31.445313-15.089843 47.105469-8.019531zm0 0"/><path d="m375.402344 333.816406c-19.359375 0-35.109375 15.746094-35.109375 35.105469s15.75 35.109375 35.109375 35.109375 35.105468-15.75 35.105468-35.109375-15.746093-35.105469-35.105468-35.105469zm0 55.214844c-11.089844 0-20.109375-9.019531-20.109375-20.109375 0-11.085937 9.023437-20.105469 20.109375-20.105469 11.085937 0 20.105468 9.019532 20.105468 20.105469 0 11.089844-9.019531 20.109375-20.105468 20.109375zm0 0"/><path d="m192.214844 266.933594c-24.546875 0-44.519532 19.96875-44.519532 44.519531 0 24.546875 19.96875 44.519531 44.519532 44.519531 24.550781 0 44.519531-19.972656 44.519531-44.519531 0-24.550781-19.96875-44.519531-44.519531-44.519531zm0 74.039062c-16.277344 0-29.519532-13.242187-29.519532-29.519531 0-16.28125 13.242188-29.523437 29.519532-29.523437s29.519531 13.242187 29.519531 29.523437c0 16.277344-13.242187 29.519531-29.519531 29.519531zm0 0"/></svg>