<svg height="512pt" viewBox="0 -31 512.00013 512" width="512pt" xmlns="http://www.w3.org/2000/svg"><path d="m153.488281 11.851562c-11.367187 12.929688-23.355469 15.6875-32.886719 14.960938-5.9375-.449219-10.648437 5.191406-9.140624 10.953125 2.414062 9.25 1.847656 21.535156-8.839844 35.03125-5.273438 6.660156-2.746094 16.429687 5.128906 19.617187 10.957031 4.429688 23.417969 12.207032 28.855469 25.550782 3.117187 7.644531 12.664062 10.148437 19.03125 4.898437 11.53125-9.503906 28.753906-18.707031 51.03125-14.921875-7.707031-21.242187-1.730469-39.835937 5.558593-52.878906 4.027344-7.207031-.148437-16.152344-8.222656-17.851562-14.101562-2.964844-23.980468-13.832032-30.300781-23.820313-4.539063-7.175781-14.605469-7.917969-20.214844-1.539063zm0 0" fill="#29ce69"/><path d="m278.175781 11.886719h-44.355469c-14.136718 0-26.101562 10.472656-27.9375 24.488281-4.023437 30.722656-15.902343 49.570312-15.902343 49.570312l66.015625 15.746094 66.019531-15.746094s-11.878906-18.847656-15.902344-49.570312c-1.835937-14.015625-13.800781-24.488281-27.9375-24.488281zm0 0" fill="#e7896e"/><path d="m322.015625 85.945312s-5.785156-9.1875-10.652344-25.175781c-18.25-10.84375-37.09375-16.066406-51.679687-18.492187-15.339844-2.546875-18.210938-23.636719-4.207032-30.390625h-21.65625c-14.136718 0-26.101562 10.472656-27.9375 24.488281-4.023437 30.722656-15.902343 49.570312-15.902343 49.570312l66.015625 15.746094zm0 0" fill="#dd6642"/><path d="m144.464844 438.5625c30.535156-3.640625 55.03125-28.582031 60.796875-61.878906 10.316406-59.558594 24.324219-149.371094 20.742187-179.378906-7.949218-66.628907-63.089844-114.832032-123.164062-107.664063-60.074219 7.164063-102.332032 66.988281-94.382813 133.617187 3.578125 30.007813 38.320313 114.003907 62.355469 169.464844 13.4375 31.003906 43.113281 49.484375 73.652344 45.839844zm0 0" fill="#ffa93f"/><path d="m135.40625 91.113281c-11.675781 10.082031-56.121094 56.132813-35.5625 158.847657 18.5 92.429687 22.46875 150.773437 6.910156 181.785156 11.59375 5.859375 24.574219 8.386718 37.710938 6.820312 30.535156-3.644531 55.03125-28.585937 60.800781-61.882812 10.3125-59.554688 24.320313-149.367188 20.738281-179.378906-6.476562-54.304688-44.300781-96.367188-90.597656-106.191407zm0 0" fill="#ff9000"/><path d="m367.53125 441.199219c-30.535156-3.640625-55.03125-28.585938-60.796875-61.878907-10.316406-59.558593-24.324219-149.371093-20.742187-179.378906 7.949218-66.628906 63.089843-114.832031 123.164062-107.664062 60.074219 7.164062 102.332031 66.988281 94.382812 133.613281-3.578124 30.011719-38.320312 114.007813-62.355468 169.46875-13.4375 31.003906-43.113282 49.484375-73.652344 45.839844zm0 0" fill="#ffa93f"/><path d="m376.589844 93.75c11.675781 10.078125 56.121094 56.132812 35.558594 158.847656-18.5 92.429688-22.464844 150.773438-6.90625 181.785156-11.59375 5.855469-24.574219 8.386719-37.710938 6.816407-30.535156-3.640625-55.03125-28.582031-60.800781-61.878907-10.3125-59.558593-24.320313-149.371093-20.738281-179.378906 6.476562-54.304687 44.300781-96.367187 90.597656-106.191406zm0 0" fill="#ff9000"/><path d="m255.996094 441.65625c33.09375 0 62.445312-23.53125 72.851562-58.371094 18.613282-62.320312 45.027344-156.496094 45.027344-189.015625 0-72.203125-52.777344-130.734375-117.878906-130.734375-65.101563 0-117.875 58.53125-117.875 130.734375 0 32.519531 26.414062 126.695313 45.027344 189.015625 10.402343 34.839844 39.757812 58.371094 72.847656 58.371094zm0 0" fill="#ffbe73"/><path d="m200.179688 200.007812c0-9.078124-9.242188-16.4375-20.640626-16.4375-11.398437 0-20.640624 7.359376-20.640624 16.4375 0 9.078126 9.242187 16.4375 20.640624 16.4375 11.398438 0 20.640626-7.359374 20.640626-16.4375zm0 0" fill="#ff83b4"/><path d="m353.097656 200.007812c0-9.078124-9.242187-16.4375-20.640625-16.4375-11.402343 0-20.640625 7.359376-20.640625 16.4375 0 9.078126 9.238282 16.4375 20.640625 16.4375 11.398438 0 20.640625-7.359374 20.640625-16.4375zm0 0" fill="#ff83b4"/><path d="m325.304688 183.871094v-12.449219c0-4.144531-3.355469-7.5-7.5-7.5-4.144532 0-7.5 3.355469-7.5 7.5v12.449219c0 4.144531 3.355468 7.5 7.5 7.5 4.144531 0 7.5-3.355469 7.5-7.5zm0 0"/><path d="m194.191406 163.921875c-4.144531 0-7.5 3.355469-7.5 7.5v12.449219c0 4.144531 3.355469 7.5 7.5 7.5 4.144532 0 7.5-3.355469 7.5-7.5v-12.449219c0-4.144531-3.359375-7.5-7.5-7.5zm0 0"/><path d="m271.507812 174.230469c-1.269531-.835938-6.882812-2.996094-10.386718 2.148437-1.679688 2.46875-4.128906 2.765625-5.125 2.765625-.992188 0-3.480469-.269531-5.121094-2.765625-2.273438-3.460937-6.925781-4.425781-10.386719-2.148437-3.460937 2.273437-4.425781 6.921875-2.152343 10.382812 3.921874 5.96875 10.523437 9.53125 17.660156 9.53125 7.140625 0 13.742187-3.5625 17.660156-9.53125 2.277344-3.460937 1.3125-8.109375-2.148438-10.382812zm0 0"/><path d="m488.847656 133.699219c-2.347656-3.410157-7.019531-4.273438-10.429687-1.925781-3.414063 2.351562-4.273438 7.019531-1.925781 10.429687 16.199218 23.539063 23.160156 52.941406 19.597656 82.800781-2.628906 22.054688-24.574219 81.496094-61.789063 167.371094-11.125 25.671875-34.296875 41.78125-59.089843 41.78125-21.308594 0-38.296876-11.460938-48.660157-25.949219-.109375-.15625-.230469-.300781-.355469-.449219 4.101563-6.804687 7.4375-14.28125 9.839844-22.328124 20.683594-69.257813 45.339844-158.640626 45.339844-191.160157 0-32.003906-9.917969-61.496093-26.539062-84.949219 16.804687-8.460937 35.132812-11.78125 53.429687-9.597656 18.058594 2.152344 35.140625 9.640625 49.402344 21.652344 1.410156 1.183594 5.894531 4.164062 10.570312-.90625 2.808594-3.046875 2.261719-7.898438-.90625-10.566406-16.511719-13.902344-36.320312-22.574219-57.289062-25.074219-22.273438-2.65625-44.542969 1.679687-64.730469 12.535156-5.363281-6.007812-11.214844-11.480469-17.492188-16.332031-2.257812-3.960938-10.988281-20.554688-14.273437-45.628906-2.316406-17.679688-17.523437-31.015625-35.375-31.015625h-44.351563c-15.3125 0-28.675781 9.820312-33.628906 23.773437-9.171875-3.90625-15.902344-12.066406-20.152344-18.777344-3.425781-5.421874-9.046874-8.816406-15.414062-9.3164058-6.394531-.5117182-12.507812 1.9843748-16.769531 6.8320318-7.910157 8.996093-16.898438 13.179687-26.6875 12.4375-5.203125-.394532-10.316407 1.777343-13.6875 5.816406-3.371094 4.039062-4.597657 9.464844-3.277344 14.511718 2.484375 9.507813-.027344 19.089844-7.460937 28.480469-3.589844 4.527344-4.949219 10.199219-4.140626 15.589844-59.074218 12.414063-99.601562 73.269531-91.59375 140.410156 3.585938 30.070313 36.195313 109.894531 62.921876 171.558594 13.539062 31.242187 42.085937 50.820313 72.820312 50.820313 26.109375 0 44.539062-12.253907 57.125-27.386719 15.597656 18.730469 37.902344 30.019531 62.121094 30.019531 23.648437 0 45.476562-10.765625 61.011718-28.714844 12.6875 15.914063 34.453126 28.71875 58.234376 28.71875 30.730468 0 59.28125-19.585937 72.820312-50.820312 26.722656-61.667969 59.335938-141.492188 62.921875-171.558594 3.996094-33.480469-3.867187-66.539062-22.136719-93.082031zm-275.527344-96.347657c1.339844-10.242187 10.152344-17.964843 20.5-17.964843h44.355469c10.34375 0 19.15625 7.722656 20.5 17.964843 1.539063 11.75 4.171875 21.84375 6.910157 29.964844-15.21875-7.253906-31.984376-11.28125-49.589844-11.28125-17.601563 0-34.371094 4.027344-49.585938 11.28125 2.738282-8.121094 5.371094-18.214844 6.910156-29.964844zm-94.324218-2.585937c.199218-.238281 22.582031 4.871094 40.125-17.960937 1.023437-1.335938 2.679687-1.910157 4.332031-1.785157.945313.074219 2.710937.480469 3.914063 2.382813 8.203124 12.964844 18.445312 21.746094 29.859374 25.691406-3.839843 20.636719-11.050781 34.394531-13.058593 37.945312-5.660157 4.375-10.972657 9.253907-15.898438 14.574219-18.941406-10.585937-39.730469-15.359375-60.808593-13.921875 18.125-22.011718 11.339843-46.6875 11.535156-46.925781zm137 399.390625c-29.804688 0-56.191406-21.308594-65.664063-53.015625-2.265625-7.59375-4.480469-15.097656-6.582031-22.308594-1.160156-3.972656-5.328125-6.253906-9.300781-5.097656-3.976563 1.160156-6.261719 5.324219-5.101563 9.300781 2.109375 7.238282 4.335938 14.769532 6.613282 22.394532 2.226562 7.460937 5.261718 14.433593 8.957031 20.835937-10.335938 14.074219-24.980469 22.898437-41.34375 24.847656-27.265625 3.261719-53.746094-13.375-65.878907-41.375-37.21875-85.875-59.160156-145.316406-61.792968-167.375-7.445313-62.410156 31.953125-118.613281 87.824218-125.277343 18.871094-2.253907 37.652344 1.3125 54.824219 10.304687-17.453125 23.757813-27.929687 53.992187-27.929687 86.878906 0 21.101563 10.304687 68.382813 30.625 140.523438 1.121094 3.988281 5.261718 6.308593 9.25 5.1875 3.988281-1.121094 6.308594-5.265625 5.1875-9.253907-19.667969-69.820312-30.0625-117.007812-30.0625-136.457031 0-67.953125 49.515625-123.234375 110.375-123.234375 60.863281 0 110.378906 55.28125 110.378906 123.234375 0 23.960938-15.882812 90.324219-44.714844 186.871094-9.46875 31.710937-35.855468 53.015625-65.664062 53.015625zm0 0"/></svg>