<svg height="512pt" viewBox="0 -66 512.00002 512" width="512pt" xmlns="http://www.w3.org/2000/svg"><path d="m221.640625 364.9375-60.03125-90.445312c-5.328125-8.03125-3.140625-18.863282 4.890625-24.191407 8.03125-5.332031 18.863281-3.140625 24.195312 4.890625l43.035157 64.84375 37.140625-77.441406c4.167968-8.691406 14.589844-12.359375 23.285156-8.191406 8.691406 4.167968 12.355469 14.59375 8.1875 23.285156l-50.425781 105.144531c-2.714844 5.664063-8.246094 9.863281-14.527344 9.863281-7.3125 0-12.503906-2.863281-15.75-7.757812zm0 0" fill="#889cb0"/><path d="m289.570312 225.621094 102.707032-165.078125c7.839844-12.597657 19.8125-22.394531 33.714844-27.589844l46.988281-17.550781c9.03125-3.375 19.085937 1.214844 22.457031 10.246094 3.375 9.027343-1.210938 19.082031-10.242188 22.453124l-46.988281 17.550782c-6.71875 2.511718-12.503906 7.246094-16.289062 13.332031l-106.015625 170.390625zm0 0" fill="#889cb0"/><path d="m370.816406 95.039062-81.246094 130.582032 26.332032 23.753906 76.71875-123.304688c-6.335938-13.847656-14.3125-23.894531-21.804688-31.03125zm0 0" fill="#6a829a"/><path d="m35.238281 164.65625 36.269531 94.339844c9.882813 25.710937 35.414063 41.9375 62.886719 39.976562l142.980469-10.214844c19.65625-1.402343 35.875-15.9375 39.417969-35.324218l18.035156-98.722656zm0 0" fill="#73da8c"/><path d="m172.902344 214.152344c59.851562-12.398438 105.71875-49.496094 105.71875-49.496094v-8.082031l-243.382813 8.082031 36.269531 94.339844c9.882813 25.710937 35.410157 41.9375 62.882813 39.976562l50.566406-3.613281c-12.929687-10.894531-23.136719-23.679687-30.9375-35.679687-11.429687-17.585938-1.652343-41.273438 18.882813-45.527344zm0 0" fill="#29ce69"/><path d="m333.011719 164.65625h-297.773438c-15.320312 0-27.738281-12.417969-27.738281-27.738281 0-15.320313 12.417969-27.738281 27.738281-27.738281h297.773438c15.320312 0 27.738281 12.417968 27.738281 27.738281 0 15.320312-12.417969 27.738281-27.738281 27.738281zm0 0" fill="#f9ee80"/><path d="m97.046875 136.917969c0-15.320313 12.421875-27.738281 27.742187-27.738281h-89.550781c-15.320312 0-27.738281 12.417968-27.738281 27.738281 0 15.320312 12.417969 27.738281 27.738281 27.738281h89.550781c-15.320312 0-27.742187-12.417969-27.742187-27.738281zm0 0" fill="#eedb00"/><path d="m129.035156 316.472656c0 31.050782-25.171875 56.222656-56.222656 56.222656-31.054688 0-56.226562-25.171874-56.226562-56.222656 0-31.050781 25.171874-56.222656 56.226562-56.222656 31.050781 0 56.222656 25.171875 56.222656 56.222656zm0 0" fill="#6a829a"/><path d="m428.316406 62.359375-7.390625-19.847656c-2.621093-7.03125.957031-14.851563 7.988281-17.472657l42.972657-16.003906c12.511719-4.660156 26.429687 1.707032 31.089843 14.21875 4.660157 12.511719-1.703124 26.429688-14.214843 31.089844l-42.972657 16.007812c-7.03125 2.617188-14.855468-.960937-17.472656-7.992187zm0 0" fill="#ff8a98"/><path d="m97.046875 316.472656c0 13.386719-10.851563 24.234375-24.234375 24.234375-13.386719 0-24.238281-10.847656-24.238281-24.234375 0-13.386718 10.851562-24.234375 24.238281-24.234375 13.382812 0 24.234375 10.847657 24.234375 24.234375zm0 0" fill="#516980"/><path d="m104.546875 316.472656c0-17.5-14.234375-31.738281-31.734375-31.738281s-31.738281 14.238281-31.738281 31.738281 14.238281 31.734375 31.738281 31.734375 31.734375-14.234375 31.734375-31.734375zm-48.472656 0c0-9.230468 7.507812-16.734375 16.738281-16.734375 9.226562 0 16.734375 7.507813 16.734375 16.734375 0 9.226563-7.507813 16.734375-16.734375 16.734375-9.230469 0-16.738281-7.507812-16.738281-16.734375zm0 0"/><path d="m510.007812 20.636719c-2.953124-7.929688-8.816406-14.234375-16.511718-17.75-7.695313-3.519531-16.300782-3.832031-24.226563-.878907l-42.972656 16.007813c-5.28125 1.964844-9.476563 5.867187-11.820313 10.988281-.175781.394532-.320312.796875-.476562 1.195313-11.511719 6.21875-21.183594 15.28125-28.089844 26.382812l-32.238281 51.816407c-5.808594-4.222657-12.949219-6.71875-20.664063-6.71875h-43.4375c-4.140624 0-7.5 3.355468-7.5 7.5 0 4.144531 3.359376 7.5 7.5 7.5h43.4375c11.160157 0 20.242188 9.078124 20.242188 20.238281 0 11.160156-9.082031 20.238281-20.242188 20.238281h-297.769531c-11.160156 0-20.238281-9.078125-20.238281-20.238281 0-11.160157 9.078125-20.238281 20.238281-20.238281h222.203125c4.144532 0 7.5-3.355469 7.5-7.5 0-4.144532-3.355468-7.5-7.5-7.5h-222.203125c-19.429687 0-35.238281 15.808593-35.238281 35.238281 0 17.628906 13.011719 32.273437 29.933594 34.839843l31.535156 82.027344c-17.964844 3.289063-34.023438 14.242188-43.5 30.21875-2.113281 3.5625-.9375 8.164063 2.625 10.277344 3.5625 2.109375 8.164062.9375 10.277344-2.625 8.746094-14.746094 24.816406-23.90625 41.941406-23.90625 26.867188 0 48.722656 21.855469 48.722656 48.722656 0 26.867188-21.855468 48.726563-48.722656 48.726563s-48.726562-21.859375-48.726562-48.726563c0-4.144531-3.355469-7.5-7.5-7.5-4.144532 0-7.5 3.355469-7.5 7.5 0 35.136719 28.585937 63.726563 63.726562 63.726563 38.835938 0 68.523438-31.988281 62.917969-73.804688l36.328125-2.59375 43.332031 65.285157c3.363281 5.066406 9.914063 11.109374 22 11.109374 8.820313 0 17.175781-5.542968 21.289063-14.121093l35.214843-73.425781-.253906-.121094c28.027344-7.792969 31.691406-44.113282 31.691406-44.113282l102.953125-165.46875c1.328125-2.136718 3.015625-4.089843 4.945313-5.757812 2.472656.988281 7.992187 2.523438 15.175781.191406l42.972656-16.003906c16.367188-6.097656 24.722656-24.371094 18.628906-40.738281zm-264.851562 338.953125c-1.609375 3.351562-4.730469 5.605468-7.765625 5.605468-5.894531 0-8.246094-2.515624-9.503906-4.40625l-38.640625-58.21875 22.8125-1.628906 15.421875 23.242188c1.398437 2.101562 3.746093 3.351562 6.25 3.351562.171875 0 .347656-.007812.519531-.019531 2.691406-.1875 5.078125-1.804687 6.242188-4.238281l12.101562-25.230469 22.859375-1.632813zm-15.910156-59.875 6.121094-.4375-2.6875 5.605468zm80.164062-47.628906c-2.925781 16.027343-16.320312 28.03125-32.570312 29.191406 0 0-144.566406 10.304687-145.359375 10.328125-9.160157-21.535157-29.851563-37.015625-54.273438-38.691407l-31.046875-80.753906h277.855469zm106.140625-177.0625-82.875 133.195312 6.695313-36.648438c16.402344-3.003906 28.878906-17.394531 28.878906-34.652343 0-6.054688-1.539062-11.757813-4.242188-16.742188l34.636719-55.667969c4.195313-6.742187 9.664063-12.542968 16.085938-17.125 0 0 7.113281 18.949219 7.433593 19.59375-2.546874 2.394532-4.789062 5.109376-6.613281 8.046876zm70.59375-27.707032-42.972656 16.003906c-5.9375 1.964844-7.257813-2.054687-7.828125-3.578124l-7.390625-19.847657c-.566406-1.523437-1.546875-6.019531 3.578125-7.824219l42.972656-16.003906c1.898438-.707031 16.117188-3.398437 21.445313 9.804688 3.441406 8.527344-1.1875 18.238281-9.804688 21.445312zm0 0"/></svg>