<svg height="511pt" viewBox="0 -56 511.99962 511" width="511pt" xmlns="http://www.w3.org/2000/svg"><path d="m19.75 176.132812v99.414063c0 9.09375 7.371094 16.464844 16.464844 16.464844s16.464844-7.371094 16.464844-16.464844v-12.671875c0-5.660156 4.585937-10.246094 10.246093-10.246094 5.65625 0 10.246094 4.585938 10.246094 10.246094v42.957031c0 9.089844 7.371094 16.464844 16.464844 16.464844 9.089843 0 16.464843-7.375 16.464843-16.464844v-99.414062zm0 0" fill="#a4e7ff"/><path d="m377.019531 345.511719-6.839843-43.300781c55.59375-8.777344 85.582031-57.296876 89.917968-98.664063 2.234375-21.308594-2.183594-46.683594-21.289062-53.992187-16.351563-6.261719-34-3.335938-52.460938 8.6875-15.117187 9.84375-24.777344 21.921874-24.871094 22.042968l-34.523437-27.023437c1.417969-1.808594 14.433594-18.058594 35.472656-31.757813 30.449219-19.828125 62.28125-24.285156 92.050781-12.894531 35.378907 13.542969 54.238282 51.671875 49.222657 99.511719-6.03125 57.488281-48.242188 125.007812-126.679688 137.390625zm0 0" fill="#29ce69"/><path d="m135.835938 334.574219-78.96875-148.4375 32.816406-31.359375 112.8125 109.734375zm0 0" fill="#00a62c"/><path d="m295.289062 132.183594h-55.796874v-96.285156c0-15.40625 12.488281-27.898438 27.898437-27.898438 15.40625 0 27.898437 12.492188 27.898437 27.898438zm0 0" fill="#00a62c"/><path d="m344.019531 96.792969h-153.257812c-17.753907 0-32.757813 13.15625-35.078125 30.757812l-28.726563 218.121094c-3.28125 24.917969 16.113281 47.039063 41.25 47.039063h198.367188c25.136719 0 44.53125-22.121094 41.25-47.039063l-28.730469-218.121094c-2.316406-17.601562-17.320312-30.757812-35.074219-30.757812zm0 0" fill="#73da8c"/><path d="m155.683594 127.550781-28.726563 218.121094c-3.28125 24.917969 16.113281 47.039063 41.25 47.039063h40.5c-15.492187-23.1875-10.621093-55.515626-10.621093-55.515626s8-86.53125 12.40625-142.472656c1.90625-24.179687 17.339843-45.355468 39.984374-54.039062 37.351563-14.320313 71.21875-43.890625 71.21875-43.890625h-130.933593c-17.753907 0-32.757813 13.15625-35.078125 30.757812zm0 0" fill="#29ce69"/><path d="m93.75 196.144531c-23.0625 17.769531-56.160156 13.480469-73.933594-9.578125l-7.046875-9.902344c-8.539062-11.078124-6.476562-26.976562 4.601563-35.515624l43.390625-33.4375c11.078125-8.535157 26.980469-6.476563 35.515625 4.601562l7.050781 9.902344c17.769531 23.058594 13.480469 56.160156-9.578125 73.929687zm0 0" fill="#f9ee80"/><path d="m126.957031 345.671875c-3.28125 24.917969 16.113281 47.039063 41.25 47.039063h198.367188c25.136719 0 44.53125-22.121094 41.25-47.039063l-1.117188-8.476563h-278.632812zm0 0" fill="#6a829a"/><path d="m128.074219 337.191406-1.117188 8.480469c-3.285156 24.917969 16.113281 47.035156 41.25 47.035156h40.5c-15.492187-23.1875-10.621093-55.515625-10.621093-55.515625zm0 0" fill="#516980"/><path d="m211.574219 217.519531c0-9.078125-9.242188-16.4375-20.640625-16.4375-11.398438 0-20.640625 7.359375-20.640625 16.4375 0 9.074219 9.242187 16.433594 20.640625 16.433594 11.398437 0 20.640625-7.359375 20.640625-16.433594zm0 0" fill="#ffb3dd"/><path d="m364.488281 217.519531c0-9.078125-9.242187-16.4375-20.640625-16.4375-11.402344 0-20.640625 7.359375-20.640625 16.4375 0 9.074219 9.238281 16.433594 20.640625 16.433594 11.398438 0 20.640625-7.359375 20.640625-16.433594zm0 0" fill="#ffb3dd"/><path d="m282.425781 202.75c0-10.578125-6.730469-19.152344-15.035156-19.152344s-15.035156 8.574219-15.035156 19.152344 6.730469 19.15625 15.035156 19.15625 15.035156-8.578125 15.035156-19.15625zm0 0" fill="#454545"/><path d="m93.75 196.144531c7.699219-5.933593 13.308594-13.585937 16.699219-21.992187-21.265625-.878906-39.078125 6.042968-53.582031-1.574219-24.417969-12.816406-9.839844-54.28125-9.835938-54.285156l-29.660156 22.855469c-11.078125 8.539062-13.140625 24.4375-4.601563 35.515624l7.046875 9.902344c17.773438 23.058594 50.871094 27.347656 73.933594 9.578125zm0 0" fill="#eedb00"/><path d="m329.195312 207.707031c4.144532 0 7.5-3.359375 7.5-7.5v-12.453125c0-4.140625-3.355468-7.5-7.5-7.5-4.140624 0-7.5 3.359375-7.5 7.5v12.453125c0 4.140625 3.359376 7.5 7.5 7.5zm0 0"/><path d="m205.585938 207.707031c4.140624 0 7.5-3.359375 7.5-7.5v-12.453125c0-4.140625-3.359376-7.5-7.5-7.5-4.144532 0-7.5 3.359375-7.5 7.5v12.453125c0 4.140625 3.355468 7.5 7.5 7.5zm0 0"/><path d="m477.15625 112.777344c-3.28125-2.523438-7.988281-1.910156-10.515625 1.375-2.523437 3.28125-1.910156 7.992187 1.375 10.515625 21.695313 16.683593 31.984375 46.8125 28.222656 82.671875-2.601562 24.816406-12.125 50.183594-26.820312 71.4375-14.707031 21.269531-34.109375 37.757812-56.496094 48.140625l-4.007813-30.40625c16.15625-9.25 30.066407-22.835938 40.40625-39.519531 10.011719-16.15625 16.320313-34.367188 18.238282-52.664063 2.523437-24.074219-3-52.949219-26.066406-61.777344-16.566407-6.347656-34.085938-4.585937-52.171876 5.195313 0 0-3.875-26.972656-4.828124-29.695313 20.792968-9.070312 41.488281-10.5625 61.589843-4.40625 3.960938 1.214844 8.152344-1.011719 9.367188-4.972656 1.214843-3.960937-1.011719-8.15625-4.972657-9.367187-23.757812-7.28125-49.042968-5.324219-73.402343 5.621093-7.925781-9.585937-19.890625-15.636719-33.054688-15.636719h-41.230469v-53.390624c0-19.519532-15.878906-35.398438-35.398437-35.398438-19.515625 0-35.398437 15.878906-35.398437 35.398438v53.394531h-41.226563c-21.4375 0-39.714844 16.027343-42.511719 37.28125l-8.722656 66.222656-20.636719-20.074219c5.777344-18.152344 2.902344-38.75-9.535156-54.96875l-6.96875-9.789062c-.054687-.078125-.113281-.152344-.167969-.230469-11.050781-14.335937-31.699218-17.011719-46.035156-5.964844l-43.394531 33.4375c-6.945313 5.351563-11.386719 13.085938-12.515625 21.78125-1.121094 8.648438 1.175781 17.210938 6.460937 24.136719l5.511719 7.742188v86.679687c0 13.214844 10.75 23.964844 23.964844 23.964844s23.964844-10.75 23.964844-23.964844v-12.671875c0-1.515625 1.234374-2.746094 2.746093-2.746094 1.515625 0 2.746094 1.230469 2.746094 2.746094v42.957031c0 13.214844 10.753906 23.964844 23.964844 23.964844 12.324219 0 22.5-9.347656 23.816406-21.324219l8.6875 16.328125-2.617187 19.890625c-1.847657 14.019532 2.324218 55.519532 48.683593 55.519532h198.371094c55.421875 0 48.386719-57.773438 48.386719-57.773438 26.625-11.34375 49.625-30.308594 66.789062-55.128906 16.101563-23.285156 26.542969-51.132813 29.402344-78.40625 4.316406-41.15625-8.074219-76.191406-34-96.125zm-41.03125 43.78125c15.160156 5.800781 18.371094 28.515625 16.515625 46.207031-2.542969 24.226563-16.128906 57.71875-45.871094 77.449219l-15.320312-116.316406c15.960937-10.101563 30.988281-12.585938 44.675781-7.339844zm-189.132812-120.660156c0-11.246094 9.152343-20.398438 20.398437-20.398438s20.398437 9.152344 20.398437 20.398438v53.394531h-40.796874zm-225.042969 111.1875 43.390625-33.433594c7.75-5.972656 18.898437-4.558594 24.917968 3.136718l6.960938 9.773438c.054688.078125.109375.152344.167969.230469 15.214843 19.746093 11.53125 48.191406-8.214844 63.410156-19.710937 15.1875-48.09375 11.542969-63.332031-8.105469l-6.960938-9.78125c-.054687-.078125-.109375-.152344-.167968-.230468-2.90625-3.769532-8.601563-15.335938 3.238281-25zm76.652343 158.746093c0 4.941407-4.019531 8.964844-8.964843 8.964844-4.941407 0-8.964844-4.019531-8.964844-8.964844v-42.957031c0-9.785156-7.960937-17.746094-17.746094-17.746094-9.785156 0-17.746093 7.960938-17.746093 17.746094v12.671875c0 4.941406-4.019532 8.964844-8.964844 8.964844-4.945313 0-8.964844-4.019531-8.964844-8.964844v-71.699219c10.199219 7.066406 24.816406 11.269532 36.230469 10.695313l35.121093 66.015625zm-19.492187-93.847656c19.167969-4.878906 29.40625-19.300781 33.023437-24.910156l24.953126 24.273437-11.574219 87.855469zm287.464844 173.226563h-198.367188c-38.523437 0-33.558593-40.519532-33.558593-40.519532h18.550781c4.144531 0 7.5-3.355468 7.5-7.5 0-4.140625-3.355469-7.5-7.5-7.5h-16.574219l26.496094-201.160156c1.820312-13.820312 13.703125-24.238281 27.640625-24.238281h153.257812c13.9375 0 25.820313 10.417969 27.640625 24.238281l26.496094 201.160156h-213.214844c-4.140625 0-7.5 3.359375-7.5 7.5 0 4.144532 3.359375 7.5 7.5 7.5h215.191406s5.128907 40.519532-33.558593 40.519532zm0 0"/><path d="m267.390625 229.40625c12.425781 0 22.535156-11.957031 22.535156-26.65625 0-14.695312-10.109375-26.652344-22.535156-26.652344s-22.535156 11.957032-22.535156 26.652344c0 14.699219 10.109375 26.65625 22.535156 26.65625zm0-38.3125c3.5625 0 7.535156 4.789062 7.535156 11.65625s-3.972656 11.65625-7.535156 11.65625-7.535156-4.789062-7.535156-11.65625 3.972656-11.65625 7.535156-11.65625zm0 0"/></svg>