<svg height="512pt" viewBox="-99 0 512 512.00069" width="512pt" xmlns="http://www.w3.org/2000/svg"><path d="m190.230469 219.707031-88.289063-202.601562c-5.878906-13.488281-25.441406-12.578125-29.855468 1.457031-2.945313 9.371094-4.394532 20.566406-2.074219 33.027344 5.660156 30.433594 38 134.488281 49.371093 170.683594 2.53125 8.058593 1.847657 16.777343-1.898437 24.347656l-19.894531 40.179687 64.351562 23.632813 27.03125-52.367188c6.167969-11.949218 6.628906-26.035156 1.257813-38.359375zm0 0" fill="#889cb0"/><path d="m140.941406 106.597656c-9.070312 11.117188-23.695312 30.902344-39.035156 59.203125 7.023438 23.066407 13.519531 43.878907 17.476562 56.472657 2.53125 8.058593 1.851563 16.777343-1.898437 24.347656l-19.894531 40.179687 64.355468 23.632813 27.027344-52.367188c6.164063-11.949218 6.628906-26.035156 1.257813-38.359375zm0 0" fill="#6a829a"/><path d="m29.019531 500.605469c19.050781 9.320312 42.050781 1.429687 51.367188-17.621094l79.847656-163.222656-68.992187-33.75-79.84375 163.222656c-9.320313 19.050781-1.429688 42.050781 17.621093 51.371094zm0 0" fill="#e7896e"/><path d="m91.242188 286.011719-26.128907 53.417969c6.816407 8.953124 17.496094 20.738281 32.378907 30.882812 11.5625 7.878906 20.050781 16.710938 26.0625 24.425781l36.679687-74.976562zm0 0" fill="#dd6642"/><path d="m85.457031 311.976562 57.648438 28.199219c13.050781 6.386719 28.800781.980469 35.183593-12.066406 6.386719-13.050781.980469-28.804687-12.066406-35.1875l-57.652344-28.199219c-13.046874-6.382812-28.800781-.980468-35.183593 12.066406-6.382813 13.050782-.980469 28.804688 12.070312 35.1875zm0 0" fill="#f4e74d"/><path d="m178.292969 328.109375c6.382812-13.050781.976562-28.804687-12.070313-35.1875l-40.382812-19.753906c-.003906 0-17.671875-1.128907-23.253906 18.402343-3.652344 12.792969 3.699218 21.753907 7.332031 32.371094l33.1875 16.234375c13.050781 6.382813 28.800781.980469 35.1875-12.066406zm0 0" fill="#dfca00"/><path d="m124.460938 219.707031 88.289062-202.601562c5.878906-13.488281 25.441406-12.578125 29.855469 1.457031 2.945312 9.371094 4.394531 20.566406 2.074219 33.027344-5.660157 30.433594-38 134.488281-49.371094 170.683594-2.53125 8.058593-1.847656 16.777343 1.898437 24.347656l19.894531 40.179687-64.351562 23.632813-27.03125-52.367188c-6.164062-11.949218-6.628906-26.035156-1.257812-38.359375zm0 0" fill="#889cb0"/><path d="m285.574219 500.167969c-19.050781 9.316406-42.050781 1.429687-51.371094-17.621094l-79.84375-163.222656 68.988281-33.75 79.847656 163.222656c9.320313 19.050781 1.429688 42.050781-17.621093 51.371094zm0 0" fill="#f2ad9a"/><path d="m229.238281 311.976562-57.652343 28.199219c-13.046876 6.386719-28.800782.980469-35.183594-12.066406-6.382813-13.050781-.980469-28.804687 12.070312-35.1875l57.648438-28.199219c13.050781-6.382812 28.800781-.980468 35.183594 12.066406 6.382812 13.050782.980468 28.804688-12.066407 35.1875zm0 0" fill="#f9ee80"/><path d="m176.164062 236.113281c0 9.8125-7.949218 17.761719-17.761718 17.761719-9.808594 0-17.761719-7.949219-17.761719-17.761719 0-9.808593 7.953125-17.761719 17.761719-17.761719 9.8125 0 17.761718 7.953126 17.761718 17.761719zm0 0" fill="#fcf5af"/><path d="m309.925781 445.503906-66.285156-135.503906c2.601563-3.125 13.382813-15.230469 4.394531-36.503906-6.246094-14.789063-23.082031-21.574219-38.09375-18.042969l-6.019531-12.15625c-2.90625-5.867187-3.425781-12.535156-1.464844-18.777344 6.917969-22.019531 20.203125-64.707031 31.464844-103.214843 1.160156-3.972657-1.117187-8.132813-5.089844-9.296876-3.976562-1.164062-8.136719 1.117188-9.296875 5.089844-11.226562 38.386719-24.476562 80.964844-31.375 102.929688-3.125 9.945312-2.296875 20.574218 2.328125 29.917968l5.613281 11.332032-48.136718 23.550781-15.589844-30.199219c-5.152344-9.988281-5.535156-21.625-1.042969-31.929687l88.285157-202.601563c2.191406-5.023437 6.910156-5.175781 8.300781-5.097656 1.359375.070312 5.933593.703125 7.535156 5.808594 3.054687 9.71875 3.679687 19.617187 1.859375 29.410156-1.398438 7.503906-4.632812 20.40625-9.621094 38.347656-1.105468 3.988282 1.230469 8.117188 5.214844 9.226563 3.988281 1.109375 8.121094-1.226563 9.226562-5.214844 5.101563-18.359375 8.4375-31.6875 9.914063-39.621094 2.273437-12.226562 1.503906-24.558593-2.296875-36.644531-2.941406-9.367188-11.199219-15.757812-21.035156-16.28125-9.941406-.507812-18.878906 5-22.835938 14.082031l-48.535156 111.375-48.53125-111.375c-3.957031-9.082031-12.929688-14.589843-22.835938-14.0781248-9.835937.5234378-18.09375 6.9140628-21.039062 16.2773438-3.796875 12.089844-4.570312 24.417969-2.292969 36.648438 5.640625 30.320312 36.558594 130.078124 49.589844 171.558593 1.960937 6.242188 1.4375 12.910157-1.464844 18.777344l-6.019531 12.160156c-15.011719-3.53125-31.039062 3.617188-38.09375 18.039063-6.046875 12.359375-3.832031 26.644531 4.476562 36.570312l-47.6875 97.480469c-1.816406 3.71875-.332031 8.320313 3.441407 10.027344 4.804687 2.171875 8.722656-.78125 10.023437-3.4375l46.40625-94.863281 55.527344 27.160156-65.1875 133.257812c-7.488281 15.3125-26.039062 21.671875-41.347656 14.183594-15.308594-7.492188-21.671875-26.039062-14.179688-41.347656l6.015625-12.296875c1.816407-3.71875.277344-8.207031-3.4375-10.023438-3.722656-1.816406-8.207031-.28125-10.027343 3.4375l-6.015626 12.296875c-11.121093 22.730469-1.671874 50.273438 21.058594 61.394532 6.476563 3.167968 13.335938 4.664062 20.09375 4.664062 16.988282 0 33.347656-9.464844 41.300782-25.722656l66.507812-135.953125c.335938.007812 7.179688.019531 7.554688.007812l66.289062 135.507813c7.957031 16.257812 24.3125 25.722656 41.300781 25.722656 6.761719 0 13.625-1.5 20.097657-4.664062 11.011718-5.386719 35.703124-29.46875 21.058593-61.394532zm-75.351562-165.421875c4.675781 9.257813.6875 20.605469-8.632813 25.164063l-57.648437 28.199218c-4.515625 2.207032-20.03125 3.691407-25.160157-8.628906-5.980468-14.367187 4.117188-22.953125 8.628907-25.160156l57.652343-28.203125c2.652344-1.296875 18.207032-5.140625 25.160157 8.628906zm-157.195313-229.863281c-1.824218-9.792969-1.199218-19.6875 1.859375-29.410156 1.601563-5.101563 6.171875-5.738282 7.535157-5.808594 1.402343-.074219 6.109374.074219 8.296874 5.097656l54.101563 124.148438-26.980469 61.910156c-13.085937-41.984375-39.816406-129.085938-44.8125-155.9375zm2.738282 229.863281c4.558593-9.316406 15.847656-13.1875 25.160156-8.628906l25.308594 12.378906 4.890624 9.480469c-9.636718 9.136719-9.796874 24.617188-8.421874 30.671875l-38.304688-18.738281c-9.316406-4.558594-13.191406-15.847656-8.632812-25.164063zm202.164062 213.351563c-14.789062 8.46875-33.855469 1.128906-41.347656-14.179688l-64.992188-132.863281 55.527344-27.164063 64.996094 132.863282c3.628906 7.414062 5.46875 30.09375-14.183594 41.34375zm0 0"/><path d="m133.035156 236.113281c0 13.925781 11.328125 25.253907 25.253906 25.253907 13.921876 0 25.253907-11.328126 25.253907-25.253907 0-13.921875-11.332031-25.253906-25.253907-25.253906-13.925781 0-25.253906 11.332031-25.253906 25.253906zm35.519532 0c0 5.664063-4.605469 10.269531-10.265626 10.269531-5.660156 0-10.265624-4.605468-10.265624-10.269531 0-5.660156 4.605468-10.265625 10.265624-10.265625 5.660157 0 10.265626 4.605469 10.265626 10.265625zm0 0"/></svg>