<svg height="512pt" viewBox="-43 0 512 512" width="512pt" xmlns="http://www.w3.org/2000/svg"><path d="m195.300781 7.5c-26.488281 0-49.585937 14.480469-61.828125 35.953125-6.378906 11.191406-17.71875 18.605469-30.511718 20.101563-17.359376 2.027343-33.707032 11.507812-43.921876 27.347656-18.136718 28.132812-10.035156 65.644531 18.097657 83.78125 28.132812 18.140625 189.304687-56.75 189.304687-96.042969 0-39.289063-31.847656-71.140625-71.140625-71.140625zm0 0" fill="#dd6642"/><path d="m145.777344 81.691406c-15.621094 35.707032-66.105469 46.5-96.292969 38.167969-1.339844 21.207031 8.527344 42.492187 27.652344 54.824219 28.132812 18.140625 189.304687-56.75 189.304687-96.042969 0-16.121094-5.355468-30.984375-14.394531-42.914063-.292969-.007812-85.304687-1.953124-106.269531 45.964844zm0 0" fill="#b24e2f"/><path d="m305.851562 44.410156c-22.261718-1.074218-42.621093 7.050782-57.617187 20.90625-7.832031 7.238282-18.402344 10.554688-28.957031 9.027344-23.210938-3.359375-47.488282 7.015625-60.523438 28.992188-14.71875 24.816406-9.496094 57.152343 12.339844 76.015624 22.742188 19.652344 109.917969 23.261719 130.832031 23.261719 44.753907 0 80.832031-37.144531 79.089844-82.285156-1.574219-40.691406-34.492187-73.953125-75.164063-75.917969zm0 0" fill="#e7896e"/><path d="m36.265625 190.269531 29.90625 266.199219c3.074219 27.351562 26.203125 48.03125 53.726563 48.03125h185.761718c27.523438 0 50.652344-20.679688 53.726563-48.03125l29.90625-266.199219zm0 0" fill="#73da8c"/><path d="m36.265625 190.269531 29.90625 266.199219c3.074219 27.351562 26.203125 48.03125 53.726563 48.03125h62.601562c-35.09375-47.519531-45.464844-109.492188-48.140625-154.960938-1.765625-29.945312 12.886719-58.175781 37.785156-74.910156 28.507813-19.164062 40.632813-51.703125 40.632813-51.703125v-32.65625zm0 0" fill="#29ce69"/><path d="m379.484375 222.925781h-333.414063c-21.300781 0-38.570312-17.269531-38.570312-38.570312s17.269531-38.574219 38.570312-38.574219h333.414063c21.304687 0 38.574219 17.269531 38.574219 38.574219 0 21.300781-17.269532 38.570312-38.574219 38.570312zm0 0" fill="#f9ee80"/><path d="m95.5 184.355469c0-21.300781 17.269531-38.574219 38.570312-38.574219h-88c-21.300781 0-38.570312 17.269531-38.570312 38.574219 0 21.300781 17.269531 38.570312 38.570312 38.570312h88c-21.300781 0-38.570312-17.269531-38.570312-38.570312zm0 0" fill="#eedb00"/><path d="m345.199219 421.566406c-57.820313 0-88.074219-95.054687-88.074219-188.953125h45.226562c0 93.363281 30.445313 142.859375 42.847657 143.726563 20.382812 1.421875 28.722656-49.25 31.628906-75.121094 0 0 34.828125 41.484375 19.949219 78.609375-10.773438 26.882813-27.929688 41.738281-51.578125 41.738281zm0 0" fill="#6a829a"/><path d="m315.152344 219.769531c0 19.558594-15.855469 35.414063-35.414063 35.414063-19.558593 0-35.414062-15.855469-35.414062-35.414063 0-19.558593 15.855469-35.414062 35.414062-35.414062 19.558594 0 35.414063 15.855469 35.414063 35.414062zm0 0" fill="#889cb0"/><path d="m126.824219 399.53125c0-9.078125-9.242188-16.4375-20.640625-16.4375-11.402344 0-20.644532 7.359375-20.644532 16.4375s9.242188 16.4375 20.644532 16.4375c11.398437 0 20.640625-7.359375 20.640625-16.4375zm0 0" fill="#ffb3dd"/><path d="m279.738281 399.53125c0-9.078125-9.242187-16.4375-20.640625-16.4375-11.398437 0-20.640625 7.359375-20.640625 16.4375s9.242188 16.4375 20.640625 16.4375c11.398438 0 20.640625-7.359375 20.640625-16.4375zm0 0" fill="#ffb3dd"/><path d="m182.640625 402.304688c7.136719 0 13.738281-3.5625 17.660156-9.53125 2.273438-3.460938 1.308594-8.113282-2.152343-10.386719-1.269532-.832031-6.882813-2.992188-10.386719 2.152343-1.679688 2.46875-4.128907 2.765626-5.121094 2.765626-.996094 0-3.484375-.273438-5.125-2.765626-2.273437-3.460937-6.921875-4.425781-10.382813-2.152343-3.464843 2.273437-4.425781 6.925781-2.152343 10.386719 3.917969 5.96875 10.519531 9.53125 17.660156 9.53125zm0 0"/><path d="m118.445312 388.050781c.859376-.859375 1.863282-.988281 2.386719-.988281.523438 0 1.453125.207031 2.386719.988281 4.734375 3.964844 9.144531 1.464844 10.605469 0 2.933593-2.929687 2.933593-7.675781.003906-10.605469-3.472656-3.472656-8.085937-5.382812-12.996094-5.382812-4.90625 0-9.523437 1.914062-12.992187 5.382812-2.929688 2.929688-2.929688 7.675782 0 10.605469 2.929687 2.929688 7.675781 2.929688 10.605468 0zm0 0"/><path d="m242.058594 388.050781c.859375-.859375 1.863281-.988281 2.386718-.988281.523438 0 1.453126.207031 2.386719.988281 4.734375 3.964844 9.144531 1.464844 10.605469 0 2.929688-2.929687 2.929688-7.675781.003906-10.605469-3.472656-3.472656-8.085937-5.382812-12.996094-5.382812-4.90625 0-9.523437 1.914062-12.992187 5.382812-2.929687 2.929688-2.929687 7.675782 0 10.605469 2.929687 2.929688 7.675781 2.929688 10.605469 0zm0 0"/><path d="m425.558594 184.355469c0-25.40625-20.667969-46.074219-46.070313-46.074219h-221.359375c-.910156-10.878906 1.546875-21.792969 7.078125-31.121094 10.96875-18.5 31.773438-28.460937 52.996094-25.394531 12.792969 1.851563 25.59375-2.136719 35.125-10.941406 14.222656-13.140625 32.746094-19.855469 52.164063-18.921875 34.710937 1.675781 63.792968 29.019531 67.644531 63.601562.460937 4.113282 4.167969 7.082032 8.285156 6.621094 4.117187-.457031 7.082031-4.167969 6.625-8.285156-4.660156-41.820313-39.839844-74.890625-81.832031-76.917969-14.03125-.679687-27.667969 1.976563-40.050782 7.597656-12.984374-26.9375-40.472656-44.519531-70.863281-44.519531-28.183593 0-54.367187 15.226562-68.339843 39.738281-5.148438 9.027344-14.445313 15.148438-24.871094 16.363281-20.300782 2.375-38.289063 13.578126-49.351563 30.734376-9.867187 15.300781-13.105469 33.949218-9.269531 51.523437-24.195312 1.355469-43.46875 21.464844-43.46875 45.992187 0 20.871094 13.953125 38.535157 33.015625 44.175782l8.367187 74.484375c.433594 3.832031 3.679688 6.664062 7.445313 6.664062.28125 0 .5625-.019531.847656-.050781 4.113281-.460938 7.078125-4.171875 6.613281-8.289062l-7.964843-70.910157h189.839843c2.007813 7.824219 6.179688 14.789063 11.828126 20.230469 1.867187 46.042969 10.699218 88.578125 24.980468 120.09375 17.289063 38.148438 48.496094 62.214844 80.035156 57.507812l-3.074218 27.375c-2.652344 23.582032-22.542969 41.367188-46.277344 41.367188h-185.757812c-23.730469 0-43.625-17.785156-46.273438-41.367188l-13.78125-122.6875c-.464844-4.117187-4.175781-7.082031-8.292969-6.617187-4.117187.464844-7.078125 4.175781-6.617187 8.292969l13.785156 122.6875c3.503906 31.179687 29.804688 54.691406 61.179688 54.691406h185.761718c31.375 0 57.675782-23.511719 61.179688-54.691406l3.84375-34.230469c16.925781-8.746094 27.101562-25.597656 33.058594-40.460937 14.296874-35.675782-11.382813-73.441407-19.117188-83.621094l7.917969-70.464844c19.0625-5.644531 33.015625-23.308594 33.015625-44.175781zm-56.183594 116.027343c-5.074219 45.15625-15.539062 68.484376-23.378906 68.484376-.015625 0-.035156 0-.050782 0-6.671874-2.523438-32.324218-39.058594-35.726562-118.925782 5.277344-5.332031 9.171875-12.03125 11.09375-19.515625h55.921875zm-117.550781-80.613281c0-15.390625 12.523437-27.914062 27.914062-27.914062s27.914063 12.523437 27.914063 27.914062-12.523438 27.914063-27.914063 27.914063-27.914062-12.523438-27.914062-27.914063zm-186.480469-124.804687c8.625-13.378906 22.652344-22.113282 38.488281-23.960938 15.140625-1.773437 28.65625-10.683594 36.160157-23.835937 11.308593-19.84375 32.503906-32.167969 55.308593-32.167969 24.921875 0 47.429688 14.609375 57.757813 36.898438-8.734375 14.167968-24.410156 16.21875-32.707032 15.019531-27.253906-3.9375-53.96875 8.851562-68.046874 32.589843-6.910157 11.652344-10.09375 25.210938-9.214844 38.773438h-84.164063c-4.136719-14.597656-1.863281-30.46875 6.417969-43.316406zm171.699219 120.460937s-195.753907-.367187-195.757813-.367187c-14.867187-2.308594-26.285156-15.199219-26.285156-30.703125 0-17.132813 13.9375-31.070313 31.070312-31.070313h333.414063c17.132813 0 31.074219 13.9375 31.074219 31.070313 0 17.132812-13.941406 31.070312-31.074219 31.070312h-57.050781c-2.1875-21.628906-20.5-38.570312-42.695313-38.570312-22.199219 0-40.511719 16.941406-42.695312 38.570312zm152.773437 161.613281c-9.847656 24.570313-24.855468 37.027344-44.617187 37.027344-28.207031 0-46.328125-26.921875-56.5625-49.507812-12.457031-27.488282-20.539063-64.132813-23.121094-104.308594 4.453125 1.570312 17.691406 4.753906 30.203125-.664062 2.675781 40.925781 11.027344 69.128906 17.894531 86.0625 4.519531 11.140624 16.585938 37.160156 31.066407 38.171874 17.476562 1.238282 29.863281-19.601562 36.882812-61.960937 7.871094 14.191406 16.054688 35.714844 8.253906 55.179687zm0 0"/></svg>