<svg height="512pt" viewBox="-81 0 512 512.00233" width="512pt" xmlns="http://www.w3.org/2000/svg"><path d="m119.082031 95.132812c-24.566406 13.671876-47.914062 11.242188-64.464843 5.921876-7.542969-2.429688-14.726563 4.757812-12.300782 12.300781 5.324219 16.546875 7.753906 39.898437-5.917968 64.464843-4.605469 8.277344-.109376 18.503907 9.082031 20.789063 12.75 3.167969 28.191406 11.691406 39.890625 33.019531 3.628906 6.613282 12.578125 8 17.96875 2.71875 11.828125-11.59375 32.929687-24.882812 63.296875-8.972656-15.90625-30.371094-2.617188-51.46875 8.976562-63.300781 5.28125-5.386719 3.890625-14.335938-2.722656-17.964844-21.324219-11.703125-29.851563-27.144531-33.019531-39.894531-2.285156-9.1875-12.511719-13.6875-20.789063-9.082032zm0 0" fill="#00a62c"/><path d="m180.050781 234.140625c-5.992187 0-11.714843-3.4375-14.347656-9.25-29.785156-65.703125 6.039063-128.84375 9.804687-135.167969l39.996094-73.96875c4.132813-7.652344 13.6875-10.496094 21.339844-6.363281 7.648438 4.136719 10.496094 13.691406 6.363281 21.339844l-40.375 74.675781-.226562.367188c-.296875.492187-31.9375 53.796874-8.21875 106.113281 3.589843 7.921875.078125 17.253906-7.84375 20.84375-2.109375.957031-4.316407 1.410156-6.492188 1.410156zm0 0" fill="#29ce69"/><path d="m244.25 435.730469c0 37.980469-30.792969 68.769531-68.773438 68.769531-37.980468 0-68.769531-30.789062-68.769531-68.769531s30.789063-68.773438 68.769531-68.773438c37.980469 0 68.773438 30.792969 68.773438 68.773438zm0 0" fill="#8049bf"/><path d="m175.476562 366.957031c-37.980468 0-68.769531 30.789063-68.769531 68.773438 0 3.8125.308594 7.542969.90625 11.1875 16.035157 6.609375 39.78125 13.699219 67.863281 13.699219 23.574219 0 44.523438 3.746093 60.476563 7.882812 5.289063-9.742188 8.292969-20.90625 8.292969-32.769531 0-37.984375-30.789063-68.773438-68.769532-68.773438zm0 0" fill="#6d36ab"/><path d="m298.207031 357.074219c0 37.980469-30.789062 68.769531-68.769531 68.769531s-68.773438-30.789062-68.773438-68.769531 30.792969-68.769531 68.773438-68.769531 68.769531 30.789062 68.769531 68.769531zm0 0" fill="#996acc"/><path d="m229.433594 288.304688c-37.980469 0-68.769532 30.789062-68.769532 68.769531 0 2.738281.160157 5.433593.472657 8.089843 46.515625-3.816406 92.289062 4.523438 125.726562 29.757813 7.167969-10.855469 11.34375-23.863281 11.34375-37.847656 0-37.980469-30.789062-68.769531-68.773437-68.769531zm0 0" fill="#8049bf"/><path d="m190.289062 357.074219c0 37.980469-30.789062 68.769531-68.769531 68.769531s-68.773437-30.789062-68.773437-68.769531 30.792968-68.769531 68.773437-68.769531 68.769531 30.789062 68.769531 68.769531zm0 0" fill="#b18cd9"/><path d="m121.519531 288.304688c-36.035156 0-65.597656 27.710937-68.53125 62.988281 18.128907 10.183593 49.316407 21.683593 92.054688 15.664062 15.023437-2.113281 30.109375-3.015625 44.859375-2.558593.257812-2.40625.386718-4.847657.386718-7.324219 0-37.980469-30.789062-68.769531-68.769531-68.769531zm0 0" fill="#996acc"/><path d="m145.042969 258.855469c0 37.984375-30.789063 68.773437-68.769531 68.773437-37.980469 0-68.773438-30.789062-68.773438-68.773437 0-37.980469 30.792969-68.769531 68.773438-68.769531 37.980468 0 68.769531 30.789062 68.769531 68.769531zm0 0" fill="#c7aee4"/><path d="m343.453125 258.855469c0 37.984375-30.789063 68.773437-68.769531 68.773437-37.984375 0-68.773438-30.789062-68.773438-68.773437 0-37.980469 30.789063-68.769531 68.773438-68.769531 37.980468 0 68.769531 30.789062 68.769531 68.769531zm0 0" fill="#c7aee4"/><path d="m244.25 258.855469c0 37.984375-30.792969 68.773437-68.773438 68.773437-37.980468 0-68.769531-30.789062-68.769531-68.773437 0-37.980469 30.789063-68.769531 68.769531-68.769531 37.980469 0 68.773438 30.789062 68.773438 68.769531zm0 0" fill="#e8ddf5"/><path d="m228.824219 179.78125c-33.535157 0-60.816407-27.28125-60.816407-60.816406s27.28125-60.816406 60.816407-60.816406c33.535156 0 60.816406 27.28125 60.816406 60.816406s-27.28125 60.816406-60.816406 60.816406zm0-90.140625c-16.171875 0-29.324219 13.15625-29.324219 29.324219 0 16.171875 13.152344 29.324218 29.324219 29.324218 16.167969 0 29.324219-13.152343 29.324219-29.324218 0-16.167969-13.15625-29.324219-29.324219-29.324219zm0 0" fill="#73da8c"/><path d="m350.953125 258.855469c0-42.054688-34.214844-76.269531-76.273437-76.269531-18.410157 0-35.8125 6.5-49.628907 18.378906-8.789062-7.539063-19.296875-13.121094-30.863281-16.050782-.375-2.496093-.660156-5.023437-.84375-7.589843 10.347656 6.316406 22.496094 9.957031 35.480469 9.957031 37.667969 0 68.316406-30.644531 68.316406-68.316406 0-4.140625-3.359375-7.5-7.5-7.5-4.144531 0-7.5 3.359375-7.5 7.5 0 29.398437-23.917969 53.316406-53.316406 53.316406-29.398438 0-53.316407-23.917969-53.316407-53.316406 0-29.398438 23.917969-53.316406 53.316407-53.316406 19.542969 0 37.503906 10.707031 46.875 27.9375 1.980469 3.636718 6.53125 4.984374 10.175781 3.003906 3.636719-1.976563 4.980469-6.535156 3.003906-10.171875-10.117187-18.601563-28.0625-31.261719-48.453125-34.777344l9.375-17.34375c6.097657-11.273437 1.882813-25.40625-9.394531-31.503906-11.277344-6.09375-25.410156-1.878907-31.503906 9.394531l-39.921875 73.839844c-1.65625 2.796875-8.527344 14.945312-14.25 32.867187-3.5625-5.03125-6.105469-10.539062-7.582031-16.484375-1.660157-6.6875-6.207032-12.082031-12.476563-14.804687-6.238281-2.707031-13.25-2.351563-19.234375.976562-18.257812 10.160157-37.945312 11.953125-58.523438 5.335938-6.179687-1.992188-12.878906-.363281-17.488281 4.246093-4.609375 4.609376-6.238281 11.3125-4.25 17.492188 6.621094 20.574219 4.171875 39.917969-5.335937 58.519531-7.339844 14.367188.417968 22.007813 1.300781 23.246094-18.867187 13.898437-31.140625 36.257813-31.140625 61.4375 0 32.839844 20.867188 60.898437 50.035156 71.621094-3.144531 8.46875-4.789062 17.503906-4.789062 26.597656 0 34.371094 22.863281 63.496094 54.179687 72.992187-.140625 1.886719-3 81.933594 76.050781 81.933594 13.753907 0 27.234376-3.703125 38.992188-10.707031 3.558594-2.121094 4.722656-6.726563 2.601562-10.285156-2.121093-3.558594-6.722656-4.722657-10.28125-2.601563-9.4375 5.621094-20.261718 8.59375-31.3125 8.59375-33.785156 0-60.957031-22.441406-61.207031-64.007812 25.25.816406 47.363281-8.210938 61.175781-22.039063 14.242188 14.332031 33.441407 22.390625 53.988282 22.390625 2.445312 0 4.859375-.128906 7.246094-.351562.285156 15.015625-3.472657 26.605468-10.171876 36.65625-2.296874 3.449218-1.363281 8.105468 2.085938 10.402344 1.277344.851562 7.195312 3 10.398438-2.085938 8.027343-12.730469 13.253906-24.71875 12.542968-47.898438 31.3125-9.5 54.171875-38.621093 54.171875-72.992187 0-9.09375-1.644531-18.128906-4.789062-26.597656 29.171875-10.722657 50.035156-38.78125 50.035156-71.625zm-114.207031 0c0 33.785156-27.484375 61.273437-61.269532 61.273437-33.785156 0-61.269531-27.484375-61.269531-61.273437 0-33.78125 27.484375-61.269531 61.269531-61.269531 33.785157 0 61.269532 27.488281 61.269532 61.269531zm-58.550782-94.070313c-.257812 6.070313-.0625 12.046875.578126 17.882813-1.09375-.046875-12.253907.335937-16.5625 1.097656-1.632813-15.28125-.402344-29.6875 2.109374-42.335937 3.046876 8.71875 7.796876 16.644531 13.875 23.355468zm43.902344-145.464844c2.164063-4 7.175782-5.492187 11.175782-3.332031 4 2.160157 5.496093 7.175781 3.332031 11.175781l-12.808594 23.691407c-7.585937.554687-14.84375 2.332031-21.546875 5.175781zm-179.148437 162.148438c23.644531-37.019531 6.710937-72.328125 7.082031-72.699219.371094-.371093 31.835938 16.085938 72.699219-7.082031 2.550781-1.445312 4.839843-.8125 5.96875-.324219 1.949219.847657 3.367187 2.546875 3.894531 4.660157 2.871094 11.558593 8.742188 21.789062 17.472656 30.488281-3.199218 15.136719-4.8125 32.703125-2.484375 51.382812-7.96875 3.140625-15.277343 7.585938-21.679687 13.074219-13.8125-11.882812-31.21875-18.382812-49.628906-18.382812-11.445313 0-22.300782 2.550781-32.050782 7.085937-.671875-.621094-4.121094-3.746094-1.273437-8.203125zm78.570312 236.875c-33.785156 0-61.273437-27.484375-61.273437-61.269531 0-7.835938 1.515625-15.613281 4.40625-22.832031 3.789062.582031 21.914062 2.613281 36.386718-3.226563 3.839844-1.550781 6.003907-5.613281 4.660157-9.53125s-5.613281-6-9.527344-4.65625c-6.386719 2.1875-13.078125 3.300781-19.898437 3.300781-33.785157 0-61.269532-27.484375-61.269532-61.273437 0-33.78125 27.484375-61.269531 61.269532-61.269531 14.511718 0 28.246093 5.019531 39.242187 14.222656-10.203125 12.972656-16.308594 29.304687-16.308594 47.046875 0 42.058593 31.355469 77.460937 79.484375 75.9375 2.707032 7.003906 4.097656 14.636719 4.097656 22.28125 0 33.785156-27.484374 61.269531-61.269531 61.269531zm169.1875-61.269531c0 33.785156-27.484375 61.269531-61.273437 61.269531-17.015625 0-32.875-6.890625-44.417969-19.078125 8.0625-12.09375 12.773437-26.601563 12.773437-42.191406 0-8.34375-1.320312-16.445313-3.921874-24.203125 11.683593-2.902344 22.300781-8.507813 31.167968-16.113282 13.804688 11.890626 40.613282 20.492188 61.265625 17.484376 2.890625 7.222656 4.40625 14.996093 4.40625 22.832031zm-16.023437-36.945313c-14.558594 0-28.261719-5.011718-39.246094-14.21875 10.203125-12.972656 16.308594-29.308594 16.308594-47.054687 0-17.742188-6.105469-34.074219-16.304688-47.046875 10.992188-9.203125 24.730469-14.222656 39.242188-14.222656 33.78125 0 61.269531 27.484374 61.269531 61.269531 0 33.785156-27.488281 61.273437-61.269531 61.273437zm0 0"/><path d="m192 118.964844c0 20.304687 16.519531 36.824218 36.824219 36.824218 20.304687 0 36.824219-16.519531 36.824219-36.824218 0-20.304688-16.519532-36.824219-36.824219-36.824219-20.304688 0-36.824219 16.519531-36.824219 36.824219zm58.648438 0c0 12.035156-9.789063 21.824218-21.824219 21.824218-12.03125 0-21.824219-9.789062-21.824219-21.824218 0-12.03125 9.792969-21.824219 21.824219-21.824219 12.035156 0 21.824219 9.792969 21.824219 21.824219zm0 0"/></svg>