<svg height="512pt" viewBox="-56 0 512 512" width="512pt" xmlns="http://www.w3.org/2000/svg"><path d="m388.609375 131.59375c-11.917969-35.21875-43.585937-58.148438-78.480469-60.65625-13.949218-1-26.832031-8.1875-34.308594-20.007812-16.613281-26.253907-44.179687-43.429688-75.375-43.429688-31.199218 0-58.761718 17.175781-75.375 43.429688-7.480468 11.820312-20.363281 19.007812-34.3125 20.007812-34.894531 2.507812-66.5625 25.4375-78.480468 60.65625-13.015625 38.457031 1.570312 79.597656 33.113281 101.898438 10.15625 7.175781 17.507813 17.816406 19.902344 30.019531 5.050781 25.71875 24.269531 47.601562 51.316406 54.730469 35.109375 9.261718 71.003906-9.609376 83.835937-42.679688 12.828126 33.070312 48.722657 51.941406 83.832032 42.679688 27.046875-7.128907 46.265625-29.011719 51.316406-54.730469 2.394531-12.203125 9.746094-22.84375 19.902344-30.019531 31.542968-22.300782 46.128906-63.441407 33.113281-101.898438zm0 0" fill="#73da8c"/><path d="m248.5 22.472656c-13.980469-9.496094-30.4375-14.972656-48.054688-14.972656-31.199218 0-58.761718 17.175781-75.375 43.429688-7.480468 11.820312-20.363281 19.007812-34.3125 20.007812-34.894531 2.507812-66.5625 25.4375-78.480468 60.65625-13.015625 38.457031 1.570312 79.597656 33.113281 101.898438 10.15625 7.175781 17.507813 17.816406 19.902344 30.019531 5.050781 25.71875 24.269531 47.601562 51.316406 54.730469 35.109375 9.261718 71.003906-9.609376 83.835937-42.679688 0 0 9.269532-56.289062-24.007812-107.265625-11.398438-17.457031-15.296875-38.871094-9.949219-59.019531 19.765625-74.453125 82.011719-86.804688 82.011719-86.804688zm0 0" fill="#29ce69"/><path d="m128.398438 206.84375c16.566406 12.320312 42.898437 36.8125 42.898437 73.226562 0 0-.1875 9.058594-.394531 23.367188h60.3125c-.078125-5.609375-.058594-10.375-.007813-14.089844.117188-7.953125-.90625-15.871094-3.121093-23.507812-7.21875-24.910156-28.371094-74.523438-83.910157-90.933594-13.8125-4.082031-19.902343 7.5-20.019531 7.667969-5.316406 7.917969-3.410156 18.578125 4.242188 24.269531zm0 0" fill="#dd6642"/><path d="m231.214844 303.4375c-.078125-5.609375-.058594-10.375-.007813-14.089844.117188-7.953125-.90625-15.871094-3.121093-23.507812-5.875-20.273438-20.980469-56.910156-56.339844-78.691406-6.011719 7.273437-14.339844 20.480468-19.703125 41.980468 10.546875 13.007813 19.253906 30.003906 19.253906 50.941406 0 0-.1875 9.058594-.394531 23.363282h60.3125zm0 0" fill="#b24e2f"/><path d="m231.90625 280.324219c0-36.414063 25.246094-61.160157 41.8125-73.480469 7.648438-5.691406 9.558594-16.351562 4.242188-24.265625-.113282-.171875-6.203126-11.75-20.019532-7.671875-55.539062 16.410156-76.691406 66.027344-83.910156 90.933594-2.214844 7.636718-3.238281 15.558594-3.121094 23.507812.425782 29.5-1.296875 124.78125-38.421875 187.152344h137.585938c-44.382813-74.566406-38.167969-196.175781-38.167969-196.175781zm0 0" fill="#e7896e"/><path d="m266.707031 429.234375-17.355469 15.902344c-5.753906 5.269531-14.664062 4.980469-20.0625-.652344l-11.917968-12.4375c-9.226563-9.628906-24.613282-9.628906-33.839844 0l-11.917969 12.4375c-5.398437 5.632813-14.308593 5.921875-20.0625.652344l-17.355469-15.902344c-9.109374-8.347656-23.136718-8.1875-32.050781.367187l-15.316406 14.695313c-11.695313 9.902344-10.757813 25.230469-10.757813 25.230469 0 19.316406 15.65625 34.972656 34.972657 34.972656h178.816406c19.316406 0 34.972656-15.65625 34.972656-34.972656 0 0 0-16.429688-10.761719-25.230469l-15.3125-14.695313c-8.914062-8.554687-22.941406-8.714843-32.050781-.367187zm0 0" fill="#73da8c"/><g fill="#fd5c6f"><path d="m263.5 124.351562c0 8.285157-6.71875 15-15 15-8.285156 0-15-6.714843-15-15 0-8.285156 6.714844-15 15-15 8.28125 0 15 6.714844 15 15zm0 0"/><path d="m354.832031 179.789062c0 8.285157-6.714843 15-15 15-8.285156 0-15-6.714843-15-15 0-8.285156 6.714844-15 15-15 8.285157 0 15 6.714844 15 15zm0 0"/><path d="m131.707031 260.546875c0 8.28125-6.714843 15-15 15-8.285156 0-15-6.71875-15-15 0-8.285156 6.714844-15 15-15 8.285157 0 15 6.714844 15 15zm0 0"/><path d="m106.054688 139.351562c0 8.285157-6.714844 15-15 15-8.285157 0-15-6.714843-15-15 0-8.285156 6.714843-15 15-15 8.285156 0 15 6.714844 15 15zm0 0"/><path d="m199.796875 65.441406c0 8.285156-6.714844 15-15 15s-15-6.714844-15-15 6.714844-15 15-15 15 6.714844 15 15zm0 0"/></g><path d="m197.222656 463.789062c4.769532-26.5625 20.148438-31.742187 20.148438-31.742187-9.222656-9.628906-24.613282-9.628906-33.835938 0l-11.921875 12.4375c-5.394531 5.632813-14.308593 5.921875-20.058593.652344l-17.355469-15.902344c-9.113281-8.347656-23.140625-8.183594-32.054688.371094l-15.3125 14.691406c-11.699219 9.90625-10.761719 25.234375-10.761719 25.234375 0 19.3125 15.65625 34.972656 34.972657 34.972656h98.839843c-7.503906-10.761718-15.292968-26.046875-12.660156-40.714844zm0 0" fill="#29ce69"/><path d="m395.714844 129.1875c-12.5625-37.117188-45.945313-62.917969-85.046875-65.726562-11.839844-.855469-22.496094-7.035157-28.511719-16.539063-18.589844-29.382813-49.136719-46.921875-81.710938-46.921875-32.578124 0-63.125 17.539062-81.714843 46.921875-6.011719 9.503906-16.671875 15.6875-28.511719 16.539063-18.679688 1.339843-36.492188 8.015624-51.503906 19.304687-3.3125 2.488281-3.976563 7.1875-1.488282 10.5 2.492188 3.3125 7.191407 3.976563 10.5 1.488281 12.707032-9.550781 27.769532-15.199218 43.566407-16.332031 16.570312-1.191406 31.566406-9.972656 40.113281-23.480469 15.824219-25.011718 41.632812-39.941406 69.039062-39.941406 27.402344 0 53.210938 14.929688 69.035157 39.9375 8.550781 13.511719 23.542969 22.292969 40.113281 23.480469 33.0625 2.378906 61.289062 24.191406 71.910156 55.578125 5.789063 17.097656 5.839844 35.160156.144532 52.230468-5.511719 16.53125-16.335938 31.140626-30.480469 41.136719-12.070313 8.53125-20.214844 20.855469-22.933594 34.699219-4.703125 23.960938-22.28125 42.707031-45.867187 48.925781-14.464844 3.816407-29.679688 2.382813-43.125-4-.339844-15.96875.144531-26.082031.15625-26.285156.007812-.125.007812-.253906.007812-.378906 0-33.601563 24.300781-56.691407 38.789062-67.464844 10.832032-8.054687 13.5-23.058594 6.140626-34.242187-4.464844-7.648438-14.554688-15.03125-28.519532-10.902344-21.300781 6.292968-39.664062 17.699218-54.761718 33.964844-15.113282-16.265626-33.492188-27.683594-54.753907-33.964844-13.949219-4.121094-24.039062 3.25-28.515625 10.898437-7.359375 11.199219-4.691406 26.191407 6.140625 34.246094 18.132813 13.488281 39.734375 36.035156 39.863281 66.929687-.296874 3.195313-.300781 19.765626-.425781 26.347657-13.867187 7.121093-29.636719 8.859375-44.839843 4.855469-23.589844-6.222657-41.164063-24.96875-45.871094-48.925782-2.714844-13.84375-10.859375-26.167968-22.929688-34.699218-14.144531-10-24.972656-24.609376-30.484375-41.136719-5.691406-17.074219-5.640625-35.136719.144531-52.234375 2.210938-6.527344 5.214844-12.738282 8.933594-18.460938 2.253906-3.476562 1.269532-8.121094-2.207031-10.375-3.472656-2.257812-8.117187-1.269531-10.375 2.203125-4.398437 6.769531-7.949219 14.113281-10.558594 21.824219-6.84375 20.21875-6.902343 41.585938-.164062 61.785156 6.515625 19.539063 19.316406 36.8125 36.054687 48.640625 8.90625 6.296875 14.898438 15.296875 16.871094 25.34375 5.820312 29.644531 27.515625 53.050781 56.761719 60.539063 20.0625 5.136718 39.113281.839844 48.09375-2.660156-1.457031 29.460937-5.800781 69.3125-17.652344 106.25l-5.871094-5.382813c-11.992187-10.988281-30.578125-10.773437-42.316406.488281l-15.152344 14.539063c-13.40625 11.507812-13.316406 28.441406-13.226562 30.960937.085937 23.34375 19.105469 42.308594 42.46875 42.308594h178.820312c23.417969 0 42.46875-19.054688 42.46875-42.472656 0-.808594-.148437-19.871094-13.265625-30.835938l-15.113281-14.5c-11.734375-11.261718-30.320313-11.476562-42.3125-.488281l-4.578125 4.195313c-2.746094-8.707032-5.210938-17.960938-7.34375-27.660157-.890625-4.046875-4.894531-6.609375-8.9375-5.710937-4.046875.890625-6.605469 4.890625-5.714844 8.9375 2.777344 12.609375 6.085938 24.546875 9.851563 35.558594 0 0-5.238281 5.105468-10.210938.269531l-11.921875-12.4375c-5.890625-6.144531-13.820312-9.53125-22.332031-9.53125s-16.441406 3.386719-22.335937 9.53125l-11.917969 12.4375c-2.367188 2.46875-6.210938 2.769531-8.933594.828125 20.179687-58.132813 21.523437-124.597656 21.140625-150.882813-.105469-7.3125.84375-14.480469 2.828125-21.3125 7.402344-25.542969 27.492187-70.660156 78.832031-85.824219 6.9375-2.050781 10.25 2.214844 11.351563 4.144532.089843.160156.214843.363281.316406.515625 3.070313 4.5625 1.972656 10.742187-2.492187 14.0625-16.71875 12.433593-44.746094 39.257812-44.835938 79.3125-.167969 3.492187-1.878906 43.421875 4.945312 91.472656.582032 4.101563 4.382813 6.957031 8.480469 6.371094 4.101563-.585938 6.953125-4.382813 6.371094-8.480469-2.371094-16.683594-3.671875-32.496094-4.363281-46.03125 8.492187 3.0625 29.074218 6.445312 46.351562 2.027344 28.804688-7.367188 51.027344-31.34375 56.761719-60.539063 1.972656-10.046875 7.964844-19.046875 16.871094-25.34375 16.734375-11.828125 29.539062-29.101562 36.054687-48.636719 6.734375-20.203124 6.679688-41.570312-.164062-61.789062zm-218.683594 320.484375 11.917969-12.4375c3.03125-3.167969 7.117187-4.910156 11.503906-4.910156 4.382813 0 8.472656 1.742187 11.503906 4.910156l11.917969 12.4375c8.152344 8.507813 21.855469 8.957031 30.542969.992187l17.355469-15.898437c6.175781-5.660156 15.75-5.550781 21.796874.25 0 0 15.601563 14.957031 15.753907 15.082031 7.804687 6.386719 8.007812 19.332032 8.007812 19.429688 0 15.148437-12.320312 27.472656-27.46875 27.472656h-178.820312c-15.144531 0-27.46875-12.324219-27.46875-27.472656 0-.148438-.480469-12.234375 8.105469-19.511719.117187-.097656 15.65625-15 15.65625-15 3.070312-2.945313 7.050781-4.425781 11.035156-4.425781 3.859375 0 7.722656 1.390625 10.761718 4.171875l17.351563 15.902343c8.6875 7.960938 22.394531 7.515626 30.546875-.992187zm-4.792969-201.617187c-7.28125-17.246094-20.539062-33.230469-39.363281-47.230469-4.464844-3.320313-5.5625-9.5-2.511719-14.039063.109375-.15625.238281-.371094.332031-.535156 1.105469-1.929688 4.425782-6.191406 11.355469-4.148438 19.25 5.6875 35.820313 16.191407 49.34375 31.234376-8.75 11.847656-14.894531 24.058593-19.15625 34.71875zm0 0"/><path d="m271 124.351562c0-12.40625-10.09375-22.5-22.5-22.5s-22.5 10.09375-22.5 22.5 10.09375 22.5 22.5 22.5 22.5-10.09375 22.5-22.5zm-30 0c0-4.136718 3.363281-7.5 7.5-7.5s7.5 3.363282 7.5 7.5c0 4.136719-3.363281 7.5-7.5 7.5s-7.5-3.363281-7.5-7.5zm0 0"/><path d="m362.332031 179.789062c0-12.40625-10.09375-22.5-22.5-22.5-12.402343 0-22.5 10.09375-22.5 22.5s10.097657 22.5 22.5 22.5c12.40625 0 22.5-10.09375 22.5-22.5zm-30 0c0-4.136718 3.367188-7.5 7.5-7.5 4.136719 0 7.5 3.363282 7.5 7.5 0 4.136719-3.363281 7.5-7.5 7.5-4.132812 0-7.5-3.363281-7.5-7.5zm0 0"/><path d="m94.207031 260.546875c0 12.402344 10.09375 22.5 22.5 22.5s22.5-10.097656 22.5-22.5c0-12.40625-10.09375-22.5-22.5-22.5s-22.5 10.09375-22.5 22.5zm22.5-7.5c4.136719 0 7.5 3.363281 7.5 7.5 0 4.132813-3.363281 7.5-7.5 7.5s-7.5-3.367187-7.5-7.5c0-4.136719 3.363281-7.5 7.5-7.5zm0 0"/><path d="m91.054688 116.851562c-12.40625 0-22.5 10.09375-22.5 22.5s10.09375 22.5 22.5 22.5 22.5-10.09375 22.5-22.5-10.09375-22.5-22.5-22.5zm0 30c-4.136719 0-7.5-3.363281-7.5-7.5 0-4.136718 3.363281-7.5 7.5-7.5 4.136718 0 7.5 3.363282 7.5 7.5 0 4.136719-3.363282 7.5-7.5 7.5zm0 0"/><path d="m207.296875 65.441406c0-12.40625-10.09375-22.5-22.5-22.5s-22.5 10.09375-22.5 22.5 10.09375 22.5 22.5 22.5 22.5-10.09375 22.5-22.5zm-30 0c0-4.136718 3.363281-7.5 7.5-7.5s7.5 3.363282 7.5 7.5c0 4.136719-3.363281 7.5-7.5 7.5s-7.5-3.363281-7.5-7.5zm0 0"/></svg>