<svg height="512pt" viewBox="-34 0 511 512" width="512pt" xmlns="http://www.w3.org/2000/svg"><path d="m406.605469 102.355469c-17.582031-16.523438-39.742188-24.785157-61.890625-25.121094-12.320313-.183594-23.941406-6.058594-30.679688-16.371094-20.992187-32.128906-57.273437-53.363281-98.515625-53.363281-52.167969 0-96.375 33.976562-111.75 81.007812-4.570312 13.984376-16.65625 24.1875-31.253906 26.050782-16.117187 2.058594-31.71875 9.425781-43.996094 22.195312-26.148437 27.195313-27.464843 70.382813-3.027343 99.125 14.769531 17.371094 35.59375 26.128906 56.472656 26.132813l261.359375-.003907c27.75-.035156 55.320312-12.46875 73.691406-36.71875 28.324219-37.386718 23.769531-90.8125-10.410156-122.933593zm0 0" fill="#a4e7ff"/><path d="m179.820312 113.492188c-3.574218-75.59375 70.089844-100.882813 70.089844-100.882813-10.871094-3.320313-22.429687-5.109375-34.390625-5.109375-52.167969 0-96.375 33.976562-111.75 81.007812-4.570312 13.988282-16.65625 24.1875-31.253906 26.050782-16.117187 2.058594-31.71875 9.425781-43.996094 22.195312-26.148437 27.195313-27.464843 70.382813-3.027343 99.125 14.769531 17.371094 35.59375 26.128906 56.472656 26.132813h71.472656c27.164062-37.738281 29-93.148438 26.382812-148.519531zm0 0" fill="#5ad6ff"/><path d="m234.320312 358.246094c-9.585937 13.523437-28.320312 16.714844-41.84375 7.128906-13.523437-9.585938-16.714843-28.320312-7.125-41.84375 9.585938-13.523438 41.511719-35.320312 55.035157-25.734375 13.523437 9.585937 3.519531 46.929687-6.066407 60.449219zm0 0" fill="#76e7e7"/><path d="m234.320312 491.835938c-9.585937 13.523437-28.320312 16.714843-41.84375 7.125-13.523437-9.585938-16.714843-28.320313-7.125-41.84375 9.585938-13.523438 41.511719-35.320313 55.035157-25.734376 13.523437 9.585938 3.519531 46.929688-6.066407 60.453126zm0 0" fill="#76e7e7"/><path d="m117.589844 423.285156c-9.589844 13.519532-28.324219 16.710938-41.84375 7.125-13.523438-9.585937-16.714844-28.320312-7.128906-41.84375 9.585937-13.523437 41.515624-35.320312 55.035156-25.734375 13.523437 9.585938 3.523437 46.929688-6.0625 60.453125zm0 0" fill="#00d2ce"/><path d="m336.425781 423.285156c-9.585937 13.519532-28.320312 16.710938-41.84375 7.125-13.523437-9.585937-16.714843-28.320312-7.125-41.84375 9.585938-13.523437 41.511719-35.320312 55.035157-25.734375 13.523437 9.585938 3.519531 46.929688-6.066407 60.453125zm0 0" fill="#00d2ce"/><path d="m221.792969 203.410156c-15.519531 0-28.101563-12.582031-28.101563-28.101562v-20.429688c0-4.234375 3.4375-7.667968 7.671875-7.667968h40.859375c4.238282 0 7.671875 3.433593 7.671875 7.667968v20.429688c-.003906 15.519531-12.582031 28.101562-28.101562 28.101562zm0 0" fill="#454545"/><path d="m157.769531 175.308594c0-13.183594-13.417969-23.867188-29.972656-23.867188-16.550781 0-29.972656 10.683594-29.972656 23.867188s13.421875 23.867187 29.972656 23.867187c16.554687 0 29.972656-10.683593 29.972656-23.867187zm0 0" fill="#ffb3dd"/><path d="m345.761719 175.308594c0-13.183594-13.421875-23.867188-29.972657-23.867188-16.554687 0-29.972656 10.683594-29.972656 23.867188s13.417969 23.867187 29.972656 23.867187c16.550782 0 29.972657-10.683593 29.972657-23.867187zm0 0" fill="#ffb3dd"/><path d="m302.449219 162.207031c-4.144531 0-7.5-3.359375-7.5-7.5v-12.449219c0-4.144531 3.355469-7.5 7.5-7.5 4.140625 0 7.5 3.355469 7.5 7.5v12.449219c0 4.140625-3.359375 7.5-7.5 7.5zm0 0"/><path d="m141.136719 162.207031c-4.140625 0-7.5-3.359375-7.5-7.5v-12.449219c0-4.144531 3.359375-7.5 7.5-7.5 4.144531 0 7.5 3.355469 7.5 7.5v12.449219c0 4.140625-3.355469 7.5-7.5 7.5zm0 0"/><path d="m81.960938 269.511719c-23.976563-.003907-46.640626-10.492188-62.183594-28.773438-13.023438-15.320312-19.8593752-34.9375-19.238282-55.230469.617188-20.296874 8.636719-39.457031 22.574219-53.953124 13.085938-13.605469 29.839844-22.054688 48.449219-24.433594 11.558594-1.476563 21.402344-9.699219 25.078125-20.941406 16.851563-51.546876 64.625-86.179688 118.878906-86.179688 23.914063 0 47.160157 6.773438 67.226563 19.582031 3.492187 2.230469 4.515625 6.867188 2.285156 10.359375-2.226562 3.488282-6.863281 4.515625-10.355469 2.285156-17.652343-11.269531-38.109375-17.226562-59.15625-17.226562-47.746093 0-89.789062 30.476562-104.621093 75.835938-5.464844 16.722656-20.160157 28.957031-37.433594 31.164062-15.179688 1.9375-28.851563 8.839844-39.539063 19.949219-23.347656 24.28125-24.542969 63.402343-2.71875 89.070312 12.6875 14.925781 31.1875 23.488281 50.757813 23.492188l261.359375-.007813c26.804687-.03125 51.488281-12.332031 67.710937-33.742187 12.574219-16.597657 18.519532-37.296875 16.738282-58.28125-1.777344-20.976563-11.121094-40.390625-26.304688-54.660157-15.5-14.566406-35.695312-22.765624-56.871094-23.085937-15.132812-.230469-28.910156-7.621094-36.84375-19.769531-3.492187-5.34375-7.476562-10.417969-11.84375-15.085938-2.832031-3.023437-2.671875-7.769531.351563-10.597656 3.023437-2.832031 7.769531-2.675781 10.601562.347656 4.957031 5.300782 9.484375 11.0625 13.449219 17.132813 5.207031 7.96875 14.371094 12.820312 24.511719 12.976562 24.921875.378907 48.6875 10.019531 66.917969 27.152344 17.882812 16.808594 28.886718 39.652344 30.976562 64.324219 2.097656 24.683594-4.910156 49.046875-19.726562 68.605468-19.078126 25.183594-48.113282 39.648438-79.660157 39.6875zm0 0"/><path d="m188.140625 371.492188c-27.664063-17.75-14.703125-44.125-8.90625-52.300782 5.652344-7.972656 17.128906-17.527344 28.5625-23.777344 15.589844-8.519531 28.359375-9.8125 36.929687-3.734374 8.566407 6.074218 11.421876 18.527343 8.695313 36.082031-3.507813 22.578125-12.980469 34.824219-12.980469 34.824219-14.949218 22.023437-39.308594 17.242187-52.300781 8.90625zm3.328125-43.625c-5.398438 7.515624-8.101562 21.617187 5.34375 31.390624 12.671875 9.207032 25.847656 2.347657 31.390625-5.347656 11.429687-15.875 15.496094-44.746094 7.84375-49.996094-12.355469-8.480468-40.84375 18.757813-44.578125 23.953126zm0 0"/><path d="m290.886719 436.496094c-27.664063-17.75-14.703125-44.125-8.90625-52.300782 5.648437-7.972656 17.128906-17.527343 28.5625-23.777343 15.589843-8.519531 28.355469-9.816407 36.929687-3.738281 8.566406 6.078124 11.421875 18.527343 8.695313 36.085937-3.511719 22.578125-12.980469 34.824219-12.980469 34.824219-14.949219 22.023437-39.308594 17.242187-52.300781 8.90625zm3.328125-43.625c-5.398438 7.515625-8.101563 21.617187 5.347656 31.386718 12.667969 9.207032 25.84375 2.351563 31.386719-5.34375 11.429687-15.875 15.496093-44.746093 7.847656-49.996093-12.359375-8.484375-40.847656 18.757812-44.582031 23.953125zm0 0"/><path d="m209.753906 512c-7.703125 0-15.203125-2.371094-21.613281-6.917969-16.875-11.964843-20.871094-35.425781-8.910156-52.300781 5.65625-7.972656 17.132812-17.527344 28.566406-23.777344 15.589844-8.519531 28.359375-9.8125 36.925781-3.738281 8.570313 6.074219 11.578125 18.550781 8.699219 36.085937-2.113281 12.855469-7.332031 26.851563-12.984375 34.820313-5.792969 8.175781-16.964844 15.828125-30.683594 15.828125zm-18.285156-50.542969c-7.179688 10.125-4.808594 24.246094 5.347656 31.386719 13.820313 9.71875 27.90625-.441406 31.386719-5.347656 9.257813-13.058594 15.253906-44.410156 7.847656-49.996094-9.878906-7.441406-36.566406 12.652344-44.582031 23.957031zm0 0"/><path d="m71.40625 436.527344c-6.832031-4.390625-11.453125-11.25-13.964844-18.949219-1.285156-3.941406.867188-8.171875 4.804688-9.457031 3.9375-1.28125 8.171875.867187 9.457031 4.804687 1.503906 4.617188 4.347656 8.625 8.378906 11.367188 14.355469 9.765625 27.910157-.441407 31.386719-5.347657 3.703125-5.21875 8.46875-16.710937 10.417969-28.578124 2.128906-12.953126-.054688-19.632813-2.570313-21.417969-2.515625-1.785157-9.542968-1.628907-21.058594 4.664062-10.554687 5.769531-19.820312 14.070313-23.523437 19.292969-2.394531 3.375-7.078125 4.171875-10.453125 1.777344-3.378906-2.394532-4.179688-7.074219-1.78125-10.453125 5.652344-7.976563 17.128906-17.53125 28.5625-23.777344 15.589844-8.523437 28.359375-9.816406 36.929688-3.738281 8.566406 6.074218 11.574218 18.550781 8.695312 36.082031-2.113281 12.855469-7.332031 26.851563-12.984375 34.824219-5.792969 8.175781-26.292969 25.617187-52.296875 8.90625zm0 0"/><path d="m221.792969 210.910156c-19.632813 0-35.601563-15.972656-35.601563-35.601562v-20.429688c0-8.363281 6.804688-15.171875 15.171875-15.171875h40.859375c8.363282 0 15.167969 6.808594 15.167969 15.171875v20.429688c0 19.628906-15.96875 35.601562-35.597656 35.601562zm-20.429688-56.203125c-.09375 0-.171875 20.601563-.171875 20.601563 0 11.359375 9.242188 20.601562 20.601563 20.601562s20.601562-9.242187 20.601562-20.601562c0 0-.078125-20.601563-.171875-20.601563zm0 0"/></svg>