<svg height="511pt" viewBox="0 -51 511.99945 511" width="511pt" xmlns="http://www.w3.org/2000/svg"><path d="m439.691406 401.109375h-272.246094c-22.964843 0-41.582031-18.613281-41.582031-41.578125v-130.589844l55.015625-125.042968 122.6875-67.28125 125.871094 67.28125 51.835938 125.042968v130.589844c-.003907 22.964844-18.617188 41.578125-41.582032 41.578125zm0 0" fill="#ff6e42"/><path d="m502.527344 217.097656-41.585938-102.933594c-6.722656-16.636718-18.859375-30.953124-34.179687-40.300781l-94.695313-57.8125c-8.789062-5.363281-18.644531-8.050781-28.5-8.050781-.003906 0-.003906 0-.007812 0h-95.410156l125.871093 95.898438 51.832031 144.765624h95.417969c23.585938 0 25.972657-19.886718 21.257813-31.566406zm0 0" fill="#516980"/><path d="m344.269531 401.109375h-272.246093c-22.964844 0-41.582032-18.613281-41.582032-41.578125v-130.589844l55.015625-125.042968 122.691407-67.28125 125.871093 67.28125 51.832031 125.042968v130.585938c0 22.96875-18.617187 41.582031-41.582031 41.582031zm0 0" fill="#ff8f71"/><path d="m364.8125 234.183594-41.585938-102.933594c-3.078124-7.617188-8.636718-14.175781-15.648437-18.457031l-94.699219-57.8125c-2.921875-1.78125-6.550781-1.78125-9.472656 0l-94.699219 57.8125c-7.015625 4.28125-12.574219 10.839843-15.652343 18.457031l-41.585938 102.933594c-4.71875 11.679687-18.007812 17.320312-29.6875 12.605468-11.679688-4.71875-17.324219-18.011718-12.605469-29.691406l41.585938-102.933594c6.722656-16.636718 18.859375-30.953124 34.175781-40.300781l94.699219-57.8125c17.582031-10.734375 39.425781-10.734375 57.007812 0l94.699219 57.8125c15.316406 9.347657 27.453125 23.664063 34.175781 40.300781l41.585938 102.933594c4.71875 11.679688-.828125 25.21875-12.601563 29.691406-16.117187 6.117188-26.105468-3.722656-29.691406-12.605468zm0 0" fill="#6a829a"/><path d="m146.289062 277.394531h123.71875v123.714844h-123.71875zm0 0" fill="#ff8a98"/><path d="m146.289062 383.480469v10.6875l6.941407 6.941406h21.726562l95.050781-95.046875v-10.691406l-17.804687-17.804688zm0 0" fill="#f6ca56"/><path d="m146.289062 295.371094v10.691406l95.050782 95.046875h21.726562l6.941406-6.941406v-10.6875l-105.914062-105.914063zm0 0" fill="#fad989"/><path d="m285.007812 401.109375h-30v-104.679687c0-4.359376-3.550781-7.910157-7.910156-7.910157h-77.898437c-4.363281 0-7.910157 3.550781-7.910157 7.910157v104.679687h-30v-104.679687c0-20.902344 17.003907-37.910157 37.910157-37.910157h77.898437c20.902344 0 37.910156 17.007813 37.910156 37.910157zm0 0" fill="#ffeab7"/><path d="m250.949219 207.945312h-85.605469c-10.523438 0-19.054688-8.53125-19.054688-19.054687v-15.871094c0-24.671875 20.003907-44.675781 44.675782-44.675781h34.363281c24.675781 0 44.679687 20.003906 44.679687 44.675781v15.871094c0 10.523437-8.535156 19.054687-19.058593 19.054687zm0 0" fill="#a4e7ff"/><path d="m208.148438 128.34375h-17.183594c-24.671875 0-44.675782 20.003906-44.675782 44.675781v15.871094c0 10.523437 8.53125 19.054687 19.054688 19.054687h42.804688zm0 0" fill="#5ad6ff"/><path d="m250.949219 215.445312c14.644531 0 26.558593-11.910156 26.558593-26.554687v-15.871094c0-28.769531-23.40625-52.175781-52.179687-52.175781h-34.363281c-28.769532 0-52.175782 23.40625-52.175782 52.175781v15.871094c0 14.644531 11.914063 26.554687 26.554688 26.554687zm11.558593-42.421874v15.867187c0 6.371094-5.183593 11.558594-11.558593 11.558594h-35.300781v-64.605469h9.679687c20.5 0 37.179687 16.679688 37.179687 37.179688zm-108.71875 15.867187v-15.867187c0-20.5 16.675782-37.179688 37.175782-37.179688h9.683594v64.605469h-35.304688c-6.371094-.003907-11.554688-5.1875-11.554688-11.558594zm0 0"/><path d="m509.480469 214.289062-41.585938-102.933593c-7.320312-18.121094-20.539062-33.710938-37.222656-43.894531l-15.613281-9.53125c-3.535156-2.160157-8.148438-1.039063-10.308594 2.492187-2.15625 3.535156-1.042969 8.152344 2.492188 10.3125l15.613281 9.527344c13.953125 8.519531 25.007812 21.558593 31.128906 36.714843l41.585937 102.933594c1.785157 4.421875 2.304688 11.261719-.773437 15.828125-2.429687 3.601563-6.984375 5.425781-13.527344 5.425781h-69.183593c.601562-1.027343 8.402343-10.671874 1.972656-26.871093l-41.582032-102.9375c-7.320312-18.121094-20.542968-33.710938-37.226562-43.894531l-85.113281-51.960938h53.421875.007812c8.640625 0 17.144532 2.40625 24.59375 6.953125l55.160156 33.675781c4.917969 3.140625 8.898438-.179687 10.3125-2.492187 2.15625-3.539063 1.039063-8.152344-2.496093-10.3125l-55.164063-33.675781c-9.785156-5.972657-20.96875-9.136719-32.351562-9.148438-.039063 0-.074219 0-.113282 0h-95.054687c-11.3125-.058594-22.636719 2.988281-32.722656 9.148438l-94.699219 57.8125c-16.683594 10.183593-29.902344 25.773437-37.222656 43.894531l-41.585938 102.933593c-3.03125 7.507813-2.960937 15.742188.203125 23.195313 3.164063 7.453125 8.214844 13.066406 20.519531 17.542969v53.425781c0 4.144531 3.355469 7.5 7.5 7.5 4.140626 0 7.5-3.355469 7.5-7.5v-53.496094c8.960938-2.339843 16.75-8.734375 20.480469-17.964843l41.582031-102.933594c2.480469-6.136719 6.957032-11.417969 12.605469-14.867188l94.703125-57.8125c.515625-.316406 1.132813-.3125 1.652344.003906l94.699219 57.808594c5.648437 3.449219 10.128906 8.730469 12.605469 14.867188l41.585937 102.933594c1.574219 3.902343 8.191406 16.65625 20.492187 18.421874v104.117188c0 18.792969-15.289062 34.078125-34.082031 34.078125h-51.765625v-97.179687c0-25.039063-20.371094-45.410157-45.410156-45.410157h-77.898438c-25.039062 0-45.410156 20.371094-45.410156 45.410157v97.179687h-51.761718c-18.789063 0-34.082032-15.285156-34.082032-34.078125v-20.273438c0-4.144531-3.355468-7.5-7.5-7.5-4.140625 0-7.5 3.355469-7.5 7.5v20.273438c0 27.0625 22.019532 49.078125 49.082032 49.078125h367.667968c27.0625 0 49.078125-22.015625 49.078125-49.078125v-104c9.90625-1.769531 15.445313-6.9375 18.464844-11.40625 6.597656-9.789062 5.335937-22.1875 2.246094-29.835938zm-261.972657 136.085938-5.605468-5.605469 5.605468-5.601562zm0-32.421875-16.210937 16.210937-12.542969-12.542968 25.210938-25.207032 3.542968.015626zm-39.359374-6.9375-14.996094-14.992187h29.992187zm-35.847657-14.632813 75.207031 75.207032v22.019531h-3.0625l-75.65625-75.65625v-21.519531zm-3.511719 42.785157 5.601563 5.601562-5.601563 5.605469zm16.210938 16.210937 12.539062 12.539063-25.691406 25.691406h-3.058594v-22.019531zm23.148438 23.148438 15.082031 15.082031h-30.167969zm54.359374 15.082031v-97.179687c0-8.496094-6.914062-15.410157-15.410156-15.410157h-77.898437c-8.496094 0-15.410157 6.914063-15.410157 15.410157v97.179687h-15v-97.179687c0-16.765626 13.640626-30.410157 30.410157-30.410157h77.898437c16.765625 0 30.410156 13.644531 30.410156 30.410157v97.179687zm109.257813-162.234375-41.582031-102.933594c-3.679688-9.105468-10.320313-16.933594-18.699219-22.050781l-94.695313-57.808594c-2.667968-1.628906-5.65625-2.445312-8.648437-2.445312-2.988281 0-5.976563.816406-8.644531 2.441406l-94.699219 57.8125c-8.378906 5.117187-15.019531 12.949219-18.695313 22.050781l-41.585937 102.933594c-3.160156 7.824219-11.917969 11.121094-19.925781 8.457031-11.683594-3.882812-9.992188-16.132812-8.457032-19.921875l41.582032-102.9375c6.121094-15.15625 17.179687-28.191406 31.128906-36.710937l94.703125-57.8125c15.167969-9.261719 34.015625-9.261719 49.1875 0l94.699219 57.8125c13.953125 8.519531 25.007812 21.554687 31.132812 36.710937l41.582032 102.9375c1.558593 3.847656 3.640624 15.382813-8.308594 19.867188-13.441406 5.039062-18.757813-5.144532-20.074219-8.402344zm67.925781 162.234375h-60.152344c8.539063-8.832031 13.8125-20.851563 13.8125-34.078125v-103.367188h80.417969v103.367188c0 18.792969-15.285156 34.078125-34.078125 34.078125zm0 0"/></svg>