<?xml version="1.0" encoding="iso-8859-1"?>
<!-- Generator: Adobe Illustrator 19.0.0, SVG Export Plug-In . SVG Version: 6.00 Build 0)  -->
<svg xmlns="http://www.w3.org/2000/svg" xmlns:xlink="http://www.w3.org/1999/xlink" version="1.1" id="Layer_1" x="0px" y="0px" viewBox="0 0 512.003 512.003" style="enable-background:new 0 0 512.003 512.003;" xml:space="preserve">
<path style="fill:#975D50;" d="M451.758,375.143h-21.644c-0.856,0-1.065-1.196-0.256-1.476c20.582-7.1,34.575-27.038,34.003-50.207  c-0.696-28.224-24.504-50.421-52.737-50.421H385.37c-0.856,0-1.065-1.196-0.256-1.476c20.582-7.1,34.575-27.038,34.003-50.207  c-0.696-28.224-24.504-50.421-52.737-50.421l0,0c-6.57,0-11.921-5.321-11.914-11.891c0.087-79.436-70.357-111.768-115.059-124.347  c-14.02-3.945-26.531,10.086-20.952,23.54c10.071,24.289,12.367,44.048,10.552,59.861c-3.474,30.275-29.659,52.837-60.132,52.837  h-23.254c-28.208,0-52.008,22.159-52.735,50.358c-0.598,23.196,14.304,43.163,35.041,50.27c0.811,0.278,0.603,1.476-0.255,1.476  h-26.795c-28.208,0-52.008,22.159-52.735,50.357c-0.598,23.194,15.206,43.159,36.075,50.268c0.811,0.276,0.599,1.478-0.258,1.478  H60.243c-27.109,0-50.405,20.456-52.585,47.477c-2.445,30.323,21.699,55.933,51.534,55.933h393.613  c29.835,0,53.98-25.61,51.534-55.933C502.164,395.599,478.867,375.143,451.758,375.143z"/>
<path style="fill:#7F443B;" d="M452.812,478.557h-6.463c9.25-10.575,14.408-24.797,12.958-40.137  c-2.6-27.531-26.34-48.237-53.985-48.237c-6.432,0-9.55-7.913-4.816-12.274c11.041-10.151,17.629-25.076,17.08-41.546  c-0.953-28.888-25.294-51.531-54.213-51.531h-4.215c-6.432,0-9.55-7.913-4.817-12.264c11.042-10.161,17.629-25.087,17.08-41.556  c-0.953-28.888-25.294-51.531-54.213-51.531h-0.186c-6.795,0-12.295-5.51-12.295-12.305c0.062-64.965-45.627-99.384-87.535-117.334  c1.015-10.161,11.145-18.261,22.218-15.143c44.705,12.575,115.149,44.912,115.056,124.347c0,3.283,1.336,6.256,3.49,8.41  c2.165,2.155,5.148,3.48,8.431,3.48c28.225,0,52.038,22.197,52.732,50.422c0.57,23.171-13.424,43.099-34.005,50.205  c-0.808,0.28-0.601,1.471,0.259,1.471h25.75c28.236,0,52.048,22.197,52.742,50.422c0.57,23.171-13.424,43.109-34.005,50.205  c-0.808,0.28-0.601,1.481,0.259,1.481h21.638c27.107,0,50.412,20.457,52.587,47.481  C506.787,452.942,482.643,478.557,452.812,478.557z"/>
<path d="M511.804,421.73c-2.412-29.909-27.845-53.458-58.283-54.336c11.535-11.214,18.249-27.155,17.824-44.407  c-0.785-31.828-27.799-57.722-60.22-57.722h-2.322c11.518-11.213,18.223-27.143,17.798-44.383  c-0.785-31.828-27.799-57.722-60.22-57.722c-1.188,0-2.305-0.463-3.145-1.304c-0.828-0.829-1.284-1.929-1.283-3.094  c0.093-84.935-75.468-118.884-120.517-131.56c-9.282-2.61-19.042,0.264-25.471,7.504c-6.412,7.222-8.107,17.227-4.424,26.109  c8.562,20.647,11.936,39.535,10.03,56.141c-3.022,26.34-25.677,46.204-52.696,46.204h-23.254c-32.385,0-59.398,25.862-60.218,57.649  c-0.444,17.219,6.488,33.185,18.398,44.455h-2.924c-32.384,0-59.397,25.862-60.218,57.649c-0.436,16.913,6.915,33.053,19.218,44.455  c-31.052,0.186-57.231,23.996-59.679,54.36c-1.343,16.654,4.168,32.6,15.516,44.901c11.21,12.15,27.057,19.118,43.479,19.118  h393.613c16.422,0,32.269-6.969,43.479-19.118C507.636,454.33,513.147,438.384,511.804,421.73z M485.285,456.48  c-8.385,9.087-20.222,14.3-32.477,14.3H59.195c-12.255,0-24.092-5.212-32.476-14.3c-8.482-9.193-12.601-21.107-11.598-33.547  c1.836-22.763,21.656-40.593,45.123-40.593h23.718c0.502,0,0.994-0.045,1.472-0.131h50.902c4.134,0,7.485-3.351,7.485-7.485  c0-4.134-3.351-7.485-7.485-7.485H88.555c-0.585-0.389-1.228-0.711-1.922-0.947c-18.745-6.385-31.495-24.063-31.006-42.99  c0.613-23.746,20.913-43.065,45.252-43.065h20.807h5.988h78.427c4.134,0,7.485-3.351,7.485-7.485c0-4.134-3.351-7.485-7.485-7.485  h-73.653c-0.63-0.445-1.329-0.811-2.093-1.072c-18.435-6.319-30.485-23.598-29.985-42.997c0.612-23.746,20.912-43.065,45.252-43.065  h23.254c34.631,0,63.679-25.566,67.569-59.468c2.199-19.164-1.527-40.556-11.074-63.582c-1.49-3.593-0.821-7.495,1.79-10.436  c2.628-2.959,6.448-4.092,10.22-3.031c50.043,14.081,109.68,45.833,109.602,117.132c-0.006,5.167,2.005,10.029,5.662,13.691  c3.668,3.672,8.547,5.695,13.736,5.695c24.367,0,44.668,19.344,45.254,43.12c0.482,19.546-11.157,36.806-28.959,42.947  c-0.758,0.261-1.452,0.625-2.079,1.067h-61.72c-4.134,0-7.485,3.351-7.485,7.485c0,4.134,3.351,7.485,7.485,7.485h66.493h2.37  h23.384c24.367,0,44.667,19.344,45.253,43.12c0.482,19.546-11.157,36.805-28.967,42.949c-0.679,0.235-1.306,0.553-1.88,0.934  H249.749c-4.134,0-7.485,3.351-7.485,7.485c0,4.134,3.351,7.485,7.485,7.485h178.893c0.478,0.086,0.97,0.131,1.471,0.131h21.645  c23.467,0,43.287,17.831,45.123,40.593C497.885,435.373,493.766,447.286,485.285,456.48z"/>
<path d="M249.749,280.236h26.477c4.134,0,7.485-3.351,7.485-7.485c0-4.134-3.351-7.485-7.485-7.485h-26.477  c-4.134,0-7.485,3.351-7.485,7.485S245.615,280.236,249.749,280.236z"/>
<path d="M207.086,367.239h-26.478c-4.134,0-7.485,3.351-7.485,7.485c0,4.134,3.351,7.485,7.485,7.485h26.478  c4.134,0,7.485-3.351,7.485-7.485C214.571,370.589,211.22,367.239,207.086,367.239z"/>
<g>
</g>
<g>
</g>
<g>
</g>
<g>
</g>
<g>
</g>
<g>
</g>
<g>
</g>
<g>
</g>
<g>
</g>
<g>
</g>
<g>
</g>
<g>
</g>
<g>
</g>
<g>
</g>
<g>
</g>
</svg>
