<?xml version="1.0" encoding="iso-8859-1"?>
<!-- Generator: Adobe Illustrator 19.0.0, SVG Export Plug-In . SVG Version: 6.00 Build 0)  -->
<svg xmlns="http://www.w3.org/2000/svg" xmlns:xlink="http://www.w3.org/1999/xlink" version="1.1" id="Layer_1" x="0px" y="0px" viewBox="0 0 512 512" style="enable-background:new 0 0 512 512;" xml:space="preserve">
<circle style="fill:#F8C442;" cx="178.91" cy="332.87" r="171.644"/>
<path style="fill:#F4A240;" d="M350.56,332.873c0,94.795-76.851,171.635-171.645,171.635c-7.619,0-15.119-0.499-22.468-1.458  c84.18-11.004,149.178-83.002,149.178-170.177c0-87.176-64.998-159.183-149.178-170.187c7.349-0.959,14.848-1.458,22.468-1.458  C273.709,161.228,350.56,238.079,350.56,332.873z"/>
<path style="fill:#B0E046;" d="M347.898,27.72c-2.89-1.982-8.058-5.309-14.988-8.916c-62.535-32.535-138.923,5.986-149.94,75.612  c-1.948,12.307-1.796,20.587-1.796,20.587s6.569,5.045,17.622,10.796c62.535,32.535,138.923-5.986,149.94-75.612  c1.221-7.715,1.616-13.85,1.742-17.352C350.552,30.797,349.582,28.874,347.898,27.72z"/>
<path style="fill:#A4C93D;" d="M198.797,125.806c-11.052-5.752-17.622-10.803-17.622-10.803s-0.098-5.593,0.937-14.413  c1.678,0.959,3.501,1.966,5.476,2.988c62.537,32.523,138.917-5.993,149.945-75.614c0.353-2.196,0.627-4.26,0.854-6.179  c4.208,2.408,7.441,4.516,9.51,5.934c1.673,1.147,2.656,3.059,2.585,5.086c-0.123,3.498-0.515,9.647-1.739,17.387  C337.714,119.813,261.334,158.329,198.797,125.806z"/>
<circle style="fill:#F8C442;" cx="368.079" cy="367.86" r="136.655"/>
<path style="fill:#F4A240;" d="M504.729,367.863c0,75.47-61.184,136.646-136.654,136.646c-6.066,0-12.036-0.397-17.888-1.161  c67.019-8.761,118.766-66.081,118.766-135.485S417.207,241.13,350.187,232.37c5.851-0.764,11.822-1.161,17.888-1.161  C443.545,231.209,504.729,292.393,504.729,367.863z"/>
<path style="fill:#B0E046;" d="M502.61,124.918c-2.301-1.577-6.415-4.228-11.932-7.098c-49.786-25.903-110.602,4.766-119.374,60.198  c-1.55,9.798-1.429,16.391-1.429,16.391s5.229,4.016,14.03,8.595c49.786,25.903,110.602-4.766,119.374-60.198  c0.972-6.143,1.287-11.026,1.387-13.815C504.722,127.368,503.95,125.837,502.61,124.918z"/>
<path style="fill:#A4C93D;" d="M383.905,203.009c-8.799-4.579-14.03-8.6-14.03-8.6s-0.078-4.453,0.746-11.475  c1.336,0.764,2.787,1.564,4.36,2.378c49.788,25.893,110.597-4.772,119.378-60.2c0.281-1.748,0.499-3.391,0.68-4.919  c3.35,1.918,5.924,3.595,7.571,4.724c1.332,0.913,2.115,2.435,2.058,4.049c-0.098,2.785-0.41,7.68-1.385,13.843  C494.502,198.237,433.693,228.902,383.905,203.009z"/>
<circle cx="145.222" cy="400.988" r="8.565"/>
<circle cx="222.877" cy="217.413" r="8.565"/>
<circle cx="121.122" cy="454.883" r="8.565"/>
<circle cx="93.688" cy="421.495" r="8.565"/>
<path d="M377.232,224.284c0.06-5.079,0.014-10.515-0.194-16.141c1.041,0.579,2.143,1.174,3.302,1.776  c4.929,2.564,10.085,4.678,15.327,6.28c3.951,1.207,8.136-1.015,9.344-4.966c1.209-3.951-1.015-8.136-4.966-9.345  c-4.371-1.337-8.676-3.103-12.798-5.245c-4.277-2.224-7.654-4.313-9.882-5.78c0.144-2.664,0.475-6.621,1.228-11.379  c3.796-23.991,18.465-44.05,40.245-55.032c21.779-10.984,46.628-10.852,68.176,0.357c4.232,2.202,7.566,4.249,9.882,5.777  c-0.149,2.774-0.485,6.675-1.231,11.382c-4.801,30.339-27.388,54.387-57.542,61.267c-4.028,0.92-6.549,4.931-5.631,8.96  c0.792,3.47,3.875,5.821,7.288,5.821c0.551,0,1.111-0.061,1.671-0.189c36.149-8.248,63.232-37.106,68.994-73.519  c1.013-6.401,1.361-11.545,1.474-14.733c0.148-4.189-1.835-8.108-5.3-10.482c-2.623-1.8-6.957-4.571-12.7-7.558  c-25.869-13.458-55.692-13.622-81.823-0.444c-19.907,10.038-34.855,26.408-42.865,46.37c-5.436-16.557-13.603-27.983-24.458-34.113  c-3.598-2.032-8.163-0.763-10.195,2.835c-2.033,3.598-0.763,8.163,2.835,10.195c20.744,11.717,25.255,54.455,24.905,87.721  c-12.77,0.495-25.114,2.67-36.828,6.294c-30.666-43.642-80.293-73.039-136.823-76.069c0.125-7.886,0.053-16.503-0.361-25.451  c2.116,1.236,4.479,2.554,7.09,3.913c6.088,3.168,12.455,5.777,18.927,7.757c3.955,1.211,8.136-1.015,9.345-4.966  c1.209-3.951-1.014-8.136-4.966-9.345c-5.601-1.713-11.118-3.975-16.399-6.722c-6.055-3.151-10.702-6.086-13.499-7.97  c0.147-3.349,0.548-8.798,1.621-15.581c4.866-30.75,23.666-56.46,51.58-70.535c27.913-14.078,59.763-13.908,87.382,0.46  c5.964,3.104,10.535,5.969,13.494,7.963c-0.156,3.567-0.568,8.946-1.619,15.589c-6.534,41.286-38.845,73.354-80.402,79.797  c-4.083,0.634-6.881,4.457-6.248,8.541c0.573,3.695,3.758,6.336,7.385,6.336c0.381,0,0.768-0.029,1.156-0.09  c48.006-7.442,85.336-44.513,92.89-92.247c1.259-7.954,1.689-14.328,1.83-18.273c0.164-4.602-2.015-8.909-5.826-11.519  c-3.253-2.23-8.626-5.667-15.752-9.374c-31.94-16.616-68.764-16.816-101.027-0.545c-26.291,13.258-45.586,35.453-54.874,62.459  c-6.621-23.224-17.146-39.002-31.493-47.105c-3.599-2.033-8.163-0.764-10.195,2.835c-2.033,3.598-0.763,8.163,2.835,10.195  c27.155,15.337,32.804,71.182,32.213,113.696C77.479,156.919,0.014,236.095,0.014,333.031c0,24.169,4.738,47.62,14.082,69.699  c1.61,3.805,6.002,5.586,9.807,3.975c3.806-1.61,5.586-6.002,3.975-9.807c-8.559-20.223-12.898-41.711-12.898-63.866  c0-88.524,70.5-160.878,158.301-163.895c-0.451,9.144-1.149,17.16-1.889,23.316c-0.493,4.102,2.433,7.83,6.535,8.322  c0.304,0.037,0.606,0.055,0.904,0.055c3.732,0,6.961-2.788,7.419-6.588c0.088-0.735,1.236-10.455,1.939-24.953  c50.274,2.795,94.574,28.34,122.76,66.48c-51.123,22.13-86.985,73.06-86.985,132.22c0,40.353,16.691,76.876,43.522,103.048  c-25.548,16.443-55.927,25.998-88.501,25.998c-51.218,0-98.566-23.283-129.904-63.879c-0.935-1.209-1.861-2.444-2.753-3.67  c-2.433-3.34-7.112-4.078-10.454-1.643c-3.341,2.432-4.076,7.112-1.644,10.453c0.975,1.339,1.986,2.686,3.005,4.006  C71.428,486.596,123.093,512,178.984,512c37.082,0,71.56-11.344,100.163-30.732C303.634,500.511,334.488,512,367.975,512  c79.408,0,144.011-64.602,144.011-144.011C511.986,291.692,452.341,229.073,377.232,224.284z M367.974,497.035  c-71.156,0-129.046-57.89-129.046-129.046c0-69.096,54.588-125.677,122.9-128.896c-0.36,6.548-0.874,12.3-1.413,16.794  c-0.492,4.101,2.433,7.829,6.535,8.321c0.303,0.037,0.605,0.055,0.903,0.055c3.732,0,6.962-2.788,7.419-6.588  c0.068-0.561,0.909-7.685,1.473-18.428c67.079,4.526,120.272,60.534,120.272,128.741C497.02,439.145,439.13,497.035,367.974,497.035  z"/>
<circle cx="354.908" cy="409.545" r="8.564"/>
<circle cx="415.439" cy="290.325" r="8.565"/>
<circle cx="330.808" cy="463.45" r="8.564"/>
<circle cx="303.375" cy="430.062" r="8.565"/>
<g>
</g>
<g>
</g>
<g>
</g>
<g>
</g>
<g>
</g>
<g>
</g>
<g>
</g>
<g>
</g>
<g>
</g>
<g>
</g>
<g>
</g>
<g>
</g>
<g>
</g>
<g>
</g>
<g>
</g>
</svg>
