<?xml version="1.0" encoding="iso-8859-1"?>
<!-- Generator: Adobe Illustrator 19.0.0, SVG Export Plug-In . SVG Version: 6.00 Build 0)  -->
<svg xmlns="http://www.w3.org/2000/svg" xmlns:xlink="http://www.w3.org/1999/xlink" version="1.1" id="Layer_1" x="0px" y="0px" viewBox="0 0 512 512" style="enable-background:new 0 0 512 512;" xml:space="preserve">
<path style="fill:#FFFFFF;" d="M358.379,78.607c-11.75-0.23-22.729,2.999-31.993,8.734c-1.78,1.103-4.111,0.091-4.467-1.972  c-7.663-44.424-46.378-78.218-92.99-78.218c-43.465,0-80.061,29.387-91.019,69.373c-0.334,1.219-1.428,2.077-2.69,2.131  c-31.4,1.346-56.404,27.378-56.09,59.182c0.318,32.279,27.095,58.057,59.375,58.057h218.7c32.669,0,59.099-26.712,58.643-59.485  C415.41,104.947,389.837,79.222,358.379,78.607z"/>
<path style="fill:#CCCCCC;" d="M415.839,135.771c0.479,19.509-8.574,36.932-22.832,47.932c1.687-5.467,2.592-11.269,2.592-17.289  c0-32.396-26.259-58.649-58.649-58.649c-11.331,0-21.911,3.213-30.877,8.778c-1.755,1.09-4.059,0.024-4.41-2.011  c-7.663-44.424-46.381-78.213-92.992-78.213c-25.707,0-49.015,10.282-66.032,26.965c14.667-33.066,47.786-56.133,86.289-56.133  c46.612,0,85.326,33.797,92.992,78.217c0.356,2.064,2.686,3.074,4.467,1.972c9.258-5.731,20.233-8.958,31.976-8.731  C389.584,79.209,415.073,104.556,415.839,135.771z"/>
<path style="fill:#B9E5FA;" d="M400.763,474.919c2.805-6.536,8.921-14.277,12.465-18.474c1.407-1.666,3.967-1.666,5.375,0  c3.545,4.196,9.66,11.937,12.465,18.474c1.531,3.054,2.195,6.619,1.572,10.393c-1.233,7.474-7.443,13.306-14.982,14.058  c-10.147,1.013-18.7-6.93-18.7-16.87C398.959,479.77,399.619,477.203,400.763,474.919z"/>
<path style="fill:#87D5F6;" d="M399.129,484.908c1.175,8.227,8.242,14.549,16.784,14.549c9.372,0,16.96-7.59,16.96-16.96  c0-2.727-0.66-5.293-1.805-7.574c-2.159-5.039-6.292-10.785-9.694-15.087c0.507,0.945,0.968,1.882,1.36,2.796  c1.145,2.282,1.805,4.847,1.805,7.574c0,9.372-7.59,16.96-16.953,16.96C404.506,487.166,401.618,486.344,399.129,484.908z"/>
<path style="fill:#B9E5FA;" d="M433.308,417.892v10.377c0,6.543-5.329,11.872-11.881,11.872h-12.945  c-6.553,0-11.881-5.329-11.881-11.872v-4.726h-31.249v65.538c0,12.633-10.286,22.92-22.92,22.92H154.79  c-12.634,0-22.91-10.286-22.91-22.92V382.379h35.634c10.225,0,10.225,10.035,20.451,10.035s10.225-10.035,20.451-10.035  s10.225,10.035,20.451,10.035c10.225,0,10.225-10.035,20.451-10.035s10.225,10.035,20.451,10.035  c10.225,0,10.225-10.035,20.451-10.035c10.235,0,10.235,10.035,20.461,10.035c10.225,0,10.225-10.035,20.451-10.035h34.219v3.904  h36.347C419.129,386.283,433.308,400.462,433.308,417.892z"/>
<path style="fill:#87D5F6;" d="M433.308,417.892v10.377c0,6.543-5.329,11.872-11.881,11.872h-12.945  c-6.553,0-11.881-5.329-11.881-11.872v-4.726h-31.249v65.538c0,12.633-10.286,22.92-22.92,22.92H154.79  c-12.634,0-22.91-10.286-22.91-22.92v-4.235h192.937c4.978,0,9.002-4.034,9.002-9.012v-93.454h31.533v3.904h36.347  C419.129,386.283,433.308,400.462,433.308,417.892z"/>
<path d="M357.131,203.645h-218.54c-36.507,0-66.496-29.366-66.852-65.46c-0.171-17.299,6.297-33.721,18.212-46.241  c11.103-11.668,25.812-18.786,41.717-20.261C144.776,29.311,184.31,0,228.949,0c16.236,0,32.391,3.918,46.719,11.33  c3.689,1.908,5.133,6.446,3.223,10.135s-6.448,5.132-10.135,3.223c-12.375-6.402-25.769-9.648-39.808-9.648  c-38.989,0-73.407,26.231-83.698,63.79c-1.202,4.384-5.068,7.46-9.621,7.655c-27.665,1.186-49.123,23.83-48.85,51.551  c0.275,27.883,23.517,50.567,51.812,50.567h218.54c13.78,0,26.699-5.405,36.376-15.216c9.675-9.811,14.897-22.809,14.706-36.6  c-0.379-27.227-22.833-49.811-50.055-50.343c-9.859-0.204-19.517,2.436-27.864,7.603c-2.975,1.841-6.652,2.087-9.835,0.653  c-3.166-1.424-5.408-4.318-5.998-7.741c-2.49-14.438-8.69-28.124-17.929-39.577c-2.608-3.233-2.101-7.968,1.132-10.576  c3.232-2.608,7.967-2.102,10.576,1.132c9.499,11.777,16.262,25.569,19.757,40.208c9.422-4.63,19.823-6.924,30.456-6.741  c17.164,0.336,33.329,7.275,45.522,19.538c12.192,12.262,19.038,28.47,19.276,45.635c0.249,17.848-6.511,34.67-19.035,47.371  C391.692,196.65,374.968,203.645,357.131,203.645z"/>
<circle cx="107.69" cy="144.896" r="8.608"/>
<circle cx="135.62" cy="169.924" r="8.608"/>
<circle cx="262.953" cy="74.455" r="8.608"/>
<path d="M170.23,346.139c-4.153,0-7.521-3.366-7.521-7.521v-20.505c0-4.154,3.367-7.521,7.521-7.521  c4.153,0,7.521,3.366,7.521,7.521v20.505C177.751,342.772,174.383,346.139,170.23,346.139z M170.23,300.564  c-4.153,0-7.521-3.366-7.521-7.521v-25.068c0-4.154,3.367-7.521,7.521-7.521c4.153,0,7.521,3.366,7.521,7.521v25.068  C177.751,297.198,174.383,300.564,170.23,300.564z M170.23,250.426c-4.153,0-7.521-3.366-7.521-7.521v-25.068  c0-4.154,3.367-7.521,7.521-7.521c4.153,0,7.521,3.366,7.521,7.521v25.068C177.751,247.06,174.383,250.426,170.23,250.426z"/>
<path d="M201.137,346.139c-4.153,0-7.521-3.366-7.521-7.521v-20.505c0-4.154,3.367-7.521,7.521-7.521  c4.153,0,7.521,3.366,7.521,7.521v20.505C208.658,342.772,205.291,346.139,201.137,346.139z M201.137,300.564  c-4.153,0-7.521-3.366-7.521-7.521v-25.068c0-4.154,3.367-7.521,7.521-7.521c4.153,0,7.521,3.366,7.521,7.521v25.068  C208.658,297.198,205.291,300.564,201.137,300.564z M201.137,250.426c-4.153,0-7.521-3.366-7.521-7.521v-25.068  c0-4.154,3.367-7.521,7.521-7.521c4.153,0,7.521,3.366,7.521,7.521v25.068C208.658,247.06,205.291,250.426,201.137,250.426z"/>
<path d="M232.045,346.139c-4.153,0-7.521-3.366-7.521-7.521v-20.505c0-4.154,3.367-7.521,7.521-7.521s7.521,3.366,7.521,7.521  v20.505C239.565,342.772,236.199,346.139,232.045,346.139z M232.045,300.564c-4.153,0-7.521-3.366-7.521-7.521v-25.068  c0-4.154,3.367-7.521,7.521-7.521s7.521,3.366,7.521,7.521v25.068C239.565,297.198,236.199,300.564,232.045,300.564z   M232.045,250.426c-4.153,0-7.521-3.366-7.521-7.521v-25.068c0-4.154,3.367-7.521,7.521-7.521s7.521,3.366,7.521,7.521v25.068  C239.565,247.06,236.199,250.426,232.045,250.426z"/>
<path d="M262.952,346.139c-4.154,0-7.52-3.366-7.52-7.521v-20.505c0-4.154,3.366-7.521,7.52-7.521c4.154,0,7.521,3.366,7.521,7.521  v20.505C270.473,342.772,267.106,346.139,262.952,346.139z M262.952,300.564c-4.154,0-7.52-3.366-7.52-7.521v-25.068  c0-4.154,3.366-7.521,7.52-7.521c4.154,0,7.521,3.366,7.521,7.521v25.068C270.473,297.198,267.106,300.564,262.952,300.564z   M262.952,250.426c-4.154,0-7.52-3.366-7.52-7.521v-25.068c0-4.154,3.366-7.521,7.52-7.521c4.154,0,7.521,3.366,7.521,7.521v25.068  C270.473,247.06,267.106,250.426,262.952,250.426z"/>
<path d="M293.859,346.139c-4.154,0-7.521-3.366-7.521-7.521v-20.505c0-4.154,3.366-7.521,7.521-7.521s7.521,3.366,7.521,7.521  v20.505C301.38,342.772,298.013,346.139,293.859,346.139z M293.859,300.564c-4.154,0-7.521-3.366-7.521-7.521v-25.068  c0-4.154,3.366-7.521,7.521-7.521s7.521,3.366,7.521,7.521v25.068C301.38,297.198,298.013,300.564,293.859,300.564z   M293.859,250.426c-4.154,0-7.521-3.366-7.521-7.521v-25.068c0-4.154,3.366-7.521,7.521-7.521s7.521,3.366,7.521,7.521v25.068  C301.38,247.06,298.013,250.426,293.859,250.426z"/>
<path d="M324.768,346.139c-4.154,0-7.521-3.366-7.521-7.521v-20.505c0-4.154,3.366-7.521,7.521-7.521s7.521,3.366,7.521,7.521  v20.505C332.288,342.772,328.922,346.139,324.768,346.139z M324.768,300.564c-4.154,0-7.521-3.366-7.521-7.521v-25.068  c0-4.154,3.366-7.521,7.521-7.521s7.521,3.366,7.521,7.521v25.068C332.288,297.198,328.922,300.564,324.768,300.564z   M324.768,250.426c-4.154,0-7.521-3.366-7.521-7.521v-25.068c0-4.154,3.366-7.521,7.521-7.521s7.521,3.366,7.521,7.521v25.068  C332.288,247.06,328.922,250.426,324.768,250.426z"/>
<path d="M415.845,506.983c-6.061,0-11.952-2.24-16.461-6.321c-5.116-4.631-8.05-11.244-8.05-18.141c0-3.745,0.841-7.356,2.498-10.74  c3.072-7.043,9.046-14.832,13.538-20.149c2.102-2.487,5.175-3.915,8.429-3.915c3.255,0,6.328,1.428,8.43,3.916  c4.491,5.315,10.464,13.105,13.536,20.149c2.254,4.599,3.002,9.703,2.167,14.772c-1.794,10.866-10.695,19.216-21.646,20.308  C417.472,506.943,416.657,506.983,415.845,506.983z M415.799,465.098c-3.882,4.957-6.806,9.494-8.232,12.814  c-0.058,0.137-0.12,0.271-0.187,0.404c-0.667,1.331-1.006,2.745-1.006,4.204c0,2.696,1.103,5.179,3.103,6.991  c1.998,1.807,4.598,2.652,7.316,2.384c4.131-0.412,7.621-3.688,8.298-7.789c0.333-2.019,0.038-3.968-0.876-5.789  c-0.067-0.133-0.129-0.267-0.187-0.404C422.604,474.591,419.68,470.054,415.799,465.098z M400.657,474.946h0.01H400.657z"/>
<path d="M342.369,511.999h-187.5c-12.628,0-22.902-10.274-22.902-22.902v-162.58c0-4.154,3.367-7.521,7.521-7.521  c4.153,0,7.521,3.366,7.521,7.521v162.58c0,4.334,3.527,7.861,7.861,7.861h187.5c4.334,0,7.861-3.527,7.861-7.861v-67.999  c0-6.911,5.623-12.534,12.534-12.534h36.91c6.544,0,11.868,5.324,11.868,11.868v4.723h6.593v-7.189  c0-9.124-7.421-16.545-16.545-16.545h-38.825c-6.911,0-12.534-5.623-12.534-12.534v-62.369c0-4.154,3.366-7.521,7.521-7.521  c4.154,0,7.521,3.366,7.521,7.521v59.862h36.319c17.417,0,31.587,14.169,31.587,31.587v10.364c0,6.544-5.324,11.868-11.868,11.868  h-12.94c-6.544,0-11.868-5.324-11.868-11.868v-4.723h-31.229v65.492C365.27,501.725,354.997,511.999,342.369,511.999z"/>
<path d="M310.64,400.024c-8.184,0-12.578-4.312-15.487-7.166c-2.439-2.393-3.079-2.861-4.953-2.861s-2.514,0.469-4.952,2.861  c-2.908,2.853-7.303,7.166-15.486,7.166c-8.183,0-12.577-4.312-15.486-7.166c-2.439-2.393-3.079-2.861-4.952-2.861  c-1.872,0-2.514,0.469-4.952,2.861c-2.908,2.853-7.303,7.166-15.486,7.166c-8.183,0-12.577-4.312-15.486-7.166  c-2.438-2.393-3.079-2.861-4.952-2.861c-1.871,0-2.512,0.469-4.95,2.86c-2.908,2.854-7.302,7.167-15.486,7.167  c-8.183,0-12.577-4.312-15.485-7.167c-2.438-2.392-3.078-2.86-4.95-2.86c-4.153,0-7.521-3.366-7.521-7.521s3.367-7.521,7.521-7.521  c8.183,0,12.577,4.312,15.485,7.167c2.437,2.392,3.078,2.86,4.949,2.86c1.872,0,2.513-0.469,4.95-2.86  c2.908-2.854,7.302-7.167,15.485-7.167s12.578,4.312,15.486,7.166c2.438,2.393,3.079,2.861,4.951,2.861  c1.872,0,2.514-0.469,4.952-2.861c2.908-2.853,7.303-7.166,15.486-7.166c8.184,0,12.578,4.312,15.486,7.166  c2.438,2.393,3.079,2.861,4.951,2.861c1.873,0,2.514-0.469,4.952-2.861c2.908-2.853,7.303-7.166,15.487-7.166  c8.184,0,12.578,4.312,15.487,7.166c2.439,2.393,3.079,2.861,4.953,2.861c1.874,0,2.516-0.469,4.955-2.861  c2.908-2.853,7.303-7.166,15.486-7.166c4.154,0,7.521,3.366,7.521,7.521s-3.366,7.521-7.521,7.521c-1.873,0-2.515,0.469-4.953,2.861  C323.221,395.711,318.824,400.024,310.64,400.024z"/>
<path d="M310.64,434.973c-8.184,0-12.578-4.312-15.487-7.166c-2.439-2.393-3.079-2.861-4.953-2.861s-2.514,0.469-4.952,2.861  c-2.908,2.853-7.303,7.166-15.486,7.166c-8.183,0-12.577-4.312-15.486-7.166c-2.439-2.393-3.079-2.861-4.952-2.861  c-1.872,0-2.514,0.469-4.952,2.861c-2.908,2.853-7.303,7.166-15.486,7.166c-8.183,0-12.577-4.312-15.486-7.166  c-2.438-2.393-3.079-2.861-4.952-2.861c-1.871,0-2.512,0.469-4.95,2.86c-2.908,2.854-7.302,7.167-15.486,7.167  c-8.183,0-12.577-4.312-15.485-7.167c-2.438-2.392-3.078-2.86-4.95-2.86c-4.153,0-7.521-3.366-7.521-7.521s3.367-7.521,7.521-7.521  c8.183,0,12.577,4.312,15.485,7.167c2.437,2.392,3.078,2.86,4.949,2.86c1.872,0,2.513-0.469,4.95-2.86  c2.908-2.854,7.302-7.167,15.485-7.167s12.578,4.312,15.486,7.166c2.438,2.393,3.079,2.861,4.951,2.861  c1.872,0,2.514-0.469,4.952-2.861c2.908-2.853,7.303-7.166,15.486-7.166c8.184,0,12.578,4.312,15.486,7.166  c2.438,2.393,3.079,2.861,4.951,2.861c1.873,0,2.514-0.469,4.952-2.861c2.908-2.853,7.303-7.166,15.487-7.166  c8.184,0,12.578,4.312,15.487,7.166c2.439,2.393,3.079,2.861,4.953,2.861c1.874,0,2.516-0.469,4.955-2.861  c2.908-2.853,7.303-7.166,15.486-7.166c4.154,0,7.521,3.366,7.521,7.521s-3.366,7.521-7.521,7.521c-1.873,0-2.515,0.469-4.953,2.861  C323.221,430.659,318.824,434.973,310.64,434.973z"/>
<path d="M310.64,469.92c-8.184,0-12.578-4.312-15.487-7.166c-2.439-2.393-3.079-2.861-4.953-2.861s-2.514,0.469-4.952,2.861  c-2.908,2.853-7.303,7.166-15.486,7.166c-8.183,0-12.577-4.312-15.486-7.166c-2.439-2.393-3.079-2.861-4.952-2.861  c-1.872,0-2.514,0.469-4.952,2.861c-2.908,2.853-7.303,7.166-15.486,7.166c-8.183,0-12.577-4.312-15.486-7.166  c-2.438-2.393-3.079-2.861-4.952-2.861c-1.871,0-2.512,0.469-4.95,2.86c-2.908,2.854-7.302,7.167-15.486,7.167  c-8.183,0-12.577-4.312-15.485-7.167c-2.438-2.392-3.078-2.86-4.95-2.86c-4.153,0-7.521-3.366-7.521-7.521s3.367-7.521,7.521-7.521  c8.183,0,12.577,4.312,15.485,7.167c2.437,2.392,3.078,2.86,4.949,2.86c1.872,0,2.513-0.469,4.95-2.86  c2.908-2.854,7.302-7.167,15.485-7.167s12.578,4.312,15.486,7.166c2.438,2.393,3.079,2.861,4.951,2.861  c1.872,0,2.514-0.469,4.952-2.861c2.908-2.853,7.303-7.166,15.486-7.166c8.184,0,12.578,4.312,15.486,7.166  c2.438,2.393,3.079,2.861,4.951,2.861c1.873,0,2.514-0.469,4.952-2.861c2.908-2.853,7.303-7.166,15.487-7.166  c8.184,0,12.578,4.312,15.487,7.166c2.439,2.393,3.079,2.861,4.953,2.861c1.874,0,2.516-0.469,4.955-2.861  c2.908-2.853,7.303-7.166,15.486-7.166c4.154,0,7.521,3.366,7.521,7.521s-3.366,7.521-7.521,7.521c-1.873,0-2.515,0.469-4.953,2.861  C323.221,465.607,318.824,469.92,310.64,469.92z"/>
<path d="M433.178,417.961v10.369c0,6.538-5.325,11.863-11.873,11.863H408.37c-6.548,0-11.873-5.325-11.873-11.863v-4.723h-31.226  v65.49c0,12.624-10.279,22.903-22.903,22.903H154.864c-12.624,0-22.893-10.279-22.893-22.903V326.52  c0-4.161,3.359-7.521,7.521-7.521c4.151,0,7.521,3.359,7.521,7.521v162.576c0,4.332,3.52,7.862,7.852,7.862h187.504  c4.332,0,7.862-3.53,7.862-7.862v-67.997c0-6.909,5.625-12.534,12.534-12.534h36.911c6.538,0,11.863,5.325,11.863,11.863v4.723  h6.598v-7.19c0-9.115-7.42-16.545-16.545-16.545h-38.826c-6.909,0-12.534-5.615-12.534-12.534v-62.361  c0-4.161,3.369-7.521,7.521-7.521c4.151,0,7.521,3.359,7.521,7.521v59.854h36.32C419.01,386.375,433.178,400.543,433.178,417.961z"/>
<g>
</g>
<g>
</g>
<g>
</g>
<g>
</g>
<g>
</g>
<g>
</g>
<g>
</g>
<g>
</g>
<g>
</g>
<g>
</g>
<g>
</g>
<g>
</g>
<g>
</g>
<g>
</g>
<g>
</g>
</svg>
